%TF.GenerationSoftware,KiCad,Pcbnew,8.0.1*%
%TF.CreationDate,2024-07-30T21:31:35-05:00*%
%TF.ProjectId,expression-pedal-to-pwm,65787072-6573-4736-996f-6e2d70656461,rev?*%
%TF.SameCoordinates,Original*%
%TF.FileFunction,Copper,L2,Bot*%
%TF.FilePolarity,Positive*%
%FSLAX46Y46*%
G04 Gerber Fmt 4.6, Leading zero omitted, Abs format (unit mm)*
G04 Created by KiCad (PCBNEW 8.0.1) date 2024-07-30 21:31:35*
%MOMM*%
%LPD*%
G01*
G04 APERTURE LIST*
%TA.AperFunction,ComponentPad*%
%ADD10C,2.340000*%
%TD*%
%TA.AperFunction,ComponentPad*%
%ADD11R,2.000000X2.000000*%
%TD*%
%TA.AperFunction,ComponentPad*%
%ADD12C,2.000000*%
%TD*%
%TA.AperFunction,ComponentPad*%
%ADD13R,1.400000X1.400000*%
%TD*%
%TA.AperFunction,ComponentPad*%
%ADD14C,1.400000*%
%TD*%
%TA.AperFunction,ComponentPad*%
%ADD15C,1.440000*%
%TD*%
%TA.AperFunction,ComponentPad*%
%ADD16C,6.000000*%
%TD*%
%TA.AperFunction,ComponentPad*%
%ADD17R,1.800000X1.800000*%
%TD*%
%TA.AperFunction,ComponentPad*%
%ADD18C,1.800000*%
%TD*%
%TA.AperFunction,ComponentPad*%
%ADD19C,3.000000*%
%TD*%
%TA.AperFunction,ComponentPad*%
%ADD20R,2.000000X1.905000*%
%TD*%
%TA.AperFunction,ComponentPad*%
%ADD21O,2.000000X1.905000*%
%TD*%
%TA.AperFunction,ComponentPad*%
%ADD22R,1.600000X1.600000*%
%TD*%
%TA.AperFunction,ComponentPad*%
%ADD23C,1.600000*%
%TD*%
%TA.AperFunction,ComponentPad*%
%ADD24C,1.700000*%
%TD*%
%TA.AperFunction,ViaPad*%
%ADD25C,0.600000*%
%TD*%
%TA.AperFunction,Conductor*%
%ADD26C,0.300000*%
%TD*%
G04 APERTURE END LIST*
D10*
%TO.P,RV3,1,1*%
%TO.N,VREF_LOW*%
X113000000Y-96000000D03*
%TO.P,RV3,2,2*%
%TO.N,Net-(J4-PadTN)*%
X113000000Y-101000000D03*
%TO.P,RV3,3,3*%
%TO.N,VREF_HIGH*%
X113000000Y-106000000D03*
%TD*%
D11*
%TO.P,C11,1*%
%TO.N,/Power In*%
X115500000Y-89367677D03*
D12*
%TO.P,C11,2*%
%TO.N,GND*%
X115500000Y-84367677D03*
%TD*%
D13*
%TO.P,J5,1,Pin_1*%
%TO.N,GND*%
X135355000Y-115475000D03*
D14*
%TO.P,J5,2,Pin_2*%
%TO.N,/Power In*%
X135355000Y-119285000D03*
%TO.P,J5,3,Pin_3*%
%TO.N,Net-(D1-A)*%
X135355000Y-123095000D03*
%TO.P,J5,4,Pin_4*%
%TO.N,/Power In*%
X135355000Y-126905000D03*
%TO.P,J5,5,Pin_5*%
%TO.N,GND*%
X135355000Y-130715000D03*
%TO.P,J5,6,Pin_6*%
%TO.N,/PWM*%
X135355000Y-134525000D03*
%TD*%
D15*
%TO.P,RV2,1,1*%
%TO.N,5V*%
X135100000Y-146600000D03*
%TO.P,RV2,2,2*%
%TO.N,Net-(U1D-+)*%
X135100000Y-144060000D03*
%TO.P,RV2,3,3*%
%TO.N,GND*%
X135100000Y-141520000D03*
%TD*%
D16*
%TO.P,HS1,1,Pin_1*%
%TO.N,unconnected-(HS1-Pin_1-Pad1)_0*%
X129300000Y-81200000D03*
%TO.N,unconnected-(HS1-Pin_1-Pad1)*%
X129300000Y-106600000D03*
%TD*%
D17*
%TO.P,D9,1,K*%
%TO.N,Net-(D9-K)*%
X114000000Y-77250000D03*
D18*
%TO.P,D9,2,A*%
%TO.N,/PWM*%
X114000000Y-79790000D03*
%TD*%
D19*
%TO.P,J4,R*%
%TO.N,/Ring*%
X119625000Y-189615000D03*
%TO.P,J4,RN*%
%TO.N,unconnected-(J4-PadRN)*%
X119625000Y-173385000D03*
%TO.P,J4,S*%
%TO.N,/Sleeve*%
X113275000Y-189615000D03*
%TO.P,J4,SN*%
%TO.N,unconnected-(J4-PadSN)*%
X113275000Y-173385000D03*
%TO.P,J4,T*%
%TO.N,/Tip*%
X125975000Y-189615000D03*
%TO.P,J4,TN*%
%TO.N,Net-(J4-PadTN)*%
X125975000Y-173385000D03*
%TD*%
D20*
%TO.P,Q1,1,G*%
%TO.N,Net-(Q1-G)*%
X133590000Y-96100000D03*
D21*
%TO.P,Q1,2,D*%
%TO.N,Net-(D1-A)*%
X133590000Y-93560000D03*
%TO.P,Q1,3,S*%
%TO.N,GND*%
X133590000Y-91020000D03*
%TD*%
D22*
%TO.P,C9,1*%
%TO.N,Net-(C9-Pad1)*%
X113300000Y-165394888D03*
D23*
%TO.P,C9,2*%
%TO.N,GND*%
X113300000Y-167894888D03*
%TD*%
D12*
%TO.P,SW2,*%
%TO.N,*%
X116582500Y-149500000D03*
X110582500Y-149500000D03*
X116582500Y-161500000D03*
X110582500Y-161500000D03*
D24*
%TO.P,SW2,1,A*%
%TO.N,unconnected-(SW2-A-Pad1)*%
X114832500Y-151500000D03*
%TO.P,SW2,2,B*%
%TO.N,Net-(C9-Pad1)*%
X114832500Y-155500000D03*
%TO.P,SW2,3,C*%
%TO.N,/Tip_filtered*%
X114832500Y-159500000D03*
%TO.P,SW2,4,A*%
%TO.N,unconnected-(SW2-A-Pad4)*%
X112332500Y-151500000D03*
%TO.P,SW2,5,B*%
%TO.N,unconnected-(SW2-B-Pad5)*%
X112332500Y-155500000D03*
%TO.P,SW2,6,C*%
%TO.N,unconnected-(SW2-C-Pad6)*%
X112332500Y-159500000D03*
%TD*%
D22*
%TO.P,C1,1*%
%TO.N,/Power In*%
X128300000Y-115805113D03*
D23*
%TO.P,C1,2*%
%TO.N,GND*%
X128300000Y-113305113D03*
%TD*%
D12*
%TO.P,SW1,*%
%TO.N,*%
X116500000Y-128500000D03*
X110500000Y-128500000D03*
X116500000Y-140500000D03*
X110500000Y-140500000D03*
D24*
%TO.P,SW1,1,A*%
%TO.N,VREF_LOW*%
X114750000Y-130500000D03*
%TO.P,SW1,2,B*%
%TO.N,/Sleeve*%
X114750000Y-134500000D03*
%TO.P,SW1,3,C*%
%TO.N,VREF_HIGH*%
X114750000Y-138500000D03*
%TO.P,SW1,4,A*%
X112250000Y-130500000D03*
%TO.P,SW1,5,B*%
%TO.N,/Ring*%
X112250000Y-134500000D03*
%TO.P,SW1,6,C*%
%TO.N,VREF_LOW*%
X112250000Y-138500000D03*
%TD*%
D20*
%TO.P,U2,1,VI*%
%TO.N,/Power In*%
X123500000Y-121500000D03*
D21*
%TO.P,U2,2,GND*%
%TO.N,GND*%
X123500000Y-118960000D03*
%TO.P,U2,3,VO*%
%TO.N,5V*%
X123500000Y-116420000D03*
%TD*%
D15*
%TO.P,RV1,1,1*%
%TO.N,5V*%
X133800000Y-163460000D03*
%TO.P,RV1,2,2*%
%TO.N,Net-(U1C-+)*%
X133800000Y-166000000D03*
%TO.P,RV1,3,3*%
%TO.N,GND*%
X133800000Y-168540000D03*
%TD*%
D17*
%TO.P,D8,1,K*%
%TO.N,Net-(D8-K)*%
X114000000Y-118750000D03*
D18*
%TO.P,D8,2,A*%
%TO.N,5V*%
X114000000Y-121290000D03*
%TD*%
D22*
%TO.P,C3,1*%
%TO.N,5V*%
X117000000Y-113700000D03*
D23*
%TO.P,C3,2*%
%TO.N,GND*%
X117000000Y-116200000D03*
%TD*%
D25*
%TO.N,/OscillatorVoltage*%
X123000000Y-153000000D03*
X126200000Y-158300000D03*
%TO.N,5V*%
X124600000Y-169900000D03*
X130900000Y-155500000D03*
%TO.N,/PWM*%
X118690000Y-79790000D03*
X137600000Y-159900000D03*
X137100000Y-99900000D03*
%TO.N,GND*%
X131100000Y-130200000D03*
X138100000Y-90900000D03*
X111800000Y-178500000D03*
X122700000Y-151100000D03*
X123900000Y-100500000D03*
X125800000Y-87500000D03*
X136600000Y-81000000D03*
X118900000Y-87300000D03*
X130900000Y-90900000D03*
X127100000Y-97600000D03*
X137400000Y-176400000D03*
X136000000Y-155500000D03*
X133200000Y-87100000D03*
X127600000Y-143000000D03*
X111100000Y-81300000D03*
X111200000Y-110700000D03*
X121800000Y-119800000D03*
X122900000Y-178200000D03*
X124100000Y-93500000D03*
X132700000Y-181400000D03*
X111000000Y-76300000D03*
X117200000Y-146600000D03*
X122900000Y-160600000D03*
X124400000Y-149300000D03*
X127600000Y-136800000D03*
X130700000Y-146400000D03*
X129700000Y-161600000D03*
X137200000Y-76600000D03*
X118800000Y-101200000D03*
X111100000Y-144600000D03*
X111400000Y-87800000D03*
X124100000Y-127000000D03*
X111600000Y-185400000D03*
X135800000Y-168900000D03*
X138800000Y-155500000D03*
X133000000Y-141500000D03*
X132900000Y-173000000D03*
X121600000Y-78500000D03*
X118000000Y-165200000D03*
X127000000Y-130800000D03*
X123400000Y-184500000D03*
X123200000Y-146200000D03*
X134200000Y-149200000D03*
X119700000Y-118700000D03*
X118400000Y-110300000D03*
X121900000Y-117800000D03*
X117500000Y-155300000D03*
X130700000Y-148100000D03*
X110800000Y-168100000D03*
X135400000Y-161800000D03*
X118100000Y-120300000D03*
X138800000Y-152700000D03*
X136300000Y-189100000D03*
X137500000Y-166500000D03*
X134300000Y-112300000D03*
X125100000Y-165000000D03*
X127500000Y-135300000D03*
X115800000Y-124900000D03*
X135600000Y-104200000D03*
X123100000Y-108700000D03*
%TO.N,VREF_HIGH*%
X123600000Y-143000000D03*
X136000000Y-151000000D03*
%TO.N,VREF_LOW*%
X136250000Y-158750000D03*
X122939998Y-143950000D03*
%TO.N,/Ring*%
X119000000Y-136000000D03*
X117000000Y-168000000D03*
%TO.N,/Sleeve*%
X119000000Y-132500000D03*
%TD*%
D26*
%TO.N,/OscillatorVoltage*%
X123400000Y-158300000D02*
X122600000Y-157500000D01*
X122600000Y-153400000D02*
X123000000Y-153000000D01*
X126200000Y-158300000D02*
X123400000Y-158300000D01*
X122600000Y-157500000D02*
X122600000Y-153400000D01*
%TO.N,5V*%
X124600000Y-169900000D02*
X125100000Y-169900000D01*
X130900000Y-160560000D02*
X133800000Y-163460000D01*
X130900000Y-155500000D02*
X130900000Y-160560000D01*
X125100000Y-169900000D02*
X131540000Y-163460000D01*
X131540000Y-163460000D02*
X133800000Y-163460000D01*
%TO.N,/PWM*%
X137600000Y-159900000D02*
X137600000Y-136770000D01*
X137600000Y-136770000D02*
X135355000Y-134525000D01*
X118990000Y-79790000D02*
X121400000Y-82200000D01*
X135355000Y-134525000D02*
X136675000Y-134525000D01*
X136675000Y-134525000D02*
X138100000Y-133100000D01*
X121400000Y-94300000D02*
X127000000Y-99900000D01*
X121400000Y-82200000D02*
X121400000Y-94300000D01*
X138100000Y-100900000D02*
X137100000Y-99900000D01*
X118690000Y-79790000D02*
X118990000Y-79790000D01*
X127000000Y-99900000D02*
X137100000Y-99900000D01*
X138100000Y-133100000D02*
X138100000Y-100900000D01*
%TO.N,Net-(J4-PadTN)*%
X120900000Y-168310000D02*
X125975000Y-173385000D01*
X120900000Y-136874874D02*
X120900000Y-168310000D01*
X113000000Y-101000000D02*
X120750000Y-108750000D01*
X120750000Y-136724874D02*
X120900000Y-136874874D01*
X120750000Y-108750000D02*
X120750000Y-136724874D01*
%TO.N,VREF_HIGH*%
X113250000Y-137000000D02*
X114750000Y-138500000D01*
X123600000Y-143000000D02*
X131600000Y-151000000D01*
X112250000Y-125250000D02*
X112250000Y-130500000D01*
X113000000Y-106000000D02*
X113000000Y-113500000D01*
X113000000Y-113500000D02*
X111000000Y-115500000D01*
X112500000Y-137000000D02*
X113250000Y-137000000D01*
X110500000Y-135000000D02*
X112500000Y-137000000D01*
X110500000Y-132500000D02*
X110500000Y-135000000D01*
X111000000Y-115500000D02*
X111000000Y-124000000D01*
X111000000Y-124000000D02*
X112250000Y-125250000D01*
X112250000Y-130500000D02*
X112250000Y-130750000D01*
X131600000Y-151000000D02*
X136000000Y-151000000D01*
X112250000Y-130750000D02*
X110500000Y-132500000D01*
%TO.N,VREF_LOW*%
X123250000Y-143950000D02*
X132000000Y-152700000D01*
X122939998Y-143950000D02*
X123250000Y-143950000D01*
X132000000Y-154500000D02*
X136250000Y-158750000D01*
X132000000Y-152700000D02*
X132000000Y-154500000D01*
%TO.N,/Ring*%
X119000000Y-136000000D02*
X119000000Y-137237615D01*
X119300000Y-165700000D02*
X117000000Y-168000000D01*
X119000000Y-136000000D02*
X113750000Y-136000000D01*
X119000000Y-137237615D02*
X119300000Y-137537615D01*
X113750000Y-136000000D02*
X112250000Y-134500000D01*
X119300000Y-137537615D02*
X119300000Y-165700000D01*
%TO.N,/Sleeve*%
X119950000Y-137056245D02*
X120100000Y-137206245D01*
X116500000Y-186390000D02*
X113275000Y-189615000D01*
X117000000Y-134500000D02*
X114750000Y-134500000D01*
X116500000Y-170500000D02*
X116500000Y-186390000D01*
X119000000Y-132500000D02*
X119950000Y-133450000D01*
X120100000Y-166900000D02*
X116500000Y-170500000D01*
X119950000Y-133450000D02*
X119950000Y-137056245D01*
X119000000Y-132500000D02*
X117000000Y-134500000D01*
X120100000Y-137206245D02*
X120100000Y-166900000D01*
%TO.N,Net-(C9-Pad1)*%
X118400000Y-159067500D02*
X114832500Y-155500000D01*
X118400000Y-162900000D02*
X118400000Y-159067500D01*
X115905112Y-165394888D02*
X118400000Y-162900000D01*
X113300000Y-165394888D02*
X115905112Y-165394888D01*
%TD*%
%TA.AperFunction,Conductor*%
%TO.N,GND*%
G36*
X139342539Y-75020185D02*
G01*
X139388294Y-75072989D01*
X139399500Y-75124500D01*
X139399500Y-191875500D01*
X139379815Y-191942539D01*
X139327011Y-191988294D01*
X139275500Y-191999500D01*
X109624500Y-191999500D01*
X109557461Y-191979815D01*
X109511706Y-191927011D01*
X109500500Y-191875500D01*
X109500500Y-173385001D01*
X111269390Y-173385001D01*
X111289804Y-173670433D01*
X111350628Y-173950037D01*
X111450635Y-174218166D01*
X111587770Y-174469309D01*
X111587775Y-174469317D01*
X111759254Y-174698387D01*
X111759270Y-174698405D01*
X111961594Y-174900729D01*
X111961612Y-174900745D01*
X112190682Y-175072224D01*
X112190690Y-175072229D01*
X112441833Y-175209364D01*
X112441832Y-175209364D01*
X112441836Y-175209365D01*
X112441839Y-175209367D01*
X112709954Y-175309369D01*
X112709960Y-175309370D01*
X112709962Y-175309371D01*
X112989566Y-175370195D01*
X112989568Y-175370195D01*
X112989572Y-175370196D01*
X113243220Y-175388337D01*
X113274999Y-175390610D01*
X113275000Y-175390610D01*
X113275001Y-175390610D01*
X113303595Y-175388564D01*
X113560428Y-175370196D01*
X113840046Y-175309369D01*
X114108161Y-175209367D01*
X114359315Y-175072226D01*
X114588395Y-174900739D01*
X114790739Y-174698395D01*
X114962226Y-174469315D01*
X115099367Y-174218161D01*
X115199369Y-173950046D01*
X115260196Y-173670428D01*
X115280610Y-173385000D01*
X115260196Y-173099572D01*
X115199369Y-172819954D01*
X115099367Y-172551839D01*
X114962226Y-172300685D01*
X114962224Y-172300682D01*
X114790745Y-172071612D01*
X114790729Y-172071594D01*
X114588405Y-171869270D01*
X114588387Y-171869254D01*
X114359317Y-171697775D01*
X114359309Y-171697770D01*
X114108166Y-171560635D01*
X114108167Y-171560635D01*
X114000915Y-171520632D01*
X113840046Y-171460631D01*
X113840043Y-171460630D01*
X113840037Y-171460628D01*
X113560433Y-171399804D01*
X113275001Y-171379390D01*
X113274999Y-171379390D01*
X112989566Y-171399804D01*
X112709962Y-171460628D01*
X112441833Y-171560635D01*
X112190690Y-171697770D01*
X112190682Y-171697775D01*
X111961612Y-171869254D01*
X111961594Y-171869270D01*
X111759270Y-172071594D01*
X111759254Y-172071612D01*
X111587775Y-172300682D01*
X111587770Y-172300690D01*
X111450635Y-172551833D01*
X111350628Y-172819962D01*
X111289804Y-173099566D01*
X111269390Y-173384998D01*
X111269390Y-173385001D01*
X109500500Y-173385001D01*
X109500500Y-162812927D01*
X109520185Y-162745888D01*
X109572989Y-162700133D01*
X109642147Y-162690189D01*
X109700658Y-162715072D01*
X109758991Y-162760474D01*
X109977690Y-162878828D01*
X110212886Y-162959571D01*
X110458165Y-163000500D01*
X110706835Y-163000500D01*
X110952114Y-162959571D01*
X111187310Y-162878828D01*
X111406009Y-162760474D01*
X111602244Y-162607738D01*
X111770664Y-162424785D01*
X111906673Y-162216607D01*
X112006563Y-161988881D01*
X112067608Y-161747821D01*
X112088143Y-161500000D01*
X112067608Y-161252179D01*
X112067607Y-161252175D01*
X112006562Y-161011114D01*
X112004899Y-161006271D01*
X112005971Y-161005902D01*
X111997769Y-160942076D01*
X112027743Y-160878962D01*
X112087081Y-160842073D01*
X112131032Y-160838032D01*
X112314095Y-160854048D01*
X112332499Y-160855659D01*
X112332500Y-160855659D01*
X112332501Y-160855659D01*
X112376630Y-160851798D01*
X112567908Y-160835063D01*
X112796163Y-160773903D01*
X113010330Y-160674035D01*
X113203901Y-160538495D01*
X113370995Y-160371401D01*
X113480925Y-160214405D01*
X113535502Y-160170780D01*
X113605000Y-160163586D01*
X113667355Y-160195109D01*
X113684075Y-160214405D01*
X113790239Y-160366024D01*
X113794005Y-160371401D01*
X113961099Y-160538495D01*
X114057884Y-160606265D01*
X114154665Y-160674032D01*
X114154667Y-160674033D01*
X114154670Y-160674035D01*
X114368837Y-160773903D01*
X114597092Y-160835063D01*
X114785418Y-160851539D01*
X114832499Y-160855659D01*
X114832500Y-160855659D01*
X114832501Y-160855659D01*
X114849363Y-160854183D01*
X115033965Y-160838032D01*
X115102462Y-160851798D01*
X115152645Y-160900413D01*
X115168579Y-160968442D01*
X115159588Y-161006100D01*
X115160100Y-161006276D01*
X115158436Y-161011120D01*
X115097392Y-161252175D01*
X115097390Y-161252187D01*
X115076857Y-161499994D01*
X115076857Y-161500005D01*
X115097390Y-161747812D01*
X115097392Y-161747824D01*
X115158436Y-161988881D01*
X115258326Y-162216606D01*
X115394333Y-162424782D01*
X115394336Y-162424785D01*
X115562756Y-162607738D01*
X115758991Y-162760474D01*
X115758993Y-162760475D01*
X115895773Y-162834497D01*
X115977690Y-162878828D01*
X116212886Y-162959571D01*
X116458165Y-163000500D01*
X116706835Y-163000500D01*
X116952114Y-162959571D01*
X117158393Y-162888754D01*
X117228190Y-162885605D01*
X117288612Y-162920691D01*
X117320472Y-162982873D01*
X117313657Y-163052410D01*
X117286336Y-163093717D01*
X115671985Y-164708069D01*
X115610662Y-164741554D01*
X115584304Y-164744388D01*
X114724499Y-164744388D01*
X114657460Y-164724703D01*
X114611705Y-164671899D01*
X114600499Y-164620388D01*
X114600499Y-164547017D01*
X114600498Y-164547011D01*
X114600497Y-164547004D01*
X114594091Y-164487405D01*
X114560942Y-164398529D01*
X114543797Y-164352559D01*
X114543793Y-164352552D01*
X114457547Y-164237343D01*
X114457544Y-164237340D01*
X114342335Y-164151094D01*
X114342328Y-164151090D01*
X114207482Y-164100796D01*
X114207483Y-164100796D01*
X114147883Y-164094389D01*
X114147881Y-164094388D01*
X114147873Y-164094388D01*
X114147864Y-164094388D01*
X112452129Y-164094388D01*
X112452123Y-164094389D01*
X112392516Y-164100796D01*
X112257671Y-164151090D01*
X112257664Y-164151094D01*
X112142455Y-164237340D01*
X112142452Y-164237343D01*
X112056206Y-164352552D01*
X112056202Y-164352559D01*
X112005908Y-164487405D01*
X111999501Y-164547004D01*
X111999501Y-164547011D01*
X111999500Y-164547023D01*
X111999500Y-166242758D01*
X111999501Y-166242764D01*
X112005908Y-166302371D01*
X112056202Y-166437216D01*
X112056206Y-166437223D01*
X112142452Y-166552432D01*
X112142455Y-166552435D01*
X112257664Y-166638681D01*
X112257671Y-166638685D01*
X112302618Y-166655449D01*
X112392517Y-166688979D01*
X112452127Y-166695388D01*
X112452153Y-166695387D01*
X112455453Y-166695566D01*
X112455372Y-166697071D01*
X112516672Y-166715000D01*
X112562483Y-166767755D01*
X112570016Y-166811352D01*
X113253553Y-167494888D01*
X113247339Y-167494888D01*
X113145606Y-167522147D01*
X113054394Y-167574808D01*
X112979920Y-167649282D01*
X112927259Y-167740494D01*
X112900000Y-167842227D01*
X112900000Y-167848440D01*
X112220974Y-167169414D01*
X112220973Y-167169414D01*
X112169868Y-167242400D01*
X112169866Y-167242404D01*
X112073734Y-167448561D01*
X112073730Y-167448570D01*
X112014860Y-167668277D01*
X112014858Y-167668288D01*
X111995034Y-167894885D01*
X111995034Y-167894890D01*
X112014858Y-168121487D01*
X112014860Y-168121498D01*
X112073730Y-168341205D01*
X112073735Y-168341219D01*
X112169863Y-168547366D01*
X112220974Y-168620360D01*
X112900000Y-167941334D01*
X112900000Y-167947549D01*
X112927259Y-168049282D01*
X112979920Y-168140494D01*
X113054394Y-168214968D01*
X113145606Y-168267629D01*
X113247339Y-168294888D01*
X113253553Y-168294888D01*
X112574526Y-168973913D01*
X112647513Y-169025020D01*
X112647521Y-169025024D01*
X112853668Y-169121152D01*
X112853682Y-169121157D01*
X113073389Y-169180027D01*
X113073400Y-169180029D01*
X113299998Y-169199854D01*
X113300002Y-169199854D01*
X113526599Y-169180029D01*
X113526610Y-169180027D01*
X113746317Y-169121157D01*
X113746331Y-169121152D01*
X113952478Y-169025024D01*
X114025471Y-168973912D01*
X113346447Y-168294888D01*
X113352661Y-168294888D01*
X113454394Y-168267629D01*
X113545606Y-168214968D01*
X113620080Y-168140494D01*
X113672741Y-168049282D01*
X113700000Y-167947549D01*
X113700000Y-167941335D01*
X114379024Y-168620359D01*
X114430136Y-168547366D01*
X114526264Y-168341219D01*
X114526269Y-168341205D01*
X114585139Y-168121498D01*
X114585141Y-168121487D01*
X114604966Y-167894890D01*
X114604966Y-167894885D01*
X114585141Y-167668288D01*
X114585139Y-167668277D01*
X114526269Y-167448570D01*
X114526264Y-167448556D01*
X114430136Y-167242409D01*
X114430132Y-167242401D01*
X114379025Y-167169414D01*
X113700000Y-167848439D01*
X113700000Y-167842227D01*
X113672741Y-167740494D01*
X113620080Y-167649282D01*
X113545606Y-167574808D01*
X113454394Y-167522147D01*
X113352661Y-167494888D01*
X113346448Y-167494888D01*
X114030645Y-166810689D01*
X114040492Y-166761695D01*
X114089107Y-166711512D01*
X114144633Y-166696869D01*
X114144576Y-166695788D01*
X114144571Y-166695742D01*
X114144573Y-166695741D01*
X114144564Y-166695564D01*
X114147857Y-166695387D01*
X114147872Y-166695387D01*
X114207483Y-166688979D01*
X114342331Y-166638684D01*
X114457546Y-166552434D01*
X114543796Y-166437219D01*
X114594091Y-166302371D01*
X114600500Y-166242761D01*
X114600500Y-166169388D01*
X114620185Y-166102349D01*
X114672989Y-166056594D01*
X114724500Y-166045388D01*
X115969183Y-166045388D01*
X116053727Y-166028570D01*
X116094856Y-166020389D01*
X116213239Y-165971353D01*
X116215948Y-165969542D01*
X116216884Y-165968918D01*
X116252103Y-165945385D01*
X116319781Y-165900165D01*
X118437819Y-163782127D01*
X118499142Y-163748642D01*
X118568834Y-163753626D01*
X118624767Y-163795498D01*
X118649184Y-163860962D01*
X118649500Y-163869808D01*
X118649500Y-165379191D01*
X118629815Y-165446230D01*
X118613181Y-165466872D01*
X116901775Y-167178277D01*
X116840452Y-167211762D01*
X116827988Y-167213815D01*
X116820752Y-167214630D01*
X116820744Y-167214632D01*
X116650478Y-167274210D01*
X116497737Y-167370184D01*
X116370184Y-167497737D01*
X116274211Y-167650476D01*
X116214631Y-167820745D01*
X116214630Y-167820750D01*
X116194435Y-167999996D01*
X116194435Y-168000003D01*
X116214630Y-168179249D01*
X116214631Y-168179254D01*
X116274211Y-168349523D01*
X116360807Y-168487339D01*
X116370184Y-168502262D01*
X116497738Y-168629816D01*
X116588080Y-168686582D01*
X116648695Y-168724669D01*
X116650478Y-168725789D01*
X116727254Y-168752654D01*
X116820745Y-168785368D01*
X116820750Y-168785369D01*
X116990822Y-168804531D01*
X117055236Y-168831597D01*
X117094791Y-168889192D01*
X117096929Y-168959029D01*
X117064620Y-169015432D01*
X115994726Y-170085326D01*
X115923534Y-170191874D01*
X115874499Y-170310255D01*
X115874497Y-170310261D01*
X115849500Y-170435928D01*
X115849500Y-186069191D01*
X115829815Y-186136230D01*
X115813181Y-186156872D01*
X114216411Y-187753641D01*
X114155088Y-187787126D01*
X114085397Y-187782142D01*
X113982178Y-187743643D01*
X113840046Y-187690631D01*
X113840042Y-187690630D01*
X113840039Y-187690629D01*
X113560433Y-187629804D01*
X113275001Y-187609390D01*
X113274999Y-187609390D01*
X112989566Y-187629804D01*
X112709962Y-187690628D01*
X112441833Y-187790635D01*
X112190690Y-187927770D01*
X112190682Y-187927775D01*
X111961612Y-188099254D01*
X111961594Y-188099270D01*
X111759270Y-188301594D01*
X111759254Y-188301612D01*
X111587775Y-188530682D01*
X111587770Y-188530690D01*
X111450635Y-188781833D01*
X111350628Y-189049962D01*
X111289804Y-189329566D01*
X111269390Y-189614998D01*
X111269390Y-189615001D01*
X111289804Y-189900433D01*
X111350628Y-190180037D01*
X111450635Y-190448166D01*
X111587770Y-190699309D01*
X111587775Y-190699317D01*
X111759254Y-190928387D01*
X111759270Y-190928405D01*
X111961594Y-191130729D01*
X111961612Y-191130745D01*
X112190682Y-191302224D01*
X112190690Y-191302229D01*
X112441833Y-191439364D01*
X112441832Y-191439364D01*
X112441836Y-191439365D01*
X112441839Y-191439367D01*
X112709954Y-191539369D01*
X112709960Y-191539370D01*
X112709962Y-191539371D01*
X112989566Y-191600195D01*
X112989568Y-191600195D01*
X112989572Y-191600196D01*
X113243220Y-191618337D01*
X113274999Y-191620610D01*
X113275000Y-191620610D01*
X113275001Y-191620610D01*
X113303595Y-191618564D01*
X113560428Y-191600196D01*
X113840046Y-191539369D01*
X114108161Y-191439367D01*
X114359315Y-191302226D01*
X114588395Y-191130739D01*
X114790739Y-190928395D01*
X114962226Y-190699315D01*
X115099367Y-190448161D01*
X115199369Y-190180046D01*
X115260196Y-189900428D01*
X115280610Y-189615001D01*
X117619390Y-189615001D01*
X117639804Y-189900433D01*
X117700628Y-190180037D01*
X117800635Y-190448166D01*
X117937770Y-190699309D01*
X117937775Y-190699317D01*
X118109254Y-190928387D01*
X118109270Y-190928405D01*
X118311594Y-191130729D01*
X118311612Y-191130745D01*
X118540682Y-191302224D01*
X118540690Y-191302229D01*
X118791833Y-191439364D01*
X118791832Y-191439364D01*
X118791836Y-191439365D01*
X118791839Y-191439367D01*
X119059954Y-191539369D01*
X119059960Y-191539370D01*
X119059962Y-191539371D01*
X119339566Y-191600195D01*
X119339568Y-191600195D01*
X119339572Y-191600196D01*
X119593220Y-191618337D01*
X119624999Y-191620610D01*
X119625000Y-191620610D01*
X119625001Y-191620610D01*
X119653595Y-191618564D01*
X119910428Y-191600196D01*
X120190046Y-191539369D01*
X120458161Y-191439367D01*
X120709315Y-191302226D01*
X120938395Y-191130739D01*
X121140739Y-190928395D01*
X121312226Y-190699315D01*
X121449367Y-190448161D01*
X121549369Y-190180046D01*
X121610196Y-189900428D01*
X121630610Y-189615001D01*
X123969390Y-189615001D01*
X123989804Y-189900433D01*
X124050628Y-190180037D01*
X124150635Y-190448166D01*
X124287770Y-190699309D01*
X124287775Y-190699317D01*
X124459254Y-190928387D01*
X124459270Y-190928405D01*
X124661594Y-191130729D01*
X124661612Y-191130745D01*
X124890682Y-191302224D01*
X124890690Y-191302229D01*
X125141833Y-191439364D01*
X125141832Y-191439364D01*
X125141836Y-191439365D01*
X125141839Y-191439367D01*
X125409954Y-191539369D01*
X125409960Y-191539370D01*
X125409962Y-191539371D01*
X125689566Y-191600195D01*
X125689568Y-191600195D01*
X125689572Y-191600196D01*
X125943220Y-191618337D01*
X125974999Y-191620610D01*
X125975000Y-191620610D01*
X125975001Y-191620610D01*
X126003595Y-191618564D01*
X126260428Y-191600196D01*
X126540046Y-191539369D01*
X126808161Y-191439367D01*
X127059315Y-191302226D01*
X127288395Y-191130739D01*
X127490739Y-190928395D01*
X127662226Y-190699315D01*
X127799367Y-190448161D01*
X127899369Y-190180046D01*
X127960196Y-189900428D01*
X127980610Y-189615000D01*
X127960196Y-189329572D01*
X127899369Y-189049954D01*
X127799367Y-188781839D01*
X127662226Y-188530685D01*
X127662224Y-188530682D01*
X127490745Y-188301612D01*
X127490729Y-188301594D01*
X127288405Y-188099270D01*
X127288387Y-188099254D01*
X127059317Y-187927775D01*
X127059309Y-187927770D01*
X126808166Y-187790635D01*
X126808167Y-187790635D01*
X126700915Y-187750632D01*
X126540046Y-187690631D01*
X126540043Y-187690630D01*
X126540037Y-187690628D01*
X126260433Y-187629804D01*
X125975001Y-187609390D01*
X125974999Y-187609390D01*
X125689566Y-187629804D01*
X125409962Y-187690628D01*
X125141833Y-187790635D01*
X124890690Y-187927770D01*
X124890682Y-187927775D01*
X124661612Y-188099254D01*
X124661594Y-188099270D01*
X124459270Y-188301594D01*
X124459254Y-188301612D01*
X124287775Y-188530682D01*
X124287770Y-188530690D01*
X124150635Y-188781833D01*
X124050628Y-189049962D01*
X123989804Y-189329566D01*
X123969390Y-189614998D01*
X123969390Y-189615001D01*
X121630610Y-189615001D01*
X121630610Y-189615000D01*
X121610196Y-189329572D01*
X121549369Y-189049954D01*
X121449367Y-188781839D01*
X121312226Y-188530685D01*
X121312224Y-188530682D01*
X121140745Y-188301612D01*
X121140729Y-188301594D01*
X120938405Y-188099270D01*
X120938387Y-188099254D01*
X120709317Y-187927775D01*
X120709309Y-187927770D01*
X120458166Y-187790635D01*
X120458167Y-187790635D01*
X120350915Y-187750632D01*
X120190046Y-187690631D01*
X120190043Y-187690630D01*
X120190037Y-187690628D01*
X119910433Y-187629804D01*
X119625001Y-187609390D01*
X119624999Y-187609390D01*
X119339566Y-187629804D01*
X119059962Y-187690628D01*
X118791833Y-187790635D01*
X118540690Y-187927770D01*
X118540682Y-187927775D01*
X118311612Y-188099254D01*
X118311594Y-188099270D01*
X118109270Y-188301594D01*
X118109254Y-188301612D01*
X117937775Y-188530682D01*
X117937770Y-188530690D01*
X117800635Y-188781833D01*
X117700628Y-189049962D01*
X117639804Y-189329566D01*
X117619390Y-189614998D01*
X117619390Y-189615001D01*
X115280610Y-189615001D01*
X115280610Y-189615000D01*
X115260196Y-189329572D01*
X115199369Y-189049954D01*
X115107855Y-188804598D01*
X115102872Y-188734910D01*
X115136355Y-188673589D01*
X117005277Y-186804669D01*
X117076465Y-186698127D01*
X117125501Y-186579743D01*
X117150500Y-186454069D01*
X117150500Y-186325931D01*
X117150500Y-173385001D01*
X117619390Y-173385001D01*
X117639804Y-173670433D01*
X117700628Y-173950037D01*
X117800635Y-174218166D01*
X117937770Y-174469309D01*
X117937775Y-174469317D01*
X118109254Y-174698387D01*
X118109270Y-174698405D01*
X118311594Y-174900729D01*
X118311612Y-174900745D01*
X118540682Y-175072224D01*
X118540690Y-175072229D01*
X118791833Y-175209364D01*
X118791832Y-175209364D01*
X118791836Y-175209365D01*
X118791839Y-175209367D01*
X119059954Y-175309369D01*
X119059960Y-175309370D01*
X119059962Y-175309371D01*
X119339566Y-175370195D01*
X119339568Y-175370195D01*
X119339572Y-175370196D01*
X119593220Y-175388337D01*
X119624999Y-175390610D01*
X119625000Y-175390610D01*
X119625001Y-175390610D01*
X119653595Y-175388564D01*
X119910428Y-175370196D01*
X120190046Y-175309369D01*
X120458161Y-175209367D01*
X120709315Y-175072226D01*
X120938395Y-174900739D01*
X121140739Y-174698395D01*
X121312226Y-174469315D01*
X121449367Y-174218161D01*
X121549369Y-173950046D01*
X121610196Y-173670428D01*
X121630610Y-173385000D01*
X121610196Y-173099572D01*
X121549369Y-172819954D01*
X121449367Y-172551839D01*
X121312226Y-172300685D01*
X121312224Y-172300682D01*
X121140745Y-172071612D01*
X121140729Y-172071594D01*
X120938405Y-171869270D01*
X120938387Y-171869254D01*
X120709317Y-171697775D01*
X120709309Y-171697770D01*
X120458166Y-171560635D01*
X120458167Y-171560635D01*
X120350915Y-171520632D01*
X120190046Y-171460631D01*
X120190043Y-171460630D01*
X120190037Y-171460628D01*
X119910433Y-171399804D01*
X119625001Y-171379390D01*
X119624999Y-171379390D01*
X119339566Y-171399804D01*
X119059962Y-171460628D01*
X118791833Y-171560635D01*
X118540690Y-171697770D01*
X118540682Y-171697775D01*
X118311612Y-171869254D01*
X118311594Y-171869270D01*
X118109270Y-172071594D01*
X118109254Y-172071612D01*
X117937775Y-172300682D01*
X117937770Y-172300690D01*
X117800635Y-172551833D01*
X117700628Y-172819962D01*
X117639804Y-173099566D01*
X117619390Y-173384998D01*
X117619390Y-173385001D01*
X117150500Y-173385001D01*
X117150500Y-170820808D01*
X117170185Y-170753769D01*
X117186819Y-170733127D01*
X120037819Y-167882127D01*
X120099142Y-167848642D01*
X120168834Y-167853626D01*
X120224767Y-167895498D01*
X120249184Y-167960962D01*
X120249500Y-167969808D01*
X120249500Y-168374070D01*
X120261527Y-168434529D01*
X120261527Y-168434531D01*
X120274497Y-168499736D01*
X120274499Y-168499744D01*
X120312986Y-168592661D01*
X120323535Y-168618127D01*
X120394723Y-168724669D01*
X120394726Y-168724673D01*
X120394727Y-168724674D01*
X124113641Y-172443587D01*
X124147126Y-172504910D01*
X124142142Y-172574601D01*
X124050629Y-172819960D01*
X123989804Y-173099566D01*
X123969390Y-173384998D01*
X123969390Y-173385001D01*
X123989804Y-173670433D01*
X124050628Y-173950037D01*
X124150635Y-174218166D01*
X124287770Y-174469309D01*
X124287775Y-174469317D01*
X124459254Y-174698387D01*
X124459270Y-174698405D01*
X124661594Y-174900729D01*
X124661612Y-174900745D01*
X124890682Y-175072224D01*
X124890690Y-175072229D01*
X125141833Y-175209364D01*
X125141832Y-175209364D01*
X125141836Y-175209365D01*
X125141839Y-175209367D01*
X125409954Y-175309369D01*
X125409960Y-175309370D01*
X125409962Y-175309371D01*
X125689566Y-175370195D01*
X125689568Y-175370195D01*
X125689572Y-175370196D01*
X125943220Y-175388337D01*
X125974999Y-175390610D01*
X125975000Y-175390610D01*
X125975001Y-175390610D01*
X126003595Y-175388564D01*
X126260428Y-175370196D01*
X126540046Y-175309369D01*
X126808161Y-175209367D01*
X127059315Y-175072226D01*
X127288395Y-174900739D01*
X127490739Y-174698395D01*
X127662226Y-174469315D01*
X127799367Y-174218161D01*
X127899369Y-173950046D01*
X127960196Y-173670428D01*
X127980610Y-173385000D01*
X127960196Y-173099572D01*
X127899369Y-172819954D01*
X127799367Y-172551839D01*
X127662226Y-172300685D01*
X127662224Y-172300682D01*
X127490745Y-172071612D01*
X127490729Y-172071594D01*
X127288405Y-171869270D01*
X127288387Y-171869254D01*
X127059317Y-171697775D01*
X127059309Y-171697770D01*
X126808166Y-171560635D01*
X126808167Y-171560635D01*
X126700915Y-171520632D01*
X126540046Y-171460631D01*
X126540043Y-171460630D01*
X126540037Y-171460628D01*
X126260433Y-171399804D01*
X125975001Y-171379390D01*
X125974999Y-171379390D01*
X125689566Y-171399804D01*
X125409960Y-171460629D01*
X125409955Y-171460630D01*
X125409954Y-171460631D01*
X125369070Y-171475879D01*
X125164601Y-171552142D01*
X125094909Y-171557126D01*
X125033587Y-171523641D01*
X124417267Y-170907321D01*
X124383782Y-170845998D01*
X124388766Y-170776306D01*
X124430638Y-170720373D01*
X124496102Y-170695956D01*
X124518831Y-170696420D01*
X124599996Y-170705565D01*
X124600000Y-170705565D01*
X124600004Y-170705565D01*
X124779249Y-170685369D01*
X124779251Y-170685368D01*
X124779255Y-170685368D01*
X124779258Y-170685366D01*
X124779262Y-170685366D01*
X124869377Y-170653832D01*
X124949522Y-170625789D01*
X125039096Y-170569505D01*
X125105068Y-170550500D01*
X125164071Y-170550500D01*
X125248615Y-170533682D01*
X125289744Y-170525501D01*
X125408127Y-170476465D01*
X125514669Y-170405277D01*
X131773127Y-164146819D01*
X131834450Y-164113334D01*
X131860808Y-164110500D01*
X132700979Y-164110500D01*
X132768018Y-164130185D01*
X132802554Y-164163377D01*
X132861471Y-164247520D01*
X133012478Y-164398527D01*
X133012481Y-164398529D01*
X133187419Y-164521021D01*
X133187421Y-164521022D01*
X133187420Y-164521022D01*
X133243139Y-164547004D01*
X133380970Y-164611276D01*
X133380983Y-164611279D01*
X133386064Y-164613130D01*
X133385292Y-164615250D01*
X133436710Y-164646594D01*
X133467237Y-164709442D01*
X133458939Y-164778817D01*
X133414452Y-164832693D01*
X133385685Y-164845830D01*
X133386064Y-164846870D01*
X133380972Y-164848723D01*
X133380970Y-164848724D01*
X133380968Y-164848725D01*
X133187421Y-164938977D01*
X133012478Y-165061472D01*
X132861472Y-165212478D01*
X132738977Y-165387421D01*
X132648725Y-165580968D01*
X132648721Y-165580977D01*
X132593452Y-165787247D01*
X132593450Y-165787258D01*
X132574838Y-165999998D01*
X132574838Y-166000001D01*
X132593450Y-166212741D01*
X132593452Y-166212752D01*
X132648721Y-166419022D01*
X132648723Y-166419026D01*
X132648724Y-166419030D01*
X132691171Y-166510058D01*
X132738977Y-166612578D01*
X132861472Y-166787521D01*
X133012478Y-166938527D01*
X133012481Y-166938529D01*
X133187419Y-167061021D01*
X133187421Y-167061022D01*
X133187420Y-167061022D01*
X133251936Y-167091106D01*
X133380970Y-167151276D01*
X133380983Y-167151279D01*
X133386064Y-167153130D01*
X133385390Y-167154978D01*
X133437680Y-167186857D01*
X133468204Y-167249707D01*
X133459903Y-167319082D01*
X133415413Y-167372956D01*
X133385904Y-167386432D01*
X133386236Y-167387342D01*
X133381140Y-167389197D01*
X133187671Y-167479412D01*
X133187669Y-167479413D01*
X133131969Y-167518415D01*
X133131968Y-167518415D01*
X133753554Y-168140000D01*
X133747339Y-168140000D01*
X133645606Y-168167259D01*
X133554394Y-168219920D01*
X133479920Y-168294394D01*
X133427259Y-168385606D01*
X133400000Y-168487339D01*
X133400000Y-168493553D01*
X132778415Y-167871968D01*
X132778415Y-167871969D01*
X132739413Y-167927669D01*
X132739412Y-167927671D01*
X132649197Y-168121140D01*
X132649194Y-168121146D01*
X132593945Y-168327337D01*
X132593944Y-168327345D01*
X132575340Y-168539997D01*
X132575340Y-168540002D01*
X132593944Y-168752654D01*
X132593945Y-168752662D01*
X132649194Y-168958853D01*
X132649197Y-168958859D01*
X132739413Y-169152329D01*
X132778415Y-169208030D01*
X133400000Y-168586445D01*
X133400000Y-168592661D01*
X133427259Y-168694394D01*
X133479920Y-168785606D01*
X133554394Y-168860080D01*
X133645606Y-168912741D01*
X133747339Y-168940000D01*
X133753553Y-168940000D01*
X133131968Y-169561584D01*
X133187663Y-169600582D01*
X133187669Y-169600586D01*
X133381140Y-169690802D01*
X133381146Y-169690805D01*
X133587337Y-169746054D01*
X133587345Y-169746055D01*
X133799998Y-169764660D01*
X133800002Y-169764660D01*
X134012654Y-169746055D01*
X134012662Y-169746054D01*
X134218853Y-169690805D01*
X134218864Y-169690801D01*
X134412325Y-169600589D01*
X134468030Y-169561583D01*
X133846448Y-168940000D01*
X133852661Y-168940000D01*
X133954394Y-168912741D01*
X134045606Y-168860080D01*
X134120080Y-168785606D01*
X134172741Y-168694394D01*
X134200000Y-168592661D01*
X134200000Y-168586447D01*
X134821583Y-169208029D01*
X134860589Y-169152325D01*
X134950801Y-168958864D01*
X134950805Y-168958853D01*
X135006054Y-168752662D01*
X135006055Y-168752654D01*
X135024660Y-168540002D01*
X135024660Y-168539997D01*
X135006055Y-168327345D01*
X135006054Y-168327337D01*
X134950805Y-168121146D01*
X134950802Y-168121140D01*
X134860586Y-167927669D01*
X134860582Y-167927663D01*
X134821584Y-167871968D01*
X134200000Y-168493552D01*
X134200000Y-168487339D01*
X134172741Y-168385606D01*
X134120080Y-168294394D01*
X134045606Y-168219920D01*
X133954394Y-168167259D01*
X133852661Y-168140000D01*
X133846447Y-168140000D01*
X134468030Y-167518415D01*
X134412329Y-167479413D01*
X134218859Y-167389197D01*
X134213764Y-167387342D01*
X134214455Y-167385443D01*
X134162325Y-167353667D01*
X134131797Y-167290820D01*
X134140093Y-167221444D01*
X134184579Y-167167567D01*
X134214257Y-167154014D01*
X134213936Y-167153130D01*
X134219013Y-167151280D01*
X134219030Y-167151276D01*
X134412581Y-167061021D01*
X134587519Y-166938529D01*
X134738529Y-166787519D01*
X134861021Y-166612581D01*
X134951276Y-166419030D01*
X135006549Y-166212747D01*
X135025162Y-166000000D01*
X135006549Y-165787253D01*
X134951276Y-165580970D01*
X134861021Y-165387419D01*
X134738529Y-165212481D01*
X134738527Y-165212478D01*
X134587521Y-165061472D01*
X134412578Y-164938977D01*
X134412579Y-164938977D01*
X134283547Y-164878809D01*
X134219030Y-164848724D01*
X134219023Y-164848722D01*
X134213936Y-164846870D01*
X134214709Y-164844746D01*
X134163305Y-164813424D01*
X134132766Y-164750581D01*
X134141050Y-164681204D01*
X134185528Y-164627320D01*
X134214315Y-164614172D01*
X134213936Y-164613130D01*
X134219013Y-164611280D01*
X134219030Y-164611276D01*
X134412581Y-164521021D01*
X134587519Y-164398529D01*
X134738529Y-164247519D01*
X134861021Y-164072581D01*
X134951276Y-163879030D01*
X135006549Y-163672747D01*
X135025162Y-163460000D01*
X135006549Y-163247253D01*
X134951276Y-163040970D01*
X134861021Y-162847419D01*
X134738529Y-162672481D01*
X134738527Y-162672478D01*
X134587521Y-162521472D01*
X134412578Y-162398977D01*
X134412579Y-162398977D01*
X134283547Y-162338809D01*
X134219030Y-162308724D01*
X134219026Y-162308723D01*
X134219022Y-162308721D01*
X134012752Y-162253452D01*
X134012748Y-162253451D01*
X134012747Y-162253451D01*
X134012746Y-162253450D01*
X134012741Y-162253450D01*
X133800002Y-162234838D01*
X133799999Y-162234838D01*
X133745057Y-162239644D01*
X133587253Y-162253451D01*
X133587251Y-162253451D01*
X133581861Y-162253923D01*
X133581746Y-162252617D01*
X133518570Y-162245557D01*
X133478823Y-162218877D01*
X131586819Y-160326873D01*
X131553334Y-160265550D01*
X131550500Y-160239192D01*
X131550500Y-156005067D01*
X131569507Y-155939094D01*
X131625788Y-155849524D01*
X131685368Y-155679254D01*
X131685369Y-155679249D01*
X131705565Y-155500003D01*
X131705565Y-155499998D01*
X131703341Y-155480263D01*
X131697689Y-155430101D01*
X131709743Y-155361281D01*
X131757092Y-155309901D01*
X131824702Y-155292276D01*
X131891108Y-155314002D01*
X131908590Y-155328537D01*
X135428277Y-158848223D01*
X135461762Y-158909546D01*
X135463815Y-158922012D01*
X135464630Y-158929246D01*
X135464632Y-158929255D01*
X135524210Y-159099521D01*
X135620184Y-159252262D01*
X135747738Y-159379816D01*
X135900478Y-159475789D01*
X136070745Y-159535368D01*
X136070750Y-159535369D01*
X136249996Y-159555565D01*
X136250000Y-159555565D01*
X136250004Y-159555565D01*
X136429249Y-159535369D01*
X136429252Y-159535368D01*
X136429255Y-159535368D01*
X136599522Y-159475789D01*
X136685071Y-159422034D01*
X136752307Y-159403034D01*
X136819142Y-159423401D01*
X136864356Y-159476669D01*
X136873595Y-159545925D01*
X136868085Y-159567982D01*
X136814632Y-159720742D01*
X136814630Y-159720750D01*
X136794435Y-159899996D01*
X136794435Y-159900003D01*
X136814630Y-160079249D01*
X136814631Y-160079254D01*
X136874211Y-160249523D01*
X136950793Y-160371401D01*
X136970184Y-160402262D01*
X137097738Y-160529816D01*
X137133400Y-160552224D01*
X137247743Y-160624071D01*
X137250478Y-160625789D01*
X137388349Y-160674032D01*
X137420745Y-160685368D01*
X137420750Y-160685369D01*
X137599996Y-160705565D01*
X137600000Y-160705565D01*
X137600004Y-160705565D01*
X137779249Y-160685369D01*
X137779252Y-160685368D01*
X137779255Y-160685368D01*
X137949522Y-160625789D01*
X138102262Y-160529816D01*
X138229816Y-160402262D01*
X138325789Y-160249522D01*
X138385368Y-160079255D01*
X138390724Y-160031722D01*
X138405565Y-159900003D01*
X138405565Y-159899996D01*
X138385369Y-159720750D01*
X138385366Y-159720737D01*
X138325790Y-159550481D01*
X138325789Y-159550478D01*
X138278859Y-159475789D01*
X138269506Y-159460903D01*
X138250500Y-159394931D01*
X138250500Y-136705928D01*
X138225502Y-136580261D01*
X138225501Y-136580260D01*
X138225501Y-136580256D01*
X138185767Y-136484330D01*
X138176466Y-136461874D01*
X138155665Y-136430744D01*
X138155664Y-136430743D01*
X138145440Y-136415441D01*
X138105276Y-136355330D01*
X138105274Y-136355328D01*
X138105272Y-136355325D01*
X138105271Y-136355324D01*
X137011009Y-135261063D01*
X136977524Y-135199740D01*
X136982508Y-135130048D01*
X137024380Y-135074115D01*
X137029785Y-135070289D01*
X137089669Y-135030277D01*
X138605276Y-133514670D01*
X138676465Y-133408127D01*
X138725501Y-133289744D01*
X138726371Y-133285368D01*
X138726372Y-133285362D01*
X138726373Y-133285362D01*
X138726373Y-133285357D01*
X138750500Y-133164069D01*
X138750500Y-100835931D01*
X138750500Y-100835928D01*
X138725502Y-100710261D01*
X138725501Y-100710260D01*
X138725501Y-100710256D01*
X138690514Y-100625789D01*
X138676466Y-100591874D01*
X138676465Y-100591872D01*
X138676464Y-100591870D01*
X138605278Y-100485332D01*
X138605272Y-100485325D01*
X137921722Y-99801776D01*
X137888237Y-99740453D01*
X137886182Y-99727973D01*
X137885368Y-99720745D01*
X137825789Y-99550478D01*
X137729816Y-99397738D01*
X137602262Y-99270184D01*
X137539096Y-99230494D01*
X137449523Y-99174211D01*
X137279254Y-99114631D01*
X137279249Y-99114630D01*
X137100004Y-99094435D01*
X137099996Y-99094435D01*
X136920750Y-99114630D01*
X136920737Y-99114633D01*
X136750481Y-99174209D01*
X136750477Y-99174210D01*
X136660904Y-99230494D01*
X136594932Y-99249500D01*
X127320808Y-99249500D01*
X127253769Y-99229815D01*
X127233127Y-99213181D01*
X125120316Y-97100370D01*
X132089500Y-97100370D01*
X132089501Y-97100376D01*
X132095908Y-97159983D01*
X132146202Y-97294828D01*
X132146206Y-97294835D01*
X132232452Y-97410044D01*
X132232455Y-97410047D01*
X132347664Y-97496293D01*
X132347671Y-97496297D01*
X132482517Y-97546591D01*
X132482516Y-97546591D01*
X132489444Y-97547335D01*
X132542127Y-97553000D01*
X134637872Y-97552999D01*
X134697483Y-97546591D01*
X134832331Y-97496296D01*
X134947546Y-97410046D01*
X135033796Y-97294831D01*
X135084091Y-97159983D01*
X135090500Y-97100373D01*
X135090499Y-95099628D01*
X135084091Y-95040017D01*
X135033796Y-94905169D01*
X135033795Y-94905168D01*
X135033793Y-94905164D01*
X134947547Y-94789955D01*
X134947544Y-94789952D01*
X134832335Y-94703706D01*
X134832328Y-94703702D01*
X134804459Y-94693308D01*
X134748525Y-94651437D01*
X134724108Y-94585973D01*
X134738960Y-94517700D01*
X134747460Y-94504260D01*
X134880217Y-94321538D01*
X134984048Y-94117758D01*
X134984049Y-94117755D01*
X135054721Y-93900249D01*
X135054721Y-93900248D01*
X135054722Y-93900245D01*
X135090500Y-93674354D01*
X135090500Y-93445646D01*
X135054722Y-93219755D01*
X135054721Y-93219751D01*
X135054721Y-93219750D01*
X134984049Y-93002244D01*
X134880216Y-92798461D01*
X134745786Y-92613434D01*
X134584066Y-92451714D01*
X134499134Y-92390007D01*
X134456470Y-92334678D01*
X134450491Y-92265064D01*
X134483097Y-92203269D01*
X134499137Y-92189371D01*
X134583739Y-92127905D01*
X134745402Y-91966242D01*
X134879788Y-91781276D01*
X134983582Y-91577570D01*
X135054234Y-91360128D01*
X135068509Y-91270000D01*
X134080748Y-91270000D01*
X134102518Y-91232292D01*
X134140000Y-91092409D01*
X134140000Y-90947591D01*
X134102518Y-90807708D01*
X134080748Y-90770000D01*
X135068509Y-90770000D01*
X135054234Y-90679871D01*
X134983582Y-90462429D01*
X134879788Y-90258723D01*
X134745402Y-90073757D01*
X134583742Y-89912097D01*
X134398776Y-89777711D01*
X134195068Y-89673917D01*
X133977625Y-89603265D01*
X133977626Y-89603265D01*
X133840000Y-89581467D01*
X133840000Y-90529252D01*
X133802292Y-90507482D01*
X133662409Y-90470000D01*
X133517591Y-90470000D01*
X133377708Y-90507482D01*
X133340000Y-90529252D01*
X133340000Y-89581467D01*
X133202374Y-89603265D01*
X132984931Y-89673917D01*
X132781223Y-89777711D01*
X132596257Y-89912097D01*
X132434597Y-90073757D01*
X132300211Y-90258723D01*
X132196417Y-90462429D01*
X132125765Y-90679871D01*
X132111491Y-90770000D01*
X133099252Y-90770000D01*
X133077482Y-90807708D01*
X133040000Y-90947591D01*
X133040000Y-91092409D01*
X133077482Y-91232292D01*
X133099252Y-91270000D01*
X132111491Y-91270000D01*
X132125765Y-91360128D01*
X132196417Y-91577570D01*
X132300211Y-91781276D01*
X132434597Y-91966242D01*
X132596257Y-92127902D01*
X132596263Y-92127907D01*
X132680863Y-92189372D01*
X132723529Y-92244701D01*
X132729508Y-92314315D01*
X132696903Y-92376110D01*
X132680864Y-92390007D01*
X132595940Y-92451709D01*
X132595931Y-92451716D01*
X132434216Y-92613431D01*
X132434216Y-92613432D01*
X132434214Y-92613434D01*
X132376480Y-92692896D01*
X132299783Y-92798461D01*
X132195950Y-93002244D01*
X132125278Y-93219750D01*
X132125278Y-93219753D01*
X132089500Y-93445646D01*
X132089500Y-93674353D01*
X132125278Y-93900246D01*
X132125278Y-93900249D01*
X132195950Y-94117755D01*
X132195952Y-94117758D01*
X132299783Y-94321538D01*
X132432525Y-94504242D01*
X132456005Y-94570046D01*
X132440180Y-94638100D01*
X132390074Y-94686795D01*
X132375541Y-94693308D01*
X132347670Y-94703703D01*
X132347664Y-94703706D01*
X132232455Y-94789952D01*
X132232452Y-94789955D01*
X132146206Y-94905164D01*
X132146202Y-94905171D01*
X132095908Y-95040017D01*
X132089501Y-95099616D01*
X132089501Y-95099623D01*
X132089500Y-95099635D01*
X132089500Y-97100370D01*
X125120316Y-97100370D01*
X122086819Y-94066873D01*
X122053334Y-94005550D01*
X122050500Y-93979192D01*
X122050500Y-82135928D01*
X122025502Y-82010261D01*
X122025501Y-82010260D01*
X122025501Y-82010256D01*
X121976465Y-81891873D01*
X121905277Y-81785331D01*
X121905275Y-81785329D01*
X121905273Y-81785326D01*
X121319947Y-81200000D01*
X125794696Y-81200000D01*
X125813898Y-81566404D01*
X125871295Y-81928794D01*
X125926797Y-82135931D01*
X125966260Y-82283206D01*
X126097746Y-82625739D01*
X126264320Y-82952656D01*
X126464147Y-83260364D01*
X126464149Y-83260366D01*
X126695051Y-83545506D01*
X126954494Y-83804949D01*
X126954498Y-83804952D01*
X127239635Y-84035852D01*
X127277852Y-84060670D01*
X127547348Y-84235682D01*
X127874264Y-84402255D01*
X128216801Y-84533742D01*
X128571206Y-84628705D01*
X128933596Y-84686102D01*
X129279734Y-84704241D01*
X129299999Y-84705304D01*
X129300000Y-84705304D01*
X129300001Y-84705304D01*
X129319203Y-84704297D01*
X129666404Y-84686102D01*
X130028794Y-84628705D01*
X130383199Y-84533742D01*
X130725736Y-84402255D01*
X131052652Y-84235682D01*
X131360366Y-84035851D01*
X131645506Y-83804949D01*
X131904949Y-83545506D01*
X132135851Y-83260366D01*
X132335682Y-82952652D01*
X132502255Y-82625736D01*
X132633742Y-82283199D01*
X132728705Y-81928794D01*
X132786102Y-81566404D01*
X132805304Y-81200000D01*
X132786102Y-80833596D01*
X132728705Y-80471206D01*
X132633742Y-80116801D01*
X132502255Y-79774264D01*
X132335682Y-79447348D01*
X132331221Y-79440478D01*
X132135852Y-79139635D01*
X131904952Y-78854498D01*
X131904949Y-78854494D01*
X131645506Y-78595051D01*
X131537448Y-78507547D01*
X131360364Y-78364147D01*
X131052656Y-78164320D01*
X130725739Y-77997746D01*
X130383206Y-77866260D01*
X130383199Y-77866258D01*
X130028794Y-77771295D01*
X130028790Y-77771294D01*
X130028789Y-77771294D01*
X129666405Y-77713898D01*
X129300001Y-77694696D01*
X129299999Y-77694696D01*
X128933594Y-77713898D01*
X128571211Y-77771294D01*
X128571209Y-77771294D01*
X128216793Y-77866260D01*
X127874260Y-77997746D01*
X127547343Y-78164320D01*
X127239635Y-78364147D01*
X126954498Y-78595047D01*
X126954490Y-78595054D01*
X126695054Y-78854490D01*
X126695047Y-78854498D01*
X126464147Y-79139635D01*
X126264320Y-79447343D01*
X126097746Y-79774260D01*
X125966260Y-80116793D01*
X125871294Y-80471209D01*
X125871294Y-80471211D01*
X125813898Y-80833594D01*
X125801145Y-81076935D01*
X125794696Y-81200000D01*
X121319947Y-81200000D01*
X119404673Y-79284726D01*
X119298126Y-79213534D01*
X119231264Y-79185839D01*
X119198282Y-79163800D01*
X119197705Y-79164525D01*
X119192262Y-79160184D01*
X119039523Y-79064211D01*
X118869254Y-79004631D01*
X118869249Y-79004630D01*
X118690004Y-78984435D01*
X118689996Y-78984435D01*
X118510750Y-79004630D01*
X118510745Y-79004631D01*
X118340476Y-79064211D01*
X118187737Y-79160184D01*
X118060184Y-79287737D01*
X117964211Y-79440476D01*
X117904631Y-79610745D01*
X117904630Y-79610750D01*
X117884435Y-79789996D01*
X117884435Y-79790003D01*
X117904630Y-79969249D01*
X117904631Y-79969254D01*
X117964211Y-80139523D01*
X118031304Y-80246300D01*
X118060184Y-80292262D01*
X118187738Y-80419816D01*
X118340478Y-80515789D01*
X118510745Y-80575368D01*
X118510750Y-80575369D01*
X118689997Y-80595565D01*
X118690000Y-80595565D01*
X118690001Y-80595565D01*
X118715355Y-80592708D01*
X118797482Y-80583454D01*
X118866303Y-80595508D01*
X118899047Y-80618993D01*
X120713181Y-82433127D01*
X120746666Y-82494450D01*
X120749500Y-82520808D01*
X120749500Y-94364069D01*
X120749500Y-94364071D01*
X120749499Y-94364071D01*
X120774497Y-94489738D01*
X120774499Y-94489744D01*
X120823535Y-94608127D01*
X120887396Y-94703703D01*
X120894726Y-94714673D01*
X126585326Y-100405273D01*
X126585329Y-100405275D01*
X126585331Y-100405277D01*
X126691873Y-100476465D01*
X126810256Y-100525501D01*
X126810260Y-100525501D01*
X126810261Y-100525502D01*
X126935928Y-100550500D01*
X126935931Y-100550500D01*
X136594932Y-100550500D01*
X136660904Y-100569506D01*
X136750477Y-100625789D01*
X136750481Y-100625790D01*
X136920737Y-100685366D01*
X136920741Y-100685366D01*
X136920745Y-100685368D01*
X136927974Y-100686182D01*
X136992388Y-100713246D01*
X137001776Y-100721722D01*
X137413181Y-101133127D01*
X137446666Y-101194450D01*
X137449500Y-101220808D01*
X137449500Y-132779192D01*
X137429815Y-132846231D01*
X137413181Y-132866873D01*
X136484986Y-133795067D01*
X136423663Y-133828552D01*
X136353971Y-133823568D01*
X136298351Y-133782113D01*
X136289814Y-133770808D01*
X136245981Y-133712764D01*
X136245975Y-133712759D01*
X136245974Y-133712757D01*
X136081562Y-133562876D01*
X136081560Y-133562874D01*
X135892404Y-133445754D01*
X135892398Y-133445752D01*
X135684940Y-133365382D01*
X135466243Y-133324500D01*
X135243757Y-133324500D01*
X135025060Y-133365382D01*
X134960892Y-133390241D01*
X134817601Y-133445752D01*
X134817595Y-133445754D01*
X134628439Y-133562874D01*
X134628437Y-133562876D01*
X134464020Y-133712761D01*
X134329943Y-133890308D01*
X134329938Y-133890316D01*
X134230775Y-134089461D01*
X134230769Y-134089476D01*
X134169885Y-134303462D01*
X134169884Y-134303464D01*
X134149357Y-134524999D01*
X134149357Y-134525000D01*
X134169884Y-134746535D01*
X134169885Y-134746537D01*
X134230769Y-134960523D01*
X134230775Y-134960538D01*
X134329938Y-135159683D01*
X134329943Y-135159691D01*
X134464020Y-135337238D01*
X134628437Y-135487123D01*
X134628439Y-135487125D01*
X134817595Y-135604245D01*
X134817596Y-135604245D01*
X134817599Y-135604247D01*
X135025060Y-135684618D01*
X135243757Y-135725500D01*
X135243759Y-135725500D01*
X135466242Y-135725500D01*
X135466243Y-135725500D01*
X135507032Y-135717875D01*
X135544639Y-135710845D01*
X135614154Y-135717875D01*
X135655106Y-135745052D01*
X136913181Y-137003127D01*
X136946666Y-137064450D01*
X136949500Y-137090808D01*
X136949500Y-150576097D01*
X136929815Y-150643136D01*
X136877011Y-150688891D01*
X136807853Y-150698835D01*
X136744297Y-150669810D01*
X136720507Y-150642070D01*
X136629817Y-150497739D01*
X136502262Y-150370184D01*
X136349523Y-150274211D01*
X136179254Y-150214631D01*
X136179249Y-150214630D01*
X136000004Y-150194435D01*
X135999996Y-150194435D01*
X135820750Y-150214630D01*
X135820737Y-150214633D01*
X135650481Y-150274209D01*
X135650477Y-150274210D01*
X135560904Y-150330494D01*
X135494932Y-150349500D01*
X131920808Y-150349500D01*
X131853769Y-150329815D01*
X131833127Y-150313181D01*
X128119947Y-146600001D01*
X133874838Y-146600001D01*
X133893450Y-146812741D01*
X133893452Y-146812752D01*
X133948721Y-147019022D01*
X133948723Y-147019026D01*
X133948724Y-147019030D01*
X133991171Y-147110058D01*
X134038977Y-147212578D01*
X134161472Y-147387521D01*
X134312478Y-147538527D01*
X134312481Y-147538529D01*
X134487419Y-147661021D01*
X134487421Y-147661022D01*
X134487420Y-147661022D01*
X134551936Y-147691106D01*
X134680970Y-147751276D01*
X134887253Y-147806549D01*
X135039215Y-147819844D01*
X135099998Y-147825162D01*
X135100000Y-147825162D01*
X135100002Y-147825162D01*
X135153186Y-147820508D01*
X135312747Y-147806549D01*
X135519030Y-147751276D01*
X135712581Y-147661021D01*
X135887519Y-147538529D01*
X136038529Y-147387519D01*
X136161021Y-147212581D01*
X136251276Y-147019030D01*
X136306549Y-146812747D01*
X136325162Y-146600000D01*
X136306549Y-146387253D01*
X136251276Y-146180970D01*
X136161021Y-145987419D01*
X136038529Y-145812481D01*
X136038527Y-145812478D01*
X135887521Y-145661472D01*
X135712578Y-145538977D01*
X135712579Y-145538977D01*
X135583547Y-145478809D01*
X135519030Y-145448724D01*
X135519023Y-145448722D01*
X135513936Y-145446870D01*
X135514709Y-145444746D01*
X135463305Y-145413424D01*
X135432766Y-145350581D01*
X135441050Y-145281204D01*
X135485528Y-145227320D01*
X135514315Y-145214172D01*
X135513936Y-145213130D01*
X135519013Y-145211280D01*
X135519030Y-145211276D01*
X135712581Y-145121021D01*
X135887519Y-144998529D01*
X136038529Y-144847519D01*
X136161021Y-144672581D01*
X136251276Y-144479030D01*
X136306549Y-144272747D01*
X136325162Y-144060000D01*
X136306549Y-143847253D01*
X136251276Y-143640970D01*
X136161021Y-143447419D01*
X136038529Y-143272481D01*
X136038527Y-143272478D01*
X135887521Y-143121472D01*
X135712578Y-142998977D01*
X135712579Y-142998977D01*
X135583547Y-142938809D01*
X135519030Y-142908724D01*
X135519023Y-142908722D01*
X135513936Y-142906870D01*
X135514606Y-142905028D01*
X135462293Y-142873114D01*
X135431789Y-142810255D01*
X135440111Y-142740883D01*
X135484617Y-142687022D01*
X135514097Y-142673574D01*
X135513764Y-142672658D01*
X135518864Y-142670801D01*
X135712325Y-142580589D01*
X135768030Y-142541583D01*
X135146448Y-141920000D01*
X135152661Y-141920000D01*
X135254394Y-141892741D01*
X135345606Y-141840080D01*
X135420080Y-141765606D01*
X135472741Y-141674394D01*
X135500000Y-141572661D01*
X135500000Y-141566446D01*
X136121583Y-142188029D01*
X136160589Y-142132325D01*
X136250801Y-141938864D01*
X136250805Y-141938853D01*
X136306054Y-141732662D01*
X136306055Y-141732654D01*
X136324660Y-141520002D01*
X136324660Y-141519997D01*
X136306055Y-141307345D01*
X136306054Y-141307337D01*
X136250805Y-141101146D01*
X136250802Y-141101140D01*
X136160586Y-140907669D01*
X136160582Y-140907663D01*
X136121584Y-140851968D01*
X135500000Y-141473552D01*
X135500000Y-141467339D01*
X135472741Y-141365606D01*
X135420080Y-141274394D01*
X135345606Y-141199920D01*
X135254394Y-141147259D01*
X135152661Y-141120000D01*
X135146447Y-141120000D01*
X135768030Y-140498415D01*
X135712329Y-140459413D01*
X135518859Y-140369197D01*
X135518853Y-140369194D01*
X135312662Y-140313945D01*
X135312654Y-140313944D01*
X135100002Y-140295340D01*
X135099998Y-140295340D01*
X134887345Y-140313944D01*
X134887337Y-140313945D01*
X134681146Y-140369194D01*
X134681140Y-140369197D01*
X134487671Y-140459412D01*
X134487669Y-140459413D01*
X134431969Y-140498415D01*
X134431968Y-140498415D01*
X135053554Y-141120000D01*
X135047339Y-141120000D01*
X134945606Y-141147259D01*
X134854394Y-141199920D01*
X134779920Y-141274394D01*
X134727259Y-141365606D01*
X134700000Y-141467339D01*
X134700000Y-141473553D01*
X134078415Y-140851968D01*
X134078415Y-140851969D01*
X134039413Y-140907669D01*
X134039412Y-140907671D01*
X133949197Y-141101140D01*
X133949194Y-141101146D01*
X133893945Y-141307337D01*
X133893944Y-141307345D01*
X133875340Y-141519997D01*
X133875340Y-141520002D01*
X133893944Y-141732654D01*
X133893945Y-141732662D01*
X133949194Y-141938853D01*
X133949197Y-141938859D01*
X134039413Y-142132329D01*
X134078415Y-142188030D01*
X134700000Y-141566445D01*
X134700000Y-141572661D01*
X134727259Y-141674394D01*
X134779920Y-141765606D01*
X134854394Y-141840080D01*
X134945606Y-141892741D01*
X135047339Y-141920000D01*
X135053553Y-141920000D01*
X134431968Y-142541584D01*
X134487663Y-142580582D01*
X134487669Y-142580586D01*
X134681140Y-142670802D01*
X134686236Y-142672658D01*
X134685542Y-142674563D01*
X134737647Y-142706302D01*
X134768196Y-142769139D01*
X134759922Y-142838518D01*
X134715454Y-142892409D01*
X134685744Y-142905991D01*
X134686064Y-142906870D01*
X134680972Y-142908723D01*
X134680970Y-142908724D01*
X134680968Y-142908725D01*
X134487421Y-142998977D01*
X134312478Y-143121472D01*
X134161472Y-143272478D01*
X134038977Y-143447421D01*
X133948725Y-143640968D01*
X133948721Y-143640977D01*
X133893452Y-143847247D01*
X133893450Y-143847258D01*
X133874838Y-144059998D01*
X133874838Y-144060001D01*
X133893450Y-144272741D01*
X133893452Y-144272752D01*
X133948721Y-144479022D01*
X133948723Y-144479026D01*
X133948724Y-144479030D01*
X133991171Y-144570058D01*
X134038977Y-144672578D01*
X134161472Y-144847521D01*
X134312478Y-144998527D01*
X134312481Y-144998529D01*
X134487419Y-145121021D01*
X134487421Y-145121022D01*
X134487420Y-145121022D01*
X134551936Y-145151106D01*
X134680970Y-145211276D01*
X134680983Y-145211279D01*
X134686064Y-145213130D01*
X134685292Y-145215250D01*
X134736710Y-145246594D01*
X134767237Y-145309442D01*
X134758939Y-145378817D01*
X134714452Y-145432693D01*
X134685685Y-145445830D01*
X134686064Y-145446870D01*
X134680972Y-145448723D01*
X134680970Y-145448724D01*
X134680968Y-145448725D01*
X134487421Y-145538977D01*
X134312478Y-145661472D01*
X134161472Y-145812478D01*
X134038977Y-145987421D01*
X133948725Y-146180968D01*
X133948721Y-146180977D01*
X133893452Y-146387247D01*
X133893450Y-146387258D01*
X133874838Y-146599998D01*
X133874838Y-146600001D01*
X128119947Y-146600001D01*
X124421722Y-142901776D01*
X124388237Y-142840453D01*
X124386182Y-142827973D01*
X124385368Y-142820745D01*
X124325789Y-142650478D01*
X124229816Y-142497738D01*
X124102262Y-142370184D01*
X123949523Y-142274211D01*
X123779254Y-142214631D01*
X123779249Y-142214630D01*
X123600004Y-142194435D01*
X123599996Y-142194435D01*
X123420750Y-142214630D01*
X123420745Y-142214631D01*
X123250476Y-142274211D01*
X123097737Y-142370184D01*
X122970184Y-142497737D01*
X122874211Y-142650476D01*
X122814631Y-142820745D01*
X122814630Y-142820750D01*
X122794435Y-142999996D01*
X122799931Y-143048783D01*
X122787875Y-143117604D01*
X122740525Y-143168983D01*
X122717664Y-143179706D01*
X122590476Y-143224210D01*
X122437735Y-143320184D01*
X122310182Y-143447737D01*
X122214209Y-143600476D01*
X122154629Y-143770745D01*
X122154628Y-143770750D01*
X122134433Y-143949996D01*
X122134433Y-143950003D01*
X122154628Y-144129249D01*
X122154629Y-144129254D01*
X122214209Y-144299523D01*
X122310182Y-144452262D01*
X122437736Y-144579816D01*
X122528078Y-144636582D01*
X122585370Y-144672581D01*
X122590476Y-144675789D01*
X122760743Y-144735368D01*
X122760748Y-144735369D01*
X122939995Y-144755565D01*
X122939998Y-144755565D01*
X122939999Y-144755565D01*
X122964895Y-144752759D01*
X123056469Y-144742441D01*
X123125290Y-144754495D01*
X123158034Y-144777980D01*
X131313181Y-152933127D01*
X131346666Y-152994450D01*
X131349500Y-153020808D01*
X131349500Y-154564069D01*
X131349500Y-154564071D01*
X131349499Y-154564071D01*
X131359549Y-154614590D01*
X131353322Y-154684182D01*
X131310459Y-154739359D01*
X131244570Y-154762604D01*
X131196978Y-154755824D01*
X131079257Y-154714632D01*
X131079249Y-154714630D01*
X130900004Y-154694435D01*
X130899996Y-154694435D01*
X130720750Y-154714630D01*
X130720745Y-154714631D01*
X130550476Y-154774211D01*
X130397737Y-154870184D01*
X130270184Y-154997737D01*
X130174211Y-155150476D01*
X130114631Y-155320745D01*
X130114630Y-155320750D01*
X130094435Y-155499996D01*
X130094435Y-155500003D01*
X130114630Y-155679249D01*
X130114631Y-155679254D01*
X130174211Y-155849524D01*
X130230493Y-155939094D01*
X130249500Y-156005067D01*
X130249500Y-160624071D01*
X130265711Y-160705565D01*
X130265711Y-160705566D01*
X130274497Y-160749736D01*
X130274499Y-160749744D01*
X130318370Y-160855659D01*
X130323535Y-160868127D01*
X130394723Y-160974669D01*
X130394726Y-160974673D01*
X130394727Y-160974674D01*
X132017873Y-162597819D01*
X132051358Y-162659142D01*
X132046374Y-162728834D01*
X132004502Y-162784767D01*
X131939038Y-162809184D01*
X131930192Y-162809500D01*
X131475929Y-162809500D01*
X131350261Y-162834497D01*
X131350255Y-162834499D01*
X131231870Y-162883535D01*
X131125331Y-162954722D01*
X131125324Y-162954728D01*
X124972258Y-169107794D01*
X124910935Y-169141279D01*
X124843623Y-169137155D01*
X124779252Y-169114631D01*
X124600004Y-169094435D01*
X124599996Y-169094435D01*
X124420750Y-169114630D01*
X124420745Y-169114631D01*
X124250476Y-169174211D01*
X124097737Y-169270184D01*
X123970184Y-169397737D01*
X123874211Y-169550476D01*
X123814631Y-169720745D01*
X123814630Y-169720750D01*
X123794435Y-169899996D01*
X123794435Y-169900005D01*
X123803579Y-169981169D01*
X123791524Y-170049991D01*
X123744174Y-170101369D01*
X123676564Y-170118993D01*
X123610158Y-170097266D01*
X123592678Y-170082732D01*
X121586819Y-168076873D01*
X121553334Y-168015550D01*
X121550500Y-167989192D01*
X121550500Y-157564071D01*
X121949499Y-157564071D01*
X121974010Y-157687286D01*
X121974011Y-157687297D01*
X121974012Y-157687297D01*
X121974497Y-157689737D01*
X121974500Y-157689747D01*
X122023533Y-157808125D01*
X122094726Y-157914673D01*
X122985326Y-158805273D01*
X122985329Y-158805275D01*
X122985331Y-158805277D01*
X123091873Y-158876465D01*
X123210256Y-158925501D01*
X123210260Y-158925501D01*
X123210261Y-158925502D01*
X123335928Y-158950500D01*
X123335931Y-158950500D01*
X125694932Y-158950500D01*
X125760904Y-158969506D01*
X125850477Y-159025789D01*
X125850481Y-159025790D01*
X126020737Y-159085366D01*
X126020743Y-159085367D01*
X126020745Y-159085368D01*
X126020746Y-159085368D01*
X126020750Y-159085369D01*
X126199996Y-159105565D01*
X126200000Y-159105565D01*
X126200004Y-159105565D01*
X126379249Y-159085369D01*
X126379252Y-159085368D01*
X126379255Y-159085368D01*
X126549522Y-159025789D01*
X126702262Y-158929816D01*
X126829816Y-158802262D01*
X126925789Y-158649522D01*
X126985368Y-158479255D01*
X126987368Y-158461505D01*
X127005565Y-158300003D01*
X127005565Y-158299996D01*
X126985369Y-158120750D01*
X126985368Y-158120745D01*
X126950111Y-158019987D01*
X126925789Y-157950478D01*
X126917159Y-157936744D01*
X126836344Y-157808127D01*
X126829816Y-157797738D01*
X126702262Y-157670184D01*
X126639096Y-157630494D01*
X126549523Y-157574211D01*
X126379254Y-157514631D01*
X126379249Y-157514630D01*
X126200004Y-157494435D01*
X126199996Y-157494435D01*
X126020750Y-157514630D01*
X126020737Y-157514633D01*
X125850481Y-157574209D01*
X125850477Y-157574210D01*
X125760904Y-157630494D01*
X125694932Y-157649500D01*
X123720808Y-157649500D01*
X123653769Y-157629815D01*
X123633127Y-157613181D01*
X123286819Y-157266873D01*
X123253334Y-157205550D01*
X123250500Y-157179192D01*
X123250500Y-153848421D01*
X123270185Y-153781382D01*
X123322989Y-153735627D01*
X123333542Y-153731380D01*
X123349522Y-153725789D01*
X123502262Y-153629816D01*
X123629816Y-153502262D01*
X123725789Y-153349522D01*
X123785368Y-153179255D01*
X123785369Y-153179249D01*
X123805565Y-153000003D01*
X123805565Y-152999996D01*
X123785369Y-152820750D01*
X123785368Y-152820745D01*
X123768977Y-152773903D01*
X123725789Y-152650478D01*
X123629816Y-152497738D01*
X123502262Y-152370184D01*
X123349523Y-152274211D01*
X123179254Y-152214631D01*
X123179249Y-152214630D01*
X123000004Y-152194435D01*
X122999996Y-152194435D01*
X122820750Y-152214630D01*
X122820745Y-152214631D01*
X122650476Y-152274211D01*
X122497737Y-152370184D01*
X122370184Y-152497737D01*
X122274210Y-152650478D01*
X122214632Y-152820744D01*
X122214630Y-152820752D01*
X122213815Y-152827988D01*
X122186742Y-152892400D01*
X122178279Y-152901773D01*
X122110608Y-152969446D01*
X122094723Y-152985331D01*
X122071019Y-153020808D01*
X122042114Y-153064068D01*
X122042112Y-153064070D01*
X122023539Y-153091864D01*
X122023533Y-153091875D01*
X121974499Y-153210255D01*
X121974497Y-153210261D01*
X121949500Y-153335928D01*
X121949500Y-153335931D01*
X121949500Y-157564069D01*
X121949500Y-157564071D01*
X121949499Y-157564071D01*
X121550500Y-157564071D01*
X121550500Y-136810802D01*
X121525502Y-136685135D01*
X121525501Y-136685134D01*
X121525501Y-136685130D01*
X121476465Y-136566747D01*
X121476463Y-136566744D01*
X121458114Y-136539282D01*
X121458113Y-136539281D01*
X121421397Y-136484330D01*
X121400520Y-136417653D01*
X121400500Y-136415441D01*
X121400500Y-131721880D01*
X134701672Y-131721880D01*
X134817821Y-131793797D01*
X134817822Y-131793798D01*
X135025195Y-131874134D01*
X135243807Y-131915000D01*
X135466193Y-131915000D01*
X135684809Y-131874133D01*
X135892168Y-131793801D01*
X135892181Y-131793795D01*
X136008326Y-131721879D01*
X135355001Y-131068553D01*
X135355000Y-131068553D01*
X134701672Y-131721879D01*
X134701672Y-131721880D01*
X121400500Y-131721880D01*
X121400500Y-130715000D01*
X134149859Y-130715000D01*
X134170378Y-130936439D01*
X134231240Y-131150350D01*
X134330369Y-131349428D01*
X134346137Y-131370308D01*
X134346138Y-131370308D01*
X134955369Y-130761078D01*
X135005000Y-130761078D01*
X135028852Y-130850095D01*
X135074930Y-130929905D01*
X135140095Y-130995070D01*
X135219905Y-131041148D01*
X135308922Y-131065000D01*
X135401078Y-131065000D01*
X135490095Y-131041148D01*
X135569905Y-130995070D01*
X135635070Y-130929905D01*
X135681148Y-130850095D01*
X135705000Y-130761078D01*
X135705000Y-130715000D01*
X135708553Y-130715000D01*
X136363861Y-131370308D01*
X136379631Y-131349425D01*
X136379633Y-131349422D01*
X136478759Y-131150350D01*
X136539621Y-130936439D01*
X136560141Y-130715000D01*
X136560141Y-130714999D01*
X136539621Y-130493560D01*
X136478759Y-130279649D01*
X136379635Y-130080580D01*
X136379630Y-130080572D01*
X136363860Y-130059690D01*
X135708553Y-130714999D01*
X135708553Y-130715000D01*
X135705000Y-130715000D01*
X135705000Y-130668922D01*
X135681148Y-130579905D01*
X135635070Y-130500095D01*
X135569905Y-130434930D01*
X135490095Y-130388852D01*
X135401078Y-130365000D01*
X135308922Y-130365000D01*
X135219905Y-130388852D01*
X135140095Y-130434930D01*
X135074930Y-130500095D01*
X135028852Y-130579905D01*
X135005000Y-130668922D01*
X135005000Y-130761078D01*
X134955369Y-130761078D01*
X135001447Y-130715000D01*
X134346138Y-130059691D01*
X134346137Y-130059691D01*
X134330368Y-130080574D01*
X134231240Y-130279649D01*
X134170378Y-130493560D01*
X134149859Y-130714999D01*
X134149859Y-130715000D01*
X121400500Y-130715000D01*
X121400500Y-129708119D01*
X134701671Y-129708119D01*
X135355000Y-130361447D01*
X135355001Y-130361447D01*
X136008327Y-129708119D01*
X135892178Y-129636202D01*
X135892177Y-129636201D01*
X135684804Y-129555865D01*
X135466193Y-129515000D01*
X135243807Y-129515000D01*
X135025195Y-129555865D01*
X134817824Y-129636200D01*
X134817823Y-129636201D01*
X134701671Y-129708119D01*
X121400500Y-129708119D01*
X121400500Y-126905000D01*
X134149357Y-126905000D01*
X134169884Y-127126535D01*
X134169885Y-127126537D01*
X134230769Y-127340523D01*
X134230775Y-127340538D01*
X134329938Y-127539683D01*
X134329943Y-127539691D01*
X134464020Y-127717238D01*
X134628437Y-127867123D01*
X134628439Y-127867125D01*
X134817595Y-127984245D01*
X134817596Y-127984245D01*
X134817599Y-127984247D01*
X135025060Y-128064618D01*
X135243757Y-128105500D01*
X135243759Y-128105500D01*
X135466241Y-128105500D01*
X135466243Y-128105500D01*
X135684940Y-128064618D01*
X135892401Y-127984247D01*
X136081562Y-127867124D01*
X136245981Y-127717236D01*
X136380058Y-127539689D01*
X136479229Y-127340528D01*
X136540115Y-127126536D01*
X136560643Y-126905000D01*
X136540115Y-126683464D01*
X136479229Y-126469472D01*
X136479224Y-126469461D01*
X136380061Y-126270316D01*
X136380056Y-126270308D01*
X136245979Y-126092761D01*
X136081562Y-125942876D01*
X136081560Y-125942874D01*
X135892404Y-125825754D01*
X135892398Y-125825752D01*
X135684940Y-125745382D01*
X135466243Y-125704500D01*
X135243757Y-125704500D01*
X135025060Y-125745382D01*
X134893864Y-125796207D01*
X134817601Y-125825752D01*
X134817595Y-125825754D01*
X134628439Y-125942874D01*
X134628437Y-125942876D01*
X134464020Y-126092761D01*
X134329943Y-126270308D01*
X134329938Y-126270316D01*
X134230775Y-126469461D01*
X134230769Y-126469476D01*
X134169885Y-126683462D01*
X134169884Y-126683464D01*
X134149357Y-126904999D01*
X134149357Y-126905000D01*
X121400500Y-126905000D01*
X121400500Y-123095000D01*
X134149357Y-123095000D01*
X134169884Y-123316535D01*
X134169885Y-123316537D01*
X134230769Y-123530523D01*
X134230775Y-123530538D01*
X134329938Y-123729683D01*
X134329943Y-123729691D01*
X134464020Y-123907238D01*
X134628437Y-124057123D01*
X134628439Y-124057125D01*
X134817595Y-124174245D01*
X134817596Y-124174245D01*
X134817599Y-124174247D01*
X135025060Y-124254618D01*
X135243757Y-124295500D01*
X135243759Y-124295500D01*
X135466241Y-124295500D01*
X135466243Y-124295500D01*
X135684940Y-124254618D01*
X135892401Y-124174247D01*
X136081562Y-124057124D01*
X136245981Y-123907236D01*
X136380058Y-123729689D01*
X136479229Y-123530528D01*
X136540115Y-123316536D01*
X136560643Y-123095000D01*
X136540115Y-122873464D01*
X136479229Y-122659472D01*
X136475657Y-122652298D01*
X136380061Y-122460316D01*
X136380056Y-122460308D01*
X136245979Y-122282761D01*
X136081562Y-122132876D01*
X136081560Y-122132874D01*
X135892404Y-122015754D01*
X135892398Y-122015752D01*
X135684940Y-121935382D01*
X135466243Y-121894500D01*
X135243757Y-121894500D01*
X135025060Y-121935382D01*
X134964485Y-121958849D01*
X134817601Y-122015752D01*
X134817595Y-122015754D01*
X134628439Y-122132874D01*
X134628437Y-122132876D01*
X134464020Y-122282761D01*
X134329943Y-122460308D01*
X134329938Y-122460316D01*
X134230775Y-122659461D01*
X134230769Y-122659476D01*
X134169885Y-122873462D01*
X134169884Y-122873464D01*
X134149357Y-123094999D01*
X134149357Y-123095000D01*
X121400500Y-123095000D01*
X121400500Y-122500370D01*
X121999500Y-122500370D01*
X121999501Y-122500376D01*
X122005908Y-122559983D01*
X122056202Y-122694828D01*
X122056206Y-122694835D01*
X122142452Y-122810044D01*
X122142455Y-122810047D01*
X122257664Y-122896293D01*
X122257671Y-122896297D01*
X122392517Y-122946591D01*
X122392516Y-122946591D01*
X122399444Y-122947335D01*
X122452127Y-122953000D01*
X124547872Y-122952999D01*
X124607483Y-122946591D01*
X124742331Y-122896296D01*
X124857546Y-122810046D01*
X124943796Y-122694831D01*
X124994091Y-122559983D01*
X125000500Y-122500373D01*
X125000499Y-120499628D01*
X124994586Y-120444618D01*
X124994091Y-120440016D01*
X124943797Y-120305171D01*
X124943793Y-120305164D01*
X124857547Y-120189955D01*
X124857544Y-120189952D01*
X124742335Y-120103706D01*
X124742326Y-120103701D01*
X124713974Y-120093127D01*
X124658040Y-120051257D01*
X124633622Y-119985792D01*
X124648473Y-119917519D01*
X124656988Y-119904059D01*
X124789788Y-119721276D01*
X124893582Y-119517570D01*
X124964234Y-119300128D01*
X124966630Y-119285000D01*
X134149357Y-119285000D01*
X134169884Y-119506535D01*
X134169885Y-119506537D01*
X134230769Y-119720523D01*
X134230775Y-119720538D01*
X134329938Y-119919683D01*
X134329943Y-119919691D01*
X134464020Y-120097238D01*
X134628437Y-120247123D01*
X134628439Y-120247125D01*
X134817595Y-120364245D01*
X134817596Y-120364245D01*
X134817599Y-120364247D01*
X135025060Y-120444618D01*
X135243757Y-120485500D01*
X135243759Y-120485500D01*
X135466241Y-120485500D01*
X135466243Y-120485500D01*
X135684940Y-120444618D01*
X135892401Y-120364247D01*
X136081562Y-120247124D01*
X136245981Y-120097236D01*
X136380058Y-119919689D01*
X136479229Y-119720528D01*
X136540115Y-119506536D01*
X136560643Y-119285000D01*
X136540115Y-119063464D01*
X136479229Y-118849472D01*
X136479224Y-118849461D01*
X136380061Y-118650316D01*
X136380056Y-118650308D01*
X136245979Y-118472761D01*
X136081562Y-118322876D01*
X136081560Y-118322874D01*
X135892404Y-118205754D01*
X135892398Y-118205752D01*
X135684940Y-118125382D01*
X135466243Y-118084500D01*
X135243757Y-118084500D01*
X135025060Y-118125382D01*
X134893864Y-118176207D01*
X134817601Y-118205752D01*
X134817595Y-118205754D01*
X134628439Y-118322874D01*
X134628437Y-118322876D01*
X134464020Y-118472761D01*
X134329943Y-118650308D01*
X134329938Y-118650316D01*
X134230775Y-118849461D01*
X134230769Y-118849476D01*
X134169885Y-119063462D01*
X134169884Y-119063464D01*
X134149357Y-119284999D01*
X134149357Y-119285000D01*
X124966630Y-119285000D01*
X124978509Y-119210000D01*
X123990748Y-119210000D01*
X124012518Y-119172292D01*
X124050000Y-119032409D01*
X124050000Y-118887591D01*
X124012518Y-118747708D01*
X123990748Y-118710000D01*
X124978509Y-118710000D01*
X124964234Y-118619871D01*
X124893582Y-118402429D01*
X124789788Y-118198723D01*
X124655402Y-118013757D01*
X124493742Y-117852097D01*
X124409135Y-117790626D01*
X124366470Y-117735296D01*
X124360491Y-117665682D01*
X124393097Y-117603887D01*
X124409125Y-117589999D01*
X124494066Y-117528286D01*
X124655786Y-117366566D01*
X124790217Y-117181538D01*
X124894048Y-116977758D01*
X124936388Y-116847448D01*
X124964721Y-116760249D01*
X124964721Y-116760248D01*
X124964722Y-116760245D01*
X125000500Y-116534354D01*
X125000500Y-116305646D01*
X124964722Y-116079755D01*
X124964721Y-116079751D01*
X124964721Y-116079750D01*
X124894049Y-115862244D01*
X124862334Y-115800000D01*
X124790217Y-115658462D01*
X124655786Y-115473434D01*
X124494066Y-115311714D01*
X124309038Y-115177283D01*
X124188373Y-115115801D01*
X124105255Y-115073450D01*
X123887748Y-115002778D01*
X123718326Y-114975944D01*
X123661854Y-114967000D01*
X123338146Y-114967000D01*
X123262849Y-114978926D01*
X123112253Y-115002778D01*
X123112250Y-115002778D01*
X122894744Y-115073450D01*
X122690961Y-115177283D01*
X122625285Y-115225000D01*
X122505934Y-115311714D01*
X122505932Y-115311716D01*
X122505931Y-115311716D01*
X122344216Y-115473431D01*
X122344216Y-115473432D01*
X122344214Y-115473434D01*
X122343421Y-115474526D01*
X122209783Y-115658461D01*
X122105950Y-115862244D01*
X122035278Y-116079750D01*
X122035278Y-116079753D01*
X121999500Y-116305646D01*
X121999500Y-116534353D01*
X122035278Y-116760246D01*
X122035278Y-116760249D01*
X122105950Y-116977755D01*
X122167832Y-117099204D01*
X122209783Y-117181538D01*
X122344214Y-117366566D01*
X122505934Y-117528286D01*
X122590864Y-117589991D01*
X122633529Y-117645321D01*
X122639508Y-117714935D01*
X122606902Y-117776730D01*
X122590864Y-117790627D01*
X122506257Y-117852097D01*
X122344597Y-118013757D01*
X122210211Y-118198723D01*
X122106417Y-118402429D01*
X122035765Y-118619871D01*
X122021491Y-118710000D01*
X123009252Y-118710000D01*
X122987482Y-118747708D01*
X122950000Y-118887591D01*
X122950000Y-119032409D01*
X122987482Y-119172292D01*
X123009252Y-119210000D01*
X122021491Y-119210000D01*
X122035765Y-119300128D01*
X122106417Y-119517570D01*
X122210213Y-119721279D01*
X122343011Y-119904060D01*
X122366491Y-119969866D01*
X122350666Y-120037920D01*
X122300560Y-120086615D01*
X122286026Y-120093127D01*
X122257671Y-120103702D01*
X122257664Y-120103706D01*
X122142455Y-120189952D01*
X122142452Y-120189955D01*
X122056206Y-120305164D01*
X122056202Y-120305171D01*
X122005908Y-120440017D01*
X121999501Y-120499616D01*
X121999501Y-120499623D01*
X121999500Y-120499635D01*
X121999500Y-122500370D01*
X121400500Y-122500370D01*
X121400500Y-113305115D01*
X126995034Y-113305115D01*
X127014858Y-113531712D01*
X127014860Y-113531723D01*
X127073730Y-113751430D01*
X127073735Y-113751444D01*
X127169863Y-113957591D01*
X127220974Y-114030585D01*
X127900000Y-113351559D01*
X127900000Y-113357774D01*
X127927259Y-113459507D01*
X127979920Y-113550719D01*
X128054394Y-113625193D01*
X128145606Y-113677854D01*
X128247339Y-113705113D01*
X128253553Y-113705113D01*
X127569352Y-114389312D01*
X127559506Y-114438307D01*
X127510890Y-114488490D01*
X127455367Y-114503162D01*
X127455423Y-114504212D01*
X127455429Y-114504259D01*
X127455426Y-114504259D01*
X127455436Y-114504437D01*
X127452123Y-114504614D01*
X127392516Y-114511021D01*
X127257671Y-114561315D01*
X127257664Y-114561319D01*
X127142455Y-114647565D01*
X127142452Y-114647568D01*
X127056206Y-114762777D01*
X127056202Y-114762784D01*
X127005908Y-114897630D01*
X127000945Y-114943796D01*
X126999501Y-114957236D01*
X126999500Y-114957248D01*
X126999500Y-116652983D01*
X126999501Y-116652989D01*
X127005908Y-116712596D01*
X127056202Y-116847441D01*
X127056206Y-116847448D01*
X127142452Y-116962657D01*
X127142455Y-116962660D01*
X127257664Y-117048906D01*
X127257671Y-117048910D01*
X127392517Y-117099204D01*
X127392516Y-117099204D01*
X127399444Y-117099948D01*
X127452127Y-117105613D01*
X129147872Y-117105612D01*
X129207483Y-117099204D01*
X129342331Y-117048909D01*
X129457546Y-116962659D01*
X129543796Y-116847444D01*
X129594091Y-116712596D01*
X129600500Y-116652986D01*
X129600499Y-115725000D01*
X134155000Y-115725000D01*
X134155000Y-116222844D01*
X134161401Y-116282372D01*
X134161403Y-116282379D01*
X134211645Y-116417086D01*
X134211649Y-116417093D01*
X134297809Y-116532187D01*
X134297812Y-116532190D01*
X134412906Y-116618350D01*
X134412913Y-116618354D01*
X134547620Y-116668596D01*
X134547627Y-116668598D01*
X134607155Y-116674999D01*
X134607172Y-116675000D01*
X135105000Y-116675000D01*
X135105000Y-115725000D01*
X134155000Y-115725000D01*
X129600499Y-115725000D01*
X129600499Y-115521078D01*
X135005000Y-115521078D01*
X135028852Y-115610095D01*
X135074930Y-115689905D01*
X135140095Y-115755070D01*
X135219905Y-115801148D01*
X135308922Y-115825000D01*
X135401078Y-115825000D01*
X135490095Y-115801148D01*
X135569905Y-115755070D01*
X135599975Y-115725000D01*
X135605000Y-115725000D01*
X135605000Y-116675000D01*
X136102828Y-116675000D01*
X136102844Y-116674999D01*
X136162372Y-116668598D01*
X136162379Y-116668596D01*
X136297086Y-116618354D01*
X136297093Y-116618350D01*
X136412187Y-116532190D01*
X136412190Y-116532187D01*
X136498350Y-116417093D01*
X136498354Y-116417086D01*
X136548596Y-116282379D01*
X136548598Y-116282372D01*
X136554999Y-116222844D01*
X136555000Y-116222827D01*
X136555000Y-115725000D01*
X135605000Y-115725000D01*
X135599975Y-115725000D01*
X135635070Y-115689905D01*
X135681148Y-115610095D01*
X135705000Y-115521078D01*
X135705000Y-115428922D01*
X135681148Y-115339905D01*
X135635070Y-115260095D01*
X135569905Y-115194930D01*
X135490095Y-115148852D01*
X135401078Y-115125000D01*
X135308922Y-115125000D01*
X135219905Y-115148852D01*
X135140095Y-115194930D01*
X135074930Y-115260095D01*
X135028852Y-115339905D01*
X135005000Y-115428922D01*
X135005000Y-115521078D01*
X129600499Y-115521078D01*
X129600499Y-115225000D01*
X134155000Y-115225000D01*
X135105000Y-115225000D01*
X135105000Y-114275000D01*
X135605000Y-114275000D01*
X135605000Y-115225000D01*
X136555000Y-115225000D01*
X136555000Y-114727172D01*
X136554999Y-114727155D01*
X136548598Y-114667627D01*
X136548596Y-114667620D01*
X136498354Y-114532913D01*
X136498350Y-114532906D01*
X136412190Y-114417812D01*
X136412187Y-114417809D01*
X136297093Y-114331649D01*
X136297086Y-114331645D01*
X136162379Y-114281403D01*
X136162372Y-114281401D01*
X136102844Y-114275000D01*
X135605000Y-114275000D01*
X135105000Y-114275000D01*
X134607155Y-114275000D01*
X134547627Y-114281401D01*
X134547620Y-114281403D01*
X134412913Y-114331645D01*
X134412906Y-114331649D01*
X134297812Y-114417809D01*
X134297809Y-114417812D01*
X134211649Y-114532906D01*
X134211645Y-114532913D01*
X134161403Y-114667620D01*
X134161401Y-114667627D01*
X134155000Y-114727155D01*
X134155000Y-115225000D01*
X129600499Y-115225000D01*
X129600499Y-114957241D01*
X129594091Y-114897630D01*
X129543796Y-114762782D01*
X129543795Y-114762781D01*
X129543793Y-114762777D01*
X129457547Y-114647568D01*
X129457544Y-114647565D01*
X129342335Y-114561319D01*
X129342328Y-114561315D01*
X129207482Y-114511021D01*
X129207483Y-114511021D01*
X129147883Y-114504614D01*
X129147881Y-114504613D01*
X129147873Y-114504613D01*
X129147864Y-114504613D01*
X129144548Y-114504435D01*
X129144627Y-114502960D01*
X129083215Y-114484928D01*
X129037460Y-114432124D01*
X129029969Y-114388635D01*
X128346447Y-113705113D01*
X128352661Y-113705113D01*
X128454394Y-113677854D01*
X128545606Y-113625193D01*
X128620080Y-113550719D01*
X128672741Y-113459507D01*
X128700000Y-113357774D01*
X128700000Y-113351560D01*
X129379024Y-114030584D01*
X129430136Y-113957591D01*
X129526264Y-113751444D01*
X129526269Y-113751430D01*
X129585139Y-113531723D01*
X129585141Y-113531712D01*
X129604966Y-113305115D01*
X129604966Y-113305110D01*
X129585141Y-113078513D01*
X129585139Y-113078502D01*
X129526269Y-112858795D01*
X129526264Y-112858781D01*
X129430136Y-112652634D01*
X129430132Y-112652626D01*
X129379025Y-112579639D01*
X128700000Y-113258664D01*
X128700000Y-113252452D01*
X128672741Y-113150719D01*
X128620080Y-113059507D01*
X128545606Y-112985033D01*
X128454394Y-112932372D01*
X128352661Y-112905113D01*
X128346448Y-112905113D01*
X129025472Y-112226087D01*
X128952478Y-112174976D01*
X128746331Y-112078848D01*
X128746317Y-112078843D01*
X128526610Y-112019973D01*
X128526599Y-112019971D01*
X128300002Y-112000147D01*
X128299998Y-112000147D01*
X128073400Y-112019971D01*
X128073389Y-112019973D01*
X127853682Y-112078843D01*
X127853673Y-112078847D01*
X127647516Y-112174979D01*
X127647512Y-112174981D01*
X127574526Y-112226086D01*
X127574526Y-112226087D01*
X128253553Y-112905113D01*
X128247339Y-112905113D01*
X128145606Y-112932372D01*
X128054394Y-112985033D01*
X127979920Y-113059507D01*
X127927259Y-113150719D01*
X127900000Y-113252452D01*
X127900000Y-113258665D01*
X127220974Y-112579639D01*
X127220973Y-112579639D01*
X127169868Y-112652625D01*
X127169866Y-112652629D01*
X127073734Y-112858786D01*
X127073730Y-112858795D01*
X127014860Y-113078502D01*
X127014858Y-113078513D01*
X126995034Y-113305110D01*
X126995034Y-113305115D01*
X121400500Y-113305115D01*
X121400500Y-108685928D01*
X121375502Y-108560261D01*
X121375501Y-108560260D01*
X121375501Y-108560256D01*
X121326465Y-108441873D01*
X121266850Y-108352652D01*
X121255277Y-108335331D01*
X119519946Y-106600000D01*
X125794696Y-106600000D01*
X125813898Y-106966405D01*
X125868273Y-107309712D01*
X125871295Y-107328794D01*
X125931029Y-107551725D01*
X125966260Y-107683206D01*
X126097746Y-108025739D01*
X126264320Y-108352656D01*
X126464147Y-108660364D01*
X126484851Y-108685931D01*
X126695051Y-108945506D01*
X126954494Y-109204949D01*
X126954498Y-109204952D01*
X127239635Y-109435852D01*
X127547343Y-109635679D01*
X127547348Y-109635682D01*
X127874264Y-109802255D01*
X128216801Y-109933742D01*
X128571206Y-110028705D01*
X128933596Y-110086102D01*
X129279734Y-110104241D01*
X129299999Y-110105304D01*
X129300000Y-110105304D01*
X129300001Y-110105304D01*
X129319203Y-110104297D01*
X129666404Y-110086102D01*
X130028794Y-110028705D01*
X130383199Y-109933742D01*
X130725736Y-109802255D01*
X131052652Y-109635682D01*
X131360366Y-109435851D01*
X131645506Y-109204949D01*
X131904949Y-108945506D01*
X132135851Y-108660366D01*
X132335682Y-108352652D01*
X132502255Y-108025736D01*
X132633742Y-107683199D01*
X132728705Y-107328794D01*
X132786102Y-106966404D01*
X132805304Y-106600000D01*
X132786102Y-106233596D01*
X132728705Y-105871206D01*
X132633742Y-105516801D01*
X132502255Y-105174264D01*
X132335682Y-104847348D01*
X132335679Y-104847343D01*
X132135852Y-104539635D01*
X131904952Y-104254498D01*
X131904949Y-104254494D01*
X131645506Y-103995051D01*
X131360366Y-103764149D01*
X131360364Y-103764147D01*
X131052656Y-103564320D01*
X130725739Y-103397746D01*
X130383206Y-103266260D01*
X130383199Y-103266258D01*
X130028794Y-103171295D01*
X130028790Y-103171294D01*
X130028789Y-103171294D01*
X129666405Y-103113898D01*
X129300001Y-103094696D01*
X129299999Y-103094696D01*
X128933594Y-103113898D01*
X128571211Y-103171294D01*
X128571209Y-103171294D01*
X128216793Y-103266260D01*
X127874260Y-103397746D01*
X127547343Y-103564320D01*
X127239635Y-103764147D01*
X126954498Y-103995047D01*
X126954490Y-103995054D01*
X126695054Y-104254490D01*
X126695047Y-104254498D01*
X126464147Y-104539635D01*
X126264320Y-104847343D01*
X126097746Y-105174260D01*
X125966260Y-105516793D01*
X125871294Y-105871209D01*
X125871294Y-105871211D01*
X125813898Y-106233594D01*
X125794696Y-106599999D01*
X125794696Y-106600000D01*
X119519946Y-106600000D01*
X114605448Y-101685502D01*
X114571963Y-101624179D01*
X114576947Y-101554487D01*
X114577616Y-101552736D01*
X114600760Y-101493769D01*
X114656474Y-101249673D01*
X114658637Y-101220808D01*
X114675184Y-101000004D01*
X114675184Y-100999995D01*
X114656475Y-100750336D01*
X114656474Y-100750331D01*
X114656474Y-100750327D01*
X114600760Y-100506231D01*
X114509289Y-100273165D01*
X114384102Y-100056335D01*
X114227997Y-99860586D01*
X114227996Y-99860585D01*
X114227993Y-99860581D01*
X114044460Y-99690288D01*
X113837592Y-99549248D01*
X113837588Y-99549246D01*
X113837585Y-99549244D01*
X113837584Y-99549243D01*
X113612015Y-99440616D01*
X113612017Y-99440616D01*
X113372765Y-99366816D01*
X113372759Y-99366814D01*
X113125194Y-99329500D01*
X113125187Y-99329500D01*
X112874813Y-99329500D01*
X112874805Y-99329500D01*
X112627240Y-99366814D01*
X112627234Y-99366816D01*
X112387983Y-99440616D01*
X112162415Y-99549243D01*
X112162414Y-99549244D01*
X111955539Y-99690288D01*
X111772006Y-99860581D01*
X111615898Y-100056335D01*
X111490711Y-100273164D01*
X111399242Y-100506225D01*
X111399236Y-100506244D01*
X111343525Y-100750331D01*
X111343524Y-100750336D01*
X111324816Y-100999995D01*
X111324816Y-101000004D01*
X111343524Y-101249663D01*
X111343525Y-101249668D01*
X111399236Y-101493755D01*
X111399238Y-101493764D01*
X111399240Y-101493769D01*
X111490711Y-101726835D01*
X111615898Y-101943665D01*
X111741981Y-102101768D01*
X111772006Y-102139418D01*
X111945264Y-102300177D01*
X111955540Y-102309712D01*
X112162408Y-102450752D01*
X112162413Y-102450754D01*
X112162414Y-102450755D01*
X112162415Y-102450756D01*
X112282218Y-102508449D01*
X112387983Y-102559383D01*
X112387984Y-102559383D01*
X112387987Y-102559385D01*
X112627236Y-102633184D01*
X112627237Y-102633184D01*
X112627240Y-102633185D01*
X112874805Y-102670499D01*
X112874810Y-102670499D01*
X112874813Y-102670500D01*
X112874814Y-102670500D01*
X113125186Y-102670500D01*
X113125187Y-102670500D01*
X113125194Y-102670499D01*
X113372759Y-102633185D01*
X113372759Y-102633184D01*
X113372764Y-102633184D01*
X113561578Y-102574941D01*
X113631438Y-102573991D01*
X113685806Y-102605752D01*
X120063181Y-108983127D01*
X120096666Y-109044450D01*
X120099500Y-109070808D01*
X120099500Y-132380192D01*
X120079815Y-132447231D01*
X120027011Y-132492986D01*
X119957853Y-132502930D01*
X119894297Y-132473905D01*
X119887819Y-132467873D01*
X119821722Y-132401776D01*
X119788237Y-132340453D01*
X119786182Y-132327973D01*
X119785368Y-132320745D01*
X119725789Y-132150478D01*
X119629816Y-131997738D01*
X119502262Y-131870184D01*
X119455367Y-131840718D01*
X119349523Y-131774211D01*
X119179254Y-131714631D01*
X119179249Y-131714630D01*
X119000004Y-131694435D01*
X118999996Y-131694435D01*
X118820750Y-131714630D01*
X118820745Y-131714631D01*
X118650476Y-131774211D01*
X118497737Y-131870184D01*
X118370184Y-131997737D01*
X118274210Y-132150478D01*
X118214632Y-132320744D01*
X118214630Y-132320752D01*
X118213815Y-132327988D01*
X118186743Y-132392400D01*
X118178277Y-132401775D01*
X116766873Y-133813181D01*
X116705550Y-133846666D01*
X116679192Y-133849500D01*
X116007721Y-133849500D01*
X115940682Y-133829815D01*
X115906146Y-133796623D01*
X115905056Y-133795067D01*
X115869614Y-133744450D01*
X115788494Y-133628597D01*
X115621402Y-133461506D01*
X115621395Y-133461501D01*
X115427834Y-133325967D01*
X115427830Y-133325965D01*
X115350154Y-133289744D01*
X115213663Y-133226097D01*
X115213659Y-133226096D01*
X115213655Y-133226094D01*
X114985413Y-133164938D01*
X114985403Y-133164936D01*
X114750001Y-133144341D01*
X114749999Y-133144341D01*
X114514596Y-133164936D01*
X114514586Y-133164938D01*
X114286344Y-133226094D01*
X114286335Y-133226098D01*
X114072171Y-133325964D01*
X114072169Y-133325965D01*
X113878597Y-133461505D01*
X113711505Y-133628597D01*
X113601575Y-133785595D01*
X113546998Y-133829220D01*
X113477500Y-133836414D01*
X113415145Y-133804891D01*
X113398425Y-133785595D01*
X113288494Y-133628597D01*
X113121402Y-133461506D01*
X113121395Y-133461501D01*
X112927834Y-133325967D01*
X112927830Y-133325965D01*
X112850154Y-133289744D01*
X112713663Y-133226097D01*
X112713659Y-133226096D01*
X112713655Y-133226094D01*
X112485413Y-133164938D01*
X112485403Y-133164936D01*
X112250001Y-133144341D01*
X112249999Y-133144341D01*
X112014596Y-133164936D01*
X112014586Y-133164938D01*
X111786344Y-133226094D01*
X111786335Y-133226098D01*
X111572171Y-133325964D01*
X111572169Y-133325965D01*
X111378597Y-133461505D01*
X111362181Y-133477922D01*
X111300858Y-133511407D01*
X111231166Y-133506423D01*
X111175233Y-133464551D01*
X111150816Y-133399087D01*
X111150500Y-133390241D01*
X111150500Y-132820807D01*
X111170185Y-132753768D01*
X111186815Y-132733130D01*
X112038342Y-131881602D01*
X112099663Y-131848119D01*
X112136824Y-131845757D01*
X112236056Y-131854439D01*
X112249999Y-131855659D01*
X112250000Y-131855659D01*
X112250001Y-131855659D01*
X112289234Y-131852226D01*
X112485408Y-131835063D01*
X112713663Y-131773903D01*
X112927830Y-131674035D01*
X113121401Y-131538495D01*
X113288495Y-131371401D01*
X113398425Y-131214405D01*
X113453002Y-131170780D01*
X113522500Y-131163586D01*
X113584855Y-131195109D01*
X113601575Y-131214405D01*
X113711500Y-131371395D01*
X113711505Y-131371401D01*
X113878599Y-131538495D01*
X113975384Y-131606265D01*
X114072165Y-131674032D01*
X114072167Y-131674033D01*
X114072170Y-131674035D01*
X114286337Y-131773903D01*
X114514592Y-131835063D01*
X114702918Y-131851539D01*
X114749999Y-131855659D01*
X114750000Y-131855659D01*
X114750001Y-131855659D01*
X114789234Y-131852226D01*
X114985408Y-131835063D01*
X115213663Y-131773903D01*
X115427830Y-131674035D01*
X115621401Y-131538495D01*
X115788495Y-131371401D01*
X115924035Y-131177830D01*
X116023903Y-130963663D01*
X116085063Y-130735408D01*
X116105659Y-130500000D01*
X116085063Y-130264592D01*
X116047256Y-130123492D01*
X116048919Y-130053643D01*
X116088082Y-129995781D01*
X116152310Y-129968277D01*
X116187436Y-129969090D01*
X116375665Y-130000500D01*
X116375666Y-130000500D01*
X116624335Y-130000500D01*
X116869614Y-129959571D01*
X117104810Y-129878828D01*
X117323509Y-129760474D01*
X117519744Y-129607738D01*
X117688164Y-129424785D01*
X117824173Y-129216607D01*
X117924063Y-128988881D01*
X117985108Y-128747821D01*
X118005643Y-128500000D01*
X117985108Y-128252179D01*
X117924063Y-128011119D01*
X117860900Y-127867123D01*
X117824173Y-127783393D01*
X117688166Y-127575217D01*
X117655460Y-127539689D01*
X117519744Y-127392262D01*
X117323509Y-127239526D01*
X117323507Y-127239525D01*
X117323506Y-127239524D01*
X117104811Y-127121172D01*
X117104802Y-127121169D01*
X116869616Y-127040429D01*
X116624335Y-126999500D01*
X116375665Y-126999500D01*
X116130383Y-127040429D01*
X115895197Y-127121169D01*
X115895188Y-127121172D01*
X115676493Y-127239524D01*
X115480257Y-127392261D01*
X115311833Y-127575217D01*
X115175826Y-127783393D01*
X115075936Y-128011118D01*
X115014892Y-128252175D01*
X115014890Y-128252187D01*
X114994357Y-128499994D01*
X114994357Y-128500005D01*
X115014890Y-128747812D01*
X115014892Y-128747824D01*
X115075936Y-128988879D01*
X115077600Y-128993724D01*
X115076531Y-128994090D01*
X115084726Y-129057946D01*
X115054740Y-129121054D01*
X114995395Y-129157933D01*
X114951462Y-129161967D01*
X114750001Y-129144341D01*
X114749999Y-129144341D01*
X114514596Y-129164936D01*
X114514586Y-129164938D01*
X114286344Y-129226094D01*
X114286335Y-129226098D01*
X114072171Y-129325964D01*
X114072169Y-129325965D01*
X113878597Y-129461505D01*
X113711505Y-129628597D01*
X113601575Y-129785595D01*
X113546998Y-129829220D01*
X113477500Y-129836414D01*
X113415145Y-129804891D01*
X113398425Y-129785595D01*
X113288494Y-129628597D01*
X113121402Y-129461506D01*
X113121401Y-129461505D01*
X113024860Y-129393906D01*
X112953376Y-129343852D01*
X112909751Y-129289275D01*
X112900500Y-129242277D01*
X112900500Y-125185928D01*
X112875502Y-125060261D01*
X112875501Y-125060260D01*
X112875501Y-125060256D01*
X112826465Y-124941873D01*
X112755277Y-124835331D01*
X112755275Y-124835329D01*
X112755273Y-124835326D01*
X111686819Y-123766872D01*
X111653334Y-123705549D01*
X111650500Y-123679191D01*
X111650500Y-121290006D01*
X112594700Y-121290006D01*
X112613864Y-121521297D01*
X112613866Y-121521308D01*
X112670842Y-121746300D01*
X112764075Y-121958848D01*
X112891016Y-122153147D01*
X112891019Y-122153151D01*
X112891021Y-122153153D01*
X113048216Y-122323913D01*
X113048219Y-122323915D01*
X113048222Y-122323918D01*
X113231365Y-122466464D01*
X113231371Y-122466468D01*
X113231374Y-122466470D01*
X113435497Y-122576936D01*
X113549487Y-122616068D01*
X113655015Y-122652297D01*
X113655017Y-122652297D01*
X113655019Y-122652298D01*
X113883951Y-122690500D01*
X113883952Y-122690500D01*
X114116048Y-122690500D01*
X114116049Y-122690500D01*
X114344981Y-122652298D01*
X114564503Y-122576936D01*
X114768626Y-122466470D01*
X114951784Y-122323913D01*
X115108979Y-122153153D01*
X115235924Y-121958849D01*
X115329157Y-121746300D01*
X115386134Y-121521305D01*
X115405300Y-121290000D01*
X115405300Y-121289993D01*
X115386135Y-121058702D01*
X115386133Y-121058691D01*
X115329157Y-120833699D01*
X115235924Y-120621151D01*
X115108983Y-120426852D01*
X115108980Y-120426849D01*
X115108979Y-120426847D01*
X115014195Y-120323884D01*
X114983275Y-120261232D01*
X114991135Y-120191806D01*
X115035283Y-120137651D01*
X115062095Y-120123722D01*
X115142326Y-120093798D01*
X115142326Y-120093797D01*
X115142331Y-120093796D01*
X115257546Y-120007546D01*
X115343796Y-119892331D01*
X115394091Y-119757483D01*
X115400500Y-119697873D01*
X115400499Y-117802128D01*
X115394091Y-117742517D01*
X115365433Y-117665682D01*
X115343797Y-117607671D01*
X115343793Y-117607664D01*
X115257547Y-117492455D01*
X115257544Y-117492452D01*
X115142335Y-117406206D01*
X115142328Y-117406202D01*
X115007482Y-117355908D01*
X115007483Y-117355908D01*
X114947883Y-117349501D01*
X114947881Y-117349500D01*
X114947873Y-117349500D01*
X114947864Y-117349500D01*
X113052129Y-117349500D01*
X113052123Y-117349501D01*
X112992516Y-117355908D01*
X112857671Y-117406202D01*
X112857664Y-117406206D01*
X112742455Y-117492452D01*
X112742452Y-117492455D01*
X112656206Y-117607664D01*
X112656202Y-117607671D01*
X112605908Y-117742517D01*
X112600736Y-117790627D01*
X112599501Y-117802123D01*
X112599500Y-117802135D01*
X112599500Y-119697870D01*
X112599501Y-119697876D01*
X112605908Y-119757483D01*
X112656202Y-119892328D01*
X112656206Y-119892335D01*
X112742452Y-120007544D01*
X112742455Y-120007547D01*
X112857664Y-120093793D01*
X112857673Y-120093798D01*
X112937904Y-120123722D01*
X112993838Y-120165593D01*
X113018256Y-120231057D01*
X113003405Y-120299330D01*
X112985802Y-120323886D01*
X112891019Y-120426849D01*
X112764075Y-120621151D01*
X112670842Y-120833699D01*
X112613866Y-121058691D01*
X112613864Y-121058702D01*
X112594700Y-121289993D01*
X112594700Y-121290006D01*
X111650500Y-121290006D01*
X111650500Y-116200002D01*
X115695034Y-116200002D01*
X115714858Y-116426599D01*
X115714860Y-116426610D01*
X115773730Y-116646317D01*
X115773735Y-116646331D01*
X115869863Y-116852478D01*
X115920974Y-116925472D01*
X116600000Y-116246446D01*
X116600000Y-116252661D01*
X116627259Y-116354394D01*
X116679920Y-116445606D01*
X116754394Y-116520080D01*
X116845606Y-116572741D01*
X116947339Y-116600000D01*
X116953553Y-116600000D01*
X116274526Y-117279025D01*
X116347513Y-117330132D01*
X116347521Y-117330136D01*
X116553668Y-117426264D01*
X116553682Y-117426269D01*
X116773389Y-117485139D01*
X116773400Y-117485141D01*
X116999998Y-117504966D01*
X117000002Y-117504966D01*
X117226599Y-117485141D01*
X117226610Y-117485139D01*
X117446317Y-117426269D01*
X117446331Y-117426264D01*
X117652478Y-117330136D01*
X117725471Y-117279024D01*
X117046447Y-116600000D01*
X117052661Y-116600000D01*
X117154394Y-116572741D01*
X117245606Y-116520080D01*
X117320080Y-116445606D01*
X117372741Y-116354394D01*
X117400000Y-116252661D01*
X117400000Y-116246447D01*
X118079024Y-116925471D01*
X118130136Y-116852478D01*
X118226264Y-116646331D01*
X118226269Y-116646317D01*
X118285139Y-116426610D01*
X118285141Y-116426599D01*
X118304966Y-116200002D01*
X118304966Y-116199997D01*
X118285141Y-115973400D01*
X118285139Y-115973389D01*
X118226269Y-115753682D01*
X118226264Y-115753668D01*
X118130136Y-115547521D01*
X118130132Y-115547513D01*
X118079025Y-115474526D01*
X117400000Y-116153551D01*
X117400000Y-116147339D01*
X117372741Y-116045606D01*
X117320080Y-115954394D01*
X117245606Y-115879920D01*
X117154394Y-115827259D01*
X117052661Y-115800000D01*
X117046448Y-115800000D01*
X117730645Y-115115801D01*
X117740492Y-115066807D01*
X117789107Y-115016624D01*
X117844633Y-115001981D01*
X117844576Y-115000900D01*
X117844571Y-115000854D01*
X117844573Y-115000853D01*
X117844564Y-115000676D01*
X117847857Y-115000499D01*
X117847872Y-115000499D01*
X117907483Y-114994091D01*
X118042331Y-114943796D01*
X118157546Y-114857546D01*
X118243796Y-114742331D01*
X118294091Y-114607483D01*
X118300500Y-114547873D01*
X118300499Y-112852128D01*
X118294091Y-112792517D01*
X118243796Y-112657669D01*
X118243795Y-112657668D01*
X118243793Y-112657664D01*
X118157547Y-112542455D01*
X118157544Y-112542452D01*
X118042335Y-112456206D01*
X118042328Y-112456202D01*
X117907482Y-112405908D01*
X117907483Y-112405908D01*
X117847883Y-112399501D01*
X117847881Y-112399500D01*
X117847873Y-112399500D01*
X117847864Y-112399500D01*
X116152129Y-112399500D01*
X116152123Y-112399501D01*
X116092516Y-112405908D01*
X115957671Y-112456202D01*
X115957664Y-112456206D01*
X115842455Y-112542452D01*
X115842452Y-112542455D01*
X115756206Y-112657664D01*
X115756202Y-112657671D01*
X115705908Y-112792517D01*
X115699501Y-112852116D01*
X115699501Y-112852123D01*
X115699500Y-112852135D01*
X115699500Y-114547870D01*
X115699501Y-114547876D01*
X115705908Y-114607483D01*
X115756202Y-114742328D01*
X115756206Y-114742335D01*
X115842452Y-114857544D01*
X115842455Y-114857547D01*
X115957664Y-114943793D01*
X115957671Y-114943797D01*
X115993736Y-114957248D01*
X116092517Y-114994091D01*
X116152127Y-115000500D01*
X116152153Y-115000499D01*
X116155453Y-115000678D01*
X116155372Y-115002183D01*
X116216672Y-115020112D01*
X116262483Y-115072867D01*
X116270016Y-115116464D01*
X116953553Y-115800000D01*
X116947339Y-115800000D01*
X116845606Y-115827259D01*
X116754394Y-115879920D01*
X116679920Y-115954394D01*
X116627259Y-116045606D01*
X116600000Y-116147339D01*
X116600000Y-116153552D01*
X115920974Y-115474526D01*
X115920973Y-115474526D01*
X115869868Y-115547512D01*
X115869866Y-115547516D01*
X115773734Y-115753673D01*
X115773730Y-115753682D01*
X115714860Y-115973389D01*
X115714858Y-115973400D01*
X115695034Y-116199997D01*
X115695034Y-116200002D01*
X111650500Y-116200002D01*
X111650500Y-115820807D01*
X111670185Y-115753768D01*
X111686819Y-115733126D01*
X113505273Y-113914672D01*
X113505276Y-113914669D01*
X113576465Y-113808127D01*
X113625501Y-113689744D01*
X113650500Y-113564069D01*
X113650500Y-107618764D01*
X113670185Y-107551725D01*
X113720695Y-107507045D01*
X113837592Y-107450752D01*
X114044460Y-107309712D01*
X114227997Y-107139414D01*
X114384102Y-106943665D01*
X114509289Y-106726835D01*
X114600760Y-106493769D01*
X114656474Y-106249673D01*
X114675184Y-106000000D01*
X114665532Y-105871206D01*
X114656475Y-105750336D01*
X114656474Y-105750331D01*
X114656474Y-105750327D01*
X114600760Y-105506231D01*
X114509289Y-105273165D01*
X114384102Y-105056335D01*
X114227997Y-104860586D01*
X114227996Y-104860585D01*
X114227993Y-104860581D01*
X114044460Y-104690288D01*
X113837592Y-104549248D01*
X113837588Y-104549246D01*
X113837585Y-104549244D01*
X113837584Y-104549243D01*
X113612015Y-104440616D01*
X113612017Y-104440616D01*
X113372765Y-104366816D01*
X113372759Y-104366814D01*
X113125194Y-104329500D01*
X113125187Y-104329500D01*
X112874813Y-104329500D01*
X112874805Y-104329500D01*
X112627240Y-104366814D01*
X112627234Y-104366816D01*
X112387983Y-104440616D01*
X112162415Y-104549243D01*
X112162414Y-104549244D01*
X111955539Y-104690288D01*
X111772006Y-104860581D01*
X111615898Y-105056335D01*
X111490711Y-105273164D01*
X111399242Y-105506225D01*
X111399236Y-105506244D01*
X111343525Y-105750331D01*
X111343524Y-105750336D01*
X111324816Y-105999995D01*
X111324816Y-106000004D01*
X111343524Y-106249663D01*
X111343525Y-106249668D01*
X111399236Y-106493755D01*
X111399238Y-106493764D01*
X111399240Y-106493769D01*
X111490711Y-106726835D01*
X111615898Y-106943665D01*
X111634032Y-106966404D01*
X111772006Y-107139418D01*
X111945264Y-107300177D01*
X111955540Y-107309712D01*
X112162408Y-107450752D01*
X112279303Y-107507045D01*
X112331161Y-107553866D01*
X112349500Y-107618764D01*
X112349500Y-113179191D01*
X112329815Y-113246230D01*
X112313181Y-113266872D01*
X110494727Y-115085325D01*
X110494726Y-115085326D01*
X110433284Y-115177283D01*
X110433283Y-115177285D01*
X110423533Y-115191875D01*
X110374499Y-115310255D01*
X110374497Y-115310261D01*
X110349500Y-115435928D01*
X110349500Y-115435931D01*
X110349500Y-124064069D01*
X110349500Y-124064071D01*
X110349499Y-124064071D01*
X110371415Y-124174244D01*
X110374498Y-124189740D01*
X110374500Y-124189747D01*
X110423533Y-124308125D01*
X110494726Y-124414673D01*
X110494727Y-124414674D01*
X111563181Y-125483127D01*
X111596666Y-125544450D01*
X111599500Y-125570808D01*
X111599500Y-127200692D01*
X111579815Y-127267731D01*
X111527011Y-127313486D01*
X111457853Y-127323430D01*
X111399338Y-127298546D01*
X111391910Y-127292765D01*
X111323509Y-127239526D01*
X111194231Y-127169564D01*
X111104811Y-127121172D01*
X111104802Y-127121169D01*
X110869616Y-127040429D01*
X110624335Y-126999500D01*
X110375665Y-126999500D01*
X110130383Y-127040429D01*
X109895197Y-127121169D01*
X109895183Y-127121175D01*
X109683517Y-127235723D01*
X109615189Y-127250318D01*
X109549817Y-127225655D01*
X109508156Y-127169564D01*
X109500500Y-127126668D01*
X109500500Y-96000004D01*
X111324816Y-96000004D01*
X111343524Y-96249663D01*
X111343525Y-96249668D01*
X111399236Y-96493755D01*
X111399238Y-96493764D01*
X111399240Y-96493769D01*
X111490711Y-96726835D01*
X111615898Y-96943665D01*
X111740862Y-97100364D01*
X111772006Y-97139418D01*
X111939499Y-97294828D01*
X111955540Y-97309712D01*
X112162408Y-97450752D01*
X112162413Y-97450754D01*
X112162414Y-97450755D01*
X112162415Y-97450756D01*
X112256975Y-97496293D01*
X112387983Y-97559383D01*
X112387984Y-97559383D01*
X112387987Y-97559385D01*
X112627236Y-97633184D01*
X112627237Y-97633184D01*
X112627240Y-97633185D01*
X112874805Y-97670499D01*
X112874810Y-97670499D01*
X112874813Y-97670500D01*
X112874814Y-97670500D01*
X113125186Y-97670500D01*
X113125187Y-97670500D01*
X113125194Y-97670499D01*
X113372759Y-97633185D01*
X113372760Y-97633184D01*
X113372764Y-97633184D01*
X113612013Y-97559385D01*
X113837592Y-97450752D01*
X114044460Y-97309712D01*
X114227997Y-97139414D01*
X114384102Y-96943665D01*
X114509289Y-96726835D01*
X114600760Y-96493769D01*
X114656474Y-96249673D01*
X114675184Y-96000000D01*
X114656474Y-95750327D01*
X114600760Y-95506231D01*
X114509289Y-95273165D01*
X114384102Y-95056335D01*
X114227997Y-94860586D01*
X114227996Y-94860585D01*
X114227993Y-94860581D01*
X114044460Y-94690288D01*
X113987476Y-94651437D01*
X113837592Y-94549248D01*
X113837588Y-94549246D01*
X113837585Y-94549244D01*
X113837584Y-94549243D01*
X113612015Y-94440616D01*
X113612017Y-94440616D01*
X113372765Y-94366816D01*
X113372759Y-94366814D01*
X113125194Y-94329500D01*
X113125187Y-94329500D01*
X112874813Y-94329500D01*
X112874805Y-94329500D01*
X112627240Y-94366814D01*
X112627234Y-94366816D01*
X112387983Y-94440616D01*
X112162415Y-94549243D01*
X112162414Y-94549244D01*
X111955539Y-94690288D01*
X111772006Y-94860581D01*
X111615898Y-95056335D01*
X111490711Y-95273164D01*
X111399242Y-95506225D01*
X111399236Y-95506244D01*
X111343525Y-95750331D01*
X111343524Y-95750336D01*
X111324816Y-95999995D01*
X111324816Y-96000004D01*
X109500500Y-96000004D01*
X109500500Y-90415547D01*
X113999500Y-90415547D01*
X113999501Y-90415553D01*
X114005908Y-90475160D01*
X114056202Y-90610005D01*
X114056206Y-90610012D01*
X114142452Y-90725221D01*
X114142455Y-90725224D01*
X114257664Y-90811470D01*
X114257671Y-90811474D01*
X114392517Y-90861768D01*
X114392516Y-90861768D01*
X114399444Y-90862512D01*
X114452127Y-90868177D01*
X116547872Y-90868176D01*
X116607483Y-90861768D01*
X116742331Y-90811473D01*
X116857546Y-90725223D01*
X116943796Y-90610008D01*
X116994091Y-90475160D01*
X117000500Y-90415550D01*
X117000499Y-88319805D01*
X116994091Y-88260194D01*
X116943796Y-88125346D01*
X116943795Y-88125345D01*
X116943793Y-88125341D01*
X116857547Y-88010132D01*
X116857544Y-88010129D01*
X116742335Y-87923883D01*
X116742328Y-87923879D01*
X116607482Y-87873585D01*
X116607483Y-87873585D01*
X116547883Y-87867178D01*
X116547881Y-87867177D01*
X116547873Y-87867177D01*
X116547864Y-87867177D01*
X114452129Y-87867177D01*
X114452123Y-87867178D01*
X114392516Y-87873585D01*
X114257671Y-87923879D01*
X114257664Y-87923883D01*
X114142455Y-88010129D01*
X114142452Y-88010132D01*
X114056206Y-88125341D01*
X114056202Y-88125348D01*
X114005908Y-88260194D01*
X113999501Y-88319793D01*
X113999501Y-88319800D01*
X113999500Y-88319812D01*
X113999500Y-90415547D01*
X109500500Y-90415547D01*
X109500500Y-84367682D01*
X113994859Y-84367682D01*
X114015385Y-84615406D01*
X114015387Y-84615415D01*
X114076412Y-84856394D01*
X114176266Y-85084041D01*
X114276564Y-85237559D01*
X115017037Y-84497086D01*
X115034075Y-84560670D01*
X115099901Y-84674684D01*
X115192993Y-84767776D01*
X115307007Y-84833602D01*
X115370590Y-84850639D01*
X114629942Y-85591286D01*
X114676768Y-85627732D01*
X114676770Y-85627733D01*
X114895385Y-85746041D01*
X114895396Y-85746046D01*
X115130506Y-85826760D01*
X115375707Y-85867677D01*
X115624293Y-85867677D01*
X115869493Y-85826760D01*
X116104603Y-85746046D01*
X116104614Y-85746041D01*
X116323228Y-85627734D01*
X116323231Y-85627732D01*
X116370056Y-85591286D01*
X115629409Y-84850639D01*
X115692993Y-84833602D01*
X115807007Y-84767776D01*
X115900099Y-84674684D01*
X115965925Y-84560670D01*
X115982962Y-84497087D01*
X116723434Y-85237559D01*
X116823731Y-85084046D01*
X116923587Y-84856394D01*
X116984612Y-84615415D01*
X116984614Y-84615406D01*
X117005141Y-84367682D01*
X117005141Y-84367671D01*
X116984614Y-84119947D01*
X116984612Y-84119938D01*
X116923587Y-83878959D01*
X116823731Y-83651307D01*
X116723434Y-83497793D01*
X115982962Y-84238266D01*
X115965925Y-84174684D01*
X115900099Y-84060670D01*
X115807007Y-83967578D01*
X115692993Y-83901752D01*
X115629410Y-83884714D01*
X116370057Y-83144067D01*
X116370056Y-83144066D01*
X116323229Y-83107620D01*
X116104614Y-82989312D01*
X116104603Y-82989307D01*
X115869493Y-82908593D01*
X115624293Y-82867677D01*
X115375707Y-82867677D01*
X115130506Y-82908593D01*
X114895396Y-82989307D01*
X114895390Y-82989309D01*
X114676761Y-83107626D01*
X114629942Y-83144065D01*
X114629942Y-83144067D01*
X115370590Y-83884714D01*
X115307007Y-83901752D01*
X115192993Y-83967578D01*
X115099901Y-84060670D01*
X115034075Y-84174684D01*
X115017037Y-84238266D01*
X114276564Y-83497793D01*
X114176267Y-83651309D01*
X114076412Y-83878959D01*
X114015387Y-84119938D01*
X114015385Y-84119947D01*
X113994859Y-84367671D01*
X113994859Y-84367682D01*
X109500500Y-84367682D01*
X109500500Y-79790006D01*
X112594700Y-79790006D01*
X112613864Y-80021297D01*
X112613866Y-80021308D01*
X112670842Y-80246300D01*
X112764075Y-80458848D01*
X112891016Y-80653147D01*
X112891019Y-80653151D01*
X112891021Y-80653153D01*
X113048216Y-80823913D01*
X113048219Y-80823915D01*
X113048222Y-80823918D01*
X113231365Y-80966464D01*
X113231371Y-80966468D01*
X113231374Y-80966470D01*
X113435497Y-81076936D01*
X113549487Y-81116068D01*
X113655015Y-81152297D01*
X113655017Y-81152297D01*
X113655019Y-81152298D01*
X113883951Y-81190500D01*
X113883952Y-81190500D01*
X114116048Y-81190500D01*
X114116049Y-81190500D01*
X114344981Y-81152298D01*
X114564503Y-81076936D01*
X114768626Y-80966470D01*
X114951784Y-80823913D01*
X115108979Y-80653153D01*
X115235924Y-80458849D01*
X115329157Y-80246300D01*
X115386134Y-80021305D01*
X115390447Y-79969254D01*
X115405300Y-79790006D01*
X115405300Y-79789993D01*
X115386135Y-79558702D01*
X115386133Y-79558691D01*
X115329157Y-79333699D01*
X115235924Y-79121151D01*
X115108983Y-78926852D01*
X115108980Y-78926849D01*
X115108979Y-78926847D01*
X115014195Y-78823884D01*
X114983275Y-78761232D01*
X114991135Y-78691806D01*
X115035283Y-78637651D01*
X115062095Y-78623722D01*
X115142326Y-78593798D01*
X115142326Y-78593797D01*
X115142331Y-78593796D01*
X115257546Y-78507546D01*
X115343796Y-78392331D01*
X115394091Y-78257483D01*
X115400500Y-78197873D01*
X115400499Y-76302128D01*
X115394091Y-76242517D01*
X115343796Y-76107669D01*
X115343795Y-76107668D01*
X115343793Y-76107664D01*
X115257547Y-75992455D01*
X115257544Y-75992452D01*
X115142335Y-75906206D01*
X115142328Y-75906202D01*
X115007482Y-75855908D01*
X115007483Y-75855908D01*
X114947883Y-75849501D01*
X114947881Y-75849500D01*
X114947873Y-75849500D01*
X114947864Y-75849500D01*
X113052129Y-75849500D01*
X113052123Y-75849501D01*
X112992516Y-75855908D01*
X112857671Y-75906202D01*
X112857664Y-75906206D01*
X112742455Y-75992452D01*
X112742452Y-75992455D01*
X112656206Y-76107664D01*
X112656202Y-76107671D01*
X112605908Y-76242517D01*
X112599501Y-76302116D01*
X112599501Y-76302123D01*
X112599500Y-76302135D01*
X112599500Y-78197870D01*
X112599501Y-78197876D01*
X112605908Y-78257483D01*
X112656202Y-78392328D01*
X112656206Y-78392335D01*
X112742452Y-78507544D01*
X112742455Y-78507547D01*
X112857664Y-78593793D01*
X112857673Y-78593798D01*
X112937904Y-78623722D01*
X112993838Y-78665593D01*
X113018256Y-78731057D01*
X113003405Y-78799330D01*
X112985802Y-78823886D01*
X112891019Y-78926849D01*
X112764075Y-79121151D01*
X112670842Y-79333699D01*
X112613866Y-79558691D01*
X112613864Y-79558702D01*
X112594700Y-79789993D01*
X112594700Y-79790006D01*
X109500500Y-79790006D01*
X109500500Y-75124500D01*
X109520185Y-75057461D01*
X109572989Y-75011706D01*
X109624500Y-75000500D01*
X139275500Y-75000500D01*
X139342539Y-75020185D01*
G37*
%TD.AperFunction*%
%TA.AperFunction,Conductor*%
G36*
X118292539Y-136670185D02*
G01*
X118338294Y-136722989D01*
X118349500Y-136774500D01*
X118349500Y-137301684D01*
X118368162Y-137395501D01*
X118374499Y-137427359D01*
X118423535Y-137545742D01*
X118494723Y-137652284D01*
X118613182Y-137770743D01*
X118646666Y-137832064D01*
X118649500Y-137858423D01*
X118649500Y-158097692D01*
X118629815Y-158164731D01*
X118577011Y-158210486D01*
X118507853Y-158220430D01*
X118444297Y-158191405D01*
X118437819Y-158185373D01*
X116180209Y-155927763D01*
X116146724Y-155866440D01*
X116148115Y-155807989D01*
X116149045Y-155804517D01*
X116167563Y-155735408D01*
X116188159Y-155500000D01*
X116167563Y-155264592D01*
X116106403Y-155036337D01*
X116006535Y-154822171D01*
X115996702Y-154808127D01*
X115870994Y-154628597D01*
X115703902Y-154461506D01*
X115703895Y-154461501D01*
X115510334Y-154325967D01*
X115510330Y-154325965D01*
X115510328Y-154325964D01*
X115296163Y-154226097D01*
X115296159Y-154226096D01*
X115296155Y-154226094D01*
X115067913Y-154164938D01*
X115067903Y-154164936D01*
X114832501Y-154144341D01*
X114832499Y-154144341D01*
X114597096Y-154164936D01*
X114597086Y-154164938D01*
X114368844Y-154226094D01*
X114368835Y-154226098D01*
X114154671Y-154325964D01*
X114154669Y-154325965D01*
X113961097Y-154461505D01*
X113794005Y-154628597D01*
X113684075Y-154785595D01*
X113629498Y-154829220D01*
X113560000Y-154836414D01*
X113497645Y-154804891D01*
X113480925Y-154785595D01*
X113370994Y-154628597D01*
X113203902Y-154461506D01*
X113203895Y-154461501D01*
X113010334Y-154325967D01*
X113010330Y-154325965D01*
X113010328Y-154325964D01*
X112796163Y-154226097D01*
X112796159Y-154226096D01*
X112796155Y-154226094D01*
X112567913Y-154164938D01*
X112567903Y-154164936D01*
X112332501Y-154144341D01*
X112332499Y-154144341D01*
X112097096Y-154164936D01*
X112097086Y-154164938D01*
X111868844Y-154226094D01*
X111868835Y-154226098D01*
X111654671Y-154325964D01*
X111654669Y-154325965D01*
X111461097Y-154461505D01*
X111294005Y-154628597D01*
X111158465Y-154822169D01*
X111158464Y-154822171D01*
X111058598Y-155036335D01*
X111058594Y-155036344D01*
X110997438Y-155264586D01*
X110997436Y-155264596D01*
X110976841Y-155499999D01*
X110976841Y-155500000D01*
X110997436Y-155735403D01*
X110997438Y-155735413D01*
X111058594Y-155963655D01*
X111058596Y-155963659D01*
X111058597Y-155963663D01*
X111061246Y-155969343D01*
X111158465Y-156177830D01*
X111158467Y-156177834D01*
X111184075Y-156214405D01*
X111294005Y-156371401D01*
X111461099Y-156538495D01*
X111557884Y-156606265D01*
X111654665Y-156674032D01*
X111654667Y-156674033D01*
X111654670Y-156674035D01*
X111868837Y-156773903D01*
X112097092Y-156835063D01*
X112285418Y-156851539D01*
X112332499Y-156855659D01*
X112332500Y-156855659D01*
X112332501Y-156855659D01*
X112371734Y-156852226D01*
X112567908Y-156835063D01*
X112796163Y-156773903D01*
X113010330Y-156674035D01*
X113203901Y-156538495D01*
X113370995Y-156371401D01*
X113480925Y-156214405D01*
X113535502Y-156170780D01*
X113605000Y-156163586D01*
X113667355Y-156195109D01*
X113684075Y-156214405D01*
X113794000Y-156371395D01*
X113794005Y-156371401D01*
X113961099Y-156538495D01*
X114057884Y-156606265D01*
X114154665Y-156674032D01*
X114154667Y-156674033D01*
X114154670Y-156674035D01*
X114368837Y-156773903D01*
X114597092Y-156835063D01*
X114785418Y-156851539D01*
X114832499Y-156855659D01*
X114832500Y-156855659D01*
X114832501Y-156855659D01*
X114871734Y-156852226D01*
X115067908Y-156835063D01*
X115140489Y-156815615D01*
X115210339Y-156817278D01*
X115260263Y-156847709D01*
X117713181Y-159300627D01*
X117746666Y-159361950D01*
X117749500Y-159388308D01*
X117749500Y-160253230D01*
X117729815Y-160320269D01*
X117677011Y-160366024D01*
X117607853Y-160375968D01*
X117549339Y-160351084D01*
X117406009Y-160239526D01*
X117406007Y-160239525D01*
X117406006Y-160239524D01*
X117187311Y-160121172D01*
X117187302Y-160121169D01*
X116952116Y-160040429D01*
X116706835Y-159999500D01*
X116458165Y-159999500D01*
X116269940Y-160030908D01*
X116200575Y-160022526D01*
X116146753Y-159977973D01*
X116125563Y-159911394D01*
X116129756Y-159876506D01*
X116167563Y-159735408D01*
X116188159Y-159500000D01*
X116167563Y-159264592D01*
X116106403Y-159036337D01*
X116006535Y-158822171D01*
X115994436Y-158804891D01*
X115870994Y-158628597D01*
X115703902Y-158461506D01*
X115703895Y-158461501D01*
X115510334Y-158325967D01*
X115510330Y-158325965D01*
X115454639Y-158299996D01*
X115296163Y-158226097D01*
X115296159Y-158226096D01*
X115296155Y-158226094D01*
X115067913Y-158164938D01*
X115067903Y-158164936D01*
X114832501Y-158144341D01*
X114832499Y-158144341D01*
X114597096Y-158164936D01*
X114597086Y-158164938D01*
X114368844Y-158226094D01*
X114368835Y-158226098D01*
X114154671Y-158325964D01*
X114154669Y-158325965D01*
X113961097Y-158461505D01*
X113794005Y-158628597D01*
X113684075Y-158785595D01*
X113629498Y-158829220D01*
X113560000Y-158836414D01*
X113497645Y-158804891D01*
X113480925Y-158785595D01*
X113370994Y-158628597D01*
X113203902Y-158461506D01*
X113203895Y-158461501D01*
X113010334Y-158325967D01*
X113010330Y-158325965D01*
X112954639Y-158299996D01*
X112796163Y-158226097D01*
X112796159Y-158226096D01*
X112796155Y-158226094D01*
X112567913Y-158164938D01*
X112567903Y-158164936D01*
X112332501Y-158144341D01*
X112332499Y-158144341D01*
X112097096Y-158164936D01*
X112097086Y-158164938D01*
X111868844Y-158226094D01*
X111868835Y-158226098D01*
X111654671Y-158325964D01*
X111654669Y-158325965D01*
X111461097Y-158461505D01*
X111294005Y-158628597D01*
X111158465Y-158822169D01*
X111158464Y-158822171D01*
X111058598Y-159036335D01*
X111058594Y-159036344D01*
X110997438Y-159264586D01*
X110997436Y-159264596D01*
X110976841Y-159499999D01*
X110976841Y-159500000D01*
X110997436Y-159735403D01*
X110997438Y-159735413D01*
X111035243Y-159876506D01*
X111033580Y-159946356D01*
X110994417Y-160004218D01*
X110930188Y-160031722D01*
X110895059Y-160030908D01*
X110706835Y-159999500D01*
X110458165Y-159999500D01*
X110212883Y-160040429D01*
X109977697Y-160121169D01*
X109977688Y-160121172D01*
X109758993Y-160239524D01*
X109747419Y-160248533D01*
X109700660Y-160284926D01*
X109635668Y-160310568D01*
X109567128Y-160297001D01*
X109516803Y-160248533D01*
X109500500Y-160187072D01*
X109500500Y-150812927D01*
X109520185Y-150745888D01*
X109572989Y-150700133D01*
X109642147Y-150690189D01*
X109700658Y-150715072D01*
X109758991Y-150760474D01*
X109977690Y-150878828D01*
X110212886Y-150959571D01*
X110458165Y-151000500D01*
X110706834Y-151000500D01*
X110706835Y-151000500D01*
X110895060Y-150969091D01*
X110964423Y-150977473D01*
X111018246Y-151022026D01*
X111039436Y-151088604D01*
X111035243Y-151123492D01*
X110997439Y-151264583D01*
X110997436Y-151264596D01*
X110976841Y-151499999D01*
X110976841Y-151500000D01*
X110997436Y-151735403D01*
X110997438Y-151735413D01*
X111058594Y-151963655D01*
X111058596Y-151963659D01*
X111058597Y-151963663D01*
X111082500Y-152014923D01*
X111158465Y-152177830D01*
X111158467Y-152177834D01*
X111233734Y-152285325D01*
X111294005Y-152371401D01*
X111461099Y-152538495D01*
X111557884Y-152606265D01*
X111654665Y-152674032D01*
X111654667Y-152674033D01*
X111654670Y-152674035D01*
X111868837Y-152773903D01*
X112097092Y-152835063D01*
X112285418Y-152851539D01*
X112332499Y-152855659D01*
X112332500Y-152855659D01*
X112332501Y-152855659D01*
X112371734Y-152852226D01*
X112567908Y-152835063D01*
X112796163Y-152773903D01*
X113010330Y-152674035D01*
X113203901Y-152538495D01*
X113370995Y-152371401D01*
X113480925Y-152214405D01*
X113535502Y-152170780D01*
X113605000Y-152163586D01*
X113667355Y-152195109D01*
X113684075Y-152214405D01*
X113794000Y-152371395D01*
X113794005Y-152371401D01*
X113961099Y-152538495D01*
X114057884Y-152606265D01*
X114154665Y-152674032D01*
X114154667Y-152674033D01*
X114154670Y-152674035D01*
X114368837Y-152773903D01*
X114597092Y-152835063D01*
X114785418Y-152851539D01*
X114832499Y-152855659D01*
X114832500Y-152855659D01*
X114832501Y-152855659D01*
X114871734Y-152852226D01*
X115067908Y-152835063D01*
X115296163Y-152773903D01*
X115510330Y-152674035D01*
X115703901Y-152538495D01*
X115870995Y-152371401D01*
X116006535Y-152177830D01*
X116106403Y-151963663D01*
X116167563Y-151735408D01*
X116188159Y-151500000D01*
X116167563Y-151264592D01*
X116129756Y-151123492D01*
X116131419Y-151053643D01*
X116170582Y-150995781D01*
X116234810Y-150968277D01*
X116269936Y-150969090D01*
X116458165Y-151000500D01*
X116458166Y-151000500D01*
X116706835Y-151000500D01*
X116952114Y-150959571D01*
X117187310Y-150878828D01*
X117406009Y-150760474D01*
X117602244Y-150607738D01*
X117770664Y-150424785D01*
X117906673Y-150216607D01*
X118006563Y-149988881D01*
X118067608Y-149747821D01*
X118088143Y-149500000D01*
X118067608Y-149252179D01*
X118006563Y-149011119D01*
X117906673Y-148783393D01*
X117770666Y-148575217D01*
X117749057Y-148551744D01*
X117602244Y-148392262D01*
X117406009Y-148239526D01*
X117406007Y-148239525D01*
X117406006Y-148239524D01*
X117187311Y-148121172D01*
X117187302Y-148121169D01*
X116952116Y-148040429D01*
X116706835Y-147999500D01*
X116458165Y-147999500D01*
X116212883Y-148040429D01*
X115977697Y-148121169D01*
X115977688Y-148121172D01*
X115758993Y-148239524D01*
X115562757Y-148392261D01*
X115394333Y-148575217D01*
X115258326Y-148783393D01*
X115158436Y-149011118D01*
X115097392Y-149252175D01*
X115097390Y-149252187D01*
X115076857Y-149499994D01*
X115076857Y-149500005D01*
X115097390Y-149747812D01*
X115097392Y-149747824D01*
X115158436Y-149988879D01*
X115160100Y-149993724D01*
X115159031Y-149994090D01*
X115167226Y-150057946D01*
X115137240Y-150121054D01*
X115077895Y-150157933D01*
X115033962Y-150161967D01*
X114832501Y-150144341D01*
X114832499Y-150144341D01*
X114597096Y-150164936D01*
X114597086Y-150164938D01*
X114368844Y-150226094D01*
X114368835Y-150226098D01*
X114154671Y-150325964D01*
X114154669Y-150325965D01*
X113961097Y-150461505D01*
X113794005Y-150628597D01*
X113684075Y-150785595D01*
X113629498Y-150829220D01*
X113560000Y-150836414D01*
X113497645Y-150804891D01*
X113480925Y-150785595D01*
X113370994Y-150628597D01*
X113203902Y-150461506D01*
X113203895Y-150461501D01*
X113010334Y-150325967D01*
X113010330Y-150325965D01*
X112982915Y-150313181D01*
X112796163Y-150226097D01*
X112796159Y-150226096D01*
X112796155Y-150226094D01*
X112567913Y-150164938D01*
X112567903Y-150164936D01*
X112332501Y-150144341D01*
X112332499Y-150144341D01*
X112131037Y-150161967D01*
X112062537Y-150148200D01*
X112012353Y-150099585D01*
X111996420Y-150031557D01*
X112005415Y-149993906D01*
X112004899Y-149993729D01*
X112006562Y-149988885D01*
X112067607Y-149747824D01*
X112067608Y-149747821D01*
X112088143Y-149500000D01*
X112067608Y-149252179D01*
X112006563Y-149011119D01*
X111906673Y-148783393D01*
X111770666Y-148575217D01*
X111749057Y-148551744D01*
X111602244Y-148392262D01*
X111406009Y-148239526D01*
X111406007Y-148239525D01*
X111406006Y-148239524D01*
X111187311Y-148121172D01*
X111187302Y-148121169D01*
X110952116Y-148040429D01*
X110706835Y-147999500D01*
X110458165Y-147999500D01*
X110212883Y-148040429D01*
X109977697Y-148121169D01*
X109977688Y-148121172D01*
X109758993Y-148239524D01*
X109747419Y-148248533D01*
X109700660Y-148284926D01*
X109635668Y-148310568D01*
X109567128Y-148297001D01*
X109516803Y-148248533D01*
X109500500Y-148187072D01*
X109500500Y-141873331D01*
X109520185Y-141806292D01*
X109572989Y-141760537D01*
X109642147Y-141750593D01*
X109683514Y-141764274D01*
X109895190Y-141878828D01*
X110130386Y-141959571D01*
X110375665Y-142000500D01*
X110624335Y-142000500D01*
X110869614Y-141959571D01*
X111104810Y-141878828D01*
X111323509Y-141760474D01*
X111519744Y-141607738D01*
X111688164Y-141424785D01*
X111824173Y-141216607D01*
X111924063Y-140988881D01*
X111985108Y-140747821D01*
X112005643Y-140500000D01*
X111994804Y-140369197D01*
X111985109Y-140252187D01*
X111985107Y-140252175D01*
X111924062Y-140011114D01*
X111922399Y-140006271D01*
X111923471Y-140005902D01*
X111915269Y-139942076D01*
X111945243Y-139878962D01*
X112004581Y-139842073D01*
X112048532Y-139838032D01*
X112231595Y-139854048D01*
X112249999Y-139855659D01*
X112250000Y-139855659D01*
X112250001Y-139855659D01*
X112294130Y-139851798D01*
X112485408Y-139835063D01*
X112713663Y-139773903D01*
X112927830Y-139674035D01*
X113121401Y-139538495D01*
X113288495Y-139371401D01*
X113398425Y-139214405D01*
X113453002Y-139170780D01*
X113522500Y-139163586D01*
X113584855Y-139195109D01*
X113601575Y-139214405D01*
X113626721Y-139250318D01*
X113711505Y-139371401D01*
X113878599Y-139538495D01*
X113975384Y-139606265D01*
X114072165Y-139674032D01*
X114072167Y-139674033D01*
X114072170Y-139674035D01*
X114286337Y-139773903D01*
X114286343Y-139773904D01*
X114286344Y-139773905D01*
X114324494Y-139784127D01*
X114514592Y-139835063D01*
X114702918Y-139851539D01*
X114749999Y-139855659D01*
X114750000Y-139855659D01*
X114750001Y-139855659D01*
X114766863Y-139854183D01*
X114951465Y-139838032D01*
X115019962Y-139851798D01*
X115070145Y-139900413D01*
X115086079Y-139968442D01*
X115077088Y-140006100D01*
X115077600Y-140006276D01*
X115075936Y-140011120D01*
X115014892Y-140252175D01*
X115014890Y-140252187D01*
X114994357Y-140499994D01*
X114994357Y-140500005D01*
X115014890Y-140747812D01*
X115014892Y-140747824D01*
X115075936Y-140988881D01*
X115175826Y-141216606D01*
X115311833Y-141424782D01*
X115311836Y-141424785D01*
X115480256Y-141607738D01*
X115676491Y-141760474D01*
X115895190Y-141878828D01*
X116130386Y-141959571D01*
X116375665Y-142000500D01*
X116624335Y-142000500D01*
X116869614Y-141959571D01*
X117104810Y-141878828D01*
X117323509Y-141760474D01*
X117519744Y-141607738D01*
X117688164Y-141424785D01*
X117824173Y-141216607D01*
X117924063Y-140988881D01*
X117985108Y-140747821D01*
X118005643Y-140500000D01*
X117994804Y-140369197D01*
X117985109Y-140252187D01*
X117985107Y-140252175D01*
X117924063Y-140011118D01*
X117824173Y-139783393D01*
X117688166Y-139575217D01*
X117654359Y-139538493D01*
X117519744Y-139392262D01*
X117323509Y-139239526D01*
X117323507Y-139239525D01*
X117323506Y-139239524D01*
X117104811Y-139121172D01*
X117104802Y-139121169D01*
X116869616Y-139040429D01*
X116624335Y-138999500D01*
X116375665Y-138999500D01*
X116187440Y-139030908D01*
X116118075Y-139022526D01*
X116064253Y-138977973D01*
X116043063Y-138911394D01*
X116047256Y-138876506D01*
X116085063Y-138735408D01*
X116105659Y-138500000D01*
X116085063Y-138264592D01*
X116023903Y-138036337D01*
X115924035Y-137822171D01*
X115888024Y-137770741D01*
X115788494Y-137628597D01*
X115621402Y-137461506D01*
X115621395Y-137461501D01*
X115427834Y-137325967D01*
X115427830Y-137325965D01*
X115213663Y-137226097D01*
X115213659Y-137226096D01*
X115213655Y-137226094D01*
X114985413Y-137164938D01*
X114985403Y-137164936D01*
X114750001Y-137144341D01*
X114749999Y-137144341D01*
X114514590Y-137164937D01*
X114514589Y-137164937D01*
X114442008Y-137184384D01*
X114372158Y-137182720D01*
X114322236Y-137152290D01*
X114032127Y-136862181D01*
X113998642Y-136800858D01*
X114003626Y-136731166D01*
X114045498Y-136675233D01*
X114110962Y-136650816D01*
X114119808Y-136650500D01*
X118225500Y-136650500D01*
X118292539Y-136670185D01*
G37*
%TD.AperFunction*%
%TA.AperFunction,Conductor*%
G36*
X136905743Y-151329366D02*
G01*
X136944115Y-151387756D01*
X136949500Y-151423902D01*
X136949500Y-158019987D01*
X136929815Y-158087026D01*
X136877011Y-158132781D01*
X136807853Y-158142725D01*
X136759461Y-158121814D01*
X136758158Y-158123889D01*
X136599521Y-158024210D01*
X136429255Y-157964632D01*
X136429246Y-157964630D01*
X136422012Y-157963815D01*
X136357600Y-157936744D01*
X136348223Y-157928277D01*
X132686819Y-154266873D01*
X132653334Y-154205550D01*
X132650500Y-154179192D01*
X132650500Y-152635928D01*
X132625502Y-152510261D01*
X132625501Y-152510260D01*
X132625501Y-152510256D01*
X132589580Y-152423535D01*
X132576466Y-152391874D01*
X132562787Y-152371402D01*
X132505278Y-152285332D01*
X132505272Y-152285325D01*
X132082127Y-151862181D01*
X132048642Y-151800858D01*
X132053626Y-151731167D01*
X132095497Y-151675233D01*
X132160962Y-151650816D01*
X132169808Y-151650500D01*
X135494932Y-151650500D01*
X135560904Y-151669506D01*
X135650477Y-151725789D01*
X135650481Y-151725790D01*
X135820737Y-151785366D01*
X135820743Y-151785367D01*
X135820745Y-151785368D01*
X135820746Y-151785368D01*
X135820750Y-151785369D01*
X135999996Y-151805565D01*
X136000000Y-151805565D01*
X136000004Y-151805565D01*
X136179249Y-151785369D01*
X136179252Y-151785368D01*
X136179255Y-151785368D01*
X136349522Y-151725789D01*
X136502262Y-151629816D01*
X136629816Y-151502262D01*
X136720506Y-151357930D01*
X136772841Y-151311639D01*
X136841895Y-151300991D01*
X136905743Y-151329366D01*
G37*
%TD.AperFunction*%
%TD*%
M02*
