M48
; DRILL file {KiCad 8.0.1} date 2024-07-30T21:31:49-0500
; FORMAT={-:-/ absolute / metric / decimal}
; #@! TF.CreationDate,2024-07-30T21:31:49-05:00
; #@! TF.GenerationSoftware,Kicad,Pcbnew,8.0.1
; #@! TF.FileFunction,Plated,1,2,PTH
FMAT,2
METRIC
; #@! TA.AperFunction,Plated,PTH,ViaDrill
T1C0.300
; #@! TA.AperFunction,Plated,PTH,ComponentDrill
T2C0.700
; #@! TA.AperFunction,Plated,PTH,ComponentDrill
T3C0.800
; #@! TA.AperFunction,Plated,PTH,ComponentDrill
T4C0.900
; #@! TA.AperFunction,Plated,PTH,ComponentDrill
T5C1.000
; #@! TA.AperFunction,Plated,PTH,ComponentDrill
T6C1.100
; #@! TA.AperFunction,Plated,PTH,ComponentDrill
T7C1.200
; #@! TA.AperFunction,Plated,PTH,ComponentDrill
T8C1.300
; #@! TA.AperFunction,Plated,PTH,ComponentDrill
T9C1.400
; #@! TA.AperFunction,Plated,PTH,ComponentDrill
T10C3.500
%
G90
G05
T1
X110.8Y-168.1
X111.0Y-76.3
X111.1Y-81.3
X111.1Y-144.6
X111.2Y-110.7
X111.4Y-87.8
X111.6Y-185.4
X111.8Y-178.5
X115.8Y-124.9
X117.0Y-168.0
X117.2Y-146.6
X117.5Y-155.3
X118.0Y-165.2
X118.1Y-120.3
X118.4Y-110.3
X118.69Y-79.79
X118.8Y-101.2
X118.9Y-87.3
X119.0Y-132.5
X119.0Y-136.0
X119.7Y-118.7
X121.6Y-78.5
X121.8Y-119.8
X121.9Y-117.8
X122.7Y-151.1
X122.9Y-160.6
X122.9Y-178.2
X122.94Y-143.95
X123.0Y-153.0
X123.1Y-108.7
X123.2Y-146.2
X123.4Y-184.5
X123.6Y-143.0
X123.9Y-100.5
X124.1Y-93.5
X124.1Y-127.0
X124.4Y-149.3
X124.6Y-169.9
X125.1Y-165.0
X125.8Y-87.5
X126.2Y-158.3
X127.0Y-130.8
X127.1Y-97.6
X127.5Y-135.3
X127.6Y-136.8
X127.6Y-143.0
X129.7Y-161.6
X130.7Y-146.4
X130.7Y-148.1
X130.9Y-90.9
X130.9Y-155.5
X131.1Y-130.2
X132.7Y-181.4
X132.9Y-173.0
X133.0Y-141.5
X133.2Y-87.1
X134.2Y-149.2
X134.3Y-112.3
X135.4Y-161.8
X135.6Y-104.2
X135.8Y-168.9
X136.0Y-151.0
X136.0Y-155.5
X136.25Y-158.75
X136.3Y-189.1
X136.6Y-81.0
X137.1Y-99.9
X137.2Y-76.6
X137.4Y-176.4
X137.5Y-166.5
X137.6Y-159.9
X138.1Y-90.9
X138.8Y-152.7
X138.8Y-155.5
T2
X135.355Y-115.475
X135.355Y-119.285
X135.355Y-123.095
X135.355Y-126.905
X135.355Y-130.715
X135.355Y-134.525
T3
X113.3Y-165.395
X113.3Y-167.895
X117.0Y-113.7
X117.0Y-116.2
X128.3Y-113.305
X128.3Y-115.805
X133.8Y-163.46
X133.8Y-166.0
X133.8Y-168.54
X135.1Y-141.52
X135.1Y-144.06
X135.1Y-146.6
T4
X112.25Y-130.5
X112.25Y-134.5
X112.25Y-138.5
X112.332Y-151.5
X112.332Y-155.5
X112.332Y-159.5
X114.0Y-77.25
X114.0Y-79.79
X114.0Y-118.75
X114.0Y-121.29
X114.75Y-130.5
X114.75Y-134.5
X114.75Y-138.5
X114.832Y-151.5
X114.832Y-155.5
X114.832Y-159.5
T5
X115.5Y-84.368
X115.5Y-89.368
T6
X123.5Y-116.42
X123.5Y-118.96
X123.5Y-121.5
X133.59Y-91.02
X133.59Y-93.56
X133.59Y-96.1
T7
X110.5Y-128.5
X110.5Y-140.5
X110.582Y-149.5
X110.582Y-161.5
X116.5Y-128.5
X116.5Y-140.5
X116.582Y-149.5
X116.582Y-161.5
T8
X113.0Y-96.0
X113.0Y-101.0
X113.0Y-106.0
T9
X113.275Y-173.385
X113.275Y-189.615
X119.625Y-173.385
X119.625Y-189.615
X125.975Y-173.385
X125.975Y-189.615
T10
X129.3Y-81.2
X129.3Y-106.6
M30
