%TF.GenerationSoftware,KiCad,Pcbnew,8.0.1*%
%TF.CreationDate,2024-07-30T21:31:35-05:00*%
%TF.ProjectId,expression-pedal-to-pwm,65787072-6573-4736-996f-6e2d70656461,rev?*%
%TF.SameCoordinates,Original*%
%TF.FileFunction,Soldermask,Top*%
%TF.FilePolarity,Negative*%
%FSLAX46Y46*%
G04 Gerber Fmt 4.6, Leading zero omitted, Abs format (unit mm)*
G04 Created by KiCad (PCBNEW 8.0.1) date 2024-07-30 21:31:35*
%MOMM*%
%LPD*%
G01*
G04 APERTURE LIST*
G04 Aperture macros list*
%AMRoundRect*
0 Rectangle with rounded corners*
0 $1 Rounding radius*
0 $2 $3 $4 $5 $6 $7 $8 $9 X,Y pos of 4 corners*
0 Add a 4 corners polygon primitive as box body*
4,1,4,$2,$3,$4,$5,$6,$7,$8,$9,$2,$3,0*
0 Add four circle primitives for the rounded corners*
1,1,$1+$1,$2,$3*
1,1,$1+$1,$4,$5*
1,1,$1+$1,$6,$7*
1,1,$1+$1,$8,$9*
0 Add four rect primitives between the rounded corners*
20,1,$1+$1,$2,$3,$4,$5,0*
20,1,$1+$1,$4,$5,$6,$7,0*
20,1,$1+$1,$6,$7,$8,$9,0*
20,1,$1+$1,$8,$9,$2,$3,0*%
G04 Aperture macros list end*
%ADD10RoundRect,0.237500X0.300000X0.237500X-0.300000X0.237500X-0.300000X-0.237500X0.300000X-0.237500X0*%
%ADD11RoundRect,0.237500X-0.250000X-0.237500X0.250000X-0.237500X0.250000X0.237500X-0.250000X0.237500X0*%
%ADD12RoundRect,0.237500X0.237500X-0.250000X0.237500X0.250000X-0.237500X0.250000X-0.237500X-0.250000X0*%
%ADD13RoundRect,0.250000X-0.800000X0.450000X-0.800000X-0.450000X0.800000X-0.450000X0.800000X0.450000X0*%
%ADD14RoundRect,0.250000X1.000000X0.650000X-1.000000X0.650000X-1.000000X-0.650000X1.000000X-0.650000X0*%
%ADD15RoundRect,0.237500X-0.237500X0.300000X-0.237500X-0.300000X0.237500X-0.300000X0.237500X0.300000X0*%
%ADD16RoundRect,0.237500X-0.300000X-0.237500X0.300000X-0.237500X0.300000X0.237500X-0.300000X0.237500X0*%
%ADD17C,2.340000*%
%ADD18RoundRect,0.237500X-0.237500X0.250000X-0.237500X-0.250000X0.237500X-0.250000X0.237500X0.250000X0*%
%ADD19RoundRect,0.237500X0.237500X-0.300000X0.237500X0.300000X-0.237500X0.300000X-0.237500X-0.300000X0*%
%ADD20RoundRect,0.237500X0.250000X0.237500X-0.250000X0.237500X-0.250000X-0.237500X0.250000X-0.237500X0*%
%ADD21R,2.000000X2.000000*%
%ADD22C,2.000000*%
%ADD23RoundRect,0.250000X-1.000000X-0.650000X1.000000X-0.650000X1.000000X0.650000X-1.000000X0.650000X0*%
%ADD24R,1.400000X1.400000*%
%ADD25C,1.400000*%
%ADD26C,1.440000*%
%ADD27C,6.000000*%
%ADD28RoundRect,0.150000X-0.825000X-0.150000X0.825000X-0.150000X0.825000X0.150000X-0.825000X0.150000X0*%
%ADD29R,1.800000X1.800000*%
%ADD30C,1.800000*%
%ADD31C,3.000000*%
%ADD32R,2.000000X1.905000*%
%ADD33O,2.000000X1.905000*%
%ADD34R,1.600000X1.600000*%
%ADD35C,1.600000*%
%ADD36C,1.700000*%
G04 APERTURE END LIST*
D10*
%TO.C,C10*%
X126062500Y-155100000D03*
X124337500Y-155100000D03*
%TD*%
D11*
%TO.C,R2*%
X127587500Y-147900000D03*
X129412500Y-147900000D03*
%TD*%
D12*
%TO.C,R4*%
X126000000Y-147912500D03*
X126000000Y-146087500D03*
%TD*%
D13*
%TO.C,D1*%
X129500000Y-119000000D03*
X129500000Y-123400000D03*
%TD*%
D14*
%TO.C,D4*%
X125000000Y-139500000D03*
X121000000Y-139500000D03*
%TD*%
D15*
%TO.C,C4*%
X125900000Y-117537500D03*
X125900000Y-119262500D03*
%TD*%
D16*
%TO.C,C7*%
X136037500Y-154200000D03*
X137762500Y-154200000D03*
%TD*%
D17*
%TO.C,RV3*%
X113000000Y-96000000D03*
X113000000Y-101000000D03*
X113000000Y-106000000D03*
%TD*%
D18*
%TO.C,R3*%
X126000000Y-151087500D03*
X126000000Y-152912500D03*
%TD*%
D19*
%TO.C,C2*%
X125900000Y-122600000D03*
X125900000Y-120875000D03*
%TD*%
D20*
%TO.C,R9*%
X118300000Y-77300000D03*
X116475000Y-77300000D03*
%TD*%
%TO.C,R8*%
X118212500Y-118700000D03*
X116387500Y-118700000D03*
%TD*%
D21*
%TO.C,C11*%
X115500000Y-89367677D03*
D22*
X115500000Y-84367677D03*
%TD*%
D16*
%TO.C,C6*%
X136037500Y-156800000D03*
X137762500Y-156800000D03*
%TD*%
D23*
%TO.C,D3*%
X123000000Y-167000000D03*
X127000000Y-167000000D03*
%TD*%
D12*
%TO.C,R6*%
X137200000Y-98125000D03*
X137200000Y-96300000D03*
%TD*%
D24*
%TO.C,J5*%
X135355000Y-115475000D03*
D25*
X135355000Y-119285000D03*
X135355000Y-123095000D03*
X135355000Y-126905000D03*
X135355000Y-130715000D03*
X135355000Y-134525000D03*
%TD*%
D26*
%TO.C,RV2*%
X135100000Y-146600000D03*
X135100000Y-144060000D03*
X135100000Y-141520000D03*
%TD*%
D27*
%TO.C,HS1*%
X129300000Y-81200000D03*
X129300000Y-106600000D03*
%TD*%
D28*
%TO.C,U1*%
X128525000Y-151690000D03*
X128525000Y-152960000D03*
X128525000Y-154230000D03*
X128525000Y-155500000D03*
X128525000Y-156770000D03*
X128525000Y-158040000D03*
X128525000Y-159310000D03*
X133475000Y-159310000D03*
X133475000Y-158040000D03*
X133475000Y-156770000D03*
X133475000Y-155500000D03*
X133475000Y-154230000D03*
X133475000Y-152960000D03*
X133475000Y-151690000D03*
%TD*%
D29*
%TO.C,D9*%
X114000000Y-77250000D03*
D30*
X114000000Y-79790000D03*
%TD*%
D31*
%TO.C,J4*%
X119625000Y-189615000D03*
X119625000Y-173385000D03*
X113275000Y-189615000D03*
X113275000Y-173385000D03*
X125975000Y-189615000D03*
X125975000Y-173385000D03*
%TD*%
D10*
%TO.C,C8*%
X126100000Y-156800000D03*
X124375000Y-156800000D03*
%TD*%
D20*
%TO.C,R5*%
X129412500Y-146300000D03*
X127587500Y-146300000D03*
%TD*%
D14*
%TO.C,D2*%
X127000000Y-162800000D03*
X123000000Y-162800000D03*
%TD*%
D32*
%TO.C,Q1*%
X133590000Y-96100000D03*
D33*
X133590000Y-93560000D03*
X133590000Y-91020000D03*
%TD*%
D34*
%TO.C,C9*%
X113300000Y-165394888D03*
D35*
X113300000Y-167894888D03*
%TD*%
D18*
%TO.C,R7*%
X129500000Y-168487500D03*
X129500000Y-170312500D03*
%TD*%
D19*
%TO.C,C5*%
X124500000Y-152862500D03*
X124500000Y-151137500D03*
%TD*%
D22*
%TO.C,SW2*%
X116582500Y-149500000D03*
X110582500Y-149500000D03*
X116582500Y-161500000D03*
X110582500Y-161500000D03*
D36*
X114832500Y-151500000D03*
X114832500Y-155500000D03*
X114832500Y-159500000D03*
X112332500Y-151500000D03*
X112332500Y-155500000D03*
X112332500Y-159500000D03*
%TD*%
D23*
%TO.C,D7*%
X121000000Y-129000000D03*
X125000000Y-129000000D03*
%TD*%
D34*
%TO.C,C1*%
X128300000Y-115805113D03*
D35*
X128300000Y-113305113D03*
%TD*%
D22*
%TO.C,SW1*%
X116500000Y-128500000D03*
X110500000Y-128500000D03*
X116500000Y-140500000D03*
X110500000Y-140500000D03*
D36*
X114750000Y-130500000D03*
X114750000Y-134500000D03*
X114750000Y-138500000D03*
X112250000Y-130500000D03*
X112250000Y-134500000D03*
X112250000Y-138500000D03*
%TD*%
D32*
%TO.C,U2*%
X123500000Y-121500000D03*
D33*
X123500000Y-118960000D03*
X123500000Y-116420000D03*
%TD*%
D23*
%TO.C,D5*%
X121000000Y-136000000D03*
X125000000Y-136000000D03*
%TD*%
D26*
%TO.C,RV1*%
X133800000Y-163460000D03*
X133800000Y-166000000D03*
X133800000Y-168540000D03*
%TD*%
D29*
%TO.C,D8*%
X114000000Y-118750000D03*
D30*
X114000000Y-121290000D03*
%TD*%
D14*
%TO.C,D6*%
X125000000Y-132500000D03*
X121000000Y-132500000D03*
%TD*%
D20*
%TO.C,R1*%
X129412500Y-149500000D03*
X127587500Y-149500000D03*
%TD*%
D34*
%TO.C,C3*%
X117000000Y-113700000D03*
D35*
X117000000Y-116200000D03*
%TD*%
M02*
