%TF.GenerationSoftware,KiCad,Pcbnew,8.0.1*%
%TF.CreationDate,2024-07-30T21:31:35-05:00*%
%TF.ProjectId,expression-pedal-to-pwm,65787072-6573-4736-996f-6e2d70656461,rev?*%
%TF.SameCoordinates,Original*%
%TF.FileFunction,Soldermask,Bot*%
%TF.FilePolarity,Negative*%
%FSLAX46Y46*%
G04 Gerber Fmt 4.6, Leading zero omitted, Abs format (unit mm)*
G04 Created by KiCad (PCBNEW 8.0.1) date 2024-07-30 21:31:35*
%MOMM*%
%LPD*%
G01*
G04 APERTURE LIST*
%ADD10C,2.340000*%
%ADD11R,2.000000X2.000000*%
%ADD12C,2.000000*%
%ADD13R,1.400000X1.400000*%
%ADD14C,1.400000*%
%ADD15C,1.440000*%
%ADD16C,6.000000*%
%ADD17R,1.800000X1.800000*%
%ADD18C,1.800000*%
%ADD19C,3.000000*%
%ADD20R,2.000000X1.905000*%
%ADD21O,2.000000X1.905000*%
%ADD22R,1.600000X1.600000*%
%ADD23C,1.600000*%
%ADD24C,1.700000*%
G04 APERTURE END LIST*
D10*
%TO.C,RV3*%
X113000000Y-96000000D03*
X113000000Y-101000000D03*
X113000000Y-106000000D03*
%TD*%
D11*
%TO.C,C11*%
X115500000Y-89367677D03*
D12*
X115500000Y-84367677D03*
%TD*%
D13*
%TO.C,J5*%
X135355000Y-115475000D03*
D14*
X135355000Y-119285000D03*
X135355000Y-123095000D03*
X135355000Y-126905000D03*
X135355000Y-130715000D03*
X135355000Y-134525000D03*
%TD*%
D15*
%TO.C,RV2*%
X135100000Y-146600000D03*
X135100000Y-144060000D03*
X135100000Y-141520000D03*
%TD*%
D16*
%TO.C,HS1*%
X129300000Y-81200000D03*
X129300000Y-106600000D03*
%TD*%
D17*
%TO.C,D9*%
X114000000Y-77250000D03*
D18*
X114000000Y-79790000D03*
%TD*%
D19*
%TO.C,J4*%
X119625000Y-189615000D03*
X119625000Y-173385000D03*
X113275000Y-189615000D03*
X113275000Y-173385000D03*
X125975000Y-189615000D03*
X125975000Y-173385000D03*
%TD*%
D20*
%TO.C,Q1*%
X133590000Y-96100000D03*
D21*
X133590000Y-93560000D03*
X133590000Y-91020000D03*
%TD*%
D22*
%TO.C,C9*%
X113300000Y-165394888D03*
D23*
X113300000Y-167894888D03*
%TD*%
D12*
%TO.C,SW2*%
X116582500Y-149500000D03*
X110582500Y-149500000D03*
X116582500Y-161500000D03*
X110582500Y-161500000D03*
D24*
X114832500Y-151500000D03*
X114832500Y-155500000D03*
X114832500Y-159500000D03*
X112332500Y-151500000D03*
X112332500Y-155500000D03*
X112332500Y-159500000D03*
%TD*%
D22*
%TO.C,C1*%
X128300000Y-115805113D03*
D23*
X128300000Y-113305113D03*
%TD*%
D12*
%TO.C,SW1*%
X116500000Y-128500000D03*
X110500000Y-128500000D03*
X116500000Y-140500000D03*
X110500000Y-140500000D03*
D24*
X114750000Y-130500000D03*
X114750000Y-134500000D03*
X114750000Y-138500000D03*
X112250000Y-130500000D03*
X112250000Y-134500000D03*
X112250000Y-138500000D03*
%TD*%
D20*
%TO.C,U2*%
X123500000Y-121500000D03*
D21*
X123500000Y-118960000D03*
X123500000Y-116420000D03*
%TD*%
D15*
%TO.C,RV1*%
X133800000Y-163460000D03*
X133800000Y-166000000D03*
X133800000Y-168540000D03*
%TD*%
D17*
%TO.C,D8*%
X114000000Y-118750000D03*
D18*
X114000000Y-121290000D03*
%TD*%
D22*
%TO.C,C3*%
X117000000Y-113700000D03*
D23*
X117000000Y-116200000D03*
%TD*%
M02*
