%
M48
M72
T01C0.0400
T02C0.1570
%
T01
X2180Y6430
X2180Y7430
X2180Y8430
X2180Y9430
X2180Y10430
X3180Y10430
X3180Y9430
X3180Y8430
X3180Y7430
X3180Y6430
X5430Y6430
X5430Y7430
X5430Y8430
X5430Y9430
X5430Y10430
X6430Y10430
X6430Y9430
X6430Y8430
X6430Y7430
X6430Y6430
X6430Y13430
X6430Y14430
X6430Y15430
X6430Y16430
X6430Y17430
X5430Y17430
X5430Y16430
X5430Y15430
X5430Y14430
X5430Y13430
X3180Y13430
X3180Y14430
X3180Y15430
X3180Y16430
X3180Y17430
X2180Y17430
X2180Y16430
X2180Y15430
X2180Y14430
X2180Y13430
X2180Y20430
X2180Y21430
X2180Y22430
X2180Y23430
X2180Y24430
X3180Y24430
X3180Y23430
X3180Y22430
X3180Y21430
X3180Y20430
X5430Y20430
X5430Y21430
X5430Y22430
X5430Y23430
X5430Y24430
X6430Y24430
X6430Y23430
X6430Y22430
X6430Y21430
X6430Y20430
X6430Y27430
X6430Y28430
X6430Y29430
X6430Y30430
X6430Y31430
X5430Y31430
X5430Y30430
X5430Y29430
X5430Y28430
X5430Y27430
X3180Y27430
X3180Y28430
X3180Y29430
X3180Y30430
X3180Y31430
X2180Y31430
X2180Y30430
X2180Y29430
X2180Y28430
X2180Y27430
X2180Y34430
X2180Y35430
X2180Y36430
X2180Y37430
X2180Y38430
X3180Y38430
X3180Y37430
X3180Y36430
X3180Y35430
X3180Y34430
X5430Y34430
X5430Y35430
X5430Y36430
X5430Y37430
X5430Y38430
X6430Y38430
X6430Y37430
X6430Y36430
X6430Y35430
X6430Y34430
X15430Y34430
X15430Y35430
X15430Y36430
X15430Y37430
X15430Y38430
X16430Y38430
X16430Y37430
X16430Y36430
X16430Y35430
X16430Y34430
X16430Y31430
X16430Y30430
X16430Y29430
X16430Y28430
X16430Y27430
X15430Y27430
X15430Y28430
X15430Y29430
X15430Y30430
X15430Y31430
X15430Y24430
X15430Y23430
X15430Y22430
X15430Y21430
X15430Y20430
X16430Y20430
X16430Y21430
X16430Y22430
X16430Y23430
X16430Y24430
X16430Y17430
X16430Y16430
X16430Y15430
X16430Y14430
X16430Y13430
X15430Y13430
X15430Y14430
X15430Y15430
X15430Y16430
X15430Y17430
X15430Y10430
X15430Y9430
X15430Y8430
X15430Y7430
X15430Y6430
X16430Y6430
X16430Y7430
X16430Y8430
X16430Y9430
X16430Y10430
X26430Y10430
X26430Y9430
X26430Y8430
X26430Y7430
X26430Y6430
X27430Y6430
X27430Y7430
X27430Y8430
X27430Y9430
X27430Y10430
X27430Y13430
X27430Y14430
X27430Y15430
X27430Y16430
X27430Y17430
X26430Y17430
X26430Y16430
X26430Y15430
X26430Y14430
X26430Y13430
X26430Y20430
X26430Y21430
X26430Y22430
X26430Y23430
X26430Y24430
X27430Y24430
X27430Y23430
X27430Y22430
X27430Y21430
X27430Y20430
X27430Y27430
X27430Y28430
X27430Y29430
X27430Y30430
X27430Y31430
X26430Y31430
X26430Y30430
X26430Y29430
X26430Y28430
X26430Y27430
X26430Y34430
X26430Y35430
X26430Y36430
X26430Y37430
X26430Y38430
X27430Y38430
X27430Y37430
X27430Y36430
X27430Y35430
X27430Y34430
X36430Y34430
X36430Y35430
X36430Y36430
X36430Y37430
X36430Y38430
X37430Y38430
X37430Y37430
X37430Y36430
X37430Y35430
X37430Y34430
X39680Y34430
X39680Y35430
X39680Y36430
X39680Y37430
X39680Y38430
X40680Y38430
X40680Y37430
X40680Y36430
X40680Y35430
X40680Y34430
X40680Y31430
X40680Y30430
X40680Y29430
X40680Y28430
X40680Y27430
X39680Y27430
X39680Y28430
X39680Y29430
X39680Y30430
X39680Y31430
X37430Y31430
X37430Y30430
X37430Y29430
X37430Y28430
X37430Y27430
X36430Y27430
X36430Y28430
X36430Y29430
X36430Y30430
X36430Y31430
X36430Y24430
X36430Y23430
X36430Y22430
X36430Y21430
X36430Y20430
X37430Y20430
X37430Y21430
X37430Y22430
X37430Y23430
X37430Y24430
X39680Y24430
X39680Y23430
X39680Y22430
X39680Y21430
X39680Y20430
X40680Y20430
X40680Y21430
X40680Y22430
X40680Y23430
X40680Y24430
X40680Y17430
X40680Y16430
X40680Y15430
X40680Y14430
X40680Y13430
X39680Y13430
X39680Y14430
X39680Y15430
X39680Y16430
X39680Y17430
X37430Y17430
X37430Y16430
X37430Y15430
X37430Y14430
X37430Y13430
X36430Y13430
X36430Y14430
X36430Y15430
X36430Y16430
X36430Y17430
X36430Y10430
X36430Y9430
X36430Y8430
X36430Y7430
X36430Y6430
X37430Y6430
X37430Y7430
X37430Y8430
X37430Y9430
X37430Y10430
X39680Y10430
X39680Y9430
X39680Y8430
X39680Y7430
X39680Y6430
X40680Y6430
X40680Y7430
X40680Y8430
X40680Y9430
X40680Y10430
T02
X31930Y8430
X31930Y15430
X31930Y22430
X31930Y29430
X31930Y36430
X21430Y36430
X21430Y29430
X21430Y22430
X21430Y15430
X21430Y8430
X10930Y8430
X10930Y15430
X10930Y22430
X10930Y29430
X10930Y36430
M30
