G75*
%MOIN*%
%OFA0B0*%
%FSLAX24Y24*%
%IPPOS*%
%LPD*%
%AMOC8*
5,1,8,0,0,1.08239X$1,22.5*
%
%ADD10R,3.8500X0.2000*%
%ADD11R,3.9250X0.4750*%
%ADD12OC8,0.0600*%
%ADD13C,0.0400*%
D10*
X021430Y008430D03*
X021430Y015430D03*
X021430Y022430D03*
X021430Y029430D03*
X021430Y036430D03*
D11*
X021305Y042305D03*
D12*
X002180Y006430D03*
X002180Y007430D03*
X002180Y008430D03*
X002180Y009430D03*
X002180Y010430D03*
X003180Y010430D03*
X003180Y009430D03*
X003180Y008430D03*
X003180Y007430D03*
X003180Y006430D03*
X005430Y006430D03*
X005430Y007430D03*
X005430Y008430D03*
X005430Y009430D03*
X005430Y010430D03*
X006430Y010430D03*
X006430Y009430D03*
X006430Y008430D03*
X006430Y007430D03*
X006430Y006430D03*
X006430Y013430D03*
X006430Y014430D03*
X006430Y015430D03*
X006430Y016430D03*
X006430Y017430D03*
X005430Y017430D03*
X005430Y016430D03*
X005430Y015430D03*
X005430Y014430D03*
X005430Y013430D03*
X003180Y013430D03*
X003180Y014430D03*
X003180Y015430D03*
X003180Y016430D03*
X003180Y017430D03*
X002180Y017430D03*
X002180Y016430D03*
X002180Y015430D03*
X002180Y014430D03*
X002180Y013430D03*
X002180Y020430D03*
X002180Y021430D03*
X002180Y022430D03*
X002180Y023430D03*
X002180Y024430D03*
X003180Y024430D03*
X003180Y023430D03*
X003180Y022430D03*
X003180Y021430D03*
X003180Y020430D03*
X005430Y020430D03*
X005430Y021430D03*
X005430Y022430D03*
X005430Y023430D03*
X005430Y024430D03*
X006430Y024430D03*
X006430Y023430D03*
X006430Y022430D03*
X006430Y021430D03*
X006430Y020430D03*
X006430Y027430D03*
X006430Y028430D03*
X006430Y029430D03*
X006430Y030430D03*
X006430Y031430D03*
X005430Y031430D03*
X005430Y030430D03*
X005430Y029430D03*
X005430Y028430D03*
X005430Y027430D03*
X003180Y027430D03*
X003180Y028430D03*
X003180Y029430D03*
X003180Y030430D03*
X003180Y031430D03*
X002180Y031430D03*
X002180Y030430D03*
X002180Y029430D03*
X002180Y028430D03*
X002180Y027430D03*
X002180Y034430D03*
X002180Y035430D03*
X002180Y036430D03*
X002180Y037430D03*
X002180Y038430D03*
X003180Y038430D03*
X003180Y037430D03*
X003180Y036430D03*
X003180Y035430D03*
X003180Y034430D03*
X005430Y034430D03*
X005430Y035430D03*
X005430Y036430D03*
X005430Y037430D03*
X005430Y038430D03*
X006430Y038430D03*
X006430Y037430D03*
X006430Y036430D03*
X006430Y035430D03*
X006430Y034430D03*
X015430Y034430D03*
X015430Y035430D03*
X015430Y036430D03*
X015430Y037430D03*
X015430Y038430D03*
X016430Y038430D03*
X016430Y037430D03*
X016430Y036430D03*
X016430Y035430D03*
X016430Y034430D03*
X016430Y031430D03*
X016430Y030430D03*
X016430Y029430D03*
X016430Y028430D03*
X016430Y027430D03*
X015430Y027430D03*
X015430Y028430D03*
X015430Y029430D03*
X015430Y030430D03*
X015430Y031430D03*
X015430Y024430D03*
X015430Y023430D03*
X015430Y022430D03*
X015430Y021430D03*
X015430Y020430D03*
X016430Y020430D03*
X016430Y021430D03*
X016430Y022430D03*
X016430Y023430D03*
X016430Y024430D03*
X016430Y017430D03*
X016430Y016430D03*
X016430Y015430D03*
X016430Y014430D03*
X016430Y013430D03*
X015430Y013430D03*
X015430Y014430D03*
X015430Y015430D03*
X015430Y016430D03*
X015430Y017430D03*
X015430Y010430D03*
X015430Y009430D03*
X015430Y008430D03*
X015430Y007430D03*
X015430Y006430D03*
X016430Y006430D03*
X016430Y007430D03*
X016430Y008430D03*
X016430Y009430D03*
X016430Y010430D03*
X026430Y010430D03*
X026430Y009430D03*
X026430Y008430D03*
X026430Y007430D03*
X026430Y006430D03*
X027430Y006430D03*
X027430Y007430D03*
X027430Y008430D03*
X027430Y009430D03*
X027430Y010430D03*
X027430Y013430D03*
X027430Y014430D03*
X027430Y015430D03*
X027430Y016430D03*
X027430Y017430D03*
X026430Y017430D03*
X026430Y016430D03*
X026430Y015430D03*
X026430Y014430D03*
X026430Y013430D03*
X026430Y020430D03*
X026430Y021430D03*
X026430Y022430D03*
X026430Y023430D03*
X026430Y024430D03*
X027430Y024430D03*
X027430Y023430D03*
X027430Y022430D03*
X027430Y021430D03*
X027430Y020430D03*
X027430Y027430D03*
X027430Y028430D03*
X027430Y029430D03*
X027430Y030430D03*
X027430Y031430D03*
X026430Y031430D03*
X026430Y030430D03*
X026430Y029430D03*
X026430Y028430D03*
X026430Y027430D03*
X026430Y034430D03*
X026430Y035430D03*
X026430Y036430D03*
X026430Y037430D03*
X026430Y038430D03*
X027430Y038430D03*
X027430Y037430D03*
X027430Y036430D03*
X027430Y035430D03*
X027430Y034430D03*
X036430Y034430D03*
X036430Y035430D03*
X036430Y036430D03*
X036430Y037430D03*
X036430Y038430D03*
X037430Y038430D03*
X037430Y037430D03*
X037430Y036430D03*
X037430Y035430D03*
X037430Y034430D03*
X039680Y034430D03*
X039680Y035430D03*
X039680Y036430D03*
X039680Y037430D03*
X039680Y038430D03*
X040680Y038430D03*
X040680Y037430D03*
X040680Y036430D03*
X040680Y035430D03*
X040680Y034430D03*
X040680Y031430D03*
X040680Y030430D03*
X040680Y029430D03*
X040680Y028430D03*
X040680Y027430D03*
X039680Y027430D03*
X039680Y028430D03*
X039680Y029430D03*
X039680Y030430D03*
X039680Y031430D03*
X037430Y031430D03*
X037430Y030430D03*
X037430Y029430D03*
X037430Y028430D03*
X037430Y027430D03*
X036430Y027430D03*
X036430Y028430D03*
X036430Y029430D03*
X036430Y030430D03*
X036430Y031430D03*
X036430Y024430D03*
X036430Y023430D03*
X036430Y022430D03*
X036430Y021430D03*
X036430Y020430D03*
X037430Y020430D03*
X037430Y021430D03*
X037430Y022430D03*
X037430Y023430D03*
X037430Y024430D03*
X039680Y024430D03*
X039680Y023430D03*
X039680Y022430D03*
X039680Y021430D03*
X039680Y020430D03*
X040680Y020430D03*
X040680Y021430D03*
X040680Y022430D03*
X040680Y023430D03*
X040680Y024430D03*
X040680Y017430D03*
X040680Y016430D03*
X040680Y015430D03*
X040680Y014430D03*
X040680Y013430D03*
X039680Y013430D03*
X039680Y014430D03*
X039680Y015430D03*
X039680Y016430D03*
X039680Y017430D03*
X037430Y017430D03*
X037430Y016430D03*
X037430Y015430D03*
X037430Y014430D03*
X037430Y013430D03*
X036430Y013430D03*
X036430Y014430D03*
X036430Y015430D03*
X036430Y016430D03*
X036430Y017430D03*
X036430Y010430D03*
X036430Y009430D03*
X036430Y008430D03*
X036430Y007430D03*
X036430Y006430D03*
X037430Y006430D03*
X037430Y007430D03*
X037430Y008430D03*
X037430Y009430D03*
X037430Y010430D03*
X039680Y010430D03*
X039680Y009430D03*
X039680Y008430D03*
X039680Y007430D03*
X039680Y006430D03*
X040680Y006430D03*
X040680Y007430D03*
X040680Y008430D03*
X040680Y009430D03*
X040680Y010430D03*
D13*
X039680Y010430D01*
X037430Y010430D01*
X036430Y010430D01*
X027430Y010430D01*
X026430Y010430D01*
X016430Y010430D01*
X015430Y010430D01*
X005430Y010430D01*
X003180Y010430D01*
X002180Y010430D01*
X002180Y009430D02*
X002180Y007430D01*
X003180Y007430D01*
X003180Y009430D01*
X005430Y009430D01*
X005430Y007430D01*
X003180Y007430D01*
X003180Y006430D02*
X005430Y006430D01*
X006430Y006430D01*
X015430Y006430D01*
X016430Y006430D01*
X026430Y006430D01*
X027430Y006430D01*
X036430Y006430D01*
X037430Y006430D01*
X039680Y006430D01*
X040680Y006430D01*
X040680Y007430D02*
X039680Y007430D01*
X039680Y009430D01*
X040680Y009430D01*
X040680Y008430D01*
X040680Y007430D01*
X040680Y008430D02*
X039680Y008430D01*
X037430Y008430D01*
X036430Y008430D01*
X027430Y008430D01*
X026430Y008430D01*
X026430Y007430D02*
X026430Y009430D01*
X027430Y009430D01*
X027430Y007430D01*
X026430Y007430D01*
X016430Y007430D01*
X016430Y009430D01*
X026430Y009430D01*
X027430Y009430D02*
X036430Y009430D01*
X036430Y007430D01*
X027430Y007430D01*
X027430Y013430D02*
X026430Y013430D01*
X021430Y013430D01*
X016430Y013430D01*
X015430Y013430D01*
X006430Y013430D01*
X005430Y013430D01*
X003180Y013430D01*
X002180Y013430D01*
X002180Y014430D02*
X002180Y016430D01*
X003180Y016430D01*
X003180Y014430D01*
X002180Y014430D01*
X002180Y015430D02*
X003180Y015430D01*
X005430Y015430D01*
X006430Y015430D01*
X015430Y015430D01*
X016430Y015430D01*
X019430Y015430D01*
X023430Y015430D01*
X026430Y015430D01*
X027430Y015430D01*
X036430Y015430D01*
X037430Y015430D01*
X039680Y015430D01*
X040680Y015430D01*
X040680Y016430D01*
X039680Y016430D01*
X039680Y014430D01*
X037430Y014430D01*
X037430Y016430D01*
X039680Y016430D01*
X039680Y017430D02*
X040680Y017430D01*
X039680Y017430D02*
X037430Y017430D01*
X036430Y017430D01*
X027430Y017430D01*
X026430Y017430D01*
X021430Y017430D01*
X016430Y017430D01*
X015430Y017430D01*
X005430Y017430D01*
X003180Y017430D01*
X002180Y017430D01*
X003180Y016430D02*
X005430Y016430D01*
X005430Y014430D01*
X003180Y014430D01*
X005430Y014430D02*
X006430Y014430D01*
X006430Y016430D01*
X015430Y016430D01*
X015430Y014430D01*
X006430Y014430D01*
X006430Y016430D02*
X005430Y016430D01*
X005430Y017430D02*
X006430Y017430D01*
X006430Y021430D02*
X005430Y021430D01*
X005430Y023430D01*
X006430Y023430D01*
X006430Y021430D01*
X015430Y021430D01*
X015430Y023430D01*
X016430Y023430D01*
X016430Y021430D01*
X015430Y021430D01*
X016430Y021430D02*
X026430Y021430D01*
X026430Y023430D01*
X027430Y023430D01*
X027430Y021430D01*
X026430Y021430D01*
X027430Y021430D02*
X036430Y021430D01*
X036430Y023430D01*
X037430Y023430D01*
X037430Y021430D01*
X036430Y021430D01*
X037430Y021430D02*
X039680Y021430D01*
X039680Y023430D01*
X040680Y023430D01*
X040680Y022430D01*
X040680Y021430D01*
X039680Y021430D01*
X040680Y020430D02*
X002180Y020430D01*
X002180Y021430D02*
X002180Y023430D01*
X003180Y023430D01*
X003180Y021430D01*
X002180Y021430D01*
X002180Y022430D02*
X040680Y022430D01*
X039680Y023430D02*
X037430Y023430D01*
X036430Y023430D02*
X027430Y023430D01*
X026430Y023430D02*
X016430Y023430D01*
X015430Y023430D02*
X006430Y023430D01*
X005430Y023430D02*
X003180Y023430D01*
X002180Y024430D02*
X040680Y024430D01*
X040680Y027430D02*
X002180Y027430D01*
X002180Y028430D02*
X002180Y030430D01*
X003180Y030430D01*
X003180Y028430D01*
X002180Y028430D01*
X002180Y029430D02*
X040680Y029430D01*
X040680Y030430D01*
X039680Y030430D01*
X039680Y028430D01*
X037430Y028430D01*
X037430Y030430D01*
X039680Y030430D01*
X040680Y029430D02*
X040680Y028430D01*
X039680Y028430D01*
X037430Y028430D02*
X036430Y028430D01*
X036430Y030430D01*
X037430Y030430D01*
X036430Y030430D02*
X027430Y030430D01*
X027430Y028430D01*
X026430Y028430D01*
X026430Y030430D01*
X027430Y030430D01*
X026430Y030430D02*
X016430Y030430D01*
X016430Y028430D01*
X015430Y028430D01*
X015430Y030430D01*
X016430Y030430D01*
X015430Y030430D02*
X006430Y030430D01*
X006430Y028430D01*
X005430Y028430D01*
X005430Y030430D01*
X006430Y030430D01*
X005430Y030430D02*
X003180Y030430D01*
X002180Y031430D02*
X040680Y031430D01*
X040680Y034430D02*
X002180Y034430D01*
X002180Y035430D02*
X002180Y037430D01*
X003180Y037430D01*
X003180Y035430D01*
X002180Y035430D01*
X002180Y036430D02*
X040680Y036430D01*
X040680Y037430D01*
X039680Y037430D01*
X039680Y035430D01*
X037430Y035430D01*
X037430Y037430D01*
X039680Y037430D01*
X040680Y036430D02*
X040680Y035430D01*
X039680Y035430D01*
X037430Y035430D02*
X036430Y035430D01*
X036430Y037430D01*
X037430Y037430D01*
X036430Y037430D02*
X027430Y037430D01*
X027430Y035430D01*
X026430Y035430D01*
X026430Y037430D01*
X027430Y037430D01*
X026430Y037430D02*
X016430Y037430D01*
X016430Y035430D01*
X015430Y035430D01*
X015430Y037430D01*
X016430Y037430D01*
X015430Y037430D02*
X006430Y037430D01*
X006430Y035430D01*
X005430Y035430D01*
X005430Y037430D01*
X006430Y037430D01*
X005430Y037430D02*
X003180Y037430D01*
X002180Y038430D02*
X040680Y038430D01*
X036430Y035430D02*
X027430Y035430D01*
X026430Y035430D02*
X016430Y035430D01*
X015430Y035430D02*
X006430Y035430D01*
X005430Y035430D02*
X003180Y035430D01*
X003180Y028430D02*
X005430Y028430D01*
X006430Y028430D02*
X015430Y028430D01*
X016430Y028430D02*
X026430Y028430D01*
X027430Y028430D02*
X036430Y028430D01*
X036430Y016430D02*
X027430Y016430D01*
X027430Y014430D01*
X026430Y014430D01*
X026430Y016430D01*
X027430Y016430D01*
X026430Y016430D02*
X016430Y016430D01*
X016430Y014430D01*
X015430Y014430D01*
X016430Y014430D02*
X026430Y014430D01*
X027430Y014430D02*
X036430Y014430D01*
X036430Y016430D01*
X037430Y016430D01*
X037430Y014430D02*
X036430Y014430D01*
X036430Y013430D02*
X037430Y013430D01*
X039680Y013430D01*
X040680Y013430D01*
X040680Y014430D02*
X039680Y014430D01*
X040680Y014430D02*
X040680Y015430D01*
X036430Y013430D02*
X027430Y013430D01*
X036430Y009430D02*
X037430Y009430D01*
X037430Y007430D01*
X036430Y007430D01*
X037430Y007430D02*
X039680Y007430D01*
X039680Y009430D02*
X037430Y009430D01*
X016430Y009430D02*
X015430Y009430D01*
X015430Y007430D01*
X006430Y007430D01*
X006430Y009430D01*
X015430Y009430D01*
X015680Y009430D01*
X015430Y008430D02*
X016430Y008430D01*
X016430Y007430D02*
X015430Y007430D01*
X015430Y008430D02*
X006430Y008430D01*
X005430Y008430D01*
X003180Y008430D01*
X002180Y008430D01*
X002180Y009430D02*
X003180Y009430D01*
X005430Y009430D02*
X006430Y009430D01*
X006430Y010430D02*
X005430Y010430D01*
X005430Y007430D02*
X006430Y007430D01*
X003180Y006430D02*
X002180Y006430D01*
X003180Y021430D02*
X005430Y021430D01*
X015430Y016430D02*
X016430Y016430D01*
X015680Y016430D02*
X015430Y016430D01*
M02*
