G04 #@! TF.FileFunction,Soldermask,Bot*
%FSLAX46Y46*%
G04 Gerber Fmt 4.6, Leading zero omitted, Abs format (unit mm)*
G04 Created by KiCad (PCBNEW 4.0.6) date 07/25/17 22:42:55*
%MOMM*%
%LPD*%
G01*
G04 APERTURE LIST*
%ADD10C,0.100000*%
%ADD11R,1.600000X1.150000*%
%ADD12C,4.400000*%
%ADD13R,2.100000X2.100000*%
%ADD14O,2.100000X2.100000*%
%ADD15C,1.840000*%
%ADD16R,2.000000X2.000000*%
%ADD17O,2.000000X2.000000*%
%ADD18C,1.920000*%
%ADD19R,1.920000X1.920000*%
G04 APERTURE END LIST*
D10*
D11*
X104469000Y-116211000D03*
X106369000Y-116211000D03*
X54469000Y-116211000D03*
X56369000Y-116211000D03*
X104469000Y-66211000D03*
X106369000Y-66211000D03*
D12*
X122920000Y-130970000D03*
X72920000Y-130970000D03*
X122920000Y-80970000D03*
D13*
X113928000Y-119640000D03*
D14*
X113928000Y-117100000D03*
D13*
X63928000Y-119640000D03*
D14*
X63928000Y-117100000D03*
D13*
X113928000Y-69640000D03*
D14*
X113928000Y-67100000D03*
D15*
X125358000Y-104654000D03*
X125358000Y-107194000D03*
X125358000Y-109734000D03*
X75358000Y-104654000D03*
X75358000Y-107194000D03*
X75358000Y-109734000D03*
X125358000Y-54654000D03*
X125358000Y-57194000D03*
X125358000Y-59734000D03*
X125358000Y-114560000D03*
X125358000Y-117100000D03*
X125358000Y-119640000D03*
X75358000Y-114560000D03*
X75358000Y-117100000D03*
X75358000Y-119640000D03*
X125358000Y-64560000D03*
X125358000Y-67100000D03*
X125358000Y-69640000D03*
D16*
X121467000Y-106912000D03*
D17*
X113847000Y-114532000D03*
X118927000Y-106912000D03*
X116387000Y-114532000D03*
X116387000Y-106912000D03*
X118927000Y-114532000D03*
X113847000Y-106912000D03*
X121467000Y-114532000D03*
D16*
X71467000Y-106912000D03*
D17*
X63847000Y-114532000D03*
X68927000Y-106912000D03*
X66387000Y-114532000D03*
X66387000Y-106912000D03*
X68927000Y-114532000D03*
X63847000Y-106912000D03*
X71467000Y-114532000D03*
D16*
X121467000Y-56912000D03*
D17*
X113847000Y-64532000D03*
X118927000Y-56912000D03*
X116387000Y-64532000D03*
X116387000Y-56912000D03*
X118927000Y-64532000D03*
X113847000Y-56912000D03*
X121467000Y-64532000D03*
D13*
X85046000Y-88700000D03*
X35046000Y-88700000D03*
X85046000Y-38700000D03*
X92666000Y-88700000D03*
X42666000Y-88700000D03*
X92666000Y-38700000D03*
X90126000Y-88700000D03*
X40126000Y-88700000D03*
X90126000Y-38700000D03*
X87586000Y-88700000D03*
X37586000Y-88700000D03*
X87586000Y-38700000D03*
D18*
X101609000Y-94494000D03*
X99069000Y-94494000D03*
D19*
X104149000Y-94494000D03*
D18*
X51609000Y-94494000D03*
X49069000Y-94494000D03*
D19*
X54149000Y-94494000D03*
D18*
X101609000Y-44494000D03*
X99069000Y-44494000D03*
D19*
X104149000Y-44494000D03*
D13*
X100085000Y-87382000D03*
D14*
X102625000Y-87382000D03*
X105165000Y-87382000D03*
D13*
X50085000Y-87382000D03*
D14*
X52625000Y-87382000D03*
X55165000Y-87382000D03*
D13*
X100085000Y-37382000D03*
D14*
X102625000Y-37382000D03*
X105165000Y-37382000D03*
D13*
X100085000Y-89922000D03*
D14*
X102625000Y-89922000D03*
X105165000Y-89922000D03*
D13*
X50085000Y-89922000D03*
D14*
X52625000Y-89922000D03*
X55165000Y-89922000D03*
D13*
X100085000Y-39922000D03*
D14*
X102625000Y-39922000D03*
X105165000Y-39922000D03*
D12*
X124342000Y-89414000D03*
X74342000Y-89414000D03*
X124342000Y-39414000D03*
D13*
X116387000Y-101832000D03*
D14*
X116387000Y-104372000D03*
D13*
X66387000Y-101832000D03*
D14*
X66387000Y-104372000D03*
D13*
X116387000Y-51832000D03*
D14*
X116387000Y-54372000D03*
D13*
X92084000Y-101860000D03*
D14*
X92084000Y-104400000D03*
D13*
X42084000Y-101860000D03*
D14*
X42084000Y-104400000D03*
D13*
X92084000Y-51860000D03*
D14*
X92084000Y-54400000D03*
D13*
X95005000Y-131705000D03*
X45005000Y-131705000D03*
X95005000Y-81705000D03*
X97545000Y-131705000D03*
X47545000Y-131705000D03*
X97545000Y-81705000D03*
X100085000Y-131705000D03*
X50085000Y-131705000D03*
X100085000Y-81705000D03*
X89544000Y-119640000D03*
D14*
X89544000Y-117100000D03*
D13*
X39544000Y-119640000D03*
D14*
X39544000Y-117100000D03*
D13*
X89544000Y-69640000D03*
D14*
X89544000Y-67100000D03*
D16*
X99069000Y-98558000D03*
D17*
X106689000Y-113798000D03*
X99069000Y-101098000D03*
X106689000Y-111258000D03*
X99069000Y-103638000D03*
X106689000Y-108718000D03*
X99069000Y-106178000D03*
X106689000Y-106178000D03*
X99069000Y-108718000D03*
X106689000Y-103638000D03*
X99069000Y-111258000D03*
X106689000Y-101098000D03*
X99069000Y-113798000D03*
X106689000Y-98558000D03*
D16*
X49069000Y-98558000D03*
D17*
X56689000Y-113798000D03*
X49069000Y-101098000D03*
X56689000Y-111258000D03*
X49069000Y-103638000D03*
X56689000Y-108718000D03*
X49069000Y-106178000D03*
X56689000Y-106178000D03*
X49069000Y-108718000D03*
X56689000Y-103638000D03*
X49069000Y-111258000D03*
X56689000Y-101098000D03*
X49069000Y-113798000D03*
X56689000Y-98558000D03*
D16*
X99069000Y-48558000D03*
D17*
X106689000Y-63798000D03*
X99069000Y-51098000D03*
X106689000Y-61258000D03*
X99069000Y-53638000D03*
X106689000Y-58718000D03*
X99069000Y-56178000D03*
X106689000Y-56178000D03*
X99069000Y-58718000D03*
X106689000Y-53638000D03*
X99069000Y-61258000D03*
X106689000Y-51098000D03*
X99069000Y-63798000D03*
X106689000Y-48558000D03*
D13*
X79765000Y-131705000D03*
X29765000Y-131705000D03*
X79765000Y-81705000D03*
X84845000Y-131705000D03*
X34845000Y-131705000D03*
X84845000Y-81705000D03*
X82305000Y-131705000D03*
X32305000Y-131705000D03*
X82305000Y-81705000D03*
X92465000Y-131705000D03*
X42465000Y-131705000D03*
X92465000Y-81705000D03*
X87385000Y-131705000D03*
X37385000Y-131705000D03*
X87385000Y-81705000D03*
D16*
X84464000Y-114560000D03*
D17*
X92084000Y-106940000D03*
X87004000Y-114560000D03*
X89544000Y-106940000D03*
X89544000Y-114560000D03*
X87004000Y-106940000D03*
X92084000Y-114560000D03*
X84464000Y-106940000D03*
D16*
X34464000Y-114560000D03*
D17*
X42084000Y-106940000D03*
X37004000Y-114560000D03*
X39544000Y-106940000D03*
X39544000Y-114560000D03*
X37004000Y-106940000D03*
X42084000Y-114560000D03*
X34464000Y-106940000D03*
D16*
X84464000Y-64560000D03*
D17*
X92084000Y-56940000D03*
X87004000Y-64560000D03*
X89544000Y-56940000D03*
X89544000Y-64560000D03*
X87004000Y-56940000D03*
X92084000Y-64560000D03*
X84464000Y-56940000D03*
D15*
X80400000Y-118370000D03*
X80400000Y-115830000D03*
X80400000Y-113290000D03*
X30400000Y-118370000D03*
X30400000Y-115830000D03*
X30400000Y-113290000D03*
X80400000Y-68370000D03*
X80400000Y-65830000D03*
X80400000Y-63290000D03*
X80400000Y-108464000D03*
X80400000Y-105924000D03*
X80400000Y-103384000D03*
X30400000Y-108464000D03*
X30400000Y-105924000D03*
X30400000Y-103384000D03*
X80400000Y-58464000D03*
X80400000Y-55924000D03*
X80400000Y-53384000D03*
D12*
X72920000Y-80970000D03*
D11*
X54469000Y-66211000D03*
X56369000Y-66211000D03*
D13*
X50085000Y-39922000D03*
D14*
X52625000Y-39922000D03*
X55165000Y-39922000D03*
D13*
X50085000Y-37382000D03*
D14*
X52625000Y-37382000D03*
X55165000Y-37382000D03*
D16*
X71467000Y-56912000D03*
D17*
X63847000Y-64532000D03*
X68927000Y-56912000D03*
X66387000Y-64532000D03*
X66387000Y-56912000D03*
X68927000Y-64532000D03*
X63847000Y-56912000D03*
X71467000Y-64532000D03*
D16*
X34464000Y-64560000D03*
D17*
X42084000Y-56940000D03*
X37004000Y-64560000D03*
X39544000Y-56940000D03*
X39544000Y-64560000D03*
X37004000Y-56940000D03*
X42084000Y-64560000D03*
X34464000Y-56940000D03*
D15*
X75358000Y-64560000D03*
X75358000Y-67100000D03*
X75358000Y-69640000D03*
X75358000Y-54654000D03*
X75358000Y-57194000D03*
X75358000Y-59734000D03*
X30400000Y-58464000D03*
X30400000Y-55924000D03*
X30400000Y-53384000D03*
X30400000Y-68370000D03*
X30400000Y-65830000D03*
X30400000Y-63290000D03*
D13*
X63928000Y-69640000D03*
D14*
X63928000Y-67100000D03*
D13*
X66387000Y-51832000D03*
D14*
X66387000Y-54372000D03*
D13*
X42084000Y-51860000D03*
D14*
X42084000Y-54400000D03*
D13*
X39544000Y-69640000D03*
D14*
X39544000Y-67100000D03*
D13*
X42666000Y-38700000D03*
X40126000Y-38700000D03*
X50085000Y-81705000D03*
X47545000Y-81705000D03*
X37385000Y-81705000D03*
X34845000Y-81705000D03*
X37586000Y-38700000D03*
X35046000Y-38700000D03*
X45005000Y-81705000D03*
X42465000Y-81705000D03*
X32305000Y-81705000D03*
X29765000Y-81705000D03*
D16*
X49069000Y-48558000D03*
D17*
X56689000Y-63798000D03*
X49069000Y-51098000D03*
X56689000Y-61258000D03*
X49069000Y-53638000D03*
X56689000Y-58718000D03*
X49069000Y-56178000D03*
X56689000Y-56178000D03*
X49069000Y-58718000D03*
X56689000Y-53638000D03*
X49069000Y-61258000D03*
X56689000Y-51098000D03*
X49069000Y-63798000D03*
X56689000Y-48558000D03*
D18*
X51609000Y-44494000D03*
X49069000Y-44494000D03*
D19*
X54149000Y-44494000D03*
D12*
X74342000Y-39414000D03*
M02*
