G04 #@! TF.FileFunction,Soldermask,Bot*
%FSLAX46Y46*%
G04 Gerber Fmt 4.6, Leading zero omitted, Abs format (unit mm)*
G04 Created by KiCad (PCBNEW 4.0.6) date 07/03/17 20:38:38*
%MOMM*%
%LPD*%
G01*
G04 APERTURE LIST*
%ADD10C,0.100000*%
%ADD11R,2.000000X2.000000*%
%ADD12O,2.000000X2.000000*%
%ADD13R,2.100000X2.100000*%
%ADD14O,2.100000X2.100000*%
G04 APERTURE END LIST*
D10*
D11*
X119380000Y-151200000D03*
D12*
X137160000Y-143580000D03*
X121920000Y-151200000D03*
X134620000Y-143580000D03*
X124460000Y-151200000D03*
X132080000Y-143580000D03*
X127000000Y-151200000D03*
X129540000Y-143580000D03*
X129540000Y-151200000D03*
X127000000Y-143580000D03*
X132080000Y-151200000D03*
X124460000Y-143580000D03*
X134620000Y-151200000D03*
X121920000Y-143580000D03*
X137160000Y-151200000D03*
X119380000Y-143580000D03*
D11*
X119380000Y-126200000D03*
D12*
X137160000Y-118580000D03*
X121920000Y-126200000D03*
X134620000Y-118580000D03*
X124460000Y-126200000D03*
X132080000Y-118580000D03*
X127000000Y-126200000D03*
X129540000Y-118580000D03*
X129540000Y-126200000D03*
X127000000Y-118580000D03*
X132080000Y-126200000D03*
X124460000Y-118580000D03*
X134620000Y-126200000D03*
X121920000Y-118580000D03*
X137160000Y-126200000D03*
X119380000Y-118580000D03*
D11*
X119380000Y-101200000D03*
D12*
X137160000Y-93580000D03*
X121920000Y-101200000D03*
X134620000Y-93580000D03*
X124460000Y-101200000D03*
X132080000Y-93580000D03*
X127000000Y-101200000D03*
X129540000Y-93580000D03*
X129540000Y-101200000D03*
X127000000Y-93580000D03*
X132080000Y-101200000D03*
X124460000Y-93580000D03*
X134620000Y-101200000D03*
X121920000Y-93580000D03*
X137160000Y-101200000D03*
X119380000Y-93580000D03*
D13*
X116840000Y-156280000D03*
D14*
X119380000Y-156280000D03*
X121920000Y-156280000D03*
X124460000Y-156280000D03*
X127000000Y-156280000D03*
X129540000Y-156280000D03*
X132080000Y-156280000D03*
X134620000Y-156280000D03*
D13*
X116840000Y-131280000D03*
D14*
X119380000Y-131280000D03*
X121920000Y-131280000D03*
X124460000Y-131280000D03*
X127000000Y-131280000D03*
X129540000Y-131280000D03*
X132080000Y-131280000D03*
X134620000Y-131280000D03*
D13*
X116840000Y-106280000D03*
D14*
X119380000Y-106280000D03*
X121920000Y-106280000D03*
X124460000Y-106280000D03*
X127000000Y-106280000D03*
X129540000Y-106280000D03*
X132080000Y-106280000D03*
X134620000Y-106280000D03*
D11*
X76200000Y-151200000D03*
D12*
X93980000Y-143580000D03*
X78740000Y-151200000D03*
X91440000Y-143580000D03*
X81280000Y-151200000D03*
X88900000Y-143580000D03*
X83820000Y-151200000D03*
X86360000Y-143580000D03*
X86360000Y-151200000D03*
X83820000Y-143580000D03*
X88900000Y-151200000D03*
X81280000Y-143580000D03*
X91440000Y-151200000D03*
X78740000Y-143580000D03*
X93980000Y-151200000D03*
X76200000Y-143580000D03*
D11*
X76200000Y-126200000D03*
D12*
X93980000Y-118580000D03*
X78740000Y-126200000D03*
X91440000Y-118580000D03*
X81280000Y-126200000D03*
X88900000Y-118580000D03*
X83820000Y-126200000D03*
X86360000Y-118580000D03*
X86360000Y-126200000D03*
X83820000Y-118580000D03*
X88900000Y-126200000D03*
X81280000Y-118580000D03*
X91440000Y-126200000D03*
X78740000Y-118580000D03*
X93980000Y-126200000D03*
X76200000Y-118580000D03*
D11*
X76200000Y-101200000D03*
D12*
X93980000Y-93580000D03*
X78740000Y-101200000D03*
X91440000Y-93580000D03*
X81280000Y-101200000D03*
X88900000Y-93580000D03*
X83820000Y-101200000D03*
X86360000Y-93580000D03*
X86360000Y-101200000D03*
X83820000Y-93580000D03*
X88900000Y-101200000D03*
X81280000Y-93580000D03*
X91440000Y-101200000D03*
X78740000Y-93580000D03*
X93980000Y-101200000D03*
X76200000Y-93580000D03*
D13*
X76200000Y-156280000D03*
D14*
X78740000Y-156280000D03*
X81280000Y-156280000D03*
X83820000Y-156280000D03*
X86360000Y-156280000D03*
X88900000Y-156280000D03*
X91440000Y-156280000D03*
X93980000Y-156280000D03*
D13*
X76200000Y-131280000D03*
D14*
X78740000Y-131280000D03*
X81280000Y-131280000D03*
X83820000Y-131280000D03*
X86360000Y-131280000D03*
X88900000Y-131280000D03*
X91440000Y-131280000D03*
X93980000Y-131280000D03*
D13*
X76200000Y-106280000D03*
D14*
X78740000Y-106280000D03*
X81280000Y-106280000D03*
X83820000Y-106280000D03*
X86360000Y-106280000D03*
X88900000Y-106280000D03*
X91440000Y-106280000D03*
X93980000Y-106280000D03*
D13*
X71120000Y-156280000D03*
D14*
X71120000Y-153740000D03*
X71120000Y-151200000D03*
X71120000Y-148660000D03*
X71120000Y-146120000D03*
X71120000Y-143580000D03*
X71120000Y-141040000D03*
X71120000Y-138500000D03*
D13*
X71120000Y-131280000D03*
D14*
X71120000Y-128740000D03*
X71120000Y-126200000D03*
X71120000Y-123660000D03*
X71120000Y-121120000D03*
X71120000Y-118580000D03*
X71120000Y-116040000D03*
X71120000Y-113500000D03*
D13*
X71120000Y-106280000D03*
D14*
X71120000Y-103740000D03*
X71120000Y-101200000D03*
X71120000Y-98660000D03*
X71120000Y-96120000D03*
X71120000Y-93580000D03*
X71120000Y-91040000D03*
X71120000Y-88500000D03*
D11*
X97790000Y-151200000D03*
D12*
X115570000Y-143580000D03*
X100330000Y-151200000D03*
X113030000Y-143580000D03*
X102870000Y-151200000D03*
X110490000Y-143580000D03*
X105410000Y-151200000D03*
X107950000Y-143580000D03*
X107950000Y-151200000D03*
X105410000Y-143580000D03*
X110490000Y-151200000D03*
X102870000Y-143580000D03*
X113030000Y-151200000D03*
X100330000Y-143580000D03*
X115570000Y-151200000D03*
X97790000Y-143580000D03*
D11*
X97790000Y-126200000D03*
D12*
X115570000Y-118580000D03*
X100330000Y-126200000D03*
X113030000Y-118580000D03*
X102870000Y-126200000D03*
X110490000Y-118580000D03*
X105410000Y-126200000D03*
X107950000Y-118580000D03*
X107950000Y-126200000D03*
X105410000Y-118580000D03*
X110490000Y-126200000D03*
X102870000Y-118580000D03*
X113030000Y-126200000D03*
X100330000Y-118580000D03*
X115570000Y-126200000D03*
X97790000Y-118580000D03*
D11*
X97790000Y-101200000D03*
D12*
X115570000Y-93580000D03*
X100330000Y-101200000D03*
X113030000Y-93580000D03*
X102870000Y-101200000D03*
X110490000Y-93580000D03*
X105410000Y-101200000D03*
X107950000Y-93580000D03*
X107950000Y-101200000D03*
X105410000Y-93580000D03*
X110490000Y-101200000D03*
X102870000Y-93580000D03*
X113030000Y-101200000D03*
X100330000Y-93580000D03*
X115570000Y-101200000D03*
X97790000Y-93580000D03*
D13*
X96520000Y-156280000D03*
D14*
X99060000Y-156280000D03*
X101600000Y-156280000D03*
X104140000Y-156280000D03*
X106680000Y-156280000D03*
X109220000Y-156280000D03*
X111760000Y-156280000D03*
X114300000Y-156280000D03*
D13*
X96520000Y-131280000D03*
D14*
X99060000Y-131280000D03*
X101600000Y-131280000D03*
X104140000Y-131280000D03*
X106680000Y-131280000D03*
X109220000Y-131280000D03*
X111760000Y-131280000D03*
X114300000Y-131280000D03*
D13*
X96520000Y-106280000D03*
D14*
X99060000Y-106280000D03*
X101600000Y-106280000D03*
X104140000Y-106280000D03*
X106680000Y-106280000D03*
X109220000Y-106280000D03*
X111760000Y-106280000D03*
X114300000Y-106280000D03*
D13*
X137160000Y-156280000D03*
D14*
X139700000Y-156280000D03*
X142240000Y-156280000D03*
X144780000Y-156280000D03*
X147320000Y-156280000D03*
X149860000Y-156280000D03*
X152400000Y-156280000D03*
X154940000Y-156280000D03*
D13*
X137160000Y-131280000D03*
D14*
X139700000Y-131280000D03*
X142240000Y-131280000D03*
X144780000Y-131280000D03*
X147320000Y-131280000D03*
X149860000Y-131280000D03*
X152400000Y-131280000D03*
X154940000Y-131280000D03*
D13*
X137160000Y-106280000D03*
D14*
X139700000Y-106280000D03*
X142240000Y-106280000D03*
X144780000Y-106280000D03*
X147320000Y-106280000D03*
X149860000Y-106280000D03*
X152400000Y-106280000D03*
X154940000Y-106280000D03*
D11*
X140970000Y-151200000D03*
D12*
X158750000Y-143580000D03*
X143510000Y-151200000D03*
X156210000Y-143580000D03*
X146050000Y-151200000D03*
X153670000Y-143580000D03*
X148590000Y-151200000D03*
X151130000Y-143580000D03*
X151130000Y-151200000D03*
X148590000Y-143580000D03*
X153670000Y-151200000D03*
X146050000Y-143580000D03*
X156210000Y-151200000D03*
X143510000Y-143580000D03*
X158750000Y-151200000D03*
X140970000Y-143580000D03*
D11*
X140970000Y-126200000D03*
D12*
X158750000Y-118580000D03*
X143510000Y-126200000D03*
X156210000Y-118580000D03*
X146050000Y-126200000D03*
X153670000Y-118580000D03*
X148590000Y-126200000D03*
X151130000Y-118580000D03*
X151130000Y-126200000D03*
X148590000Y-118580000D03*
X153670000Y-126200000D03*
X146050000Y-118580000D03*
X156210000Y-126200000D03*
X143510000Y-118580000D03*
X158750000Y-126200000D03*
X140970000Y-118580000D03*
D11*
X140970000Y-101200000D03*
D12*
X158750000Y-93580000D03*
X143510000Y-101200000D03*
X156210000Y-93580000D03*
X146050000Y-101200000D03*
X153670000Y-93580000D03*
X148590000Y-101200000D03*
X151130000Y-93580000D03*
X151130000Y-101200000D03*
X148590000Y-93580000D03*
X153670000Y-101200000D03*
X146050000Y-93580000D03*
X156210000Y-101200000D03*
X143510000Y-93580000D03*
X158750000Y-101200000D03*
X140970000Y-93580000D03*
D13*
X163830000Y-156280000D03*
D14*
X163830000Y-153740000D03*
X163830000Y-151200000D03*
X163830000Y-148660000D03*
X163830000Y-146120000D03*
X163830000Y-143580000D03*
X163830000Y-141040000D03*
X163830000Y-138500000D03*
D13*
X163830000Y-131280000D03*
D14*
X163830000Y-128740000D03*
X163830000Y-126200000D03*
X163830000Y-123660000D03*
X163830000Y-121120000D03*
X163830000Y-118580000D03*
X163830000Y-116040000D03*
X163830000Y-113500000D03*
D13*
X163830000Y-106280000D03*
D14*
X163830000Y-103740000D03*
X163830000Y-101200000D03*
X163830000Y-98660000D03*
X163830000Y-96120000D03*
X163830000Y-93580000D03*
X163830000Y-91040000D03*
X163830000Y-88500000D03*
D11*
X140970000Y-76200000D03*
D12*
X158750000Y-68580000D03*
X143510000Y-76200000D03*
X156210000Y-68580000D03*
X146050000Y-76200000D03*
X153670000Y-68580000D03*
X148590000Y-76200000D03*
X151130000Y-68580000D03*
X151130000Y-76200000D03*
X148590000Y-68580000D03*
X153670000Y-76200000D03*
X146050000Y-68580000D03*
X156210000Y-76200000D03*
X143510000Y-68580000D03*
X158750000Y-76200000D03*
X140970000Y-68580000D03*
D13*
X76200000Y-81280000D03*
D14*
X78740000Y-81280000D03*
X81280000Y-81280000D03*
X83820000Y-81280000D03*
X86360000Y-81280000D03*
X88900000Y-81280000D03*
X91440000Y-81280000D03*
X93980000Y-81280000D03*
D13*
X96520000Y-81280000D03*
D14*
X99060000Y-81280000D03*
X101600000Y-81280000D03*
X104140000Y-81280000D03*
X106680000Y-81280000D03*
X109220000Y-81280000D03*
X111760000Y-81280000D03*
X114300000Y-81280000D03*
D13*
X116840000Y-81280000D03*
D14*
X119380000Y-81280000D03*
X121920000Y-81280000D03*
X124460000Y-81280000D03*
X127000000Y-81280000D03*
X129540000Y-81280000D03*
X132080000Y-81280000D03*
X134620000Y-81280000D03*
D13*
X137160000Y-81280000D03*
D14*
X139700000Y-81280000D03*
X142240000Y-81280000D03*
X144780000Y-81280000D03*
X147320000Y-81280000D03*
X149860000Y-81280000D03*
X152400000Y-81280000D03*
X154940000Y-81280000D03*
D11*
X76200000Y-76200000D03*
D12*
X93980000Y-68580000D03*
X78740000Y-76200000D03*
X91440000Y-68580000D03*
X81280000Y-76200000D03*
X88900000Y-68580000D03*
X83820000Y-76200000D03*
X86360000Y-68580000D03*
X86360000Y-76200000D03*
X83820000Y-68580000D03*
X88900000Y-76200000D03*
X81280000Y-68580000D03*
X91440000Y-76200000D03*
X78740000Y-68580000D03*
X93980000Y-76200000D03*
X76200000Y-68580000D03*
D11*
X97790000Y-76200000D03*
D12*
X115570000Y-68580000D03*
X100330000Y-76200000D03*
X113030000Y-68580000D03*
X102870000Y-76200000D03*
X110490000Y-68580000D03*
X105410000Y-76200000D03*
X107950000Y-68580000D03*
X107950000Y-76200000D03*
X105410000Y-68580000D03*
X110490000Y-76200000D03*
X102870000Y-68580000D03*
X113030000Y-76200000D03*
X100330000Y-68580000D03*
X115570000Y-76200000D03*
X97790000Y-68580000D03*
D11*
X119380000Y-76200000D03*
D12*
X137160000Y-68580000D03*
X121920000Y-76200000D03*
X134620000Y-68580000D03*
X124460000Y-76200000D03*
X132080000Y-68580000D03*
X127000000Y-76200000D03*
X129540000Y-68580000D03*
X129540000Y-76200000D03*
X127000000Y-68580000D03*
X132080000Y-76200000D03*
X124460000Y-68580000D03*
X134620000Y-76200000D03*
X121920000Y-68580000D03*
X137160000Y-76200000D03*
X119380000Y-68580000D03*
D13*
X71120000Y-81280000D03*
D14*
X71120000Y-78740000D03*
X71120000Y-76200000D03*
X71120000Y-73660000D03*
X71120000Y-71120000D03*
X71120000Y-68580000D03*
X71120000Y-66040000D03*
X71120000Y-63500000D03*
D13*
X163830000Y-81280000D03*
D14*
X163830000Y-78740000D03*
X163830000Y-76200000D03*
X163830000Y-73660000D03*
X163830000Y-71120000D03*
X163830000Y-68580000D03*
X163830000Y-66040000D03*
X163830000Y-63500000D03*
M02*
