G75*
%MOIN*%
%OFA0B0*%
%FSLAX24Y24*%
%IPPOS*%
%LPD*%
%AMOC8*
5,1,8,0,0,1.08239X$1,22.5*
%
%ADD10R,0.0190X0.0010*%
%ADD11R,0.0090X0.0010*%
%ADD12R,0.0020X0.0010*%
%ADD13R,0.0110X0.0010*%
%ADD14R,0.0080X0.0010*%
%ADD15R,0.0010X0.0010*%
%ADD16R,0.0070X0.0010*%
%ADD17R,0.0030X0.0010*%
%ADD18R,0.0040X0.0010*%
%ADD19R,0.0100X0.0010*%
%ADD20R,0.0050X0.0010*%
%ADD21R,0.0060X0.0010*%
%ADD22R,0.0130X0.0010*%
%ADD23R,0.0140X0.0010*%
%ADD24R,0.0120X0.0010*%
%ADD25R,0.0150X0.0010*%
%ADD26R,0.0180X0.0010*%
%ADD27R,0.0170X0.0010*%
%ADD28R,0.0230X0.0010*%
%ADD29R,0.0200X0.0010*%
%ADD30R,0.0160X0.0010*%
%ADD31R,0.0240X0.0010*%
%ADD32R,0.0260X0.0010*%
%ADD33R,0.0220X0.0010*%
%ADD34R,0.0210X0.0010*%
%ADD35R,0.0300X0.0010*%
%ADD36R,0.0320X0.0010*%
%ADD37R,0.0270X0.0010*%
%ADD38R,0.0440X0.0010*%
%ADD39R,0.0280X0.0010*%
%ADD40R,0.0290X0.0010*%
%ADD41R,0.0340X0.0010*%
%ADD42R,0.0330X0.0010*%
%ADD43C,0.0000*%
D10*
X001950Y000420D03*
X002230Y002190D03*
D11*
X002090Y002120D03*
X001990Y001840D03*
X002060Y001830D03*
X001890Y001840D03*
X001840Y001820D03*
X001900Y001500D03*
X002000Y001130D03*
X001430Y001500D03*
X001150Y001490D03*
X000790Y001350D03*
X001590Y002140D03*
X001570Y002210D03*
X001810Y000430D03*
D12*
X001945Y000430D03*
X002075Y000650D03*
X002205Y000820D03*
X002175Y000840D03*
X002165Y000860D03*
X002255Y000780D03*
X002305Y000740D03*
X002335Y000710D03*
X002355Y000700D03*
X002405Y000660D03*
X002455Y000620D03*
X002505Y000580D03*
X002545Y000550D03*
X002555Y000540D03*
X002575Y000550D03*
X002595Y000560D03*
X002615Y000570D03*
X002645Y000590D03*
X002665Y000600D03*
X002685Y000610D03*
X002705Y000620D03*
X002725Y000630D03*
X002745Y000640D03*
X002775Y000660D03*
X002795Y000670D03*
X002815Y000680D03*
X002825Y000690D03*
X002835Y000700D03*
X002855Y000710D03*
X002905Y000750D03*
X002965Y000800D03*
X003025Y000850D03*
X003075Y000910D03*
X002805Y000700D03*
X002785Y000710D03*
X002765Y000720D03*
X002745Y000730D03*
X002725Y000740D03*
X002705Y000750D03*
X002685Y000760D03*
X002665Y000770D03*
X002645Y000780D03*
X002615Y000800D03*
X002595Y000810D03*
X002575Y000820D03*
X002535Y000840D03*
X002515Y000850D03*
X002495Y000860D03*
X002475Y000870D03*
X002455Y000880D03*
X002435Y000890D03*
X002415Y000900D03*
X002425Y000940D03*
X002445Y000950D03*
X002465Y000960D03*
X002485Y000970D03*
X002515Y000990D03*
X002535Y001000D03*
X002555Y001010D03*
X002555Y001050D03*
X002535Y001060D03*
X002515Y001070D03*
X002495Y001080D03*
X002475Y001090D03*
X002455Y001100D03*
X002435Y001110D03*
X002395Y001130D03*
X002375Y001140D03*
X002355Y001150D03*
X002335Y001160D03*
X002315Y001170D03*
X002295Y001180D03*
X002285Y001210D03*
X002265Y001200D03*
X002315Y001230D03*
X002335Y001240D03*
X002355Y001250D03*
X002385Y001270D03*
X002385Y001290D03*
X002365Y001300D03*
X002345Y001310D03*
X002325Y001320D03*
X002305Y001330D03*
X002265Y001350D03*
X002245Y001360D03*
X002195Y001380D03*
X002205Y001420D03*
X002225Y001430D03*
X002235Y001480D03*
X002165Y001510D03*
X002145Y001520D03*
X002125Y001530D03*
X002095Y001550D03*
X002075Y001560D03*
X002035Y001590D03*
X002025Y001600D03*
X001975Y001640D03*
X001995Y001690D03*
X001985Y001700D03*
X002005Y001730D03*
X002035Y001750D03*
X002045Y001770D03*
X002025Y001820D03*
X002045Y001850D03*
X002015Y001900D03*
X002035Y001920D03*
X002015Y001940D03*
X002015Y001960D03*
X002005Y001980D03*
X002005Y002000D03*
X001975Y002030D03*
X001975Y002050D03*
X002015Y002060D03*
X002035Y002050D03*
X002035Y002030D03*
X002055Y002020D03*
X002035Y001950D03*
X002085Y001910D03*
X002115Y001890D03*
X002125Y001870D03*
X002145Y001890D03*
X002165Y001900D03*
X002195Y001940D03*
X002215Y001920D03*
X002225Y001910D03*
X002245Y001940D03*
X002255Y001970D03*
X002275Y001960D03*
X002285Y001950D03*
X002315Y001930D03*
X002325Y001900D03*
X002345Y001910D03*
X002355Y001900D03*
X002395Y001940D03*
X002405Y001970D03*
X002425Y001960D03*
X002435Y001950D03*
X002445Y001970D03*
X002475Y001990D03*
X002455Y002050D03*
X002525Y002020D03*
X002555Y002000D03*
X002585Y001980D03*
X002585Y001930D03*
X002565Y001920D03*
X002525Y001880D03*
X002515Y001890D03*
X002495Y001910D03*
X002465Y001930D03*
X002465Y001870D03*
X002415Y001850D03*
X002335Y001810D03*
X002295Y001720D03*
X002235Y001650D03*
X002145Y001580D03*
X002135Y001610D03*
X002095Y001630D03*
X002065Y001670D03*
X002045Y001710D03*
X001995Y001800D03*
X001945Y001800D03*
X001915Y001800D03*
X001915Y001790D03*
X001885Y001780D03*
X001885Y001800D03*
X001855Y001790D03*
X001885Y001750D03*
X001885Y001740D03*
X001885Y001730D03*
X001865Y001720D03*
X001865Y001700D03*
X001885Y001680D03*
X001885Y001670D03*
X001905Y001700D03*
X001935Y001680D03*
X001925Y001750D03*
X001905Y001760D03*
X001845Y001740D03*
X001805Y001760D03*
X001785Y001780D03*
X001765Y001750D03*
X001775Y001740D03*
X001785Y001730D03*
X001785Y001700D03*
X001775Y001690D03*
X001755Y001680D03*
X001755Y001650D03*
X001795Y001650D03*
X001825Y001670D03*
X001835Y001680D03*
X001855Y001640D03*
X001915Y001630D03*
X001915Y001610D03*
X001955Y001580D03*
X001955Y001570D03*
X002005Y001530D03*
X002045Y001490D03*
X002075Y001470D03*
X002125Y001430D03*
X002045Y001370D03*
X002055Y001350D03*
X002075Y001340D03*
X002115Y001310D03*
X002135Y001300D03*
X002145Y001280D03*
X002165Y001270D03*
X002205Y001240D03*
X002155Y001100D03*
X002195Y001070D03*
X002225Y001040D03*
X002245Y001030D03*
X002295Y000990D03*
X002335Y000960D03*
X002035Y001000D03*
X001935Y001110D03*
X001935Y001130D03*
X001865Y001240D03*
X001865Y001250D03*
X001865Y001260D03*
X001805Y001340D03*
X001815Y001360D03*
X001755Y001300D03*
X001725Y001270D03*
X001685Y001240D03*
X001625Y001190D03*
X001595Y001190D03*
X001575Y001200D03*
X001555Y001210D03*
X001535Y001220D03*
X001505Y001240D03*
X001505Y001270D03*
X001535Y001290D03*
X001555Y001300D03*
X001575Y001310D03*
X001595Y001320D03*
X001605Y001330D03*
X001625Y001340D03*
X001645Y001350D03*
X001665Y001360D03*
X001655Y001400D03*
X001635Y001410D03*
X001615Y001420D03*
X001615Y001450D03*
X001635Y001460D03*
X001685Y001490D03*
X001715Y001510D03*
X001725Y001540D03*
X001705Y001550D03*
X001675Y001570D03*
X001665Y001580D03*
X001635Y001600D03*
X001705Y001590D03*
X001755Y001540D03*
X001805Y001580D03*
X001815Y001590D03*
X001835Y001520D03*
X001835Y001500D03*
X001775Y001450D03*
X001875Y001440D03*
X001875Y001430D03*
X001925Y001490D03*
X001925Y001510D03*
X001975Y001450D03*
X001975Y001440D03*
X001975Y001430D03*
X002005Y001250D03*
X001755Y001120D03*
X001685Y001060D03*
X001665Y001050D03*
X001655Y001030D03*
X001625Y001010D03*
X001555Y000950D03*
X001515Y000920D03*
X001485Y000920D03*
X001485Y000900D03*
X001465Y000890D03*
X001445Y000880D03*
X001415Y000860D03*
X001395Y000850D03*
X001375Y000840D03*
X001355Y000830D03*
X001335Y000820D03*
X001295Y000800D03*
X001275Y000790D03*
X001255Y000780D03*
X001225Y000760D03*
X001205Y000750D03*
X001185Y000740D03*
X001165Y000730D03*
X001145Y000720D03*
X001125Y000710D03*
X001105Y000680D03*
X001125Y000670D03*
X001145Y000660D03*
X001175Y000640D03*
X001195Y000630D03*
X001225Y000610D03*
X001245Y000600D03*
X001265Y000590D03*
X001295Y000570D03*
X001315Y000560D03*
X001415Y000590D03*
X001465Y000630D03*
X001525Y000680D03*
X001565Y000720D03*
X001585Y000730D03*
X001635Y000770D03*
X001695Y000820D03*
X001725Y000860D03*
X001845Y000990D03*
X001845Y001010D03*
X001945Y000840D03*
X001935Y000820D03*
X001815Y000670D03*
X001815Y000660D03*
X001645Y000460D03*
X001465Y000930D03*
X001445Y000940D03*
X001425Y000950D03*
X001395Y000970D03*
X001375Y000980D03*
X001355Y000990D03*
X001335Y001000D03*
X001345Y001030D03*
X001365Y001040D03*
X001395Y001060D03*
X001415Y001070D03*
X001435Y001080D03*
X001455Y001090D03*
X001495Y001110D03*
X001525Y001130D03*
X001545Y001140D03*
X001565Y001150D03*
X001585Y001160D03*
X001455Y001270D03*
X001395Y001320D03*
X001355Y001350D03*
X001255Y001470D03*
X001255Y001490D03*
X001185Y001630D03*
X001095Y001790D03*
X001075Y001800D03*
X001055Y001810D03*
X001045Y001860D03*
X001095Y001900D03*
X001155Y001930D03*
X001175Y001940D03*
X001205Y001960D03*
X001225Y001970D03*
X001265Y001990D03*
X001285Y002000D03*
X001305Y002010D03*
X001385Y001990D03*
X001395Y001950D03*
X001375Y001940D03*
X001355Y001930D03*
X001335Y001920D03*
X001365Y001900D03*
X001385Y001890D03*
X001415Y001870D03*
X001435Y001860D03*
X001455Y001850D03*
X001455Y001900D03*
X001445Y001940D03*
X001435Y001970D03*
X001415Y001960D03*
X001505Y001930D03*
X001525Y001940D03*
X001545Y001950D03*
X001525Y001970D03*
X001585Y001990D03*
X001605Y002050D03*
X001665Y002120D03*
X001675Y002140D03*
X001695Y002150D03*
X001715Y002220D03*
X001685Y002240D03*
X001665Y002250D03*
X001695Y002270D03*
X001705Y002300D03*
X001755Y002350D03*
X001745Y002360D03*
X001785Y002430D03*
X001785Y002450D03*
X001835Y002380D03*
X001835Y002370D03*
X001835Y002360D03*
X001875Y002300D03*
X001845Y002260D03*
X001845Y002250D03*
X001875Y002220D03*
X001875Y002200D03*
X001855Y002160D03*
X001875Y002130D03*
X001855Y002110D03*
X001855Y002100D03*
X001875Y002090D03*
X001895Y002110D03*
X001915Y002120D03*
X001915Y002140D03*
X001935Y002150D03*
X001945Y002160D03*
X001925Y002190D03*
X001905Y002240D03*
X001965Y002230D03*
X001975Y002240D03*
X002025Y002270D03*
X002045Y002260D03*
X002055Y002290D03*
X002075Y002300D03*
X002045Y002370D03*
X002045Y002410D03*
X002105Y002380D03*
X002115Y002410D03*
X002135Y002420D03*
X002185Y002440D03*
X002205Y002450D03*
X002225Y002460D03*
X002235Y002510D03*
X002205Y002530D03*
X002215Y002580D03*
X002235Y002590D03*
X002285Y002610D03*
X002305Y002620D03*
X002355Y002640D03*
X002375Y002650D03*
X002385Y002710D03*
X002355Y002730D03*
X002325Y002750D03*
X002275Y002780D03*
X002235Y002750D03*
X002205Y002730D03*
X002175Y002710D03*
X002145Y002690D03*
X002135Y002680D03*
X002105Y002660D03*
X002075Y002640D03*
X002105Y002580D03*
X002135Y002540D03*
X002105Y002520D03*
X002065Y002490D03*
X002055Y002480D03*
X002035Y002470D03*
X001985Y002420D03*
X001925Y002370D03*
X001925Y002360D03*
X002005Y002340D03*
X002075Y002230D03*
X002055Y002220D03*
X002035Y002210D03*
X002005Y002170D03*
X002065Y002130D03*
X002065Y002110D03*
X002095Y002090D03*
X002095Y002070D03*
X002115Y002020D03*
X002135Y001990D03*
X002205Y002050D03*
X002215Y002070D03*
X002175Y002120D03*
X002135Y002200D03*
X002235Y002260D03*
X002235Y002280D03*
X002165Y002340D03*
X002135Y002360D03*
X002275Y002480D03*
X002285Y002470D03*
X002445Y002280D03*
X002495Y002140D03*
X002535Y002140D03*
X002555Y002130D03*
X002605Y002110D03*
X002625Y002100D03*
X002675Y002080D03*
X002695Y002070D03*
X002725Y002020D03*
X002695Y002000D03*
X002675Y001990D03*
X002645Y001970D03*
X002655Y001930D03*
X002685Y001910D03*
X002715Y001890D03*
X002715Y001850D03*
X002635Y001820D03*
X002555Y001790D03*
X002705Y001700D03*
X002715Y001680D03*
X002735Y001700D03*
X002795Y001890D03*
X002815Y001900D03*
X002845Y001920D03*
X002875Y001940D03*
X002895Y001950D03*
X002905Y001940D03*
X002925Y001970D03*
X002945Y001980D03*
X002975Y002000D03*
X003005Y002020D03*
X003025Y002030D03*
X003055Y002050D03*
X003045Y002080D03*
X003025Y002090D03*
X003005Y002100D03*
X002955Y002120D03*
X002935Y002130D03*
X002915Y002140D03*
X002865Y002160D03*
X002845Y002170D03*
X002825Y002180D03*
X002775Y002200D03*
X002755Y002210D03*
X002725Y002210D03*
X002675Y002170D03*
X002835Y002110D03*
X002795Y002020D03*
X002835Y001990D03*
X002865Y001970D03*
X002935Y001920D03*
X002975Y001890D03*
X003005Y001870D03*
X003045Y001840D03*
X003065Y001830D03*
X003075Y001810D03*
X003105Y001840D03*
X003125Y001850D03*
X003155Y001870D03*
X003175Y001880D03*
X003205Y001900D03*
X003225Y001910D03*
X003245Y001920D03*
X003265Y001930D03*
X003275Y001940D03*
X003295Y001950D03*
X003325Y001970D03*
X003345Y001980D03*
X003375Y002000D03*
X003395Y002010D03*
X003425Y002030D03*
X003445Y002040D03*
X003475Y002060D03*
X003495Y002070D03*
X003495Y002100D03*
X003475Y002110D03*
X003425Y002130D03*
X003405Y002140D03*
X003385Y002150D03*
X003365Y002160D03*
X003345Y002170D03*
X003295Y002190D03*
X003275Y002200D03*
X003215Y002230D03*
X003165Y002250D03*
X003145Y002260D03*
X003125Y002270D03*
X003105Y002280D03*
X003085Y002290D03*
X002985Y002250D03*
X003145Y002120D03*
X003115Y002040D03*
X003145Y002020D03*
X003185Y001990D03*
X003225Y001960D03*
X003295Y001910D03*
X003335Y001880D03*
X003375Y001850D03*
X003415Y001820D03*
X003445Y001800D03*
X003505Y001760D03*
X003255Y001670D03*
X003015Y001580D03*
X003005Y001600D03*
X002985Y001790D03*
X002905Y001390D03*
X002905Y001360D03*
X002705Y001130D03*
X002645Y001080D03*
X002415Y001290D03*
X002465Y001330D03*
X002365Y001540D03*
X002365Y001560D03*
X002345Y001530D03*
X002435Y001640D03*
X002435Y001660D03*
X002185Y001780D03*
X002185Y001800D03*
X002215Y001840D03*
X002105Y001820D03*
X001975Y001940D03*
X001955Y001860D03*
X001775Y001870D03*
X001755Y001840D03*
X001755Y001820D03*
X001735Y001850D03*
X001725Y001880D03*
X001715Y001910D03*
X001725Y001920D03*
X001745Y001910D03*
X001695Y001940D03*
X001665Y001920D03*
X001665Y001880D03*
X001615Y001880D03*
X001595Y001860D03*
X001585Y001850D03*
X001555Y001880D03*
X001515Y001900D03*
X001585Y001920D03*
X001615Y001940D03*
X001695Y002030D03*
X001745Y002020D03*
X001745Y002000D03*
X001785Y002090D03*
X001815Y002070D03*
X001825Y002090D03*
X001845Y002070D03*
X001835Y002060D03*
X001885Y002060D03*
X001925Y002100D03*
X001945Y002120D03*
X001835Y002120D03*
X001805Y002160D03*
X001805Y002170D03*
X001785Y002180D03*
X001755Y002150D03*
X001765Y002140D03*
X001775Y002250D03*
X001635Y002340D03*
X001615Y002350D03*
X001595Y002360D03*
X001585Y002370D03*
X001555Y002350D03*
X001615Y002390D03*
X001635Y002400D03*
X001655Y002430D03*
X001625Y002450D03*
X001605Y002460D03*
X001595Y002470D03*
X001575Y002480D03*
X001555Y002490D03*
X001525Y002510D03*
X001485Y002530D03*
X001465Y002520D03*
X001425Y002490D03*
X001455Y002420D03*
X001365Y002440D03*
X001275Y002350D03*
X001195Y002230D03*
X001195Y002220D03*
X001195Y002200D03*
X001185Y002040D03*
X001105Y002050D03*
X001085Y002040D03*
X001065Y002030D03*
X001015Y002010D03*
X000995Y002000D03*
X000975Y001990D03*
X000955Y001980D03*
X000935Y001970D03*
X000915Y001960D03*
X000895Y001950D03*
X000875Y001940D03*
X000895Y001900D03*
X000915Y001890D03*
X000935Y001880D03*
X000965Y001860D03*
X000985Y001850D03*
X000965Y001800D03*
X000915Y001760D03*
X000865Y001710D03*
X000825Y001740D03*
X000795Y001760D03*
X000775Y001770D03*
X000755Y001780D03*
X000725Y001800D03*
X000735Y001840D03*
X000775Y001870D03*
X000815Y001900D03*
X000755Y002010D03*
X000745Y002070D03*
X000765Y002080D03*
X000785Y002090D03*
X000805Y002100D03*
X000825Y002110D03*
X000845Y002120D03*
X000875Y002140D03*
X000885Y002120D03*
X000915Y002100D03*
X000985Y002040D03*
X001065Y001970D03*
X001165Y001900D03*
X001185Y001890D03*
X001205Y001880D03*
X001235Y001860D03*
X001275Y001840D03*
X001295Y001830D03*
X001315Y001820D03*
X001295Y001890D03*
X001395Y001850D03*
X001375Y001710D03*
X001375Y001690D03*
X001425Y001610D03*
X001425Y001590D03*
X001495Y001520D03*
X001505Y001500D03*
X001535Y001480D03*
X001555Y001670D03*
X001645Y001740D03*
X001635Y001760D03*
X001615Y001790D03*
X001515Y001770D03*
X001705Y001810D03*
X001545Y002130D03*
X001545Y002150D03*
X001595Y002190D03*
X001435Y002240D03*
X001375Y002150D03*
X001375Y002140D03*
X001375Y002120D03*
X001195Y001810D03*
X001015Y001340D03*
X001145Y001170D03*
X001215Y001100D03*
X001285Y001040D03*
X001045Y000730D03*
X000965Y000800D03*
X000875Y000880D03*
X000685Y001130D03*
X000565Y001390D03*
X000495Y001660D03*
X000535Y001690D03*
X000575Y001720D03*
X000615Y001750D03*
X000655Y001780D03*
X000685Y001820D03*
X000655Y001840D03*
X000635Y001850D03*
X000605Y001870D03*
X000585Y001880D03*
X000565Y001890D03*
X000535Y001910D03*
X000515Y001920D03*
X000505Y001960D03*
X000525Y001970D03*
X000575Y001990D03*
X000595Y002000D03*
X000615Y002010D03*
X000635Y002020D03*
X000655Y002030D03*
X000675Y002040D03*
X000665Y002090D03*
X000565Y002180D03*
X000525Y002210D03*
X000525Y002220D03*
X000765Y002710D03*
X000765Y002730D03*
X000995Y002950D03*
X001025Y002970D03*
X001055Y002990D03*
X001085Y003010D03*
X001115Y003030D03*
X001155Y003060D03*
X001175Y003070D03*
X001185Y003060D03*
X001205Y003050D03*
X001235Y003030D03*
X001255Y003020D03*
X001285Y003000D03*
X001315Y002980D03*
X001345Y002960D03*
X001425Y002910D03*
X001455Y002890D03*
X001475Y002880D03*
X001505Y002860D03*
X001525Y002840D03*
X001535Y002830D03*
X001505Y002830D03*
X001485Y002820D03*
X001435Y002800D03*
X001415Y002790D03*
X001385Y002740D03*
X001405Y002730D03*
X001435Y002710D03*
X001465Y002690D03*
X001485Y002680D03*
X001505Y002670D03*
X001545Y002640D03*
X001565Y002630D03*
X001595Y002610D03*
X001595Y002590D03*
X001575Y002580D03*
X001555Y002570D03*
X001535Y002560D03*
X001625Y002590D03*
X001665Y002710D03*
X001575Y002800D03*
X001725Y002870D03*
X001615Y002990D03*
X001595Y003000D03*
X001595Y003010D03*
X001685Y003220D03*
X001685Y003240D03*
X001815Y003420D03*
X001815Y003430D03*
X001815Y003440D03*
X001945Y003240D03*
X001945Y003220D03*
X001815Y003040D03*
X001815Y003030D03*
X001815Y003020D03*
X001915Y002900D03*
X001915Y002870D03*
X001985Y002730D03*
X001985Y002720D03*
X001895Y002640D03*
X001895Y002620D03*
X001945Y002510D03*
X001885Y002460D03*
X001825Y002730D03*
X001825Y002740D03*
X002095Y002840D03*
X002155Y002830D03*
X002175Y002820D03*
X002145Y002880D03*
X002175Y002900D03*
X002205Y002920D03*
X002265Y002960D03*
X002305Y002990D03*
X002335Y003010D03*
X002365Y003030D03*
X002395Y003050D03*
X002415Y003090D03*
X002435Y003080D03*
X002365Y003110D03*
X002345Y003120D03*
X002295Y003140D03*
X002275Y003150D03*
X002255Y003160D03*
X002245Y003210D03*
X002275Y003230D03*
X002305Y003250D03*
X002325Y003260D03*
X002355Y003280D03*
X002445Y003340D03*
X002475Y003360D03*
X002505Y003380D03*
X002535Y003400D03*
X002565Y003420D03*
X002585Y003430D03*
X002615Y003450D03*
X002655Y003490D03*
X002665Y003480D03*
X002685Y003470D03*
X002715Y003450D03*
X002755Y003420D03*
X002795Y003390D03*
X002825Y003370D03*
X002865Y003340D03*
X002905Y003310D03*
X002885Y003260D03*
X002955Y003280D03*
X002835Y003240D03*
X002785Y003220D03*
X002735Y003200D03*
X002685Y003180D03*
X002635Y003160D03*
X002585Y003140D03*
X002535Y003120D03*
X002485Y003100D03*
X002485Y003050D03*
X002525Y003020D03*
X002555Y003000D03*
X002585Y002980D03*
X002625Y002950D03*
X002615Y002920D03*
X002565Y002900D03*
X002515Y002880D03*
X002465Y002860D03*
X002445Y002850D03*
X002395Y002830D03*
X002345Y002810D03*
X002225Y002800D03*
X002035Y003010D03*
X002035Y003020D03*
X002195Y003170D03*
X002115Y003400D03*
X002115Y003410D03*
X002335Y003620D03*
X002365Y003620D03*
X002385Y003610D03*
X002435Y003590D03*
X002455Y003580D03*
X002475Y003570D03*
X002495Y003560D03*
X002545Y003540D03*
X002565Y003530D03*
X002585Y003520D03*
X002605Y003510D03*
X003185Y003020D03*
X002825Y002760D03*
X002825Y002740D03*
X002955Y002530D03*
X002665Y002380D03*
X002565Y002530D03*
X002565Y002550D03*
X002295Y002180D03*
X002335Y002110D03*
X002325Y002090D03*
X002265Y002040D03*
X002315Y002020D03*
X002305Y001980D03*
X002375Y001990D03*
X002385Y002080D03*
X002225Y001990D03*
X001425Y002560D03*
X001315Y002600D03*
X001235Y002630D03*
X001225Y002670D03*
X001265Y002700D03*
X001295Y002720D03*
X001355Y002760D03*
X001285Y002790D03*
X001205Y002820D03*
X001155Y002840D03*
X001075Y002870D03*
X001025Y002890D03*
X001115Y003100D03*
X001065Y003120D03*
X001015Y003140D03*
X000915Y003180D03*
X000865Y003200D03*
X000815Y003220D03*
X000765Y003240D03*
X000715Y003260D03*
X000665Y003280D03*
X000655Y003310D03*
X000685Y003330D03*
X000715Y003350D03*
X000745Y003370D03*
X000775Y003390D03*
X000805Y003410D03*
X000835Y003430D03*
X000865Y003450D03*
X000895Y003470D03*
X000975Y003480D03*
X001005Y003460D03*
X001035Y003440D03*
X001065Y003420D03*
X001095Y003400D03*
X001125Y003380D03*
X001155Y003360D03*
X001185Y003340D03*
X001215Y003320D03*
X001225Y003310D03*
X001245Y003300D03*
X001275Y003280D03*
X001305Y003260D03*
X001335Y003240D03*
X001365Y003220D03*
X001395Y003200D03*
X001375Y003160D03*
X001325Y003140D03*
X001305Y003130D03*
X001255Y003110D03*
X001235Y003100D03*
X001515Y003400D03*
X001515Y003410D03*
X001635Y003700D03*
X001995Y003710D03*
X001205Y003610D03*
X001185Y003600D03*
X001135Y003580D03*
X001085Y003560D03*
X001035Y003540D03*
X000985Y003520D03*
X000625Y003280D03*
X001055Y002510D03*
X001055Y002490D03*
X003365Y002320D03*
D13*
X003230Y001150D03*
X002210Y000440D03*
X002100Y000430D03*
X001990Y000830D03*
X001770Y000840D03*
X001180Y001340D03*
X000960Y001510D03*
X001270Y001610D03*
X001730Y001830D03*
X001680Y002080D03*
X001560Y002080D03*
X000730Y001120D03*
D14*
X000705Y001360D03*
X000625Y001370D03*
X000875Y001340D03*
X000955Y001330D03*
X001535Y001610D03*
X001835Y001350D03*
X001915Y001340D03*
X001995Y001350D03*
X001985Y001510D03*
X001965Y001780D03*
X002015Y001860D03*
X002025Y002010D03*
X001875Y002050D03*
X001915Y002440D03*
X001795Y002440D03*
X001345Y002330D03*
X002295Y002490D03*
X002465Y001760D03*
X002765Y001550D03*
X003055Y001390D03*
X003205Y001410D03*
X003355Y001430D03*
X001725Y000440D03*
D15*
X001670Y000490D03*
X001680Y000500D03*
X001690Y000510D03*
X001700Y000520D03*
X001700Y000530D03*
X001710Y000540D03*
X001720Y000550D03*
X001730Y000560D03*
X001740Y000570D03*
X001740Y000580D03*
X001750Y000590D03*
X001760Y000600D03*
X001770Y000610D03*
X001780Y000620D03*
X001780Y000630D03*
X001790Y000640D03*
X001800Y000650D03*
X001820Y000650D03*
X001830Y000640D03*
X001830Y000630D03*
X001840Y000620D03*
X001850Y000610D03*
X001850Y000600D03*
X001860Y000590D03*
X001860Y000580D03*
X001870Y000570D03*
X001870Y000560D03*
X001880Y000550D03*
X001880Y000540D03*
X001890Y000530D03*
X001890Y000520D03*
X001900Y000510D03*
X001900Y000500D03*
X001910Y000490D03*
X001910Y000480D03*
X001920Y000470D03*
X001930Y000460D03*
X001930Y000450D03*
X001940Y000440D03*
X001960Y000440D03*
X001960Y000450D03*
X001970Y000460D03*
X001970Y000470D03*
X001980Y000480D03*
X001980Y000490D03*
X001990Y000500D03*
X002000Y000510D03*
X002000Y000520D03*
X002010Y000530D03*
X002010Y000540D03*
X002020Y000550D03*
X002020Y000560D03*
X002030Y000570D03*
X002030Y000580D03*
X002040Y000590D03*
X002040Y000600D03*
X002050Y000610D03*
X002050Y000620D03*
X002060Y000630D03*
X002060Y000640D03*
X002070Y000660D03*
X002060Y000670D03*
X002060Y000680D03*
X002050Y000690D03*
X002040Y000700D03*
X002030Y000710D03*
X002020Y000720D03*
X002020Y000730D03*
X002010Y000740D03*
X002000Y000750D03*
X001990Y000760D03*
X001980Y000770D03*
X001970Y000780D03*
X001970Y000790D03*
X001960Y000800D03*
X001950Y000810D03*
X001930Y000810D03*
X001920Y000800D03*
X001910Y000790D03*
X001910Y000780D03*
X001900Y000770D03*
X001890Y000760D03*
X001880Y000750D03*
X001870Y000740D03*
X001870Y000730D03*
X001860Y000720D03*
X001850Y000710D03*
X001840Y000700D03*
X001830Y000690D03*
X001830Y000680D03*
X001810Y000680D03*
X001800Y000690D03*
X001800Y000700D03*
X001790Y000710D03*
X001790Y000720D03*
X001780Y000730D03*
X001780Y000740D03*
X001770Y000750D03*
X001770Y000760D03*
X001760Y000770D03*
X001750Y000780D03*
X001750Y000790D03*
X001740Y000800D03*
X001740Y000810D03*
X001730Y000820D03*
X001730Y000830D03*
X001710Y000830D03*
X001680Y000810D03*
X001670Y000800D03*
X001660Y000790D03*
X001650Y000780D03*
X001620Y000760D03*
X001610Y000750D03*
X001600Y000740D03*
X001560Y000740D03*
X001560Y000730D03*
X001560Y000710D03*
X001550Y000700D03*
X001540Y000690D03*
X001570Y000690D03*
X001570Y000700D03*
X001570Y000680D03*
X001580Y000670D03*
X001580Y000660D03*
X001580Y000650D03*
X001590Y000640D03*
X001590Y000630D03*
X001590Y000620D03*
X001590Y000610D03*
X001600Y000600D03*
X001600Y000590D03*
X001600Y000580D03*
X001610Y000570D03*
X001610Y000560D03*
X001610Y000550D03*
X001610Y000540D03*
X001620Y000530D03*
X001620Y000520D03*
X001620Y000510D03*
X001630Y000500D03*
X001630Y000490D03*
X001630Y000480D03*
X001640Y000470D03*
X001660Y000470D03*
X001660Y000480D03*
X001490Y000650D03*
X001500Y000660D03*
X001510Y000670D03*
X001480Y000640D03*
X001450Y000620D03*
X001440Y000610D03*
X001430Y000600D03*
X001400Y000580D03*
X001390Y000570D03*
X001380Y000560D03*
X001370Y000550D03*
X001350Y000560D03*
X001350Y000570D03*
X001350Y000580D03*
X001350Y000590D03*
X001350Y000600D03*
X001350Y000610D03*
X001350Y000620D03*
X001350Y000630D03*
X001350Y000640D03*
X001340Y000650D03*
X001340Y000660D03*
X001340Y000670D03*
X001340Y000680D03*
X001340Y000690D03*
X001340Y000700D03*
X001340Y000710D03*
X001340Y000720D03*
X001340Y000730D03*
X001340Y000740D03*
X001340Y000750D03*
X001330Y000760D03*
X001330Y000770D03*
X001330Y000780D03*
X001330Y000790D03*
X001330Y000800D03*
X001330Y000830D03*
X001330Y000840D03*
X001330Y000850D03*
X001330Y000860D03*
X001330Y000870D03*
X001320Y000880D03*
X001320Y000890D03*
X001320Y000900D03*
X001320Y000910D03*
X001320Y000920D03*
X001320Y000930D03*
X001320Y000940D03*
X001320Y000950D03*
X001320Y000960D03*
X001320Y000970D03*
X001320Y000980D03*
X001320Y000990D03*
X001310Y001000D03*
X001320Y001030D03*
X001320Y001040D03*
X001320Y001050D03*
X001320Y001060D03*
X001320Y001070D03*
X001320Y001080D03*
X001320Y001090D03*
X001320Y001100D03*
X001320Y001110D03*
X001330Y001120D03*
X001330Y001130D03*
X001330Y001140D03*
X001330Y001150D03*
X001330Y001160D03*
X001330Y001170D03*
X001330Y001180D03*
X001330Y001190D03*
X001330Y001200D03*
X001340Y001230D03*
X001340Y001240D03*
X001340Y001250D03*
X001340Y001260D03*
X001340Y001270D03*
X001340Y001280D03*
X001340Y001290D03*
X001340Y001300D03*
X001350Y001310D03*
X001350Y001320D03*
X001350Y001330D03*
X001350Y001340D03*
X001370Y001340D03*
X001380Y001330D03*
X001410Y001310D03*
X001420Y001300D03*
X001430Y001290D03*
X001440Y001280D03*
X001480Y001280D03*
X001480Y001270D03*
X001480Y001290D03*
X001480Y001300D03*
X001480Y001310D03*
X001480Y001320D03*
X001480Y001330D03*
X001480Y001340D03*
X001480Y001350D03*
X001480Y001360D03*
X001490Y001370D03*
X001490Y001380D03*
X001490Y001390D03*
X001490Y001420D03*
X001490Y001430D03*
X001490Y001440D03*
X001490Y001450D03*
X001490Y001460D03*
X001490Y001470D03*
X001500Y001480D03*
X001500Y001490D03*
X001520Y001490D03*
X001550Y001470D03*
X001560Y001460D03*
X001570Y001450D03*
X001590Y001450D03*
X001590Y001460D03*
X001590Y001470D03*
X001590Y001480D03*
X001590Y001490D03*
X001600Y001500D03*
X001600Y001510D03*
X001600Y001520D03*
X001600Y001530D03*
X001600Y001560D03*
X001600Y001570D03*
X001600Y001580D03*
X001600Y001590D03*
X001600Y001600D03*
X001600Y001610D03*
X001620Y001610D03*
X001610Y001630D03*
X001610Y001640D03*
X001610Y001650D03*
X001620Y001660D03*
X001620Y001670D03*
X001620Y001680D03*
X001630Y001710D03*
X001630Y001720D03*
X001640Y001730D03*
X001660Y001730D03*
X001670Y001720D03*
X001690Y001720D03*
X001690Y001730D03*
X001690Y001740D03*
X001700Y001770D03*
X001700Y001780D03*
X001700Y001790D03*
X001720Y001790D03*
X001720Y001780D03*
X001740Y001780D03*
X001740Y001790D03*
X001750Y001810D03*
X001720Y001820D03*
X001700Y001820D03*
X001700Y001850D03*
X001700Y001860D03*
X001680Y001860D03*
X001680Y001850D03*
X001670Y001820D03*
X001670Y001810D03*
X001660Y001790D03*
X001650Y001780D03*
X001650Y001770D03*
X001630Y001770D03*
X001620Y001780D03*
X001600Y001780D03*
X001600Y001770D03*
X001590Y001760D03*
X001580Y001740D03*
X001570Y001730D03*
X001570Y001720D03*
X001560Y001710D03*
X001560Y001700D03*
X001550Y001690D03*
X001540Y001700D03*
X001540Y001710D03*
X001530Y001720D03*
X001530Y001730D03*
X001520Y001740D03*
X001520Y001750D03*
X001500Y001750D03*
X001500Y001740D03*
X001490Y001730D03*
X001490Y001720D03*
X001480Y001710D03*
X001480Y001700D03*
X001470Y001680D03*
X001460Y001670D03*
X001460Y001660D03*
X001450Y001650D03*
X001450Y001640D03*
X001440Y001630D03*
X001440Y001620D03*
X001410Y001620D03*
X001410Y001630D03*
X001400Y001640D03*
X001400Y001650D03*
X001390Y001660D03*
X001390Y001670D03*
X001380Y001680D03*
X001360Y001680D03*
X001350Y001670D03*
X001350Y001660D03*
X001340Y001650D03*
X001340Y001640D03*
X001330Y001630D03*
X001330Y001620D03*
X001310Y001590D03*
X001310Y001580D03*
X001300Y001570D03*
X001300Y001560D03*
X001290Y001550D03*
X001280Y001540D03*
X001280Y001530D03*
X001270Y001520D03*
X001270Y001510D03*
X001260Y001500D03*
X001240Y001500D03*
X001240Y001510D03*
X001230Y001520D03*
X001230Y001530D03*
X001220Y001540D03*
X001220Y001550D03*
X001210Y001560D03*
X001210Y001570D03*
X001200Y001580D03*
X001200Y001590D03*
X001190Y001600D03*
X001190Y001610D03*
X001170Y001610D03*
X001170Y001600D03*
X001160Y001590D03*
X001160Y001580D03*
X001150Y001570D03*
X001150Y001560D03*
X001140Y001550D03*
X001140Y001540D03*
X001130Y001530D03*
X001120Y001520D03*
X001120Y001510D03*
X001100Y001480D03*
X001100Y001470D03*
X001090Y001460D03*
X001090Y001450D03*
X001080Y001440D03*
X001070Y001430D03*
X001070Y001420D03*
X001060Y001410D03*
X001060Y001400D03*
X001050Y001390D03*
X001050Y001380D03*
X001040Y001370D03*
X001040Y001360D03*
X001030Y001350D03*
X001000Y001350D03*
X001000Y001360D03*
X000990Y001370D03*
X000990Y001380D03*
X000980Y001390D03*
X000980Y001400D03*
X000970Y001410D03*
X000970Y001420D03*
X000960Y001430D03*
X000960Y001440D03*
X000950Y001450D03*
X000950Y001460D03*
X000940Y001470D03*
X000940Y001480D03*
X000930Y001490D03*
X000930Y001500D03*
X000910Y001500D03*
X000900Y001490D03*
X000900Y001480D03*
X000890Y001470D03*
X000880Y001460D03*
X000880Y001450D03*
X000870Y001440D03*
X000870Y001430D03*
X000860Y001420D03*
X000860Y001410D03*
X000850Y001400D03*
X000840Y001390D03*
X000840Y001380D03*
X000830Y001370D03*
X000830Y001360D03*
X000810Y001340D03*
X000810Y001330D03*
X000800Y001320D03*
X000800Y001310D03*
X000790Y001300D03*
X000790Y001290D03*
X000780Y001280D03*
X000770Y001270D03*
X000770Y001260D03*
X000760Y001250D03*
X000760Y001240D03*
X000750Y001230D03*
X000750Y001220D03*
X000740Y001210D03*
X000730Y001200D03*
X000730Y001190D03*
X000720Y001180D03*
X000720Y001170D03*
X000710Y001160D03*
X000710Y001150D03*
X000700Y001140D03*
X000670Y001140D03*
X000670Y001150D03*
X000660Y001160D03*
X000660Y001170D03*
X000660Y001180D03*
X000650Y001190D03*
X000650Y001200D03*
X000640Y001210D03*
X000640Y001220D03*
X000630Y001230D03*
X000630Y001240D03*
X000620Y001250D03*
X000620Y001260D03*
X000610Y001270D03*
X000610Y001280D03*
X000600Y001290D03*
X000600Y001300D03*
X000590Y001310D03*
X000590Y001320D03*
X000580Y001330D03*
X000580Y001340D03*
X000570Y001350D03*
X000570Y001360D03*
X000560Y001370D03*
X000550Y001400D03*
X000550Y001410D03*
X000550Y001420D03*
X000550Y001430D03*
X000540Y001440D03*
X000540Y001450D03*
X000540Y001460D03*
X000540Y001470D03*
X000530Y001480D03*
X000530Y001490D03*
X000530Y001500D03*
X000530Y001510D03*
X000520Y001520D03*
X000520Y001530D03*
X000520Y001540D03*
X000520Y001550D03*
X000510Y001560D03*
X000510Y001570D03*
X000510Y001580D03*
X000510Y001590D03*
X000500Y001600D03*
X000500Y001610D03*
X000500Y001620D03*
X000500Y001630D03*
X000490Y001640D03*
X000490Y001670D03*
X000490Y001680D03*
X000490Y001690D03*
X000480Y001700D03*
X000480Y001710D03*
X000480Y001720D03*
X000480Y001730D03*
X000480Y001740D03*
X000480Y001750D03*
X000480Y001760D03*
X000480Y001770D03*
X000480Y001780D03*
X000480Y001790D03*
X000480Y001800D03*
X000480Y001810D03*
X000480Y001820D03*
X000480Y001830D03*
X000480Y001840D03*
X000480Y001850D03*
X000480Y001860D03*
X000480Y001870D03*
X000480Y001880D03*
X000480Y001890D03*
X000480Y001900D03*
X000480Y001910D03*
X000480Y001920D03*
X000480Y001930D03*
X000500Y001930D03*
X000480Y001960D03*
X000480Y001970D03*
X000480Y001980D03*
X000480Y001990D03*
X000480Y002000D03*
X000480Y002010D03*
X000490Y002020D03*
X000490Y002030D03*
X000490Y002040D03*
X000490Y002050D03*
X000490Y002060D03*
X000490Y002070D03*
X000500Y002080D03*
X000500Y002090D03*
X000500Y002100D03*
X000500Y002110D03*
X000500Y002120D03*
X000500Y002130D03*
X000510Y002140D03*
X000510Y002150D03*
X000510Y002160D03*
X000510Y002170D03*
X000510Y002180D03*
X000510Y002190D03*
X000520Y002200D03*
X000540Y002200D03*
X000550Y002190D03*
X000580Y002170D03*
X000590Y002160D03*
X000600Y002150D03*
X000610Y002140D03*
X000620Y002130D03*
X000630Y002120D03*
X000640Y002110D03*
X000650Y002100D03*
X000680Y002080D03*
X000690Y002070D03*
X000720Y002040D03*
X000730Y002030D03*
X000740Y002020D03*
X000770Y002000D03*
X000780Y001990D03*
X000790Y001980D03*
X000800Y001970D03*
X000810Y001960D03*
X000820Y001950D03*
X000830Y001940D03*
X000850Y001940D03*
X000850Y001950D03*
X000850Y001960D03*
X000860Y001970D03*
X000860Y001980D03*
X000860Y001990D03*
X000860Y002000D03*
X000860Y002010D03*
X000860Y002020D03*
X000870Y002030D03*
X000870Y002040D03*
X000870Y002050D03*
X000870Y002060D03*
X000870Y002070D03*
X000870Y002080D03*
X000870Y002090D03*
X000880Y002100D03*
X000880Y002110D03*
X000900Y002110D03*
X000930Y002090D03*
X000940Y002080D03*
X000950Y002070D03*
X000960Y002060D03*
X000970Y002050D03*
X001000Y002030D03*
X001010Y002020D03*
X001030Y002000D03*
X001040Y001990D03*
X001050Y001980D03*
X001080Y001960D03*
X001090Y001950D03*
X001100Y001940D03*
X001110Y001930D03*
X001130Y001930D03*
X001130Y001940D03*
X001130Y001950D03*
X001130Y001960D03*
X001130Y001970D03*
X001130Y001980D03*
X001140Y001990D03*
X001140Y002000D03*
X001140Y002010D03*
X001140Y002020D03*
X001140Y002030D03*
X001140Y002040D03*
X001140Y002050D03*
X001160Y002060D03*
X001170Y002050D03*
X001150Y002080D03*
X001150Y002090D03*
X001160Y002100D03*
X001160Y002110D03*
X001160Y002120D03*
X001170Y002130D03*
X001170Y002140D03*
X001170Y002150D03*
X001180Y002160D03*
X001180Y002170D03*
X001180Y002180D03*
X001190Y002190D03*
X001210Y002190D03*
X001220Y002180D03*
X001230Y002170D03*
X001240Y002160D03*
X001240Y002150D03*
X001250Y002140D03*
X001260Y002130D03*
X001270Y002120D03*
X001290Y002090D03*
X001300Y002080D03*
X001310Y002070D03*
X001310Y002060D03*
X001320Y002050D03*
X001330Y002040D03*
X001350Y002040D03*
X001350Y002050D03*
X001350Y002060D03*
X001360Y002070D03*
X001360Y002080D03*
X001360Y002090D03*
X001370Y002100D03*
X001370Y002110D03*
X001390Y002110D03*
X001400Y002100D03*
X001410Y002090D03*
X001420Y002080D03*
X001420Y002070D03*
X001450Y002040D03*
X001460Y002030D03*
X001470Y002020D03*
X001470Y002010D03*
X001490Y002010D03*
X001490Y002020D03*
X001490Y002030D03*
X001500Y002040D03*
X001500Y002050D03*
X001500Y002060D03*
X001520Y002060D03*
X001530Y002050D03*
X001530Y002040D03*
X001540Y002030D03*
X001560Y002010D03*
X001570Y002000D03*
X001600Y002000D03*
X001600Y002010D03*
X001600Y002020D03*
X001620Y002020D03*
X001620Y002010D03*
X001630Y002000D03*
X001650Y001980D03*
X001670Y001980D03*
X001670Y001990D03*
X001670Y002020D03*
X001670Y002030D03*
X001690Y002020D03*
X001710Y002020D03*
X001720Y002000D03*
X001700Y001990D03*
X001730Y001970D03*
X001720Y001940D03*
X001690Y001950D03*
X001670Y001950D03*
X001670Y001940D03*
X001640Y001940D03*
X001650Y001910D03*
X001670Y001900D03*
X001650Y001860D03*
X001630Y001830D03*
X001620Y001820D03*
X001600Y001820D03*
X001600Y001830D03*
X001600Y001840D03*
X001580Y001840D03*
X001570Y001830D03*
X001550Y001810D03*
X001540Y001800D03*
X001540Y001790D03*
X001530Y001780D03*
X001500Y001780D03*
X001500Y001790D03*
X001500Y001800D03*
X001490Y001810D03*
X001490Y001820D03*
X001470Y001820D03*
X001460Y001810D03*
X001450Y001800D03*
X001440Y001790D03*
X001430Y001770D03*
X001420Y001760D03*
X001410Y001750D03*
X001400Y001740D03*
X001400Y001730D03*
X001390Y001720D03*
X001360Y001720D03*
X001360Y001730D03*
X001360Y001740D03*
X001360Y001750D03*
X001350Y001760D03*
X001350Y001770D03*
X001350Y001780D03*
X001340Y001790D03*
X001320Y001790D03*
X001310Y001780D03*
X001300Y001770D03*
X001300Y001760D03*
X001290Y001750D03*
X001280Y001740D03*
X001260Y001720D03*
X001250Y001710D03*
X001250Y001700D03*
X001240Y001690D03*
X001230Y001680D03*
X001220Y001670D03*
X001210Y001660D03*
X001200Y001650D03*
X001200Y001640D03*
X001170Y001640D03*
X001170Y001650D03*
X001170Y001660D03*
X001170Y001670D03*
X001160Y001680D03*
X001160Y001690D03*
X001160Y001700D03*
X001150Y001710D03*
X001150Y001720D03*
X001150Y001730D03*
X001150Y001740D03*
X001140Y001750D03*
X001120Y001750D03*
X001110Y001740D03*
X001100Y001730D03*
X001100Y001720D03*
X001090Y001710D03*
X001080Y001700D03*
X001070Y001690D03*
X001060Y001680D03*
X001050Y001670D03*
X001030Y001650D03*
X001030Y001640D03*
X001020Y001630D03*
X001010Y001620D03*
X001000Y001610D03*
X000990Y001600D03*
X000980Y001590D03*
X000970Y001580D03*
X000970Y001570D03*
X000960Y001560D03*
X000950Y001550D03*
X000940Y001540D03*
X000930Y001530D03*
X000910Y001530D03*
X000910Y001540D03*
X000910Y001550D03*
X000910Y001560D03*
X000900Y001570D03*
X000900Y001580D03*
X000900Y001590D03*
X000900Y001600D03*
X000890Y001610D03*
X000890Y001620D03*
X000890Y001630D03*
X000880Y001640D03*
X000880Y001650D03*
X000880Y001660D03*
X000880Y001670D03*
X000870Y001680D03*
X000870Y001690D03*
X000870Y001700D03*
X000850Y001700D03*
X000840Y001690D03*
X000830Y001680D03*
X000820Y001670D03*
X000810Y001660D03*
X000800Y001650D03*
X000790Y001640D03*
X000780Y001630D03*
X000780Y001620D03*
X000770Y001610D03*
X000760Y001600D03*
X000750Y001590D03*
X000720Y001560D03*
X000710Y001550D03*
X000700Y001540D03*
X000700Y001530D03*
X000690Y001520D03*
X000680Y001510D03*
X000670Y001500D03*
X000660Y001490D03*
X000650Y001480D03*
X000640Y001470D03*
X000630Y001460D03*
X000630Y001450D03*
X000620Y001440D03*
X000610Y001430D03*
X000600Y001420D03*
X000590Y001410D03*
X000580Y001400D03*
X000510Y001670D03*
X000520Y001680D03*
X000550Y001700D03*
X000560Y001710D03*
X000590Y001730D03*
X000600Y001740D03*
X000630Y001760D03*
X000640Y001770D03*
X000670Y001790D03*
X000680Y001800D03*
X000670Y001830D03*
X000710Y001820D03*
X000720Y001830D03*
X000750Y001850D03*
X000760Y001860D03*
X000790Y001880D03*
X000800Y001890D03*
X000830Y001910D03*
X000850Y001910D03*
X000850Y001900D03*
X000850Y001890D03*
X000850Y001880D03*
X000850Y001870D03*
X000860Y001860D03*
X000860Y001850D03*
X000860Y001840D03*
X000860Y001830D03*
X000860Y001820D03*
X000860Y001810D03*
X000860Y001800D03*
X000860Y001790D03*
X000860Y001780D03*
X000860Y001770D03*
X000860Y001760D03*
X000860Y001750D03*
X000860Y001740D03*
X000890Y001740D03*
X000900Y001750D03*
X000930Y001770D03*
X000940Y001780D03*
X000950Y001790D03*
X000980Y001810D03*
X000990Y001820D03*
X001030Y001850D03*
X001040Y001820D03*
X001060Y001870D03*
X001070Y001880D03*
X001080Y001890D03*
X001110Y001910D03*
X001130Y001900D03*
X001130Y001890D03*
X001130Y001880D03*
X001130Y001870D03*
X001130Y001860D03*
X001130Y001850D03*
X001130Y001840D03*
X001130Y001830D03*
X001130Y001820D03*
X001130Y001810D03*
X001130Y001800D03*
X001140Y001790D03*
X001140Y001780D03*
X001160Y001780D03*
X001170Y001790D03*
X001180Y001800D03*
X001210Y001820D03*
X001220Y001830D03*
X001230Y001840D03*
X001220Y001870D03*
X001260Y001860D03*
X001270Y001870D03*
X001280Y001880D03*
X001310Y001900D03*
X001330Y001900D03*
X001330Y001890D03*
X001330Y001880D03*
X001330Y001870D03*
X001330Y001860D03*
X001330Y001850D03*
X001340Y001840D03*
X001340Y001830D03*
X001340Y001820D03*
X001360Y001820D03*
X001370Y001830D03*
X001380Y001840D03*
X001410Y001860D03*
X001400Y001880D03*
X001430Y001880D03*
X001440Y001890D03*
X001460Y001930D03*
X001480Y001930D03*
X001480Y001940D03*
X001480Y001950D03*
X001480Y001960D03*
X001480Y001970D03*
X001480Y001980D03*
X001500Y001990D03*
X001510Y001980D03*
X001540Y001960D03*
X001560Y001960D03*
X001560Y001940D03*
X001590Y001940D03*
X001590Y001950D03*
X001590Y001960D03*
X001610Y001960D03*
X001570Y001910D03*
X001560Y001900D03*
X001590Y001900D03*
X001590Y001890D03*
X001590Y001880D03*
X001530Y001880D03*
X001520Y001870D03*
X001510Y001860D03*
X001500Y001850D03*
X001480Y001850D03*
X001480Y001860D03*
X001480Y001870D03*
X001480Y001880D03*
X001480Y001890D03*
X001480Y001900D03*
X001430Y001950D03*
X001410Y001970D03*
X001400Y001980D03*
X001370Y002000D03*
X001360Y002010D03*
X001340Y002010D03*
X001340Y002000D03*
X001340Y001990D03*
X001340Y001980D03*
X001330Y001970D03*
X001330Y001960D03*
X001330Y001950D03*
X001330Y001940D03*
X001300Y001940D03*
X001290Y001950D03*
X001280Y001960D03*
X001270Y001970D03*
X001240Y001990D03*
X001230Y002000D03*
X001220Y002010D03*
X001210Y002020D03*
X001200Y002030D03*
X001190Y001950D03*
X001130Y002080D03*
X001130Y002090D03*
X001120Y002100D03*
X001110Y002110D03*
X001100Y002120D03*
X001100Y002130D03*
X001090Y002140D03*
X001080Y002150D03*
X001070Y002160D03*
X001070Y002170D03*
X001050Y002190D03*
X001040Y002200D03*
X001040Y002210D03*
X001030Y002220D03*
X001020Y002230D03*
X001010Y002240D03*
X001000Y002250D03*
X001000Y002260D03*
X000990Y002270D03*
X000980Y002280D03*
X000970Y002290D03*
X000970Y002300D03*
X000960Y002310D03*
X000940Y002310D03*
X000940Y002300D03*
X000930Y002290D03*
X000930Y002280D03*
X000930Y002270D03*
X000920Y002260D03*
X000920Y002250D03*
X000920Y002240D03*
X000910Y002230D03*
X000910Y002220D03*
X000910Y002210D03*
X000900Y002200D03*
X000900Y002190D03*
X000890Y002180D03*
X000890Y002170D03*
X000890Y002160D03*
X000880Y002150D03*
X000860Y002150D03*
X000860Y002160D03*
X000850Y002170D03*
X000840Y002180D03*
X000830Y002190D03*
X000830Y002200D03*
X000820Y002210D03*
X000810Y002220D03*
X000800Y002230D03*
X000800Y002240D03*
X000790Y002250D03*
X000780Y002260D03*
X000780Y002270D03*
X000760Y002290D03*
X000750Y002300D03*
X000750Y002310D03*
X000740Y002320D03*
X000730Y002330D03*
X000720Y002340D03*
X000720Y002350D03*
X000710Y002360D03*
X000700Y002370D03*
X000690Y002380D03*
X000690Y002390D03*
X000680Y002400D03*
X000670Y002410D03*
X000660Y002420D03*
X000660Y002430D03*
X000650Y002440D03*
X000640Y002450D03*
X000630Y002460D03*
X000630Y002470D03*
X000610Y002470D03*
X000610Y002460D03*
X000600Y002450D03*
X000600Y002440D03*
X000590Y002430D03*
X000590Y002420D03*
X000590Y002410D03*
X000580Y002400D03*
X000580Y002390D03*
X000570Y002380D03*
X000570Y002370D03*
X000570Y002360D03*
X000560Y002350D03*
X000560Y002340D03*
X000560Y002330D03*
X000550Y002320D03*
X000550Y002310D03*
X000540Y002300D03*
X000540Y002290D03*
X000540Y002280D03*
X000530Y002270D03*
X000530Y002260D03*
X000520Y002250D03*
X000520Y002240D03*
X000520Y002230D03*
X000620Y002490D03*
X000620Y002500D03*
X000630Y002510D03*
X000640Y002520D03*
X000640Y002530D03*
X000650Y002540D03*
X000660Y002550D03*
X000660Y002560D03*
X000670Y002570D03*
X000670Y002580D03*
X000680Y002590D03*
X000690Y002600D03*
X000690Y002610D03*
X000700Y002620D03*
X000710Y002630D03*
X000710Y002640D03*
X000720Y002650D03*
X000730Y002660D03*
X000730Y002670D03*
X000740Y002680D03*
X000740Y002690D03*
X000750Y002700D03*
X000770Y002700D03*
X000780Y002690D03*
X000780Y002680D03*
X000790Y002670D03*
X000790Y002660D03*
X000800Y002650D03*
X000800Y002640D03*
X000810Y002630D03*
X000810Y002620D03*
X000820Y002610D03*
X000820Y002600D03*
X000830Y002590D03*
X000830Y002580D03*
X000840Y002570D03*
X000840Y002560D03*
X000840Y002550D03*
X000850Y002540D03*
X000850Y002530D03*
X000860Y002520D03*
X000860Y002510D03*
X000870Y002500D03*
X000880Y002480D03*
X000880Y002470D03*
X000890Y002460D03*
X000890Y002450D03*
X000900Y002440D03*
X000900Y002430D03*
X000910Y002420D03*
X000910Y002410D03*
X000910Y002400D03*
X000920Y002390D03*
X000920Y002380D03*
X000930Y002370D03*
X000930Y002360D03*
X000940Y002350D03*
X000940Y002340D03*
X000960Y002340D03*
X000960Y002350D03*
X000970Y002360D03*
X000970Y002370D03*
X000980Y002380D03*
X000990Y002390D03*
X000990Y002400D03*
X001000Y002410D03*
X001010Y002420D03*
X001010Y002430D03*
X001020Y002440D03*
X001020Y002450D03*
X001030Y002460D03*
X001040Y002470D03*
X001040Y002480D03*
X001070Y002480D03*
X001070Y002470D03*
X001080Y002460D03*
X001080Y002450D03*
X001080Y002440D03*
X001090Y002430D03*
X001090Y002420D03*
X001100Y002410D03*
X001100Y002400D03*
X001110Y002390D03*
X001110Y002380D03*
X001120Y002370D03*
X001120Y002360D03*
X001130Y002350D03*
X001130Y002340D03*
X001140Y002320D03*
X001150Y002310D03*
X001150Y002300D03*
X001160Y002290D03*
X001160Y002280D03*
X001170Y002270D03*
X001170Y002260D03*
X001180Y002250D03*
X001180Y002240D03*
X001210Y002240D03*
X001220Y002250D03*
X001220Y002260D03*
X001230Y002270D03*
X001230Y002280D03*
X001240Y002290D03*
X001250Y002300D03*
X001250Y002310D03*
X001260Y002320D03*
X001260Y002330D03*
X001280Y002330D03*
X001280Y002320D03*
X001290Y002310D03*
X001290Y002300D03*
X001300Y002290D03*
X001300Y002280D03*
X001310Y002270D03*
X001310Y002260D03*
X001320Y002250D03*
X001320Y002240D03*
X001330Y002230D03*
X001340Y002210D03*
X001340Y002200D03*
X001350Y002190D03*
X001350Y002180D03*
X001360Y002170D03*
X001360Y002160D03*
X001390Y002160D03*
X001390Y002170D03*
X001400Y002180D03*
X001410Y002190D03*
X001410Y002200D03*
X001420Y002210D03*
X001420Y002220D03*
X001440Y002210D03*
X001450Y002200D03*
X001450Y002190D03*
X001460Y002180D03*
X001460Y002170D03*
X001470Y002160D03*
X001470Y002150D03*
X001480Y002130D03*
X001490Y002120D03*
X001490Y002110D03*
X001500Y002100D03*
X001500Y002090D03*
X001520Y002090D03*
X001520Y002100D03*
X001530Y002110D03*
X001540Y002120D03*
X001560Y002120D03*
X001560Y002110D03*
X001570Y002100D03*
X001570Y002090D03*
X001590Y002070D03*
X001590Y002060D03*
X001620Y002060D03*
X001620Y002070D03*
X001650Y002070D03*
X001650Y002060D03*
X001660Y002050D03*
X001690Y002060D03*
X001690Y002070D03*
X001680Y002090D03*
X001680Y002100D03*
X001680Y002110D03*
X001650Y002110D03*
X001650Y002100D03*
X001630Y002100D03*
X001630Y002110D03*
X001620Y002120D03*
X001620Y002130D03*
X001610Y002150D03*
X001610Y002160D03*
X001610Y002170D03*
X001600Y002180D03*
X001580Y002180D03*
X001570Y002170D03*
X001560Y002160D03*
X001540Y002160D03*
X001540Y002170D03*
X001540Y002180D03*
X001530Y002190D03*
X001530Y002200D03*
X001520Y002230D03*
X001520Y002240D03*
X001520Y002250D03*
X001510Y002260D03*
X001510Y002270D03*
X001510Y002280D03*
X001510Y002290D03*
X001480Y002290D03*
X001470Y002280D03*
X001460Y002270D03*
X001460Y002260D03*
X001450Y002250D03*
X001420Y002250D03*
X001420Y002260D03*
X001420Y002270D03*
X001410Y002280D03*
X001410Y002290D03*
X001410Y002300D03*
X001410Y002310D03*
X001400Y002330D03*
X001400Y002340D03*
X001400Y002350D03*
X001390Y002360D03*
X001390Y002370D03*
X001390Y002380D03*
X001390Y002390D03*
X001380Y002400D03*
X001380Y002410D03*
X001380Y002420D03*
X001370Y002430D03*
X001350Y002430D03*
X001340Y002420D03*
X001330Y002410D03*
X001320Y002400D03*
X001310Y002390D03*
X001300Y002380D03*
X001300Y002370D03*
X001290Y002360D03*
X001260Y002360D03*
X001260Y002370D03*
X001260Y002380D03*
X001260Y002390D03*
X001250Y002400D03*
X001250Y002410D03*
X001250Y002420D03*
X001250Y002430D03*
X001240Y002440D03*
X001240Y002450D03*
X001240Y002460D03*
X001230Y002480D03*
X001230Y002490D03*
X001230Y002500D03*
X001220Y002510D03*
X001220Y002520D03*
X001220Y002530D03*
X001220Y002540D03*
X001210Y002550D03*
X001210Y002560D03*
X001210Y002570D03*
X001210Y002580D03*
X001200Y002590D03*
X001200Y002600D03*
X001200Y002610D03*
X001200Y002620D03*
X001190Y002630D03*
X001170Y002630D03*
X001160Y002620D03*
X001150Y002610D03*
X001140Y002600D03*
X001130Y002590D03*
X001130Y002580D03*
X001120Y002570D03*
X001110Y002560D03*
X001100Y002550D03*
X001090Y002540D03*
X001080Y002530D03*
X001070Y002520D03*
X001050Y002520D03*
X001040Y002530D03*
X001040Y002540D03*
X001040Y002550D03*
X001040Y002560D03*
X001030Y002570D03*
X001030Y002580D03*
X001030Y002590D03*
X001030Y002600D03*
X001030Y002610D03*
X001020Y002620D03*
X001020Y002630D03*
X001020Y002640D03*
X001020Y002650D03*
X001010Y002660D03*
X001010Y002670D03*
X001010Y002690D03*
X001000Y002700D03*
X001000Y002710D03*
X001000Y002720D03*
X001000Y002730D03*
X000990Y002740D03*
X000990Y002750D03*
X000990Y002760D03*
X000990Y002770D03*
X000980Y002780D03*
X000980Y002790D03*
X000980Y002800D03*
X000980Y002810D03*
X000970Y002820D03*
X000970Y002830D03*
X000970Y002840D03*
X000970Y002850D03*
X000970Y002860D03*
X000960Y002870D03*
X000960Y002880D03*
X000960Y002890D03*
X000960Y002900D03*
X000930Y002900D03*
X000920Y002890D03*
X000910Y002880D03*
X000900Y002870D03*
X000890Y002860D03*
X000890Y002850D03*
X000880Y002840D03*
X000870Y002830D03*
X000860Y002820D03*
X000850Y002810D03*
X000840Y002800D03*
X000830Y002790D03*
X000820Y002780D03*
X000810Y002770D03*
X000800Y002760D03*
X000790Y002750D03*
X000780Y002740D03*
X000760Y002740D03*
X000750Y002750D03*
X000750Y002760D03*
X000750Y002770D03*
X000750Y002780D03*
X000750Y002790D03*
X000740Y002800D03*
X000740Y002810D03*
X000740Y002820D03*
X000740Y002830D03*
X000730Y002840D03*
X000730Y002850D03*
X000730Y002860D03*
X000730Y002870D03*
X000730Y002880D03*
X000720Y002890D03*
X000720Y002900D03*
X000720Y002910D03*
X000720Y002920D03*
X000710Y002930D03*
X000710Y002940D03*
X000710Y002950D03*
X000700Y002980D03*
X000700Y002990D03*
X000700Y003000D03*
X000700Y003010D03*
X000690Y003020D03*
X000690Y003030D03*
X000690Y003040D03*
X000690Y003050D03*
X000680Y003060D03*
X000680Y003070D03*
X000680Y003080D03*
X000680Y003090D03*
X000680Y003100D03*
X000670Y003110D03*
X000670Y003120D03*
X000670Y003130D03*
X000670Y003140D03*
X000660Y003150D03*
X000660Y003160D03*
X000660Y003170D03*
X000660Y003180D03*
X000660Y003190D03*
X000650Y003200D03*
X000650Y003210D03*
X000650Y003220D03*
X000650Y003230D03*
X000640Y003240D03*
X000640Y003250D03*
X000640Y003260D03*
X000640Y003270D03*
X000640Y003300D03*
X000670Y003320D03*
X000700Y003340D03*
X000730Y003360D03*
X000760Y003380D03*
X000790Y003400D03*
X000820Y003420D03*
X000850Y003440D03*
X000880Y003460D03*
X000910Y003480D03*
X000940Y003480D03*
X000940Y003470D03*
X000940Y003460D03*
X000940Y003450D03*
X000940Y003440D03*
X000940Y003430D03*
X000940Y003420D03*
X000940Y003410D03*
X000940Y003400D03*
X000940Y003390D03*
X000940Y003380D03*
X000940Y003370D03*
X000940Y003360D03*
X000940Y003350D03*
X000940Y003340D03*
X000940Y003330D03*
X000940Y003320D03*
X000940Y003310D03*
X000940Y003300D03*
X000940Y003290D03*
X000940Y003280D03*
X000940Y003270D03*
X000940Y003260D03*
X000940Y003250D03*
X000940Y003240D03*
X000940Y003230D03*
X000940Y003220D03*
X000940Y003210D03*
X000940Y003200D03*
X000940Y003190D03*
X000940Y003180D03*
X000950Y003150D03*
X000950Y003140D03*
X000950Y003130D03*
X000950Y003120D03*
X000950Y003110D03*
X000950Y003100D03*
X000950Y003090D03*
X000950Y003080D03*
X000950Y003070D03*
X000950Y003060D03*
X000950Y003050D03*
X000950Y003040D03*
X000950Y003030D03*
X000950Y003020D03*
X000950Y003010D03*
X000950Y003000D03*
X000950Y002990D03*
X000950Y002980D03*
X000950Y002970D03*
X000950Y002960D03*
X000950Y002950D03*
X000950Y002940D03*
X000980Y002940D03*
X001010Y002960D03*
X001040Y002980D03*
X001070Y003000D03*
X001100Y003020D03*
X001130Y003040D03*
X001140Y003050D03*
X001180Y003050D03*
X001180Y003040D03*
X001180Y003030D03*
X001180Y003020D03*
X001180Y003010D03*
X001180Y003000D03*
X001180Y002990D03*
X001180Y002980D03*
X001180Y002970D03*
X001180Y002960D03*
X001180Y002950D03*
X001180Y002940D03*
X001180Y002930D03*
X001180Y002920D03*
X001180Y002910D03*
X001180Y002900D03*
X001180Y002890D03*
X001180Y002880D03*
X001180Y002870D03*
X001180Y002860D03*
X001180Y002850D03*
X001180Y002840D03*
X001180Y002820D03*
X001180Y002810D03*
X001180Y002800D03*
X001180Y002790D03*
X001180Y002780D03*
X001190Y002770D03*
X001190Y002760D03*
X001190Y002750D03*
X001190Y002740D03*
X001190Y002730D03*
X001190Y002720D03*
X001190Y002710D03*
X001190Y002700D03*
X001190Y002690D03*
X001190Y002680D03*
X001190Y002670D03*
X001190Y002660D03*
X001210Y002660D03*
X001240Y002680D03*
X001250Y002690D03*
X001280Y002710D03*
X001310Y002730D03*
X001320Y002740D03*
X001350Y002740D03*
X001350Y002730D03*
X001350Y002720D03*
X001360Y002710D03*
X001360Y002700D03*
X001360Y002690D03*
X001360Y002680D03*
X001360Y002670D03*
X001360Y002660D03*
X001360Y002650D03*
X001360Y002640D03*
X001360Y002630D03*
X001360Y002620D03*
X001360Y002610D03*
X001360Y002600D03*
X001360Y002570D03*
X001360Y002560D03*
X001360Y002550D03*
X001360Y002540D03*
X001360Y002530D03*
X001360Y002520D03*
X001360Y002510D03*
X001360Y002500D03*
X001370Y002490D03*
X001370Y002480D03*
X001370Y002470D03*
X001400Y002470D03*
X001410Y002480D03*
X001440Y002500D03*
X001450Y002510D03*
X001490Y002510D03*
X001490Y002500D03*
X001490Y002490D03*
X001490Y002480D03*
X001490Y002470D03*
X001490Y002460D03*
X001490Y002450D03*
X001490Y002440D03*
X001490Y002430D03*
X001490Y002420D03*
X001490Y002390D03*
X001490Y002380D03*
X001500Y002370D03*
X001500Y002360D03*
X001500Y002350D03*
X001500Y002340D03*
X001500Y002330D03*
X001530Y002330D03*
X001540Y002340D03*
X001570Y002360D03*
X001590Y002350D03*
X001590Y002340D03*
X001590Y002330D03*
X001590Y002320D03*
X001590Y002310D03*
X001590Y002300D03*
X001590Y002290D03*
X001590Y002260D03*
X001590Y002250D03*
X001600Y002240D03*
X001600Y002230D03*
X001600Y002220D03*
X001620Y002220D03*
X001630Y002230D03*
X001660Y002230D03*
X001660Y002220D03*
X001660Y002210D03*
X001660Y002200D03*
X001670Y002170D03*
X001670Y002160D03*
X001670Y002150D03*
X001720Y002150D03*
X001720Y002140D03*
X001720Y002130D03*
X001720Y002100D03*
X001730Y002060D03*
X001740Y002050D03*
X001740Y002030D03*
X001770Y002020D03*
X001790Y002040D03*
X001790Y002070D03*
X001790Y002100D03*
X001790Y002120D03*
X001800Y002140D03*
X001800Y002150D03*
X001820Y002150D03*
X001840Y002150D03*
X001850Y002170D03*
X001860Y002180D03*
X001860Y002190D03*
X001840Y002190D03*
X001840Y002180D03*
X001810Y002180D03*
X001810Y002190D03*
X001810Y002220D03*
X001830Y002220D03*
X001830Y002230D03*
X001840Y002240D03*
X001860Y002240D03*
X001860Y002230D03*
X001890Y002230D03*
X001910Y002250D03*
X001920Y002260D03*
X001930Y002270D03*
X001930Y002280D03*
X001940Y002290D03*
X001960Y002280D03*
X001960Y002270D03*
X001960Y002260D03*
X001970Y002250D03*
X001990Y002250D03*
X002020Y002250D03*
X002020Y002240D03*
X002020Y002230D03*
X002020Y002220D03*
X002030Y002190D03*
X002030Y002180D03*
X002030Y002170D03*
X002020Y002140D03*
X002020Y002130D03*
X002020Y002120D03*
X002020Y002100D03*
X002020Y002090D03*
X002000Y002090D03*
X001990Y002110D03*
X001990Y002120D03*
X001980Y002150D03*
X001980Y002160D03*
X001980Y002170D03*
X001960Y002170D03*
X001940Y002170D03*
X001930Y002180D03*
X001910Y002180D03*
X001900Y002170D03*
X001900Y002160D03*
X001910Y002150D03*
X001890Y002150D03*
X001870Y002150D03*
X001880Y002120D03*
X001860Y002120D03*
X001850Y002090D03*
X001830Y002110D03*
X001820Y002100D03*
X001860Y002060D03*
X001890Y002100D03*
X001920Y002110D03*
X001950Y002100D03*
X001960Y002070D03*
X001980Y002080D03*
X002010Y002050D03*
X002000Y002030D03*
X002030Y002020D03*
X002040Y001990D03*
X002060Y001990D03*
X002060Y001960D03*
X002060Y001950D03*
X002040Y001960D03*
X002060Y001920D03*
X002060Y001910D03*
X002040Y001910D03*
X002030Y001880D03*
X002050Y001880D03*
X002070Y001880D03*
X002070Y001890D03*
X002100Y001900D03*
X002080Y001920D03*
X002130Y001930D03*
X002130Y001910D03*
X002130Y001900D03*
X002150Y001910D03*
X002170Y001890D03*
X002180Y001880D03*
X002190Y001870D03*
X002210Y001870D03*
X002220Y001880D03*
X002220Y001890D03*
X002220Y001900D03*
X002240Y001900D03*
X002250Y001890D03*
X002280Y001860D03*
X002290Y001850D03*
X002300Y001840D03*
X002310Y001830D03*
X002330Y001830D03*
X002330Y001840D03*
X002340Y001850D03*
X002340Y001860D03*
X002340Y001870D03*
X002340Y001880D03*
X002350Y001890D03*
X002370Y001890D03*
X002380Y001880D03*
X002390Y001870D03*
X002400Y001860D03*
X002420Y001840D03*
X002430Y001830D03*
X002440Y001820D03*
X002450Y001810D03*
X002460Y001800D03*
X002470Y001790D03*
X002480Y001780D03*
X002500Y001780D03*
X002500Y001790D03*
X002500Y001800D03*
X002500Y001810D03*
X002500Y001820D03*
X002510Y001830D03*
X002510Y001840D03*
X002510Y001850D03*
X002510Y001860D03*
X002520Y001870D03*
X002540Y001870D03*
X002550Y001860D03*
X002560Y001850D03*
X002570Y001840D03*
X002580Y001830D03*
X002590Y001820D03*
X002610Y001790D03*
X002620Y001780D03*
X002630Y001770D03*
X002640Y001760D03*
X002650Y001750D03*
X002660Y001740D03*
X002670Y001730D03*
X002680Y001720D03*
X002690Y001710D03*
X002720Y001710D03*
X002720Y001720D03*
X002720Y001730D03*
X002720Y001740D03*
X002730Y001750D03*
X002730Y001760D03*
X002730Y001770D03*
X002730Y001780D03*
X002740Y001790D03*
X002740Y001800D03*
X002740Y001810D03*
X002740Y001820D03*
X002750Y001830D03*
X002750Y001840D03*
X002750Y001850D03*
X002770Y001850D03*
X002780Y001840D03*
X002790Y001830D03*
X002800Y001820D03*
X002810Y001810D03*
X002820Y001800D03*
X002830Y001790D03*
X002840Y001780D03*
X002840Y001770D03*
X002850Y001760D03*
X002880Y001730D03*
X002890Y001720D03*
X002900Y001710D03*
X002910Y001700D03*
X002920Y001690D03*
X002930Y001680D03*
X002940Y001670D03*
X002950Y001660D03*
X002960Y001650D03*
X002970Y001640D03*
X002970Y001630D03*
X002980Y001620D03*
X002990Y001610D03*
X003020Y001610D03*
X003020Y001620D03*
X003020Y001630D03*
X003030Y001640D03*
X003030Y001650D03*
X003030Y001660D03*
X003030Y001670D03*
X003040Y001680D03*
X003040Y001690D03*
X003040Y001700D03*
X003040Y001710D03*
X003050Y001720D03*
X003050Y001730D03*
X003050Y001740D03*
X003050Y001750D03*
X003060Y001760D03*
X003060Y001770D03*
X003060Y001780D03*
X003060Y001790D03*
X003070Y001800D03*
X003090Y001800D03*
X003100Y001790D03*
X003110Y001780D03*
X003110Y001770D03*
X003120Y001760D03*
X003130Y001750D03*
X003140Y001740D03*
X003150Y001730D03*
X003160Y001720D03*
X003170Y001710D03*
X003180Y001700D03*
X003190Y001690D03*
X003200Y001680D03*
X003200Y001670D03*
X003230Y001640D03*
X003240Y001630D03*
X003250Y001620D03*
X003260Y001610D03*
X003270Y001600D03*
X003280Y001590D03*
X003290Y001580D03*
X003300Y001570D03*
X003300Y001560D03*
X003310Y001550D03*
X003320Y001540D03*
X003330Y001530D03*
X003340Y001520D03*
X003350Y001510D03*
X003360Y001500D03*
X003370Y001490D03*
X003380Y001480D03*
X003390Y001470D03*
X003390Y001460D03*
X003400Y001450D03*
X003420Y001450D03*
X003420Y001460D03*
X003430Y001470D03*
X003430Y001480D03*
X003430Y001490D03*
X003430Y001500D03*
X003440Y001510D03*
X003440Y001520D03*
X003440Y001530D03*
X003450Y001540D03*
X003450Y001550D03*
X003450Y001560D03*
X003450Y001570D03*
X003460Y001580D03*
X003460Y001590D03*
X003460Y001600D03*
X003460Y001610D03*
X003470Y001620D03*
X003470Y001630D03*
X003470Y001640D03*
X003480Y001650D03*
X003480Y001660D03*
X003480Y001670D03*
X003480Y001680D03*
X003490Y001690D03*
X003490Y001700D03*
X003490Y001710D03*
X003490Y001720D03*
X003500Y001730D03*
X003500Y001740D03*
X003500Y001780D03*
X003510Y001790D03*
X003510Y001800D03*
X003510Y001810D03*
X003510Y001820D03*
X003510Y001830D03*
X003510Y001840D03*
X003510Y001850D03*
X003510Y001860D03*
X003510Y001870D03*
X003510Y001880D03*
X003510Y001890D03*
X003510Y001900D03*
X003510Y001910D03*
X003510Y001920D03*
X003510Y001930D03*
X003520Y001940D03*
X003520Y001950D03*
X003520Y001960D03*
X003520Y001970D03*
X003520Y001980D03*
X003520Y001990D03*
X003520Y002000D03*
X003520Y002010D03*
X003520Y002020D03*
X003520Y002030D03*
X003520Y002040D03*
X003520Y002050D03*
X003520Y002060D03*
X003520Y002070D03*
X003530Y002080D03*
X003510Y002080D03*
X003520Y002100D03*
X003520Y002110D03*
X003520Y002120D03*
X003520Y002130D03*
X003520Y002140D03*
X003510Y002150D03*
X003510Y002160D03*
X003510Y002170D03*
X003510Y002180D03*
X003510Y002190D03*
X003510Y002200D03*
X003510Y002210D03*
X003500Y002220D03*
X003500Y002230D03*
X003500Y002240D03*
X003500Y002250D03*
X003500Y002260D03*
X003500Y002270D03*
X003500Y002280D03*
X003500Y002290D03*
X003490Y002300D03*
X003490Y002310D03*
X003490Y002320D03*
X003490Y002330D03*
X003490Y002340D03*
X003490Y002350D03*
X003490Y002360D03*
X003480Y002370D03*
X003480Y002380D03*
X003480Y002390D03*
X003480Y002400D03*
X003480Y002410D03*
X003460Y002410D03*
X003450Y002400D03*
X003440Y002390D03*
X003430Y002380D03*
X003420Y002370D03*
X003410Y002360D03*
X003400Y002350D03*
X003390Y002340D03*
X003380Y002330D03*
X003350Y002310D03*
X003340Y002300D03*
X003330Y002290D03*
X003320Y002280D03*
X003310Y002270D03*
X003300Y002260D03*
X003290Y002250D03*
X003280Y002240D03*
X003270Y002230D03*
X003230Y002200D03*
X003220Y002190D03*
X003210Y002180D03*
X003200Y002170D03*
X003190Y002160D03*
X003180Y002150D03*
X003170Y002140D03*
X003160Y002130D03*
X003130Y002110D03*
X003120Y002100D03*
X003110Y002090D03*
X003100Y002080D03*
X003080Y002080D03*
X003080Y002090D03*
X003080Y002100D03*
X003070Y002110D03*
X003070Y002120D03*
X003070Y002130D03*
X003070Y002140D03*
X003070Y002150D03*
X003070Y002160D03*
X003070Y002170D03*
X003060Y002180D03*
X003060Y002190D03*
X003060Y002200D03*
X003060Y002210D03*
X003060Y002220D03*
X003060Y002230D03*
X003060Y002240D03*
X003050Y002250D03*
X003050Y002260D03*
X003050Y002270D03*
X003050Y002280D03*
X003050Y002290D03*
X003030Y002290D03*
X003020Y002280D03*
X003010Y002270D03*
X003000Y002260D03*
X002970Y002240D03*
X002960Y002230D03*
X002950Y002220D03*
X002940Y002210D03*
X002930Y002200D03*
X002920Y002190D03*
X002910Y002180D03*
X002900Y002170D03*
X002890Y002160D03*
X002870Y002140D03*
X002860Y002130D03*
X002850Y002120D03*
X002820Y002100D03*
X002810Y002090D03*
X002800Y002080D03*
X002790Y002070D03*
X002780Y002060D03*
X002760Y002060D03*
X002750Y002070D03*
X002750Y002080D03*
X002750Y002090D03*
X002750Y002100D03*
X002750Y002110D03*
X002750Y002120D03*
X002740Y002130D03*
X002740Y002140D03*
X002740Y002150D03*
X002740Y002160D03*
X002740Y002170D03*
X002740Y002180D03*
X002730Y002190D03*
X002730Y002200D03*
X002710Y002200D03*
X002700Y002190D03*
X002690Y002180D03*
X002660Y002160D03*
X002650Y002150D03*
X002640Y002140D03*
X002630Y002130D03*
X002620Y002120D03*
X002600Y002100D03*
X002590Y002090D03*
X002580Y002080D03*
X002570Y002070D03*
X002560Y002060D03*
X002550Y002050D03*
X002540Y002040D03*
X002520Y002040D03*
X002520Y002050D03*
X002520Y002060D03*
X002510Y002070D03*
X002510Y002080D03*
X002510Y002090D03*
X002510Y002100D03*
X002510Y002110D03*
X002500Y002120D03*
X002500Y002130D03*
X002480Y002130D03*
X002470Y002120D03*
X002460Y002110D03*
X002450Y002100D03*
X002440Y002090D03*
X002430Y002080D03*
X002400Y002050D03*
X002390Y002040D03*
X002380Y002030D03*
X002370Y002020D03*
X002350Y002020D03*
X002340Y002030D03*
X002340Y002040D03*
X002340Y002050D03*
X002340Y002060D03*
X002340Y002070D03*
X002340Y002080D03*
X002310Y002080D03*
X002300Y002070D03*
X002290Y002060D03*
X002280Y002050D03*
X002260Y002030D03*
X002250Y002020D03*
X002240Y002010D03*
X002220Y002010D03*
X002220Y002020D03*
X002210Y002030D03*
X002210Y002040D03*
X002190Y002040D03*
X002180Y002030D03*
X002150Y002000D03*
X002130Y002000D03*
X002120Y002010D03*
X002100Y002010D03*
X002070Y002030D03*
X002080Y002050D03*
X002090Y002060D03*
X002110Y002060D03*
X002110Y002050D03*
X002120Y002040D03*
X002130Y002050D03*
X002140Y002060D03*
X002150Y002080D03*
X002150Y002090D03*
X002160Y002100D03*
X002170Y002110D03*
X002190Y002110D03*
X002190Y002100D03*
X002200Y002090D03*
X002200Y002080D03*
X002220Y002080D03*
X002230Y002090D03*
X002230Y002100D03*
X002240Y002110D03*
X002250Y002130D03*
X002260Y002140D03*
X002270Y002150D03*
X002270Y002160D03*
X002280Y002170D03*
X002300Y002170D03*
X002310Y002160D03*
X002310Y002150D03*
X002310Y002140D03*
X002320Y002130D03*
X002320Y002120D03*
X002340Y002120D03*
X002350Y002130D03*
X002360Y002140D03*
X002360Y002150D03*
X002370Y002160D03*
X002390Y002190D03*
X002400Y002200D03*
X002400Y002210D03*
X002410Y002220D03*
X002420Y002230D03*
X002420Y002240D03*
X002430Y002250D03*
X002440Y002260D03*
X002460Y002260D03*
X002460Y002250D03*
X002460Y002240D03*
X002470Y002230D03*
X002470Y002220D03*
X002480Y002210D03*
X002480Y002200D03*
X002480Y002190D03*
X002490Y002180D03*
X002490Y002170D03*
X002500Y002160D03*
X002510Y002170D03*
X002520Y002180D03*
X002530Y002190D03*
X002530Y002200D03*
X002540Y002210D03*
X002550Y002220D03*
X002550Y002230D03*
X002560Y002240D03*
X002570Y002260D03*
X002580Y002270D03*
X002590Y002280D03*
X002590Y002290D03*
X002600Y002300D03*
X002610Y002310D03*
X002610Y002320D03*
X002620Y002330D03*
X002630Y002340D03*
X002640Y002350D03*
X002640Y002360D03*
X002650Y002370D03*
X002670Y002370D03*
X002670Y002360D03*
X002680Y002350D03*
X002680Y002340D03*
X002690Y002330D03*
X002690Y002320D03*
X002690Y002310D03*
X002700Y002300D03*
X002700Y002290D03*
X002710Y002280D03*
X002710Y002270D03*
X002710Y002260D03*
X002720Y002250D03*
X002720Y002240D03*
X002720Y002230D03*
X002740Y002230D03*
X002740Y002240D03*
X002750Y002250D03*
X002760Y002260D03*
X002770Y002270D03*
X002770Y002280D03*
X002780Y002290D03*
X002790Y002300D03*
X002790Y002310D03*
X002800Y002320D03*
X002810Y002330D03*
X002820Y002340D03*
X002830Y002360D03*
X002840Y002370D03*
X002840Y002380D03*
X002850Y002390D03*
X002860Y002400D03*
X002870Y002410D03*
X002870Y002420D03*
X002880Y002430D03*
X002890Y002440D03*
X002890Y002450D03*
X002900Y002460D03*
X002910Y002470D03*
X002910Y002480D03*
X002920Y002490D03*
X002930Y002500D03*
X002940Y002510D03*
X002940Y002520D03*
X002970Y002520D03*
X002970Y002510D03*
X002970Y002500D03*
X002980Y002490D03*
X002980Y002480D03*
X002980Y002470D03*
X002990Y002460D03*
X002990Y002450D03*
X002990Y002440D03*
X003000Y002430D03*
X003000Y002420D03*
X003010Y002410D03*
X003010Y002400D03*
X003010Y002390D03*
X003020Y002380D03*
X003020Y002370D03*
X003020Y002360D03*
X003030Y002350D03*
X003030Y002340D03*
X003030Y002330D03*
X003040Y002320D03*
X003060Y002320D03*
X003060Y002330D03*
X003070Y002340D03*
X003080Y002350D03*
X003090Y002360D03*
X003090Y002370D03*
X003100Y002380D03*
X003110Y002390D03*
X003110Y002400D03*
X003120Y002410D03*
X003130Y002420D03*
X003140Y002430D03*
X003140Y002440D03*
X003150Y002450D03*
X003160Y002460D03*
X003170Y002470D03*
X003170Y002480D03*
X003190Y002500D03*
X003190Y002510D03*
X003200Y002520D03*
X003210Y002530D03*
X003220Y002540D03*
X003220Y002550D03*
X003230Y002560D03*
X003240Y002570D03*
X003250Y002580D03*
X003250Y002590D03*
X003260Y002600D03*
X003270Y002610D03*
X003270Y002620D03*
X003280Y002630D03*
X003290Y002640D03*
X003300Y002650D03*
X003300Y002660D03*
X003310Y002670D03*
X003320Y002680D03*
X003330Y002690D03*
X003330Y002700D03*
X003340Y002710D03*
X003350Y002720D03*
X003350Y002730D03*
X003350Y002750D03*
X003350Y002760D03*
X003340Y002770D03*
X003330Y002780D03*
X003330Y002790D03*
X003320Y002800D03*
X003320Y002810D03*
X003310Y002820D03*
X003300Y002830D03*
X003300Y002840D03*
X003290Y002850D03*
X003290Y002860D03*
X003280Y002870D03*
X003270Y002880D03*
X003270Y002890D03*
X003260Y002900D03*
X003260Y002910D03*
X003250Y002920D03*
X003240Y002930D03*
X003240Y002940D03*
X003230Y002950D03*
X003230Y002960D03*
X003220Y002970D03*
X003210Y002980D03*
X003210Y002990D03*
X003200Y003000D03*
X003200Y003010D03*
X003170Y003010D03*
X003170Y003000D03*
X003170Y002990D03*
X003160Y002980D03*
X003160Y002970D03*
X003150Y002960D03*
X003150Y002950D03*
X003140Y002940D03*
X003140Y002930D03*
X003130Y002920D03*
X003130Y002910D03*
X003120Y002900D03*
X003120Y002890D03*
X003120Y002880D03*
X003110Y002870D03*
X003110Y002860D03*
X003100Y002850D03*
X003100Y002840D03*
X003090Y002830D03*
X003090Y002820D03*
X003080Y002810D03*
X003080Y002800D03*
X003070Y002790D03*
X003070Y002780D03*
X003070Y002770D03*
X003060Y002760D03*
X003050Y002740D03*
X003050Y002730D03*
X003040Y002720D03*
X003040Y002710D03*
X003030Y002700D03*
X003030Y002690D03*
X003020Y002680D03*
X003020Y002670D03*
X003020Y002660D03*
X003010Y002650D03*
X003010Y002640D03*
X003000Y002630D03*
X003000Y002620D03*
X002990Y002610D03*
X002990Y002600D03*
X002980Y002590D03*
X002980Y002580D03*
X002970Y002570D03*
X002970Y002560D03*
X002970Y002550D03*
X002950Y002550D03*
X002940Y002560D03*
X002940Y002570D03*
X002930Y002580D03*
X002920Y002590D03*
X002920Y002600D03*
X002910Y002610D03*
X002900Y002620D03*
X002900Y002630D03*
X002890Y002640D03*
X002890Y002650D03*
X002880Y002660D03*
X002870Y002670D03*
X002870Y002680D03*
X002860Y002690D03*
X002860Y002700D03*
X002850Y002710D03*
X002840Y002720D03*
X002840Y002730D03*
X002820Y002730D03*
X002810Y002720D03*
X002810Y002710D03*
X002800Y002700D03*
X002800Y002690D03*
X002790Y002680D03*
X002790Y002670D03*
X002780Y002660D03*
X002780Y002650D03*
X002780Y002640D03*
X002770Y002630D03*
X002770Y002620D03*
X002760Y002610D03*
X002760Y002600D03*
X002750Y002590D03*
X002750Y002580D03*
X002740Y002570D03*
X002740Y002560D03*
X002740Y002550D03*
X002730Y002530D03*
X002720Y002520D03*
X002720Y002510D03*
X002710Y002500D03*
X002710Y002490D03*
X002710Y002480D03*
X002700Y002470D03*
X002700Y002460D03*
X002690Y002450D03*
X002690Y002440D03*
X002680Y002430D03*
X002680Y002420D03*
X002670Y002410D03*
X002670Y002400D03*
X002650Y002400D03*
X002650Y002410D03*
X002640Y002420D03*
X002630Y002430D03*
X002630Y002440D03*
X002620Y002450D03*
X002610Y002460D03*
X002610Y002470D03*
X002600Y002480D03*
X002600Y002490D03*
X002590Y002500D03*
X002580Y002510D03*
X002580Y002520D03*
X002550Y002520D03*
X002550Y002510D03*
X002550Y002500D03*
X002540Y002490D03*
X002540Y002480D03*
X002530Y002470D03*
X002530Y002460D03*
X002520Y002450D03*
X002520Y002440D03*
X002520Y002430D03*
X002510Y002420D03*
X002510Y002410D03*
X002500Y002400D03*
X002500Y002380D03*
X002490Y002370D03*
X002490Y002360D03*
X002480Y002350D03*
X002480Y002340D03*
X002470Y002330D03*
X002470Y002320D03*
X002470Y002310D03*
X002460Y002300D03*
X002460Y002290D03*
X002440Y002290D03*
X002430Y002300D03*
X002430Y002310D03*
X002420Y002320D03*
X002410Y002330D03*
X002410Y002340D03*
X002400Y002350D03*
X002390Y002360D03*
X002390Y002370D03*
X002370Y002370D03*
X002360Y002360D03*
X002360Y002350D03*
X002350Y002340D03*
X002350Y002330D03*
X002350Y002320D03*
X002340Y002310D03*
X002340Y002300D03*
X002330Y002290D03*
X002330Y002280D03*
X002320Y002260D03*
X002320Y002250D03*
X002310Y002240D03*
X002310Y002230D03*
X002300Y002220D03*
X002300Y002210D03*
X002300Y002200D03*
X002280Y002200D03*
X002280Y002210D03*
X002270Y002220D03*
X002260Y002230D03*
X002260Y002240D03*
X002250Y002250D03*
X002230Y002250D03*
X002230Y002240D03*
X002220Y002230D03*
X002220Y002220D03*
X002210Y002210D03*
X002210Y002200D03*
X002200Y002180D03*
X002200Y002170D03*
X002190Y002160D03*
X002190Y002150D03*
X002190Y002140D03*
X002170Y002140D03*
X002170Y002150D03*
X002160Y002160D03*
X002150Y002170D03*
X002150Y002180D03*
X002130Y002170D03*
X002130Y002160D03*
X002120Y002150D03*
X002120Y002140D03*
X002120Y002130D03*
X002110Y002110D03*
X002100Y002100D03*
X002080Y002100D03*
X002060Y002100D03*
X002060Y002090D03*
X002050Y002070D03*
X002050Y002060D03*
X002050Y002140D03*
X002070Y002140D03*
X002070Y002150D03*
X002070Y002160D03*
X002080Y002180D03*
X002080Y002190D03*
X002080Y002200D03*
X002080Y002210D03*
X002080Y002220D03*
X002100Y002230D03*
X002110Y002220D03*
X002120Y002210D03*
X002140Y002210D03*
X002150Y002220D03*
X002150Y002230D03*
X002150Y002240D03*
X002150Y002260D03*
X002150Y002270D03*
X002160Y002280D03*
X002160Y002290D03*
X002160Y002300D03*
X002160Y002310D03*
X002160Y002320D03*
X002180Y002330D03*
X002190Y002320D03*
X002200Y002310D03*
X002210Y002300D03*
X002220Y002290D03*
X002240Y002290D03*
X002240Y002300D03*
X002250Y002310D03*
X002250Y002320D03*
X002250Y002330D03*
X002250Y002340D03*
X002250Y002350D03*
X002260Y002380D03*
X002260Y002390D03*
X002260Y002400D03*
X002260Y002410D03*
X002270Y002420D03*
X002270Y002430D03*
X002270Y002440D03*
X002270Y002450D03*
X002270Y002460D03*
X002300Y002460D03*
X002310Y002450D03*
X002320Y002440D03*
X002330Y002430D03*
X002340Y002420D03*
X002350Y002410D03*
X002360Y002400D03*
X002380Y002400D03*
X002380Y002410D03*
X002380Y002420D03*
X002380Y002430D03*
X002380Y002440D03*
X002390Y002450D03*
X002390Y002460D03*
X002390Y002470D03*
X002390Y002480D03*
X002390Y002490D03*
X002400Y002500D03*
X002400Y002520D03*
X002400Y002530D03*
X002400Y002540D03*
X002410Y002550D03*
X002410Y002560D03*
X002410Y002570D03*
X002410Y002580D03*
X002410Y002590D03*
X002420Y002600D03*
X002420Y002610D03*
X002420Y002620D03*
X002420Y002630D03*
X002430Y002640D03*
X002430Y002650D03*
X002430Y002660D03*
X002450Y002660D03*
X002460Y002650D03*
X002470Y002640D03*
X002480Y002630D03*
X002490Y002620D03*
X002500Y002610D03*
X002510Y002600D03*
X002520Y002590D03*
X002530Y002580D03*
X002540Y002570D03*
X002550Y002560D03*
X002570Y002560D03*
X002570Y002570D03*
X002570Y002580D03*
X002580Y002590D03*
X002580Y002600D03*
X002580Y002610D03*
X002580Y002620D03*
X002580Y002630D03*
X002590Y002640D03*
X002590Y002650D03*
X002590Y002660D03*
X002590Y002670D03*
X002600Y002680D03*
X002600Y002690D03*
X002600Y002700D03*
X002600Y002720D03*
X002610Y002730D03*
X002610Y002740D03*
X002610Y002750D03*
X002610Y002760D03*
X002610Y002770D03*
X002620Y002780D03*
X002620Y002790D03*
X002620Y002800D03*
X002620Y002810D03*
X002630Y002820D03*
X002630Y002830D03*
X002630Y002840D03*
X002630Y002850D03*
X002630Y002860D03*
X002640Y002870D03*
X002640Y002880D03*
X002640Y002890D03*
X002640Y002900D03*
X002640Y002910D03*
X002650Y002920D03*
X002670Y002920D03*
X002680Y002910D03*
X002690Y002900D03*
X002700Y002890D03*
X002710Y002880D03*
X002720Y002870D03*
X002720Y002860D03*
X002730Y002850D03*
X002740Y002840D03*
X002750Y002830D03*
X002760Y002820D03*
X002770Y002810D03*
X002780Y002800D03*
X002790Y002790D03*
X002800Y002780D03*
X002810Y002770D03*
X002830Y002770D03*
X002830Y002780D03*
X002830Y002790D03*
X002840Y002800D03*
X002840Y002810D03*
X002840Y002820D03*
X002840Y002830D03*
X002850Y002840D03*
X002850Y002850D03*
X002850Y002860D03*
X002850Y002870D03*
X002850Y002880D03*
X002860Y002890D03*
X002860Y002900D03*
X002860Y002910D03*
X002860Y002920D03*
X002870Y002930D03*
X002870Y002940D03*
X002870Y002950D03*
X002870Y002960D03*
X002880Y002990D03*
X002880Y003000D03*
X002880Y003010D03*
X002890Y003020D03*
X002890Y003030D03*
X002890Y003040D03*
X002890Y003050D03*
X002900Y003060D03*
X002900Y003070D03*
X002900Y003080D03*
X002900Y003090D03*
X002900Y003100D03*
X002910Y003110D03*
X002910Y003120D03*
X002910Y003130D03*
X002910Y003140D03*
X002920Y003150D03*
X002920Y003160D03*
X002920Y003170D03*
X002920Y003180D03*
X002930Y003190D03*
X002930Y003200D03*
X002930Y003210D03*
X002930Y003220D03*
X002930Y003230D03*
X002940Y003240D03*
X002940Y003250D03*
X002940Y003260D03*
X002940Y003270D03*
X002930Y003280D03*
X002920Y003300D03*
X002890Y003320D03*
X002880Y003330D03*
X002850Y003350D03*
X002840Y003360D03*
X002810Y003380D03*
X002780Y003400D03*
X002770Y003410D03*
X002740Y003430D03*
X002730Y003440D03*
X002700Y003460D03*
X002660Y003460D03*
X002660Y003450D03*
X002660Y003440D03*
X002660Y003430D03*
X002660Y003420D03*
X002660Y003410D03*
X002660Y003400D03*
X002660Y003390D03*
X002660Y003380D03*
X002660Y003370D03*
X002660Y003360D03*
X002660Y003350D03*
X002660Y003340D03*
X002660Y003330D03*
X002660Y003320D03*
X002660Y003310D03*
X002660Y003300D03*
X002660Y003290D03*
X002660Y003280D03*
X002660Y003270D03*
X002660Y003260D03*
X002660Y003250D03*
X002660Y003240D03*
X002660Y003230D03*
X002660Y003220D03*
X002660Y003210D03*
X002660Y003200D03*
X002660Y003190D03*
X002660Y003180D03*
X002660Y003160D03*
X002660Y003150D03*
X002660Y003140D03*
X002660Y003130D03*
X002660Y003120D03*
X002650Y003110D03*
X002650Y003100D03*
X002650Y003090D03*
X002650Y003080D03*
X002650Y003070D03*
X002650Y003060D03*
X002650Y003050D03*
X002650Y003040D03*
X002650Y003030D03*
X002650Y003020D03*
X002650Y003010D03*
X002650Y003000D03*
X002650Y002990D03*
X002650Y002980D03*
X002650Y002970D03*
X002650Y002960D03*
X002650Y002950D03*
X002610Y002960D03*
X002600Y002970D03*
X002570Y002990D03*
X002540Y003010D03*
X002510Y003030D03*
X002500Y003040D03*
X002470Y003060D03*
X002440Y003060D03*
X002440Y003050D03*
X002440Y003040D03*
X002440Y003030D03*
X002440Y003020D03*
X002440Y003010D03*
X002440Y003000D03*
X002440Y002990D03*
X002440Y002980D03*
X002440Y002970D03*
X002440Y002960D03*
X002440Y002950D03*
X002440Y002940D03*
X002440Y002930D03*
X002440Y002920D03*
X002440Y002910D03*
X002440Y002900D03*
X002440Y002890D03*
X002440Y002880D03*
X002440Y002870D03*
X002440Y002860D03*
X002440Y002830D03*
X002440Y002820D03*
X002440Y002810D03*
X002440Y002800D03*
X002440Y002790D03*
X002440Y002780D03*
X002440Y002770D03*
X002440Y002760D03*
X002440Y002750D03*
X002440Y002740D03*
X002440Y002730D03*
X002440Y002720D03*
X002430Y002710D03*
X002430Y002700D03*
X002430Y002690D03*
X002410Y002690D03*
X002400Y002700D03*
X002370Y002720D03*
X002340Y002740D03*
X002310Y002760D03*
X002280Y002760D03*
X002280Y002750D03*
X002280Y002740D03*
X002280Y002730D03*
X002280Y002720D03*
X002280Y002710D03*
X002280Y002700D03*
X002280Y002690D03*
X002280Y002680D03*
X002280Y002670D03*
X002280Y002660D03*
X002280Y002650D03*
X002280Y002640D03*
X002280Y002630D03*
X002280Y002620D03*
X002280Y002590D03*
X002280Y002580D03*
X002280Y002570D03*
X002280Y002560D03*
X002280Y002550D03*
X002280Y002540D03*
X002280Y002530D03*
X002280Y002520D03*
X002280Y002510D03*
X002280Y002500D03*
X002250Y002500D03*
X002220Y002520D03*
X002190Y002540D03*
X002160Y002540D03*
X002160Y002530D03*
X002160Y002520D03*
X002160Y002510D03*
X002160Y002500D03*
X002160Y002490D03*
X002160Y002480D03*
X002160Y002470D03*
X002160Y002460D03*
X002160Y002450D03*
X002160Y002440D03*
X002170Y002420D03*
X002170Y002410D03*
X002170Y002400D03*
X002170Y002390D03*
X002170Y002380D03*
X002170Y002370D03*
X002170Y002360D03*
X002150Y002350D03*
X002120Y002370D03*
X002080Y002370D03*
X002080Y002360D03*
X002080Y002350D03*
X002080Y002340D03*
X002080Y002330D03*
X002080Y002320D03*
X002080Y002290D03*
X002080Y002280D03*
X002080Y002270D03*
X002090Y002260D03*
X002090Y002250D03*
X002060Y002250D03*
X002020Y002290D03*
X002020Y002300D03*
X002010Y002310D03*
X002010Y002320D03*
X002010Y002330D03*
X001990Y002330D03*
X001980Y002320D03*
X001950Y002320D03*
X001940Y002330D03*
X001940Y002340D03*
X001930Y002350D03*
X001910Y002350D03*
X001900Y002340D03*
X001890Y002330D03*
X001890Y002320D03*
X001870Y002320D03*
X001860Y002330D03*
X001860Y002340D03*
X001850Y002350D03*
X001830Y002350D03*
X001820Y002340D03*
X001810Y002330D03*
X001810Y002320D03*
X001790Y002320D03*
X001780Y002330D03*
X001770Y002340D03*
X001750Y002340D03*
X001740Y002330D03*
X001740Y002320D03*
X001740Y002310D03*
X001730Y002300D03*
X001730Y002270D03*
X001730Y002260D03*
X001720Y002250D03*
X001720Y002240D03*
X001720Y002230D03*
X001700Y002230D03*
X001720Y002200D03*
X001720Y002190D03*
X001720Y002180D03*
X001760Y002170D03*
X001760Y002160D03*
X001760Y002130D03*
X001760Y002120D03*
X001760Y002090D03*
X001760Y002080D03*
X001710Y002060D03*
X001700Y002050D03*
X001760Y001980D03*
X001740Y001900D03*
X001750Y001870D03*
X001730Y001870D03*
X001730Y001840D03*
X001760Y001850D03*
X001780Y001820D03*
X001780Y001790D03*
X001800Y001790D03*
X001810Y001810D03*
X001810Y001830D03*
X001830Y001810D03*
X001830Y001790D03*
X001850Y001810D03*
X001860Y001800D03*
X001860Y001780D03*
X001860Y001760D03*
X001850Y001750D03*
X001840Y001760D03*
X001810Y001750D03*
X001810Y001740D03*
X001810Y001730D03*
X001830Y001730D03*
X001850Y001730D03*
X001850Y001690D03*
X001870Y001690D03*
X001870Y001660D03*
X001870Y001650D03*
X001890Y001660D03*
X001900Y001650D03*
X001900Y001640D03*
X001930Y001640D03*
X001930Y001650D03*
X001930Y001660D03*
X001940Y001670D03*
X001950Y001660D03*
X001960Y001650D03*
X001980Y001650D03*
X001990Y001660D03*
X001990Y001670D03*
X001990Y001680D03*
X002010Y001680D03*
X002020Y001670D03*
X002040Y001670D03*
X002040Y001680D03*
X002040Y001690D03*
X002040Y001700D03*
X002040Y001730D03*
X002040Y001740D03*
X002040Y001780D03*
X002030Y001790D03*
X002030Y001810D03*
X002000Y001820D03*
X001990Y001830D03*
X001970Y001830D03*
X001970Y001810D03*
X001970Y001800D03*
X001970Y001770D03*
X001960Y001760D03*
X001960Y001740D03*
X001960Y001730D03*
X001940Y001730D03*
X001930Y001740D03*
X001920Y001730D03*
X001920Y001720D03*
X001900Y001720D03*
X001900Y001690D03*
X001920Y001690D03*
X001950Y001690D03*
X001950Y001700D03*
X002000Y001710D03*
X002000Y001750D03*
X002000Y001760D03*
X002000Y001790D03*
X002060Y001780D03*
X002080Y001780D03*
X002080Y001770D03*
X002080Y001760D03*
X002090Y001730D03*
X002090Y001720D03*
X002090Y001710D03*
X002110Y001700D03*
X002120Y001710D03*
X002130Y001720D03*
X002150Y001720D03*
X002150Y001710D03*
X002150Y001700D03*
X002150Y001690D03*
X002160Y001660D03*
X002160Y001650D03*
X002160Y001640D03*
X002170Y001630D03*
X002170Y001620D03*
X002170Y001610D03*
X002190Y001610D03*
X002200Y001620D03*
X002210Y001630D03*
X002220Y001640D03*
X002240Y001640D03*
X002240Y001630D03*
X002250Y001620D03*
X002250Y001610D03*
X002250Y001600D03*
X002250Y001590D03*
X002260Y001560D03*
X002260Y001550D03*
X002260Y001540D03*
X002260Y001530D03*
X002260Y001520D03*
X002260Y001510D03*
X002270Y001500D03*
X002270Y001490D03*
X002270Y001480D03*
X002290Y001480D03*
X002300Y001490D03*
X002310Y001500D03*
X002320Y001510D03*
X002330Y001520D03*
X002370Y001520D03*
X002370Y001530D03*
X002370Y001510D03*
X002370Y001500D03*
X002370Y001490D03*
X002380Y001480D03*
X002380Y001470D03*
X002380Y001460D03*
X002380Y001450D03*
X002390Y001420D03*
X002390Y001410D03*
X002390Y001400D03*
X002390Y001390D03*
X002390Y001380D03*
X002390Y001370D03*
X002400Y001360D03*
X002400Y001350D03*
X002400Y001340D03*
X002400Y001330D03*
X002400Y001320D03*
X002400Y001310D03*
X002400Y001300D03*
X002430Y001300D03*
X002440Y001310D03*
X002450Y001320D03*
X002480Y001340D03*
X002490Y001350D03*
X002500Y001360D03*
X002510Y001370D03*
X002520Y001380D03*
X002540Y001380D03*
X002540Y001370D03*
X002540Y001360D03*
X002540Y001350D03*
X002540Y001340D03*
X002550Y001330D03*
X002550Y001320D03*
X002550Y001310D03*
X002550Y001300D03*
X002550Y001290D03*
X002550Y001280D03*
X002550Y001270D03*
X002560Y001260D03*
X002560Y001250D03*
X002560Y001230D03*
X002560Y001220D03*
X002560Y001210D03*
X002560Y001200D03*
X002570Y001190D03*
X002570Y001180D03*
X002570Y001170D03*
X002570Y001160D03*
X002570Y001150D03*
X002570Y001140D03*
X002570Y001130D03*
X002580Y001120D03*
X002580Y001110D03*
X002580Y001100D03*
X002580Y001090D03*
X002580Y001080D03*
X002580Y001070D03*
X002580Y001060D03*
X002590Y001050D03*
X002610Y001050D03*
X002620Y001060D03*
X002630Y001070D03*
X002660Y001090D03*
X002670Y001100D03*
X002680Y001110D03*
X002690Y001120D03*
X002720Y001140D03*
X002730Y001150D03*
X002740Y001160D03*
X002750Y001170D03*
X002770Y001170D03*
X002770Y001160D03*
X002770Y001150D03*
X002770Y001140D03*
X002770Y001130D03*
X002770Y001120D03*
X002780Y001110D03*
X002780Y001100D03*
X002780Y001090D03*
X002780Y001080D03*
X002780Y001070D03*
X002780Y001060D03*
X002780Y001050D03*
X002780Y001040D03*
X002790Y001030D03*
X002790Y001020D03*
X002790Y001010D03*
X002790Y001000D03*
X002790Y000990D03*
X002790Y000960D03*
X002800Y000950D03*
X002800Y000940D03*
X002800Y000930D03*
X002800Y000920D03*
X002800Y000910D03*
X002800Y000900D03*
X002800Y000890D03*
X002810Y000880D03*
X002810Y000870D03*
X002810Y000860D03*
X002810Y000850D03*
X002810Y000840D03*
X002810Y000830D03*
X002810Y000820D03*
X002810Y000810D03*
X002820Y000800D03*
X002820Y000790D03*
X002820Y000780D03*
X002820Y000770D03*
X002820Y000760D03*
X002820Y000750D03*
X002820Y000740D03*
X002820Y000730D03*
X002830Y000720D03*
X002830Y000710D03*
X002870Y000720D03*
X002880Y000730D03*
X002890Y000740D03*
X002920Y000760D03*
X002930Y000770D03*
X002940Y000780D03*
X002950Y000790D03*
X002980Y000810D03*
X002990Y000820D03*
X003000Y000830D03*
X003010Y000840D03*
X003040Y000860D03*
X003050Y000870D03*
X003060Y000880D03*
X003070Y000890D03*
X003070Y000920D03*
X003060Y000930D03*
X003060Y000940D03*
X003060Y000950D03*
X003050Y000960D03*
X003050Y000970D03*
X003040Y000980D03*
X003040Y000990D03*
X003040Y001000D03*
X003030Y001010D03*
X003030Y001020D03*
X003030Y001030D03*
X003020Y001040D03*
X003020Y001050D03*
X003020Y001060D03*
X003010Y001070D03*
X003010Y001080D03*
X003010Y001090D03*
X003000Y001100D03*
X003000Y001110D03*
X003000Y001120D03*
X002990Y001130D03*
X002990Y001140D03*
X002990Y001150D03*
X002980Y001160D03*
X002980Y001180D03*
X002970Y001190D03*
X002970Y001200D03*
X002970Y001210D03*
X002960Y001220D03*
X002960Y001230D03*
X002960Y001240D03*
X002950Y001250D03*
X002950Y001260D03*
X002950Y001270D03*
X002940Y001280D03*
X002940Y001290D03*
X002940Y001300D03*
X002930Y001310D03*
X002930Y001320D03*
X002920Y001330D03*
X002920Y001340D03*
X002920Y001350D03*
X002890Y001350D03*
X002890Y001340D03*
X002880Y001330D03*
X002870Y001320D03*
X002860Y001310D03*
X002850Y001300D03*
X002850Y001290D03*
X002840Y001280D03*
X002830Y001270D03*
X002820Y001260D03*
X002820Y001250D03*
X002810Y001240D03*
X002800Y001230D03*
X002790Y001220D03*
X002780Y001210D03*
X002780Y001200D03*
X002760Y001200D03*
X002760Y001210D03*
X002750Y001220D03*
X002750Y001230D03*
X002750Y001240D03*
X002740Y001250D03*
X002740Y001260D03*
X002730Y001270D03*
X002730Y001280D03*
X002730Y001290D03*
X002720Y001300D03*
X002720Y001310D03*
X002720Y001320D03*
X002710Y001330D03*
X002710Y001340D03*
X002710Y001350D03*
X002700Y001360D03*
X002700Y001370D03*
X002690Y001400D03*
X002680Y001410D03*
X002680Y001420D03*
X002680Y001430D03*
X002670Y001440D03*
X002670Y001450D03*
X002670Y001460D03*
X002660Y001470D03*
X002660Y001480D03*
X002660Y001490D03*
X002650Y001500D03*
X002650Y001510D03*
X002650Y001520D03*
X002630Y001520D03*
X002620Y001510D03*
X002620Y001500D03*
X002610Y001490D03*
X002600Y001480D03*
X002590Y001470D03*
X002590Y001460D03*
X002580Y001450D03*
X002570Y001440D03*
X002560Y001430D03*
X002560Y001420D03*
X002550Y001410D03*
X002530Y001410D03*
X002520Y001420D03*
X002520Y001430D03*
X002520Y001440D03*
X002510Y001450D03*
X002510Y001460D03*
X002510Y001470D03*
X002500Y001480D03*
X002500Y001490D03*
X002500Y001500D03*
X002490Y001510D03*
X002490Y001520D03*
X002480Y001530D03*
X002480Y001550D03*
X002470Y001560D03*
X002470Y001570D03*
X002470Y001580D03*
X002460Y001590D03*
X002460Y001600D03*
X002450Y001610D03*
X002450Y001620D03*
X002450Y001630D03*
X002430Y001630D03*
X002420Y001620D03*
X002410Y001610D03*
X002400Y001600D03*
X002400Y001590D03*
X002390Y001580D03*
X002380Y001570D03*
X002350Y001570D03*
X002350Y001580D03*
X002350Y001590D03*
X002340Y001600D03*
X002340Y001610D03*
X002330Y001620D03*
X002330Y001630D03*
X002330Y001640D03*
X002320Y001660D03*
X002320Y001670D03*
X002310Y001680D03*
X002310Y001690D03*
X002300Y001700D03*
X002300Y001710D03*
X002280Y001710D03*
X002270Y001700D03*
X002260Y001690D03*
X002260Y001680D03*
X002250Y001670D03*
X002230Y001670D03*
X002230Y001680D03*
X002220Y001690D03*
X002220Y001700D03*
X002220Y001710D03*
X002210Y001720D03*
X002200Y001740D03*
X002200Y001750D03*
X002200Y001760D03*
X002190Y001770D03*
X002170Y001770D03*
X002160Y001760D03*
X002160Y001750D03*
X002140Y001750D03*
X002130Y001760D03*
X002130Y001770D03*
X002120Y001780D03*
X002120Y001800D03*
X002110Y001810D03*
X002090Y001810D03*
X002070Y001810D03*
X002060Y001820D03*
X002050Y001840D03*
X002020Y001850D03*
X002010Y001870D03*
X002090Y001860D03*
X002090Y001850D03*
X002110Y001850D03*
X002110Y001860D03*
X002140Y001860D03*
X002140Y001850D03*
X002160Y001830D03*
X002160Y001820D03*
X002170Y001810D03*
X002190Y001810D03*
X002200Y001820D03*
X002200Y001830D03*
X002230Y001830D03*
X002240Y001820D03*
X002240Y001810D03*
X002260Y001790D03*
X002260Y001780D03*
X002270Y001770D03*
X002280Y001760D03*
X002280Y001750D03*
X002290Y001740D03*
X002300Y001750D03*
X002300Y001760D03*
X002310Y001770D03*
X002310Y001780D03*
X002320Y001790D03*
X002320Y001800D03*
X002340Y001800D03*
X002350Y001790D03*
X002350Y001780D03*
X002360Y001770D03*
X002370Y001760D03*
X002380Y001740D03*
X002390Y001730D03*
X002390Y001720D03*
X002400Y001710D03*
X002410Y001700D03*
X002410Y001690D03*
X002420Y001680D03*
X002430Y001670D03*
X002450Y001670D03*
X002450Y001680D03*
X002460Y001690D03*
X002460Y001700D03*
X002460Y001710D03*
X002470Y001720D03*
X002470Y001730D03*
X002480Y001740D03*
X002480Y001750D03*
X002500Y001750D03*
X002510Y001740D03*
X002520Y001730D03*
X002520Y001720D03*
X002530Y001710D03*
X002540Y001700D03*
X002540Y001690D03*
X002550Y001680D03*
X002560Y001660D03*
X002570Y001650D03*
X002570Y001640D03*
X002580Y001630D03*
X002590Y001620D03*
X002590Y001610D03*
X002600Y001600D03*
X002600Y001590D03*
X002610Y001580D03*
X002620Y001570D03*
X002620Y001560D03*
X002630Y001550D03*
X002640Y001540D03*
X002650Y001550D03*
X002650Y001560D03*
X002660Y001570D03*
X002660Y001580D03*
X002670Y001590D03*
X002670Y001600D03*
X002680Y001610D03*
X002680Y001620D03*
X002680Y001630D03*
X002690Y001640D03*
X002690Y001650D03*
X002700Y001660D03*
X002700Y001670D03*
X002730Y001670D03*
X002740Y001660D03*
X002740Y001650D03*
X002750Y001640D03*
X002750Y001630D03*
X002760Y001620D03*
X002770Y001610D03*
X002770Y001600D03*
X002780Y001590D03*
X002780Y001580D03*
X002790Y001570D03*
X002810Y001540D03*
X002810Y001530D03*
X002820Y001520D03*
X002830Y001510D03*
X002830Y001500D03*
X002840Y001490D03*
X002850Y001480D03*
X002850Y001470D03*
X002860Y001460D03*
X002860Y001450D03*
X002870Y001440D03*
X002880Y001430D03*
X002880Y001420D03*
X002890Y001410D03*
X002890Y001400D03*
X002910Y001380D03*
X002920Y001400D03*
X002920Y001410D03*
X002930Y001420D03*
X002930Y001430D03*
X002940Y001440D03*
X002940Y001450D03*
X002950Y001460D03*
X002950Y001470D03*
X002960Y001480D03*
X002960Y001490D03*
X002970Y001500D03*
X002970Y001510D03*
X002980Y001520D03*
X002980Y001530D03*
X002990Y001540D03*
X002990Y001550D03*
X003000Y001560D03*
X003000Y001570D03*
X003020Y001570D03*
X003030Y001560D03*
X003030Y001550D03*
X003040Y001540D03*
X003050Y001530D03*
X003050Y001520D03*
X003060Y001510D03*
X003060Y001500D03*
X003070Y001490D03*
X003080Y001480D03*
X003080Y001470D03*
X003090Y001460D03*
X003090Y001450D03*
X003100Y001440D03*
X003110Y001430D03*
X003110Y001420D03*
X003120Y001410D03*
X003130Y001390D03*
X003130Y001380D03*
X003140Y001370D03*
X003150Y001360D03*
X003150Y001350D03*
X003160Y001340D03*
X003160Y001330D03*
X003170Y001320D03*
X003180Y001310D03*
X003180Y001300D03*
X003190Y001290D03*
X003190Y001280D03*
X003200Y001270D03*
X003210Y001260D03*
X003210Y001250D03*
X003220Y001240D03*
X003220Y001230D03*
X003230Y001220D03*
X003230Y001210D03*
X003240Y001200D03*
X003250Y001190D03*
X003250Y001180D03*
X003260Y001170D03*
X003260Y001160D03*
X003280Y001160D03*
X003280Y001170D03*
X003290Y001180D03*
X003290Y001190D03*
X003300Y001200D03*
X003300Y001210D03*
X003310Y001220D03*
X003310Y001230D03*
X003320Y001240D03*
X003320Y001250D03*
X003330Y001260D03*
X003330Y001270D03*
X003340Y001280D03*
X003340Y001290D03*
X003350Y001300D03*
X003350Y001310D03*
X003360Y001320D03*
X003360Y001330D03*
X003370Y001340D03*
X003370Y001350D03*
X003380Y001360D03*
X003390Y001370D03*
X003390Y001380D03*
X003400Y001390D03*
X003400Y001400D03*
X003410Y001410D03*
X003410Y001420D03*
X003420Y001430D03*
X003270Y001140D03*
X003260Y001130D03*
X003250Y001120D03*
X003240Y001110D03*
X003240Y001100D03*
X003230Y001090D03*
X003220Y001080D03*
X003210Y001070D03*
X003200Y001060D03*
X003200Y001050D03*
X003190Y001040D03*
X003180Y001030D03*
X003170Y001020D03*
X003160Y001010D03*
X003160Y001000D03*
X003150Y000990D03*
X003140Y000980D03*
X003130Y000970D03*
X003120Y000960D03*
X003120Y000950D03*
X003110Y000940D03*
X003100Y000930D03*
X003090Y000920D03*
X002760Y000650D03*
X002630Y000580D03*
X002560Y000580D03*
X002560Y000590D03*
X002560Y000600D03*
X002560Y000610D03*
X002560Y000620D03*
X002560Y000630D03*
X002560Y000640D03*
X002560Y000650D03*
X002560Y000660D03*
X002560Y000670D03*
X002560Y000680D03*
X002560Y000690D03*
X002560Y000700D03*
X002570Y000710D03*
X002570Y000720D03*
X002570Y000730D03*
X002570Y000740D03*
X002570Y000750D03*
X002570Y000760D03*
X002570Y000770D03*
X002570Y000780D03*
X002570Y000790D03*
X002570Y000800D03*
X002570Y000810D03*
X002570Y000840D03*
X002580Y000850D03*
X002580Y000860D03*
X002580Y000870D03*
X002580Y000880D03*
X002580Y000890D03*
X002580Y000900D03*
X002580Y000910D03*
X002580Y000920D03*
X002580Y000930D03*
X002580Y000940D03*
X002580Y000950D03*
X002580Y000960D03*
X002580Y000970D03*
X002590Y000980D03*
X002590Y000990D03*
X002590Y001000D03*
X002590Y001010D03*
X002500Y000980D03*
X002410Y000930D03*
X002390Y000930D03*
X002390Y000940D03*
X002390Y000950D03*
X002390Y000960D03*
X002390Y000970D03*
X002390Y000980D03*
X002390Y000990D03*
X002390Y001000D03*
X002390Y001010D03*
X002390Y001020D03*
X002390Y001030D03*
X002390Y001040D03*
X002390Y001050D03*
X002400Y001060D03*
X002400Y001070D03*
X002400Y001080D03*
X002400Y001090D03*
X002400Y001100D03*
X002400Y001110D03*
X002400Y001140D03*
X002400Y001150D03*
X002400Y001160D03*
X002400Y001170D03*
X002400Y001180D03*
X002400Y001190D03*
X002400Y001200D03*
X002400Y001210D03*
X002400Y001220D03*
X002410Y001230D03*
X002410Y001240D03*
X002410Y001250D03*
X002410Y001260D03*
X002410Y001270D03*
X002370Y001260D03*
X002300Y001220D03*
X002260Y001220D03*
X002260Y001230D03*
X002260Y001240D03*
X002260Y001250D03*
X002260Y001260D03*
X002260Y001270D03*
X002260Y001280D03*
X002270Y001290D03*
X002270Y001300D03*
X002270Y001310D03*
X002270Y001320D03*
X002270Y001330D03*
X002270Y001360D03*
X002270Y001370D03*
X002270Y001380D03*
X002270Y001390D03*
X002270Y001400D03*
X002270Y001410D03*
X002270Y001420D03*
X002270Y001430D03*
X002270Y001440D03*
X002240Y001440D03*
X002190Y001410D03*
X002170Y001410D03*
X002170Y001420D03*
X002170Y001430D03*
X002170Y001440D03*
X002170Y001450D03*
X002170Y001460D03*
X002170Y001470D03*
X002170Y001480D03*
X002170Y001490D03*
X002170Y001520D03*
X002170Y001530D03*
X002170Y001540D03*
X002170Y001550D03*
X002170Y001560D03*
X002170Y001570D03*
X002170Y001580D03*
X002130Y001570D03*
X002100Y001570D03*
X002100Y001580D03*
X002100Y001590D03*
X002100Y001600D03*
X002100Y001610D03*
X002100Y001640D03*
X002100Y001650D03*
X002100Y001660D03*
X002100Y001670D03*
X002040Y001640D03*
X002040Y001630D03*
X002040Y001620D03*
X002030Y001610D03*
X002010Y001610D03*
X002030Y001580D03*
X002020Y001570D03*
X002020Y001560D03*
X002020Y001550D03*
X002020Y001540D03*
X001990Y001540D03*
X001980Y001550D03*
X001970Y001560D03*
X001950Y001560D03*
X001940Y001550D03*
X001940Y001540D03*
X001940Y001530D03*
X001930Y001520D03*
X001910Y001520D03*
X001900Y001530D03*
X001900Y001540D03*
X001890Y001550D03*
X001890Y001560D03*
X001880Y001570D03*
X001870Y001580D03*
X001870Y001590D03*
X001860Y001600D03*
X001860Y001610D03*
X001840Y001610D03*
X001830Y001600D03*
X001800Y001600D03*
X001800Y001610D03*
X001800Y001620D03*
X001810Y001660D03*
X001790Y001660D03*
X001780Y001670D03*
X001780Y001680D03*
X001780Y001710D03*
X001780Y001720D03*
X001790Y001750D03*
X001780Y001760D03*
X001740Y001750D03*
X001740Y001740D03*
X001730Y001710D03*
X001730Y001700D03*
X001730Y001690D03*
X001730Y001680D03*
X001710Y001680D03*
X001680Y001680D03*
X001680Y001670D03*
X001680Y001660D03*
X001680Y001630D03*
X001680Y001620D03*
X001680Y001610D03*
X001680Y001600D03*
X001670Y001590D03*
X001650Y001590D03*
X001690Y001580D03*
X001670Y001550D03*
X001680Y001540D03*
X001680Y001530D03*
X001680Y001520D03*
X001680Y001510D03*
X001680Y001500D03*
X001700Y001500D03*
X001680Y001470D03*
X001690Y001460D03*
X001690Y001450D03*
X001690Y001440D03*
X001690Y001430D03*
X001690Y001420D03*
X001690Y001410D03*
X001690Y001400D03*
X001710Y001390D03*
X001720Y001400D03*
X001730Y001410D03*
X001740Y001420D03*
X001750Y001430D03*
X001760Y001440D03*
X001780Y001440D03*
X001780Y001430D03*
X001790Y001420D03*
X001790Y001410D03*
X001790Y001400D03*
X001800Y001390D03*
X001800Y001380D03*
X001800Y001370D03*
X001830Y001370D03*
X001830Y001380D03*
X001840Y001390D03*
X001850Y001400D03*
X001860Y001410D03*
X001860Y001420D03*
X001890Y001420D03*
X001890Y001410D03*
X001900Y001400D03*
X001900Y001390D03*
X001910Y001380D03*
X001920Y001370D03*
X001920Y001360D03*
X001930Y001350D03*
X001940Y001360D03*
X001940Y001370D03*
X001950Y001380D03*
X001950Y001390D03*
X001960Y001400D03*
X001960Y001410D03*
X001960Y001420D03*
X001990Y001420D03*
X002000Y001410D03*
X002010Y001400D03*
X002020Y001390D03*
X002030Y001380D03*
X002050Y001380D03*
X002060Y001390D03*
X002060Y001400D03*
X002060Y001410D03*
X002060Y001420D03*
X002070Y001430D03*
X002070Y001440D03*
X002070Y001450D03*
X002100Y001450D03*
X002110Y001440D03*
X002140Y001420D03*
X002150Y001410D03*
X002160Y001380D03*
X002160Y001370D03*
X002160Y001360D03*
X002150Y001350D03*
X002150Y001340D03*
X002150Y001330D03*
X002150Y001320D03*
X002140Y001310D03*
X002140Y001290D03*
X002130Y001270D03*
X002130Y001260D03*
X002130Y001250D03*
X002130Y001240D03*
X002120Y001230D03*
X002120Y001220D03*
X002120Y001210D03*
X002120Y001200D03*
X002110Y001190D03*
X002110Y001180D03*
X002110Y001170D03*
X002110Y001160D03*
X002090Y001160D03*
X002080Y001170D03*
X002070Y001180D03*
X002060Y001190D03*
X002050Y001200D03*
X002040Y001210D03*
X002030Y001220D03*
X002020Y001230D03*
X002020Y001240D03*
X002000Y001260D03*
X002010Y001270D03*
X002010Y001280D03*
X002020Y001290D03*
X002020Y001300D03*
X002030Y001310D03*
X002030Y001320D03*
X002040Y001330D03*
X002040Y001340D03*
X002090Y001330D03*
X002100Y001320D03*
X002180Y001260D03*
X002190Y001250D03*
X002220Y001230D03*
X002230Y001220D03*
X002260Y001180D03*
X002250Y001170D03*
X002250Y001160D03*
X002250Y001150D03*
X002250Y001140D03*
X002240Y001130D03*
X002240Y001120D03*
X002240Y001110D03*
X002240Y001100D03*
X002230Y001090D03*
X002230Y001080D03*
X002230Y001070D03*
X002230Y001060D03*
X002220Y001050D03*
X002210Y001060D03*
X002220Y001030D03*
X002210Y001020D03*
X002210Y001010D03*
X002210Y001000D03*
X002210Y000990D03*
X002200Y000980D03*
X002200Y000970D03*
X002200Y000960D03*
X002200Y000950D03*
X002190Y000940D03*
X002190Y000930D03*
X002190Y000920D03*
X002180Y000910D03*
X002180Y000900D03*
X002180Y000890D03*
X002180Y000880D03*
X002170Y000870D03*
X002150Y000870D03*
X002140Y000880D03*
X002130Y000890D03*
X002120Y000900D03*
X002110Y000910D03*
X002110Y000920D03*
X002100Y000930D03*
X002090Y000940D03*
X002080Y000950D03*
X002070Y000960D03*
X002060Y000970D03*
X002050Y000980D03*
X002050Y000990D03*
X002030Y001010D03*
X002020Y001020D03*
X002010Y001030D03*
X002000Y001040D03*
X002000Y001050D03*
X001990Y001060D03*
X001980Y001070D03*
X001970Y001080D03*
X001960Y001090D03*
X001950Y001100D03*
X001920Y001100D03*
X001920Y001090D03*
X001910Y001080D03*
X001900Y001070D03*
X001890Y001060D03*
X001880Y001050D03*
X001880Y001040D03*
X001870Y001030D03*
X001860Y001020D03*
X001840Y001020D03*
X001830Y001030D03*
X001830Y001040D03*
X001820Y001050D03*
X001820Y001060D03*
X001810Y001070D03*
X001800Y001080D03*
X001800Y001090D03*
X001790Y001100D03*
X001790Y001110D03*
X001780Y001120D03*
X001770Y001150D03*
X001770Y001160D03*
X001760Y001170D03*
X001760Y001180D03*
X001760Y001190D03*
X001750Y001200D03*
X001750Y001210D03*
X001750Y001220D03*
X001740Y001230D03*
X001740Y001240D03*
X001740Y001250D03*
X001730Y001260D03*
X001730Y001280D03*
X001720Y001290D03*
X001720Y001300D03*
X001720Y001310D03*
X001710Y001320D03*
X001710Y001330D03*
X001710Y001340D03*
X001700Y001350D03*
X001700Y001360D03*
X001700Y001370D03*
X001680Y001370D03*
X001600Y001370D03*
X001600Y001380D03*
X001590Y001390D03*
X001590Y001400D03*
X001590Y001410D03*
X001590Y001420D03*
X001650Y001470D03*
X001760Y001490D03*
X001760Y001500D03*
X001760Y001510D03*
X001770Y001480D03*
X001770Y001470D03*
X001770Y001460D03*
X001790Y001460D03*
X001800Y001470D03*
X001810Y001480D03*
X001820Y001490D03*
X001850Y001490D03*
X001850Y001480D03*
X001860Y001470D03*
X001860Y001460D03*
X001870Y001450D03*
X001890Y001450D03*
X001890Y001460D03*
X001900Y001470D03*
X001910Y001480D03*
X001940Y001480D03*
X001950Y001470D03*
X001960Y001460D03*
X001980Y001460D03*
X001990Y001470D03*
X001990Y001480D03*
X002000Y001490D03*
X002000Y001500D03*
X002030Y001500D03*
X002060Y001480D03*
X002080Y001480D03*
X002080Y001490D03*
X002080Y001500D03*
X002090Y001510D03*
X002090Y001520D03*
X002090Y001530D03*
X002060Y001570D03*
X002050Y001580D03*
X001970Y001600D03*
X001970Y001610D03*
X001960Y001590D03*
X001940Y001590D03*
X001930Y001600D03*
X001900Y001600D03*
X001890Y001590D03*
X001890Y001580D03*
X001870Y001560D03*
X001870Y001550D03*
X001860Y001540D03*
X001850Y001530D03*
X001830Y001530D03*
X001820Y001540D03*
X001820Y001550D03*
X001820Y001560D03*
X001810Y001570D03*
X001790Y001570D03*
X001780Y001560D03*
X001770Y001550D03*
X001750Y001550D03*
X001750Y001560D03*
X001740Y001570D03*
X001740Y001580D03*
X001740Y001590D03*
X001740Y001610D03*
X001740Y001630D03*
X001730Y001640D03*
X001730Y001650D03*
X001820Y001700D03*
X001830Y001690D03*
X001840Y001660D03*
X001840Y001650D03*
X001850Y001630D03*
X001880Y001760D03*
X001890Y001790D03*
X001910Y001780D03*
X001930Y001760D03*
X001940Y001790D03*
X001910Y001830D03*
X001950Y001940D03*
X001930Y002060D03*
X001910Y002060D03*
X001950Y002140D03*
X001890Y002180D03*
X001890Y002190D03*
X001920Y002220D03*
X001920Y002230D03*
X001950Y002220D03*
X001970Y002220D03*
X001980Y002210D03*
X001980Y002200D03*
X001900Y002260D03*
X001900Y002270D03*
X001890Y002280D03*
X001890Y002290D03*
X001870Y002290D03*
X001860Y002280D03*
X001860Y002270D03*
X001830Y002270D03*
X001830Y002280D03*
X001820Y002290D03*
X001800Y002290D03*
X001790Y002280D03*
X001790Y002270D03*
X001790Y002260D03*
X001780Y002240D03*
X001770Y002220D03*
X001770Y002210D03*
X001760Y002260D03*
X001750Y002270D03*
X001670Y002320D03*
X001670Y002340D03*
X001670Y002350D03*
X001670Y002360D03*
X001670Y002370D03*
X001680Y002380D03*
X001680Y002390D03*
X001680Y002400D03*
X001700Y002400D03*
X001710Y002390D03*
X001720Y002380D03*
X001730Y002370D03*
X001760Y002370D03*
X001760Y002380D03*
X001760Y002390D03*
X001770Y002400D03*
X001770Y002410D03*
X001770Y002420D03*
X001800Y002420D03*
X001800Y002410D03*
X001810Y002400D03*
X001820Y002390D03*
X001850Y002390D03*
X001850Y002400D03*
X001860Y002410D03*
X001870Y002420D03*
X001870Y002430D03*
X001890Y002430D03*
X001900Y002420D03*
X001900Y002410D03*
X001910Y002400D03*
X001910Y002390D03*
X001920Y002380D03*
X001940Y002380D03*
X001950Y002390D03*
X001960Y002400D03*
X001970Y002410D03*
X001990Y002410D03*
X001990Y002400D03*
X002000Y002390D03*
X002000Y002380D03*
X002000Y002370D03*
X002000Y002360D03*
X002000Y002350D03*
X002020Y002350D03*
X002030Y002360D03*
X002060Y002380D03*
X002080Y002380D03*
X002080Y002410D03*
X002080Y002420D03*
X002070Y002430D03*
X002070Y002440D03*
X002070Y002450D03*
X002070Y002460D03*
X002070Y002470D03*
X002060Y002500D03*
X002060Y002510D03*
X002050Y002520D03*
X002050Y002530D03*
X002050Y002540D03*
X002050Y002550D03*
X002050Y002560D03*
X002040Y002570D03*
X002040Y002580D03*
X002040Y002590D03*
X002020Y002600D03*
X002010Y002590D03*
X002010Y002580D03*
X002000Y002570D03*
X001990Y002560D03*
X001980Y002550D03*
X001970Y002540D03*
X001960Y002530D03*
X001950Y002520D03*
X001940Y002530D03*
X001940Y002540D03*
X001930Y002550D03*
X001930Y002560D03*
X001920Y002570D03*
X001920Y002580D03*
X001910Y002590D03*
X001910Y002600D03*
X001900Y002610D03*
X001880Y002610D03*
X001880Y002600D03*
X001870Y002590D03*
X001870Y002580D03*
X001860Y002570D03*
X001850Y002560D03*
X001850Y002550D03*
X001840Y002540D03*
X001830Y002530D03*
X001830Y002520D03*
X001840Y002510D03*
X001850Y002500D03*
X001860Y002490D03*
X001860Y002480D03*
X001870Y002470D03*
X001900Y002470D03*
X001910Y002480D03*
X001920Y002490D03*
X001930Y002500D03*
X001950Y002500D03*
X001960Y002490D03*
X001960Y002480D03*
X001970Y002470D03*
X001970Y002460D03*
X001980Y002450D03*
X002010Y002450D03*
X002020Y002460D03*
X002080Y002500D03*
X002090Y002510D03*
X002120Y002530D03*
X002160Y002570D03*
X002160Y002580D03*
X002160Y002590D03*
X002150Y002600D03*
X002150Y002610D03*
X002150Y002620D03*
X002150Y002630D03*
X002150Y002640D03*
X002140Y002650D03*
X002140Y002660D03*
X002140Y002670D03*
X002120Y002670D03*
X002130Y002700D03*
X002130Y002710D03*
X002130Y002720D03*
X002130Y002730D03*
X002130Y002740D03*
X002120Y002750D03*
X002120Y002760D03*
X002120Y002770D03*
X002120Y002780D03*
X002120Y002790D03*
X002110Y002800D03*
X002110Y002810D03*
X002110Y002820D03*
X002110Y002830D03*
X002080Y002830D03*
X002070Y002820D03*
X002060Y002810D03*
X002050Y002800D03*
X002040Y002790D03*
X002030Y002780D03*
X002020Y002770D03*
X002020Y002760D03*
X002010Y002750D03*
X002000Y002740D03*
X001980Y002740D03*
X001980Y002750D03*
X001970Y002760D03*
X001970Y002770D03*
X001960Y002780D03*
X001960Y002790D03*
X001950Y002800D03*
X001950Y002810D03*
X001940Y002820D03*
X001940Y002830D03*
X001940Y002840D03*
X001930Y002850D03*
X001930Y002860D03*
X001900Y002860D03*
X001900Y002850D03*
X001890Y002840D03*
X001880Y002830D03*
X001880Y002820D03*
X001870Y002810D03*
X001860Y002800D03*
X001860Y002790D03*
X001850Y002780D03*
X001850Y002770D03*
X001840Y002760D03*
X001830Y002750D03*
X001810Y002750D03*
X001810Y002760D03*
X001800Y002770D03*
X001790Y002780D03*
X001780Y002790D03*
X001780Y002800D03*
X001770Y002810D03*
X001760Y002820D03*
X001760Y002830D03*
X001750Y002840D03*
X001740Y002850D03*
X001740Y002860D03*
X001710Y002860D03*
X001710Y002850D03*
X001710Y002840D03*
X001700Y002830D03*
X001700Y002820D03*
X001700Y002810D03*
X001690Y002800D03*
X001690Y002790D03*
X001680Y002780D03*
X001680Y002770D03*
X001680Y002760D03*
X001670Y002750D03*
X001670Y002740D03*
X001670Y002730D03*
X001660Y002720D03*
X001650Y002730D03*
X001640Y002740D03*
X001630Y002750D03*
X001620Y002760D03*
X001610Y002770D03*
X001600Y002780D03*
X001590Y002790D03*
X001560Y002810D03*
X001550Y002820D03*
X001530Y002820D03*
X001530Y002810D03*
X001530Y002800D03*
X001520Y002790D03*
X001520Y002780D03*
X001520Y002770D03*
X001520Y002760D03*
X001520Y002750D03*
X001520Y002740D03*
X001510Y002730D03*
X001510Y002720D03*
X001510Y002710D03*
X001510Y002700D03*
X001510Y002690D03*
X001510Y002680D03*
X001500Y002650D03*
X001500Y002640D03*
X001500Y002630D03*
X001500Y002620D03*
X001500Y002610D03*
X001490Y002600D03*
X001490Y002590D03*
X001490Y002580D03*
X001490Y002570D03*
X001490Y002560D03*
X001540Y002500D03*
X001600Y002500D03*
X001600Y002510D03*
X001610Y002520D03*
X001610Y002530D03*
X001610Y002540D03*
X001610Y002550D03*
X001610Y002560D03*
X001610Y002570D03*
X001610Y002580D03*
X001640Y002580D03*
X001650Y002570D03*
X001660Y002560D03*
X001670Y002550D03*
X001680Y002540D03*
X001690Y002530D03*
X001700Y002520D03*
X001710Y002510D03*
X001720Y002520D03*
X001720Y002530D03*
X001720Y002540D03*
X001730Y002550D03*
X001730Y002560D03*
X001730Y002570D03*
X001740Y002580D03*
X001740Y002590D03*
X001740Y002600D03*
X001750Y002610D03*
X001770Y002610D03*
X001780Y002600D03*
X001780Y002590D03*
X001790Y002580D03*
X001800Y002570D03*
X001810Y002560D03*
X001810Y002550D03*
X001820Y002540D03*
X001820Y002510D03*
X001820Y002500D03*
X001810Y002490D03*
X001800Y002480D03*
X001800Y002470D03*
X001790Y002460D03*
X001770Y002460D03*
X001760Y002470D03*
X001750Y002480D03*
X001740Y002490D03*
X001700Y002490D03*
X001700Y002480D03*
X001700Y002470D03*
X001690Y002460D03*
X001690Y002450D03*
X001690Y002440D03*
X001680Y002430D03*
X001640Y002440D03*
X001600Y002450D03*
X001590Y002440D03*
X001590Y002430D03*
X001590Y002420D03*
X001590Y002410D03*
X001590Y002400D03*
X001590Y002390D03*
X001600Y002480D03*
X001600Y002490D03*
X001620Y002610D03*
X001620Y002620D03*
X001630Y002630D03*
X001630Y002640D03*
X001640Y002650D03*
X001640Y002660D03*
X001640Y002670D03*
X001650Y002680D03*
X001650Y002690D03*
X001650Y002700D03*
X001680Y002700D03*
X001690Y002690D03*
X001700Y002680D03*
X001710Y002670D03*
X001720Y002660D03*
X001730Y002650D03*
X001740Y002640D03*
X001760Y002640D03*
X001770Y002650D03*
X001780Y002660D03*
X001780Y002670D03*
X001790Y002680D03*
X001800Y002690D03*
X001800Y002700D03*
X001810Y002710D03*
X001810Y002720D03*
X001830Y002720D03*
X001840Y002710D03*
X001850Y002700D03*
X001850Y002690D03*
X001860Y002680D03*
X001870Y002670D03*
X001880Y002660D03*
X001880Y002650D03*
X001910Y002650D03*
X001920Y002660D03*
X001930Y002670D03*
X001940Y002680D03*
X001950Y002690D03*
X001960Y002700D03*
X001970Y002710D03*
X001990Y002710D03*
X002000Y002700D03*
X002000Y002690D03*
X002010Y002680D03*
X002010Y002670D03*
X002010Y002660D03*
X002020Y002650D03*
X002020Y002640D03*
X002030Y002630D03*
X002060Y002630D03*
X002090Y002650D03*
X002160Y002700D03*
X002190Y002720D03*
X002220Y002740D03*
X002250Y002760D03*
X002270Y002800D03*
X002270Y002810D03*
X002270Y002820D03*
X002270Y002830D03*
X002270Y002840D03*
X002270Y002850D03*
X002260Y002860D03*
X002260Y002870D03*
X002260Y002880D03*
X002260Y002890D03*
X002260Y002900D03*
X002250Y002910D03*
X002250Y002920D03*
X002250Y002930D03*
X002250Y002950D03*
X002240Y002960D03*
X002240Y002970D03*
X002240Y002980D03*
X002240Y002990D03*
X002240Y003000D03*
X002230Y003010D03*
X002230Y003020D03*
X002230Y003030D03*
X002230Y003040D03*
X002230Y003050D03*
X002220Y003060D03*
X002220Y003070D03*
X002220Y003080D03*
X002220Y003090D03*
X002220Y003100D03*
X002210Y003110D03*
X002210Y003120D03*
X002210Y003130D03*
X002210Y003140D03*
X002210Y003150D03*
X002200Y003160D03*
X002180Y003160D03*
X002170Y003150D03*
X002160Y003140D03*
X002150Y003130D03*
X002140Y003120D03*
X002130Y003110D03*
X002120Y003100D03*
X002110Y003090D03*
X002100Y003080D03*
X002090Y003070D03*
X002080Y003060D03*
X002070Y003050D03*
X002060Y003040D03*
X002050Y003030D03*
X002030Y003030D03*
X002020Y003040D03*
X002020Y003050D03*
X002020Y003060D03*
X002010Y003070D03*
X002010Y003080D03*
X002000Y003090D03*
X002000Y003100D03*
X001990Y003110D03*
X001990Y003120D03*
X001990Y003130D03*
X001980Y003140D03*
X001980Y003150D03*
X001970Y003160D03*
X001970Y003170D03*
X001970Y003180D03*
X001960Y003190D03*
X001960Y003200D03*
X001950Y003210D03*
X001930Y003210D03*
X001920Y003200D03*
X001920Y003190D03*
X001910Y003180D03*
X001910Y003170D03*
X001900Y003160D03*
X001890Y003150D03*
X001890Y003140D03*
X001880Y003130D03*
X001870Y003120D03*
X001870Y003110D03*
X001860Y003100D03*
X001850Y003090D03*
X001850Y003080D03*
X001840Y003070D03*
X001830Y003060D03*
X001830Y003050D03*
X001800Y003050D03*
X001800Y003060D03*
X001790Y003070D03*
X001780Y003080D03*
X001780Y003090D03*
X001770Y003100D03*
X001760Y003110D03*
X001760Y003120D03*
X001750Y003130D03*
X001740Y003140D03*
X001740Y003150D03*
X001730Y003160D03*
X001720Y003170D03*
X001720Y003180D03*
X001710Y003190D03*
X001700Y003200D03*
X001690Y003210D03*
X001670Y003210D03*
X001670Y003200D03*
X001670Y003190D03*
X001660Y003180D03*
X001660Y003170D03*
X001650Y003160D03*
X001650Y003150D03*
X001650Y003140D03*
X001640Y003130D03*
X001640Y003120D03*
X001630Y003110D03*
X001630Y003100D03*
X001630Y003090D03*
X001620Y003080D03*
X001620Y003070D03*
X001620Y003060D03*
X001610Y003050D03*
X001610Y003040D03*
X001600Y003030D03*
X001600Y003020D03*
X001580Y003020D03*
X001570Y003030D03*
X001560Y003040D03*
X001550Y003050D03*
X001540Y003060D03*
X001530Y003070D03*
X001520Y003080D03*
X001510Y003090D03*
X001500Y003100D03*
X001490Y003110D03*
X001480Y003120D03*
X001470Y003130D03*
X001460Y003140D03*
X001450Y003150D03*
X001440Y003160D03*
X001420Y003160D03*
X001420Y003150D03*
X001420Y003140D03*
X001410Y003130D03*
X001410Y003120D03*
X001410Y003110D03*
X001410Y003100D03*
X001410Y003090D03*
X001410Y003080D03*
X001400Y003070D03*
X001400Y003060D03*
X001400Y003050D03*
X001400Y003040D03*
X001400Y003030D03*
X001400Y003020D03*
X001390Y003010D03*
X001390Y003000D03*
X001390Y002990D03*
X001390Y002980D03*
X001390Y002970D03*
X001390Y002960D03*
X001380Y002940D03*
X001380Y002920D03*
X001380Y002910D03*
X001380Y002900D03*
X001370Y002890D03*
X001370Y002880D03*
X001370Y002870D03*
X001370Y002860D03*
X001370Y002850D03*
X001370Y002840D03*
X001360Y002830D03*
X001360Y002820D03*
X001360Y002810D03*
X001360Y002800D03*
X001360Y002790D03*
X001360Y002780D03*
X001370Y002750D03*
X001420Y002720D03*
X001450Y002700D03*
X001530Y002650D03*
X001580Y002620D03*
X001540Y002860D03*
X001540Y002870D03*
X001550Y002880D03*
X001550Y002890D03*
X001550Y002900D03*
X001560Y002910D03*
X001560Y002920D03*
X001560Y002930D03*
X001570Y002940D03*
X001570Y002950D03*
X001580Y002960D03*
X001580Y002970D03*
X001580Y002980D03*
X001590Y002990D03*
X001630Y002980D03*
X001640Y002970D03*
X001650Y002960D03*
X001660Y002950D03*
X001670Y002940D03*
X001680Y002930D03*
X001690Y002920D03*
X001700Y002910D03*
X001710Y002900D03*
X001730Y002900D03*
X001740Y002910D03*
X001740Y002920D03*
X001750Y002930D03*
X001760Y002940D03*
X001760Y002950D03*
X001770Y002960D03*
X001780Y002970D03*
X001780Y002980D03*
X001790Y002990D03*
X001800Y003000D03*
X001800Y003010D03*
X001830Y003010D03*
X001840Y003000D03*
X001840Y002990D03*
X001850Y002980D03*
X001860Y002970D03*
X001860Y002960D03*
X001870Y002950D03*
X001880Y002940D03*
X001890Y002930D03*
X001890Y002920D03*
X001900Y002910D03*
X001930Y002910D03*
X001940Y002920D03*
X001950Y002930D03*
X001960Y002940D03*
X001970Y002950D03*
X001980Y002960D03*
X001990Y002970D03*
X002000Y002980D03*
X002010Y002990D03*
X002020Y003000D03*
X002040Y003000D03*
X002040Y002990D03*
X002050Y002980D03*
X002050Y002970D03*
X002060Y002960D03*
X002060Y002950D03*
X002070Y002940D03*
X002070Y002930D03*
X002070Y002920D03*
X002080Y002910D03*
X002080Y002900D03*
X002090Y002890D03*
X002090Y002880D03*
X002100Y002870D03*
X002130Y002870D03*
X002160Y002890D03*
X002190Y002910D03*
X002220Y002930D03*
X002280Y002970D03*
X002290Y002980D03*
X002320Y003000D03*
X002350Y003020D03*
X002380Y003040D03*
X002410Y003060D03*
X002440Y003100D03*
X002440Y003110D03*
X002430Y003120D03*
X002430Y003130D03*
X002430Y003140D03*
X002430Y003150D03*
X002430Y003160D03*
X002420Y003170D03*
X002420Y003180D03*
X002420Y003190D03*
X002420Y003200D03*
X002420Y003210D03*
X002420Y003220D03*
X002410Y003230D03*
X002410Y003240D03*
X002410Y003250D03*
X002410Y003260D03*
X002410Y003270D03*
X002400Y003280D03*
X002400Y003290D03*
X002400Y003310D03*
X002400Y003330D03*
X002390Y003340D03*
X002390Y003350D03*
X002390Y003360D03*
X002390Y003370D03*
X002390Y003380D03*
X002380Y003390D03*
X002380Y003400D03*
X002380Y003410D03*
X002380Y003420D03*
X002380Y003430D03*
X002380Y003440D03*
X002370Y003450D03*
X002370Y003460D03*
X002370Y003470D03*
X002370Y003480D03*
X002370Y003490D03*
X002360Y003500D03*
X002360Y003510D03*
X002360Y003520D03*
X002360Y003530D03*
X002360Y003540D03*
X002360Y003550D03*
X002350Y003560D03*
X002350Y003570D03*
X002350Y003580D03*
X002350Y003590D03*
X002350Y003600D03*
X002340Y003610D03*
X002320Y003610D03*
X002310Y003600D03*
X002300Y003590D03*
X002290Y003580D03*
X002280Y003570D03*
X002270Y003560D03*
X002260Y003550D03*
X002250Y003540D03*
X002240Y003530D03*
X002230Y003520D03*
X002220Y003510D03*
X002210Y003500D03*
X002200Y003490D03*
X002190Y003480D03*
X002180Y003470D03*
X002170Y003460D03*
X002160Y003450D03*
X002150Y003440D03*
X002140Y003430D03*
X002130Y003420D03*
X002110Y003420D03*
X002100Y003430D03*
X002100Y003440D03*
X002100Y003450D03*
X002090Y003460D03*
X002090Y003470D03*
X002080Y003480D03*
X002080Y003490D03*
X002080Y003500D03*
X002070Y003510D03*
X002070Y003520D03*
X002060Y003530D03*
X002060Y003540D03*
X002060Y003550D03*
X002050Y003560D03*
X002050Y003570D03*
X002040Y003580D03*
X002040Y003590D03*
X002040Y003600D03*
X002030Y003610D03*
X002030Y003620D03*
X002020Y003630D03*
X002020Y003640D03*
X002020Y003650D03*
X002010Y003660D03*
X002010Y003670D03*
X002000Y003680D03*
X002000Y003690D03*
X001980Y003690D03*
X001980Y003680D03*
X001970Y003670D03*
X001960Y003660D03*
X001960Y003650D03*
X001950Y003640D03*
X001940Y003630D03*
X001940Y003620D03*
X001930Y003610D03*
X001920Y003600D03*
X001920Y003590D03*
X001910Y003580D03*
X001900Y003570D03*
X001900Y003560D03*
X001890Y003550D03*
X001880Y003540D03*
X001880Y003530D03*
X001870Y003520D03*
X001860Y003510D03*
X001860Y003500D03*
X001850Y003490D03*
X001840Y003480D03*
X001840Y003470D03*
X001830Y003460D03*
X001830Y003450D03*
X001800Y003450D03*
X001800Y003460D03*
X001790Y003470D03*
X001780Y003480D03*
X001780Y003490D03*
X001770Y003500D03*
X001760Y003510D03*
X001760Y003520D03*
X001750Y003530D03*
X001740Y003540D03*
X001740Y003550D03*
X001730Y003560D03*
X001730Y003570D03*
X001720Y003580D03*
X001710Y003590D03*
X001710Y003600D03*
X001700Y003610D03*
X001690Y003620D03*
X001690Y003630D03*
X001680Y003640D03*
X001670Y003650D03*
X001670Y003660D03*
X001660Y003670D03*
X001650Y003680D03*
X001650Y003690D03*
X001630Y003690D03*
X001620Y003680D03*
X001620Y003670D03*
X001620Y003660D03*
X001610Y003650D03*
X001610Y003640D03*
X001600Y003630D03*
X001600Y003620D03*
X001600Y003610D03*
X001590Y003600D03*
X001590Y003590D03*
X001580Y003580D03*
X001580Y003570D03*
X001580Y003560D03*
X001570Y003550D03*
X001570Y003540D03*
X001560Y003530D03*
X001560Y003520D03*
X001560Y003510D03*
X001550Y003500D03*
X001550Y003490D03*
X001540Y003480D03*
X001540Y003470D03*
X001540Y003460D03*
X001530Y003450D03*
X001530Y003440D03*
X001520Y003430D03*
X001520Y003420D03*
X001500Y003420D03*
X001490Y003430D03*
X001480Y003440D03*
X001470Y003450D03*
X001460Y003460D03*
X001450Y003470D03*
X001440Y003480D03*
X001430Y003490D03*
X001420Y003500D03*
X001410Y003510D03*
X001400Y003520D03*
X001390Y003530D03*
X001380Y003540D03*
X001370Y003550D03*
X001360Y003560D03*
X001350Y003570D03*
X001340Y003580D03*
X001330Y003590D03*
X001320Y003600D03*
X001310Y003610D03*
X001300Y003620D03*
X001290Y003630D03*
X001270Y003620D03*
X001270Y003610D03*
X001270Y003600D03*
X001270Y003590D03*
X001270Y003580D03*
X001260Y003570D03*
X001260Y003560D03*
X001260Y003550D03*
X001260Y003540D03*
X001260Y003530D03*
X001250Y003520D03*
X001250Y003510D03*
X001250Y003500D03*
X001250Y003490D03*
X001250Y003480D03*
X001250Y003470D03*
X001240Y003460D03*
X001240Y003450D03*
X001240Y003440D03*
X001240Y003430D03*
X001240Y003420D03*
X001230Y003410D03*
X001230Y003400D03*
X001230Y003390D03*
X001230Y003380D03*
X001230Y003370D03*
X001230Y003360D03*
X001220Y003350D03*
X001220Y003340D03*
X001220Y003330D03*
X001200Y003330D03*
X001210Y003300D03*
X001210Y003290D03*
X001210Y003280D03*
X001210Y003270D03*
X001210Y003260D03*
X001200Y003250D03*
X001200Y003240D03*
X001200Y003230D03*
X001200Y003220D03*
X001200Y003210D03*
X001200Y003200D03*
X001190Y003190D03*
X001190Y003180D03*
X001190Y003170D03*
X001190Y003160D03*
X001190Y003150D03*
X001180Y003140D03*
X001180Y003130D03*
X001180Y003120D03*
X001180Y003110D03*
X001180Y003100D03*
X001180Y003090D03*
X001220Y003040D03*
X001270Y003010D03*
X001300Y002990D03*
X001330Y002970D03*
X001410Y002920D03*
X001440Y002900D03*
X001490Y002870D03*
X001430Y003200D03*
X001430Y003210D03*
X001440Y003220D03*
X001440Y003230D03*
X001450Y003240D03*
X001450Y003250D03*
X001450Y003260D03*
X001460Y003270D03*
X001460Y003280D03*
X001470Y003290D03*
X001470Y003300D03*
X001470Y003310D03*
X001480Y003320D03*
X001480Y003330D03*
X001490Y003340D03*
X001490Y003350D03*
X001490Y003360D03*
X001500Y003370D03*
X001500Y003380D03*
X001510Y003390D03*
X001530Y003390D03*
X001540Y003380D03*
X001550Y003370D03*
X001560Y003360D03*
X001570Y003350D03*
X001580Y003340D03*
X001590Y003330D03*
X001600Y003320D03*
X001610Y003310D03*
X001620Y003300D03*
X001630Y003290D03*
X001640Y003280D03*
X001650Y003270D03*
X001660Y003260D03*
X001670Y003250D03*
X001690Y003250D03*
X001700Y003260D03*
X001710Y003270D03*
X001710Y003280D03*
X001720Y003290D03*
X001730Y003300D03*
X001730Y003310D03*
X001740Y003320D03*
X001750Y003330D03*
X001750Y003340D03*
X001760Y003350D03*
X001770Y003360D03*
X001770Y003370D03*
X001780Y003380D03*
X001790Y003390D03*
X001790Y003400D03*
X001800Y003410D03*
X001830Y003410D03*
X001840Y003400D03*
X001840Y003390D03*
X001850Y003380D03*
X001860Y003370D03*
X001860Y003360D03*
X001870Y003350D03*
X001880Y003340D03*
X001880Y003330D03*
X001890Y003320D03*
X001900Y003310D03*
X001900Y003300D03*
X001910Y003290D03*
X001920Y003280D03*
X001920Y003270D03*
X001930Y003260D03*
X001940Y003250D03*
X001960Y003250D03*
X001970Y003260D03*
X001980Y003270D03*
X001990Y003280D03*
X002000Y003290D03*
X002010Y003300D03*
X002020Y003310D03*
X002030Y003320D03*
X002040Y003330D03*
X002050Y003340D03*
X002060Y003350D03*
X002070Y003360D03*
X002080Y003370D03*
X002090Y003380D03*
X002100Y003390D03*
X002120Y003390D03*
X002120Y003380D03*
X002130Y003370D03*
X002130Y003360D03*
X002140Y003350D03*
X002140Y003340D03*
X002150Y003330D03*
X002150Y003320D03*
X002150Y003310D03*
X002160Y003300D03*
X002160Y003290D03*
X002170Y003280D03*
X002170Y003270D03*
X002170Y003260D03*
X002180Y003250D03*
X002180Y003240D03*
X002190Y003230D03*
X002190Y003220D03*
X002190Y003210D03*
X002200Y003200D03*
X002230Y003200D03*
X002260Y003220D03*
X002290Y003240D03*
X002340Y003270D03*
X002370Y003290D03*
X002430Y003330D03*
X002460Y003350D03*
X002490Y003370D03*
X002520Y003390D03*
X002550Y003410D03*
X002600Y003440D03*
X002630Y003460D03*
X002970Y003270D03*
X002980Y003260D03*
X002990Y003250D03*
X002990Y003240D03*
X003000Y003230D03*
X003010Y003220D03*
X003020Y003210D03*
X003030Y003200D03*
X003040Y003190D03*
X003050Y003180D03*
X003060Y003170D03*
X003070Y003160D03*
X003080Y003150D03*
X003090Y003140D03*
X003100Y003130D03*
X003100Y003120D03*
X003110Y003110D03*
X003120Y003100D03*
X003130Y003090D03*
X003140Y003080D03*
X003150Y003070D03*
X003160Y003060D03*
X003170Y003050D03*
X003180Y003040D03*
X003370Y002730D03*
X003370Y002720D03*
X003370Y002710D03*
X003380Y002700D03*
X003380Y002690D03*
X003380Y002680D03*
X003390Y002670D03*
X003390Y002660D03*
X003390Y002650D03*
X003400Y002640D03*
X003400Y002630D03*
X003400Y002620D03*
X003410Y002610D03*
X003410Y002600D03*
X003420Y002590D03*
X003420Y002580D03*
X003420Y002570D03*
X003430Y002560D03*
X003430Y002550D03*
X003430Y002540D03*
X003440Y002530D03*
X003440Y002520D03*
X003440Y002510D03*
X003450Y002500D03*
X003450Y002490D03*
X003450Y002480D03*
X003460Y002470D03*
X003460Y002460D03*
X003460Y002450D03*
X003470Y002440D03*
X003470Y002430D03*
X003460Y002050D03*
X003410Y002020D03*
X003360Y001990D03*
X003310Y001960D03*
X003280Y001920D03*
X003310Y001900D03*
X003320Y001890D03*
X003350Y001870D03*
X003360Y001860D03*
X003390Y001840D03*
X003400Y001830D03*
X003430Y001810D03*
X003460Y001790D03*
X003470Y001780D03*
X003250Y001940D03*
X003240Y001950D03*
X003210Y001970D03*
X003200Y001980D03*
X003170Y002000D03*
X003160Y002010D03*
X003130Y002030D03*
X003100Y002050D03*
X003080Y002050D03*
X003080Y002040D03*
X003080Y002030D03*
X003080Y002020D03*
X003080Y002010D03*
X003080Y002000D03*
X003080Y001990D03*
X003080Y001980D03*
X003080Y001970D03*
X003080Y001960D03*
X003080Y001950D03*
X003080Y001940D03*
X003080Y001930D03*
X003080Y001920D03*
X003080Y001910D03*
X003070Y001900D03*
X003070Y001890D03*
X003070Y001880D03*
X003070Y001870D03*
X003070Y001860D03*
X003070Y001850D03*
X003070Y001840D03*
X003090Y001830D03*
X003140Y001860D03*
X003190Y001890D03*
X003030Y001850D03*
X003020Y001860D03*
X002990Y001880D03*
X002960Y001900D03*
X002950Y001910D03*
X002920Y001930D03*
X002910Y001960D03*
X002880Y001960D03*
X002850Y001980D03*
X002820Y002000D03*
X002810Y002010D03*
X002780Y002030D03*
X002760Y002030D03*
X002760Y002020D03*
X002760Y002010D03*
X002760Y002000D03*
X002760Y001990D03*
X002760Y001980D03*
X002760Y001970D03*
X002760Y001960D03*
X002760Y001950D03*
X002760Y001940D03*
X002760Y001930D03*
X002760Y001920D03*
X002750Y001910D03*
X002750Y001900D03*
X002750Y001890D03*
X002750Y001880D03*
X002730Y001880D03*
X002700Y001900D03*
X002670Y001920D03*
X002640Y001940D03*
X002600Y001940D03*
X002600Y001970D03*
X002570Y001990D03*
X002540Y002010D03*
X002520Y002000D03*
X002520Y001990D03*
X002520Y001980D03*
X002520Y001970D03*
X002520Y001960D03*
X002520Y001950D03*
X002520Y001940D03*
X002520Y001930D03*
X002520Y001920D03*
X002520Y001910D03*
X002550Y001910D03*
X002480Y001920D03*
X002450Y001940D03*
X002410Y001950D03*
X002380Y001930D03*
X002350Y001930D03*
X002350Y001940D03*
X002350Y001950D03*
X002350Y001960D03*
X002350Y001970D03*
X002350Y001980D03*
X002350Y001990D03*
X002320Y001990D03*
X002290Y001970D03*
X002300Y001940D03*
X002330Y001920D03*
X002390Y001980D03*
X002460Y001980D03*
X002490Y002000D03*
X002660Y001980D03*
X002710Y002010D03*
X002740Y002030D03*
X002830Y001910D03*
X002860Y001930D03*
X002780Y001880D03*
X002960Y001990D03*
X002990Y002010D03*
X003040Y002040D03*
X002260Y001950D03*
X002240Y001980D03*
X002220Y001970D03*
X002220Y001960D03*
X002220Y001950D03*
X002220Y001940D03*
X002180Y001950D03*
X002160Y001950D03*
X002150Y001970D03*
X002130Y001970D03*
X002130Y001960D03*
X002130Y001950D03*
X002110Y001970D03*
X002190Y001970D03*
X001660Y002270D03*
X001660Y002280D03*
X001660Y002290D03*
X001660Y002300D03*
X001450Y001980D03*
X001540Y001660D03*
X001540Y001650D03*
X001540Y001640D03*
X001540Y001630D03*
X001530Y001620D03*
X001530Y001600D03*
X001520Y001590D03*
X001520Y001580D03*
X001520Y001570D03*
X001520Y001560D03*
X001510Y001550D03*
X001510Y001540D03*
X001510Y001530D03*
X001480Y001530D03*
X001470Y001540D03*
X001470Y001550D03*
X001460Y001560D03*
X001450Y001570D03*
X001440Y001580D03*
X001420Y001580D03*
X001420Y001570D03*
X001410Y001560D03*
X001410Y001550D03*
X001410Y001540D03*
X001400Y001530D03*
X001400Y001520D03*
X001400Y001510D03*
X001390Y001480D03*
X001390Y001470D03*
X001380Y001460D03*
X001380Y001450D03*
X001380Y001440D03*
X001370Y001430D03*
X001370Y001420D03*
X001370Y001410D03*
X001360Y001400D03*
X001360Y001390D03*
X001360Y001380D03*
X001360Y001370D03*
X001340Y001370D03*
X001330Y001380D03*
X001320Y001390D03*
X001320Y001400D03*
X001310Y001410D03*
X001300Y001420D03*
X001290Y001430D03*
X001280Y001440D03*
X001280Y001450D03*
X001270Y001460D03*
X001250Y001460D03*
X001240Y001450D03*
X001240Y001440D03*
X001240Y001430D03*
X001230Y001420D03*
X001230Y001410D03*
X001230Y001400D03*
X001220Y001390D03*
X001220Y001380D03*
X001220Y001370D03*
X001210Y001360D03*
X001210Y001350D03*
X001200Y001330D03*
X001200Y001320D03*
X001200Y001310D03*
X001190Y001300D03*
X001190Y001290D03*
X001190Y001280D03*
X001190Y001270D03*
X001180Y001260D03*
X001180Y001250D03*
X001180Y001240D03*
X001170Y001230D03*
X001170Y001220D03*
X001170Y001210D03*
X001160Y001200D03*
X001160Y001190D03*
X001160Y001180D03*
X001130Y001180D03*
X001120Y001190D03*
X001120Y001200D03*
X001110Y001210D03*
X001100Y001220D03*
X001090Y001230D03*
X001080Y001240D03*
X001080Y001250D03*
X001070Y001260D03*
X001060Y001270D03*
X001050Y001280D03*
X001050Y001290D03*
X001040Y001300D03*
X001030Y001310D03*
X001010Y001310D03*
X001000Y001300D03*
X001000Y001290D03*
X001000Y001280D03*
X000990Y001270D03*
X000990Y001260D03*
X000990Y001250D03*
X000980Y001240D03*
X000980Y001230D03*
X000980Y001220D03*
X000970Y001210D03*
X000970Y001200D03*
X000970Y001190D03*
X000960Y001180D03*
X000960Y001170D03*
X000960Y001160D03*
X000950Y001150D03*
X000950Y001130D03*
X000940Y001120D03*
X000940Y001110D03*
X000940Y001100D03*
X000930Y001090D03*
X000930Y001080D03*
X000930Y001070D03*
X000920Y001060D03*
X000920Y001050D03*
X000920Y001040D03*
X000910Y001030D03*
X000910Y001020D03*
X000910Y001010D03*
X000900Y001000D03*
X000900Y000990D03*
X000900Y000980D03*
X000890Y000970D03*
X000890Y000960D03*
X000890Y000950D03*
X000880Y000940D03*
X000880Y000930D03*
X000880Y000920D03*
X000870Y000910D03*
X000870Y000900D03*
X000850Y000900D03*
X000850Y000910D03*
X000840Y000920D03*
X000830Y000930D03*
X000820Y000940D03*
X000820Y000950D03*
X000810Y000960D03*
X000800Y000970D03*
X000790Y000980D03*
X000790Y000990D03*
X000780Y001000D03*
X000770Y001010D03*
X000760Y001020D03*
X000750Y001030D03*
X000750Y001040D03*
X000740Y001050D03*
X000730Y001060D03*
X000720Y001070D03*
X000720Y001080D03*
X000710Y001090D03*
X000700Y001100D03*
X000690Y001110D03*
X000890Y000870D03*
X000900Y000860D03*
X000910Y000850D03*
X000920Y000840D03*
X000930Y000830D03*
X000940Y000820D03*
X000950Y000810D03*
X000980Y000790D03*
X000990Y000780D03*
X001000Y000770D03*
X001010Y000760D03*
X001020Y000750D03*
X001030Y000740D03*
X001060Y000720D03*
X001070Y000710D03*
X001090Y000710D03*
X001090Y000720D03*
X001100Y000730D03*
X001100Y000740D03*
X001100Y000750D03*
X001100Y000760D03*
X001100Y000770D03*
X001100Y000780D03*
X001100Y000790D03*
X001100Y000800D03*
X001110Y000810D03*
X001110Y000820D03*
X001110Y000830D03*
X001110Y000840D03*
X001110Y000850D03*
X001110Y000860D03*
X001110Y000870D03*
X001110Y000880D03*
X001110Y000890D03*
X001120Y000900D03*
X001120Y000910D03*
X001120Y000920D03*
X001120Y000930D03*
X001120Y000940D03*
X001120Y000970D03*
X001130Y000980D03*
X001130Y000990D03*
X001130Y001000D03*
X001130Y001010D03*
X001130Y001020D03*
X001130Y001030D03*
X001130Y001040D03*
X001130Y001050D03*
X001130Y001060D03*
X001140Y001070D03*
X001140Y001080D03*
X001140Y001090D03*
X001140Y001100D03*
X001140Y001110D03*
X001140Y001120D03*
X001140Y001130D03*
X001140Y001140D03*
X001170Y001140D03*
X001180Y001130D03*
X001190Y001120D03*
X001200Y001110D03*
X001230Y001090D03*
X001240Y001080D03*
X001250Y001070D03*
X001260Y001060D03*
X001270Y001050D03*
X001300Y001030D03*
X001380Y001050D03*
X001410Y000960D03*
X001500Y000960D03*
X001500Y000970D03*
X001500Y000980D03*
X001500Y000990D03*
X001500Y001000D03*
X001500Y001010D03*
X001500Y001020D03*
X001500Y001030D03*
X001500Y001040D03*
X001490Y001050D03*
X001490Y001060D03*
X001490Y001070D03*
X001490Y001080D03*
X001490Y001090D03*
X001490Y001120D03*
X001490Y001130D03*
X001490Y001140D03*
X001480Y001150D03*
X001480Y001160D03*
X001480Y001170D03*
X001480Y001180D03*
X001480Y001190D03*
X001480Y001200D03*
X001480Y001210D03*
X001480Y001220D03*
X001480Y001230D03*
X001480Y001240D03*
X001520Y001230D03*
X001520Y001280D03*
X001600Y001300D03*
X001600Y001310D03*
X001610Y001290D03*
X001610Y001280D03*
X001610Y001270D03*
X001610Y001260D03*
X001610Y001250D03*
X001610Y001240D03*
X001610Y001230D03*
X001610Y001220D03*
X001620Y001210D03*
X001620Y001200D03*
X001640Y001200D03*
X001650Y001210D03*
X001660Y001220D03*
X001670Y001230D03*
X001700Y001250D03*
X001710Y001260D03*
X001740Y001290D03*
X001770Y001310D03*
X001780Y001320D03*
X001790Y001330D03*
X001820Y001330D03*
X001830Y001320D03*
X001830Y001310D03*
X001840Y001300D03*
X001840Y001290D03*
X001850Y001280D03*
X001850Y001270D03*
X001880Y001270D03*
X001890Y001280D03*
X001890Y001290D03*
X001900Y001300D03*
X001910Y001310D03*
X001920Y001320D03*
X001920Y001330D03*
X001940Y001330D03*
X001950Y001320D03*
X001950Y001310D03*
X001960Y001300D03*
X001970Y001290D03*
X001980Y001280D03*
X001990Y001270D03*
X001990Y001240D03*
X001990Y001230D03*
X001980Y001220D03*
X001980Y001210D03*
X001970Y001200D03*
X001970Y001190D03*
X001960Y001180D03*
X001960Y001170D03*
X001960Y001160D03*
X001950Y001150D03*
X001950Y001140D03*
X001930Y001140D03*
X001920Y001150D03*
X001920Y001160D03*
X001910Y001170D03*
X001910Y001180D03*
X001900Y001190D03*
X001890Y001200D03*
X001890Y001210D03*
X001880Y001220D03*
X001880Y001230D03*
X001850Y001230D03*
X001840Y001220D03*
X001830Y001210D03*
X001820Y001200D03*
X001820Y001190D03*
X001810Y001180D03*
X001800Y001170D03*
X001790Y001160D03*
X001790Y001150D03*
X001740Y001110D03*
X001730Y001100D03*
X001720Y001090D03*
X001710Y001080D03*
X001700Y001070D03*
X001670Y001020D03*
X001670Y001010D03*
X001670Y001000D03*
X001670Y000990D03*
X001680Y000980D03*
X001680Y000970D03*
X001680Y000960D03*
X001690Y000950D03*
X001690Y000940D03*
X001690Y000930D03*
X001700Y000920D03*
X001700Y000910D03*
X001700Y000900D03*
X001710Y000890D03*
X001710Y000880D03*
X001710Y000870D03*
X001740Y000870D03*
X001750Y000880D03*
X001760Y000890D03*
X001770Y000900D03*
X001770Y000910D03*
X001780Y000920D03*
X001790Y000930D03*
X001800Y000940D03*
X001810Y000950D03*
X001810Y000960D03*
X001820Y000970D03*
X001830Y000980D03*
X001850Y001000D03*
X001860Y000980D03*
X001870Y000970D03*
X001870Y000960D03*
X001880Y000950D03*
X001880Y000940D03*
X001890Y000930D03*
X001890Y000920D03*
X001900Y000910D03*
X001900Y000900D03*
X001910Y000890D03*
X001910Y000880D03*
X001920Y000870D03*
X001930Y000860D03*
X001930Y000850D03*
X001950Y000850D03*
X001960Y000860D03*
X001960Y000870D03*
X001970Y000880D03*
X001970Y000890D03*
X001980Y000900D03*
X001980Y000910D03*
X001990Y000920D03*
X001990Y000930D03*
X002000Y000940D03*
X002000Y000950D03*
X002010Y000960D03*
X002010Y000970D03*
X002020Y000980D03*
X002020Y000990D03*
X002040Y001020D03*
X002040Y001030D03*
X002050Y001040D03*
X002050Y001050D03*
X002060Y001060D03*
X002060Y001070D03*
X002070Y001080D03*
X002070Y001090D03*
X002080Y001100D03*
X002080Y001110D03*
X002090Y001120D03*
X002090Y001130D03*
X002120Y001130D03*
X002130Y001120D03*
X002140Y001110D03*
X002170Y001090D03*
X002180Y001080D03*
X002260Y001020D03*
X002270Y001010D03*
X002280Y001000D03*
X002310Y000980D03*
X002320Y000970D03*
X002350Y000950D03*
X002360Y000940D03*
X002370Y000930D03*
X002380Y000900D03*
X002380Y000890D03*
X002380Y000880D03*
X002370Y000870D03*
X002370Y000860D03*
X002370Y000850D03*
X002370Y000840D03*
X002360Y000830D03*
X002360Y000820D03*
X002360Y000810D03*
X002350Y000800D03*
X002350Y000790D03*
X002350Y000780D03*
X002350Y000770D03*
X002340Y000760D03*
X002340Y000750D03*
X002340Y000740D03*
X002340Y000730D03*
X002330Y000720D03*
X002320Y000730D03*
X002330Y000700D03*
X002320Y000690D03*
X002320Y000680D03*
X002320Y000670D03*
X002320Y000660D03*
X002310Y000650D03*
X002310Y000640D03*
X002310Y000630D03*
X002300Y000620D03*
X002300Y000610D03*
X002300Y000600D03*
X002300Y000590D03*
X002290Y000580D03*
X002290Y000570D03*
X002290Y000560D03*
X002280Y000550D03*
X002280Y000540D03*
X002280Y000530D03*
X002280Y000520D03*
X002270Y000510D03*
X002270Y000500D03*
X002270Y000490D03*
X002260Y000480D03*
X002260Y000470D03*
X002260Y000460D03*
X002240Y000460D03*
X002230Y000470D03*
X002220Y000480D03*
X002210Y000490D03*
X002210Y000500D03*
X002200Y000510D03*
X002190Y000520D03*
X002180Y000530D03*
X002170Y000540D03*
X002160Y000550D03*
X002160Y000560D03*
X002150Y000570D03*
X002140Y000580D03*
X002130Y000590D03*
X002120Y000600D03*
X002110Y000610D03*
X002110Y000620D03*
X002100Y000630D03*
X002090Y000640D03*
X002080Y000670D03*
X002080Y000680D03*
X002090Y000690D03*
X002090Y000700D03*
X002100Y000710D03*
X002100Y000720D03*
X002110Y000730D03*
X002110Y000740D03*
X002120Y000750D03*
X002120Y000760D03*
X002130Y000770D03*
X002140Y000780D03*
X002140Y000790D03*
X002150Y000800D03*
X002150Y000810D03*
X002160Y000820D03*
X002160Y000830D03*
X002190Y000830D03*
X002220Y000810D03*
X002230Y000800D03*
X002240Y000790D03*
X002270Y000770D03*
X002280Y000760D03*
X002290Y000750D03*
X002370Y000690D03*
X002380Y000680D03*
X002390Y000670D03*
X002420Y000650D03*
X002430Y000640D03*
X002440Y000630D03*
X002470Y000610D03*
X002480Y000600D03*
X002490Y000590D03*
X002520Y000570D03*
X002530Y000560D03*
X002550Y000560D03*
X002550Y000570D03*
X002630Y000790D03*
X001660Y001040D03*
X001650Y001060D03*
X001650Y001070D03*
X001650Y001080D03*
X001640Y001090D03*
X001640Y001100D03*
X001640Y001110D03*
X001630Y001120D03*
X001630Y001130D03*
X001630Y001140D03*
X001630Y001150D03*
X001620Y001160D03*
X001510Y001120D03*
X001610Y001000D03*
X001600Y000990D03*
X001590Y000980D03*
X001580Y000970D03*
X001570Y000960D03*
X001540Y000940D03*
X001530Y000930D03*
X001510Y000930D03*
X001510Y000940D03*
X001500Y000950D03*
X001510Y000900D03*
X001510Y000890D03*
X001510Y000880D03*
X001520Y000870D03*
X001520Y000860D03*
X001520Y000850D03*
X001530Y000840D03*
X001530Y000830D03*
X001530Y000820D03*
X001540Y000810D03*
X001540Y000800D03*
X001540Y000790D03*
X001540Y000780D03*
X001550Y000770D03*
X001550Y000760D03*
X001550Y000750D03*
X001430Y000870D03*
X001240Y000770D03*
X001160Y000650D03*
X001210Y000620D03*
X001280Y000580D03*
X001090Y000690D03*
X001640Y001020D03*
X001600Y001340D03*
X001600Y001350D03*
X001600Y001360D03*
X001590Y001630D03*
X001580Y001640D03*
X001580Y001650D03*
X001570Y001660D03*
X001110Y001780D03*
X000950Y001870D03*
X000880Y001910D03*
X000740Y001790D03*
X000810Y001750D03*
X000620Y001860D03*
X000550Y001900D03*
X000370Y003030D03*
X000380Y003040D03*
X000390Y003050D03*
X000400Y003060D03*
X000410Y003070D03*
X000420Y003080D03*
X000430Y003090D03*
X000440Y003100D03*
X000450Y003110D03*
X000460Y003120D03*
X000470Y003130D03*
X000480Y003140D03*
X000490Y003150D03*
X000500Y003160D03*
X000510Y003170D03*
X000520Y003180D03*
X000530Y003190D03*
X000540Y003200D03*
X000550Y003210D03*
X000560Y003220D03*
X000570Y003230D03*
X000580Y003240D03*
X000590Y003250D03*
X000600Y003260D03*
X000610Y003270D03*
X000940Y003500D03*
X000990Y003470D03*
X001020Y003450D03*
X001050Y003430D03*
X001080Y003410D03*
X001110Y003390D03*
X001140Y003370D03*
X001170Y003350D03*
X001260Y003290D03*
X001290Y003270D03*
X001320Y003250D03*
X001350Y003230D03*
X001380Y003210D03*
D16*
X001550Y002850D03*
X001730Y002620D03*
X001940Y002880D03*
X002350Y002380D03*
X002450Y002680D03*
X002670Y002940D03*
X002160Y002070D03*
X001990Y001990D03*
X001860Y002140D03*
X001750Y001890D03*
X001860Y001830D03*
X001960Y001850D03*
X002050Y001800D03*
X002120Y001740D03*
X002190Y001850D03*
X002240Y001660D03*
X002510Y001660D03*
X002690Y001540D03*
X002890Y001570D03*
X002960Y001580D03*
X002980Y001380D03*
X002910Y001370D03*
X003130Y001400D03*
X003280Y001420D03*
X002080Y001140D03*
X001800Y001630D03*
X001720Y001760D03*
X001600Y001690D03*
X001940Y001710D03*
X001420Y002320D03*
X001240Y002470D03*
X001110Y002490D03*
X001200Y002210D03*
X001650Y000450D03*
D17*
X001600Y000460D03*
X001570Y000470D03*
X001540Y000480D03*
X001510Y000490D03*
X001480Y000500D03*
X001450Y000510D03*
X001420Y000520D03*
X001390Y000530D03*
X001360Y000540D03*
X001340Y000550D03*
X001320Y000810D03*
X001230Y000990D03*
X001200Y000980D03*
X001130Y000960D03*
X001060Y000940D03*
X000990Y000920D03*
X000960Y000910D03*
X001160Y001160D03*
X001230Y001180D03*
X001260Y001190D03*
X001290Y001200D03*
X001390Y001230D03*
X001420Y001240D03*
X001480Y001260D03*
X001450Y001390D03*
X001420Y001380D03*
X001390Y001370D03*
X001480Y001400D03*
X001540Y001420D03*
X001590Y001440D03*
X001670Y001480D03*
X001740Y001520D03*
X001750Y001530D03*
X001730Y001600D03*
X001750Y001620D03*
X001780Y001640D03*
X001730Y001660D03*
X001730Y001670D03*
X001690Y001690D03*
X001730Y001720D03*
X001750Y001730D03*
X001810Y001720D03*
X001780Y001810D03*
X001710Y001900D03*
X001680Y001910D03*
X001680Y001890D03*
X001640Y001890D03*
X001630Y001900D03*
X001600Y001910D03*
X001630Y001950D03*
X001630Y001990D03*
X001720Y001950D03*
X001730Y001960D03*
X001750Y001940D03*
X001760Y001930D03*
X001720Y001930D03*
X001730Y002090D03*
X001760Y002100D03*
X001750Y002180D03*
X001760Y002200D03*
X001770Y002190D03*
X001790Y002230D03*
X001730Y002210D03*
X001680Y002180D03*
X001650Y002240D03*
X001680Y002310D03*
X001660Y002330D03*
X001580Y002280D03*
X001550Y002290D03*
X001510Y002320D03*
X001540Y002390D03*
X001480Y002410D03*
X001430Y002430D03*
X001400Y002440D03*
X001380Y002460D03*
X001400Y002570D03*
X001370Y002580D03*
X001450Y002550D03*
X001480Y002540D03*
X001500Y002520D03*
X001510Y002660D03*
X001390Y002780D03*
X001340Y002750D03*
X001310Y002780D03*
X001260Y002800D03*
X001230Y002810D03*
X001180Y002830D03*
X001130Y002850D03*
X001100Y002860D03*
X001050Y002880D03*
X001000Y002900D03*
X000960Y002930D03*
X000940Y002920D03*
X001090Y003110D03*
X001040Y003130D03*
X000990Y003150D03*
X000960Y003160D03*
X000940Y003170D03*
X000890Y003190D03*
X000840Y003210D03*
X000790Y003230D03*
X000740Y003250D03*
X000690Y003270D03*
X000640Y003290D03*
X000960Y003510D03*
X001010Y003530D03*
X001060Y003550D03*
X001110Y003570D03*
X001160Y003590D03*
X001230Y003620D03*
X001260Y003630D03*
X001280Y003640D03*
X001420Y003190D03*
X001430Y003180D03*
X001350Y003150D03*
X001280Y003120D03*
X001210Y003090D03*
X001140Y003090D03*
X001370Y002950D03*
X001390Y002930D03*
X001460Y002810D03*
X001290Y002610D03*
X001260Y002620D03*
X001720Y002500D03*
X001990Y002440D03*
X002020Y002420D03*
X002080Y002390D03*
X002090Y002310D03*
X002120Y002320D03*
X002150Y002330D03*
X002160Y002430D03*
X002250Y002470D03*
X002190Y002570D03*
X002160Y002560D03*
X002130Y002570D03*
X002080Y002590D03*
X002050Y002600D03*
X002040Y002620D03*
X002130Y002840D03*
X002110Y002860D03*
X002200Y002810D03*
X002250Y002790D03*
X002290Y002790D03*
X002320Y002800D03*
X002370Y002820D03*
X002490Y002870D03*
X002540Y002890D03*
X002590Y002910D03*
X002510Y003110D03*
X002560Y003130D03*
X002610Y003150D03*
X002660Y003170D03*
X002710Y003190D03*
X002760Y003210D03*
X002810Y003230D03*
X002860Y003250D03*
X002910Y003270D03*
X002940Y003290D03*
X003170Y003030D03*
X002650Y003470D03*
X002630Y003500D03*
X002520Y003550D03*
X002410Y003600D03*
X002410Y003320D03*
X002390Y003300D03*
X002320Y003130D03*
X002390Y003100D03*
X002230Y003170D03*
X002210Y003190D03*
X002240Y002940D03*
X002400Y002660D03*
X002430Y002670D03*
X002330Y002630D03*
X002010Y002260D03*
X001960Y002310D03*
X001940Y002200D03*
X001980Y002180D03*
X001990Y002140D03*
X001990Y002100D03*
X001940Y002080D03*
X001940Y002050D03*
X001910Y002090D03*
X001880Y002070D03*
X002060Y001970D03*
X002060Y001940D03*
X002060Y001930D03*
X002060Y001900D03*
X002090Y001950D03*
X002090Y001960D03*
X002130Y001980D03*
X002170Y001960D03*
X002210Y001980D03*
X002220Y001930D03*
X002190Y001910D03*
X002270Y001880D03*
X002300Y001890D03*
X002360Y001920D03*
X002390Y001840D03*
X002360Y001830D03*
X002440Y001860D03*
X002490Y001880D03*
X002530Y001780D03*
X002500Y001770D03*
X002610Y001810D03*
X002660Y001830D03*
X002690Y001840D03*
X002620Y001950D03*
X002620Y001960D03*
X002510Y002010D03*
X002480Y002040D03*
X002410Y002070D03*
X002360Y002090D03*
X002290Y002030D03*
X002240Y002050D03*
X002210Y002060D03*
X002000Y001810D03*
X001970Y001790D03*
X001970Y001750D03*
X002010Y001770D03*
X002040Y001760D03*
X002030Y001720D03*
X002040Y001660D03*
X002040Y001650D03*
X002010Y001640D03*
X001990Y001620D03*
X002020Y001520D03*
X002050Y001530D03*
X002110Y001560D03*
X002110Y001620D03*
X002070Y001640D03*
X002090Y001680D03*
X002100Y001690D03*
X001930Y001810D03*
X001940Y001830D03*
X001670Y001640D03*
X001640Y001630D03*
X001590Y001540D03*
X001560Y001530D03*
X001530Y001520D03*
X001680Y001390D03*
X001740Y001370D03*
X001660Y001170D03*
X001610Y001170D03*
X001730Y001150D03*
X001480Y001100D03*
X001320Y001020D03*
X001510Y000910D03*
X001580Y000890D03*
X001610Y000880D03*
X001640Y000870D03*
X001670Y000860D03*
X002050Y001360D03*
X002080Y001370D03*
X002110Y001380D03*
X002170Y001400D03*
X002220Y001370D03*
X002280Y001340D03*
X002260Y001450D03*
X002280Y001460D03*
X002210Y001490D03*
X002180Y001500D03*
X002080Y001460D03*
X002250Y001210D03*
X002210Y001180D03*
X002180Y001170D03*
X002150Y001160D03*
X002330Y000900D03*
X002300Y000890D03*
X002270Y000880D03*
X002240Y000870D03*
X002390Y000920D03*
X002560Y000830D03*
X002580Y001020D03*
X002600Y001030D03*
X002630Y001020D03*
X002740Y000990D03*
X002880Y000950D03*
X002990Y000920D03*
X002640Y001220D03*
X002490Y001260D03*
X002410Y001120D03*
X002640Y001530D03*
X002760Y001710D03*
X002790Y001720D03*
X002820Y001730D03*
X002870Y001750D03*
X002900Y001760D03*
X002930Y001770D03*
X002960Y001780D03*
X003010Y001800D03*
X003040Y001810D03*
X003070Y001820D03*
X003170Y001640D03*
X003140Y001630D03*
X003110Y001620D03*
X003080Y001610D03*
X003050Y001600D03*
X003280Y001680D03*
X003310Y001690D03*
X003340Y001700D03*
X003370Y001710D03*
X003400Y001720D03*
X003430Y001730D03*
X003460Y001740D03*
X003490Y001750D03*
X003490Y001770D03*
X003520Y002090D03*
X003450Y002120D03*
X003320Y002180D03*
X003250Y002210D03*
X003190Y002240D03*
X003080Y002060D03*
X002980Y002110D03*
X002890Y002150D03*
X002800Y002190D03*
X002720Y002060D03*
X002760Y002040D03*
X002650Y002090D03*
X002580Y002120D03*
X003410Y001440D03*
X002530Y000530D03*
X002500Y000520D03*
X002430Y000500D03*
X002400Y000490D03*
X002330Y000470D03*
X002260Y000450D03*
X001110Y001640D03*
X001080Y001650D03*
X001050Y001660D03*
X001020Y001670D03*
X000990Y001680D03*
X000960Y001690D03*
X000930Y001700D03*
X000900Y001710D03*
X000870Y001720D03*
X000780Y001560D03*
X000810Y001550D03*
X000840Y001540D03*
X000870Y001530D03*
X000690Y001590D03*
X000660Y001600D03*
X000630Y001610D03*
X000600Y001620D03*
X000570Y001630D03*
X000540Y001640D03*
X000700Y001810D03*
X000550Y001980D03*
X000480Y001950D03*
X000480Y001940D03*
X000700Y002050D03*
X000850Y001930D03*
X001010Y001840D03*
X001130Y001920D03*
X001140Y001910D03*
X001040Y002020D03*
X001130Y002060D03*
X001150Y002070D03*
X001250Y001980D03*
X001320Y001930D03*
X001250Y001850D03*
X001340Y001810D03*
X001430Y001780D03*
X001460Y001770D03*
X001480Y001840D03*
X001540Y001890D03*
X001480Y001920D03*
X001470Y001990D03*
X001490Y002000D03*
X001520Y002010D03*
X001550Y002020D03*
X001630Y002090D03*
X001350Y002030D03*
X001260Y001730D03*
X001230Y001740D03*
X001330Y001710D03*
X001010Y001320D03*
X000570Y001380D03*
X000950Y002150D03*
X000620Y002480D03*
X000770Y002720D03*
D18*
X000885Y002310D03*
X000845Y002300D03*
X000755Y002280D03*
X000715Y002270D03*
X000675Y002260D03*
X000635Y002250D03*
X000595Y002240D03*
X000555Y002230D03*
X000715Y002060D03*
X000875Y002130D03*
X000915Y002140D03*
X000985Y002160D03*
X001025Y002170D03*
X001065Y002180D03*
X001105Y002190D03*
X001145Y002200D03*
X001185Y002080D03*
X001225Y002090D03*
X001265Y002100D03*
X001335Y002120D03*
X001385Y002040D03*
X001425Y002050D03*
X001495Y002070D03*
X001585Y001970D03*
X001595Y001980D03*
X001585Y001930D03*
X001585Y001870D03*
X001545Y001820D03*
X001485Y001910D03*
X001395Y001790D03*
X001295Y001720D03*
X001195Y001750D03*
X001135Y001770D03*
X001015Y001830D03*
X000855Y001920D03*
X001145Y001630D03*
X000905Y001520D03*
X000745Y001570D03*
X000725Y001580D03*
X000505Y001650D03*
X001165Y000970D03*
X001265Y001000D03*
X001305Y001010D03*
X001195Y001170D03*
X001325Y001210D03*
X001355Y001220D03*
X001355Y001360D03*
X001505Y001410D03*
X001495Y001510D03*
X001615Y001550D03*
X001695Y001650D03*
X001695Y001710D03*
X001825Y001780D03*
X001885Y001810D03*
X001915Y001820D03*
X001965Y001820D03*
X002005Y001740D03*
X002075Y001750D03*
X002075Y001700D03*
X002165Y001600D03*
X002315Y001560D03*
X002265Y001470D03*
X002315Y001450D03*
X002395Y001430D03*
X002435Y001420D03*
X002475Y001410D03*
X002455Y001270D03*
X002415Y001280D03*
X002525Y001250D03*
X002565Y001240D03*
X002605Y001230D03*
X002675Y001210D03*
X002715Y001200D03*
X002755Y001190D03*
X002705Y001000D03*
X002665Y001010D03*
X002585Y001040D03*
X002775Y000980D03*
X002805Y000970D03*
X002845Y000960D03*
X002915Y000940D03*
X002955Y000930D03*
X003025Y000910D03*
X003065Y000900D03*
X002465Y000510D03*
X002365Y000480D03*
X002295Y000460D03*
X002165Y000850D03*
X002205Y000860D03*
X001765Y001140D03*
X001695Y001160D03*
X001625Y001180D03*
X001705Y001380D03*
X001775Y001360D03*
X001785Y001520D03*
X001975Y001630D03*
X002215Y001860D03*
X002255Y001870D03*
X002325Y001820D03*
X002345Y002000D03*
X002345Y002010D03*
X002325Y002100D03*
X002425Y002060D03*
X002515Y002030D03*
X002505Y002150D03*
X002725Y002220D03*
X002795Y002360D03*
X002705Y002380D03*
X002935Y002330D03*
X003055Y002300D03*
X003165Y002490D03*
X003125Y002500D03*
X003085Y002510D03*
X002995Y002530D03*
X003255Y002470D03*
X003295Y002460D03*
X003385Y002440D03*
X003425Y002430D03*
X003465Y002420D03*
X003245Y002220D03*
X003075Y002070D03*
X002755Y002050D03*
X002755Y001870D03*
X002745Y001860D03*
X002855Y001740D03*
X003015Y001590D03*
X003205Y001650D03*
X003225Y001660D03*
X002585Y001800D03*
X002525Y001900D03*
X002215Y002000D03*
X002175Y002010D03*
X002155Y002020D03*
X002115Y002030D03*
X002095Y001990D03*
X002115Y001880D03*
X001985Y002020D03*
X001965Y002000D03*
X001965Y002060D03*
X001965Y002090D03*
X001955Y002110D03*
X001965Y002130D03*
X002025Y002150D03*
X002035Y002160D03*
X002075Y002170D03*
X002115Y002180D03*
X002015Y002200D03*
X001975Y002190D03*
X001915Y002130D03*
X001925Y002070D03*
X001995Y002070D03*
X002025Y002110D03*
X001865Y002020D03*
X001725Y001980D03*
X001665Y001960D03*
X001665Y001930D03*
X001705Y002120D03*
X001725Y002160D03*
X001715Y002170D03*
X001655Y002190D03*
X001615Y002200D03*
X001605Y002270D03*
X001725Y002280D03*
X001735Y002290D03*
X001685Y002420D03*
X001505Y002400D03*
X001505Y002550D03*
X001345Y002590D03*
X001675Y002610D03*
X001705Y002880D03*
X002025Y002610D03*
X002165Y002550D03*
X002265Y002600D03*
X002245Y002360D03*
X002185Y002260D03*
X001975Y002290D03*
X002425Y002840D03*
X002645Y002930D03*
X002455Y003090D03*
X002195Y003180D03*
X002055Y003210D03*
X002095Y002850D03*
X002285Y003640D03*
X002245Y003650D03*
X002155Y003670D03*
X002065Y003690D03*
X001175Y003080D03*
X001335Y002020D03*
X001335Y001910D03*
X001545Y001680D03*
X001545Y000900D03*
X001095Y000700D03*
X001025Y000930D03*
X000925Y000900D03*
D19*
X001285Y001350D03*
X001245Y001480D03*
X001345Y001490D03*
X001065Y001500D03*
X001485Y002220D03*
X001765Y002110D03*
X001765Y001860D03*
X001845Y001710D03*
X001875Y000830D03*
X002095Y000840D03*
X001995Y003700D03*
D20*
X002110Y003680D03*
X002200Y003660D03*
X002330Y003630D03*
X002100Y003200D03*
X002150Y003190D03*
X002010Y003220D03*
X002000Y002870D03*
X002050Y002860D03*
X002280Y002770D03*
X002510Y002690D03*
X002560Y002700D03*
X002610Y002710D03*
X002720Y002730D03*
X002770Y002740D03*
X002730Y002950D03*
X002440Y003070D03*
X002510Y002530D03*
X002460Y002520D03*
X002410Y002510D03*
X002360Y002500D03*
X002530Y002260D03*
X002580Y002250D03*
X002630Y002240D03*
X002680Y002230D03*
X002750Y002370D03*
X002840Y002350D03*
X002890Y002340D03*
X002980Y002320D03*
X003030Y002310D03*
X003210Y002480D03*
X003340Y002450D03*
X003040Y002520D03*
X003010Y003000D03*
X002400Y002170D03*
X002280Y002110D03*
X002140Y002250D03*
X002090Y002240D03*
X002020Y002280D03*
X001940Y002300D03*
X001980Y002430D03*
X002080Y002400D03*
X001810Y002200D03*
X001740Y002070D03*
X001810Y002020D03*
X001670Y002000D03*
X001590Y002030D03*
X001660Y002130D03*
X001450Y002060D03*
X001380Y002130D03*
X001290Y002110D03*
X001480Y002310D03*
X001510Y002300D03*
X001580Y002380D03*
X001670Y002410D03*
X001730Y002430D03*
X001630Y002600D03*
X001610Y002860D03*
X001660Y002870D03*
X001350Y002770D03*
X001200Y002640D03*
X001360Y002450D03*
X000930Y002320D03*
X000800Y002290D03*
X001150Y001760D03*
X001190Y001620D03*
X001370Y001700D03*
X001350Y001800D03*
X001500Y001830D03*
X001630Y001850D03*
X001850Y001860D03*
X001910Y001860D03*
X002000Y001970D03*
X002050Y001980D03*
X002070Y002000D03*
X002130Y001940D03*
X002120Y001920D03*
X002230Y001800D03*
X002280Y001810D03*
X002180Y001670D03*
X002140Y001680D03*
X002180Y001590D03*
X002230Y001580D03*
X002270Y001570D03*
X002360Y001440D03*
X002520Y001400D03*
X002110Y001150D03*
X001930Y001120D03*
X001710Y000850D03*
X001580Y001430D03*
X001600Y001620D03*
X001830Y001510D03*
X002090Y001540D03*
X001100Y000950D03*
X000880Y000890D03*
X000860Y001730D03*
X000960Y002910D03*
X000900Y002930D03*
X000790Y002950D03*
X000620Y002980D03*
X000510Y003000D03*
X000400Y003020D03*
X000940Y003490D03*
X001320Y003650D03*
X001430Y003670D03*
X001540Y003690D03*
X001590Y003700D03*
X001620Y003220D03*
X001570Y003210D03*
X001520Y003200D03*
X001470Y003190D03*
X001410Y003170D03*
D21*
X001375Y003660D03*
X001485Y003680D03*
X000845Y002940D03*
X000735Y002960D03*
X000675Y002970D03*
X000565Y002990D03*
X000455Y003010D03*
X000815Y002710D03*
X000875Y002700D03*
X000935Y002690D03*
X000995Y002680D03*
X001055Y002670D03*
X001115Y002660D03*
X001175Y002650D03*
X001175Y002480D03*
X001305Y002460D03*
X001415Y002230D03*
X001655Y002260D03*
X001785Y002300D03*
X001865Y002450D03*
X001975Y002620D03*
X002195Y002350D03*
X002285Y002370D03*
X002355Y002180D03*
X002455Y002160D03*
X002225Y002120D03*
X002165Y002130D03*
X001925Y002020D03*
X001985Y001880D03*
X002025Y001890D03*
X002065Y001870D03*
X002125Y001840D03*
X001975Y001720D03*
X001805Y001800D03*
X001805Y001840D03*
X001755Y001770D03*
X001665Y001840D03*
X001685Y001870D03*
X001685Y001970D03*
X001785Y002050D03*
X001785Y002060D03*
X001805Y002130D03*
X001595Y001810D03*
X001505Y001760D03*
X001655Y001700D03*
X001665Y001560D03*
X001465Y001250D03*
X002155Y001390D03*
X002255Y001190D03*
X002375Y000910D03*
X002365Y001550D03*
X002335Y001740D03*
X002395Y001750D03*
X002575Y001670D03*
X002635Y001680D03*
X002695Y001690D03*
X002825Y001560D03*
X002665Y002720D03*
X002785Y002960D03*
X002845Y002970D03*
X002895Y002980D03*
X002955Y002990D03*
X003065Y003010D03*
X003125Y003020D03*
D22*
X001880Y002210D03*
X001850Y002080D03*
X001870Y002040D03*
X001850Y001850D03*
X001460Y001690D03*
X001470Y002140D03*
X001100Y001150D03*
X000850Y001130D03*
X002820Y001180D03*
D23*
X003105Y001160D03*
X002135Y001790D03*
X001745Y002010D03*
X001835Y001130D03*
D24*
X001895Y001620D03*
X002065Y002080D03*
X001855Y002310D03*
X001065Y001330D03*
X000975Y001140D03*
D25*
X001880Y001770D03*
X001900Y002010D03*
X002020Y002040D03*
X001310Y002220D03*
X002960Y001170D03*
D26*
X002785Y001380D03*
X001885Y001890D03*
X001685Y002040D03*
X001405Y001600D03*
D27*
X002220Y001730D03*
X002610Y001390D03*
X000990Y002500D03*
D28*
X001870Y001960D03*
X002510Y001540D03*
D29*
X002375Y001650D03*
X001895Y001870D03*
X001845Y001880D03*
X001855Y002030D03*
X001845Y002630D03*
X001045Y002330D03*
D30*
X001225Y002340D03*
X001685Y001800D03*
X001615Y001750D03*
X001855Y001940D03*
X001855Y002000D03*
D31*
X001905Y001930D03*
X001875Y001900D03*
D32*
X001885Y001920D03*
X001895Y001910D03*
X001885Y001950D03*
D33*
X001855Y001970D03*
X001835Y001990D03*
D34*
X001880Y001980D03*
X001820Y002890D03*
D35*
X002355Y002270D03*
D36*
X002525Y002390D03*
D37*
X000770Y002490D03*
D38*
X002755Y002540D03*
D39*
X003225Y002740D03*
D40*
X002940Y002750D03*
D41*
X001815Y003230D03*
D42*
X001780Y003710D03*
D43*
X000300Y000313D02*
X000300Y000300D01*
X000300Y000310D02*
X000313Y000310D01*
X000313Y000313D02*
X000313Y000300D01*
X000318Y000300D02*
X000318Y000303D01*
X000322Y000303D01*
X000322Y000300D01*
X000318Y000300D01*
X000328Y000300D02*
X000341Y000320D01*
X000346Y000320D02*
X000346Y000300D01*
X000359Y000300D01*
X000364Y000300D02*
X000364Y000313D01*
X000374Y000313D01*
X000378Y000310D01*
X000378Y000300D01*
X000383Y000303D02*
X000386Y000300D01*
X000396Y000300D01*
X000396Y000297D02*
X000396Y000313D01*
X000386Y000313D01*
X000383Y000310D01*
X000383Y000303D01*
X000390Y000293D02*
X000393Y000293D01*
X000396Y000297D01*
X000401Y000300D02*
X000408Y000300D01*
X000405Y000300D02*
X000405Y000313D01*
X000401Y000313D01*
X000405Y000320D02*
X000405Y000323D01*
X000414Y000313D02*
X000414Y000300D01*
X000427Y000300D02*
X000427Y000310D01*
X000424Y000313D01*
X000414Y000313D01*
X000432Y000310D02*
X000435Y000313D01*
X000442Y000313D01*
X000445Y000310D01*
X000445Y000307D01*
X000432Y000307D01*
X000432Y000310D02*
X000432Y000303D01*
X000435Y000300D01*
X000442Y000300D01*
X000450Y000303D02*
X000450Y000310D01*
X000454Y000313D01*
X000460Y000313D01*
X000464Y000310D01*
X000464Y000307D01*
X000450Y000307D01*
X000450Y000303D02*
X000454Y000300D01*
X000460Y000300D01*
X000469Y000300D02*
X000469Y000313D01*
X000469Y000307D02*
X000475Y000313D01*
X000479Y000313D01*
X000484Y000313D02*
X000487Y000313D01*
X000487Y000300D01*
X000484Y000300D02*
X000491Y000300D01*
X000496Y000300D02*
X000496Y000313D01*
X000506Y000313D01*
X000510Y000310D01*
X000510Y000300D01*
X000515Y000303D02*
X000518Y000300D01*
X000528Y000300D01*
X000528Y000297D02*
X000528Y000313D01*
X000518Y000313D01*
X000515Y000310D01*
X000515Y000303D01*
X000522Y000293D02*
X000525Y000293D01*
X000528Y000297D01*
X000533Y000300D02*
X000547Y000320D01*
X000555Y000313D02*
X000552Y000310D01*
X000552Y000303D01*
X000555Y000300D01*
X000562Y000300D01*
X000565Y000307D02*
X000552Y000307D01*
X000555Y000313D02*
X000562Y000313D01*
X000565Y000310D01*
X000565Y000307D01*
X000570Y000303D02*
X000573Y000307D01*
X000583Y000307D01*
X000583Y000310D02*
X000583Y000300D01*
X000573Y000300D01*
X000570Y000303D01*
X000573Y000313D02*
X000580Y000313D01*
X000583Y000310D01*
X000589Y000310D02*
X000589Y000303D01*
X000592Y000300D01*
X000602Y000300D01*
X000602Y000297D02*
X000602Y000313D01*
X000592Y000313D01*
X000589Y000310D01*
X000595Y000293D02*
X000599Y000293D01*
X000602Y000297D01*
X000607Y000300D02*
X000614Y000300D01*
X000610Y000300D02*
X000610Y000320D01*
X000607Y000320D01*
X000619Y000310D02*
X000623Y000313D01*
X000629Y000313D01*
X000633Y000310D01*
X000633Y000307D01*
X000619Y000307D01*
X000619Y000310D02*
X000619Y000303D01*
X000623Y000300D01*
X000629Y000300D01*
X000638Y000300D02*
X000651Y000320D01*
X000659Y000313D02*
X000669Y000313D01*
X000674Y000310D02*
X000678Y000313D01*
X000684Y000313D01*
X000688Y000310D01*
X000688Y000300D01*
X000693Y000303D02*
X000693Y000310D01*
X000696Y000313D01*
X000703Y000313D01*
X000706Y000310D01*
X000706Y000307D01*
X000693Y000307D01*
X000693Y000303D02*
X000696Y000300D01*
X000703Y000300D01*
X000711Y000300D02*
X000718Y000300D01*
X000715Y000300D02*
X000715Y000320D01*
X000711Y000320D01*
X000724Y000320D02*
X000727Y000320D01*
X000727Y000300D01*
X000724Y000300D02*
X000730Y000300D01*
X000736Y000310D02*
X000749Y000310D01*
X000754Y000313D02*
X000754Y000303D01*
X000758Y000300D01*
X000761Y000303D01*
X000764Y000300D01*
X000768Y000303D01*
X000768Y000313D01*
X000773Y000313D02*
X000776Y000313D01*
X000776Y000300D01*
X000773Y000300D02*
X000779Y000300D01*
X000788Y000303D02*
X000792Y000300D01*
X000788Y000303D02*
X000788Y000317D01*
X000785Y000313D02*
X000792Y000313D01*
X000797Y000310D02*
X000801Y000313D01*
X000807Y000313D01*
X000811Y000310D01*
X000811Y000300D01*
X000816Y000310D02*
X000829Y000310D01*
X000834Y000313D02*
X000841Y000313D01*
X000837Y000317D02*
X000837Y000303D01*
X000841Y000300D01*
X000846Y000300D02*
X000846Y000313D01*
X000846Y000307D02*
X000853Y000313D01*
X000856Y000313D01*
X000862Y000313D02*
X000865Y000313D01*
X000865Y000300D01*
X000862Y000300D02*
X000868Y000300D01*
X000874Y000303D02*
X000877Y000307D01*
X000887Y000307D01*
X000887Y000310D02*
X000887Y000300D01*
X000877Y000300D01*
X000874Y000303D01*
X000877Y000313D02*
X000884Y000313D01*
X000887Y000310D01*
X000892Y000313D02*
X000892Y000300D01*
X000892Y000313D02*
X000902Y000313D01*
X000906Y000310D01*
X000906Y000300D01*
X000911Y000303D02*
X000914Y000300D01*
X000924Y000300D01*
X000924Y000297D02*
X000924Y000313D01*
X000914Y000313D01*
X000911Y000310D01*
X000911Y000303D01*
X000917Y000293D02*
X000921Y000293D01*
X000924Y000297D01*
X000929Y000300D02*
X000936Y000300D01*
X000933Y000300D02*
X000933Y000320D01*
X000929Y000320D01*
X000941Y000310D02*
X000945Y000313D01*
X000951Y000313D01*
X000955Y000310D01*
X000955Y000307D01*
X000941Y000307D01*
X000941Y000310D02*
X000941Y000303D01*
X000945Y000300D01*
X000951Y000300D01*
X000960Y000300D02*
X000970Y000300D01*
X000973Y000303D01*
X000970Y000307D01*
X000963Y000307D01*
X000960Y000310D01*
X000963Y000313D01*
X000973Y000313D01*
X000978Y000303D02*
X000982Y000303D01*
X000982Y000300D01*
X000978Y000300D01*
X000978Y000303D01*
X000987Y000300D02*
X000998Y000300D01*
X001001Y000303D01*
X001001Y000310D01*
X000998Y000313D01*
X000987Y000313D01*
X000987Y000320D02*
X000987Y000300D01*
X001006Y000300D02*
X001006Y000313D01*
X001009Y000313D01*
X001013Y000310D01*
X001016Y000313D01*
X001019Y000310D01*
X001019Y000300D01*
X001024Y000300D02*
X001034Y000300D01*
X001038Y000303D01*
X001038Y000310D01*
X001034Y000313D01*
X001024Y000313D01*
X001024Y000293D01*
X001013Y000300D02*
X001013Y000310D01*
X000865Y000323D02*
X000865Y000320D01*
X000797Y000320D02*
X000797Y000300D01*
X000776Y000320D02*
X000776Y000323D01*
X000674Y000320D02*
X000674Y000300D01*
X000669Y000303D02*
X000666Y000307D01*
X000659Y000307D01*
X000656Y000310D01*
X000659Y000313D01*
X000656Y000300D02*
X000666Y000300D01*
X000669Y000303D01*
X000487Y000320D02*
X000487Y000323D01*
X000359Y000320D02*
X000346Y000320D01*
X000346Y000310D02*
X000353Y000310D01*
X000322Y000313D02*
X000322Y000310D01*
X000318Y000310D01*
X000318Y000313D01*
X000322Y000313D01*
X000313Y000313D02*
X000307Y000320D01*
X000300Y000313D01*
M02*
