G75*
%MOIN*%
%OFA0B0*%
%FSLAX24Y24*%
%IPPOS*%
%LPD*%
%AMOC8*
5,1,8,0,0,1.08239X$1,22.5*
%
%ADD10R,0.0515X0.0515*%
%ADD11OC8,0.0520*%
%ADD12C,0.0520*%
%ADD13C,0.0515*%
%ADD14OC8,0.0600*%
%ADD15OC8,0.0630*%
%ADD16C,0.0630*%
%ADD17C,0.0160*%
%ADD18R,0.0396X0.0396*%
%ADD19C,0.0400*%
%ADD20C,0.0240*%
D10*
X008004Y010263D03*
X009004Y010263D03*
X010004Y010263D03*
X009578Y020106D03*
X010578Y020106D03*
X011578Y020106D03*
X010015Y022157D03*
X009015Y022157D03*
X008015Y022157D03*
D11*
X013049Y022425D03*
X013799Y022925D03*
X013799Y021925D03*
X015181Y021925D03*
X015931Y022425D03*
X015181Y022925D03*
X019004Y013533D03*
X019504Y012783D03*
X018504Y012783D03*
X014464Y010421D03*
X013464Y010421D03*
X010842Y011917D03*
X009842Y011917D03*
D12*
X009878Y015626D02*
X009358Y015626D01*
X009358Y016626D02*
X009878Y016626D01*
X009878Y017626D02*
X009358Y017626D01*
D13*
X023228Y018004D03*
X023228Y019004D03*
X023228Y020004D03*
X023228Y021004D03*
X024228Y021004D03*
X024228Y020004D03*
X024228Y019004D03*
X024228Y018004D03*
X024228Y017004D03*
X023228Y017004D03*
D14*
X024015Y014311D03*
X025015Y014311D03*
X025015Y013311D03*
X024015Y013311D03*
X024015Y012311D03*
X025015Y012311D03*
X025015Y011311D03*
X024015Y011311D03*
X024015Y010311D03*
X025015Y010311D03*
D15*
X021366Y024015D03*
X024200Y025015D03*
D16*
X024200Y024015D03*
X021366Y025015D03*
D17*
X020578Y019004D02*
X018689Y019004D01*
X020578Y019004D02*
X021287Y018295D01*
X021287Y018000D01*
X021504Y017783D01*
X022468Y017783D01*
X022468Y017901D01*
X022547Y017980D01*
X023204Y017980D01*
X023228Y018004D01*
X019004Y015460D02*
X019004Y015067D01*
X020759Y013311D01*
X024015Y013311D01*
X016641Y015618D02*
X016641Y016720D01*
X015696Y015696D02*
X014909Y016484D01*
X012783Y016484D01*
X011917Y017350D01*
X011917Y018295D01*
X011366Y019240D02*
X011366Y015539D01*
X011444Y015460D01*
X010815Y014988D02*
X010815Y014515D01*
X010815Y014988D02*
X012507Y014988D01*
X012547Y014948D01*
X012468Y014673D01*
X013019Y014988D02*
X013019Y014043D01*
X013413Y013256D02*
X014122Y013256D01*
X014515Y013649D01*
X014515Y014830D01*
X015067Y014830D02*
X015067Y012547D01*
X014043Y011523D01*
X011759Y011523D01*
X014464Y010421D02*
X015696Y011653D01*
X015696Y015696D01*
X013964Y018531D02*
X013964Y018767D01*
X014122Y018925D01*
X016248Y018925D01*
X014968Y020126D02*
X013807Y021287D01*
X013807Y021917D01*
X013799Y021925D02*
X014011Y021925D01*
X014948Y022862D01*
X015118Y022862D01*
X015181Y022925D01*
X014476Y023492D02*
X014476Y023925D01*
X014594Y024043D01*
X014740Y024043D01*
X014799Y024102D01*
X014799Y024429D01*
X014791Y024437D01*
X014476Y023492D02*
X013909Y022925D01*
X013799Y022925D01*
X013626Y022925D01*
X013413Y023137D01*
X011484Y023137D01*
X010815Y022468D01*
X010815Y021523D01*
X010421Y021130D01*
X009948Y021130D01*
X009555Y020736D01*
X009555Y020130D01*
X009578Y020106D01*
X009633Y020051D01*
X009633Y019397D01*
X010736Y018295D01*
X010736Y015067D01*
X010815Y014988D01*
X011366Y019240D02*
X010578Y020027D01*
X010578Y020106D01*
X011720Y021366D02*
X012744Y021366D01*
X013019Y021090D01*
D18*
X013019Y021090D03*
X013807Y021917D03*
X014968Y020126D03*
X016248Y018925D03*
X013964Y018531D03*
X011917Y018295D03*
X011444Y015460D03*
X010815Y014515D03*
X012468Y014673D03*
X013019Y014988D03*
X013019Y014043D03*
X013413Y013256D03*
X014515Y014830D03*
X015067Y014830D03*
X016641Y015618D03*
X016641Y016720D03*
X019004Y015460D03*
X019791Y015460D03*
X019791Y016956D03*
X018689Y019004D03*
X021366Y019397D03*
X021366Y023334D03*
X015381Y025618D03*
X014791Y024437D03*
X012311Y025618D03*
X011720Y021366D03*
X011759Y011523D03*
D19*
X023228Y018004D02*
X024200Y018004D01*
X024200Y017980D01*
X023256Y017980D01*
X023228Y018004D02*
X023228Y019004D01*
X024228Y019004D01*
X024228Y018004D01*
X024122Y017035D02*
X023256Y017035D01*
X023228Y019004D02*
X023228Y020004D01*
X024228Y020004D01*
X024228Y019004D01*
X024240Y019004D01*
X024228Y021004D02*
X023228Y021004D01*
D20*
X024228Y020004D02*
X024252Y020027D01*
X024830Y020027D01*
X025224Y020421D01*
X025224Y024594D01*
X024803Y025015D01*
X021366Y025015D01*
X020763Y025618D01*
X015381Y025618D01*
X012311Y025618D01*
X008374Y025618D01*
X008015Y025259D01*
X008015Y022157D01*
X019791Y016956D02*
X019791Y015460D01*
X020941Y014311D01*
X024015Y014311D01*
X021366Y019397D02*
X021366Y023334D01*
X021366Y025015D02*
X024200Y025015D01*
M02*
