%
M48
M72
T01C0.0236
T02C0.0315
T03C0.0320
T04C0.0400
%
T01
X12126Y11523
X13779Y13256
X13385Y14043
X12834Y14673
X13385Y14988
X14882Y14830
X15433Y14830
X17008Y15618
X17008Y16720
X16614Y18925
X15334Y20126
X14330Y18531
X13385Y21090
X14173Y21917
X12086Y21366
X15157Y24437
X15748Y25618
X12677Y25618
X19055Y19004
X20157Y16956
X20157Y15460
X21732Y19397
X21732Y23334
X11811Y15460
X11181Y14515
T02
X8370Y10263
X9370Y10263
X10370Y10263
X9945Y20106
X10945Y20106
X11945Y20106
X10382Y22157
X9382Y22157
X8382Y22157
X23594Y21004
X24594Y21004
X24594Y20004
X24594Y19004
X23594Y19004
X23594Y20004
X23594Y18004
X24594Y18004
X24594Y17004
X23594Y17004
T03
X24567Y24015
X24567Y25015
X21732Y25015
X21732Y24015
X16297Y22425
X15547Y22925
X15547Y21925
X14165Y21925
X13415Y22425
X14165Y22925
X9984Y17626
X9984Y16626
X9984Y15626
X10208Y11917
X11208Y11917
T04
X24382Y12311
X24382Y13311
X25382Y13311
X25382Y12311
X25382Y11311
X25382Y10311
X24382Y10311
X24382Y11311
X24382Y14311
X25382Y14311
M30
