G75*
%MOIN*%
%OFA0B0*%
%FSLAX24Y24*%
%IPPOS*%
%LPD*%
%AMOC8*
5,1,8,0,0,1.08239X$1,22.5*
%
%ADD10R,0.0515X0.0515*%
%ADD11OC8,0.0520*%
%ADD12C,0.0520*%
%ADD13C,0.0515*%
%ADD14OC8,0.0600*%
%ADD15OC8,0.0630*%
%ADD16C,0.0630*%
%ADD17C,0.0160*%
%ADD18R,0.0396X0.0396*%
%ADD19C,0.0400*%
%ADD20C,0.0240*%
%ADD21C,0.0100*%
%ADD22R,0.0436X0.0436*%
D10*
X002523Y004110D03*
X003523Y004110D03*
X004523Y004110D03*
X004098Y013952D03*
X005098Y013952D03*
X006098Y013952D03*
X004535Y016003D03*
X003535Y016003D03*
X002535Y016003D03*
D11*
X007569Y016271D03*
X008319Y016771D03*
X008319Y015771D03*
X009700Y015771D03*
X010450Y016271D03*
X009700Y016771D03*
X013130Y007379D03*
X013630Y006629D03*
X012630Y006629D03*
X009378Y004661D03*
X008378Y004661D03*
X005362Y005763D03*
X004362Y005763D03*
D12*
X004397Y009472D02*
X003877Y009472D01*
X003877Y010472D02*
X004397Y010472D01*
X004397Y011472D02*
X003877Y011472D01*
D13*
X017748Y011850D03*
X017748Y010850D03*
X018748Y010850D03*
X018748Y011850D03*
X018748Y012850D03*
X018748Y013850D03*
X018748Y014850D03*
X017748Y014850D03*
X017748Y013850D03*
X017748Y012850D03*
D14*
X018535Y008157D03*
X019535Y008157D03*
X019535Y007157D03*
X018535Y007157D03*
X018535Y006157D03*
X019535Y006157D03*
X019535Y005157D03*
X018535Y005157D03*
X018535Y004157D03*
X019535Y004157D03*
D15*
X015886Y017862D03*
X018720Y018862D03*
D16*
X018720Y017862D03*
X015886Y018862D03*
D17*
X011319Y013480D02*
X012421Y012377D01*
X012421Y009306D01*
X017618Y004110D01*
X018488Y004110D01*
X018535Y004157D01*
X018535Y007157D02*
X015279Y007157D01*
X013523Y008913D01*
X013523Y009306D01*
X011161Y009464D02*
X011161Y010566D01*
X010216Y009543D02*
X009429Y010330D01*
X007303Y010330D01*
X006437Y011196D01*
X006437Y012141D01*
X005886Y013086D02*
X005886Y009385D01*
X005964Y009306D01*
X005334Y008834D02*
X005334Y008362D01*
X005334Y008834D02*
X007027Y008834D01*
X007067Y008795D01*
X006988Y008519D01*
X007539Y008834D02*
X007539Y007889D01*
X007933Y007102D02*
X008641Y007102D01*
X009035Y007495D01*
X009035Y008676D01*
X009586Y008676D02*
X009586Y006393D01*
X008563Y005369D01*
X006279Y005369D01*
X004789Y004051D02*
X004731Y004110D01*
X004789Y004051D02*
X010131Y004051D01*
X011231Y005151D01*
X012931Y005151D01*
X010216Y005499D02*
X010216Y009543D01*
X008484Y012377D02*
X008484Y012613D01*
X008641Y012771D01*
X010767Y012771D01*
X011319Y013480D02*
X009429Y013480D01*
X006515Y016393D01*
X006200Y016393D01*
X006004Y016984D02*
X005334Y016314D01*
X005334Y015369D01*
X004941Y014976D01*
X004468Y014976D01*
X004074Y014582D01*
X004074Y013976D01*
X004098Y013952D01*
X004153Y013897D01*
X004153Y013243D01*
X005256Y012141D01*
X005256Y008913D01*
X005334Y008834D01*
X009378Y004661D02*
X010216Y005499D01*
X016023Y011629D02*
X016988Y011629D01*
X016988Y011747D01*
X017067Y011826D01*
X017724Y011826D01*
X017748Y011850D01*
X016023Y011629D02*
X015807Y011846D01*
X015807Y012141D01*
X015098Y012850D01*
X013208Y012850D01*
X009586Y014582D02*
X009114Y014582D01*
X008326Y015369D01*
X008326Y015763D01*
X008319Y015771D01*
X008531Y015771D01*
X009468Y016708D01*
X009637Y016708D01*
X009700Y016771D01*
X008996Y017338D02*
X008996Y017771D01*
X009114Y017889D01*
X009260Y017889D01*
X009319Y017948D01*
X009319Y018275D01*
X009311Y018283D01*
X008996Y017338D02*
X008429Y016771D01*
X008319Y016771D01*
X008145Y016771D01*
X007933Y016984D01*
X006004Y016984D01*
X006240Y015212D02*
X006712Y015212D01*
X007539Y014385D01*
X005886Y013086D02*
X005098Y013873D01*
X005098Y013952D01*
D18*
X006240Y015212D03*
X006200Y016393D03*
X007539Y014385D03*
X009586Y014582D03*
X010767Y012771D03*
X011161Y010566D03*
X011161Y009464D03*
X009586Y008676D03*
X009035Y008676D03*
X007539Y008834D03*
X006988Y008519D03*
X007539Y007889D03*
X007933Y007102D03*
X006279Y005369D03*
X005334Y008362D03*
X005964Y009306D03*
X006437Y012141D03*
X008484Y012377D03*
X013208Y012850D03*
X014311Y010802D03*
X014311Y009306D03*
X013523Y009306D03*
X015886Y013243D03*
X015886Y017180D03*
X009901Y019385D03*
X009311Y018283D03*
X006830Y019385D03*
D19*
X017748Y014850D02*
X018748Y014850D01*
X018748Y013850D02*
X017748Y013850D01*
X017748Y012850D01*
X017748Y011850D01*
X018720Y011850D01*
X018720Y011826D01*
X017775Y011826D01*
X017775Y010881D02*
X018641Y010881D01*
X018748Y011850D02*
X018748Y012850D01*
X018760Y012850D01*
X018748Y012850D02*
X017748Y012850D01*
X018748Y012850D02*
X018748Y013850D01*
D20*
X018771Y013873D01*
X019350Y013873D01*
X019665Y014188D01*
X019665Y018519D01*
X019323Y018862D01*
X015886Y018862D01*
X015362Y019385D01*
X009901Y019385D01*
X006830Y019385D01*
X002815Y019385D01*
X002535Y019106D01*
X002535Y016003D01*
X014311Y010802D02*
X014311Y009306D01*
X015460Y008157D01*
X018535Y008157D01*
X018563Y008125D02*
X019508Y008125D01*
X019508Y007180D02*
X018563Y007180D01*
X018563Y006157D02*
X019508Y006157D01*
X019508Y005133D02*
X018563Y005133D01*
X018641Y004188D02*
X019429Y004188D01*
X015886Y013243D02*
X015886Y017180D01*
X015886Y018862D02*
X018720Y018862D01*
D21*
X000981Y019486D02*
X000981Y000701D01*
X019766Y000701D01*
X019766Y003567D01*
X019291Y003567D01*
X019079Y003778D01*
X018991Y003778D01*
X018780Y003567D01*
X018291Y003567D01*
X018118Y003740D01*
X017544Y003740D01*
X017408Y003796D01*
X017304Y003900D01*
X013680Y007524D01*
X013680Y007179D01*
X013857Y007179D01*
X014180Y006857D01*
X014180Y006401D01*
X013857Y006079D01*
X013402Y006079D01*
X013130Y006351D01*
X012857Y006079D01*
X012402Y006079D01*
X012080Y006401D01*
X012080Y006857D01*
X012402Y007179D01*
X012580Y007179D01*
X012580Y007607D01*
X012902Y007929D01*
X013275Y007929D01*
X012107Y009097D01*
X012051Y009233D01*
X012051Y012224D01*
X011256Y013019D01*
X011256Y012515D01*
X011211Y012409D01*
X011130Y012327D01*
X011023Y012283D01*
X010512Y012283D01*
X010405Y012327D01*
X010331Y012401D01*
X008972Y012401D01*
X008972Y012121D01*
X008928Y012015D01*
X008846Y011933D01*
X008740Y011889D01*
X008228Y011889D01*
X008122Y011933D01*
X008040Y012015D01*
X007996Y012121D01*
X007996Y012633D01*
X008040Y012740D01*
X008122Y012821D01*
X008202Y012854D01*
X008328Y012981D01*
X008432Y013085D01*
X008568Y013141D01*
X009280Y013141D01*
X009219Y013166D01*
X009115Y013270D01*
X009115Y013270D01*
X008027Y014358D01*
X008027Y014129D01*
X007983Y014023D01*
X007901Y013941D01*
X007795Y013897D01*
X007283Y013897D01*
X007177Y013941D01*
X007095Y014023D01*
X007051Y014129D01*
X007051Y014350D01*
X006618Y014783D01*
X006602Y014768D01*
X006496Y014724D01*
X005984Y014724D01*
X005877Y014768D01*
X005796Y014850D01*
X005752Y014956D01*
X005752Y015468D01*
X005796Y015574D01*
X005877Y015656D01*
X005984Y015700D01*
X006496Y015700D01*
X006602Y015656D01*
X006676Y015582D01*
X006786Y015582D01*
X006816Y015570D01*
X006473Y015912D01*
X006456Y015905D01*
X005945Y015905D01*
X005838Y015949D01*
X005757Y016031D01*
X005712Y016137D01*
X005712Y016169D01*
X005704Y016161D01*
X005704Y015296D01*
X005648Y015160D01*
X005254Y014766D01*
X005150Y014662D01*
X005014Y014606D01*
X004621Y014606D01*
X004485Y014470D01*
X004520Y014455D01*
X004598Y014377D01*
X004676Y014455D01*
X004783Y014500D01*
X005413Y014500D01*
X005520Y014455D01*
X005598Y014377D01*
X005676Y014455D01*
X005783Y014500D01*
X006413Y014500D01*
X006520Y014455D01*
X006601Y014374D01*
X006646Y014267D01*
X006646Y013637D01*
X006601Y013530D01*
X006520Y013449D01*
X006413Y013405D01*
X006090Y013405D01*
X006095Y013400D01*
X006199Y013296D01*
X006256Y013160D01*
X006256Y012629D01*
X006692Y012629D01*
X006799Y012585D01*
X006881Y012503D01*
X006925Y012397D01*
X006925Y011885D01*
X006881Y011779D01*
X006807Y011705D01*
X006807Y011349D01*
X007456Y010700D01*
X009502Y010700D01*
X009638Y010644D01*
X009742Y010540D01*
X010530Y009752D01*
X010586Y009616D01*
X010586Y005426D01*
X010530Y005290D01*
X010426Y005186D01*
X009928Y004687D01*
X009928Y004433D01*
X009916Y004421D01*
X009978Y004421D01*
X011022Y005465D01*
X011158Y005521D01*
X012463Y005521D01*
X012468Y005533D01*
X012549Y005615D01*
X012656Y005659D01*
X013207Y005659D01*
X013313Y005615D01*
X013395Y005533D01*
X013439Y005427D01*
X013439Y004876D01*
X013395Y004769D01*
X013313Y004688D01*
X013207Y004643D01*
X012656Y004643D01*
X012549Y004688D01*
X012468Y004769D01*
X012463Y004781D01*
X011384Y004781D01*
X010445Y003842D01*
X010341Y003738D01*
X010205Y003681D01*
X005020Y003681D01*
X004945Y003606D01*
X004838Y003562D01*
X004208Y003562D01*
X004102Y003606D01*
X004023Y003684D01*
X003945Y003606D01*
X003838Y003562D01*
X003208Y003562D01*
X003102Y003606D01*
X003020Y003688D01*
X002976Y003794D01*
X002976Y004425D01*
X003020Y004531D01*
X003102Y004613D01*
X003208Y004657D01*
X003838Y004657D01*
X003945Y004613D01*
X004023Y004535D01*
X004102Y004613D01*
X004208Y004657D01*
X004838Y004657D01*
X004945Y004613D01*
X005027Y004531D01*
X005071Y004425D01*
X005071Y004421D01*
X007839Y004421D01*
X007828Y004433D01*
X007828Y004889D01*
X007938Y004999D01*
X006716Y004999D01*
X006642Y004925D01*
X006535Y004881D01*
X006023Y004881D01*
X005917Y004925D01*
X005835Y005007D01*
X005791Y005114D01*
X005791Y005414D01*
X005590Y005213D01*
X005134Y005213D01*
X004862Y005485D01*
X004590Y005213D01*
X004134Y005213D01*
X003812Y005535D01*
X003812Y005991D01*
X004134Y006313D01*
X004590Y006313D01*
X004862Y006041D01*
X005134Y006313D01*
X005590Y006313D01*
X005912Y005991D01*
X005912Y005808D01*
X005917Y005813D01*
X006023Y005857D01*
X006535Y005857D01*
X006642Y005813D01*
X006716Y005739D01*
X008409Y005739D01*
X009216Y006546D01*
X009216Y007153D01*
X008955Y006892D01*
X008851Y006788D01*
X008715Y006732D01*
X008369Y006732D01*
X008295Y006658D01*
X008189Y006614D01*
X007677Y006614D01*
X007570Y006658D01*
X007489Y006739D01*
X007445Y006846D01*
X007445Y007357D01*
X007463Y007401D01*
X007283Y007401D01*
X007177Y007445D01*
X007095Y007527D01*
X007051Y007633D01*
X007051Y008031D01*
X006732Y008031D01*
X006625Y008075D01*
X006544Y008157D01*
X006500Y008263D01*
X006500Y008464D01*
X005822Y008464D01*
X005822Y008106D01*
X005778Y007999D01*
X005697Y007918D01*
X005590Y007873D01*
X005079Y007873D01*
X004972Y007918D01*
X004890Y007999D01*
X004846Y008106D01*
X004846Y008617D01*
X004890Y008724D01*
X004921Y008754D01*
X004886Y008839D01*
X004886Y009213D01*
X004864Y009160D01*
X004709Y009005D01*
X004507Y008922D01*
X003768Y008922D01*
X003566Y009005D01*
X003411Y009160D01*
X003327Y009362D01*
X003327Y009581D01*
X003411Y009783D01*
X003566Y009938D01*
X003647Y009972D01*
X003566Y010005D01*
X003411Y010160D01*
X003327Y010362D01*
X003327Y010581D01*
X003411Y010783D01*
X003566Y010938D01*
X003647Y010972D01*
X003566Y011005D01*
X003411Y011160D01*
X003327Y011362D01*
X003327Y011581D01*
X003411Y011783D01*
X003566Y011938D01*
X003768Y012022D01*
X004507Y012022D01*
X004709Y011938D01*
X004864Y011783D01*
X004886Y011731D01*
X004886Y011988D01*
X003944Y012930D01*
X003840Y013034D01*
X003783Y013170D01*
X003783Y013405D01*
X003783Y013405D01*
X003676Y013449D01*
X003595Y013530D01*
X003551Y013637D01*
X003551Y014267D01*
X003595Y014374D01*
X003676Y014455D01*
X003704Y014467D01*
X003704Y014656D01*
X003761Y014792D01*
X003865Y014896D01*
X004259Y015289D01*
X004395Y015346D01*
X004787Y015346D01*
X004931Y015489D01*
X004850Y015456D01*
X004220Y015456D01*
X004113Y015500D01*
X004035Y015578D01*
X003957Y015500D01*
X003850Y015456D01*
X003220Y015456D01*
X003113Y015500D01*
X003032Y015581D01*
X002988Y015688D01*
X002988Y016318D01*
X003032Y016425D01*
X003113Y016507D01*
X003220Y016551D01*
X003850Y016551D01*
X003957Y016507D01*
X004035Y016428D01*
X004113Y016507D01*
X004220Y016551D01*
X004850Y016551D01*
X004957Y016507D01*
X004997Y016467D01*
X005021Y016524D01*
X005125Y016628D01*
X005125Y016628D01*
X005794Y017297D01*
X005930Y017354D01*
X008006Y017354D01*
X008089Y017319D01*
X008091Y017321D01*
X008456Y017321D01*
X008626Y017491D01*
X008626Y017845D01*
X008682Y017981D01*
X008823Y018121D01*
X008823Y018539D01*
X008867Y018645D01*
X008948Y018727D01*
X009055Y018771D01*
X009567Y018771D01*
X009673Y018727D01*
X009755Y018645D01*
X009799Y018539D01*
X009799Y018027D01*
X009755Y017920D01*
X009674Y017840D01*
X009632Y017739D01*
X009528Y017634D01*
X009528Y017634D01*
X009469Y017575D01*
X009366Y017533D01*
X009366Y017264D01*
X009330Y017179D01*
X009473Y017321D01*
X009928Y017321D01*
X010250Y016999D01*
X010250Y016651D01*
X010281Y016681D01*
X010420Y016681D01*
X010420Y016301D01*
X010480Y016301D01*
X010480Y016681D01*
X010620Y016681D01*
X010860Y016441D01*
X010860Y016301D01*
X010480Y016301D01*
X010480Y016241D01*
X010480Y015861D01*
X010620Y015861D01*
X010860Y016101D01*
X010860Y016241D01*
X010480Y016241D01*
X010420Y016241D01*
X010420Y015861D01*
X010281Y015861D01*
X010250Y015891D01*
X010250Y015543D01*
X009928Y015221D01*
X009473Y015221D01*
X009150Y015543D01*
X009150Y015867D01*
X008869Y015585D01*
X008869Y015543D01*
X008772Y015447D01*
X009209Y015011D01*
X009224Y015026D01*
X009331Y015070D01*
X009842Y015070D01*
X009949Y015026D01*
X010030Y014944D01*
X010074Y014838D01*
X010074Y014326D01*
X010030Y014220D01*
X009949Y014138D01*
X009842Y014094D01*
X009338Y014094D01*
X009582Y013850D01*
X011392Y013850D01*
X011528Y013793D01*
X012631Y012691D01*
X012735Y012587D01*
X012791Y012451D01*
X012791Y009460D01*
X017771Y004480D01*
X018023Y004480D01*
X018201Y004657D01*
X017945Y004912D01*
X017945Y005401D01*
X018201Y005657D01*
X017945Y005912D01*
X017945Y006401D01*
X018291Y006747D01*
X018309Y006747D01*
X018085Y006970D01*
X018085Y007107D01*
X018153Y007107D01*
X018153Y007207D01*
X018085Y007207D01*
X018085Y007343D01*
X018309Y007567D01*
X018291Y007567D01*
X018111Y007747D01*
X015379Y007747D01*
X015228Y007809D01*
X014219Y008818D01*
X014055Y008818D01*
X013948Y008862D01*
X013867Y008944D01*
X013823Y009051D01*
X013823Y009562D01*
X013867Y009669D01*
X013901Y009703D01*
X013901Y010406D01*
X013867Y010440D01*
X013823Y010547D01*
X013823Y011058D01*
X013867Y011165D01*
X013948Y011246D01*
X014055Y011291D01*
X014567Y011291D01*
X014673Y011246D01*
X014755Y011165D01*
X014799Y011058D01*
X014799Y010547D01*
X014755Y010440D01*
X014721Y010406D01*
X014721Y009703D01*
X014755Y009669D01*
X014799Y009562D01*
X014799Y009398D01*
X015630Y008567D01*
X018111Y008567D01*
X018291Y008747D01*
X018780Y008747D01*
X018991Y008535D01*
X019079Y008535D01*
X019291Y008747D01*
X019766Y008747D01*
X019766Y019486D01*
X000981Y019486D01*
X000981Y019459D02*
X019766Y019459D01*
X019766Y019360D02*
X000981Y019360D01*
X000981Y019262D02*
X015647Y019262D01*
X015642Y019259D02*
X015583Y019216D01*
X015531Y019164D01*
X015488Y019105D01*
X015455Y019040D01*
X015432Y018970D01*
X015421Y018898D01*
X015421Y018892D01*
X015856Y018892D01*
X015856Y019327D01*
X015849Y019327D01*
X015777Y019315D01*
X015707Y019292D01*
X015642Y019259D01*
X015530Y019163D02*
X000981Y019163D01*
X000981Y019065D02*
X015467Y019065D01*
X015431Y018966D02*
X000981Y018966D01*
X000981Y018868D02*
X015856Y018868D01*
X015856Y018892D02*
X015856Y018832D01*
X015421Y018832D01*
X015421Y018825D01*
X015432Y018753D01*
X015455Y018683D01*
X015488Y018618D01*
X015531Y018559D01*
X015583Y018507D01*
X015638Y018467D01*
X015635Y018467D01*
X015281Y018112D01*
X015281Y017611D01*
X015414Y017477D01*
X015397Y017436D01*
X015397Y016925D01*
X015442Y016818D01*
X015476Y016784D01*
X015476Y013640D01*
X015442Y013606D01*
X015397Y013499D01*
X015397Y012988D01*
X015442Y012881D01*
X015523Y012799D01*
X015630Y012755D01*
X016141Y012755D01*
X016248Y012799D01*
X016329Y012881D01*
X016374Y012988D01*
X016374Y013499D01*
X016329Y013606D01*
X016296Y013640D01*
X016296Y016784D01*
X016329Y016818D01*
X016374Y016925D01*
X016374Y017436D01*
X016357Y017477D01*
X016491Y017611D01*
X016491Y018112D01*
X016136Y018467D01*
X016133Y018467D01*
X016188Y018507D01*
X016240Y018559D01*
X016283Y018618D01*
X016316Y018683D01*
X016339Y018753D01*
X016351Y018825D01*
X016351Y018832D01*
X015916Y018832D01*
X015916Y018892D01*
X016351Y018892D01*
X016351Y018898D01*
X016339Y018970D01*
X016316Y019040D01*
X016283Y019105D01*
X016240Y019164D01*
X016188Y019216D01*
X016129Y019259D01*
X016064Y019292D01*
X015994Y019315D01*
X015922Y019327D01*
X015916Y019327D01*
X015916Y018892D01*
X015856Y018892D01*
X015916Y018868D02*
X018690Y018868D01*
X018690Y018892D02*
X018690Y018832D01*
X018255Y018832D01*
X018255Y018669D01*
X018499Y018425D01*
X018377Y018374D01*
X018207Y018204D01*
X018115Y017982D01*
X018115Y017741D01*
X018207Y017519D01*
X018377Y017349D01*
X018600Y017257D01*
X018840Y017257D01*
X019063Y017349D01*
X019233Y017519D01*
X019325Y017741D01*
X019325Y017982D01*
X019233Y018204D01*
X019063Y018374D01*
X018941Y018425D01*
X019185Y018669D01*
X019185Y018832D01*
X018750Y018832D01*
X018750Y018892D01*
X018690Y018892D01*
X018690Y019327D01*
X018528Y019327D01*
X018255Y019054D01*
X018255Y018892D01*
X018690Y018892D01*
X018750Y018892D02*
X018750Y019327D01*
X018913Y019327D01*
X019185Y019054D01*
X019185Y018892D01*
X018750Y018892D01*
X018750Y018868D02*
X019766Y018868D01*
X019766Y018966D02*
X019185Y018966D01*
X019174Y019065D02*
X019766Y019065D01*
X019766Y019163D02*
X019076Y019163D01*
X018977Y019262D02*
X019766Y019262D01*
X019766Y018769D02*
X019185Y018769D01*
X019185Y018671D02*
X019766Y018671D01*
X019766Y018572D02*
X019089Y018572D01*
X018990Y018474D02*
X019766Y018474D01*
X019766Y018375D02*
X019061Y018375D01*
X019160Y018277D02*
X019766Y018277D01*
X019766Y018178D02*
X019244Y018178D01*
X019285Y018080D02*
X019766Y018080D01*
X019766Y017981D02*
X019325Y017981D01*
X019325Y017883D02*
X019766Y017883D01*
X019766Y017784D02*
X019325Y017784D01*
X019302Y017686D02*
X019766Y017686D01*
X019766Y017587D02*
X019261Y017587D01*
X019203Y017489D02*
X019766Y017489D01*
X019766Y017390D02*
X019105Y017390D01*
X018926Y017292D02*
X019766Y017292D01*
X019766Y017193D02*
X016374Y017193D01*
X016374Y017095D02*
X019766Y017095D01*
X019766Y016996D02*
X016374Y016996D01*
X016363Y016898D02*
X019766Y016898D01*
X019766Y016799D02*
X016311Y016799D01*
X016296Y016701D02*
X019766Y016701D01*
X019766Y016602D02*
X016296Y016602D01*
X016296Y016504D02*
X019766Y016504D01*
X019766Y016405D02*
X016296Y016405D01*
X016296Y016307D02*
X019766Y016307D01*
X019766Y016208D02*
X016296Y016208D01*
X016296Y016110D02*
X019766Y016110D01*
X019766Y016011D02*
X016296Y016011D01*
X016296Y015913D02*
X019766Y015913D01*
X019766Y015814D02*
X016296Y015814D01*
X016296Y015716D02*
X019766Y015716D01*
X019766Y015617D02*
X016296Y015617D01*
X016296Y015519D02*
X019766Y015519D01*
X019766Y015420D02*
X016296Y015420D01*
X016296Y015322D02*
X017457Y015322D01*
X017438Y015314D02*
X017284Y015160D01*
X017200Y014959D01*
X017200Y014741D01*
X017284Y014540D01*
X017438Y014386D01*
X017639Y014302D01*
X017857Y014302D01*
X017995Y014360D01*
X018500Y014360D01*
X018639Y014302D01*
X018857Y014302D01*
X019058Y014386D01*
X019212Y014540D01*
X019295Y014741D01*
X019295Y014959D01*
X019212Y015160D01*
X019058Y015314D01*
X018857Y015397D01*
X018639Y015397D01*
X018500Y015340D01*
X017995Y015340D01*
X017857Y015397D01*
X017639Y015397D01*
X017438Y015314D01*
X017347Y015223D02*
X016296Y015223D01*
X016296Y015125D02*
X017269Y015125D01*
X017228Y015026D02*
X016296Y015026D01*
X016296Y014928D02*
X017200Y014928D01*
X017200Y014829D02*
X016296Y014829D01*
X016296Y014731D02*
X017204Y014731D01*
X017245Y014632D02*
X016296Y014632D01*
X016296Y014534D02*
X017289Y014534D01*
X017388Y014435D02*
X016296Y014435D01*
X016296Y014337D02*
X017555Y014337D01*
X017591Y014227D02*
X017534Y014198D01*
X017482Y014161D01*
X017437Y014115D01*
X017399Y014063D01*
X017370Y014006D01*
X017350Y013945D01*
X017340Y013882D01*
X017340Y013878D01*
X017719Y013878D01*
X017719Y013821D01*
X017340Y013821D01*
X017340Y013818D01*
X017350Y013754D01*
X017370Y013693D01*
X017399Y013636D01*
X017437Y013584D01*
X017482Y013539D01*
X017534Y013501D01*
X017591Y013472D01*
X017652Y013452D01*
X017716Y013442D01*
X017719Y013442D01*
X017719Y013821D01*
X017776Y013821D01*
X017776Y013442D01*
X017780Y013442D01*
X017843Y013452D01*
X017904Y013472D01*
X017961Y013501D01*
X018013Y013539D01*
X018059Y013584D01*
X018096Y013636D01*
X018125Y013693D01*
X018145Y013754D01*
X018155Y013818D01*
X018155Y013821D01*
X017776Y013821D01*
X017776Y013878D01*
X018155Y013878D01*
X018155Y013882D01*
X018145Y013945D01*
X018125Y014006D01*
X018096Y014063D01*
X018059Y014115D01*
X018013Y014161D01*
X017961Y014198D01*
X017904Y014227D01*
X017843Y014247D01*
X017780Y014257D01*
X017776Y014257D01*
X017776Y013878D01*
X017719Y013878D01*
X017719Y014257D01*
X017716Y014257D01*
X017652Y014247D01*
X017591Y014227D01*
X017625Y014238D02*
X016296Y014238D01*
X016296Y014140D02*
X017462Y014140D01*
X017388Y014041D02*
X016296Y014041D01*
X016296Y013943D02*
X017350Y013943D01*
X017353Y013746D02*
X016296Y013746D01*
X016296Y013844D02*
X017719Y013844D01*
X017776Y013844D02*
X018719Y013844D01*
X018719Y013821D02*
X018340Y013821D01*
X018340Y013818D01*
X018350Y013754D01*
X018370Y013693D01*
X018399Y013636D01*
X018437Y013584D01*
X018482Y013539D01*
X018534Y013501D01*
X018591Y013472D01*
X018652Y013452D01*
X018716Y013442D01*
X018719Y013442D01*
X018719Y013821D01*
X018719Y013878D01*
X018340Y013878D01*
X018340Y013882D01*
X018350Y013945D01*
X018370Y014006D01*
X018399Y014063D01*
X018437Y014115D01*
X018482Y014161D01*
X018534Y014198D01*
X018591Y014227D01*
X018652Y014247D01*
X018716Y014257D01*
X018719Y014257D01*
X018719Y013878D01*
X018776Y013878D01*
X019155Y013878D01*
X019155Y013882D01*
X019145Y013945D01*
X019125Y014006D01*
X019096Y014063D01*
X019059Y014115D01*
X019013Y014161D01*
X018961Y014198D01*
X018904Y014227D01*
X018843Y014247D01*
X018780Y014257D01*
X018776Y014257D01*
X018776Y013878D01*
X018776Y013821D01*
X018776Y013442D01*
X018780Y013442D01*
X018843Y013452D01*
X018904Y013472D01*
X018961Y013501D01*
X019013Y013539D01*
X019059Y013584D01*
X019096Y013636D01*
X019125Y013693D01*
X019145Y013754D01*
X019155Y013818D01*
X019155Y013821D01*
X018776Y013821D01*
X018719Y013821D01*
X018776Y013844D02*
X019766Y013844D01*
X019766Y013746D02*
X019142Y013746D01*
X019102Y013647D02*
X019766Y013647D01*
X019766Y013549D02*
X019023Y013549D01*
X018831Y013450D02*
X019766Y013450D01*
X019766Y013352D02*
X016374Y013352D01*
X016374Y013450D02*
X017665Y013450D01*
X017719Y013450D02*
X017776Y013450D01*
X017831Y013450D02*
X018665Y013450D01*
X018719Y013450D02*
X018776Y013450D01*
X018776Y013549D02*
X018719Y013549D01*
X018719Y013647D02*
X018776Y013647D01*
X018776Y013746D02*
X018719Y013746D01*
X018719Y013943D02*
X018776Y013943D01*
X018776Y014041D02*
X018719Y014041D01*
X018719Y014140D02*
X018776Y014140D01*
X018776Y014238D02*
X018719Y014238D01*
X018625Y014238D02*
X017870Y014238D01*
X017776Y014238D02*
X017719Y014238D01*
X017719Y014140D02*
X017776Y014140D01*
X017776Y014041D02*
X017719Y014041D01*
X017719Y013943D02*
X017776Y013943D01*
X017776Y013746D02*
X017719Y013746D01*
X017719Y013647D02*
X017776Y013647D01*
X017776Y013549D02*
X017719Y013549D01*
X017472Y013549D02*
X016353Y013549D01*
X016296Y013647D02*
X017394Y013647D01*
X017652Y013247D02*
X017716Y013257D01*
X017719Y013257D01*
X017719Y012878D01*
X017719Y012821D01*
X017340Y012821D01*
X017340Y012818D01*
X017350Y012754D01*
X017370Y012693D01*
X017399Y012636D01*
X017437Y012584D01*
X017482Y012539D01*
X017534Y012501D01*
X017591Y012472D01*
X017652Y012452D01*
X017716Y012442D01*
X017719Y012442D01*
X017719Y012821D01*
X017776Y012821D01*
X017776Y012442D01*
X017780Y012442D01*
X017843Y012452D01*
X017904Y012472D01*
X017961Y012501D01*
X018013Y012539D01*
X018059Y012584D01*
X018096Y012636D01*
X018125Y012693D01*
X018145Y012754D01*
X018155Y012818D01*
X018155Y012821D01*
X017776Y012821D01*
X017776Y012878D01*
X018155Y012878D01*
X018155Y012882D01*
X018145Y012945D01*
X018125Y013006D01*
X018096Y013063D01*
X018059Y013115D01*
X018013Y013161D01*
X017961Y013198D01*
X017904Y013227D01*
X017843Y013247D01*
X017780Y013257D01*
X017776Y013257D01*
X017776Y012878D01*
X017719Y012878D01*
X017340Y012878D01*
X017340Y012882D01*
X017350Y012945D01*
X017370Y013006D01*
X017399Y013063D01*
X017437Y013115D01*
X017482Y013161D01*
X017534Y013198D01*
X017591Y013227D01*
X017652Y013247D01*
X017691Y013253D02*
X016374Y013253D01*
X016374Y013155D02*
X017477Y013155D01*
X017396Y013056D02*
X016374Y013056D01*
X016361Y012958D02*
X017354Y012958D01*
X017349Y012761D02*
X016155Y012761D01*
X016308Y012859D02*
X017719Y012859D01*
X017776Y012859D02*
X018719Y012859D01*
X018719Y012878D02*
X018719Y012821D01*
X018340Y012821D01*
X018340Y012818D01*
X018350Y012754D01*
X018370Y012693D01*
X018399Y012636D01*
X018437Y012584D01*
X018482Y012539D01*
X018534Y012501D01*
X018591Y012472D01*
X018652Y012452D01*
X018716Y012442D01*
X018719Y012442D01*
X018719Y012821D01*
X018776Y012821D01*
X018776Y012442D01*
X018780Y012442D01*
X018843Y012452D01*
X018904Y012472D01*
X018961Y012501D01*
X019013Y012539D01*
X019059Y012584D01*
X019096Y012636D01*
X019125Y012693D01*
X019145Y012754D01*
X019155Y012818D01*
X019155Y012821D01*
X018776Y012821D01*
X018776Y012878D01*
X019155Y012878D01*
X019155Y012882D01*
X019145Y012945D01*
X019125Y013006D01*
X019096Y013063D01*
X019059Y013115D01*
X019013Y013161D01*
X018961Y013198D01*
X018904Y013227D01*
X018843Y013247D01*
X018780Y013257D01*
X018776Y013257D01*
X018776Y012878D01*
X018719Y012878D01*
X018340Y012878D01*
X018340Y012882D01*
X018350Y012945D01*
X018370Y013006D01*
X018399Y013063D01*
X018437Y013115D01*
X018482Y013161D01*
X018534Y013198D01*
X018591Y013227D01*
X018652Y013247D01*
X018716Y013257D01*
X018719Y013257D01*
X018719Y012878D01*
X018776Y012859D02*
X019766Y012859D01*
X019766Y012761D02*
X019146Y012761D01*
X019110Y012662D02*
X019766Y012662D01*
X019766Y012564D02*
X019038Y012564D01*
X018883Y012465D02*
X019766Y012465D01*
X019766Y012367D02*
X012791Y012367D01*
X012785Y012465D02*
X017612Y012465D01*
X017719Y012465D02*
X017776Y012465D01*
X017776Y012564D02*
X017719Y012564D01*
X017719Y012662D02*
X017776Y012662D01*
X017776Y012761D02*
X017719Y012761D01*
X017719Y012958D02*
X017776Y012958D01*
X017776Y013056D02*
X017719Y013056D01*
X017719Y013155D02*
X017776Y013155D01*
X017776Y013253D02*
X017719Y013253D01*
X017804Y013253D02*
X018691Y013253D01*
X018719Y013253D02*
X018776Y013253D01*
X018804Y013253D02*
X019766Y013253D01*
X019766Y013155D02*
X019019Y013155D01*
X019100Y013056D02*
X019766Y013056D01*
X019766Y012958D02*
X019141Y012958D01*
X018776Y012958D02*
X018719Y012958D01*
X018719Y013056D02*
X018776Y013056D01*
X018776Y013155D02*
X018719Y013155D01*
X018477Y013155D02*
X018019Y013155D01*
X018100Y013056D02*
X018396Y013056D01*
X018354Y012958D02*
X018141Y012958D01*
X018146Y012761D02*
X018349Y012761D01*
X018386Y012662D02*
X018110Y012662D01*
X018038Y012564D02*
X018457Y012564D01*
X018612Y012465D02*
X017883Y012465D01*
X017843Y012247D02*
X017780Y012257D01*
X017776Y012257D01*
X017776Y011878D01*
X018155Y011878D01*
X018155Y011882D01*
X018145Y011945D01*
X018125Y012006D01*
X018096Y012063D01*
X018059Y012115D01*
X018013Y012161D01*
X017961Y012198D01*
X017904Y012227D01*
X017843Y012247D01*
X017776Y012170D02*
X017719Y012170D01*
X017719Y012257D02*
X017719Y011878D01*
X017719Y011821D01*
X017340Y011821D01*
X017340Y011818D01*
X017350Y011754D01*
X017370Y011693D01*
X017399Y011636D01*
X017437Y011584D01*
X017482Y011539D01*
X017534Y011501D01*
X017591Y011472D01*
X017652Y011452D01*
X017716Y011442D01*
X017719Y011442D01*
X017719Y011821D01*
X017776Y011821D01*
X017776Y011442D01*
X017780Y011442D01*
X017843Y011452D01*
X017904Y011472D01*
X017961Y011501D01*
X018013Y011539D01*
X018059Y011584D01*
X018096Y011636D01*
X018125Y011693D01*
X018145Y011754D01*
X018155Y011818D01*
X018155Y011821D01*
X017776Y011821D01*
X017776Y011878D01*
X017719Y011878D01*
X017340Y011878D01*
X017340Y011882D01*
X017350Y011945D01*
X017370Y012006D01*
X017399Y012063D01*
X017437Y012115D01*
X017482Y012161D01*
X017534Y012198D01*
X017591Y012227D01*
X017652Y012247D01*
X017716Y012257D01*
X017719Y012257D01*
X017719Y012071D02*
X017776Y012071D01*
X017776Y011973D02*
X017719Y011973D01*
X017719Y011874D02*
X012791Y011874D01*
X012791Y011776D02*
X017347Y011776D01*
X017378Y011677D02*
X012791Y011677D01*
X012791Y011579D02*
X017442Y011579D01*
X017575Y011480D02*
X012791Y011480D01*
X012791Y011382D02*
X017602Y011382D01*
X017639Y011397D02*
X017438Y011314D01*
X017284Y011160D01*
X017200Y010959D01*
X017200Y010741D01*
X017284Y010540D01*
X017438Y010386D01*
X017639Y010302D01*
X017857Y010302D01*
X018058Y010386D01*
X018063Y010391D01*
X018432Y010391D01*
X018438Y010386D01*
X018639Y010302D01*
X018857Y010302D01*
X019058Y010386D01*
X019212Y010540D01*
X019295Y010741D01*
X019295Y010959D01*
X019212Y011160D01*
X019058Y011314D01*
X018857Y011397D01*
X018639Y011397D01*
X018576Y011371D01*
X017919Y011371D01*
X017857Y011397D01*
X017639Y011397D01*
X017719Y011480D02*
X017776Y011480D01*
X017776Y011579D02*
X017719Y011579D01*
X017719Y011677D02*
X017776Y011677D01*
X017776Y011776D02*
X017719Y011776D01*
X017776Y011874D02*
X018719Y011874D01*
X018719Y011878D02*
X018719Y011821D01*
X018340Y011821D01*
X018340Y011818D01*
X018350Y011754D01*
X018370Y011693D01*
X018399Y011636D01*
X018437Y011584D01*
X018482Y011539D01*
X018534Y011501D01*
X018591Y011472D01*
X018652Y011452D01*
X018716Y011442D01*
X018719Y011442D01*
X018719Y011821D01*
X018776Y011821D01*
X018776Y011442D01*
X018780Y011442D01*
X018843Y011452D01*
X018904Y011472D01*
X018961Y011501D01*
X019013Y011539D01*
X019059Y011584D01*
X019096Y011636D01*
X019125Y011693D01*
X019145Y011754D01*
X019155Y011818D01*
X019155Y011821D01*
X018776Y011821D01*
X018776Y011878D01*
X019155Y011878D01*
X019155Y011882D01*
X019145Y011945D01*
X019125Y012006D01*
X019096Y012063D01*
X019059Y012115D01*
X019013Y012161D01*
X018961Y012198D01*
X018904Y012227D01*
X018843Y012247D01*
X018780Y012257D01*
X018776Y012257D01*
X018776Y011878D01*
X018719Y011878D01*
X018340Y011878D01*
X018340Y011882D01*
X018350Y011945D01*
X018370Y012006D01*
X018399Y012063D01*
X018437Y012115D01*
X018482Y012161D01*
X018534Y012198D01*
X018591Y012227D01*
X018652Y012247D01*
X018716Y012257D01*
X018719Y012257D01*
X018719Y011878D01*
X018776Y011874D02*
X019766Y011874D01*
X019766Y011776D02*
X019149Y011776D01*
X019117Y011677D02*
X019766Y011677D01*
X019766Y011579D02*
X019053Y011579D01*
X018920Y011480D02*
X019766Y011480D01*
X019766Y011382D02*
X018894Y011382D01*
X018776Y011480D02*
X018719Y011480D01*
X018719Y011579D02*
X018776Y011579D01*
X018776Y011677D02*
X018719Y011677D01*
X018719Y011776D02*
X018776Y011776D01*
X018776Y011973D02*
X018719Y011973D01*
X018719Y012071D02*
X018776Y012071D01*
X018776Y012170D02*
X018719Y012170D01*
X018495Y012170D02*
X018000Y012170D01*
X018090Y012071D02*
X018405Y012071D01*
X018359Y011973D02*
X018136Y011973D01*
X018149Y011776D02*
X018347Y011776D01*
X018378Y011677D02*
X018117Y011677D01*
X018053Y011579D02*
X018442Y011579D01*
X018575Y011480D02*
X017920Y011480D01*
X017894Y011382D02*
X018602Y011382D01*
X019088Y011283D02*
X019766Y011283D01*
X019766Y011185D02*
X019187Y011185D01*
X019242Y011086D02*
X019766Y011086D01*
X019766Y010988D02*
X019283Y010988D01*
X019295Y010889D02*
X019766Y010889D01*
X019766Y010791D02*
X019295Y010791D01*
X019275Y010692D02*
X019766Y010692D01*
X019766Y010594D02*
X019234Y010594D01*
X019168Y010495D02*
X019766Y010495D01*
X019766Y010397D02*
X019069Y010397D01*
X019766Y010298D02*
X014721Y010298D01*
X014721Y010200D02*
X019766Y010200D01*
X019766Y010101D02*
X014721Y010101D01*
X014721Y010003D02*
X019766Y010003D01*
X019766Y009904D02*
X014721Y009904D01*
X014721Y009806D02*
X019766Y009806D01*
X019766Y009707D02*
X014721Y009707D01*
X014780Y009609D02*
X019766Y009609D01*
X019766Y009510D02*
X014799Y009510D01*
X014799Y009412D02*
X019766Y009412D01*
X019766Y009313D02*
X014884Y009313D01*
X014982Y009215D02*
X019766Y009215D01*
X019766Y009116D02*
X015081Y009116D01*
X015179Y009018D02*
X019766Y009018D01*
X019766Y008919D02*
X015278Y008919D01*
X015376Y008821D02*
X019766Y008821D01*
X019266Y008722D02*
X018804Y008722D01*
X018902Y008624D02*
X019168Y008624D01*
X018266Y008722D02*
X015475Y008722D01*
X015573Y008624D02*
X018168Y008624D01*
X018120Y007737D02*
X014513Y007737D01*
X014415Y007836D02*
X015201Y007836D01*
X015103Y007934D02*
X014316Y007934D01*
X014218Y008033D02*
X015004Y008033D01*
X014906Y008131D02*
X014119Y008131D01*
X014021Y008230D02*
X014807Y008230D01*
X014709Y008328D02*
X013922Y008328D01*
X013824Y008427D02*
X014610Y008427D01*
X014512Y008525D02*
X013725Y008525D01*
X013627Y008624D02*
X014413Y008624D01*
X014315Y008722D02*
X013528Y008722D01*
X013430Y008821D02*
X014049Y008821D01*
X013891Y008919D02*
X013331Y008919D01*
X013233Y009018D02*
X013836Y009018D01*
X013823Y009116D02*
X013134Y009116D01*
X013036Y009215D02*
X013823Y009215D01*
X013823Y009313D02*
X012937Y009313D01*
X012839Y009412D02*
X013823Y009412D01*
X013823Y009510D02*
X012791Y009510D01*
X012791Y009609D02*
X013842Y009609D01*
X013901Y009707D02*
X012791Y009707D01*
X012791Y009806D02*
X013901Y009806D01*
X013901Y009904D02*
X012791Y009904D01*
X012791Y010003D02*
X013901Y010003D01*
X013901Y010101D02*
X012791Y010101D01*
X012791Y010200D02*
X013901Y010200D01*
X013901Y010298D02*
X012791Y010298D01*
X012791Y010397D02*
X013901Y010397D01*
X013844Y010495D02*
X012791Y010495D01*
X012791Y010594D02*
X013823Y010594D01*
X013823Y010692D02*
X012791Y010692D01*
X012791Y010791D02*
X013823Y010791D01*
X013823Y010889D02*
X012791Y010889D01*
X012791Y010988D02*
X013823Y010988D01*
X013834Y011086D02*
X012791Y011086D01*
X012791Y011185D02*
X013887Y011185D01*
X014037Y011283D02*
X012791Y011283D01*
X012791Y011973D02*
X017359Y011973D01*
X017405Y012071D02*
X012791Y012071D01*
X012791Y012170D02*
X017495Y012170D01*
X017457Y012564D02*
X012744Y012564D01*
X012659Y012662D02*
X017386Y012662D01*
X018023Y013549D02*
X018472Y013549D01*
X018394Y013647D02*
X018102Y013647D01*
X018142Y013746D02*
X018353Y013746D01*
X018350Y013943D02*
X018146Y013943D01*
X018107Y014041D02*
X018388Y014041D01*
X018462Y014140D02*
X018034Y014140D01*
X017940Y014337D02*
X018555Y014337D01*
X018870Y014238D02*
X019766Y014238D01*
X019766Y014140D02*
X019034Y014140D01*
X019107Y014041D02*
X019766Y014041D01*
X019766Y013943D02*
X019146Y013943D01*
X018940Y014337D02*
X019766Y014337D01*
X019766Y014435D02*
X019108Y014435D01*
X019206Y014534D02*
X019766Y014534D01*
X019766Y014632D02*
X019250Y014632D01*
X019291Y014731D02*
X019766Y014731D01*
X019766Y014829D02*
X019295Y014829D01*
X019295Y014928D02*
X019766Y014928D01*
X019766Y015026D02*
X019267Y015026D01*
X019226Y015125D02*
X019766Y015125D01*
X019766Y015223D02*
X019148Y015223D01*
X019039Y015322D02*
X019766Y015322D01*
X018515Y017292D02*
X016374Y017292D01*
X016374Y017390D02*
X018336Y017390D01*
X018237Y017489D02*
X016368Y017489D01*
X016467Y017587D02*
X018179Y017587D01*
X018138Y017686D02*
X016491Y017686D01*
X016491Y017784D02*
X018115Y017784D01*
X018115Y017883D02*
X016491Y017883D01*
X016491Y017981D02*
X018115Y017981D01*
X018156Y018080D02*
X016491Y018080D01*
X016424Y018178D02*
X018197Y018178D01*
X018280Y018277D02*
X016326Y018277D01*
X016227Y018375D02*
X018380Y018375D01*
X018450Y018474D02*
X016143Y018474D01*
X016250Y018572D02*
X018352Y018572D01*
X018255Y018671D02*
X016310Y018671D01*
X016342Y018769D02*
X018255Y018769D01*
X018255Y018966D02*
X016340Y018966D01*
X016304Y019065D02*
X018266Y019065D01*
X018364Y019163D02*
X016241Y019163D01*
X016124Y019262D02*
X018463Y019262D01*
X018690Y019262D02*
X018750Y019262D01*
X018750Y019163D02*
X018690Y019163D01*
X018690Y019065D02*
X018750Y019065D01*
X018750Y018966D02*
X018690Y018966D01*
X015916Y018966D02*
X015856Y018966D01*
X015856Y019065D02*
X015916Y019065D01*
X015916Y019163D02*
X015856Y019163D01*
X015856Y019262D02*
X015916Y019262D01*
X015429Y018769D02*
X009570Y018769D01*
X009729Y018671D02*
X015461Y018671D01*
X015521Y018572D02*
X009785Y018572D01*
X009799Y018474D02*
X015628Y018474D01*
X015544Y018375D02*
X009799Y018375D01*
X009799Y018277D02*
X015445Y018277D01*
X015347Y018178D02*
X009799Y018178D01*
X009799Y018080D02*
X015281Y018080D01*
X015281Y017981D02*
X009780Y017981D01*
X009717Y017883D02*
X015281Y017883D01*
X015281Y017784D02*
X009651Y017784D01*
X009580Y017686D02*
X015281Y017686D01*
X015304Y017587D02*
X009481Y017587D01*
X009366Y017489D02*
X015403Y017489D01*
X015397Y017390D02*
X009366Y017390D01*
X009366Y017292D02*
X009444Y017292D01*
X009345Y017193D02*
X009336Y017193D01*
X009957Y017292D02*
X015397Y017292D01*
X015397Y017193D02*
X010056Y017193D01*
X010154Y017095D02*
X015397Y017095D01*
X015397Y016996D02*
X010250Y016996D01*
X010250Y016898D02*
X015409Y016898D01*
X015460Y016799D02*
X010250Y016799D01*
X010250Y016701D02*
X015476Y016701D01*
X015476Y016602D02*
X010699Y016602D01*
X010797Y016504D02*
X015476Y016504D01*
X015476Y016405D02*
X010860Y016405D01*
X010860Y016307D02*
X015476Y016307D01*
X015476Y016208D02*
X010860Y016208D01*
X010860Y016110D02*
X015476Y016110D01*
X015476Y016011D02*
X010771Y016011D01*
X010672Y015913D02*
X015476Y015913D01*
X015476Y015814D02*
X010250Y015814D01*
X010250Y015716D02*
X015476Y015716D01*
X015476Y015617D02*
X010250Y015617D01*
X010226Y015519D02*
X015476Y015519D01*
X015476Y015420D02*
X010128Y015420D01*
X010029Y015322D02*
X015476Y015322D01*
X015476Y015223D02*
X009931Y015223D01*
X009948Y015026D02*
X015476Y015026D01*
X015476Y014928D02*
X010037Y014928D01*
X010074Y014829D02*
X015476Y014829D01*
X015476Y014731D02*
X010074Y014731D01*
X010074Y014632D02*
X015476Y014632D01*
X015476Y014534D02*
X010074Y014534D01*
X010074Y014435D02*
X015476Y014435D01*
X015476Y014337D02*
X010074Y014337D01*
X010038Y014238D02*
X015476Y014238D01*
X015476Y014140D02*
X009950Y014140D01*
X009489Y013943D02*
X015476Y013943D01*
X015476Y014041D02*
X009390Y014041D01*
X008836Y013549D02*
X006609Y013549D01*
X006646Y013647D02*
X008738Y013647D01*
X008639Y013746D02*
X006646Y013746D01*
X006646Y013844D02*
X008541Y013844D01*
X008442Y013943D02*
X007903Y013943D01*
X007991Y014041D02*
X008344Y014041D01*
X008245Y014140D02*
X008027Y014140D01*
X008027Y014238D02*
X008147Y014238D01*
X008048Y014337D02*
X008027Y014337D01*
X007175Y013943D02*
X006646Y013943D01*
X006646Y014041D02*
X007087Y014041D01*
X007051Y014140D02*
X006646Y014140D01*
X006646Y014238D02*
X007051Y014238D01*
X007051Y014337D02*
X006617Y014337D01*
X006540Y014435D02*
X006966Y014435D01*
X006867Y014534D02*
X004550Y014534D01*
X004540Y014435D02*
X004656Y014435D01*
X005079Y014632D02*
X006769Y014632D01*
X006670Y014731D02*
X006513Y014731D01*
X005967Y014731D02*
X005219Y014731D01*
X005318Y014829D02*
X005816Y014829D01*
X005763Y014928D02*
X005416Y014928D01*
X005515Y015026D02*
X005752Y015026D01*
X005752Y015125D02*
X005613Y015125D01*
X005674Y015223D02*
X005752Y015223D01*
X005752Y015322D02*
X005704Y015322D01*
X005704Y015420D02*
X005752Y015420D01*
X005773Y015519D02*
X005704Y015519D01*
X005704Y015617D02*
X005839Y015617D01*
X005704Y015716D02*
X006669Y015716D01*
X006641Y015617D02*
X006768Y015617D01*
X006571Y015814D02*
X005704Y015814D01*
X005704Y015913D02*
X005926Y015913D01*
X005776Y016011D02*
X005704Y016011D01*
X005704Y016110D02*
X005724Y016110D01*
X005198Y016701D02*
X000981Y016701D01*
X000981Y016799D02*
X005296Y016799D01*
X005395Y016898D02*
X000981Y016898D01*
X000981Y016996D02*
X005493Y016996D01*
X005592Y017095D02*
X000981Y017095D01*
X000981Y017193D02*
X005690Y017193D01*
X005789Y017292D02*
X000981Y017292D01*
X000981Y017390D02*
X008525Y017390D01*
X008623Y017489D02*
X000981Y017489D01*
X000981Y017587D02*
X008626Y017587D01*
X008626Y017686D02*
X000981Y017686D01*
X000981Y017784D02*
X008626Y017784D01*
X008642Y017883D02*
X000981Y017883D01*
X000981Y017981D02*
X008683Y017981D01*
X008781Y018080D02*
X000981Y018080D01*
X000981Y018178D02*
X008823Y018178D01*
X008823Y018277D02*
X000981Y018277D01*
X000981Y018375D02*
X008823Y018375D01*
X008823Y018474D02*
X000981Y018474D01*
X000981Y018572D02*
X008837Y018572D01*
X008892Y018671D02*
X000981Y018671D01*
X000981Y018769D02*
X009051Y018769D01*
X010420Y016602D02*
X010480Y016602D01*
X010480Y016504D02*
X010420Y016504D01*
X010420Y016405D02*
X010480Y016405D01*
X010480Y016307D02*
X010420Y016307D01*
X010420Y016208D02*
X010480Y016208D01*
X010480Y016110D02*
X010420Y016110D01*
X010420Y016011D02*
X010480Y016011D01*
X010480Y015913D02*
X010420Y015913D01*
X009470Y015223D02*
X008996Y015223D01*
X009094Y015125D02*
X015476Y015125D01*
X015476Y013844D02*
X011405Y013844D01*
X011576Y013746D02*
X015476Y013746D01*
X015476Y013647D02*
X011674Y013647D01*
X011773Y013549D02*
X015418Y013549D01*
X015397Y013450D02*
X011871Y013450D01*
X011970Y013352D02*
X015397Y013352D01*
X015397Y013253D02*
X012068Y013253D01*
X012167Y013155D02*
X015397Y013155D01*
X015397Y013056D02*
X012265Y013056D01*
X012364Y012958D02*
X015410Y012958D01*
X015463Y012859D02*
X012462Y012859D01*
X012561Y012761D02*
X015616Y012761D01*
X014584Y011283D02*
X017407Y011283D01*
X017309Y011185D02*
X014735Y011185D01*
X014787Y011086D02*
X017253Y011086D01*
X017212Y010988D02*
X014799Y010988D01*
X014799Y010889D02*
X017200Y010889D01*
X017200Y010791D02*
X014799Y010791D01*
X014799Y010692D02*
X017220Y010692D01*
X017261Y010594D02*
X014799Y010594D01*
X014778Y010495D02*
X017328Y010495D01*
X017426Y010397D02*
X014721Y010397D01*
X012791Y012268D02*
X019766Y012268D01*
X019766Y012170D02*
X019000Y012170D01*
X019090Y012071D02*
X019766Y012071D01*
X019766Y011973D02*
X019136Y011973D01*
X018776Y012465D02*
X018719Y012465D01*
X018719Y012564D02*
X018776Y012564D01*
X018776Y012662D02*
X018719Y012662D01*
X018719Y012761D02*
X018776Y012761D01*
X018219Y007639D02*
X014612Y007639D01*
X014710Y007540D02*
X018282Y007540D01*
X018184Y007442D02*
X014809Y007442D01*
X014907Y007343D02*
X018085Y007343D01*
X018085Y007245D02*
X015006Y007245D01*
X015104Y007146D02*
X018153Y007146D01*
X018085Y007048D02*
X015203Y007048D01*
X015301Y006949D02*
X018106Y006949D01*
X018205Y006851D02*
X015400Y006851D01*
X015498Y006752D02*
X018303Y006752D01*
X018198Y006654D02*
X015597Y006654D01*
X015695Y006555D02*
X018099Y006555D01*
X018001Y006457D02*
X015794Y006457D01*
X015892Y006358D02*
X017945Y006358D01*
X017945Y006260D02*
X015991Y006260D01*
X016089Y006161D02*
X017945Y006161D01*
X017945Y006063D02*
X016188Y006063D01*
X016286Y005964D02*
X017945Y005964D01*
X017992Y005866D02*
X016385Y005866D01*
X016483Y005767D02*
X018090Y005767D01*
X018189Y005669D02*
X016582Y005669D01*
X016680Y005570D02*
X018114Y005570D01*
X018016Y005472D02*
X016779Y005472D01*
X016877Y005373D02*
X017945Y005373D01*
X017945Y005275D02*
X016976Y005275D01*
X017074Y005176D02*
X017945Y005176D01*
X017945Y005078D02*
X017173Y005078D01*
X017271Y004979D02*
X017945Y004979D01*
X017977Y004881D02*
X017370Y004881D01*
X017468Y004782D02*
X018075Y004782D01*
X018174Y004684D02*
X017567Y004684D01*
X017665Y004585D02*
X018129Y004585D01*
X018031Y004487D02*
X017764Y004487D01*
X017210Y003994D02*
X010597Y003994D01*
X010499Y003896D02*
X017308Y003896D01*
X017407Y003797D02*
X010400Y003797D01*
X010247Y003699D02*
X018159Y003699D01*
X018257Y003600D02*
X004931Y003600D01*
X004116Y003600D02*
X003931Y003600D01*
X003116Y003600D02*
X000981Y003600D01*
X000981Y003502D02*
X019766Y003502D01*
X019766Y003403D02*
X000981Y003403D01*
X000981Y003305D02*
X019766Y003305D01*
X019766Y003206D02*
X000981Y003206D01*
X000981Y003108D02*
X019766Y003108D01*
X019766Y003009D02*
X000981Y003009D01*
X000981Y002911D02*
X019766Y002911D01*
X019766Y002812D02*
X000981Y002812D01*
X000981Y002714D02*
X019766Y002714D01*
X019766Y002615D02*
X000981Y002615D01*
X000981Y002517D02*
X019766Y002517D01*
X019766Y002418D02*
X000981Y002418D01*
X000981Y002320D02*
X019766Y002320D01*
X019766Y002221D02*
X000981Y002221D01*
X000981Y002123D02*
X019766Y002123D01*
X019766Y002024D02*
X000981Y002024D01*
X000981Y001926D02*
X019766Y001926D01*
X019766Y001827D02*
X000981Y001827D01*
X000981Y001729D02*
X019766Y001729D01*
X019766Y001630D02*
X000981Y001630D01*
X000981Y001532D02*
X019766Y001532D01*
X019766Y001433D02*
X000981Y001433D01*
X000981Y001335D02*
X019766Y001335D01*
X019766Y001236D02*
X000981Y001236D01*
X000981Y001138D02*
X019766Y001138D01*
X019766Y001039D02*
X000981Y001039D01*
X000981Y000941D02*
X019766Y000941D01*
X019766Y000842D02*
X000981Y000842D01*
X000981Y000744D02*
X019766Y000744D01*
X019257Y003600D02*
X018813Y003600D01*
X018911Y003699D02*
X019159Y003699D01*
X017111Y004093D02*
X010696Y004093D01*
X010794Y004191D02*
X017013Y004191D01*
X016914Y004290D02*
X010893Y004290D01*
X010991Y004388D02*
X016816Y004388D01*
X016717Y004487D02*
X011090Y004487D01*
X011188Y004585D02*
X016619Y004585D01*
X016520Y004684D02*
X013304Y004684D01*
X013400Y004782D02*
X016422Y004782D01*
X016323Y004881D02*
X013439Y004881D01*
X013439Y004979D02*
X016225Y004979D01*
X016126Y005078D02*
X013439Y005078D01*
X013439Y005176D02*
X016028Y005176D01*
X015929Y005275D02*
X013439Y005275D01*
X013439Y005373D02*
X015831Y005373D01*
X015732Y005472D02*
X013420Y005472D01*
X013358Y005570D02*
X015634Y005570D01*
X015535Y005669D02*
X010586Y005669D01*
X010586Y005767D02*
X015437Y005767D01*
X015338Y005866D02*
X010586Y005866D01*
X010586Y005964D02*
X015240Y005964D01*
X015141Y006063D02*
X010586Y006063D01*
X010586Y006161D02*
X012320Y006161D01*
X012221Y006260D02*
X010586Y006260D01*
X010586Y006358D02*
X012123Y006358D01*
X012080Y006457D02*
X010586Y006457D01*
X010586Y006555D02*
X012080Y006555D01*
X012080Y006654D02*
X010586Y006654D01*
X010586Y006752D02*
X012080Y006752D01*
X012080Y006851D02*
X010586Y006851D01*
X010586Y006949D02*
X012172Y006949D01*
X012270Y007048D02*
X010586Y007048D01*
X010586Y007146D02*
X012369Y007146D01*
X012580Y007245D02*
X010586Y007245D01*
X010586Y007343D02*
X012580Y007343D01*
X012580Y007442D02*
X010586Y007442D01*
X010586Y007540D02*
X012580Y007540D01*
X012611Y007639D02*
X010586Y007639D01*
X010586Y007737D02*
X012710Y007737D01*
X012808Y007836D02*
X010586Y007836D01*
X010586Y007934D02*
X013270Y007934D01*
X013171Y008033D02*
X010586Y008033D01*
X010586Y008131D02*
X013073Y008131D01*
X012974Y008230D02*
X010586Y008230D01*
X010586Y008328D02*
X012876Y008328D01*
X012777Y008427D02*
X010586Y008427D01*
X010586Y008525D02*
X012679Y008525D01*
X012580Y008624D02*
X010586Y008624D01*
X010586Y008722D02*
X012482Y008722D01*
X012383Y008821D02*
X010586Y008821D01*
X010586Y008919D02*
X012285Y008919D01*
X012186Y009018D02*
X011518Y009018D01*
X011523Y009020D02*
X011605Y009101D01*
X011649Y009208D01*
X011649Y009720D01*
X011605Y009826D01*
X011531Y009900D01*
X011531Y010130D01*
X011605Y010204D01*
X011649Y010310D01*
X011649Y010822D01*
X011605Y010929D01*
X011523Y011010D01*
X011417Y011054D01*
X010905Y011054D01*
X010799Y011010D01*
X010717Y010929D01*
X010673Y010822D01*
X010673Y010310D01*
X010717Y010204D01*
X010791Y010130D01*
X010791Y009900D01*
X010717Y009826D01*
X010673Y009720D01*
X010673Y009208D01*
X010717Y009101D01*
X010799Y009020D01*
X010905Y008976D01*
X011417Y008976D01*
X011523Y009020D01*
X011611Y009116D02*
X012099Y009116D01*
X012058Y009215D02*
X011649Y009215D01*
X011649Y009313D02*
X012051Y009313D01*
X012051Y009412D02*
X011649Y009412D01*
X011649Y009510D02*
X012051Y009510D01*
X012051Y009609D02*
X011649Y009609D01*
X011649Y009707D02*
X012051Y009707D01*
X012051Y009806D02*
X011614Y009806D01*
X011531Y009904D02*
X012051Y009904D01*
X012051Y010003D02*
X011531Y010003D01*
X011531Y010101D02*
X012051Y010101D01*
X012051Y010200D02*
X011601Y010200D01*
X011644Y010298D02*
X012051Y010298D01*
X012051Y010397D02*
X011649Y010397D01*
X011649Y010495D02*
X012051Y010495D01*
X012051Y010594D02*
X011649Y010594D01*
X011649Y010692D02*
X012051Y010692D01*
X012051Y010791D02*
X011649Y010791D01*
X011621Y010889D02*
X012051Y010889D01*
X012051Y010988D02*
X011546Y010988D01*
X012051Y011086D02*
X007070Y011086D01*
X007168Y010988D02*
X010776Y010988D01*
X010701Y010889D02*
X007267Y010889D01*
X007365Y010791D02*
X010673Y010791D01*
X010673Y010692D02*
X009521Y010692D01*
X009688Y010594D02*
X010673Y010594D01*
X010673Y010495D02*
X009787Y010495D01*
X009885Y010397D02*
X010673Y010397D01*
X010678Y010298D02*
X009984Y010298D01*
X010082Y010200D02*
X010721Y010200D01*
X010791Y010101D02*
X010181Y010101D01*
X010279Y010003D02*
X010791Y010003D01*
X010791Y009904D02*
X010378Y009904D01*
X010476Y009806D02*
X010709Y009806D01*
X010673Y009707D02*
X010548Y009707D01*
X010586Y009609D02*
X010673Y009609D01*
X010673Y009510D02*
X010586Y009510D01*
X010586Y009412D02*
X010673Y009412D01*
X010673Y009313D02*
X010586Y009313D01*
X010586Y009215D02*
X010673Y009215D01*
X010711Y009116D02*
X010586Y009116D01*
X010586Y009018D02*
X010804Y009018D01*
X009216Y007146D02*
X009209Y007146D01*
X009216Y007048D02*
X009111Y007048D01*
X009012Y006949D02*
X009216Y006949D01*
X009216Y006851D02*
X008914Y006851D01*
X008765Y006752D02*
X009216Y006752D01*
X009216Y006654D02*
X008286Y006654D01*
X007580Y006654D02*
X000981Y006654D01*
X000981Y006752D02*
X007483Y006752D01*
X007445Y006851D02*
X000981Y006851D01*
X000981Y006949D02*
X007445Y006949D01*
X007445Y007048D02*
X000981Y007048D01*
X000981Y007146D02*
X007445Y007146D01*
X007445Y007245D02*
X000981Y007245D01*
X000981Y007343D02*
X007445Y007343D01*
X007185Y007442D02*
X000981Y007442D01*
X000981Y007540D02*
X007089Y007540D01*
X007051Y007639D02*
X000981Y007639D01*
X000981Y007737D02*
X007051Y007737D01*
X007051Y007836D02*
X000981Y007836D01*
X000981Y007934D02*
X004955Y007934D01*
X004876Y008033D02*
X000981Y008033D01*
X000981Y008131D02*
X004846Y008131D01*
X004846Y008230D02*
X000981Y008230D01*
X000981Y008328D02*
X004846Y008328D01*
X004846Y008427D02*
X000981Y008427D01*
X000981Y008525D02*
X004846Y008525D01*
X004849Y008624D02*
X000981Y008624D01*
X000981Y008722D02*
X004890Y008722D01*
X004893Y008821D02*
X000981Y008821D01*
X000981Y008919D02*
X004886Y008919D01*
X004886Y009018D02*
X004721Y009018D01*
X004820Y009116D02*
X004886Y009116D01*
X005822Y008427D02*
X006500Y008427D01*
X006500Y008328D02*
X005822Y008328D01*
X005822Y008230D02*
X006514Y008230D01*
X006569Y008131D02*
X005822Y008131D01*
X005792Y008033D02*
X006727Y008033D01*
X007051Y007934D02*
X005713Y007934D01*
X005643Y006260D02*
X008930Y006260D01*
X009028Y006358D02*
X000981Y006358D01*
X000981Y006260D02*
X004081Y006260D01*
X003982Y006161D02*
X000981Y006161D01*
X000981Y006063D02*
X003884Y006063D01*
X003812Y005964D02*
X000981Y005964D01*
X000981Y005866D02*
X003812Y005866D01*
X003812Y005767D02*
X000981Y005767D01*
X000981Y005669D02*
X003812Y005669D01*
X003812Y005570D02*
X000981Y005570D01*
X000981Y005472D02*
X003875Y005472D01*
X003974Y005373D02*
X000981Y005373D01*
X000981Y005275D02*
X004072Y005275D01*
X004651Y005275D02*
X005072Y005275D01*
X004974Y005373D02*
X004750Y005373D01*
X004848Y005472D02*
X004875Y005472D01*
X004884Y006063D02*
X004840Y006063D01*
X004742Y006161D02*
X004982Y006161D01*
X005081Y006260D02*
X004643Y006260D01*
X005651Y005275D02*
X005791Y005275D01*
X005791Y005373D02*
X005750Y005373D01*
X005791Y005176D02*
X000981Y005176D01*
X000981Y005078D02*
X005806Y005078D01*
X005863Y004979D02*
X000981Y004979D01*
X000981Y004881D02*
X007828Y004881D01*
X007828Y004782D02*
X000981Y004782D01*
X000981Y004684D02*
X007828Y004684D01*
X007828Y004585D02*
X004973Y004585D01*
X005045Y004487D02*
X007828Y004487D01*
X007918Y004979D02*
X006695Y004979D01*
X006688Y005767D02*
X008437Y005767D01*
X008536Y005866D02*
X005912Y005866D01*
X005912Y005964D02*
X008634Y005964D01*
X008733Y006063D02*
X005840Y006063D01*
X005742Y006161D02*
X008831Y006161D01*
X009127Y006457D02*
X000981Y006457D01*
X000981Y006555D02*
X009216Y006555D01*
X010586Y005570D02*
X012504Y005570D01*
X012939Y006161D02*
X013320Y006161D01*
X013221Y006260D02*
X013038Y006260D01*
X013939Y006161D02*
X015043Y006161D01*
X014944Y006260D02*
X014038Y006260D01*
X014136Y006358D02*
X014846Y006358D01*
X014747Y006457D02*
X014180Y006457D01*
X014180Y006555D02*
X014649Y006555D01*
X014550Y006654D02*
X014180Y006654D01*
X014180Y006752D02*
X014452Y006752D01*
X014353Y006851D02*
X014180Y006851D01*
X014255Y006949D02*
X014087Y006949D01*
X014156Y007048D02*
X013989Y007048D01*
X014058Y007146D02*
X013890Y007146D01*
X013959Y007245D02*
X013680Y007245D01*
X013680Y007343D02*
X013861Y007343D01*
X013762Y007442D02*
X013680Y007442D01*
X011038Y005472D02*
X010586Y005472D01*
X010565Y005373D02*
X010930Y005373D01*
X010831Y005275D02*
X010515Y005275D01*
X010416Y005176D02*
X010733Y005176D01*
X010634Y005078D02*
X010318Y005078D01*
X010219Y004979D02*
X010536Y004979D01*
X010437Y004881D02*
X010121Y004881D01*
X010022Y004782D02*
X010339Y004782D01*
X010240Y004684D02*
X009928Y004684D01*
X009928Y004585D02*
X010142Y004585D01*
X010043Y004487D02*
X009928Y004487D01*
X011287Y004684D02*
X012558Y004684D01*
X012051Y011185D02*
X006971Y011185D01*
X006873Y011283D02*
X012051Y011283D01*
X012051Y011382D02*
X006807Y011382D01*
X006807Y011480D02*
X012051Y011480D01*
X012051Y011579D02*
X006807Y011579D01*
X006807Y011677D02*
X012051Y011677D01*
X012051Y011776D02*
X006878Y011776D01*
X006920Y011874D02*
X012051Y011874D01*
X012051Y011973D02*
X008886Y011973D01*
X008951Y012071D02*
X012051Y012071D01*
X012051Y012170D02*
X008972Y012170D01*
X008972Y012268D02*
X012007Y012268D01*
X011908Y012367D02*
X011170Y012367D01*
X011235Y012465D02*
X011810Y012465D01*
X011711Y012564D02*
X011256Y012564D01*
X011256Y012662D02*
X011613Y012662D01*
X011514Y012761D02*
X011256Y012761D01*
X011256Y012859D02*
X011416Y012859D01*
X011317Y012958D02*
X011256Y012958D01*
X010365Y012367D02*
X008972Y012367D01*
X008305Y012958D02*
X006256Y012958D01*
X006256Y013056D02*
X008404Y013056D01*
X008207Y012859D02*
X006256Y012859D01*
X006256Y012761D02*
X008061Y012761D01*
X008008Y012662D02*
X006256Y012662D01*
X006256Y013155D02*
X009246Y013155D01*
X009132Y013253D02*
X006217Y013253D01*
X006143Y013352D02*
X009033Y013352D01*
X008935Y013450D02*
X006521Y013450D01*
X006820Y012564D02*
X007996Y012564D01*
X007996Y012465D02*
X006896Y012465D01*
X006925Y012367D02*
X007996Y012367D01*
X007996Y012268D02*
X006925Y012268D01*
X006925Y012170D02*
X007996Y012170D01*
X008017Y012071D02*
X006925Y012071D01*
X006925Y011973D02*
X008082Y011973D01*
X005656Y014435D02*
X005540Y014435D01*
X004862Y015420D02*
X000981Y015420D01*
X000981Y015322D02*
X004337Y015322D01*
X004193Y015223D02*
X000981Y015223D01*
X000981Y015125D02*
X004094Y015125D01*
X003996Y015026D02*
X000981Y015026D01*
X000981Y014928D02*
X003897Y014928D01*
X003799Y014829D02*
X000981Y014829D01*
X000981Y014731D02*
X003736Y014731D01*
X003704Y014632D02*
X000981Y014632D01*
X000981Y014534D02*
X003704Y014534D01*
X003656Y014435D02*
X000981Y014435D01*
X000981Y014337D02*
X003579Y014337D01*
X003551Y014238D02*
X000981Y014238D01*
X000981Y014140D02*
X003551Y014140D01*
X003551Y014041D02*
X000981Y014041D01*
X000981Y013943D02*
X003551Y013943D01*
X003551Y013844D02*
X000981Y013844D01*
X000981Y013746D02*
X003551Y013746D01*
X003551Y013647D02*
X000981Y013647D01*
X000981Y013549D02*
X003587Y013549D01*
X003675Y013450D02*
X000981Y013450D01*
X000981Y013352D02*
X003783Y013352D01*
X003783Y013253D02*
X000981Y013253D01*
X000981Y013155D02*
X003789Y013155D01*
X003830Y013056D02*
X000981Y013056D01*
X000981Y012958D02*
X003916Y012958D01*
X004014Y012859D02*
X000981Y012859D01*
X000981Y012761D02*
X004113Y012761D01*
X004211Y012662D02*
X000981Y012662D01*
X000981Y012564D02*
X004310Y012564D01*
X004408Y012465D02*
X000981Y012465D01*
X000981Y012367D02*
X004507Y012367D01*
X004605Y012268D02*
X000981Y012268D01*
X000981Y012170D02*
X004704Y012170D01*
X004802Y012071D02*
X000981Y012071D01*
X000981Y011973D02*
X003650Y011973D01*
X003502Y011874D02*
X000981Y011874D01*
X000981Y011776D02*
X003408Y011776D01*
X003367Y011677D02*
X000981Y011677D01*
X000981Y011579D02*
X003327Y011579D01*
X003327Y011480D02*
X000981Y011480D01*
X000981Y011382D02*
X003327Y011382D01*
X003360Y011283D02*
X000981Y011283D01*
X000981Y011185D02*
X003401Y011185D01*
X003485Y011086D02*
X000981Y011086D01*
X000981Y010988D02*
X003609Y010988D01*
X003517Y010889D02*
X000981Y010889D01*
X000981Y010791D02*
X003419Y010791D01*
X003374Y010692D02*
X000981Y010692D01*
X000981Y010594D02*
X003333Y010594D01*
X003327Y010495D02*
X000981Y010495D01*
X000981Y010397D02*
X003327Y010397D01*
X003354Y010298D02*
X000981Y010298D01*
X000981Y010200D02*
X003395Y010200D01*
X003470Y010101D02*
X000981Y010101D01*
X000981Y010003D02*
X003572Y010003D01*
X003532Y009904D02*
X000981Y009904D01*
X000981Y009806D02*
X003434Y009806D01*
X003380Y009707D02*
X000981Y009707D01*
X000981Y009609D02*
X003339Y009609D01*
X003327Y009510D02*
X000981Y009510D01*
X000981Y009412D02*
X003327Y009412D01*
X003348Y009313D02*
X000981Y009313D01*
X000981Y009215D02*
X003389Y009215D01*
X003455Y009116D02*
X000981Y009116D01*
X000981Y009018D02*
X003554Y009018D01*
X004867Y011776D02*
X004886Y011776D01*
X004886Y011874D02*
X004773Y011874D01*
X004886Y011973D02*
X004625Y011973D01*
X004094Y015519D02*
X003976Y015519D01*
X003094Y015519D02*
X000981Y015519D01*
X000981Y015617D02*
X002200Y015617D01*
X002186Y015626D02*
X002220Y015606D01*
X002258Y015596D01*
X002506Y015596D01*
X002506Y015974D01*
X002564Y015974D01*
X002564Y015596D01*
X002812Y015596D01*
X002850Y015606D01*
X002885Y015626D01*
X002913Y015654D01*
X002932Y015688D01*
X002943Y015726D01*
X002943Y015975D01*
X002564Y015975D01*
X002564Y016032D01*
X002943Y016032D01*
X002943Y016280D01*
X002932Y016319D01*
X002913Y016353D01*
X002885Y016381D01*
X002850Y016401D01*
X002812Y016411D01*
X002564Y016411D01*
X002564Y016032D01*
X002506Y016032D01*
X002506Y015975D01*
X002128Y015975D01*
X002128Y015726D01*
X002138Y015688D01*
X002158Y015654D01*
X002186Y015626D01*
X002130Y015716D02*
X000981Y015716D01*
X000981Y015814D02*
X002128Y015814D01*
X002128Y015913D02*
X000981Y015913D01*
X000981Y016011D02*
X002506Y016011D01*
X002506Y016032D02*
X002128Y016032D01*
X002128Y016280D01*
X002138Y016319D01*
X002158Y016353D01*
X002186Y016381D01*
X002220Y016401D01*
X002258Y016411D01*
X002506Y016411D01*
X002506Y016032D01*
X002564Y016011D02*
X002988Y016011D01*
X002988Y015913D02*
X002943Y015913D01*
X002943Y015814D02*
X002988Y015814D01*
X002988Y015716D02*
X002940Y015716D01*
X002870Y015617D02*
X003017Y015617D01*
X002564Y015617D02*
X002506Y015617D01*
X002506Y015716D02*
X002564Y015716D01*
X002564Y015814D02*
X002506Y015814D01*
X002506Y015913D02*
X002564Y015913D01*
X002564Y016110D02*
X002506Y016110D01*
X002506Y016208D02*
X002564Y016208D01*
X002564Y016307D02*
X002506Y016307D01*
X002506Y016405D02*
X002564Y016405D01*
X002833Y016405D02*
X003024Y016405D01*
X002988Y016307D02*
X002936Y016307D01*
X002943Y016208D02*
X002988Y016208D01*
X002988Y016110D02*
X002943Y016110D01*
X003111Y016504D02*
X000981Y016504D01*
X000981Y016602D02*
X005099Y016602D01*
X005012Y016504D02*
X004960Y016504D01*
X004111Y016504D02*
X003960Y016504D01*
X002238Y016405D02*
X000981Y016405D01*
X000981Y016307D02*
X002135Y016307D01*
X002128Y016208D02*
X000981Y016208D01*
X000981Y016110D02*
X002128Y016110D01*
X008799Y015420D02*
X009273Y015420D01*
X009372Y015322D02*
X008897Y015322D01*
X008844Y015519D02*
X009175Y015519D01*
X009150Y015617D02*
X008901Y015617D01*
X008999Y015716D02*
X009150Y015716D01*
X009150Y015814D02*
X009098Y015814D01*
X009193Y015026D02*
X009225Y015026D01*
X004074Y004585D02*
X003973Y004585D01*
X003074Y004585D02*
X000981Y004585D01*
X000981Y004487D02*
X002173Y004487D01*
X002174Y004487D02*
X002146Y004459D01*
X002126Y004425D01*
X002116Y004387D01*
X002116Y004138D01*
X002495Y004138D01*
X002495Y004081D01*
X002552Y004081D01*
X002552Y004138D01*
X002931Y004138D01*
X002931Y004387D01*
X002921Y004425D01*
X002901Y004459D01*
X002873Y004487D01*
X002839Y004507D01*
X002801Y004517D01*
X002552Y004517D01*
X002552Y004138D01*
X002495Y004138D01*
X002495Y004517D01*
X002246Y004517D01*
X002208Y004507D01*
X002174Y004487D01*
X002116Y004388D02*
X000981Y004388D01*
X000981Y004290D02*
X002116Y004290D01*
X002116Y004191D02*
X000981Y004191D01*
X000981Y004093D02*
X002495Y004093D01*
X002495Y004081D02*
X002116Y004081D01*
X002116Y003832D01*
X002126Y003794D01*
X002146Y003760D01*
X002174Y003732D01*
X002208Y003712D01*
X002246Y003702D01*
X002495Y003702D01*
X002495Y004081D01*
X002552Y004081D02*
X002552Y003702D01*
X002801Y003702D01*
X002839Y003712D01*
X002873Y003732D01*
X002901Y003760D01*
X002921Y003794D01*
X002931Y003832D01*
X002931Y004081D01*
X002552Y004081D01*
X002552Y004093D02*
X002976Y004093D01*
X002976Y004191D02*
X002931Y004191D01*
X002931Y004290D02*
X002976Y004290D01*
X002976Y004388D02*
X002930Y004388D01*
X002873Y004487D02*
X003002Y004487D01*
X002552Y004487D02*
X002495Y004487D01*
X002495Y004388D02*
X002552Y004388D01*
X002552Y004290D02*
X002495Y004290D01*
X002495Y004191D02*
X002552Y004191D01*
X002552Y003994D02*
X002495Y003994D01*
X002495Y003896D02*
X002552Y003896D01*
X002552Y003797D02*
X002495Y003797D01*
X002125Y003797D02*
X000981Y003797D01*
X000981Y003699D02*
X003015Y003699D01*
X002976Y003797D02*
X002921Y003797D01*
X002931Y003896D02*
X002976Y003896D01*
X002976Y003994D02*
X002931Y003994D01*
X002116Y003994D02*
X000981Y003994D01*
X000981Y003896D02*
X002116Y003896D01*
D22*
X012931Y005151D03*
M02*
