%
M48
M72
T01C0.0236
T02C0.0315
T03C0.0320
T04C0.0400
%
T01
X11759Y11523
X13413Y13256
X13019Y14043
X12468Y14673
X13019Y14988
X14515Y14830
X15067Y14830
X16641Y15618
X16641Y16720
X16248Y18925
X14968Y20126
X13964Y18531
X11917Y18295
X11444Y15460
X10815Y14515
X13019Y21090
X13807Y21917
X11720Y21366
X14791Y24437
X15381Y25618
X12311Y25618
X18689Y19004
X19791Y16956
X19791Y15460
X19004Y15460
X21366Y19397
X21366Y23334
T02
X8004Y10263
X9004Y10263
X10004Y10263
X9578Y20106
X10578Y20106
X11578Y20106
X10015Y22157
X9015Y22157
X8015Y22157
X23228Y21004
X24228Y21004
X24228Y20004
X23228Y20004
X23228Y19004
X24228Y19004
X24228Y18004
X23228Y18004
X23228Y17004
X24228Y17004
T03
X19504Y12783
X19004Y13533
X18504Y12783
X14464Y10421
X13464Y10421
X10842Y11917
X9842Y11917
X9618Y15626
X9618Y16626
X9618Y17626
X13799Y21925
X13049Y22425
X13799Y22925
X15181Y22925
X15931Y22425
X15181Y21925
X21366Y24015
X21366Y25015
X24200Y25015
X24200Y24015
T04
X24015Y14311
X25015Y14311
X25015Y13311
X24015Y13311
X24015Y12311
X25015Y12311
X25015Y11311
X24015Y11311
X24015Y10311
X25015Y10311
M30
