G75*
%MOIN*%
%OFA0B0*%
%FSLAX24Y24*%
%IPPOS*%
%LPD*%
%AMOC8*
5,1,8,0,0,1.08239X$1,22.5*
%
%ADD10R,0.0316X0.0946*%
%ADD11R,0.0595X0.0595*%
%ADD12R,0.0395X0.0237*%
%ADD13OC8,0.0600*%
%ADD14R,0.0513X0.0474*%
%ADD15C,0.0600*%
%ADD16R,0.0474X0.0513*%
%ADD17C,0.0595*%
%ADD18OC8,0.0680*%
%ADD19OC8,0.0710*%
%ADD20C,0.0710*%
%ADD21R,0.0476X0.0476*%
D10*
X012393Y015492D03*
X012893Y015492D03*
X013393Y015492D03*
X013893Y015492D03*
X014393Y015492D03*
X014893Y015492D03*
X015393Y015492D03*
X015393Y017539D03*
X014893Y017539D03*
X014393Y017539D03*
X013893Y017539D03*
X013393Y017539D03*
X012893Y017539D03*
X012393Y017539D03*
D11*
X011945Y020106D03*
X010945Y020106D03*
X009945Y020106D03*
X010382Y022157D03*
X009382Y022157D03*
X008382Y022157D03*
X008370Y010263D03*
X009370Y010263D03*
X010370Y010263D03*
D12*
X014535Y023590D03*
X014535Y023846D03*
X014535Y024102D03*
X015165Y024102D03*
X015165Y023846D03*
X015165Y023590D03*
D13*
X015547Y022925D03*
X016297Y022425D03*
X015547Y021925D03*
X014165Y021925D03*
X013415Y022425D03*
X014165Y022925D03*
X011208Y011917D03*
X010208Y011917D03*
D14*
X010000Y014220D03*
X010000Y014889D03*
X012657Y013177D03*
X013326Y013177D03*
X016220Y014338D03*
X016220Y015007D03*
X017008Y015007D03*
X017008Y014338D03*
X017008Y013826D03*
X017008Y013157D03*
X021200Y017783D03*
X021870Y017783D03*
X021870Y020224D03*
X021200Y020224D03*
X018445Y019004D03*
X017775Y019004D03*
X017008Y019063D03*
X017008Y019732D03*
X017913Y020637D03*
X017913Y021307D03*
X015826Y020126D03*
X015826Y019456D03*
X015767Y018610D03*
X015098Y018610D03*
X012677Y018748D03*
X012677Y019417D03*
X011460Y021385D03*
X011460Y022055D03*
X012677Y024181D03*
X012677Y024850D03*
X009968Y018984D03*
X009968Y018315D03*
D15*
X009724Y017626D02*
X010244Y017626D01*
X010244Y016626D02*
X009724Y016626D01*
X009724Y015626D02*
X010244Y015626D01*
D16*
X009980Y009161D03*
X010649Y009161D03*
X011555Y010342D03*
X012224Y010342D03*
X012657Y012311D03*
X013326Y012311D03*
X012775Y014043D03*
X012106Y014043D03*
X011181Y014220D03*
X011181Y013551D03*
X009665Y011878D03*
X008996Y011878D03*
X017854Y018216D03*
X018523Y018216D03*
X017008Y020637D03*
X017008Y021307D03*
X021200Y021011D03*
X021870Y021011D03*
X021870Y016996D03*
X021200Y016996D03*
D17*
X023594Y017004D03*
X023594Y018004D03*
X023594Y019004D03*
X023594Y020004D03*
X023594Y021004D03*
X024594Y021004D03*
X024594Y020004D03*
X024594Y019004D03*
X024594Y018004D03*
X024594Y017004D03*
D18*
X024382Y014311D03*
X025382Y014311D03*
X025382Y013311D03*
X025382Y012311D03*
X025382Y011311D03*
X025382Y010311D03*
X024382Y010311D03*
X024382Y011311D03*
X024382Y012311D03*
X024382Y013311D03*
D19*
X021732Y024015D03*
X024567Y025015D03*
D20*
X024567Y024015D03*
X021732Y025015D03*
D21*
X021732Y023334D03*
X021732Y019397D03*
X020157Y016956D03*
X020157Y015460D03*
X017008Y015618D03*
X017008Y016720D03*
X015433Y014830D03*
X014882Y014830D03*
X013385Y014988D03*
X012834Y014673D03*
X013385Y014043D03*
X013779Y013256D03*
X012126Y011523D03*
X011181Y014515D03*
X011811Y015460D03*
X014330Y018531D03*
X015334Y020126D03*
X016614Y018925D03*
X019055Y019004D03*
X014173Y021917D03*
X013385Y021090D03*
X012086Y021366D03*
X015157Y024437D03*
X015748Y025618D03*
X012677Y025618D03*
M02*
