G75*
%MOIN*%
%OFA0B0*%
%FSLAX24Y24*%
%IPPOS*%
%LPD*%
%AMOC8*
5,1,8,0,0,1.08239X$1,22.5*
%
%ADD10C,0.0040*%
D10*
X022886Y016177D02*
X022886Y016484D01*
X023193Y016484D02*
X023193Y016177D01*
X023040Y016024D01*
X022886Y016177D01*
X023346Y016024D02*
X023653Y016024D01*
X023346Y016330D01*
X023346Y016407D01*
X023423Y016484D01*
X023577Y016484D01*
X023653Y016407D01*
X023807Y016024D02*
X024114Y016024D01*
X023960Y016024D02*
X023960Y016484D01*
X024114Y016330D01*
X024267Y016254D02*
X024574Y016254D01*
X023248Y018392D02*
X022941Y018392D01*
X022864Y018469D01*
X022864Y018623D01*
X022941Y018699D01*
X023094Y018699D01*
X023094Y018546D01*
X023248Y018699D02*
X023325Y018623D01*
X023325Y018469D01*
X023248Y018392D01*
X023325Y018853D02*
X022864Y018853D01*
X022864Y019160D02*
X023325Y019160D01*
X023325Y019313D02*
X022864Y019313D01*
X022864Y019543D01*
X022941Y019620D01*
X023248Y019620D01*
X023325Y019543D01*
X023325Y019313D01*
X023325Y018853D02*
X022864Y019160D01*
X023290Y021524D02*
X023136Y021677D01*
X023136Y021984D01*
X023443Y021984D02*
X023443Y021677D01*
X023290Y021524D01*
X023596Y021524D02*
X023903Y021524D01*
X023596Y021830D01*
X023596Y021907D01*
X023673Y021984D01*
X023827Y021984D01*
X023903Y021907D01*
X024210Y021984D02*
X024210Y021524D01*
X024057Y021524D02*
X024364Y021524D01*
X024517Y021754D02*
X024824Y021754D01*
X024671Y021907D02*
X024671Y021600D01*
X024364Y021830D02*
X024210Y021984D01*
M02*
