G75*
%MOIN*%
%OFA0B0*%
%FSLAX24Y24*%
%IPPOS*%
%LPD*%
%AMOC8*
5,1,8,0,0,1.08239X$1,22.5*
%
%ADD10C,0.0040*%
%ADD11C,0.0050*%
%ADD12C,0.0020*%
%ADD13C,0.0080*%
%ADD14C,0.0118*%
%ADD15C,0.0060*%
%ADD16R,0.0450X0.1990*%
%ADD17C,0.0030*%
%ADD18R,0.0050X0.0500*%
D10*
X008219Y011148D02*
X008219Y011608D01*
X008449Y011608D01*
X008526Y011531D01*
X008526Y011378D01*
X008449Y011301D01*
X008219Y011301D01*
X008373Y011301D02*
X008526Y011148D01*
X008680Y011148D02*
X008987Y011148D01*
X008833Y011148D02*
X008833Y011608D01*
X008680Y011454D01*
X009140Y011454D02*
X009140Y011531D01*
X009217Y011608D01*
X009370Y011608D01*
X009447Y011531D01*
X009447Y011224D01*
X009370Y011148D01*
X009217Y011148D01*
X009140Y011224D01*
X009217Y011378D02*
X009140Y011454D01*
X009217Y011378D02*
X009447Y011378D01*
X009765Y011317D02*
X009765Y010957D01*
X010005Y010957D01*
X010133Y010957D02*
X010374Y010957D01*
X010502Y010957D02*
X010502Y011317D01*
X010682Y011317D01*
X010742Y011257D01*
X010742Y011017D01*
X010682Y010957D01*
X010502Y010957D01*
X010253Y011137D02*
X010133Y011137D01*
X010133Y011317D02*
X010133Y010957D01*
X010133Y011317D02*
X010374Y011317D01*
X010870Y011197D02*
X010990Y011317D01*
X010990Y010957D01*
X010870Y010957D02*
X011110Y010957D01*
X012418Y012447D02*
X012341Y012524D01*
X012341Y012830D01*
X012418Y012907D01*
X012571Y012907D01*
X012648Y012830D01*
X012762Y012734D02*
X012992Y012734D01*
X013069Y012811D01*
X013069Y012964D01*
X012992Y013041D01*
X012762Y013041D01*
X012762Y012581D01*
X012801Y012524D02*
X012878Y012447D01*
X013032Y012447D01*
X013108Y012524D01*
X013108Y012677D01*
X013032Y012754D01*
X012955Y012754D01*
X012801Y012677D01*
X012801Y012907D01*
X013108Y012907D01*
X013222Y012888D02*
X013376Y013041D01*
X013376Y012581D01*
X013529Y012581D02*
X013222Y012581D01*
X013069Y012581D02*
X012915Y012734D01*
X012648Y012524D02*
X012571Y012447D01*
X012418Y012447D01*
X012915Y012041D02*
X012762Y011888D01*
X012915Y012041D02*
X012915Y011581D01*
X012762Y011581D02*
X013069Y011581D01*
X013222Y011657D02*
X013222Y011964D01*
X013299Y012041D01*
X013452Y012041D01*
X013529Y011964D01*
X013222Y011657D01*
X013299Y011581D01*
X013452Y011581D01*
X013529Y011657D01*
X013529Y011964D01*
X013683Y011964D02*
X013759Y012041D01*
X013913Y012041D01*
X013990Y011964D01*
X013683Y011657D01*
X013759Y011581D01*
X013913Y011581D01*
X013990Y011657D01*
X013990Y011964D01*
X014143Y012041D02*
X014143Y011581D01*
X014143Y011734D02*
X014373Y011888D01*
X014143Y011734D02*
X014373Y011581D01*
X013683Y011657D02*
X013683Y011964D01*
X013759Y012581D02*
X013683Y012657D01*
X013759Y012581D02*
X013913Y012581D01*
X013990Y012657D01*
X013990Y012734D01*
X013913Y012811D01*
X013836Y012811D01*
X013913Y012811D02*
X013990Y012888D01*
X013990Y012964D01*
X013913Y013041D01*
X013759Y013041D01*
X013683Y012964D01*
X013108Y013447D02*
X013108Y013754D01*
X012801Y013754D02*
X012801Y013524D01*
X012878Y013447D01*
X013108Y013447D01*
X012648Y013447D02*
X012341Y013447D01*
X012250Y013543D02*
X012557Y013543D01*
X012494Y013447D02*
X012494Y013907D01*
X012341Y013754D01*
X012480Y013773D02*
X012250Y013543D01*
X012188Y013524D02*
X012188Y013447D01*
X012111Y013447D01*
X012111Y013524D01*
X012188Y013524D01*
X012097Y013313D02*
X011790Y013313D01*
X011834Y013235D02*
X011911Y013311D01*
X011911Y013465D01*
X011834Y013542D01*
X011790Y013620D02*
X011943Y013773D01*
X011943Y013313D01*
X011834Y013235D02*
X011527Y013235D01*
X011450Y013311D01*
X011450Y013465D01*
X011527Y013542D01*
X011560Y013466D02*
X011329Y013466D01*
X011329Y013313D02*
X011329Y013773D01*
X011560Y013773D01*
X011636Y013697D01*
X011636Y013543D01*
X011560Y013466D01*
X011483Y013466D02*
X011636Y013313D01*
X011727Y013447D02*
X011650Y013524D01*
X011957Y013830D01*
X011957Y013524D01*
X011881Y013447D01*
X011727Y013447D01*
X011650Y013524D02*
X011650Y013830D01*
X011727Y013907D01*
X011881Y013907D01*
X011957Y013830D01*
X011911Y013772D02*
X011911Y013925D01*
X011834Y014002D01*
X011757Y014002D01*
X011681Y013925D01*
X011681Y013695D01*
X011834Y013695D01*
X011911Y013772D01*
X011681Y013695D02*
X011527Y013849D01*
X011450Y014002D01*
X011483Y014313D02*
X011636Y014313D01*
X011713Y014390D01*
X011713Y014466D01*
X011636Y014543D01*
X011406Y014543D01*
X011406Y014390D01*
X011483Y014313D01*
X011406Y014543D02*
X011560Y014697D01*
X011713Y014773D01*
X011613Y014830D02*
X011613Y014523D01*
X011613Y014676D02*
X012073Y014676D01*
X012097Y014773D02*
X012173Y014697D01*
X012173Y014620D01*
X012097Y014543D01*
X011943Y014543D01*
X011867Y014620D01*
X011867Y014697D01*
X011943Y014773D01*
X012097Y014773D01*
X012073Y014983D02*
X011613Y014983D01*
X012073Y014983D02*
X012073Y015290D01*
X011997Y015444D02*
X011690Y015751D01*
X011997Y015751D01*
X012073Y015674D01*
X012073Y015521D01*
X011997Y015444D01*
X011690Y015444D01*
X011613Y015521D01*
X011613Y015674D01*
X011690Y015751D01*
X011690Y015904D02*
X011766Y015904D01*
X011843Y015981D01*
X011843Y016134D01*
X011920Y016211D01*
X011997Y016211D01*
X012073Y016134D01*
X012073Y015981D01*
X011997Y015904D01*
X011920Y015904D01*
X011843Y015981D01*
X011843Y016134D02*
X011766Y016211D01*
X011690Y016211D01*
X011613Y016134D01*
X011613Y015981D01*
X011690Y015904D01*
X011843Y016365D02*
X011843Y016671D01*
X012073Y016595D02*
X011613Y016595D01*
X011843Y016365D01*
X011613Y016825D02*
X011613Y017055D01*
X011690Y017132D01*
X011997Y017132D01*
X012073Y017055D01*
X012073Y016825D01*
X011613Y016825D01*
X010468Y018419D02*
X010468Y018726D01*
X010621Y018880D02*
X010315Y019187D01*
X010238Y019187D01*
X010238Y018880D01*
X010238Y018649D02*
X010468Y018419D01*
X010698Y018649D02*
X010238Y018649D01*
X010621Y018880D02*
X010698Y018880D01*
X010698Y019340D02*
X010238Y019340D01*
X010391Y019570D02*
X010545Y019340D01*
X010698Y019570D01*
X009698Y019187D02*
X009698Y018880D01*
X009391Y019187D01*
X009315Y019187D01*
X009238Y019110D01*
X009238Y018956D01*
X009315Y018880D01*
X009315Y018726D02*
X009468Y018726D01*
X009545Y018649D01*
X009545Y018419D01*
X009698Y018419D02*
X009238Y018419D01*
X009238Y018649D01*
X009315Y018726D01*
X009545Y018573D02*
X009698Y018726D01*
X010960Y020686D02*
X010960Y020993D01*
X011114Y021146D02*
X011190Y021146D01*
X011114Y021146D02*
X010807Y021453D01*
X010730Y021453D01*
X010730Y021146D01*
X010730Y020916D02*
X010960Y020686D01*
X011190Y020916D02*
X010730Y020916D01*
X010730Y021606D02*
X011190Y021606D01*
X011037Y021606D02*
X010883Y021837D01*
X011037Y021606D02*
X011190Y021837D01*
X011730Y021683D02*
X012190Y021683D01*
X012190Y021530D02*
X012190Y021837D01*
X011883Y021530D02*
X011730Y021683D01*
X011807Y021376D02*
X011960Y021376D01*
X012037Y021299D01*
X012037Y021069D01*
X012190Y021069D02*
X011730Y021069D01*
X011730Y021299D01*
X011807Y021376D01*
X012037Y021223D02*
X012190Y021376D01*
X013100Y020464D02*
X013253Y020233D01*
X013407Y020464D01*
X013407Y020233D02*
X012946Y020233D01*
X013023Y020080D02*
X013330Y019773D01*
X013407Y019850D01*
X013407Y020003D01*
X013330Y020080D01*
X013023Y020080D01*
X012946Y020003D01*
X012946Y019850D01*
X013023Y019773D01*
X013330Y019773D01*
X013330Y019620D02*
X013023Y019620D01*
X013330Y019313D01*
X013407Y019389D01*
X013407Y019543D01*
X013330Y019620D01*
X013023Y019620D02*
X012946Y019543D01*
X012946Y019389D01*
X013023Y019313D01*
X013330Y019313D01*
X013407Y019159D02*
X013407Y018852D01*
X013407Y019006D02*
X012946Y019006D01*
X013100Y018852D01*
X012407Y018852D02*
X011946Y018852D01*
X011946Y019082D01*
X012023Y019159D01*
X012177Y019159D01*
X012253Y019082D01*
X012253Y018852D01*
X012253Y019006D02*
X012407Y019159D01*
X012330Y019313D02*
X012407Y019389D01*
X012407Y019543D01*
X012330Y019620D01*
X012253Y019620D01*
X012177Y019543D01*
X012177Y019313D01*
X012330Y019313D01*
X012177Y019313D02*
X012023Y019466D01*
X011946Y019620D01*
X013861Y019187D02*
X014015Y019340D01*
X014015Y018880D01*
X014168Y018880D02*
X013861Y018880D01*
X014322Y018957D02*
X014322Y019264D01*
X014398Y019340D01*
X014552Y019340D01*
X014628Y019264D01*
X014322Y018957D01*
X014398Y018880D01*
X014552Y018880D01*
X014628Y018957D01*
X014628Y019264D01*
X014782Y019264D02*
X014859Y019340D01*
X015012Y019340D01*
X015089Y019264D01*
X014782Y018957D01*
X014859Y018880D01*
X015012Y018880D01*
X015089Y018957D01*
X015089Y019264D01*
X015242Y019187D02*
X015473Y019187D01*
X015549Y019110D01*
X015549Y018957D01*
X015473Y018880D01*
X015242Y018880D01*
X015242Y018726D02*
X015242Y019187D01*
X015096Y019561D02*
X015096Y019791D01*
X015173Y019868D01*
X015326Y019868D01*
X015403Y019791D01*
X015403Y019561D01*
X015403Y019714D02*
X015556Y019868D01*
X015556Y020021D02*
X015556Y020328D01*
X015556Y020175D02*
X015096Y020175D01*
X015250Y020021D01*
X015096Y019561D02*
X015556Y019561D01*
X016096Y019638D02*
X016173Y019561D01*
X016096Y019638D02*
X016096Y019791D01*
X016173Y019868D01*
X016250Y019868D01*
X016556Y019561D01*
X016556Y019868D01*
X016507Y019935D02*
X016507Y019704D01*
X016431Y019628D01*
X016354Y019628D01*
X016277Y019704D01*
X016277Y019858D01*
X016354Y019935D01*
X016661Y019935D01*
X016738Y019858D01*
X016738Y019704D01*
X016661Y019628D01*
X016738Y019474D02*
X016584Y019321D01*
X016584Y019397D02*
X016584Y019167D01*
X016738Y019167D02*
X016277Y019167D01*
X016277Y019397D01*
X016354Y019474D01*
X016507Y019474D01*
X016584Y019397D01*
X016847Y018947D02*
X016847Y018486D01*
X016694Y018486D02*
X017001Y018486D01*
X017154Y018563D02*
X017461Y018870D01*
X017461Y018563D01*
X017384Y018486D01*
X017231Y018486D01*
X017154Y018563D01*
X017154Y018870D01*
X017231Y018947D01*
X017384Y018947D01*
X017461Y018870D01*
X017615Y018870D02*
X017615Y018563D01*
X017922Y018870D01*
X017922Y018563D01*
X017845Y018486D01*
X017691Y018486D01*
X017615Y018563D01*
X017880Y018657D02*
X017880Y018350D01*
X018187Y018657D01*
X018187Y018350D01*
X018110Y018274D01*
X017957Y018274D01*
X017880Y018350D01*
X018075Y018486D02*
X018075Y018947D01*
X017922Y018870D02*
X017845Y018947D01*
X017691Y018947D01*
X017615Y018870D01*
X017738Y019167D02*
X017738Y019474D01*
X017643Y019477D02*
X017643Y019784D01*
X017738Y019858D02*
X017738Y019704D01*
X017661Y019628D01*
X017354Y019935D01*
X017661Y019935D01*
X017738Y019858D01*
X017643Y020014D02*
X017566Y019938D01*
X017490Y019938D01*
X017413Y020014D01*
X017413Y020168D01*
X017490Y020245D01*
X017566Y020245D01*
X017643Y020168D01*
X017643Y020014D01*
X017661Y020088D02*
X017354Y020088D01*
X017277Y020165D01*
X017277Y020318D01*
X017354Y020395D01*
X017661Y020088D01*
X017738Y020165D01*
X017738Y020318D01*
X017661Y020395D01*
X017354Y020395D01*
X017259Y020398D02*
X017183Y020475D01*
X017183Y020628D01*
X017259Y020705D01*
X017566Y020398D01*
X017643Y020475D01*
X017643Y020628D01*
X017566Y020705D01*
X017259Y020705D01*
X017354Y020742D02*
X017277Y020819D01*
X017277Y020972D01*
X017354Y021049D01*
X017661Y020742D01*
X017738Y020819D01*
X017738Y020972D01*
X017661Y021049D01*
X017354Y021049D01*
X017336Y021089D02*
X017490Y020858D01*
X017643Y021089D01*
X017661Y021202D02*
X017661Y021279D01*
X017738Y021279D01*
X017738Y021202D01*
X017661Y021202D01*
X017738Y021433D02*
X017738Y021740D01*
X017738Y021586D02*
X017277Y021586D01*
X017431Y021433D01*
X017431Y021893D02*
X017661Y021893D01*
X017738Y021970D01*
X017738Y022200D01*
X017431Y022200D01*
X016738Y021509D02*
X016738Y021202D01*
X016738Y021356D02*
X016277Y021356D01*
X016431Y021202D01*
X016354Y021049D02*
X016277Y020972D01*
X016277Y020819D01*
X016354Y020742D01*
X016661Y020742D01*
X016738Y020819D01*
X016738Y020972D01*
X016661Y021049D01*
X016556Y020942D02*
X016403Y020712D01*
X016250Y020942D01*
X016096Y020712D02*
X016556Y020712D01*
X016556Y020558D02*
X016556Y020252D01*
X016250Y020558D01*
X016173Y020558D01*
X016096Y020482D01*
X016096Y020328D01*
X016173Y020252D01*
X016480Y020098D02*
X016480Y020021D01*
X016556Y020021D01*
X016556Y020098D01*
X016480Y020098D01*
X017183Y020168D02*
X017183Y020014D01*
X017259Y019938D01*
X017336Y019938D01*
X017413Y020014D01*
X017354Y019935D02*
X017277Y019858D01*
X017277Y019704D01*
X017354Y019628D01*
X017661Y019628D01*
X017643Y019631D02*
X017183Y019631D01*
X017336Y019477D01*
X017277Y019321D02*
X017738Y019321D01*
X017431Y019167D02*
X017277Y019321D01*
X016847Y018947D02*
X016694Y018793D01*
X017077Y017947D02*
X017308Y017947D01*
X017384Y017870D01*
X017384Y017716D01*
X017308Y017640D01*
X017077Y017640D01*
X017077Y017486D02*
X017077Y017947D01*
X017231Y017640D02*
X017384Y017486D01*
X017538Y017486D02*
X017845Y017486D01*
X017691Y017486D02*
X017691Y017947D01*
X017538Y017793D01*
X017998Y017870D02*
X017998Y017563D01*
X018305Y017870D01*
X018305Y017563D01*
X018228Y017486D01*
X018075Y017486D01*
X017998Y017563D01*
X017998Y017870D02*
X018075Y017947D01*
X018228Y017947D01*
X018305Y017870D01*
X018340Y018274D02*
X018417Y018274D01*
X018417Y018350D01*
X018340Y018350D01*
X018340Y018274D01*
X018305Y018486D02*
X018075Y018640D01*
X018305Y018793D01*
X018187Y018657D02*
X018110Y018734D01*
X017957Y018734D01*
X017880Y018657D01*
X018570Y018580D02*
X018724Y018734D01*
X018724Y018274D01*
X018877Y018274D02*
X018570Y018274D01*
X019031Y018350D02*
X019031Y018580D01*
X019031Y018350D02*
X019108Y018274D01*
X019338Y018274D01*
X019338Y018580D01*
X019964Y018360D02*
X020117Y018513D01*
X020117Y018053D01*
X019964Y018053D02*
X020270Y018053D01*
X020424Y018130D02*
X020731Y018437D01*
X020731Y018130D01*
X020654Y018053D01*
X020501Y018053D01*
X020424Y018130D01*
X020424Y018437D01*
X020501Y018513D01*
X020654Y018513D01*
X020731Y018437D01*
X020884Y018437D02*
X020961Y018513D01*
X021115Y018513D01*
X021191Y018437D01*
X020884Y018130D01*
X020961Y018053D01*
X021115Y018053D01*
X021191Y018130D01*
X021191Y018437D01*
X021345Y018360D02*
X021575Y018360D01*
X021652Y018283D01*
X021652Y018053D01*
X021345Y018053D02*
X021345Y018360D01*
X020884Y018437D02*
X020884Y018130D01*
X021305Y017726D02*
X021535Y017726D01*
X021612Y017649D01*
X021612Y017496D01*
X021535Y017419D01*
X021305Y017419D01*
X021345Y017437D02*
X021345Y017360D01*
X021421Y017283D01*
X021652Y017283D01*
X021612Y017266D02*
X021459Y017419D01*
X021421Y017513D02*
X021345Y017437D01*
X021421Y017513D02*
X021575Y017513D01*
X021652Y017437D01*
X021652Y017130D01*
X021575Y017053D01*
X021421Y017053D01*
X021345Y017130D01*
X021305Y017266D02*
X021305Y017726D01*
X021115Y017513D02*
X020961Y017513D01*
X020884Y017437D01*
X020884Y017130D01*
X020961Y017053D01*
X021115Y017053D01*
X021191Y017130D01*
X021191Y017437D02*
X021115Y017513D01*
X021765Y017573D02*
X021919Y017726D01*
X021919Y017266D01*
X022072Y017266D02*
X021765Y017266D01*
X022226Y017266D02*
X022533Y017573D01*
X022533Y017649D01*
X022456Y017726D01*
X022303Y017726D01*
X022226Y017649D01*
X022226Y017266D02*
X022533Y017266D01*
X022303Y016726D02*
X021996Y016726D01*
X022303Y016726D02*
X022303Y016649D01*
X021996Y016342D01*
X021996Y016266D01*
X021842Y016266D02*
X021765Y016266D01*
X021765Y016342D01*
X021842Y016342D01*
X021842Y016266D01*
X021535Y016266D02*
X021535Y016726D01*
X021305Y016496D01*
X021612Y016496D01*
X023364Y016254D02*
X023671Y016254D01*
X023825Y016330D02*
X023978Y016484D01*
X023978Y016024D01*
X023825Y016024D02*
X024131Y016024D01*
X024285Y016024D02*
X024592Y016330D01*
X024592Y016407D01*
X024515Y016484D01*
X024362Y016484D01*
X024285Y016407D01*
X024285Y016024D02*
X024592Y016024D01*
X024745Y016177D02*
X024899Y016024D01*
X025052Y016177D01*
X025052Y016484D01*
X024745Y016484D02*
X024745Y016177D01*
X023247Y018274D02*
X022940Y018274D01*
X022864Y018350D01*
X022864Y018504D01*
X022940Y018580D01*
X023094Y018580D02*
X023094Y018427D01*
X023094Y018580D02*
X023247Y018580D01*
X023324Y018504D01*
X023324Y018350D01*
X023247Y018274D01*
X023324Y018734D02*
X022864Y018734D01*
X023324Y019041D01*
X022864Y019041D01*
X022864Y019194D02*
X022864Y019425D01*
X022940Y019501D01*
X023247Y019501D01*
X023324Y019425D01*
X023324Y019194D01*
X022864Y019194D01*
X022993Y019494D02*
X022993Y019724D01*
X022916Y019801D01*
X022686Y019801D01*
X022686Y019494D01*
X022533Y019571D02*
X022533Y019878D01*
X022226Y019571D01*
X022303Y019494D01*
X022456Y019494D01*
X022533Y019571D01*
X022533Y019878D02*
X022456Y019954D01*
X022303Y019954D01*
X022226Y019878D01*
X022226Y019571D01*
X022072Y019571D02*
X021996Y019494D01*
X021842Y019494D01*
X021765Y019571D01*
X022072Y019878D01*
X022072Y019571D01*
X022072Y019878D02*
X021996Y019954D01*
X021842Y019954D01*
X021765Y019878D01*
X021765Y019571D01*
X021612Y019494D02*
X021305Y019494D01*
X021459Y019494D02*
X021459Y019954D01*
X021305Y019801D01*
X021345Y020281D02*
X021652Y020281D01*
X021498Y020281D02*
X021498Y020742D01*
X021345Y020588D01*
X021305Y020571D02*
X021382Y020494D01*
X021535Y020494D01*
X021612Y020571D01*
X021765Y020571D02*
X021765Y020647D01*
X021842Y020724D01*
X021996Y020724D01*
X022072Y020647D01*
X022072Y020571D01*
X021996Y020494D01*
X021842Y020494D01*
X021765Y020571D01*
X021842Y020724D02*
X021765Y020801D01*
X021765Y020878D01*
X021842Y020954D01*
X021996Y020954D01*
X022072Y020878D01*
X022072Y020801D01*
X021996Y020724D01*
X021612Y020878D02*
X021535Y020954D01*
X021382Y020954D01*
X021305Y020878D01*
X021305Y020571D01*
X021038Y020742D02*
X021038Y020281D01*
X021191Y020281D02*
X020884Y020281D01*
X020731Y020281D02*
X020577Y020435D01*
X020654Y020435D02*
X020424Y020435D01*
X020424Y020281D02*
X020424Y020742D01*
X020654Y020742D01*
X020731Y020665D01*
X020731Y020512D01*
X020654Y020435D01*
X020884Y020588D02*
X021038Y020742D01*
X021115Y021281D02*
X021191Y021281D01*
X021191Y021358D01*
X021115Y021358D01*
X021115Y021281D01*
X021345Y021281D02*
X021345Y021358D01*
X021652Y021665D01*
X021652Y021742D01*
X021345Y021742D01*
X020961Y021512D02*
X020654Y021512D01*
X020884Y021742D01*
X020884Y021281D01*
X019041Y019657D02*
X018964Y019734D01*
X018811Y019734D01*
X018734Y019657D01*
X018581Y019657D02*
X018504Y019734D01*
X018350Y019734D01*
X018274Y019657D01*
X018274Y019350D01*
X018350Y019274D01*
X018504Y019274D01*
X018581Y019350D01*
X018734Y019274D02*
X019041Y019580D01*
X019041Y019657D01*
X019041Y019274D02*
X018734Y019274D01*
X018643Y020321D02*
X018183Y020321D01*
X018183Y020551D01*
X018259Y020628D01*
X018413Y020628D01*
X018490Y020551D01*
X018490Y020321D01*
X018490Y020475D02*
X018643Y020628D01*
X018566Y020782D02*
X018490Y020782D01*
X018413Y020858D01*
X018413Y021012D01*
X018490Y021089D01*
X018566Y021089D01*
X018643Y021012D01*
X018643Y020858D01*
X018566Y020782D01*
X018413Y020858D02*
X018336Y020782D01*
X018259Y020782D01*
X018183Y020858D01*
X018183Y021012D01*
X018259Y021089D01*
X018336Y021089D01*
X018413Y021012D01*
X017738Y020779D02*
X017584Y020548D01*
X017431Y020779D01*
X017354Y020742D02*
X017661Y020742D01*
X017643Y020858D02*
X017183Y020858D01*
X017277Y020548D02*
X017738Y020548D01*
X017566Y020398D02*
X017259Y020398D01*
X017259Y020245D02*
X017183Y020168D01*
X017259Y020245D02*
X017336Y020245D01*
X017413Y020168D01*
X015556Y020558D02*
X015480Y020482D01*
X015403Y020482D01*
X015326Y020558D01*
X015326Y020712D01*
X015403Y020789D01*
X015480Y020789D01*
X015556Y020712D01*
X015556Y020558D01*
X015326Y020558D02*
X015250Y020482D01*
X015173Y020482D01*
X015096Y020558D01*
X015096Y020712D01*
X015173Y020789D01*
X015250Y020789D01*
X015326Y020712D01*
X014267Y021076D02*
X014267Y021307D01*
X014190Y021383D01*
X014114Y021383D01*
X014037Y021307D01*
X014037Y021076D01*
X014267Y021076D02*
X013807Y021076D01*
X013807Y021307D01*
X013883Y021383D01*
X013960Y021383D01*
X014037Y021307D01*
X013883Y021537D02*
X014190Y021537D01*
X014267Y021614D01*
X014267Y021767D01*
X014190Y021844D01*
X014190Y021997D02*
X014114Y021997D01*
X014037Y022074D01*
X014037Y022227D01*
X014114Y022304D01*
X014190Y022304D01*
X014267Y022227D01*
X014267Y022074D01*
X014190Y021997D01*
X014037Y022074D02*
X013960Y021997D01*
X013883Y021997D01*
X013807Y022074D01*
X013807Y022227D01*
X013883Y022304D01*
X013960Y022304D01*
X014037Y022227D01*
X014037Y022458D02*
X013807Y022688D01*
X014267Y022688D01*
X014267Y022918D02*
X014190Y022918D01*
X013883Y023225D01*
X013807Y023225D01*
X013807Y022918D01*
X014037Y022764D02*
X014037Y022458D01*
X013883Y021844D02*
X013807Y021767D01*
X013807Y021614D01*
X013883Y021537D01*
X013807Y023378D02*
X013807Y023609D01*
X013883Y023685D01*
X013960Y023685D01*
X014037Y023609D01*
X014037Y023378D01*
X014267Y023378D02*
X014267Y023609D01*
X014190Y023685D01*
X014114Y023685D01*
X014037Y023609D01*
X013960Y023839D02*
X014037Y023915D01*
X014037Y024069D01*
X014114Y024146D01*
X014190Y024146D01*
X014267Y024069D01*
X014267Y023915D01*
X014190Y023839D01*
X013960Y023839D02*
X013883Y023839D01*
X013807Y023915D01*
X013807Y024069D01*
X013883Y024146D01*
X013407Y024171D02*
X013253Y024018D01*
X013253Y024095D02*
X013253Y023865D01*
X013407Y023865D02*
X012946Y023865D01*
X012946Y024095D01*
X013023Y024171D01*
X013177Y024171D01*
X013253Y024095D01*
X013330Y024325D02*
X013407Y024325D01*
X013330Y024325D02*
X013023Y024632D01*
X012946Y024632D01*
X012946Y024325D01*
X012407Y024402D02*
X011946Y024402D01*
X012023Y024248D02*
X012100Y024248D01*
X012177Y024171D01*
X012177Y024018D01*
X012100Y023941D01*
X012023Y023941D01*
X011946Y024018D01*
X011946Y024171D01*
X012023Y024248D01*
X012177Y024171D02*
X012253Y024248D01*
X012330Y024248D01*
X012407Y024171D01*
X012407Y024018D01*
X012330Y023941D01*
X012253Y023941D01*
X012177Y024018D01*
X012330Y023788D02*
X012407Y023788D01*
X012407Y023711D01*
X012330Y023711D01*
X012330Y023788D01*
X012407Y023558D02*
X012407Y023251D01*
X012407Y023404D02*
X011946Y023404D01*
X012100Y023251D01*
X012253Y024402D02*
X012100Y024632D01*
X012253Y024402D02*
X012407Y024632D01*
X013807Y023378D02*
X014267Y023378D01*
X015441Y023455D02*
X015441Y023609D01*
X015517Y023685D01*
X015824Y023685D01*
X015901Y023609D01*
X015901Y023455D01*
X015824Y023378D01*
X015517Y023378D01*
X015441Y023455D01*
X015747Y023532D02*
X015901Y023685D01*
X015901Y023839D02*
X015901Y024146D01*
X015901Y023992D02*
X015441Y023992D01*
X015594Y023839D01*
X014782Y019264D02*
X014782Y018957D01*
X014859Y018340D02*
X014782Y018264D01*
X014782Y017957D01*
X014859Y017880D01*
X015012Y017880D01*
X015089Y017957D01*
X015242Y017957D02*
X015319Y017880D01*
X015473Y017880D01*
X015549Y017957D01*
X015549Y018033D01*
X015473Y018110D01*
X015396Y018110D01*
X015473Y018110D02*
X015549Y018187D01*
X015549Y018264D01*
X015473Y018340D01*
X015319Y018340D01*
X015242Y018264D01*
X015089Y018264D02*
X015012Y018340D01*
X014859Y018340D01*
X015713Y016978D02*
X016173Y016978D01*
X016173Y016825D02*
X016173Y017132D01*
X015866Y016825D02*
X015713Y016978D01*
X015790Y016671D02*
X015713Y016595D01*
X015713Y016441D01*
X015790Y016365D01*
X016097Y016365D01*
X016173Y016441D01*
X016173Y016595D01*
X016097Y016671D01*
X016173Y016211D02*
X016173Y016058D01*
X016173Y016134D02*
X015713Y016134D01*
X015713Y016058D02*
X015713Y016211D01*
X016490Y015824D02*
X016950Y015824D01*
X016797Y015824D02*
X016950Y016054D01*
X016797Y015824D02*
X016643Y016054D01*
X016566Y015671D02*
X016873Y015364D01*
X016950Y015440D01*
X016950Y015594D01*
X016873Y015671D01*
X016566Y015671D01*
X016490Y015594D01*
X016490Y015440D01*
X016566Y015364D01*
X016873Y015364D01*
X016873Y015210D02*
X016566Y015210D01*
X016873Y014903D01*
X016950Y014980D01*
X016950Y015133D01*
X016873Y015210D01*
X016738Y015133D02*
X016277Y015133D01*
X016507Y014903D01*
X016507Y015210D01*
X016566Y015210D02*
X016490Y015133D01*
X016490Y014980D01*
X016566Y014903D01*
X016873Y014903D01*
X016950Y014750D02*
X016950Y014443D01*
X016950Y014596D02*
X016490Y014596D01*
X016643Y014443D01*
X016661Y014489D02*
X016738Y014413D01*
X016738Y014259D01*
X016661Y014183D01*
X016507Y014183D02*
X016431Y014336D01*
X016431Y014413D01*
X016507Y014489D01*
X016661Y014489D01*
X016738Y014443D02*
X016277Y014443D01*
X016277Y014673D01*
X016354Y014750D01*
X016507Y014750D01*
X016584Y014673D01*
X016584Y014443D01*
X016584Y014596D02*
X016738Y014750D01*
X016277Y014489D02*
X016277Y014183D01*
X016507Y014183D01*
X016738Y014029D02*
X016738Y013722D01*
X016738Y013569D02*
X016584Y013415D01*
X016584Y013492D02*
X016584Y013262D01*
X016738Y013262D02*
X016277Y013262D01*
X016277Y013492D01*
X016354Y013569D01*
X016507Y013569D01*
X016584Y013492D01*
X016431Y013722D02*
X016277Y013876D01*
X016738Y013876D01*
X017277Y013799D02*
X017277Y013952D01*
X017354Y014029D01*
X017661Y013722D01*
X017738Y013799D01*
X017738Y013952D01*
X017661Y014029D01*
X017354Y014029D01*
X017354Y014183D02*
X017277Y014259D01*
X017277Y014413D01*
X017354Y014489D01*
X017661Y014183D01*
X017738Y014259D01*
X017738Y014413D01*
X017661Y014489D01*
X017354Y014489D01*
X017354Y014443D02*
X017277Y014520D01*
X017277Y014673D01*
X017354Y014750D01*
X017431Y014750D01*
X017738Y014443D01*
X017738Y014750D01*
X017738Y014643D02*
X017277Y014643D01*
X017277Y014903D02*
X017277Y015210D01*
X017354Y015210D01*
X017661Y014903D01*
X017738Y014903D01*
X017738Y014873D02*
X017584Y014643D01*
X017431Y014873D01*
X017584Y015364D02*
X017431Y015594D01*
X017584Y015364D02*
X017738Y015594D01*
X017738Y015364D02*
X017277Y015364D01*
X017354Y014183D02*
X017661Y014183D01*
X017661Y013722D02*
X017354Y013722D01*
X017277Y013799D01*
X017277Y013415D02*
X017738Y013415D01*
X017738Y013262D02*
X017738Y013569D01*
X017431Y013262D02*
X017277Y013415D01*
X015950Y014443D02*
X015490Y014443D01*
X015490Y014673D01*
X015566Y014750D01*
X015720Y014750D01*
X015797Y014673D01*
X015797Y014443D01*
X015797Y014596D02*
X015950Y014750D01*
X015873Y014903D02*
X015950Y014980D01*
X015950Y015133D01*
X015873Y015210D01*
X015720Y015210D01*
X015643Y015133D01*
X015643Y015057D01*
X015720Y014903D01*
X015490Y014903D01*
X015490Y015210D01*
X012557Y014620D02*
X012327Y014466D01*
X012557Y014313D01*
X012327Y014313D02*
X012327Y014773D01*
X012097Y014543D02*
X012173Y014466D01*
X012173Y014390D01*
X012097Y014313D01*
X011943Y014313D01*
X011867Y014390D01*
X011867Y014466D01*
X011943Y014543D01*
X012480Y013773D02*
X012480Y013313D01*
X010911Y013311D02*
X010834Y013235D01*
X010527Y013542D01*
X010834Y013542D01*
X010911Y013465D01*
X010911Y013311D01*
X010834Y013235D02*
X010527Y013235D01*
X010450Y013311D01*
X010450Y013465D01*
X010527Y013542D01*
X010604Y013695D02*
X010604Y013925D01*
X010681Y014002D01*
X010911Y014002D01*
X010911Y013695D02*
X010604Y013695D01*
X010499Y014325D02*
X010499Y014632D01*
X010653Y014785D02*
X010730Y014785D01*
X010653Y014785D02*
X010346Y015092D01*
X010269Y015092D01*
X010269Y014785D01*
X010269Y014555D02*
X010499Y014325D01*
X010730Y014555D02*
X010269Y014555D01*
X009730Y014632D02*
X009576Y014478D01*
X009576Y014555D02*
X009576Y014325D01*
X009730Y014325D02*
X009269Y014325D01*
X009269Y014555D01*
X009346Y014632D01*
X009499Y014632D01*
X009576Y014555D01*
X009653Y014785D02*
X009730Y014862D01*
X009730Y015015D01*
X009653Y015092D01*
X009576Y015092D01*
X009499Y015015D01*
X009499Y014939D01*
X009499Y015015D02*
X009423Y015092D01*
X009346Y015092D01*
X009269Y015015D01*
X009269Y014862D01*
X009346Y014785D01*
X010269Y015246D02*
X010730Y015246D01*
X010576Y015246D02*
X010423Y015476D01*
X010576Y015246D02*
X010730Y015476D01*
X010911Y013081D02*
X010911Y012774D01*
X010911Y012928D02*
X010450Y012928D01*
X010604Y012774D01*
X009447Y012454D02*
X009217Y012301D01*
X009447Y012148D01*
X009217Y012148D02*
X009217Y012608D01*
X009063Y012608D02*
X009063Y012531D01*
X008756Y012224D01*
X008756Y012148D01*
X008603Y012148D02*
X008526Y012148D01*
X008526Y012224D01*
X008603Y012224D01*
X008603Y012148D01*
X008296Y012148D02*
X008296Y012608D01*
X008066Y012378D01*
X008373Y012378D01*
X008756Y012608D02*
X009063Y012608D01*
X023364Y021754D02*
X023671Y021754D01*
X023825Y021830D02*
X023978Y021984D01*
X023978Y021524D01*
X023825Y021524D02*
X024131Y021524D01*
X024285Y021524D02*
X024592Y021830D01*
X024592Y021907D01*
X024515Y021984D01*
X024362Y021984D01*
X024285Y021907D01*
X024745Y021984D02*
X024745Y021677D01*
X024899Y021524D01*
X025052Y021677D01*
X025052Y021984D01*
X024592Y021524D02*
X024285Y021524D01*
X023518Y021600D02*
X023518Y021907D01*
D11*
X008245Y009588D02*
X008320Y009463D01*
X008445Y009463D02*
X008370Y009588D01*
X008245Y009588D01*
X008370Y009588D02*
X008495Y009588D01*
X008570Y009463D01*
X008370Y009588D02*
X008370Y009913D01*
X008720Y009913D01*
X008720Y010613D01*
X008020Y010613D01*
X008020Y009913D01*
X008370Y009913D01*
X007870Y009763D02*
X010870Y009763D01*
X010870Y010763D01*
X007870Y010763D01*
X007870Y009763D01*
X009630Y010263D02*
X009870Y010263D01*
X009780Y010333D01*
X009780Y010403D01*
X009920Y010263D01*
X009870Y010263D01*
X009780Y010183D01*
X009780Y010333D01*
X009780Y010183D02*
X009780Y010123D01*
X009920Y010263D01*
X009958Y010263D02*
X009960Y010303D01*
X009966Y010343D01*
X009976Y010383D01*
X009989Y010421D01*
X010007Y010457D01*
X010027Y010492D01*
X010052Y010524D01*
X010079Y010554D01*
X010109Y010581D01*
X010141Y010606D01*
X010176Y010626D01*
X010212Y010644D01*
X010250Y010657D01*
X010290Y010667D01*
X010330Y010673D01*
X010370Y010675D01*
X010410Y010673D01*
X010450Y010667D01*
X010490Y010657D01*
X010528Y010644D01*
X010564Y010626D01*
X010599Y010606D01*
X010631Y010581D01*
X010661Y010554D01*
X010688Y010524D01*
X010713Y010492D01*
X010733Y010457D01*
X010751Y010421D01*
X010764Y010383D01*
X010774Y010343D01*
X010780Y010303D01*
X010782Y010263D01*
X010780Y010223D01*
X010774Y010183D01*
X010764Y010143D01*
X010751Y010105D01*
X010733Y010069D01*
X010713Y010034D01*
X010688Y010002D01*
X010661Y009972D01*
X010631Y009945D01*
X010599Y009920D01*
X010564Y009900D01*
X010528Y009882D01*
X010490Y009869D01*
X010450Y009859D01*
X010410Y009853D01*
X010370Y009851D01*
X010330Y009853D01*
X010290Y009859D01*
X010250Y009869D01*
X010212Y009882D01*
X010176Y009900D01*
X010141Y009920D01*
X010109Y009945D01*
X010079Y009972D01*
X010052Y010002D01*
X010027Y010034D01*
X010007Y010069D01*
X009989Y010105D01*
X009976Y010143D01*
X009966Y010183D01*
X009960Y010223D01*
X009958Y010263D01*
X015147Y018437D02*
X015072Y018513D01*
X015072Y018663D01*
X015147Y018738D01*
X015222Y018738D01*
X015522Y018437D01*
X015522Y018738D01*
X015522Y018898D02*
X015072Y018898D01*
X015522Y019198D01*
X015072Y019198D01*
X015147Y019358D02*
X015072Y019433D01*
X015072Y019583D01*
X015147Y019658D01*
X015222Y019658D01*
X015297Y019583D01*
X015372Y019658D01*
X015447Y019658D01*
X015522Y019583D01*
X015522Y019433D01*
X015447Y019358D01*
X015297Y019508D02*
X015297Y019583D01*
X015222Y019819D02*
X015297Y019894D01*
X015297Y020119D01*
X015447Y020119D02*
X015147Y020119D01*
X015072Y020044D01*
X015072Y019894D01*
X015147Y019819D01*
X015222Y019819D01*
X015447Y019819D02*
X015522Y019894D01*
X015522Y020044D01*
X015447Y020119D01*
X015447Y020279D02*
X015147Y020579D01*
X015447Y020579D01*
X015522Y020504D01*
X015522Y020354D01*
X015447Y020279D01*
X015147Y020279D01*
X015072Y020354D01*
X015072Y020504D01*
X015147Y020579D01*
X015297Y020739D02*
X015297Y021040D01*
X015522Y020965D02*
X015072Y020965D01*
X015297Y020739D01*
X015822Y020814D02*
X015897Y020739D01*
X015822Y020814D02*
X015822Y020965D01*
X015897Y021040D01*
X015972Y021040D01*
X016272Y020739D01*
X016272Y021040D01*
X016272Y020429D02*
X015822Y020429D01*
X015822Y020279D02*
X015822Y020579D01*
X015447Y021380D02*
X015447Y021538D01*
X014897Y021600D02*
X014897Y023249D01*
X014815Y023249D02*
X014815Y021600D01*
X014265Y021538D02*
X014265Y021380D01*
X014265Y022312D02*
X014265Y022538D01*
X014815Y021600D02*
X014767Y021565D01*
X014717Y021532D01*
X014665Y021501D01*
X014611Y021474D01*
X014556Y021450D01*
X014499Y021430D01*
X014442Y021412D01*
X014384Y021398D01*
X014325Y021387D01*
X014265Y021380D01*
X014203Y021376D01*
X014140Y021375D01*
X014078Y021379D01*
X014016Y021386D01*
X013955Y021396D01*
X013894Y021411D01*
X013834Y021429D01*
X013775Y021450D01*
X013718Y021475D01*
X013663Y021503D01*
X013609Y021534D01*
X013557Y021569D01*
X013507Y021607D01*
X013460Y021647D01*
X013415Y021691D01*
X013372Y021736D01*
X013333Y021785D01*
X013296Y021835D01*
X013263Y021888D01*
X013232Y021942D01*
X013205Y021999D01*
X013182Y022056D01*
X013162Y022115D01*
X013162Y022735D02*
X013182Y022795D01*
X013206Y022854D01*
X013234Y022911D01*
X013265Y022966D01*
X013300Y023020D01*
X013337Y023071D01*
X013378Y023120D01*
X013422Y023166D01*
X013468Y023210D01*
X013517Y023251D01*
X013568Y023289D01*
X013621Y023323D01*
X013677Y023355D01*
X013734Y023382D01*
X013793Y023407D01*
X013853Y023427D01*
X013914Y023445D01*
X013976Y023458D01*
X014039Y023467D01*
X014102Y023473D01*
X014166Y023475D01*
X014230Y023473D01*
X014293Y023467D01*
X014356Y023458D01*
X014418Y023444D01*
X014479Y023427D01*
X014539Y023406D01*
X014598Y023382D01*
X014655Y023354D01*
X014711Y023322D01*
X014764Y023287D01*
X014815Y023250D01*
X014640Y023700D02*
X014340Y024000D01*
X014265Y024000D01*
X014190Y023925D01*
X014190Y023775D01*
X014265Y023700D01*
X014265Y023470D02*
X014265Y023312D01*
X014640Y023700D02*
X014640Y024000D01*
X014640Y024160D02*
X014190Y024160D01*
X014640Y024460D01*
X014190Y024460D01*
X014265Y024621D02*
X014190Y024696D01*
X014190Y024846D01*
X014265Y024921D01*
X014340Y024921D01*
X014415Y024846D01*
X014490Y024921D01*
X014565Y024921D01*
X014640Y024846D01*
X014640Y024696D01*
X014565Y024621D01*
X014415Y024771D02*
X014415Y024846D01*
X014340Y025081D02*
X014415Y025156D01*
X014415Y025381D01*
X014565Y025381D02*
X014265Y025381D01*
X014190Y025306D01*
X014190Y025156D01*
X014265Y025081D01*
X014340Y025081D01*
X014565Y025081D02*
X014640Y025156D01*
X014640Y025306D01*
X014565Y025381D01*
X014565Y025541D02*
X014265Y025842D01*
X014565Y025842D01*
X014640Y025767D01*
X014640Y025616D01*
X014565Y025541D01*
X014265Y025541D01*
X014190Y025616D01*
X014190Y025767D01*
X014265Y025842D01*
X014415Y026002D02*
X014415Y026302D01*
X014640Y026227D02*
X014190Y026227D01*
X014415Y026002D01*
X013890Y024460D02*
X013890Y024160D01*
X013890Y024310D02*
X013440Y024310D01*
X013590Y024160D01*
X013440Y024000D02*
X013440Y023700D01*
X013440Y023850D02*
X013890Y023850D01*
X015447Y023470D02*
X015447Y023312D01*
X015447Y022538D02*
X015447Y022312D01*
X014897Y023250D02*
X014945Y023285D01*
X014995Y023318D01*
X015047Y023349D01*
X015101Y023376D01*
X015156Y023400D01*
X015213Y023420D01*
X015270Y023438D01*
X015328Y023452D01*
X015387Y023463D01*
X015447Y023470D01*
X015509Y023474D01*
X015572Y023475D01*
X015634Y023471D01*
X015696Y023464D01*
X015757Y023454D01*
X015818Y023439D01*
X015878Y023421D01*
X015937Y023400D01*
X015994Y023375D01*
X016049Y023347D01*
X016103Y023316D01*
X016155Y023281D01*
X016205Y023243D01*
X016252Y023203D01*
X016297Y023159D01*
X016340Y023114D01*
X016379Y023065D01*
X016416Y023015D01*
X016449Y022962D01*
X016480Y022908D01*
X016507Y022851D01*
X016530Y022794D01*
X016550Y022735D01*
X016550Y022115D02*
X016530Y022055D01*
X016506Y021996D01*
X016478Y021939D01*
X016447Y021884D01*
X016412Y021830D01*
X016375Y021779D01*
X016334Y021730D01*
X016290Y021684D01*
X016244Y021640D01*
X016195Y021599D01*
X016144Y021561D01*
X016091Y021527D01*
X016035Y021495D01*
X015978Y021468D01*
X015919Y021443D01*
X015859Y021423D01*
X015798Y021405D01*
X015736Y021392D01*
X015673Y021383D01*
X015610Y021377D01*
X015546Y021375D01*
X015482Y021377D01*
X015419Y021383D01*
X015356Y021392D01*
X015294Y021406D01*
X015233Y021423D01*
X015173Y021444D01*
X015114Y021468D01*
X015057Y021496D01*
X015001Y021528D01*
X014948Y021563D01*
X014897Y021600D01*
X011745Y019506D02*
X010145Y019506D01*
X010108Y019558D01*
X010075Y019611D01*
X010045Y019667D01*
X010018Y019724D01*
X009995Y019783D01*
X009976Y019843D01*
X009960Y019904D01*
X009949Y019966D01*
X009941Y020029D01*
X009937Y020092D01*
X009938Y020155D01*
X009942Y020218D01*
X009950Y020281D01*
X009962Y020343D01*
X009978Y020404D01*
X009998Y020464D01*
X010021Y020523D01*
X010048Y020580D01*
X010079Y020635D01*
X010113Y020688D01*
X010150Y020740D01*
X010190Y020788D01*
X010234Y020834D01*
X010280Y020877D01*
X010328Y020917D01*
X010380Y020954D01*
X010433Y020988D01*
X010488Y021019D01*
X010546Y021045D01*
X010604Y021069D01*
X010664Y021088D01*
X010726Y021104D01*
X010788Y021116D01*
X010850Y021124D01*
X010913Y021128D01*
X010977Y021128D01*
X011040Y021124D01*
X011102Y021116D01*
X011164Y021104D01*
X011226Y021088D01*
X011286Y021069D01*
X011344Y021045D01*
X011402Y021019D01*
X011457Y020988D01*
X011510Y020954D01*
X011562Y020917D01*
X011610Y020877D01*
X011656Y020834D01*
X011700Y020788D01*
X011740Y020740D01*
X011777Y020688D01*
X011811Y020635D01*
X011842Y020580D01*
X011869Y020523D01*
X011892Y020464D01*
X011912Y020404D01*
X011928Y020343D01*
X011940Y020281D01*
X011948Y020218D01*
X011952Y020155D01*
X011953Y020092D01*
X011949Y020029D01*
X011941Y019966D01*
X011930Y019904D01*
X011914Y019843D01*
X011895Y019783D01*
X011872Y019724D01*
X011845Y019667D01*
X011815Y019611D01*
X011782Y019558D01*
X011745Y019506D01*
X010882Y021657D02*
X010882Y022657D01*
X007882Y022657D01*
X007882Y021657D01*
X010882Y021657D01*
X009970Y022157D02*
X009972Y022197D01*
X009978Y022237D01*
X009988Y022277D01*
X010001Y022315D01*
X010019Y022351D01*
X010039Y022386D01*
X010064Y022418D01*
X010091Y022448D01*
X010121Y022475D01*
X010153Y022500D01*
X010188Y022520D01*
X010224Y022538D01*
X010262Y022551D01*
X010302Y022561D01*
X010342Y022567D01*
X010382Y022569D01*
X010422Y022567D01*
X010462Y022561D01*
X010502Y022551D01*
X010540Y022538D01*
X010576Y022520D01*
X010611Y022500D01*
X010643Y022475D01*
X010673Y022448D01*
X010700Y022418D01*
X010725Y022386D01*
X010745Y022351D01*
X010763Y022315D01*
X010776Y022277D01*
X010786Y022237D01*
X010792Y022197D01*
X010794Y022157D01*
X010792Y022117D01*
X010786Y022077D01*
X010776Y022037D01*
X010763Y021999D01*
X010745Y021963D01*
X010725Y021928D01*
X010700Y021896D01*
X010673Y021866D01*
X010643Y021839D01*
X010611Y021814D01*
X010576Y021794D01*
X010540Y021776D01*
X010502Y021763D01*
X010462Y021753D01*
X010422Y021747D01*
X010382Y021745D01*
X010342Y021747D01*
X010302Y021753D01*
X010262Y021763D01*
X010224Y021776D01*
X010188Y021794D01*
X010153Y021814D01*
X010121Y021839D01*
X010091Y021866D01*
X010064Y021896D01*
X010039Y021928D01*
X010019Y021963D01*
X010001Y021999D01*
X009988Y022037D01*
X009978Y022077D01*
X009972Y022117D01*
X009970Y022157D01*
X009932Y022157D02*
X009792Y022297D01*
X009792Y022227D01*
X009882Y022157D01*
X009792Y022077D01*
X009792Y022227D01*
X009882Y022157D02*
X009642Y022157D01*
X009792Y022077D02*
X009792Y022017D01*
X009932Y022157D01*
X009882Y022157D01*
X008732Y021807D02*
X008732Y022507D01*
X008032Y022507D01*
X008032Y021807D01*
X008382Y021807D01*
X008382Y021482D01*
X008457Y021357D01*
X008582Y021357D02*
X008507Y021482D01*
X008382Y021482D01*
X008257Y021482D01*
X008332Y021357D01*
X008382Y021807D02*
X008732Y021807D01*
X020507Y023617D02*
X020657Y023467D01*
X020507Y023617D02*
X020957Y023617D01*
X020957Y023467D02*
X020957Y023768D01*
X020882Y023928D02*
X020582Y024228D01*
X020882Y024228D01*
X020957Y024153D01*
X020957Y024003D01*
X020882Y023928D01*
X020582Y023928D01*
X020507Y024003D01*
X020507Y024153D01*
X020582Y024228D01*
X020582Y024388D02*
X020507Y024463D01*
X020507Y024613D01*
X020582Y024688D01*
X020882Y024388D01*
X020957Y024463D01*
X020957Y024613D01*
X020882Y024688D01*
X020582Y024688D01*
X020657Y024848D02*
X020882Y024848D01*
X020957Y024924D01*
X020957Y025149D01*
X020657Y025149D01*
X020582Y024388D02*
X020882Y024388D01*
X022557Y024455D02*
X022557Y024755D01*
X022632Y024755D01*
X022932Y024455D01*
X023007Y024455D01*
X022932Y024295D02*
X023007Y024220D01*
X023007Y024069D01*
X022932Y023994D01*
X022632Y023994D01*
X022557Y024069D01*
X022557Y024220D01*
X022632Y024295D01*
X023291Y024241D02*
X023366Y024166D01*
X023667Y024166D01*
X023742Y024241D01*
X023742Y024391D01*
X023667Y024466D01*
X023516Y024626D02*
X023516Y024926D01*
X023291Y024851D02*
X023516Y024626D01*
X023366Y024466D02*
X023291Y024391D01*
X023291Y024241D01*
X023291Y024851D02*
X023742Y024851D01*
X025341Y024918D02*
X025341Y024768D01*
X025416Y024693D01*
X025717Y024693D01*
X025416Y024993D01*
X025717Y024993D01*
X025792Y024918D01*
X025792Y024768D01*
X025717Y024693D01*
X025717Y024532D02*
X025416Y024532D01*
X025717Y024232D01*
X025792Y024307D01*
X025792Y024457D01*
X025717Y024532D01*
X025717Y024232D02*
X025416Y024232D01*
X025341Y024307D01*
X025341Y024457D01*
X025416Y024532D01*
X025792Y024072D02*
X025792Y023772D01*
X025792Y023922D02*
X025341Y023922D01*
X025491Y023772D01*
X025813Y022910D02*
X022375Y022910D01*
X022375Y015097D01*
X025813Y015097D01*
X025813Y022910D01*
X025594Y022754D02*
X022594Y022754D01*
X022594Y015254D01*
X025594Y015254D01*
X025594Y018004D01*
X025594Y020004D01*
X025594Y022754D01*
X025341Y024918D02*
X025416Y024993D01*
X025491Y025153D02*
X025717Y025153D01*
X025792Y025228D01*
X025792Y025453D01*
X025491Y025453D01*
X025594Y020004D02*
X025344Y020004D01*
X025344Y019754D01*
X025804Y019754D01*
X025804Y020004D02*
X025594Y020004D01*
X025344Y019754D02*
X025344Y019504D01*
X025804Y019504D01*
X025804Y019254D02*
X025344Y019254D01*
X025344Y019504D01*
X025344Y019254D02*
X025344Y019004D01*
X025804Y019004D01*
X025804Y018754D02*
X025344Y018754D01*
X025344Y019004D01*
X025344Y018754D02*
X025344Y018504D01*
X025804Y018504D01*
X025804Y018254D02*
X025344Y018254D01*
X025344Y018504D01*
X025344Y018254D02*
X025344Y018004D01*
X025594Y018004D01*
X025804Y018004D01*
X026231Y014675D02*
X026156Y014600D01*
X026156Y014450D01*
X026231Y014375D01*
X026231Y014215D02*
X026381Y014215D01*
X026456Y014140D01*
X026456Y013915D01*
X026607Y013915D02*
X026156Y013915D01*
X026156Y014140D01*
X026231Y014215D01*
X026607Y014375D02*
X026306Y014675D01*
X026231Y014675D01*
X026607Y014675D02*
X026607Y014375D01*
X026531Y013680D02*
X026156Y013680D01*
X026156Y013605D02*
X026156Y013755D01*
X026531Y013680D02*
X026607Y013605D01*
X026607Y013530D01*
X026531Y013454D01*
D12*
X011394Y016302D02*
X011394Y016449D01*
X011394Y016375D02*
X011174Y016375D01*
X011247Y016302D01*
X011210Y016523D02*
X011174Y016560D01*
X011174Y016633D01*
X011210Y016670D01*
X011357Y016523D01*
X011394Y016560D01*
X011394Y016633D01*
X011357Y016670D01*
X011210Y016670D01*
X011210Y016744D02*
X011174Y016781D01*
X011174Y016854D01*
X011210Y016891D01*
X011357Y016744D01*
X011394Y016781D01*
X011394Y016854D01*
X011357Y016891D01*
X011210Y016891D01*
X011174Y016965D02*
X011394Y016965D01*
X011321Y016965D02*
X011247Y017075D01*
X011321Y016965D02*
X011394Y017075D01*
X011094Y017002D02*
X010874Y017002D01*
X010874Y017148D01*
X010874Y017223D02*
X010874Y017333D01*
X010910Y017369D01*
X010984Y017369D01*
X011021Y017333D01*
X011021Y017223D01*
X011094Y017223D02*
X010874Y017223D01*
X011021Y017296D02*
X011094Y017369D01*
X011094Y017444D02*
X011094Y017590D01*
X011137Y017554D02*
X011174Y017554D01*
X011247Y017554D02*
X011394Y017554D01*
X011394Y017517D02*
X011394Y017591D01*
X011394Y017665D02*
X011247Y017665D01*
X011247Y017775D01*
X011284Y017811D01*
X011394Y017811D01*
X011247Y017554D02*
X011247Y017517D01*
X011174Y017407D02*
X011394Y017407D01*
X011394Y017443D02*
X011394Y017370D01*
X011174Y017370D02*
X011174Y017407D01*
X011094Y017444D02*
X010874Y017444D01*
X010874Y017590D01*
X010910Y017665D02*
X010874Y017701D01*
X010874Y017775D01*
X010910Y017811D01*
X011057Y017811D01*
X011094Y017775D01*
X011094Y017701D01*
X011057Y017665D01*
X010910Y017665D01*
X011021Y017738D02*
X011094Y017811D01*
X010984Y017517D02*
X010984Y017444D01*
X010984Y017075D02*
X010984Y017002D01*
X011210Y016744D02*
X011357Y016744D01*
X011357Y016523D02*
X011210Y016523D01*
X010149Y011064D02*
X010149Y010843D01*
X010076Y010843D02*
X010222Y010843D01*
X010076Y010990D02*
X010149Y011064D01*
X010001Y011064D02*
X009855Y011064D01*
X009855Y010843D01*
X010001Y010843D01*
X009928Y010953D02*
X009855Y010953D01*
X009780Y010953D02*
X009744Y010917D01*
X009634Y010917D01*
X009707Y010917D02*
X009780Y010843D01*
X009780Y010953D02*
X009780Y011027D01*
X009744Y011064D01*
X009634Y011064D01*
X009634Y010843D01*
X009560Y010843D02*
X009560Y010990D01*
X009486Y011064D01*
X009413Y010990D01*
X009413Y010843D01*
X009339Y010880D02*
X009339Y011064D01*
X009413Y010953D02*
X009560Y010953D01*
X009339Y010880D02*
X009302Y010843D01*
X009228Y010843D01*
X009192Y010880D01*
X009192Y011064D01*
X009118Y011027D02*
X009118Y010880D01*
X009081Y010843D01*
X009007Y010843D01*
X008971Y010880D01*
X008971Y011027D01*
X009007Y011064D01*
X009081Y011064D01*
X009118Y011027D01*
X009044Y010917D02*
X009118Y010843D01*
X008897Y010880D02*
X008860Y010843D01*
X008786Y010843D01*
X008750Y010880D01*
X008786Y010953D02*
X008860Y010953D01*
X008897Y010917D01*
X008897Y010880D01*
X008786Y010953D02*
X008750Y010990D01*
X008750Y011027D01*
X008786Y011064D01*
X008860Y011064D01*
X008897Y011027D01*
X008872Y022737D02*
X008908Y022774D01*
X008872Y022737D02*
X008798Y022737D01*
X008762Y022774D01*
X008762Y022921D01*
X008798Y022957D01*
X008872Y022957D01*
X008908Y022921D01*
X008983Y022957D02*
X008983Y022810D01*
X009056Y022737D01*
X009129Y022810D01*
X009129Y022957D01*
D13*
X014634Y023452D02*
X015067Y023452D01*
X015067Y024240D02*
X014634Y024240D01*
D14*
X014752Y024122D03*
D15*
X010784Y017876D02*
X010534Y017876D01*
X010784Y017876D02*
X010784Y015376D01*
X010534Y015376D01*
X009434Y015376D02*
X009114Y015376D01*
X009114Y017876D01*
X009434Y017876D01*
X009434Y017726D02*
X009434Y017126D01*
X009284Y017126D01*
X009234Y017176D01*
X009634Y017176D01*
X009584Y017126D01*
X009434Y017126D01*
X009434Y016976D01*
X009484Y017026D01*
X009534Y017076D01*
X009584Y017126D01*
X009534Y017076D02*
X009334Y017076D01*
X009384Y017026D01*
X009484Y017026D01*
X009434Y016976D02*
X009384Y017026D01*
X009334Y017076D02*
X009284Y017126D01*
X010208Y012417D02*
X010208Y012267D01*
X010208Y012417D02*
X010708Y012417D01*
X011208Y012417D01*
X011208Y012267D01*
X011098Y012229D02*
X011072Y012260D01*
X011043Y012289D01*
X011011Y012315D01*
X010978Y012338D01*
X010943Y012358D01*
X010906Y012376D01*
X010868Y012391D01*
X010829Y012402D01*
X010789Y012410D01*
X010749Y012415D01*
X010708Y012417D01*
X010708Y012117D02*
X010682Y012115D01*
X010656Y012110D01*
X010631Y012102D01*
X010608Y012090D01*
X010586Y012076D01*
X010567Y012058D01*
X010549Y012039D01*
X010535Y012017D01*
X010523Y011994D01*
X010515Y011969D01*
X010510Y011943D01*
X010508Y011917D01*
X010318Y012229D02*
X010344Y012260D01*
X010373Y012289D01*
X010405Y012315D01*
X010438Y012338D01*
X010473Y012358D01*
X010510Y012376D01*
X010548Y012391D01*
X010587Y012402D01*
X010627Y012410D01*
X010667Y012415D01*
X010708Y012417D01*
X011098Y011605D02*
X011072Y011574D01*
X011043Y011545D01*
X011011Y011519D01*
X010978Y011496D01*
X010943Y011476D01*
X010906Y011458D01*
X010868Y011443D01*
X010829Y011432D01*
X010789Y011424D01*
X010749Y011419D01*
X010708Y011417D01*
X011208Y011417D01*
X011208Y011567D01*
X010708Y011417D02*
X010208Y011417D01*
X010208Y011567D01*
X010318Y011605D02*
X010344Y011574D01*
X010373Y011545D01*
X010405Y011519D01*
X010438Y011496D01*
X010473Y011476D01*
X010510Y011458D01*
X010548Y011443D01*
X010587Y011432D01*
X010627Y011424D01*
X010667Y011419D01*
X010708Y011417D01*
X023882Y011561D02*
X023882Y011061D01*
X024132Y010811D01*
X023882Y010561D01*
X023882Y010061D01*
X024132Y009811D01*
X025632Y009811D01*
X025882Y010061D01*
X025882Y010561D01*
X025632Y010811D01*
X024132Y010811D01*
X023882Y011561D02*
X024132Y011811D01*
X025632Y011811D01*
X025882Y011561D01*
X025882Y011061D01*
X025632Y010811D01*
X025632Y011811D02*
X025882Y012061D01*
X025882Y012561D01*
X025632Y012811D01*
X024132Y012811D01*
X023882Y012561D01*
X023882Y012061D01*
X024132Y011811D01*
X024132Y012811D02*
X023882Y013061D01*
X023882Y013561D01*
X024132Y013811D01*
X025632Y013811D01*
X025882Y013561D01*
X025882Y013061D01*
X025632Y012811D01*
X025632Y013811D02*
X025882Y014061D01*
X025882Y014561D01*
X025632Y014811D01*
X024132Y014811D01*
X023882Y014561D01*
X023882Y014061D01*
X024132Y013811D01*
X024567Y023315D02*
X024567Y023615D01*
X024717Y023465D02*
X024417Y023465D01*
X023217Y024515D02*
X023219Y024588D01*
X023225Y024661D01*
X023235Y024733D01*
X023249Y024805D01*
X023266Y024876D01*
X023288Y024946D01*
X023313Y025015D01*
X023342Y025082D01*
X023374Y025147D01*
X023410Y025211D01*
X023450Y025273D01*
X023492Y025332D01*
X023538Y025389D01*
X023587Y025443D01*
X023639Y025495D01*
X023693Y025544D01*
X023750Y025590D01*
X023809Y025632D01*
X023871Y025672D01*
X023935Y025708D01*
X024000Y025740D01*
X024067Y025769D01*
X024136Y025794D01*
X024206Y025816D01*
X024277Y025833D01*
X024349Y025847D01*
X024421Y025857D01*
X024494Y025863D01*
X024567Y025865D01*
X024640Y025863D01*
X024713Y025857D01*
X024785Y025847D01*
X024857Y025833D01*
X024928Y025816D01*
X024998Y025794D01*
X025067Y025769D01*
X025134Y025740D01*
X025199Y025708D01*
X025263Y025672D01*
X025325Y025632D01*
X025384Y025590D01*
X025441Y025544D01*
X025495Y025495D01*
X025547Y025443D01*
X025596Y025389D01*
X025642Y025332D01*
X025684Y025273D01*
X025724Y025211D01*
X025760Y025147D01*
X025792Y025082D01*
X025821Y025015D01*
X025846Y024946D01*
X025868Y024876D01*
X025885Y024805D01*
X025899Y024733D01*
X025909Y024661D01*
X025915Y024588D01*
X025917Y024515D01*
X025915Y024442D01*
X025909Y024369D01*
X025899Y024297D01*
X025885Y024225D01*
X025868Y024154D01*
X025846Y024084D01*
X025821Y024015D01*
X025792Y023948D01*
X025760Y023883D01*
X025724Y023819D01*
X025684Y023757D01*
X025642Y023698D01*
X025596Y023641D01*
X025547Y023587D01*
X025495Y023535D01*
X025441Y023486D01*
X025384Y023440D01*
X025325Y023398D01*
X025263Y023358D01*
X025199Y023322D01*
X025134Y023290D01*
X025067Y023261D01*
X024998Y023236D01*
X024928Y023214D01*
X024857Y023197D01*
X024785Y023183D01*
X024713Y023173D01*
X024640Y023167D01*
X024567Y023165D01*
X024494Y023167D01*
X024421Y023173D01*
X024349Y023183D01*
X024277Y023197D01*
X024206Y023214D01*
X024136Y023236D01*
X024067Y023261D01*
X024000Y023290D01*
X023935Y023322D01*
X023871Y023358D01*
X023809Y023398D01*
X023750Y023440D01*
X023693Y023486D01*
X023639Y023535D01*
X023587Y023587D01*
X023538Y023641D01*
X023492Y023698D01*
X023450Y023757D01*
X023410Y023819D01*
X023374Y023883D01*
X023342Y023948D01*
X023313Y024015D01*
X023288Y024084D01*
X023266Y024154D01*
X023249Y024225D01*
X023235Y024297D01*
X023225Y024369D01*
X023219Y024442D01*
X023217Y024515D01*
X021882Y025565D02*
X021582Y025565D01*
X021732Y025715D02*
X021732Y025415D01*
X020382Y024515D02*
X020384Y024588D01*
X020390Y024661D01*
X020400Y024733D01*
X020414Y024805D01*
X020431Y024876D01*
X020453Y024946D01*
X020478Y025015D01*
X020507Y025082D01*
X020539Y025147D01*
X020575Y025211D01*
X020615Y025273D01*
X020657Y025332D01*
X020703Y025389D01*
X020752Y025443D01*
X020804Y025495D01*
X020858Y025544D01*
X020915Y025590D01*
X020974Y025632D01*
X021036Y025672D01*
X021100Y025708D01*
X021165Y025740D01*
X021232Y025769D01*
X021301Y025794D01*
X021371Y025816D01*
X021442Y025833D01*
X021514Y025847D01*
X021586Y025857D01*
X021659Y025863D01*
X021732Y025865D01*
X021805Y025863D01*
X021878Y025857D01*
X021950Y025847D01*
X022022Y025833D01*
X022093Y025816D01*
X022163Y025794D01*
X022232Y025769D01*
X022299Y025740D01*
X022364Y025708D01*
X022428Y025672D01*
X022490Y025632D01*
X022549Y025590D01*
X022606Y025544D01*
X022660Y025495D01*
X022712Y025443D01*
X022761Y025389D01*
X022807Y025332D01*
X022849Y025273D01*
X022889Y025211D01*
X022925Y025147D01*
X022957Y025082D01*
X022986Y025015D01*
X023011Y024946D01*
X023033Y024876D01*
X023050Y024805D01*
X023064Y024733D01*
X023074Y024661D01*
X023080Y024588D01*
X023082Y024515D01*
X023080Y024442D01*
X023074Y024369D01*
X023064Y024297D01*
X023050Y024225D01*
X023033Y024154D01*
X023011Y024084D01*
X022986Y024015D01*
X022957Y023948D01*
X022925Y023883D01*
X022889Y023819D01*
X022849Y023757D01*
X022807Y023698D01*
X022761Y023641D01*
X022712Y023587D01*
X022660Y023535D01*
X022606Y023486D01*
X022549Y023440D01*
X022490Y023398D01*
X022428Y023358D01*
X022364Y023322D01*
X022299Y023290D01*
X022232Y023261D01*
X022163Y023236D01*
X022093Y023214D01*
X022022Y023197D01*
X021950Y023183D01*
X021878Y023173D01*
X021805Y023167D01*
X021732Y023165D01*
X021659Y023167D01*
X021586Y023173D01*
X021514Y023183D01*
X021442Y023197D01*
X021371Y023214D01*
X021301Y023236D01*
X021232Y023261D01*
X021165Y023290D01*
X021100Y023322D01*
X021036Y023358D01*
X020974Y023398D01*
X020915Y023440D01*
X020858Y023486D01*
X020804Y023535D01*
X020752Y023587D01*
X020703Y023641D01*
X020657Y023698D01*
X020615Y023757D01*
X020575Y023819D01*
X020539Y023883D01*
X020507Y023948D01*
X020478Y024015D01*
X020453Y024084D01*
X020431Y024154D01*
X020414Y024225D01*
X020400Y024297D01*
X020390Y024369D01*
X020384Y024442D01*
X020382Y024515D01*
D16*
X025579Y019009D03*
D17*
X012408Y011495D02*
X012311Y011446D01*
X012214Y011350D01*
X012359Y011350D01*
X012408Y011301D01*
X012408Y011253D01*
X012359Y011204D01*
X012262Y011204D01*
X012214Y011253D01*
X012214Y011350D01*
X012113Y011204D02*
X011919Y011204D01*
X012016Y011204D02*
X012016Y011495D01*
X011919Y011398D01*
X011818Y011446D02*
X011770Y011495D01*
X011625Y011495D01*
X011625Y011204D01*
X011625Y011301D02*
X011770Y011301D01*
X011818Y011350D01*
X011818Y011446D01*
X011722Y011301D02*
X011818Y011204D01*
X011711Y011077D02*
X011614Y011077D01*
X011566Y011029D01*
X011711Y011077D02*
X011759Y011029D01*
X011759Y010981D01*
X011566Y010787D01*
X011759Y010787D01*
X011861Y010787D02*
X011909Y010787D01*
X011909Y010835D01*
X011861Y010835D01*
X011861Y010787D01*
X012008Y010787D02*
X012201Y010981D01*
X012201Y011029D01*
X012153Y011077D01*
X012056Y011077D01*
X012008Y011029D01*
X012008Y010787D02*
X012201Y010787D01*
X012303Y010787D02*
X012303Y011077D01*
X012448Y010981D02*
X012303Y010884D01*
X012448Y010787D01*
X011768Y009559D02*
X011768Y009510D01*
X011574Y009317D01*
X011574Y009269D01*
X011473Y009269D02*
X011280Y009269D01*
X011377Y009269D02*
X011377Y009559D01*
X011280Y009462D01*
X011179Y009414D02*
X011130Y009365D01*
X010985Y009365D01*
X010985Y009269D02*
X010985Y009559D01*
X011130Y009559D01*
X011179Y009510D01*
X011179Y009414D01*
X011082Y009365D02*
X011179Y009269D01*
X011130Y009110D02*
X011034Y009110D01*
X010985Y009062D01*
X011130Y009110D02*
X011179Y009062D01*
X011179Y009013D01*
X010985Y008820D01*
X011179Y008820D01*
X011280Y008820D02*
X011328Y008820D01*
X011328Y008868D01*
X011280Y008868D01*
X011280Y008820D01*
X011427Y008820D02*
X011621Y009013D01*
X011621Y009062D01*
X011572Y009110D01*
X011475Y009110D01*
X011427Y009062D01*
X011427Y008820D02*
X011621Y008820D01*
X011722Y008820D02*
X011722Y009110D01*
X011867Y009013D02*
X011722Y008916D01*
X011867Y008820D01*
X011768Y009559D02*
X011574Y009559D01*
X011476Y019021D02*
X011356Y019021D01*
X011296Y019081D01*
X011536Y019321D01*
X011536Y019081D01*
X011476Y019021D01*
X011655Y019081D02*
X011655Y019321D01*
X011715Y019381D01*
X011835Y019381D01*
X011895Y019321D01*
X011655Y019081D01*
X011715Y019021D01*
X011835Y019021D01*
X011895Y019081D01*
X011895Y019321D01*
X011536Y019321D02*
X011476Y019381D01*
X011356Y019381D01*
X011296Y019321D01*
X011296Y019081D01*
X011177Y019081D02*
X011117Y019021D01*
X010997Y019021D01*
X010937Y019081D01*
X011177Y019321D01*
X011177Y019081D01*
X010937Y019081D02*
X010937Y019321D01*
X010997Y019381D01*
X011117Y019381D01*
X011177Y019321D01*
X010818Y019321D02*
X010578Y019081D01*
X010578Y019021D01*
X010459Y019021D02*
X010459Y019381D01*
X010578Y019381D02*
X010818Y019381D01*
X010818Y019321D01*
X010459Y019021D02*
X010219Y019381D01*
X010219Y019021D01*
X010100Y019021D02*
X009860Y019021D01*
X010100Y019261D01*
X010100Y019321D01*
X010040Y019381D01*
X009920Y019381D01*
X009860Y019321D01*
X010520Y020521D02*
X010640Y020521D01*
X010700Y020581D01*
X010700Y020881D01*
X010819Y020821D02*
X010879Y020881D01*
X010999Y020881D01*
X011059Y020821D01*
X011178Y020821D02*
X011238Y020881D01*
X011358Y020881D01*
X011418Y020821D01*
X011418Y020761D01*
X011178Y020521D01*
X011418Y020521D01*
X011059Y020581D02*
X011059Y020641D01*
X010999Y020701D01*
X010879Y020701D01*
X010819Y020761D01*
X010819Y020821D01*
X010939Y020941D02*
X010939Y020461D01*
X010999Y020521D02*
X011059Y020581D01*
X010999Y020521D02*
X010879Y020521D01*
X010819Y020581D01*
X010520Y020521D02*
X010460Y020581D01*
X010460Y020881D01*
D18*
X009933Y011917D03*
M02*
