%
M48
M72
T01C0.0236
T02C0.0276
T03C0.0315
T04C0.0320
T05C0.0400
%
T01
X6279Y5369
X7933Y7102
X7539Y7889
X6988Y8519
X7539Y8834
X5964Y9306
X5334Y8362
X9035Y8676
X9586Y8676
X11161Y9464
X11161Y10566
X10767Y12771
X9586Y14582
X7539Y14385
X6240Y15212
X6200Y16393
X6830Y19385
X9311Y18283
X9901Y19385
X15886Y17180
X15886Y13243
X14311Y10802
X14311Y9306
X13523Y9306
X13208Y12850
X8484Y12377
X6437Y12141
T02
X12931Y5151
T03
X2523Y4110
X3523Y4110
X4523Y4110
X4098Y13952
X5098Y13952
X6098Y13952
X4535Y16003
X3535Y16003
X2535Y16003
X17748Y14850
X18748Y14850
X18748Y13850
X17748Y13850
X17748Y12850
X18748Y12850
X18748Y11850
X18748Y10850
X17748Y10850
X17748Y11850
T04
X13130Y7379
X13630Y6629
X12630Y6629
X9378Y4661
X8378Y4661
X5362Y5763
X4362Y5763
X4137Y9472
X4137Y10472
X4137Y11472
X8319Y15771
X7569Y16271
X8319Y16771
X9700Y16771
X10450Y16271
X9700Y15771
X15886Y17862
X15886Y18862
X18720Y18862
X18720Y17862
T05
X18535Y8157
X19535Y8157
X19535Y7157
X18535Y7157
X18535Y6157
X19535Y6157
X19535Y5157
X18535Y5157
X18535Y4157
X19535Y4157
M30
