G75*
%MOIN*%
%OFA0B0*%
%FSLAX24Y24*%
%IPPOS*%
%LPD*%
%AMOC8*
5,1,8,0,0,1.08239X$1,22.5*
%
%ADD10R,0.0595X0.0595*%
%ADD11OC8,0.0600*%
%ADD12C,0.0600*%
%ADD13C,0.0595*%
%ADD14OC8,0.0680*%
%ADD15OC8,0.0710*%
%ADD16C,0.0710*%
%ADD17R,0.0476X0.0476*%
%ADD18R,0.0516X0.0516*%
D10*
X002523Y004110D03*
X003523Y004110D03*
X004523Y004110D03*
X004098Y013952D03*
X005098Y013952D03*
X006098Y013952D03*
X004535Y016003D03*
X003535Y016003D03*
X002535Y016003D03*
D11*
X007569Y016271D03*
X008319Y016771D03*
X008319Y015771D03*
X009700Y015771D03*
X010450Y016271D03*
X009700Y016771D03*
X013130Y007379D03*
X013630Y006629D03*
X012630Y006629D03*
X009378Y004661D03*
X008378Y004661D03*
X005362Y005763D03*
X004362Y005763D03*
D12*
X004397Y009472D02*
X003877Y009472D01*
X003877Y010472D02*
X004397Y010472D01*
X004397Y011472D02*
X003877Y011472D01*
D13*
X017748Y011850D03*
X017748Y010850D03*
X018748Y010850D03*
X018748Y011850D03*
X018748Y012850D03*
X018748Y013850D03*
X018748Y014850D03*
X017748Y014850D03*
X017748Y013850D03*
X017748Y012850D03*
D14*
X018535Y008157D03*
X019535Y008157D03*
X019535Y007157D03*
X018535Y007157D03*
X018535Y006157D03*
X019535Y006157D03*
X019535Y005157D03*
X018535Y005157D03*
X018535Y004157D03*
X019535Y004157D03*
D15*
X015886Y017862D03*
X018720Y018862D03*
D16*
X018720Y017862D03*
X015886Y018862D03*
D17*
X015886Y017180D03*
X015886Y013243D03*
X014311Y010802D03*
X014311Y009306D03*
X013523Y009306D03*
X011161Y009464D03*
X011161Y010566D03*
X009586Y008676D03*
X009035Y008676D03*
X007539Y008834D03*
X006988Y008519D03*
X007539Y007889D03*
X007933Y007102D03*
X006279Y005369D03*
X005334Y008362D03*
X005964Y009306D03*
X006437Y012141D03*
X008484Y012377D03*
X007539Y014385D03*
X006240Y015212D03*
X006200Y016393D03*
X006830Y019385D03*
X009311Y018283D03*
X009901Y019385D03*
X009586Y014582D03*
X010767Y012771D03*
X013208Y012850D03*
D18*
X012931Y005151D03*
M02*
