G75*
%MOIN*%
%OFA0B0*%
%FSLAX24Y24*%
%IPPOS*%
%LPD*%
%AMOC8*
5,1,8,0,0,1.08239X$1,22.5*
%
%ADD10C,0.0030*%
%ADD11C,0.0120*%
%ADD12C,0.0040*%
%ADD13C,0.0100*%
%ADD14C,0.0080*%
%ADD15R,0.0193X0.0433*%
%ADD16C,0.0020*%
%ADD17C,0.0050*%
%ADD18C,0.0118*%
%ADD19R,0.0197X0.0118*%
%ADD20C,0.0060*%
%ADD21R,0.0340X0.0160*%
%ADD22R,0.0374X0.0197*%
%ADD23R,0.0197X0.0374*%
%ADD24R,0.0160X0.0340*%
%ADD25R,0.0450X0.1990*%
%ADD26R,0.0200X0.0200*%
%ADD27R,0.1000X0.0200*%
%ADD28R,0.0300X0.0500*%
%ADD29R,0.0050X0.0500*%
D10*
X006896Y010206D02*
X006896Y010577D01*
X006773Y010577D02*
X007019Y010577D01*
X007141Y010577D02*
X007141Y010206D01*
X007388Y010206D01*
X007509Y010268D02*
X007756Y010515D01*
X007756Y010268D01*
X007694Y010206D01*
X007571Y010206D01*
X007509Y010268D01*
X007509Y010515D01*
X007571Y010577D01*
X007694Y010577D01*
X007756Y010515D01*
X007878Y010515D02*
X007878Y010453D01*
X007939Y010392D01*
X008063Y010392D01*
X008124Y010330D01*
X008124Y010268D01*
X008063Y010206D01*
X007939Y010206D01*
X007878Y010268D01*
X007878Y010330D01*
X007939Y010392D01*
X008063Y010392D02*
X008124Y010453D01*
X008124Y010515D01*
X008063Y010577D01*
X007939Y010577D01*
X007878Y010515D01*
X008246Y010392D02*
X008493Y010392D01*
X008431Y010577D02*
X008431Y010206D01*
X008614Y010206D02*
X008799Y010206D01*
X008861Y010268D01*
X008861Y010515D01*
X008799Y010577D01*
X008614Y010577D01*
X008614Y010206D01*
X008246Y010392D02*
X008431Y010577D01*
X015502Y004348D02*
X015502Y004286D01*
X015563Y004225D01*
X015687Y004225D01*
X015749Y004163D01*
X015749Y004101D01*
X015687Y004040D01*
X015563Y004040D01*
X015502Y004101D01*
X015502Y004348D02*
X015563Y004410D01*
X015687Y004410D01*
X015749Y004348D01*
X015870Y004348D02*
X015932Y004410D01*
X016055Y004410D01*
X016117Y004348D01*
X016117Y004101D01*
X016055Y004040D01*
X015932Y004040D01*
X015870Y004101D01*
X015870Y004348D01*
X015993Y004163D02*
X016117Y004040D01*
X016238Y004101D02*
X016238Y004410D01*
X016485Y004410D02*
X016485Y004101D01*
X016423Y004040D01*
X016300Y004040D01*
X016238Y004101D01*
X016607Y004040D02*
X016607Y004286D01*
X016730Y004410D01*
X016853Y004286D01*
X016853Y004040D01*
X016975Y004040D02*
X016975Y004410D01*
X017160Y004410D01*
X017222Y004348D01*
X017222Y004225D01*
X017160Y004163D01*
X016975Y004163D01*
X017098Y004163D02*
X017222Y004040D01*
X017343Y004040D02*
X017590Y004040D01*
X017467Y004225D02*
X017343Y004225D01*
X017343Y004410D02*
X017343Y004040D01*
X017343Y004410D02*
X017590Y004410D01*
X017590Y004984D02*
X017590Y005355D01*
X017343Y005355D02*
X017343Y004984D01*
X017221Y004984D02*
X017098Y004984D01*
X017159Y004984D02*
X017159Y005355D01*
X017098Y005355D02*
X017221Y005355D01*
X017343Y005355D02*
X017590Y004984D01*
X016976Y004923D02*
X016729Y004923D01*
X016608Y005108D02*
X016608Y005355D01*
X016361Y005355D02*
X016361Y005108D01*
X016484Y004984D01*
X016608Y005108D01*
X016240Y005046D02*
X016178Y004984D01*
X016054Y004984D01*
X015993Y005046D01*
X015993Y005293D01*
X016054Y005355D01*
X016178Y005355D01*
X016240Y005293D01*
X016607Y006193D02*
X016853Y006193D01*
X016975Y006255D02*
X017098Y006378D01*
X017098Y006008D01*
X016975Y006008D02*
X017222Y006008D01*
X017343Y006008D02*
X017590Y006255D01*
X017590Y006317D01*
X017528Y006378D01*
X017405Y006378D01*
X017343Y006317D01*
X017343Y006008D02*
X017590Y006008D01*
X017528Y007032D02*
X017343Y007032D01*
X017343Y007402D01*
X017528Y007402D01*
X017590Y007340D01*
X017590Y007093D01*
X017528Y007032D01*
X017222Y007032D02*
X017222Y007402D01*
X016975Y007402D02*
X016975Y007032D01*
X016853Y007093D02*
X016853Y007217D01*
X016730Y007217D01*
X016607Y007340D02*
X016607Y007093D01*
X016668Y007032D01*
X016792Y007032D01*
X016853Y007093D01*
X016853Y007340D02*
X016792Y007402D01*
X016668Y007402D01*
X016607Y007340D01*
X016975Y007402D02*
X017222Y007032D01*
X017222Y007977D02*
X016975Y007977D01*
X017098Y007977D02*
X017098Y008347D01*
X016975Y008223D01*
X016853Y008162D02*
X016607Y008162D01*
X016730Y008285D02*
X016730Y008038D01*
X017343Y007977D02*
X017590Y008223D01*
X017590Y008285D01*
X017528Y008347D01*
X017405Y008347D01*
X017343Y008285D01*
X017343Y007977D02*
X017590Y007977D01*
X016853Y004225D02*
X016607Y004225D01*
D11*
X016643Y003160D02*
X016643Y002239D01*
X016183Y001779D01*
X015722Y002239D01*
X015722Y003160D01*
X015262Y002470D02*
X014341Y002470D01*
X013881Y002239D02*
X013881Y002009D01*
X013650Y001779D01*
X013190Y001779D01*
X012960Y002009D01*
X013190Y002470D02*
X013650Y002470D01*
X013881Y002239D01*
X013881Y002930D02*
X013650Y003160D01*
X013190Y003160D01*
X012960Y002930D01*
X012960Y002700D01*
X013190Y002470D01*
X012499Y002470D02*
X012269Y002239D01*
X011579Y002239D01*
X011579Y001779D02*
X011579Y003160D01*
X012269Y003160D01*
X012499Y002930D01*
X012499Y002470D01*
X017103Y002930D02*
X017103Y002009D01*
X017333Y001779D01*
X017794Y001779D01*
X018024Y002009D01*
X018484Y002009D02*
X018715Y001779D01*
X019175Y001779D01*
X019405Y002009D01*
X019405Y002930D01*
X019175Y003160D01*
X018715Y003160D01*
X018484Y002930D01*
X018484Y002009D01*
X018024Y002930D02*
X017794Y003160D01*
X017333Y003160D01*
X017103Y002930D01*
D12*
X017126Y001387D02*
X016973Y001387D01*
X017049Y001387D02*
X017049Y001003D01*
X016973Y000926D01*
X016896Y000926D01*
X016819Y001003D01*
X017280Y001003D02*
X017280Y001157D01*
X017356Y001233D01*
X017510Y001233D01*
X017587Y001157D01*
X017587Y001080D01*
X017280Y001080D01*
X017280Y001003D02*
X017356Y000926D01*
X017510Y000926D01*
X017740Y000926D02*
X017740Y001233D01*
X017970Y001233D01*
X018047Y001157D01*
X018047Y000926D01*
X018200Y000926D02*
X018431Y000926D01*
X018507Y001003D01*
X018431Y001080D01*
X018277Y001080D01*
X018200Y001157D01*
X018277Y001233D01*
X018507Y001233D01*
X018661Y001157D02*
X018738Y001233D01*
X018891Y001233D01*
X018968Y001157D01*
X018968Y001080D01*
X018661Y001080D01*
X018661Y001003D02*
X018661Y001157D01*
X018661Y001003D02*
X018738Y000926D01*
X018891Y000926D01*
X019121Y000926D02*
X019121Y001233D01*
X019351Y001233D01*
X019428Y001157D01*
X019428Y000926D01*
X016205Y000926D02*
X016205Y001157D01*
X016129Y001233D01*
X015899Y001233D01*
X015899Y000926D01*
X015745Y000926D02*
X015515Y000926D01*
X015438Y001003D01*
X015515Y001080D01*
X015745Y001080D01*
X015745Y001157D02*
X015745Y000926D01*
X015745Y001157D02*
X015668Y001233D01*
X015515Y001233D01*
X015285Y001233D02*
X015285Y000850D01*
X015208Y000773D01*
X015131Y000773D01*
X015054Y000926D02*
X015285Y000926D01*
X015054Y000926D02*
X014978Y001003D01*
X014978Y001233D01*
X014824Y001157D02*
X014748Y001080D01*
X014517Y001080D01*
X014517Y000926D02*
X014517Y001387D01*
X014748Y001387D01*
X014824Y001310D01*
X014824Y001157D01*
X014671Y001080D02*
X014824Y000926D01*
X013248Y000950D02*
X013171Y000873D01*
X013018Y000873D01*
X012941Y000950D01*
X012941Y001103D02*
X013094Y001180D01*
X013171Y001180D01*
X013248Y001103D01*
X013248Y000950D01*
X012941Y001103D02*
X012941Y001333D01*
X013248Y001333D01*
X012788Y000873D02*
X012481Y000873D01*
X012634Y000873D02*
X012634Y001333D01*
X012481Y001180D01*
X012327Y001257D02*
X012327Y000950D01*
X012250Y000873D01*
X012097Y000873D01*
X012020Y000950D01*
X012327Y001257D01*
X012250Y001333D01*
X012097Y001333D01*
X012020Y001257D01*
X012020Y000950D01*
X011867Y000873D02*
X011560Y000873D01*
X011867Y001180D01*
X011867Y001257D01*
X011790Y001333D01*
X011637Y001333D01*
X011560Y001257D01*
X007286Y006853D02*
X007005Y006853D01*
X007005Y007188D02*
X007286Y007188D01*
X005504Y007591D02*
X005504Y007872D01*
X005169Y007872D02*
X005169Y007591D01*
X009446Y012286D02*
X009726Y012286D01*
X009726Y012621D02*
X009446Y012621D01*
X010991Y014678D02*
X010991Y014958D01*
X011326Y014958D02*
X011326Y014678D01*
X012123Y013020D02*
X012404Y013020D01*
X012404Y012685D02*
X012123Y012685D01*
X015549Y011794D02*
X015829Y011794D01*
X015829Y011459D02*
X015549Y011459D01*
X017017Y012196D02*
X017094Y012120D01*
X017401Y012120D01*
X017478Y012196D01*
X017478Y012350D01*
X017401Y012427D01*
X017248Y012427D01*
X017248Y012273D01*
X017094Y012427D02*
X017017Y012350D01*
X017017Y012196D01*
X017017Y012580D02*
X017478Y012887D01*
X017017Y012887D01*
X017017Y013040D02*
X017017Y013271D01*
X017094Y013347D01*
X017401Y013347D01*
X017478Y013271D01*
X017478Y013040D01*
X017017Y013040D01*
X017017Y012580D02*
X017478Y012580D01*
X015829Y013905D02*
X015549Y013905D01*
X015549Y014240D02*
X015829Y014240D01*
X017518Y015600D02*
X017825Y015600D01*
X017978Y015677D02*
X018132Y015830D01*
X018132Y015370D01*
X018285Y015370D02*
X017978Y015370D01*
X017671Y015446D02*
X017671Y015753D01*
X018439Y015753D02*
X018515Y015830D01*
X018669Y015830D01*
X018745Y015753D01*
X018745Y015677D01*
X018439Y015370D01*
X018745Y015370D01*
X018899Y015523D02*
X019052Y015370D01*
X019206Y015523D01*
X019206Y015830D01*
X018899Y015830D02*
X018899Y015523D01*
X018899Y010330D02*
X018899Y010023D01*
X019052Y009870D01*
X019206Y010023D01*
X019206Y010330D01*
X018745Y010253D02*
X018745Y010177D01*
X018439Y009870D01*
X018745Y009870D01*
X018745Y010253D02*
X018669Y010330D01*
X018515Y010330D01*
X018439Y010253D01*
X018132Y010330D02*
X018132Y009870D01*
X018285Y009870D02*
X017978Y009870D01*
X017825Y010100D02*
X017518Y010100D01*
X017978Y010177D02*
X018132Y010330D01*
D13*
X002031Y003251D02*
X002031Y000851D01*
X003331Y000851D01*
X003331Y003251D01*
X003831Y003251D01*
X004331Y002651D02*
X004331Y000851D01*
X005231Y000851D01*
X005231Y002551D01*
X005931Y002551D02*
X005931Y000851D01*
X006531Y000851D01*
X006531Y003151D01*
X007231Y003151D01*
X007231Y000851D01*
X007831Y000851D01*
X007831Y003151D01*
X008331Y003151D01*
X008331Y000851D01*
X008831Y000851D01*
X008831Y003151D01*
X009231Y003151D01*
X009231Y000851D01*
X009631Y000851D01*
X009631Y003151D01*
X009931Y003151D01*
X009931Y000851D01*
X010231Y000851D01*
X010231Y003151D01*
X010531Y003151D01*
X010531Y000851D01*
X010731Y000851D01*
X010731Y003151D01*
X010931Y003151D01*
X010931Y000851D01*
X008431Y004151D02*
X008431Y005151D01*
X009131Y004651D01*
X008431Y004151D01*
X009631Y004951D02*
X010031Y004951D01*
X009831Y005151D02*
X009831Y004751D01*
X005931Y005451D02*
X005531Y005451D01*
X005731Y005651D02*
X005731Y005251D01*
X005131Y005751D02*
X004431Y005251D01*
X004431Y006251D01*
X005131Y005751D01*
X004531Y006251D02*
X004431Y006251D01*
X002031Y003251D02*
X000931Y003251D01*
D14*
X006352Y009613D02*
X009742Y009613D01*
X009742Y010913D01*
X006352Y010913D01*
X006352Y011110D01*
X009742Y011110D01*
X009742Y010913D01*
X006352Y010913D02*
X006352Y009613D01*
X008787Y017299D02*
X008787Y018086D01*
X009220Y018086D01*
X009220Y017299D01*
X008787Y017299D01*
D15*
X008547Y011365D03*
X008047Y011365D03*
X007547Y011365D03*
X007047Y011365D03*
X006547Y011365D03*
X006547Y009358D03*
X007047Y009358D03*
X007547Y009358D03*
X008047Y009358D03*
X008547Y009358D03*
X009047Y009358D03*
X009547Y009358D03*
X009547Y011365D03*
X009047Y011365D03*
D16*
X009907Y011716D02*
X010054Y011716D01*
X009981Y011716D02*
X009981Y011936D01*
X009907Y011863D01*
X010128Y011900D02*
X010128Y011753D01*
X010275Y011900D01*
X010275Y011753D01*
X010238Y011716D01*
X010165Y011716D01*
X010128Y011753D01*
X010128Y011900D02*
X010165Y011936D01*
X010238Y011936D01*
X010275Y011900D01*
X010349Y011900D02*
X010386Y011936D01*
X010459Y011936D01*
X010496Y011900D01*
X010349Y011753D01*
X010386Y011716D01*
X010459Y011716D01*
X010496Y011753D01*
X010496Y011900D01*
X010570Y011863D02*
X010680Y011863D01*
X010717Y011826D01*
X010717Y011753D01*
X010680Y011716D01*
X010570Y011716D01*
X010570Y011643D02*
X010570Y011863D01*
X010602Y012055D02*
X010528Y012055D01*
X010491Y012091D01*
X010417Y012091D02*
X010381Y012055D01*
X010307Y012055D01*
X010270Y012091D01*
X010270Y012238D01*
X010307Y012275D01*
X010381Y012275D01*
X010417Y012238D01*
X010491Y012238D02*
X010528Y012275D01*
X010602Y012275D01*
X010638Y012238D01*
X010638Y012202D01*
X010602Y012165D01*
X010638Y012128D01*
X010638Y012091D01*
X010602Y012055D01*
X010602Y012165D02*
X010565Y012165D01*
X010349Y011900D02*
X010349Y011753D01*
X011609Y013393D02*
X011609Y013614D01*
X011719Y013614D01*
X011756Y013577D01*
X011756Y013503D01*
X011719Y013467D01*
X011609Y013467D01*
X011682Y013467D02*
X011756Y013393D01*
X011830Y013430D02*
X011867Y013393D01*
X011940Y013393D01*
X011977Y013430D01*
X011977Y013577D01*
X011940Y013614D01*
X011867Y013614D01*
X011830Y013577D01*
X011830Y013540D01*
X011867Y013503D01*
X011977Y013503D01*
X011929Y013763D02*
X011855Y013763D01*
X011819Y013800D01*
X011965Y013947D01*
X011965Y013800D01*
X011929Y013763D01*
X011819Y013800D02*
X011819Y013947D01*
X011855Y013984D01*
X011929Y013984D01*
X011965Y013947D01*
X012040Y013947D02*
X012040Y013800D01*
X012186Y013947D01*
X012186Y013800D01*
X012150Y013763D01*
X012076Y013763D01*
X012040Y013800D01*
X012040Y013947D02*
X012076Y013984D01*
X012150Y013984D01*
X012186Y013947D01*
X012261Y013984D02*
X012261Y013763D01*
X012261Y013837D02*
X012371Y013910D01*
X012261Y013837D02*
X012371Y013763D01*
X012968Y013766D02*
X012968Y013619D01*
X013005Y013582D01*
X013078Y013582D01*
X013115Y013619D01*
X013189Y013582D02*
X013336Y013729D01*
X013336Y013766D01*
X013299Y013802D01*
X013226Y013802D01*
X013189Y013766D01*
X013115Y013766D02*
X013078Y013802D01*
X013005Y013802D01*
X012968Y013766D01*
X013189Y013582D02*
X013336Y013582D01*
X013373Y013432D02*
X013373Y013212D01*
X013300Y013212D02*
X013447Y013212D01*
X013521Y013249D02*
X013521Y013359D01*
X013521Y013249D02*
X013558Y013212D01*
X013668Y013212D01*
X013668Y013359D01*
X013373Y013432D02*
X013300Y013359D01*
X013226Y013249D02*
X013226Y013212D01*
X013189Y013212D01*
X013189Y013249D01*
X013226Y013249D01*
X013115Y013249D02*
X013078Y013212D01*
X013005Y013212D01*
X012968Y013249D01*
X013115Y013396D01*
X013115Y013249D01*
X013115Y013396D02*
X013078Y013432D01*
X013005Y013432D01*
X012968Y013396D01*
X012968Y013249D01*
X013047Y012306D02*
X013157Y012306D01*
X013194Y012270D01*
X013194Y012196D01*
X013157Y012159D01*
X013047Y012159D01*
X013047Y012086D02*
X013047Y012306D01*
X013120Y012159D02*
X013194Y012086D01*
X013268Y012086D02*
X013415Y012086D01*
X013341Y012086D02*
X013341Y012306D01*
X013268Y012233D01*
X013489Y012270D02*
X013526Y012306D01*
X013599Y012306D01*
X013636Y012270D01*
X013489Y012123D01*
X013526Y012086D01*
X013599Y012086D01*
X013636Y012123D01*
X013636Y012270D01*
X013489Y012270D02*
X013489Y012123D01*
X013526Y011936D02*
X013599Y011936D01*
X013636Y011899D01*
X013489Y011753D01*
X013526Y011716D01*
X013599Y011716D01*
X013636Y011753D01*
X013636Y011899D01*
X013710Y011936D02*
X013710Y011716D01*
X013710Y011789D02*
X013820Y011863D01*
X013710Y011789D02*
X013820Y011716D01*
X013489Y011753D02*
X013489Y011899D01*
X013526Y011936D01*
X013415Y011899D02*
X013268Y011753D01*
X013305Y011716D01*
X013378Y011716D01*
X013415Y011753D01*
X013415Y011899D01*
X013378Y011936D01*
X013305Y011936D01*
X013268Y011899D01*
X013268Y011753D01*
X013194Y011716D02*
X013047Y011716D01*
X013120Y011716D02*
X013120Y011936D01*
X013047Y011863D01*
X014120Y013803D02*
X014267Y013803D01*
X014193Y013803D02*
X014193Y014023D01*
X014120Y013950D01*
X014341Y013986D02*
X014341Y013839D01*
X014488Y013986D01*
X014488Y013839D01*
X014451Y013803D01*
X014378Y013803D01*
X014341Y013839D01*
X014341Y013986D02*
X014378Y014023D01*
X014451Y014023D01*
X014488Y013986D01*
X014562Y013986D02*
X014562Y013839D01*
X014709Y013986D01*
X014709Y013839D01*
X014672Y013803D01*
X014598Y013803D01*
X014562Y013839D01*
X014562Y013986D02*
X014598Y014023D01*
X014672Y014023D01*
X014709Y013986D01*
X014783Y013950D02*
X014893Y013950D01*
X014930Y013913D01*
X014930Y013803D01*
X014783Y013803D02*
X014783Y013950D01*
X014819Y014141D02*
X014783Y014178D01*
X014783Y014215D01*
X014819Y014251D01*
X014893Y014251D01*
X014930Y014215D01*
X014930Y014178D01*
X014893Y014141D01*
X014819Y014141D01*
X014819Y014251D02*
X014783Y014288D01*
X014783Y014325D01*
X014819Y014362D01*
X014893Y014362D01*
X014930Y014325D01*
X014930Y014288D01*
X014893Y014251D01*
X014709Y014178D02*
X014672Y014141D01*
X014599Y014141D01*
X014562Y014178D01*
X014562Y014325D01*
X014599Y014362D01*
X014672Y014362D01*
X014709Y014325D01*
X014709Y014771D02*
X014562Y014771D01*
X014635Y014771D02*
X014635Y014991D01*
X014562Y014918D01*
X014488Y014881D02*
X014451Y014845D01*
X014341Y014845D01*
X014414Y014845D02*
X014488Y014771D01*
X014488Y014881D02*
X014488Y014955D01*
X014451Y014991D01*
X014341Y014991D01*
X014341Y014771D01*
X014561Y015141D02*
X014561Y015362D01*
X014451Y015251D01*
X014598Y015251D01*
X014672Y015178D02*
X014709Y015178D01*
X014709Y015141D01*
X014672Y015141D01*
X014672Y015178D01*
X014783Y015178D02*
X014783Y015141D01*
X014783Y015178D02*
X014930Y015325D01*
X014930Y015362D01*
X014783Y015362D01*
X014856Y014991D02*
X014856Y014771D01*
X014783Y014771D02*
X014930Y014771D01*
X014783Y014918D02*
X014856Y014991D01*
X012718Y015456D02*
X012608Y015530D01*
X012718Y015603D01*
X012608Y015676D02*
X012608Y015456D01*
X012533Y015493D02*
X012497Y015456D01*
X012423Y015456D01*
X012387Y015493D01*
X012533Y015640D01*
X012533Y015493D01*
X012387Y015493D02*
X012387Y015640D01*
X012423Y015676D01*
X012497Y015676D01*
X012533Y015640D01*
X012313Y015640D02*
X012276Y015676D01*
X012202Y015676D01*
X012166Y015640D01*
X012166Y015603D01*
X012202Y015566D01*
X012276Y015566D01*
X012313Y015530D01*
X012313Y015493D01*
X012276Y015456D01*
X012202Y015456D01*
X012166Y015493D01*
X012166Y015530D01*
X012202Y015566D01*
X012276Y015566D02*
X012313Y015603D01*
X012313Y015640D01*
X012276Y015826D02*
X012202Y015826D01*
X012166Y015863D01*
X012166Y015900D01*
X012202Y015936D01*
X012276Y015936D01*
X012313Y015900D01*
X012313Y015863D01*
X012276Y015826D01*
X012276Y015936D02*
X012313Y015973D01*
X012313Y016010D01*
X012276Y016046D01*
X012202Y016046D01*
X012166Y016010D01*
X012166Y015973D01*
X012202Y015936D01*
X012092Y015936D02*
X012055Y015900D01*
X011945Y015900D01*
X012018Y015900D02*
X012092Y015826D01*
X012092Y015936D02*
X012092Y016010D01*
X012055Y016046D01*
X011945Y016046D01*
X011945Y015826D01*
X012018Y015676D02*
X012018Y015456D01*
X011945Y015456D02*
X012092Y015456D01*
X011945Y015603D02*
X012018Y015676D01*
X011542Y015642D02*
X011542Y015496D01*
X011432Y015496D01*
X011395Y015532D01*
X011395Y015642D01*
X011321Y015496D02*
X011174Y015496D01*
X011247Y015496D02*
X011247Y015716D01*
X011174Y015642D01*
X011100Y015532D02*
X011100Y015496D01*
X011063Y015496D01*
X011063Y015532D01*
X011100Y015532D01*
X010989Y015532D02*
X010989Y015679D01*
X010842Y015532D01*
X010879Y015496D01*
X010952Y015496D01*
X010989Y015532D01*
X010842Y015532D02*
X010842Y015679D01*
X010879Y015716D01*
X010952Y015716D01*
X010989Y015679D01*
X010952Y015866D02*
X010989Y015902D01*
X010952Y015866D02*
X010879Y015866D01*
X010842Y015902D01*
X010842Y016049D01*
X010879Y016086D01*
X010952Y016086D01*
X010989Y016049D01*
X011063Y016012D02*
X011137Y016086D01*
X011137Y015866D01*
X011210Y015866D02*
X011063Y015866D01*
X010323Y014698D02*
X010213Y014624D01*
X010323Y014551D01*
X010213Y014551D02*
X010213Y014771D01*
X010139Y014734D02*
X010102Y014771D01*
X010029Y014771D01*
X009992Y014734D01*
X010139Y014734D02*
X010139Y014698D01*
X009992Y014551D01*
X010139Y014551D01*
X010134Y014480D02*
X010208Y014480D01*
X010245Y014443D01*
X010245Y014406D01*
X010208Y014370D01*
X010134Y014370D01*
X010098Y014406D01*
X010098Y014443D01*
X010134Y014480D01*
X010134Y014370D02*
X010098Y014333D01*
X010098Y014296D01*
X010134Y014259D01*
X010208Y014259D01*
X010245Y014296D01*
X010245Y014333D01*
X010208Y014370D01*
X010024Y014259D02*
X009877Y014259D01*
X009950Y014259D02*
X009950Y014480D01*
X009877Y014406D01*
X009803Y014370D02*
X009766Y014333D01*
X009656Y014333D01*
X009729Y014333D02*
X009803Y014259D01*
X009803Y014370D02*
X009803Y014443D01*
X009766Y014480D01*
X009656Y014480D01*
X009656Y014259D01*
X009661Y014551D02*
X009808Y014698D01*
X009808Y014734D01*
X009771Y014771D01*
X009698Y014771D01*
X009661Y014734D01*
X009661Y014551D02*
X009808Y014551D01*
X009882Y014551D02*
X009919Y014551D01*
X009919Y014588D01*
X009882Y014588D01*
X009882Y014551D01*
X011598Y013910D02*
X011671Y013984D01*
X011671Y013763D01*
X011598Y013763D02*
X011744Y013763D01*
X011726Y016883D02*
X011653Y016883D01*
X011616Y016920D01*
X011763Y017067D01*
X011763Y016920D01*
X011726Y016883D01*
X011616Y016920D02*
X011616Y017067D01*
X011653Y017104D01*
X011726Y017104D01*
X011763Y017067D01*
X011837Y016993D02*
X011947Y017104D01*
X011947Y016883D01*
X011984Y016993D02*
X011837Y016993D01*
X011542Y016993D02*
X011432Y016993D01*
X011395Y017030D01*
X011395Y017067D01*
X011432Y017104D01*
X011505Y017104D01*
X011542Y017067D01*
X011542Y016920D01*
X011505Y016883D01*
X011432Y016883D01*
X011395Y016920D01*
X011321Y016920D02*
X011284Y016883D01*
X011211Y016883D01*
X011174Y016920D01*
X011100Y016883D02*
X011100Y017104D01*
X011174Y017067D02*
X011211Y017104D01*
X011284Y017104D01*
X011321Y017067D01*
X011321Y017030D01*
X011284Y016993D01*
X011321Y016957D01*
X011321Y016920D01*
X011284Y016993D02*
X011247Y016993D01*
X011100Y016883D02*
X010953Y017104D01*
X010953Y016883D01*
X010879Y016883D02*
X010732Y016883D01*
X010879Y017030D01*
X010879Y017067D01*
X010842Y017104D01*
X010769Y017104D01*
X010732Y017067D01*
X010806Y017240D02*
X010806Y017460D01*
X010879Y017460D02*
X010732Y017460D01*
X010953Y017423D02*
X010990Y017460D01*
X011063Y017460D01*
X011100Y017423D01*
X011100Y017386D01*
X010953Y017240D01*
X011100Y017240D01*
X008892Y018239D02*
X008855Y018202D01*
X008782Y018202D01*
X008745Y018239D01*
X008671Y018239D02*
X008634Y018202D01*
X008524Y018202D01*
X008524Y018423D01*
X008634Y018423D01*
X008671Y018386D01*
X008671Y018349D01*
X008634Y018312D01*
X008524Y018312D01*
X008450Y018386D02*
X008303Y018239D01*
X008303Y018202D01*
X008193Y018202D02*
X008193Y018423D01*
X008082Y018312D01*
X008229Y018312D01*
X008303Y018423D02*
X008450Y018423D01*
X008450Y018386D01*
X008561Y018537D02*
X008524Y018574D01*
X008524Y018721D01*
X008561Y018757D01*
X008634Y018757D01*
X008671Y018721D01*
X008671Y018574D01*
X008634Y018537D01*
X008561Y018537D01*
X008598Y018610D02*
X008671Y018537D01*
X008745Y018537D02*
X008892Y018537D01*
X008819Y018537D02*
X008819Y018757D01*
X008745Y018684D01*
X008782Y018423D02*
X008745Y018386D01*
X008745Y018349D01*
X008782Y018312D01*
X008855Y018312D01*
X008892Y018276D01*
X008892Y018239D01*
X008892Y018386D02*
X008855Y018423D01*
X008782Y018423D01*
X008671Y018276D02*
X008671Y018239D01*
X008671Y018276D02*
X008634Y018312D01*
X008008Y018276D02*
X008008Y018239D01*
X007972Y018202D01*
X007898Y018202D01*
X007861Y018239D01*
X007861Y018276D01*
X007898Y018312D01*
X007972Y018312D01*
X008008Y018276D01*
X007972Y018312D02*
X008008Y018349D01*
X008008Y018386D01*
X007972Y018423D01*
X007898Y018423D01*
X007861Y018386D01*
X007861Y018349D01*
X007898Y018312D01*
X007787Y018239D02*
X007751Y018202D01*
X007677Y018202D01*
X007640Y018239D01*
X007640Y018386D01*
X007677Y018423D01*
X007751Y018423D01*
X007787Y018386D01*
X007566Y018386D02*
X007566Y018349D01*
X007530Y018312D01*
X007419Y018312D01*
X007419Y018202D02*
X007419Y018423D01*
X007530Y018423D01*
X007566Y018386D01*
X007530Y018312D02*
X007566Y018276D01*
X007566Y018239D01*
X007530Y018202D01*
X007419Y018202D01*
X006373Y017354D02*
X006373Y017133D01*
X006300Y017133D02*
X006446Y017133D01*
X006446Y016997D02*
X006446Y016777D01*
X006300Y016997D01*
X006300Y016777D01*
X006225Y016777D02*
X006079Y016777D01*
X006225Y016924D01*
X006225Y016961D01*
X006189Y016997D01*
X006115Y016997D01*
X006079Y016961D01*
X006152Y017133D02*
X006152Y017354D01*
X006079Y017354D02*
X006225Y017354D01*
X006300Y017280D02*
X006373Y017354D01*
X006557Y016997D02*
X006521Y016961D01*
X006557Y016997D02*
X006631Y016997D01*
X006667Y016961D01*
X006667Y016924D01*
X006631Y016887D01*
X006667Y016850D01*
X006667Y016814D01*
X006631Y016777D01*
X006557Y016777D01*
X006521Y016814D01*
X006594Y016887D02*
X006631Y016887D01*
X006742Y016924D02*
X006778Y016887D01*
X006888Y016887D01*
X006888Y016814D02*
X006888Y016961D01*
X006852Y016997D01*
X006778Y016997D01*
X006742Y016961D01*
X006742Y016924D01*
X006742Y016814D02*
X006778Y016777D01*
X006852Y016777D01*
X006888Y016814D01*
X006963Y016814D02*
X007109Y016961D01*
X007109Y016814D01*
X007073Y016777D01*
X006999Y016777D01*
X006963Y016814D01*
X006963Y016961D01*
X006999Y016997D01*
X007073Y016997D01*
X007109Y016961D01*
X007184Y016887D02*
X007330Y016887D01*
X007294Y016777D02*
X007294Y016997D01*
X007184Y016887D01*
X006373Y016208D02*
X006373Y015988D01*
X006300Y015988D02*
X006446Y015988D01*
X006446Y015838D02*
X006300Y015838D01*
X006189Y015838D02*
X006079Y015728D01*
X006225Y015728D01*
X006300Y015654D02*
X006300Y015618D01*
X006300Y015654D02*
X006446Y015801D01*
X006446Y015838D01*
X006521Y015838D02*
X006521Y015618D01*
X006521Y015691D02*
X006631Y015764D01*
X006521Y015691D02*
X006631Y015618D01*
X006189Y015618D02*
X006189Y015838D01*
X006225Y015988D02*
X006152Y016061D01*
X006189Y016061D02*
X006079Y016061D01*
X006079Y015988D02*
X006079Y016208D01*
X006189Y016208D01*
X006225Y016171D01*
X006225Y016098D01*
X006189Y016061D01*
X006300Y016134D02*
X006373Y016208D01*
X005318Y014818D02*
X005244Y014818D01*
X005208Y014782D01*
X005133Y014782D02*
X005097Y014818D01*
X005023Y014818D01*
X004987Y014782D01*
X004987Y014745D01*
X005023Y014708D01*
X005097Y014708D01*
X005133Y014672D01*
X005133Y014635D01*
X005097Y014598D01*
X005023Y014598D01*
X004987Y014635D01*
X004912Y014635D02*
X004912Y014818D01*
X004766Y014818D02*
X004766Y014635D01*
X004802Y014598D01*
X004876Y014598D01*
X004912Y014635D01*
X004923Y014500D02*
X005069Y014500D01*
X005069Y014463D01*
X004923Y014316D01*
X004923Y014279D01*
X004848Y014279D02*
X004848Y014500D01*
X004702Y014500D02*
X004848Y014279D01*
X004702Y014279D02*
X004702Y014500D01*
X004627Y014463D02*
X004627Y014426D01*
X004481Y014279D01*
X004627Y014279D01*
X004627Y014463D02*
X004591Y014500D01*
X004517Y014500D01*
X004481Y014463D01*
X005060Y014562D02*
X005060Y014855D01*
X005208Y014598D02*
X005354Y014745D01*
X005354Y014782D01*
X005318Y014818D01*
X005354Y014598D02*
X005208Y014598D01*
X005180Y014500D02*
X005254Y014500D01*
X005290Y014463D01*
X005144Y014316D01*
X005180Y014279D01*
X005254Y014279D01*
X005290Y014316D01*
X005290Y014463D01*
X005365Y014463D02*
X005365Y014316D01*
X005511Y014463D01*
X005511Y014316D01*
X005475Y014279D01*
X005401Y014279D01*
X005365Y014316D01*
X005365Y014463D02*
X005401Y014500D01*
X005475Y014500D01*
X005511Y014463D01*
X005585Y014463D02*
X005622Y014500D01*
X005696Y014500D01*
X005732Y014463D01*
X005585Y014316D01*
X005622Y014279D01*
X005696Y014279D01*
X005732Y014316D01*
X005732Y014463D01*
X005585Y014463D02*
X005585Y014316D01*
X005144Y014316D02*
X005144Y014463D01*
X005180Y014500D01*
X006512Y014196D02*
X006512Y013976D01*
X006512Y014049D02*
X006622Y014049D01*
X006658Y014086D01*
X006658Y014159D01*
X006622Y014196D01*
X006512Y014196D01*
X006585Y014049D02*
X006658Y013976D01*
X006733Y014013D02*
X006769Y013976D01*
X006843Y013976D01*
X006879Y014013D01*
X006879Y014049D01*
X006843Y014086D01*
X006733Y014086D01*
X006733Y014013D01*
X006733Y014086D02*
X006806Y014159D01*
X006879Y014196D01*
X006843Y013826D02*
X006879Y013789D01*
X006733Y013642D01*
X006769Y013606D01*
X006843Y013606D01*
X006879Y013642D01*
X006879Y013789D01*
X006843Y013826D02*
X006769Y013826D01*
X006733Y013789D01*
X006733Y013642D01*
X006658Y013606D02*
X006512Y013606D01*
X006585Y013606D02*
X006585Y013826D01*
X006512Y013753D01*
X006954Y013789D02*
X006954Y013642D01*
X007100Y013789D01*
X007100Y013642D01*
X007064Y013606D01*
X006990Y013606D01*
X006954Y013642D01*
X006954Y013789D02*
X006990Y013826D01*
X007064Y013826D01*
X007100Y013789D01*
X007175Y013826D02*
X007175Y013606D01*
X007175Y013679D02*
X007285Y013606D01*
X007175Y013679D02*
X007285Y013753D01*
X005577Y011245D02*
X005467Y011245D01*
X005431Y011209D01*
X005431Y011098D01*
X005577Y011098D01*
X005577Y011025D02*
X005577Y010951D01*
X005577Y010988D02*
X005431Y010988D01*
X005431Y010951D01*
X005357Y010988D02*
X005321Y010988D01*
X005247Y010939D02*
X005174Y010866D01*
X005211Y010939D02*
X005247Y010902D01*
X005247Y010829D01*
X005211Y010792D01*
X005064Y010792D01*
X005027Y010829D01*
X005027Y010902D01*
X005064Y010939D01*
X005211Y010939D01*
X005357Y010840D02*
X005577Y010840D01*
X005577Y010804D02*
X005577Y010877D01*
X005357Y010840D02*
X005357Y010804D01*
X005247Y010718D02*
X005247Y010571D01*
X005027Y010571D01*
X005027Y010718D01*
X005137Y010645D02*
X005137Y010571D01*
X005137Y010497D02*
X005174Y010460D01*
X005174Y010350D01*
X005247Y010350D02*
X005027Y010350D01*
X005027Y010460D01*
X005064Y010497D01*
X005137Y010497D01*
X005174Y010424D02*
X005247Y010497D01*
X005357Y010399D02*
X005577Y010399D01*
X005504Y010399D02*
X005431Y010509D01*
X005504Y010399D02*
X005577Y010509D01*
X005541Y010324D02*
X005394Y010324D01*
X005541Y010178D01*
X005577Y010214D01*
X005577Y010288D01*
X005541Y010324D01*
X005541Y010178D02*
X005394Y010178D01*
X005357Y010214D01*
X005357Y010288D01*
X005394Y010324D01*
X005394Y010103D02*
X005541Y009957D01*
X005577Y009993D01*
X005577Y010067D01*
X005541Y010103D01*
X005394Y010103D01*
X005357Y010067D01*
X005357Y009993D01*
X005394Y009957D01*
X005541Y009957D01*
X005577Y009882D02*
X005577Y009736D01*
X005577Y009809D02*
X005357Y009809D01*
X005431Y009736D01*
X005247Y010129D02*
X005027Y010129D01*
X005027Y010276D01*
X005137Y010203D02*
X005137Y010129D01*
X004992Y009078D02*
X005029Y009041D01*
X005029Y009005D01*
X004992Y008968D01*
X005029Y008931D01*
X005029Y008894D01*
X004992Y008858D01*
X004919Y008858D01*
X004882Y008894D01*
X004808Y008858D02*
X004735Y008931D01*
X004771Y008931D02*
X004661Y008931D01*
X004661Y008858D02*
X004661Y009078D01*
X004771Y009078D01*
X004808Y009041D01*
X004808Y008968D01*
X004771Y008931D01*
X004771Y008787D02*
X004661Y008676D01*
X004808Y008676D01*
X004882Y008603D02*
X004882Y008566D01*
X004882Y008603D02*
X005029Y008750D01*
X005029Y008787D01*
X004882Y008787D01*
X004771Y008787D02*
X004771Y008566D01*
X005103Y008566D02*
X005103Y008787D01*
X005213Y008713D02*
X005103Y008640D01*
X005213Y008566D01*
X004992Y008968D02*
X004956Y008968D01*
X004882Y009041D02*
X004919Y009078D01*
X004992Y009078D01*
X005882Y008920D02*
X005882Y008700D01*
X005882Y008774D02*
X005992Y008774D01*
X006029Y008810D01*
X006029Y008884D01*
X005992Y008920D01*
X005882Y008920D01*
X005955Y008774D02*
X006029Y008700D01*
X006029Y008629D02*
X005955Y008592D01*
X005882Y008519D01*
X005992Y008519D01*
X006029Y008482D01*
X006029Y008446D01*
X005992Y008409D01*
X005918Y008409D01*
X005882Y008446D01*
X005882Y008519D01*
X006103Y008482D02*
X006139Y008519D01*
X006213Y008519D01*
X006250Y008482D01*
X006250Y008446D01*
X006213Y008409D01*
X006139Y008409D01*
X006103Y008446D01*
X006103Y008482D01*
X006139Y008519D02*
X006103Y008556D01*
X006103Y008592D01*
X006139Y008629D01*
X006213Y008629D01*
X006250Y008592D01*
X006250Y008556D01*
X006213Y008519D01*
X006324Y008482D02*
X006434Y008556D01*
X006324Y008629D02*
X006324Y008409D01*
X006324Y008482D02*
X006434Y008409D01*
X006434Y008700D02*
X006434Y008920D01*
X006324Y008810D01*
X006470Y008810D01*
X006250Y008700D02*
X006103Y008700D01*
X006176Y008700D02*
X006176Y008920D01*
X006103Y008847D01*
X006846Y009892D02*
X006920Y009892D01*
X006883Y009892D02*
X006883Y010112D01*
X006846Y010112D02*
X006920Y010112D01*
X006994Y010075D02*
X006994Y009929D01*
X007030Y009892D01*
X007104Y009892D01*
X007140Y009929D01*
X007215Y009892D02*
X007361Y009892D01*
X007288Y009892D02*
X007288Y010112D01*
X007215Y010039D01*
X007140Y010075D02*
X007104Y010112D01*
X007030Y010112D01*
X006994Y010075D01*
X009078Y007926D02*
X009151Y007999D01*
X009151Y007779D01*
X009078Y007779D02*
X009225Y007779D01*
X009299Y007816D02*
X009446Y007963D01*
X009446Y007816D01*
X009409Y007779D01*
X009336Y007779D01*
X009299Y007816D01*
X009299Y007963D01*
X009336Y007999D01*
X009409Y007999D01*
X009446Y007963D01*
X009520Y007963D02*
X009557Y007999D01*
X009630Y007999D01*
X009667Y007963D01*
X009520Y007816D01*
X009557Y007779D01*
X009630Y007779D01*
X009667Y007816D01*
X009667Y007963D01*
X009741Y007999D02*
X009741Y007779D01*
X009741Y007853D02*
X009851Y007926D01*
X009741Y007853D02*
X009851Y007779D01*
X009520Y007816D02*
X009520Y007963D01*
X009483Y008118D02*
X009483Y008338D01*
X009593Y008338D01*
X009630Y008301D01*
X009630Y008228D01*
X009593Y008191D01*
X009483Y008191D01*
X009556Y008191D02*
X009630Y008118D01*
X009704Y008154D02*
X009741Y008118D01*
X009814Y008118D01*
X009851Y008154D01*
X009851Y008228D01*
X009814Y008265D01*
X009777Y008265D01*
X009704Y008228D01*
X009704Y008338D01*
X009851Y008338D01*
X011630Y008488D02*
X011777Y008634D01*
X011777Y008671D01*
X011740Y008708D01*
X011666Y008708D01*
X011630Y008671D01*
X011630Y008488D02*
X011777Y008488D01*
X011851Y008488D02*
X011851Y008524D01*
X011998Y008671D01*
X011998Y008708D01*
X011851Y008708D01*
X011777Y008858D02*
X011703Y008931D01*
X011740Y008931D02*
X011630Y008931D01*
X011630Y008858D02*
X011630Y009078D01*
X011740Y009078D01*
X011777Y009041D01*
X011777Y008968D01*
X011740Y008931D01*
X011851Y008968D02*
X011961Y009078D01*
X011961Y008858D01*
X011998Y008968D02*
X011851Y008968D01*
X012072Y008708D02*
X012072Y008488D01*
X012072Y008561D02*
X012182Y008634D01*
X012072Y008561D02*
X012182Y008488D01*
X012412Y008495D02*
X012412Y008275D01*
X012412Y008349D02*
X012522Y008349D01*
X012558Y008385D01*
X012558Y008459D01*
X012522Y008495D01*
X012412Y008495D01*
X012485Y008349D02*
X012558Y008275D01*
X012633Y008275D02*
X012779Y008422D01*
X012779Y008459D01*
X012743Y008495D01*
X012669Y008495D01*
X012633Y008459D01*
X012633Y008275D02*
X012779Y008275D01*
X012854Y008275D02*
X013000Y008275D01*
X012927Y008275D02*
X012927Y008495D01*
X012854Y008422D01*
X012890Y008157D02*
X012890Y007937D01*
X012890Y008010D02*
X013001Y008083D01*
X012890Y008010D02*
X013001Y007937D01*
X012816Y008120D02*
X012669Y007973D01*
X012669Y007937D01*
X012559Y007937D02*
X012559Y008157D01*
X012449Y008047D01*
X012595Y008047D01*
X012669Y008157D02*
X012816Y008157D01*
X012816Y008120D01*
X012219Y007582D02*
X012072Y007582D01*
X012072Y007472D01*
X012145Y007508D01*
X012182Y007508D01*
X012219Y007472D01*
X012219Y007398D01*
X012182Y007362D01*
X012108Y007362D01*
X012072Y007398D01*
X011998Y007362D02*
X011851Y007362D01*
X011924Y007362D02*
X011924Y007582D01*
X011851Y007508D01*
X011777Y007472D02*
X011740Y007435D01*
X011630Y007435D01*
X011703Y007435D02*
X011777Y007362D01*
X011777Y007472D02*
X011777Y007545D01*
X011740Y007582D01*
X011630Y007582D01*
X011630Y007362D01*
X011703Y007212D02*
X011630Y007138D01*
X011703Y007212D02*
X011703Y006992D01*
X011630Y006992D02*
X011777Y006992D01*
X011851Y007028D02*
X011998Y007175D01*
X011998Y007028D01*
X011961Y006992D01*
X011887Y006992D01*
X011851Y007028D01*
X011851Y007175D01*
X011887Y007212D01*
X011961Y007212D01*
X011998Y007175D01*
X012072Y007175D02*
X012072Y007028D01*
X012219Y007175D01*
X012219Y007028D01*
X012182Y006992D01*
X012108Y006992D01*
X012072Y007028D01*
X012072Y007175D02*
X012108Y007212D01*
X012182Y007212D01*
X012219Y007175D01*
X012293Y007212D02*
X012293Y006992D01*
X012293Y007065D02*
X012403Y006992D01*
X012293Y007065D02*
X012403Y007138D01*
X014311Y006758D02*
X014311Y006611D01*
X014348Y006574D01*
X014421Y006574D01*
X014458Y006611D01*
X014458Y006758D01*
X014421Y006794D01*
X014348Y006794D01*
X014311Y006758D01*
X014384Y006648D02*
X014458Y006574D01*
X014532Y006574D02*
X014679Y006721D01*
X014679Y006758D01*
X014642Y006794D01*
X014569Y006794D01*
X014532Y006758D01*
X014532Y006574D02*
X014679Y006574D01*
X014679Y006438D02*
X014679Y006218D01*
X014532Y006438D01*
X014532Y006218D01*
X014458Y006218D02*
X014311Y006218D01*
X014458Y006365D01*
X014458Y006401D01*
X014421Y006438D01*
X014348Y006438D01*
X014311Y006401D01*
X014753Y006401D02*
X014790Y006438D01*
X014863Y006438D01*
X014900Y006401D01*
X014900Y006365D01*
X014863Y006328D01*
X014900Y006291D01*
X014900Y006255D01*
X014863Y006218D01*
X014790Y006218D01*
X014753Y006255D01*
X014826Y006328D02*
X014863Y006328D01*
X014974Y006365D02*
X015011Y006328D01*
X015121Y006328D01*
X015121Y006255D02*
X015121Y006401D01*
X015084Y006438D01*
X015011Y006438D01*
X014974Y006401D01*
X014974Y006365D01*
X014974Y006255D02*
X015011Y006218D01*
X015084Y006218D01*
X015121Y006255D01*
X015195Y006255D02*
X015342Y006401D01*
X015342Y006255D01*
X015305Y006218D01*
X015232Y006218D01*
X015195Y006255D01*
X015195Y006401D01*
X015232Y006438D01*
X015305Y006438D01*
X015342Y006401D01*
X015416Y006328D02*
X015526Y006328D01*
X015563Y006291D01*
X015563Y006255D01*
X015526Y006218D01*
X015453Y006218D01*
X015416Y006255D01*
X015416Y006328D01*
X015489Y006401D01*
X015563Y006438D01*
X015583Y007700D02*
X015509Y007700D01*
X015473Y007737D01*
X015399Y007737D02*
X015362Y007700D01*
X015289Y007700D01*
X015252Y007737D01*
X015325Y007810D02*
X015362Y007810D01*
X015399Y007774D01*
X015399Y007737D01*
X015362Y007810D02*
X015399Y007847D01*
X015399Y007884D01*
X015362Y007920D01*
X015289Y007920D01*
X015252Y007884D01*
X015252Y008070D02*
X015252Y008291D01*
X015362Y008291D01*
X015399Y008254D01*
X015399Y008180D01*
X015362Y008144D01*
X015252Y008144D01*
X015325Y008144D02*
X015399Y008070D01*
X015473Y008070D02*
X015620Y008217D01*
X015620Y008254D01*
X015583Y008291D01*
X015509Y008291D01*
X015473Y008254D01*
X015473Y008070D02*
X015620Y008070D01*
X015694Y008070D02*
X015841Y008217D01*
X015841Y008254D01*
X015804Y008291D01*
X015730Y008291D01*
X015694Y008254D01*
X015694Y008070D02*
X015841Y008070D01*
X015694Y007920D02*
X015694Y007700D01*
X015694Y007774D02*
X015804Y007847D01*
X015694Y007774D02*
X015804Y007700D01*
X015620Y007737D02*
X015583Y007700D01*
X015620Y007737D02*
X015620Y007774D01*
X015583Y007810D01*
X015546Y007810D01*
X015583Y007810D02*
X015620Y007847D01*
X015620Y007884D01*
X015583Y007920D01*
X015509Y007920D01*
X015473Y007884D01*
X015512Y009787D02*
X015549Y009787D01*
X015549Y009824D01*
X015512Y009824D01*
X015512Y009787D01*
X015623Y009787D02*
X015623Y009824D01*
X015769Y009970D01*
X015769Y010007D01*
X015623Y010007D01*
X015659Y010157D02*
X015512Y010157D01*
X015586Y010157D02*
X015586Y010377D01*
X015512Y010304D01*
X015438Y010340D02*
X015438Y010267D01*
X015401Y010230D01*
X015291Y010230D01*
X015291Y010157D02*
X015291Y010377D01*
X015401Y010377D01*
X015438Y010340D01*
X015365Y010230D02*
X015438Y010157D01*
X015401Y010007D02*
X015291Y009897D01*
X015438Y009897D01*
X015401Y009787D02*
X015401Y010007D01*
X015733Y010157D02*
X015880Y010304D01*
X015880Y010340D01*
X015843Y010377D01*
X015770Y010377D01*
X015733Y010340D01*
X015733Y010157D02*
X015880Y010157D01*
X015927Y012149D02*
X015891Y012186D01*
X016037Y012333D01*
X016037Y012186D01*
X016001Y012149D01*
X015927Y012149D01*
X015891Y012186D02*
X015891Y012333D01*
X015927Y012369D01*
X016001Y012369D01*
X016037Y012333D01*
X016112Y012296D02*
X016222Y012296D01*
X016258Y012259D01*
X016258Y012149D01*
X016112Y012149D02*
X016112Y012296D01*
X015816Y012333D02*
X015816Y012186D01*
X015780Y012149D01*
X015706Y012149D01*
X015670Y012186D01*
X015816Y012333D01*
X015780Y012369D01*
X015706Y012369D01*
X015670Y012333D01*
X015670Y012186D01*
X015595Y012149D02*
X015449Y012149D01*
X015522Y012149D02*
X015522Y012369D01*
X015449Y012296D01*
X015485Y012519D02*
X015559Y012519D01*
X015595Y012556D01*
X015670Y012556D02*
X015706Y012519D01*
X015780Y012519D01*
X015816Y012556D01*
X015816Y012703D01*
X015780Y012739D01*
X015706Y012739D01*
X015670Y012703D01*
X015670Y012666D01*
X015706Y012629D01*
X015816Y012629D01*
X015595Y012703D02*
X015559Y012739D01*
X015485Y012739D01*
X015449Y012703D01*
X015449Y012556D01*
X015485Y012519D01*
X019009Y008429D02*
X018972Y008392D01*
X018972Y008319D01*
X019009Y008282D01*
X019009Y008208D02*
X018972Y008171D01*
X018972Y008061D01*
X019192Y008061D01*
X019119Y008061D02*
X019119Y008171D01*
X019082Y008208D01*
X019009Y008208D01*
X019192Y008282D02*
X019046Y008429D01*
X019009Y008429D01*
X019192Y008429D02*
X019192Y008282D01*
X019156Y007950D02*
X018972Y007950D01*
X018972Y007913D02*
X018972Y007987D01*
X019156Y007950D02*
X019192Y007913D01*
X019192Y007877D01*
X019156Y007840D01*
X011169Y004101D02*
X011169Y004028D01*
X011132Y003991D01*
X010985Y004138D01*
X011132Y004138D01*
X011169Y004101D01*
X011132Y003991D02*
X010985Y003991D01*
X010948Y004028D01*
X010948Y004101D01*
X010985Y004138D01*
X010799Y004138D02*
X010725Y004028D01*
X010652Y004138D01*
X010578Y004028D02*
X010799Y004028D01*
X010762Y003954D02*
X010799Y003917D01*
X010799Y003844D01*
X010762Y003807D01*
X010762Y003733D02*
X010799Y003733D01*
X010799Y003696D01*
X010762Y003696D01*
X010762Y003733D01*
X010762Y003622D02*
X010799Y003586D01*
X010799Y003512D01*
X010762Y003475D01*
X010688Y003549D02*
X010688Y003586D01*
X010725Y003622D01*
X010762Y003622D01*
X010688Y003586D02*
X010652Y003622D01*
X010615Y003622D01*
X010578Y003586D01*
X010578Y003512D01*
X010615Y003475D01*
X010615Y003807D02*
X010578Y003844D01*
X010578Y003917D01*
X010615Y003954D01*
X010652Y003954D01*
X010688Y003917D01*
X010725Y003954D01*
X010762Y003954D01*
X010688Y003917D02*
X010688Y003880D01*
X010948Y003880D02*
X010948Y003807D01*
X010985Y003770D01*
X010985Y003696D02*
X011059Y003696D01*
X011095Y003659D01*
X011095Y003549D01*
X011095Y003622D02*
X011169Y003696D01*
X011169Y003770D02*
X011022Y003917D01*
X010985Y003917D01*
X010948Y003880D01*
X010985Y003696D02*
X010948Y003659D01*
X010948Y003549D01*
X011169Y003549D01*
X011169Y003770D02*
X011169Y003917D01*
X009266Y005251D02*
X009119Y005251D01*
X009266Y005398D01*
X009266Y005434D01*
X009229Y005471D01*
X009156Y005471D01*
X009119Y005434D01*
X009045Y005434D02*
X009008Y005471D01*
X008898Y005471D01*
X008898Y005251D01*
X009008Y005251D01*
X009045Y005287D01*
X009045Y005434D01*
X008824Y005471D02*
X008677Y005471D01*
X008677Y005251D01*
X008824Y005251D01*
X008751Y005361D02*
X008677Y005361D01*
X008603Y005251D02*
X008456Y005251D01*
X008456Y005471D01*
X006583Y005188D02*
X006510Y005152D01*
X006436Y005078D01*
X006546Y005078D01*
X006583Y005042D01*
X006583Y005005D01*
X006546Y004968D01*
X006473Y004968D01*
X006436Y005005D01*
X006436Y005078D01*
X006362Y004968D02*
X006215Y004968D01*
X006289Y004968D02*
X006289Y005188D01*
X006215Y005115D01*
X006141Y005152D02*
X006141Y005078D01*
X006104Y005042D01*
X005994Y005042D01*
X006068Y005042D02*
X006141Y004968D01*
X006070Y004850D02*
X006107Y004813D01*
X006107Y004776D01*
X005960Y004630D01*
X006107Y004630D01*
X006181Y004630D02*
X006218Y004630D01*
X006218Y004666D01*
X006181Y004666D01*
X006181Y004630D01*
X006292Y004630D02*
X006438Y004776D01*
X006438Y004813D01*
X006402Y004850D01*
X006328Y004850D01*
X006292Y004813D01*
X006292Y004630D02*
X006438Y004630D01*
X006513Y004630D02*
X006513Y004850D01*
X006623Y004776D02*
X006513Y004703D01*
X006623Y004630D01*
X006141Y005152D02*
X006104Y005188D01*
X005994Y005188D01*
X005994Y004968D01*
X005997Y004850D02*
X005960Y004813D01*
X005997Y004850D02*
X006070Y004850D01*
X005085Y004690D02*
X004938Y004690D01*
X005011Y004690D02*
X005011Y004910D01*
X004938Y004836D01*
X004864Y004910D02*
X004717Y004910D01*
X004717Y004690D01*
X004864Y004690D01*
X004790Y004800D02*
X004717Y004800D01*
X004643Y004800D02*
X004643Y004873D01*
X004606Y004910D01*
X004496Y004910D01*
X004496Y004690D01*
X004496Y004763D02*
X004606Y004763D01*
X004643Y004800D01*
X004569Y004763D02*
X004643Y004690D01*
X004422Y004690D02*
X004422Y004836D01*
X004348Y004910D01*
X004275Y004836D01*
X004275Y004690D01*
X004201Y004726D02*
X004201Y004910D01*
X004275Y004800D02*
X004422Y004800D01*
X004201Y004726D02*
X004164Y004690D01*
X004091Y004690D01*
X004054Y004726D01*
X004054Y004910D01*
X003980Y004873D02*
X003980Y004726D01*
X003943Y004690D01*
X003870Y004690D01*
X003833Y004726D01*
X003833Y004873D01*
X003870Y004910D01*
X003943Y004910D01*
X003980Y004873D01*
X003906Y004763D02*
X003980Y004690D01*
X003759Y004726D02*
X003722Y004690D01*
X003649Y004690D01*
X003612Y004726D01*
X003649Y004800D02*
X003722Y004800D01*
X003759Y004763D01*
X003759Y004726D01*
X003649Y004800D02*
X003612Y004836D01*
X003612Y004873D01*
X003649Y004910D01*
X003722Y004910D01*
X003759Y004873D01*
X003718Y006165D02*
X003718Y006385D01*
X003643Y006385D02*
X003643Y006348D01*
X003497Y006202D01*
X003497Y006165D01*
X003423Y006165D02*
X003386Y006165D01*
X003386Y006202D01*
X003423Y006202D01*
X003423Y006165D01*
X003275Y006165D02*
X003275Y006385D01*
X003165Y006275D01*
X003312Y006275D01*
X003497Y006385D02*
X003643Y006385D01*
X003644Y006535D02*
X003717Y006535D01*
X003754Y006572D01*
X003754Y006718D01*
X003717Y006755D01*
X003644Y006755D01*
X003607Y006718D01*
X003607Y006682D01*
X003644Y006645D01*
X003754Y006645D01*
X003644Y006535D02*
X003607Y006572D01*
X003533Y006535D02*
X003386Y006535D01*
X003460Y006535D02*
X003460Y006755D01*
X003386Y006682D01*
X003312Y006718D02*
X003312Y006645D01*
X003275Y006608D01*
X003165Y006608D01*
X003165Y006535D02*
X003165Y006755D01*
X003275Y006755D01*
X003312Y006718D01*
X003239Y006608D02*
X003312Y006535D01*
X003718Y006238D02*
X003828Y006165D01*
X003718Y006238D02*
X003828Y006312D01*
X004441Y006353D02*
X004587Y006353D01*
X004662Y006353D02*
X004808Y006353D01*
X004883Y006353D02*
X004993Y006353D01*
X005029Y006390D01*
X005029Y006537D01*
X004993Y006573D01*
X004883Y006573D01*
X004883Y006353D01*
X004735Y006463D02*
X004662Y006463D01*
X004662Y006573D02*
X004662Y006353D01*
X004662Y006573D02*
X004808Y006573D01*
X005104Y006500D02*
X005177Y006573D01*
X005177Y006353D01*
X005104Y006353D02*
X005250Y006353D01*
X005692Y006036D02*
X005765Y006110D01*
X005765Y005889D01*
X005692Y005889D02*
X005839Y005889D01*
X005913Y005926D02*
X006060Y006073D01*
X006060Y005926D01*
X006023Y005889D01*
X005950Y005889D01*
X005913Y005926D01*
X005913Y006073D01*
X005950Y006110D01*
X006023Y006110D01*
X006060Y006073D01*
X006134Y006073D02*
X006134Y005926D01*
X006281Y006073D01*
X006281Y005926D01*
X006244Y005889D01*
X006171Y005889D01*
X006134Y005926D01*
X006134Y006073D02*
X006171Y006110D01*
X006244Y006110D01*
X006281Y006073D01*
X006355Y006110D02*
X006355Y005889D01*
X006355Y005963D02*
X006465Y006036D01*
X006355Y005963D02*
X006465Y005889D01*
X006428Y006228D02*
X006355Y006228D01*
X006318Y006265D01*
X006244Y006228D02*
X006097Y006228D01*
X006171Y006228D02*
X006171Y006448D01*
X006097Y006375D01*
X006023Y006411D02*
X006023Y006338D01*
X005986Y006301D01*
X005876Y006301D01*
X005876Y006228D02*
X005876Y006448D01*
X005986Y006448D01*
X006023Y006411D01*
X005950Y006301D02*
X006023Y006228D01*
X006318Y006411D02*
X006355Y006448D01*
X006428Y006448D01*
X006465Y006411D01*
X006465Y006375D01*
X006428Y006338D01*
X006465Y006301D01*
X006465Y006265D01*
X006428Y006228D01*
X006428Y006338D02*
X006392Y006338D01*
X006355Y006677D02*
X006318Y006713D01*
X006318Y006824D01*
X006465Y006824D02*
X006465Y006677D01*
X006355Y006677D01*
X006244Y006677D02*
X006097Y006677D01*
X006023Y006677D02*
X005987Y006677D01*
X005987Y006713D01*
X006023Y006713D01*
X006023Y006677D01*
X005913Y006713D02*
X005913Y006860D01*
X005766Y006713D01*
X005802Y006677D01*
X005876Y006677D01*
X005913Y006713D01*
X005766Y006713D02*
X005766Y006860D01*
X005802Y006897D01*
X005876Y006897D01*
X005913Y006860D01*
X006097Y006824D02*
X006171Y006897D01*
X006171Y006677D01*
X006207Y007015D02*
X006244Y007052D01*
X006207Y007015D02*
X006134Y007015D01*
X006097Y007052D01*
X006097Y007199D01*
X006134Y007236D01*
X006207Y007236D01*
X006244Y007199D01*
X006318Y007236D02*
X006318Y007125D01*
X006392Y007162D01*
X006428Y007162D01*
X006465Y007125D01*
X006465Y007052D01*
X006428Y007015D01*
X006355Y007015D01*
X006318Y007052D01*
X006318Y007236D02*
X006465Y007236D01*
X004811Y007259D02*
X004811Y007149D01*
X004811Y007259D02*
X004775Y007296D01*
X004665Y007296D01*
X004665Y007149D01*
X004590Y007186D02*
X004554Y007149D01*
X004480Y007149D01*
X004444Y007186D01*
X004590Y007333D01*
X004590Y007186D01*
X004444Y007186D02*
X004444Y007333D01*
X004480Y007369D01*
X004554Y007369D01*
X004590Y007333D01*
X004554Y007488D02*
X004480Y007488D01*
X004444Y007525D01*
X004444Y007671D01*
X004480Y007708D01*
X004554Y007708D01*
X004590Y007671D01*
X004665Y007598D02*
X004775Y007598D01*
X004811Y007561D01*
X004811Y007525D01*
X004775Y007488D01*
X004701Y007488D01*
X004665Y007525D01*
X004665Y007598D01*
X004738Y007671D01*
X004811Y007708D01*
X004590Y007525D02*
X004554Y007488D01*
X004296Y007369D02*
X004296Y007149D01*
X004223Y007149D02*
X004369Y007149D01*
X004223Y007296D02*
X004296Y007369D01*
X004441Y006573D02*
X004441Y006353D01*
X005134Y003330D02*
X005244Y003330D01*
X005280Y003293D01*
X005280Y003220D01*
X005244Y003183D01*
X005134Y003183D01*
X005207Y003183D02*
X005280Y003110D01*
X005355Y003110D02*
X005501Y003110D01*
X005428Y003110D02*
X005428Y003330D01*
X005355Y003256D01*
X005576Y003330D02*
X005722Y003330D01*
X005722Y003293D01*
X005576Y003146D01*
X005576Y003110D01*
X005575Y002960D02*
X005502Y002960D01*
X005465Y002923D01*
X005575Y002960D02*
X005612Y002923D01*
X005612Y002886D01*
X005465Y002740D01*
X005612Y002740D01*
X005686Y002740D02*
X005686Y002960D01*
X005796Y002886D02*
X005686Y002813D01*
X005796Y002740D01*
X005391Y002740D02*
X005355Y002740D01*
X005355Y002776D01*
X005391Y002776D01*
X005391Y002740D01*
X005280Y002740D02*
X005134Y002740D01*
X005280Y002886D01*
X005280Y002923D01*
X005244Y002960D01*
X005170Y002960D01*
X005134Y002923D01*
X005134Y003110D02*
X005134Y003330D01*
X003591Y012472D02*
X003481Y012545D01*
X003591Y012619D01*
X003481Y012692D02*
X003481Y012472D01*
X003407Y012656D02*
X003260Y012509D01*
X003260Y012472D01*
X003149Y012472D02*
X003149Y012692D01*
X003039Y012582D01*
X003186Y012582D01*
X003260Y012692D02*
X003407Y012692D01*
X003407Y012656D01*
X003370Y012811D02*
X003297Y012884D01*
X003333Y012884D02*
X003223Y012884D01*
X003223Y012811D02*
X003223Y013031D01*
X003333Y013031D01*
X003370Y012994D01*
X003370Y012921D01*
X003333Y012884D01*
X003444Y012811D02*
X003591Y012957D01*
X003591Y012994D01*
X003554Y013031D01*
X003481Y013031D01*
X003444Y012994D01*
X003444Y012811D02*
X003591Y012811D01*
X003210Y016583D02*
X003283Y016657D01*
X003283Y016803D01*
X003136Y016803D02*
X003136Y016657D01*
X003210Y016583D01*
X003062Y016620D02*
X003025Y016583D01*
X002952Y016583D01*
X002915Y016620D01*
X002915Y016767D01*
X002952Y016803D01*
X003025Y016803D01*
X003062Y016767D01*
X005566Y018330D02*
X005713Y018330D01*
X005640Y018330D02*
X005640Y018551D01*
X005566Y018477D01*
X005787Y018367D02*
X005824Y018367D01*
X005824Y018330D01*
X005787Y018330D01*
X005787Y018367D01*
X005898Y018367D02*
X005898Y018404D01*
X005935Y018440D01*
X006008Y018440D01*
X006045Y018404D01*
X006045Y018367D01*
X006008Y018330D01*
X005935Y018330D01*
X005898Y018367D01*
X005935Y018440D02*
X005898Y018477D01*
X005898Y018514D01*
X005935Y018551D01*
X006008Y018551D01*
X006045Y018514D01*
X006045Y018477D01*
X006008Y018440D01*
X006119Y018404D02*
X006229Y018477D01*
X006119Y018404D02*
X006229Y018330D01*
X006119Y018330D02*
X006119Y018551D01*
X006082Y018669D02*
X006082Y018706D01*
X006229Y018852D01*
X006229Y018889D01*
X006082Y018889D01*
X006008Y018852D02*
X005971Y018889D01*
X005861Y018889D01*
X005861Y018669D01*
X005861Y018742D02*
X005971Y018742D01*
X006008Y018779D01*
X006008Y018852D01*
X005934Y018742D02*
X006008Y018669D01*
X014698Y018601D02*
X014698Y018454D01*
X014735Y018380D02*
X014698Y018343D01*
X014698Y018270D01*
X014735Y018233D01*
X014881Y018233D01*
X014918Y018270D01*
X014918Y018343D01*
X014881Y018380D01*
X014881Y018454D02*
X014918Y018454D01*
X014881Y018454D02*
X014735Y018601D01*
X014698Y018601D01*
X015016Y018549D02*
X015016Y018475D01*
X015052Y018439D01*
X015199Y018439D01*
X015052Y018585D01*
X015199Y018585D01*
X015236Y018549D01*
X015236Y018475D01*
X015199Y018439D01*
X015199Y018364D02*
X015236Y018328D01*
X015236Y018254D01*
X015199Y018218D01*
X015052Y018364D01*
X015199Y018364D01*
X015199Y018218D02*
X015052Y018218D01*
X015016Y018254D01*
X015016Y018328D01*
X015052Y018364D01*
X015016Y018549D02*
X015052Y018585D01*
X015089Y018660D02*
X015199Y018660D01*
X015236Y018696D01*
X015236Y018806D01*
X015089Y018806D01*
X015236Y018144D02*
X015236Y017997D01*
X015236Y018070D02*
X015016Y018070D01*
X015089Y017997D01*
X017483Y018184D02*
X017519Y018147D01*
X017666Y018147D01*
X017703Y018184D01*
X017703Y018257D01*
X017666Y018294D01*
X017593Y018368D02*
X017593Y018515D01*
X017703Y018478D02*
X017483Y018478D01*
X017593Y018368D01*
X017519Y018294D02*
X017483Y018257D01*
X017483Y018184D01*
X017771Y018176D02*
X017771Y018249D01*
X017808Y018286D01*
X017955Y018139D01*
X017992Y018176D01*
X017992Y018249D01*
X017955Y018286D01*
X017808Y018286D01*
X017808Y018360D02*
X017771Y018397D01*
X017771Y018470D01*
X017808Y018507D01*
X017955Y018360D01*
X017992Y018397D01*
X017992Y018470D01*
X017955Y018507D01*
X017808Y018507D01*
X017845Y018581D02*
X017955Y018581D01*
X017992Y018618D01*
X017992Y018728D01*
X017845Y018728D01*
X017808Y018360D02*
X017955Y018360D01*
X017955Y018139D02*
X017808Y018139D01*
X017771Y018176D01*
X017771Y017991D02*
X017992Y017991D01*
X017992Y017918D02*
X017992Y018065D01*
X017845Y017918D02*
X017771Y017991D01*
D17*
X016529Y016756D02*
X019966Y016756D01*
X019966Y008943D01*
X016529Y008943D01*
X016529Y016756D01*
X016748Y016600D02*
X019748Y016600D01*
X019748Y013850D01*
X019748Y011850D01*
X019748Y009100D01*
X016748Y009100D01*
X016748Y016600D01*
X019498Y013850D02*
X019748Y013850D01*
X019958Y013850D01*
X019958Y013600D02*
X019498Y013600D01*
X019498Y013850D01*
X019498Y013600D02*
X019498Y013350D01*
X019958Y013350D01*
X019958Y013100D02*
X019498Y013100D01*
X019498Y013350D01*
X019498Y013100D02*
X019498Y012850D01*
X019958Y012850D01*
X019958Y012600D02*
X019498Y012600D01*
X019498Y012850D01*
X019498Y012600D02*
X019498Y012350D01*
X019958Y012350D01*
X019958Y012100D02*
X019498Y012100D01*
X019498Y012350D01*
X019498Y012100D02*
X019498Y011850D01*
X019748Y011850D01*
X019958Y011850D01*
X013905Y006654D02*
X013605Y006654D01*
X013755Y006654D02*
X013755Y007105D01*
X013605Y006954D01*
X013205Y006904D02*
X012905Y006904D01*
X013205Y007204D01*
X013205Y007280D01*
X013130Y007355D01*
X012980Y007355D01*
X012905Y007280D01*
X012605Y007030D02*
X012605Y006954D01*
X012530Y006879D01*
X012605Y006804D01*
X012605Y006729D01*
X012530Y006654D01*
X012380Y006654D01*
X012305Y006729D01*
X012455Y006879D02*
X012530Y006879D01*
X012605Y007030D02*
X012530Y007105D01*
X012380Y007105D01*
X012305Y007030D01*
X005898Y013352D02*
X004298Y013352D01*
X004261Y013404D01*
X004228Y013457D01*
X004198Y013513D01*
X004171Y013570D01*
X004148Y013629D01*
X004129Y013689D01*
X004113Y013750D01*
X004102Y013812D01*
X004094Y013875D01*
X004090Y013938D01*
X004091Y014001D01*
X004095Y014064D01*
X004103Y014127D01*
X004115Y014189D01*
X004131Y014250D01*
X004151Y014310D01*
X004174Y014369D01*
X004201Y014426D01*
X004232Y014481D01*
X004266Y014534D01*
X004303Y014586D01*
X004343Y014634D01*
X004387Y014680D01*
X004433Y014723D01*
X004481Y014763D01*
X004533Y014800D01*
X004586Y014834D01*
X004641Y014865D01*
X004699Y014891D01*
X004757Y014915D01*
X004817Y014934D01*
X004879Y014950D01*
X004941Y014962D01*
X005003Y014970D01*
X005066Y014974D01*
X005130Y014974D01*
X005193Y014970D01*
X005255Y014962D01*
X005317Y014950D01*
X005379Y014934D01*
X005439Y014915D01*
X005497Y014891D01*
X005555Y014865D01*
X005610Y014834D01*
X005663Y014800D01*
X005715Y014763D01*
X005763Y014723D01*
X005809Y014680D01*
X005853Y014634D01*
X005893Y014586D01*
X005930Y014534D01*
X005964Y014481D01*
X005995Y014426D01*
X006022Y014369D01*
X006045Y014310D01*
X006065Y014250D01*
X006081Y014189D01*
X006093Y014127D01*
X006101Y014064D01*
X006105Y014001D01*
X006106Y013938D01*
X006102Y013875D01*
X006094Y013812D01*
X006083Y013750D01*
X006067Y013689D01*
X006048Y013629D01*
X006025Y013570D01*
X005998Y013513D01*
X005968Y013457D01*
X005935Y013404D01*
X005898Y013352D01*
X007918Y015446D02*
X007843Y015521D01*
X007843Y015671D01*
X007918Y015746D01*
X007993Y015746D01*
X008068Y015671D01*
X008143Y015746D01*
X008219Y015746D01*
X008294Y015671D01*
X008294Y015521D01*
X008219Y015446D01*
X008419Y015384D02*
X008419Y015226D01*
X008419Y015384D02*
X008419Y016158D01*
X008419Y016384D01*
X008419Y017158D01*
X008419Y017316D01*
X008294Y017046D02*
X008294Y016746D01*
X008294Y016896D02*
X007843Y016896D01*
X007993Y016746D01*
X008044Y016346D02*
X008044Y016046D01*
X007743Y016346D01*
X007668Y016346D01*
X007593Y016271D01*
X007593Y016121D01*
X007668Y016046D01*
X008068Y015671D02*
X008068Y015596D01*
X008419Y015226D02*
X008357Y015222D01*
X008294Y015221D01*
X008232Y015225D01*
X008170Y015232D01*
X008109Y015242D01*
X008048Y015257D01*
X007988Y015275D01*
X007929Y015296D01*
X007872Y015321D01*
X007817Y015349D01*
X007763Y015380D01*
X007711Y015415D01*
X007661Y015453D01*
X007614Y015493D01*
X007569Y015537D01*
X007526Y015582D01*
X007487Y015631D01*
X007450Y015681D01*
X007417Y015734D01*
X007386Y015788D01*
X007359Y015845D01*
X007336Y015902D01*
X007316Y015961D01*
X007299Y016022D01*
X007286Y016083D01*
X007277Y016146D01*
X007271Y016208D01*
X007269Y016271D01*
X007271Y016334D01*
X007277Y016396D01*
X007286Y016459D01*
X007299Y016520D01*
X007316Y016581D01*
X007336Y016641D01*
X007360Y016700D01*
X007388Y016757D01*
X007419Y016812D01*
X007454Y016866D01*
X007491Y016917D01*
X007532Y016966D01*
X007576Y017012D01*
X007622Y017056D01*
X007671Y017097D01*
X007722Y017135D01*
X007775Y017169D01*
X007831Y017201D01*
X007888Y017228D01*
X007947Y017253D01*
X008007Y017273D01*
X008068Y017291D01*
X008130Y017304D01*
X008193Y017313D01*
X008256Y017319D01*
X008320Y017321D01*
X008384Y017319D01*
X008447Y017313D01*
X008510Y017304D01*
X008572Y017290D01*
X008633Y017273D01*
X008693Y017252D01*
X008752Y017228D01*
X008809Y017200D01*
X008865Y017168D01*
X008918Y017133D01*
X008969Y017096D01*
X008969Y015446D01*
X009050Y015446D02*
X009050Y017096D01*
X009600Y017158D02*
X009600Y017316D01*
X009600Y017158D02*
X009600Y016384D01*
X009600Y016158D01*
X009600Y015384D01*
X009600Y015226D01*
X009875Y015386D02*
X009725Y015536D01*
X010175Y015536D01*
X010175Y015386D02*
X010175Y015686D01*
X010050Y016086D02*
X009975Y016161D01*
X009975Y016311D01*
X010050Y016386D01*
X010125Y016386D01*
X010425Y016086D01*
X010425Y016386D01*
X010100Y016686D02*
X010175Y016761D01*
X010175Y016911D01*
X010100Y016986D01*
X010025Y016986D01*
X009950Y016911D01*
X009950Y016836D01*
X009950Y016911D02*
X009875Y016986D01*
X009800Y016986D01*
X009725Y016911D01*
X009725Y016761D01*
X009800Y016686D01*
X009600Y017316D02*
X009662Y017320D01*
X009725Y017321D01*
X009787Y017317D01*
X009849Y017310D01*
X009910Y017300D01*
X009971Y017285D01*
X010031Y017267D01*
X010090Y017246D01*
X010147Y017221D01*
X010202Y017193D01*
X010256Y017162D01*
X010308Y017127D01*
X010358Y017089D01*
X010405Y017049D01*
X010450Y017005D01*
X010493Y016960D01*
X010532Y016911D01*
X010569Y016861D01*
X010602Y016808D01*
X010633Y016754D01*
X010660Y016697D01*
X010683Y016640D01*
X010703Y016581D01*
X010720Y016520D01*
X010733Y016459D01*
X010742Y016396D01*
X010748Y016334D01*
X010750Y016271D01*
X010748Y016208D01*
X010742Y016146D01*
X010733Y016083D01*
X010720Y016022D01*
X010703Y015961D01*
X010683Y015901D01*
X010659Y015842D01*
X010631Y015785D01*
X010600Y015730D01*
X010565Y015676D01*
X010528Y015625D01*
X010487Y015576D01*
X010443Y015530D01*
X010397Y015486D01*
X010348Y015445D01*
X010297Y015407D01*
X010244Y015373D01*
X010188Y015341D01*
X010131Y015314D01*
X010072Y015289D01*
X010012Y015269D01*
X009951Y015251D01*
X009889Y015238D01*
X009826Y015229D01*
X009763Y015223D01*
X009699Y015221D01*
X009635Y015223D01*
X009572Y015229D01*
X009509Y015238D01*
X009447Y015252D01*
X009386Y015269D01*
X009326Y015290D01*
X009267Y015314D01*
X009210Y015342D01*
X009154Y015374D01*
X009101Y015409D01*
X009050Y015446D01*
X009050Y017096D02*
X009098Y017131D01*
X009148Y017164D01*
X009200Y017195D01*
X009254Y017222D01*
X009309Y017246D01*
X009366Y017266D01*
X009423Y017284D01*
X009481Y017298D01*
X009540Y017309D01*
X009600Y017316D01*
X008969Y015446D02*
X008921Y015411D01*
X008871Y015378D01*
X008819Y015347D01*
X008765Y015320D01*
X008710Y015296D01*
X008653Y015276D01*
X008596Y015258D01*
X008538Y015244D01*
X008479Y015233D01*
X008419Y015226D01*
X005035Y015503D02*
X005035Y016503D01*
X002035Y016503D01*
X002035Y015503D01*
X005035Y015503D01*
X004123Y016003D02*
X004125Y016043D01*
X004131Y016083D01*
X004141Y016123D01*
X004154Y016161D01*
X004172Y016197D01*
X004192Y016232D01*
X004217Y016264D01*
X004244Y016294D01*
X004274Y016321D01*
X004306Y016346D01*
X004341Y016366D01*
X004377Y016384D01*
X004415Y016397D01*
X004455Y016407D01*
X004495Y016413D01*
X004535Y016415D01*
X004575Y016413D01*
X004615Y016407D01*
X004655Y016397D01*
X004693Y016384D01*
X004729Y016366D01*
X004764Y016346D01*
X004796Y016321D01*
X004826Y016294D01*
X004853Y016264D01*
X004878Y016232D01*
X004898Y016197D01*
X004916Y016161D01*
X004929Y016123D01*
X004939Y016083D01*
X004945Y016043D01*
X004947Y016003D01*
X004945Y015963D01*
X004939Y015923D01*
X004929Y015883D01*
X004916Y015845D01*
X004898Y015809D01*
X004878Y015774D01*
X004853Y015742D01*
X004826Y015712D01*
X004796Y015685D01*
X004764Y015660D01*
X004729Y015640D01*
X004693Y015622D01*
X004655Y015609D01*
X004615Y015599D01*
X004575Y015593D01*
X004535Y015591D01*
X004495Y015593D01*
X004455Y015599D01*
X004415Y015609D01*
X004377Y015622D01*
X004341Y015640D01*
X004306Y015660D01*
X004274Y015685D01*
X004244Y015712D01*
X004217Y015742D01*
X004192Y015774D01*
X004172Y015809D01*
X004154Y015845D01*
X004141Y015883D01*
X004131Y015923D01*
X004125Y015963D01*
X004123Y016003D01*
X004085Y016003D02*
X004035Y016003D01*
X003945Y016073D01*
X003945Y016143D01*
X004085Y016003D01*
X003945Y015863D01*
X003945Y015923D01*
X004035Y016003D01*
X003795Y016003D01*
X003945Y016073D02*
X003945Y015923D01*
X002885Y015653D02*
X002885Y016353D01*
X002185Y016353D01*
X002185Y015653D01*
X002535Y015653D01*
X002535Y015328D01*
X002610Y015203D01*
X002485Y015203D02*
X002410Y015328D01*
X002535Y015328D01*
X002660Y015328D01*
X002735Y015203D01*
X002885Y015653D02*
X002535Y015653D01*
X004437Y011137D02*
X004512Y011137D01*
X004587Y011062D01*
X004662Y011137D01*
X004737Y011137D01*
X004812Y011062D01*
X004812Y010911D01*
X004737Y010836D01*
X004587Y010986D02*
X004587Y011062D01*
X004437Y011137D02*
X004362Y011062D01*
X004362Y010911D01*
X004437Y010836D01*
X004812Y009537D02*
X004812Y009236D01*
X004812Y009386D02*
X004362Y009386D01*
X004512Y009236D01*
X005023Y004610D02*
X002023Y004610D01*
X002023Y003610D01*
X005023Y003610D01*
X005023Y004610D01*
X004111Y004110D02*
X004113Y004150D01*
X004119Y004190D01*
X004129Y004230D01*
X004142Y004268D01*
X004160Y004304D01*
X004180Y004339D01*
X004205Y004371D01*
X004232Y004401D01*
X004262Y004428D01*
X004294Y004453D01*
X004329Y004473D01*
X004365Y004491D01*
X004403Y004504D01*
X004443Y004514D01*
X004483Y004520D01*
X004523Y004522D01*
X004563Y004520D01*
X004603Y004514D01*
X004643Y004504D01*
X004681Y004491D01*
X004717Y004473D01*
X004752Y004453D01*
X004784Y004428D01*
X004814Y004401D01*
X004841Y004371D01*
X004866Y004339D01*
X004886Y004304D01*
X004904Y004268D01*
X004917Y004230D01*
X004927Y004190D01*
X004933Y004150D01*
X004935Y004110D01*
X004933Y004070D01*
X004927Y004030D01*
X004917Y003990D01*
X004904Y003952D01*
X004886Y003916D01*
X004866Y003881D01*
X004841Y003849D01*
X004814Y003819D01*
X004784Y003792D01*
X004752Y003767D01*
X004717Y003747D01*
X004681Y003729D01*
X004643Y003716D01*
X004603Y003706D01*
X004563Y003700D01*
X004523Y003698D01*
X004483Y003700D01*
X004443Y003706D01*
X004403Y003716D01*
X004365Y003729D01*
X004329Y003747D01*
X004294Y003767D01*
X004262Y003792D01*
X004232Y003819D01*
X004205Y003849D01*
X004180Y003881D01*
X004160Y003916D01*
X004142Y003952D01*
X004129Y003990D01*
X004119Y004030D01*
X004113Y004070D01*
X004111Y004110D01*
X004073Y004110D02*
X003933Y003970D01*
X003933Y004030D01*
X004023Y004110D01*
X003933Y004180D01*
X003933Y004250D01*
X004073Y004110D01*
X004023Y004110D01*
X003783Y004110D01*
X003933Y004180D02*
X003933Y004030D01*
X002873Y003760D02*
X002873Y004460D01*
X002173Y004460D01*
X002173Y003760D01*
X002523Y003760D01*
X002523Y003435D01*
X002598Y003310D01*
X002473Y003310D02*
X002398Y003435D01*
X002523Y003435D01*
X002648Y003435D01*
X002723Y003310D01*
X002873Y003760D02*
X002523Y003760D01*
D18*
X008905Y017968D03*
D19*
X008669Y017948D03*
X008669Y017692D03*
X008669Y017436D03*
X009338Y017436D03*
X009338Y017692D03*
X009338Y017948D03*
D20*
X006971Y018191D02*
X006971Y018532D01*
X006690Y018532D02*
X006690Y018191D01*
X005754Y015736D02*
X005754Y015396D01*
X005474Y015396D02*
X005474Y015736D01*
X006690Y013099D02*
X006690Y012758D01*
X006971Y012758D02*
X006971Y013099D01*
X004937Y011722D02*
X004687Y011722D01*
X003587Y011722D01*
X003267Y011722D01*
X003267Y009222D01*
X003587Y009222D01*
X004687Y009222D01*
X004937Y009222D01*
X004937Y011722D01*
X004262Y012325D02*
X004262Y012665D01*
X003982Y012665D02*
X003982Y012325D01*
X003587Y011572D02*
X003587Y010972D01*
X003437Y010972D01*
X003387Y011022D01*
X003787Y011022D01*
X003737Y010972D01*
X003587Y010972D01*
X003587Y010822D01*
X003637Y010872D01*
X003687Y010922D01*
X003737Y010972D01*
X003687Y010922D02*
X003487Y010922D01*
X003537Y010872D01*
X003637Y010872D01*
X003587Y010822D02*
X003537Y010872D01*
X003487Y010922D02*
X003437Y010972D01*
X003687Y009822D02*
X004087Y009422D01*
X003537Y009622D02*
X003539Y009659D01*
X003545Y009696D01*
X003555Y009732D01*
X003568Y009767D01*
X003585Y009800D01*
X003606Y009831D01*
X003630Y009859D01*
X003657Y009885D01*
X003686Y009908D01*
X003717Y009928D01*
X003751Y009944D01*
X003786Y009957D01*
X003822Y009966D01*
X003859Y009971D01*
X003896Y009972D01*
X003933Y009969D01*
X003970Y009962D01*
X004006Y009951D01*
X004040Y009937D01*
X004073Y009919D01*
X004103Y009897D01*
X004131Y009873D01*
X004156Y009845D01*
X004179Y009815D01*
X004198Y009783D01*
X004213Y009749D01*
X004225Y009714D01*
X004233Y009678D01*
X004237Y009641D01*
X004237Y009603D01*
X004233Y009566D01*
X004225Y009530D01*
X004213Y009495D01*
X004198Y009461D01*
X004179Y009429D01*
X004156Y009399D01*
X004131Y009371D01*
X004103Y009347D01*
X004073Y009325D01*
X004040Y009307D01*
X004006Y009293D01*
X003970Y009282D01*
X003933Y009275D01*
X003896Y009272D01*
X003859Y009273D01*
X003822Y009278D01*
X003786Y009287D01*
X003751Y009300D01*
X003717Y009316D01*
X003686Y009336D01*
X003657Y009359D01*
X003630Y009385D01*
X003606Y009413D01*
X003585Y009444D01*
X003568Y009477D01*
X003555Y009512D01*
X003545Y009548D01*
X003539Y009585D01*
X003537Y009622D01*
X004013Y008571D02*
X004013Y008231D01*
X004293Y008231D02*
X004293Y008571D01*
X006424Y008029D02*
X006764Y008029D01*
X006764Y007749D02*
X006424Y007749D01*
X006975Y006297D02*
X007315Y006297D01*
X007315Y006017D02*
X006975Y006017D01*
X008378Y005161D02*
X008378Y005011D01*
X008378Y004661D01*
X008378Y004311D01*
X008378Y004161D01*
X008878Y004161D01*
X009378Y004161D01*
X009378Y004311D01*
X009378Y004661D01*
X009378Y005011D01*
X009378Y005161D01*
X008878Y005161D01*
X008378Y005161D01*
X009258Y004986D02*
X009282Y004956D01*
X009304Y004923D01*
X009323Y004888D01*
X009340Y004853D01*
X009353Y004816D01*
X009364Y004778D01*
X009372Y004739D01*
X009376Y004700D01*
X009378Y004661D01*
X009268Y004973D02*
X009242Y005004D01*
X009213Y005033D01*
X009181Y005059D01*
X009148Y005082D01*
X009113Y005102D01*
X009076Y005120D01*
X009038Y005135D01*
X008999Y005146D01*
X008959Y005154D01*
X008919Y005159D01*
X008878Y005161D01*
X008502Y004990D02*
X008477Y004959D01*
X008454Y004926D01*
X008434Y004892D01*
X008417Y004855D01*
X008403Y004818D01*
X008392Y004780D01*
X008384Y004741D01*
X008380Y004701D01*
X008378Y004661D01*
X008488Y004973D02*
X008514Y005004D01*
X008543Y005033D01*
X008575Y005059D01*
X008608Y005082D01*
X008643Y005102D01*
X008680Y005120D01*
X008718Y005135D01*
X008757Y005146D01*
X008797Y005154D01*
X008837Y005159D01*
X008878Y005161D01*
X008878Y005011D02*
X008841Y005009D01*
X008805Y005003D01*
X008770Y004994D01*
X008736Y004981D01*
X008703Y004964D01*
X008672Y004944D01*
X008644Y004921D01*
X008618Y004895D01*
X008595Y004867D01*
X008575Y004836D01*
X008558Y004803D01*
X008545Y004769D01*
X008536Y004734D01*
X008530Y004698D01*
X008528Y004661D01*
X008488Y004349D02*
X008514Y004318D01*
X008543Y004289D01*
X008575Y004263D01*
X008608Y004240D01*
X008643Y004220D01*
X008680Y004202D01*
X008718Y004187D01*
X008757Y004176D01*
X008797Y004168D01*
X008837Y004163D01*
X008878Y004161D01*
X008494Y004341D02*
X008468Y004375D01*
X008444Y004412D01*
X008424Y004451D01*
X008408Y004491D01*
X008395Y004532D01*
X008386Y004575D01*
X008380Y004618D01*
X008378Y004661D01*
X008678Y004661D02*
X008680Y004687D01*
X008685Y004713D01*
X008693Y004738D01*
X008705Y004761D01*
X008719Y004783D01*
X008737Y004802D01*
X008756Y004820D01*
X008778Y004834D01*
X008801Y004846D01*
X008826Y004854D01*
X008852Y004859D01*
X008878Y004861D01*
X009078Y004661D02*
X009076Y004635D01*
X009071Y004609D01*
X009063Y004584D01*
X009051Y004561D01*
X009037Y004539D01*
X009019Y004520D01*
X009000Y004502D01*
X008978Y004488D01*
X008955Y004476D01*
X008930Y004468D01*
X008904Y004463D01*
X008878Y004461D01*
X009258Y004336D02*
X009282Y004366D01*
X009304Y004399D01*
X009323Y004434D01*
X009340Y004469D01*
X009353Y004506D01*
X009364Y004544D01*
X009372Y004583D01*
X009376Y004622D01*
X009378Y004661D01*
X009268Y004349D02*
X009242Y004318D01*
X009213Y004289D01*
X009181Y004263D01*
X009148Y004240D01*
X009113Y004220D01*
X009076Y004202D01*
X009038Y004187D01*
X008999Y004176D01*
X008959Y004168D01*
X008919Y004163D01*
X008878Y004161D01*
X008878Y004311D02*
X008915Y004313D01*
X008951Y004319D01*
X008986Y004328D01*
X009020Y004341D01*
X009053Y004358D01*
X009084Y004378D01*
X009112Y004401D01*
X009138Y004427D01*
X009161Y004455D01*
X009181Y004486D01*
X009198Y004519D01*
X009211Y004553D01*
X009220Y004588D01*
X009226Y004624D01*
X009228Y004661D01*
X010912Y004801D02*
X011252Y004801D01*
X011252Y004521D02*
X010912Y004521D01*
X012305Y005979D02*
X013954Y005979D01*
X014017Y006529D02*
X013242Y006529D01*
X013017Y006529D01*
X012242Y006529D01*
X012084Y006529D01*
X011301Y007168D02*
X011301Y007508D01*
X011021Y007508D02*
X011021Y007168D01*
X011021Y008349D02*
X011021Y008689D01*
X011301Y008689D02*
X011301Y008349D01*
X010514Y008349D02*
X010514Y008689D01*
X010234Y008689D02*
X010234Y008349D01*
X012820Y007632D02*
X012881Y007649D01*
X012942Y007662D01*
X013005Y007671D01*
X013067Y007677D01*
X013130Y007679D01*
X013193Y007677D01*
X013255Y007671D01*
X013318Y007662D01*
X013379Y007649D01*
X013440Y007632D01*
X013383Y008191D02*
X013383Y008532D01*
X013663Y008532D02*
X013663Y008191D01*
X014377Y008187D02*
X014717Y008187D01*
X014717Y007906D02*
X014377Y007906D01*
X013440Y007632D02*
X013500Y007612D01*
X013559Y007588D01*
X013616Y007560D01*
X013671Y007529D01*
X013725Y007494D01*
X013776Y007457D01*
X013825Y007416D01*
X013871Y007372D01*
X013915Y007326D01*
X013956Y007277D01*
X013994Y007226D01*
X014028Y007173D01*
X014060Y007117D01*
X014087Y007060D01*
X014112Y007001D01*
X014132Y006941D01*
X014150Y006880D01*
X014163Y006818D01*
X014172Y006755D01*
X014178Y006692D01*
X014180Y006628D01*
X014178Y006564D01*
X014172Y006501D01*
X014163Y006438D01*
X014149Y006376D01*
X014132Y006315D01*
X014111Y006255D01*
X014087Y006196D01*
X014059Y006139D01*
X014027Y006083D01*
X013992Y006030D01*
X013955Y005979D01*
X014017Y006529D02*
X014175Y006529D01*
X012820Y007632D02*
X012760Y007612D01*
X012701Y007588D01*
X012644Y007560D01*
X012589Y007529D01*
X012535Y007494D01*
X012484Y007457D01*
X012435Y007416D01*
X012389Y007372D01*
X012345Y007326D01*
X012304Y007277D01*
X012266Y007226D01*
X012232Y007173D01*
X012201Y007117D01*
X012173Y007060D01*
X012148Y007001D01*
X012128Y006941D01*
X012110Y006880D01*
X012097Y006818D01*
X012088Y006755D01*
X012082Y006692D01*
X012080Y006628D01*
X012082Y006564D01*
X012088Y006501D01*
X012097Y006438D01*
X012111Y006376D01*
X012128Y006315D01*
X012149Y006255D01*
X012173Y006196D01*
X012201Y006139D01*
X012233Y006083D01*
X012268Y006030D01*
X012305Y005979D01*
X015519Y010702D02*
X015859Y010702D01*
X015859Y010982D02*
X015519Y010982D01*
X018035Y008407D02*
X018035Y007907D01*
X018285Y007657D01*
X019785Y007657D01*
X020035Y007407D01*
X020035Y006907D01*
X019785Y006657D01*
X018285Y006657D01*
X018035Y006407D01*
X018035Y005907D01*
X018285Y005657D01*
X019785Y005657D01*
X020035Y005407D01*
X020035Y004907D01*
X019785Y004657D01*
X020035Y004407D01*
X020035Y003907D01*
X019785Y003657D01*
X018285Y003657D01*
X018035Y003907D01*
X018035Y004407D01*
X018285Y004657D01*
X019785Y004657D01*
X019785Y005657D02*
X020035Y005907D01*
X020035Y006407D01*
X019785Y006657D01*
X019785Y007657D02*
X020035Y007907D01*
X020035Y008407D01*
X019785Y008657D01*
X018285Y008657D01*
X018035Y008407D01*
X018285Y007657D02*
X018035Y007407D01*
X018035Y006907D01*
X018285Y006657D01*
X018285Y005657D02*
X018035Y005407D01*
X018035Y004907D01*
X018285Y004657D01*
X012512Y011922D02*
X012172Y011922D01*
X012172Y012202D02*
X012512Y012202D01*
X011301Y013073D02*
X011301Y013413D01*
X011021Y013413D02*
X011021Y013073D01*
X010120Y013467D02*
X010120Y013807D01*
X009840Y013807D02*
X009840Y013467D01*
X011926Y014648D02*
X011926Y014988D01*
X012207Y014988D02*
X012207Y014648D01*
X015519Y014717D02*
X015859Y014717D01*
X015859Y014998D02*
X015519Y014998D01*
X015886Y017712D02*
X015886Y018112D01*
X014536Y018362D02*
X014538Y018435D01*
X014544Y018508D01*
X014554Y018580D01*
X014568Y018652D01*
X014585Y018723D01*
X014607Y018793D01*
X014632Y018862D01*
X014661Y018929D01*
X014693Y018994D01*
X014729Y019058D01*
X014769Y019120D01*
X014811Y019179D01*
X014857Y019236D01*
X014906Y019290D01*
X014958Y019342D01*
X015012Y019391D01*
X015069Y019437D01*
X015128Y019479D01*
X015190Y019519D01*
X015254Y019555D01*
X015319Y019587D01*
X015386Y019616D01*
X015455Y019641D01*
X015525Y019663D01*
X015596Y019680D01*
X015668Y019694D01*
X015740Y019704D01*
X015813Y019710D01*
X015886Y019712D01*
X015959Y019710D01*
X016032Y019704D01*
X016104Y019694D01*
X016176Y019680D01*
X016247Y019663D01*
X016317Y019641D01*
X016386Y019616D01*
X016453Y019587D01*
X016518Y019555D01*
X016582Y019519D01*
X016644Y019479D01*
X016703Y019437D01*
X016760Y019391D01*
X016814Y019342D01*
X016866Y019290D01*
X016915Y019236D01*
X016961Y019179D01*
X017003Y019120D01*
X017043Y019058D01*
X017079Y018994D01*
X017111Y018929D01*
X017140Y018862D01*
X017165Y018793D01*
X017187Y018723D01*
X017204Y018652D01*
X017218Y018580D01*
X017228Y018508D01*
X017234Y018435D01*
X017236Y018362D01*
X017234Y018289D01*
X017228Y018216D01*
X017218Y018144D01*
X017204Y018072D01*
X017187Y018001D01*
X017165Y017931D01*
X017140Y017862D01*
X017111Y017795D01*
X017079Y017730D01*
X017043Y017666D01*
X017003Y017604D01*
X016961Y017545D01*
X016915Y017488D01*
X016866Y017434D01*
X016814Y017382D01*
X016760Y017333D01*
X016703Y017287D01*
X016644Y017245D01*
X016582Y017205D01*
X016518Y017169D01*
X016453Y017137D01*
X016386Y017108D01*
X016317Y017083D01*
X016247Y017061D01*
X016176Y017044D01*
X016104Y017030D01*
X016032Y017020D01*
X015959Y017014D01*
X015886Y017012D01*
X015813Y017014D01*
X015740Y017020D01*
X015668Y017030D01*
X015596Y017044D01*
X015525Y017061D01*
X015455Y017083D01*
X015386Y017108D01*
X015319Y017137D01*
X015254Y017169D01*
X015190Y017205D01*
X015128Y017245D01*
X015069Y017287D01*
X015012Y017333D01*
X014958Y017382D01*
X014906Y017434D01*
X014857Y017488D01*
X014811Y017545D01*
X014769Y017604D01*
X014729Y017666D01*
X014693Y017730D01*
X014661Y017795D01*
X014632Y017862D01*
X014607Y017931D01*
X014585Y018001D01*
X014568Y018072D01*
X014554Y018144D01*
X014544Y018216D01*
X014538Y018289D01*
X014536Y018362D01*
X015386Y018462D02*
X016386Y018462D01*
X016386Y018662D01*
X015886Y018662D01*
X015386Y018662D01*
X015386Y018462D01*
X015886Y018662D02*
X015886Y019012D01*
X015886Y019262D02*
X015886Y019562D01*
X015736Y019412D02*
X016036Y019412D01*
X018220Y018262D02*
X018220Y018062D01*
X018720Y018062D01*
X019220Y018062D01*
X019220Y018262D01*
X018220Y018262D01*
X017370Y018362D02*
X017372Y018435D01*
X017378Y018508D01*
X017388Y018580D01*
X017402Y018652D01*
X017419Y018723D01*
X017441Y018793D01*
X017466Y018862D01*
X017495Y018929D01*
X017527Y018994D01*
X017563Y019058D01*
X017603Y019120D01*
X017645Y019179D01*
X017691Y019236D01*
X017740Y019290D01*
X017792Y019342D01*
X017846Y019391D01*
X017903Y019437D01*
X017962Y019479D01*
X018024Y019519D01*
X018088Y019555D01*
X018153Y019587D01*
X018220Y019616D01*
X018289Y019641D01*
X018359Y019663D01*
X018430Y019680D01*
X018502Y019694D01*
X018574Y019704D01*
X018647Y019710D01*
X018720Y019712D01*
X018793Y019710D01*
X018866Y019704D01*
X018938Y019694D01*
X019010Y019680D01*
X019081Y019663D01*
X019151Y019641D01*
X019220Y019616D01*
X019287Y019587D01*
X019352Y019555D01*
X019416Y019519D01*
X019478Y019479D01*
X019537Y019437D01*
X019594Y019391D01*
X019648Y019342D01*
X019700Y019290D01*
X019749Y019236D01*
X019795Y019179D01*
X019837Y019120D01*
X019877Y019058D01*
X019913Y018994D01*
X019945Y018929D01*
X019974Y018862D01*
X019999Y018793D01*
X020021Y018723D01*
X020038Y018652D01*
X020052Y018580D01*
X020062Y018508D01*
X020068Y018435D01*
X020070Y018362D01*
X020068Y018289D01*
X020062Y018216D01*
X020052Y018144D01*
X020038Y018072D01*
X020021Y018001D01*
X019999Y017931D01*
X019974Y017862D01*
X019945Y017795D01*
X019913Y017730D01*
X019877Y017666D01*
X019837Y017604D01*
X019795Y017545D01*
X019749Y017488D01*
X019700Y017434D01*
X019648Y017382D01*
X019594Y017333D01*
X019537Y017287D01*
X019478Y017245D01*
X019416Y017205D01*
X019352Y017169D01*
X019287Y017137D01*
X019220Y017108D01*
X019151Y017083D01*
X019081Y017061D01*
X019010Y017044D01*
X018938Y017030D01*
X018866Y017020D01*
X018793Y017014D01*
X018720Y017012D01*
X018647Y017014D01*
X018574Y017020D01*
X018502Y017030D01*
X018430Y017044D01*
X018359Y017061D01*
X018289Y017083D01*
X018220Y017108D01*
X018153Y017137D01*
X018088Y017169D01*
X018024Y017205D01*
X017962Y017245D01*
X017903Y017287D01*
X017846Y017333D01*
X017792Y017382D01*
X017740Y017434D01*
X017691Y017488D01*
X017645Y017545D01*
X017603Y017604D01*
X017563Y017666D01*
X017527Y017730D01*
X017495Y017795D01*
X017466Y017862D01*
X017441Y017931D01*
X017419Y018001D01*
X017402Y018072D01*
X017388Y018144D01*
X017378Y018216D01*
X017372Y018289D01*
X017370Y018362D01*
X018720Y018612D02*
X018720Y019012D01*
X018720Y018062D02*
X018720Y017712D01*
X018720Y017462D02*
X018720Y017162D01*
X018870Y017312D02*
X018570Y017312D01*
X005362Y006263D02*
X005362Y006113D01*
X005362Y005763D01*
X005362Y005413D01*
X005362Y005263D01*
X004862Y005263D01*
X004362Y005263D01*
X004362Y005413D01*
X004362Y005763D01*
X004362Y006113D01*
X004362Y006263D01*
X004862Y006263D01*
X005362Y006263D01*
X005242Y006088D02*
X005266Y006058D01*
X005288Y006025D01*
X005307Y005990D01*
X005324Y005955D01*
X005337Y005918D01*
X005348Y005880D01*
X005356Y005841D01*
X005360Y005802D01*
X005362Y005763D01*
X005252Y006075D02*
X005226Y006106D01*
X005197Y006135D01*
X005165Y006161D01*
X005132Y006184D01*
X005097Y006204D01*
X005060Y006222D01*
X005022Y006237D01*
X004983Y006248D01*
X004943Y006256D01*
X004903Y006261D01*
X004862Y006263D01*
X004486Y006092D02*
X004461Y006061D01*
X004438Y006028D01*
X004418Y005994D01*
X004401Y005957D01*
X004387Y005920D01*
X004376Y005882D01*
X004368Y005843D01*
X004364Y005803D01*
X004362Y005763D01*
X004472Y006075D02*
X004498Y006106D01*
X004527Y006135D01*
X004559Y006161D01*
X004592Y006184D01*
X004627Y006204D01*
X004664Y006222D01*
X004702Y006237D01*
X004741Y006248D01*
X004781Y006256D01*
X004821Y006261D01*
X004862Y006263D01*
X004862Y006113D02*
X004825Y006111D01*
X004789Y006105D01*
X004754Y006096D01*
X004720Y006083D01*
X004687Y006066D01*
X004656Y006046D01*
X004628Y006023D01*
X004602Y005997D01*
X004579Y005969D01*
X004559Y005938D01*
X004542Y005905D01*
X004529Y005871D01*
X004520Y005836D01*
X004514Y005800D01*
X004512Y005763D01*
X004472Y005451D02*
X004498Y005420D01*
X004527Y005391D01*
X004559Y005365D01*
X004592Y005342D01*
X004627Y005322D01*
X004664Y005304D01*
X004702Y005289D01*
X004741Y005278D01*
X004781Y005270D01*
X004821Y005265D01*
X004862Y005263D01*
X004478Y005443D02*
X004452Y005477D01*
X004428Y005514D01*
X004408Y005553D01*
X004392Y005593D01*
X004379Y005634D01*
X004370Y005677D01*
X004364Y005720D01*
X004362Y005763D01*
X004662Y005763D02*
X004664Y005789D01*
X004669Y005815D01*
X004677Y005840D01*
X004689Y005863D01*
X004703Y005885D01*
X004721Y005904D01*
X004740Y005922D01*
X004762Y005936D01*
X004785Y005948D01*
X004810Y005956D01*
X004836Y005961D01*
X004862Y005963D01*
X005062Y005763D02*
X005060Y005737D01*
X005055Y005711D01*
X005047Y005686D01*
X005035Y005663D01*
X005021Y005641D01*
X005003Y005622D01*
X004984Y005604D01*
X004962Y005590D01*
X004939Y005578D01*
X004914Y005570D01*
X004888Y005565D01*
X004862Y005563D01*
X005242Y005438D02*
X005266Y005468D01*
X005288Y005501D01*
X005307Y005536D01*
X005324Y005571D01*
X005337Y005608D01*
X005348Y005646D01*
X005356Y005685D01*
X005360Y005724D01*
X005362Y005763D01*
X005252Y005451D02*
X005226Y005420D01*
X005197Y005391D01*
X005165Y005365D01*
X005132Y005342D01*
X005097Y005322D01*
X005060Y005304D01*
X005022Y005289D01*
X004983Y005278D01*
X004943Y005270D01*
X004903Y005265D01*
X004862Y005263D01*
X004862Y005413D02*
X004899Y005415D01*
X004935Y005421D01*
X004970Y005430D01*
X005004Y005443D01*
X005037Y005460D01*
X005068Y005480D01*
X005096Y005503D01*
X005122Y005529D01*
X005145Y005557D01*
X005165Y005588D01*
X005182Y005621D01*
X005195Y005655D01*
X005204Y005690D01*
X005210Y005726D01*
X005212Y005763D01*
X005873Y004328D02*
X006213Y004328D01*
X006213Y004048D02*
X005873Y004048D01*
X004638Y003147D02*
X004298Y003147D01*
X004298Y002867D02*
X004638Y002867D01*
X003654Y005584D02*
X003314Y005584D01*
X003314Y005864D02*
X003654Y005864D01*
D21*
X004153Y008151D03*
X004153Y008651D03*
X004122Y012245D03*
X004122Y012745D03*
X006830Y012678D03*
X006830Y013178D03*
X005614Y015316D03*
X005614Y015816D03*
X006830Y018112D03*
X006830Y018612D03*
X009980Y013887D03*
X009980Y013387D03*
X011161Y013493D03*
X011161Y012993D03*
X012067Y014568D03*
X012067Y015068D03*
X011161Y008769D03*
X011161Y008269D03*
X011161Y007588D03*
X011161Y007088D03*
X010374Y008269D03*
X010374Y008769D03*
X013523Y008612D03*
X013523Y008112D03*
D22*
X011159Y014587D03*
X011159Y015047D03*
X005336Y007963D03*
X005336Y007503D03*
D23*
X006917Y007021D03*
X007377Y007021D03*
X009358Y012454D03*
X009818Y012454D03*
X012032Y012852D03*
X012492Y012852D03*
X015457Y014072D03*
X015917Y014072D03*
X015920Y011627D03*
X015460Y011627D03*
D24*
X015439Y010842D03*
X015939Y010842D03*
X014797Y008047D03*
X014297Y008047D03*
X011332Y004661D03*
X010832Y004661D03*
X007395Y006157D03*
X006895Y006157D03*
X006844Y007889D03*
X006344Y007889D03*
X003734Y005724D03*
X003234Y005724D03*
X005793Y004188D03*
X006293Y004188D03*
X004718Y003007D03*
X004218Y003007D03*
X012092Y012062D03*
X012592Y012062D03*
X015439Y014858D03*
X015939Y014858D03*
D25*
X019733Y012855D03*
D26*
X019535Y008157D03*
X018535Y008157D03*
X018535Y007157D03*
X019535Y007157D03*
X019535Y006157D03*
X018535Y006157D03*
X018535Y005157D03*
X019535Y005157D03*
X019535Y004157D03*
X018535Y004157D03*
D27*
X015886Y018162D03*
X018720Y018562D03*
D28*
X008228Y004661D03*
X004212Y005763D03*
D29*
X004087Y005763D03*
X008103Y004661D03*
M02*
