%
M48
M72
T01C0.0236
T02C0.0400
%
T01
X4031Y3051
X4031Y3851
X4031Y5551
X4031Y6351
X4031Y12051
X4031Y12851
X4031Y14551
X4031Y15351
X4031Y21051
X4031Y21851
X4031Y23551
X4031Y24351
X4031Y30051
X4031Y30851
X4031Y32551
X4031Y33351
X24431Y17751
X25231Y17751
X26931Y17751
X27731Y17751
X27731Y10751
X26931Y10751
X25231Y10751
X24431Y10751
X24431Y3751
X25231Y3751
X26931Y3751
X27731Y3751
X29431Y35751
X30231Y35751
X31931Y35751
X32731Y35751
T02
X1531Y1251
X1531Y2251
X1531Y3251
X1531Y4251
X1531Y5251
X1531Y6251
X1531Y7251
X1531Y8251
X1531Y10251
X1531Y11251
X1531Y12251
X1531Y13251
X1531Y14251
X1531Y15251
X1531Y16251
X1531Y17251
X1531Y19251
X1531Y20251
X1531Y21251
X1531Y22251
X1531Y23251
X1531Y24251
X1531Y25251
X1531Y26251
X1531Y28251
X1531Y29251
X1531Y30251
X1531Y31251
X1531Y32251
X1531Y33251
X1531Y34251
X1531Y35251
X2531Y37251
X2531Y38251
X6531Y38251
X6531Y37251
X6531Y35251
X6531Y34251
X6531Y33251
X6531Y32251
X6531Y31251
X6531Y30251
X6531Y29251
X6531Y28251
X6531Y26251
X6531Y25251
X6531Y24251
X6531Y23251
X6531Y22251
X6531Y21251
X6531Y20251
X6531Y19251
X6531Y17251
X6531Y16251
X6531Y15251
X6531Y14251
X6531Y13251
X6531Y12251
X6531Y11251
X6531Y10251
X6531Y8251
X6531Y7251
X6531Y6251
X6531Y5251
X6531Y4251
X6531Y3251
X6531Y2251
X6531Y1251
X8531Y1251
X8531Y2251
X8531Y3251
X8531Y4251
X8531Y5251
X8531Y6251
X8531Y7251
X8531Y9251
X8531Y10251
X8531Y11251
X8531Y12251
X8531Y13251
X8531Y14251
X8531Y15251
X8531Y17251
X8531Y18251
X8531Y19251
X8531Y20251
X8531Y21251
X8531Y22251
X8531Y23251
X8531Y25251
X8531Y26251
X8531Y27251
X8531Y28251
X8531Y29251
X8531Y30251
X8531Y31251
X8531Y33251
X9531Y33251
X11531Y33251
X11531Y34251
X11531Y35251
X10531Y37251
X10531Y38251
X14531Y38251
X14531Y37251
X15531Y35251
X15531Y34251
X15531Y33251
X15531Y32251
X15531Y31251
X15531Y30251
X15531Y29251
X15531Y27251
X15531Y26251
X15531Y25251
X15531Y24251
X15531Y23251
X15531Y22251
X15531Y21251
X15531Y19251
X15531Y18251
X15531Y17251
X15531Y16251
X15531Y14251
X15531Y13251
X15531Y12251
X15531Y11251
X15531Y9251
X15531Y8251
X15531Y7251
X15531Y6251
X15531Y4251
X15531Y3251
X15531Y2251
X15531Y1251
X13531Y1251
X13531Y2251
X13531Y3251
X13531Y4251
X13531Y5251
X13531Y6251
X13531Y7251
X13531Y9251
X13531Y10251
X13531Y11251
X13531Y12251
X13531Y13251
X13531Y14251
X13531Y15251
X13531Y17251
X13531Y18251
X13531Y19251
X13531Y20251
X13531Y21251
X13531Y22251
X13531Y23251
X13531Y25251
X13531Y26251
X13531Y27251
X13531Y28251
X13531Y29251
X13531Y30251
X13531Y31251
X18531Y37251
X18531Y38251
X20531Y35251
X20531Y34251
X20531Y33251
X20531Y32251
X20531Y31251
X20531Y30251
X20531Y29251
X20531Y27251
X20531Y26251
X20531Y25251
X20531Y24251
X20531Y23251
X20531Y22251
X20531Y21251
X20531Y19251
X20531Y18251
X20531Y17251
X20531Y16251
X20531Y14251
X20531Y13251
X20531Y12251
X20531Y11251
X20531Y9251
X20531Y8251
X20531Y7251
X20531Y6251
X20531Y4251
X20531Y3251
X20531Y2251
X20531Y1251
X22531Y1251
X23531Y1251
X24531Y1251
X25531Y1251
X26531Y1251
X27531Y1251
X28531Y1251
X29531Y1251
X31531Y1251
X31531Y2251
X31531Y3251
X31531Y5251
X31531Y6251
X31531Y7251
X31531Y9251
X31531Y10251
X31531Y11251
X31531Y13251
X31531Y14251
X31531Y15251
X29531Y15251
X28531Y15251
X27531Y15251
X26531Y15251
X25531Y15251
X24531Y15251
X23531Y15251
X22531Y15251
X22531Y13251
X23531Y13251
X24531Y13251
X25531Y13251
X26531Y13251
X27531Y13251
X28531Y13251
X29531Y13251
X31531Y17251
X31531Y18251
X31531Y19251
X31531Y21251
X31531Y22251
X31531Y23251
X29531Y25251
X29531Y26251
X29531Y27251
X29531Y28251
X29531Y29251
X29531Y30251
X29531Y31251
X27531Y31251
X27531Y30251
X27531Y29251
X27531Y28251
X27531Y27251
X27531Y26251
X27531Y25251
X26531Y23251
X26531Y22251
X26531Y20251
X27531Y20251
X28531Y20251
X29531Y20251
X25531Y20251
X24531Y20251
X23531Y20251
X22531Y20251
X22531Y22251
X22531Y23251
X22531Y25251
X22531Y26251
X22531Y27251
X22531Y28251
X22531Y29251
X22531Y30251
X22531Y31251
X22531Y33251
X23531Y33251
X24531Y33251
X25531Y33251
X27531Y33251
X28531Y33251
X29531Y33251
X30531Y33251
X31531Y33251
X32531Y33251
X33531Y33251
X34531Y33251
X34531Y31251
X34531Y30251
X34531Y29251
X34531Y28251
X34531Y27251
X34531Y26251
X34531Y25251
X34531Y23251
X34531Y22251
X34531Y21251
X34531Y19251
X34531Y18251
X34531Y17251
X34531Y15251
X34531Y14251
X34531Y13251
X34531Y11251
X34531Y10251
X34531Y9251
X34531Y7251
X34531Y6251
X34531Y5251
X34531Y3251
X34531Y2251
X34531Y1251
X36531Y1251
X36531Y2251
X36531Y3251
X36531Y5251
X36531Y6251
X36531Y7251
X36531Y9251
X36531Y10251
X36531Y11251
X36531Y13251
X36531Y14251
X36531Y15251
X36531Y17251
X36531Y18251
X36531Y19251
X36531Y21251
X36531Y22251
X36531Y24251
X36531Y25251
X36531Y27251
X36531Y28251
X36531Y30251
X36531Y31251
X36531Y33251
X36531Y34251
X36531Y36251
X36531Y37251
X34531Y38251
X33531Y38251
X32531Y38251
X31531Y38251
X30531Y38251
X29531Y38251
X28531Y38251
X27531Y38251
X25531Y38251
X24531Y38251
X23531Y38251
X22531Y38251
X22531Y8251
X23531Y8251
X24531Y8251
X25531Y8251
X26531Y8251
X27531Y8251
X28531Y8251
X29531Y8251
X29531Y6251
X28531Y6251
X27531Y6251
X26531Y6251
X25531Y6251
X24531Y6251
X23531Y6251
X22531Y6251
M30
