G75*
%MOIN*%
%OFA0B0*%
%FSLAX25Y25*%
%IPPOS*%
%LPD*%
%AMOC8*
5,1,8,0,0,1.08239X$1,22.5*
%
%ADD10C,0.01000*%
%ADD11C,0.00500*%
D10*
X0005312Y0002513D02*
X0075312Y0002513D01*
X0145312Y0002513D01*
X0215312Y0002513D01*
X0305312Y0002513D01*
X0355312Y0002513D01*
X0395312Y0002513D01*
X0395312Y0042513D01*
X0395312Y0082513D01*
X0395312Y0122513D01*
X0395312Y0162513D01*
X0395312Y0202513D01*
X0395312Y0232513D01*
X0355312Y0232513D01*
X0355312Y0242513D01*
X0305312Y0242513D01*
X0295312Y0242513D01*
X0285312Y0242513D01*
X0285312Y0322513D01*
X0265312Y0322513D01*
X0265312Y0392513D01*
X0215312Y0392513D01*
X0175312Y0392513D01*
X0175312Y0362513D01*
X0215312Y0362513D01*
X0215312Y0392513D01*
X0215312Y0362513D02*
X0215312Y0322513D01*
X0265312Y0322513D01*
X0285312Y0322513D02*
X0355312Y0322513D01*
X0395312Y0322513D01*
X0395312Y0292513D01*
X0355312Y0292513D01*
X0355312Y0262513D01*
X0395312Y0262513D01*
X0395312Y0232513D01*
X0395312Y0262513D02*
X0395312Y0292513D01*
X0395312Y0322513D02*
X0395312Y0352513D01*
X0355312Y0352513D01*
X0355312Y0322513D01*
X0355312Y0292513D01*
X0355312Y0262513D02*
X0355312Y0242513D01*
X0355312Y0232513D02*
X0355312Y0202513D01*
X0305312Y0202513D01*
X0305312Y0212513D01*
X0295312Y0212513D01*
X0295312Y0242513D01*
X0285312Y0242513D02*
X0255312Y0242513D01*
X0255312Y0212513D01*
X0295312Y0212513D01*
X0305312Y0212513D02*
X0305312Y0242513D01*
X0305312Y0202513D02*
X0305312Y0162513D01*
X0355312Y0162513D01*
X0355312Y0122513D01*
X0305312Y0122513D01*
X0305312Y0142513D01*
X0215312Y0142513D01*
X0215312Y0102513D01*
X0145312Y0102513D01*
X0145312Y0152513D01*
X0215312Y0152513D01*
X0215312Y0202513D01*
X0215312Y0212513D01*
X0255312Y0212513D01*
X0255312Y0242513D02*
X0215312Y0242513D01*
X0215312Y0212513D01*
X0215312Y0202513D02*
X0145312Y0202513D01*
X0145312Y0242513D01*
X0145312Y0282513D01*
X0215312Y0282513D01*
X0215312Y0322513D01*
X0215312Y0282513D02*
X0215312Y0242513D01*
X0145312Y0242513D02*
X0075312Y0242513D01*
X0075312Y0182513D01*
X0005312Y0182513D01*
X0005312Y0272513D01*
X0075312Y0272513D01*
X0075312Y0322513D01*
X0075312Y0362513D01*
X0095312Y0362513D01*
X0095312Y0392513D01*
X0135312Y0392513D01*
X0175312Y0392513D01*
X0175312Y0362513D02*
X0145312Y0362513D01*
X0135312Y0362513D01*
X0135312Y0392513D01*
X0135312Y0362513D02*
X0105312Y0362513D01*
X0105312Y0322513D01*
X0145312Y0322513D01*
X0145312Y0362513D01*
X0105312Y0362513D02*
X0095312Y0362513D01*
X0075312Y0362513D02*
X0055312Y0362513D01*
X0055312Y0392513D01*
X0095312Y0392513D01*
X0055312Y0392513D02*
X0015312Y0392513D01*
X0015312Y0362513D01*
X0055312Y0362513D01*
X0015312Y0362513D02*
X0005312Y0362513D01*
X0005312Y0272513D01*
X0075312Y0272513D02*
X0075312Y0242513D01*
X0075312Y0182513D02*
X0075312Y0162513D01*
X0145312Y0162513D01*
X0145312Y0202513D01*
X0145312Y0162513D02*
X0145312Y0152513D01*
X0145312Y0102513D02*
X0145312Y0082513D01*
X0075312Y0082513D01*
X0075312Y0002513D01*
X0005312Y0002513D02*
X0005312Y0092513D01*
X0075312Y0092513D01*
X0075312Y0162513D01*
X0075312Y0092513D02*
X0075312Y0082513D01*
X0005312Y0092513D02*
X0005312Y0182513D01*
X0145312Y0282513D02*
X0145312Y0322513D01*
X0105312Y0322513D02*
X0075312Y0322513D01*
X0215312Y0152513D02*
X0215312Y0142513D01*
X0215312Y0102513D02*
X0215312Y0072513D01*
X0305312Y0072513D01*
X0305312Y0042513D01*
X0355312Y0042513D01*
X0395312Y0042513D01*
X0395312Y0082513D02*
X0355312Y0082513D01*
X0355312Y0122513D01*
X0395312Y0122513D01*
X0395312Y0162513D02*
X0355312Y0162513D01*
X0355312Y0202513D01*
X0395312Y0202513D01*
X0305312Y0162513D02*
X0305312Y0142513D01*
X0305312Y0122513D02*
X0305312Y0082513D01*
X0355312Y0082513D01*
X0355312Y0042513D01*
X0355312Y0002513D01*
X0305312Y0002513D02*
X0305312Y0042513D01*
X0305312Y0072513D02*
X0305312Y0082513D01*
X0215312Y0072513D02*
X0215312Y0052513D01*
X0145312Y0052513D01*
X0145312Y0002513D01*
X0145312Y0052513D02*
X0145312Y0082513D01*
X0215312Y0052513D02*
X0215312Y0002513D01*
X0355312Y0352513D02*
X0355312Y0382513D01*
X0355312Y0392513D01*
X0265312Y0392513D01*
X0355312Y0382513D02*
X0395312Y0382513D01*
X0395312Y0352513D01*
D11*
X0378366Y0195833D02*
X0378366Y0191964D01*
X0372562Y0191964D01*
X0372562Y0195833D01*
X0375464Y0193898D02*
X0375464Y0191964D01*
X0376431Y0184233D02*
X0375464Y0183265D01*
X0375464Y0180363D01*
X0372562Y0180363D02*
X0378366Y0180363D01*
X0378366Y0183265D01*
X0377399Y0184233D01*
X0376431Y0184233D01*
X0375464Y0183265D02*
X0374497Y0184233D01*
X0373529Y0184233D01*
X0372562Y0183265D01*
X0372562Y0180363D01*
X0373529Y0172632D02*
X0372562Y0171665D01*
X0372562Y0169730D01*
X0373529Y0168763D01*
X0377399Y0168763D01*
X0378366Y0169730D01*
X0378366Y0171665D01*
X0377399Y0172632D01*
X0378366Y0155833D02*
X0378366Y0151964D01*
X0372562Y0151964D01*
X0372562Y0155833D01*
X0375464Y0153898D02*
X0375464Y0151964D01*
X0376431Y0144233D02*
X0375464Y0143265D01*
X0375464Y0140363D01*
X0372562Y0140363D02*
X0378366Y0140363D01*
X0378366Y0143265D01*
X0377399Y0144233D01*
X0376431Y0144233D01*
X0375464Y0143265D02*
X0374497Y0144233D01*
X0373529Y0144233D01*
X0372562Y0143265D01*
X0372562Y0140363D01*
X0373529Y0132632D02*
X0372562Y0131665D01*
X0372562Y0129730D01*
X0373529Y0128763D01*
X0377399Y0128763D01*
X0378366Y0129730D01*
X0378366Y0131665D01*
X0377399Y0132632D01*
X0378366Y0115833D02*
X0378366Y0111964D01*
X0372562Y0111964D01*
X0372562Y0115833D01*
X0375464Y0113898D02*
X0375464Y0111964D01*
X0376431Y0104233D02*
X0375464Y0103265D01*
X0375464Y0100363D01*
X0372562Y0100363D02*
X0378366Y0100363D01*
X0378366Y0103265D01*
X0377399Y0104233D01*
X0376431Y0104233D01*
X0375464Y0103265D02*
X0374497Y0104233D01*
X0373529Y0104233D01*
X0372562Y0103265D01*
X0372562Y0100363D01*
X0373529Y0092632D02*
X0372562Y0091665D01*
X0372562Y0089730D01*
X0373529Y0088763D01*
X0377399Y0088763D01*
X0378366Y0089730D01*
X0378366Y0091665D01*
X0377399Y0092632D01*
X0378366Y0075833D02*
X0378366Y0071964D01*
X0372562Y0071964D01*
X0372562Y0075833D01*
X0375464Y0073898D02*
X0375464Y0071964D01*
X0376431Y0064233D02*
X0375464Y0063265D01*
X0375464Y0060363D01*
X0372562Y0060363D02*
X0378366Y0060363D01*
X0378366Y0063265D01*
X0377399Y0064233D01*
X0376431Y0064233D01*
X0375464Y0063265D02*
X0374497Y0064233D01*
X0373529Y0064233D01*
X0372562Y0063265D01*
X0372562Y0060363D01*
X0373529Y0052632D02*
X0372562Y0051665D01*
X0372562Y0049730D01*
X0373529Y0048763D01*
X0377399Y0048763D01*
X0378366Y0049730D01*
X0378366Y0051665D01*
X0377399Y0052632D01*
X0378366Y0035833D02*
X0378366Y0031964D01*
X0372562Y0031964D01*
X0372562Y0035833D01*
X0375464Y0033898D02*
X0375464Y0031964D01*
X0376431Y0024233D02*
X0375464Y0023265D01*
X0375464Y0020363D01*
X0372562Y0020363D02*
X0378366Y0020363D01*
X0378366Y0023265D01*
X0377399Y0024233D01*
X0376431Y0024233D01*
X0375464Y0023265D02*
X0374497Y0024233D01*
X0373529Y0024233D01*
X0372562Y0023265D01*
X0372562Y0020363D01*
X0373529Y0012632D02*
X0372562Y0011665D01*
X0372562Y0009730D01*
X0373529Y0008763D01*
X0377399Y0008763D01*
X0378366Y0009730D01*
X0378366Y0011665D01*
X0377399Y0012632D01*
X0127399Y0328763D02*
X0123529Y0328763D01*
X0122562Y0329730D01*
X0122562Y0331665D01*
X0123529Y0332632D01*
X0127399Y0332632D02*
X0128366Y0331665D01*
X0128366Y0329730D01*
X0127399Y0328763D01*
X0128366Y0340363D02*
X0122562Y0340363D01*
X0122562Y0343265D01*
X0123529Y0344233D01*
X0124497Y0344233D01*
X0125464Y0343265D01*
X0125464Y0340363D01*
X0128366Y0340363D02*
X0128366Y0343265D01*
X0127399Y0344233D01*
X0126431Y0344233D01*
X0125464Y0343265D01*
X0125464Y0351964D02*
X0125464Y0353898D01*
X0128366Y0351964D02*
X0122562Y0351964D01*
X0122562Y0355833D01*
X0128366Y0355833D02*
X0128366Y0351964D01*
M02*
