G75*
%MOIN*%
%OFA0B0*%
%FSLAX25Y25*%
%IPPOS*%
%LPD*%
%AMOC8*
5,1,8,0,0,1.08239X$1,22.5*
%
%ADD10R,0.03556X0.01981*%
%ADD11C,0.06800*%
%ADD12R,0.08800X0.03400*%
%ADD13R,0.05131X0.04737*%
%ADD14R,0.07898X0.07099*%
%ADD15R,0.04737X0.06312*%
%ADD16R,0.09461X0.03162*%
%ADD17R,0.03400X0.08800*%
%ADD18R,0.03162X0.09461*%
%ADD19R,0.04737X0.05131*%
%ADD20R,0.07099X0.07898*%
%ADD21R,0.04762X0.04762*%
D10*
X0327162Y0019954D03*
X0327162Y0022513D03*
X0327162Y0025072D03*
X0333461Y0025072D03*
X0333461Y0022513D03*
X0333461Y0019954D03*
X0333461Y0059954D03*
X0333461Y0062513D03*
X0333461Y0065072D03*
X0327162Y0065072D03*
X0327162Y0062513D03*
X0327162Y0059954D03*
X0327162Y0099954D03*
X0327162Y0102513D03*
X0327162Y0105072D03*
X0333461Y0105072D03*
X0333461Y0102513D03*
X0333461Y0099954D03*
X0333461Y0139954D03*
X0333461Y0142513D03*
X0333461Y0145072D03*
X0327162Y0145072D03*
X0327162Y0142513D03*
X0327162Y0139954D03*
X0327162Y0179954D03*
X0327162Y0182513D03*
X0327162Y0185072D03*
X0333461Y0185072D03*
X0333461Y0182513D03*
X0333461Y0179954D03*
X0333461Y0219954D03*
X0333461Y0222513D03*
X0333461Y0225072D03*
X0327162Y0225072D03*
X0327162Y0222513D03*
X0327162Y0219954D03*
D11*
X0018312Y0012513D02*
X0012312Y0012513D01*
X0012312Y0022513D02*
X0018312Y0022513D01*
X0018312Y0032513D02*
X0012312Y0032513D01*
X0012312Y0042513D02*
X0018312Y0042513D01*
X0018312Y0052513D02*
X0012312Y0052513D01*
X0012312Y0062513D02*
X0018312Y0062513D01*
X0018312Y0072513D02*
X0012312Y0072513D01*
X0012312Y0082513D02*
X0018312Y0082513D01*
X0018312Y0102513D02*
X0012312Y0102513D01*
X0012312Y0112513D02*
X0018312Y0112513D01*
X0018312Y0122513D02*
X0012312Y0122513D01*
X0012312Y0132513D02*
X0018312Y0132513D01*
X0018312Y0142513D02*
X0012312Y0142513D01*
X0012312Y0152513D02*
X0018312Y0152513D01*
X0018312Y0162513D02*
X0012312Y0162513D01*
X0012312Y0172513D02*
X0018312Y0172513D01*
X0018312Y0192513D02*
X0012312Y0192513D01*
X0012312Y0202513D02*
X0018312Y0202513D01*
X0018312Y0212513D02*
X0012312Y0212513D01*
X0012312Y0222513D02*
X0018312Y0222513D01*
X0018312Y0232513D02*
X0012312Y0232513D01*
X0012312Y0242513D02*
X0018312Y0242513D01*
X0018312Y0252513D02*
X0012312Y0252513D01*
X0012312Y0262513D02*
X0018312Y0262513D01*
X0018312Y0282513D02*
X0012312Y0282513D01*
X0012312Y0292513D02*
X0018312Y0292513D01*
X0018312Y0302513D02*
X0012312Y0302513D01*
X0012312Y0312513D02*
X0018312Y0312513D01*
X0018312Y0322513D02*
X0012312Y0322513D01*
X0012312Y0332513D02*
X0018312Y0332513D01*
X0018312Y0342513D02*
X0012312Y0342513D01*
X0012312Y0352513D02*
X0018312Y0352513D01*
X0022312Y0372513D02*
X0028312Y0372513D01*
X0028312Y0382513D02*
X0022312Y0382513D01*
X0062312Y0382513D02*
X0068312Y0382513D01*
X0068312Y0372513D02*
X0062312Y0372513D01*
X0062312Y0352513D02*
X0068312Y0352513D01*
X0068312Y0342513D02*
X0062312Y0342513D01*
X0062312Y0332513D02*
X0068312Y0332513D01*
X0068312Y0322513D02*
X0062312Y0322513D01*
X0062312Y0312513D02*
X0068312Y0312513D01*
X0068312Y0302513D02*
X0062312Y0302513D01*
X0062312Y0292513D02*
X0068312Y0292513D01*
X0068312Y0282513D02*
X0062312Y0282513D01*
X0082312Y0282513D02*
X0088312Y0282513D01*
X0088312Y0292513D02*
X0082312Y0292513D01*
X0082312Y0302513D02*
X0088312Y0302513D01*
X0088312Y0312513D02*
X0082312Y0312513D01*
X0085312Y0329513D02*
X0085312Y0335513D01*
X0095312Y0335513D02*
X0095312Y0329513D01*
X0112312Y0332513D02*
X0118312Y0332513D01*
X0118312Y0342513D02*
X0112312Y0342513D01*
X0112312Y0352513D02*
X0118312Y0352513D01*
X0108312Y0372513D02*
X0102312Y0372513D01*
X0102312Y0382513D02*
X0108312Y0382513D01*
X0142312Y0382513D02*
X0148312Y0382513D01*
X0148312Y0372513D02*
X0142312Y0372513D01*
X0152312Y0352513D02*
X0158312Y0352513D01*
X0158312Y0342513D02*
X0152312Y0342513D01*
X0152312Y0332513D02*
X0158312Y0332513D01*
X0158312Y0322513D02*
X0152312Y0322513D01*
X0152312Y0312513D02*
X0158312Y0312513D01*
X0158312Y0302513D02*
X0152312Y0302513D01*
X0152312Y0292513D02*
X0158312Y0292513D01*
X0138312Y0292513D02*
X0132312Y0292513D01*
X0132312Y0282513D02*
X0138312Y0282513D01*
X0138312Y0272513D02*
X0132312Y0272513D01*
X0132312Y0262513D02*
X0138312Y0262513D01*
X0138312Y0252513D02*
X0132312Y0252513D01*
X0152312Y0252513D02*
X0158312Y0252513D01*
X0158312Y0242513D02*
X0152312Y0242513D01*
X0152312Y0232513D02*
X0158312Y0232513D01*
X0158312Y0222513D02*
X0152312Y0222513D01*
X0152312Y0212513D02*
X0158312Y0212513D01*
X0138312Y0212513D02*
X0132312Y0212513D01*
X0132312Y0222513D02*
X0138312Y0222513D01*
X0138312Y0232513D02*
X0132312Y0232513D01*
X0132312Y0202513D02*
X0138312Y0202513D01*
X0138312Y0192513D02*
X0132312Y0192513D01*
X0132312Y0182513D02*
X0138312Y0182513D01*
X0138312Y0172513D02*
X0132312Y0172513D01*
X0152312Y0172513D02*
X0158312Y0172513D01*
X0158312Y0182513D02*
X0152312Y0182513D01*
X0152312Y0192513D02*
X0158312Y0192513D01*
X0158312Y0162513D02*
X0152312Y0162513D01*
X0138312Y0152513D02*
X0132312Y0152513D01*
X0132312Y0142513D02*
X0138312Y0142513D01*
X0138312Y0132513D02*
X0132312Y0132513D01*
X0132312Y0122513D02*
X0138312Y0122513D01*
X0138312Y0112513D02*
X0132312Y0112513D01*
X0132312Y0102513D02*
X0138312Y0102513D01*
X0138312Y0092513D02*
X0132312Y0092513D01*
X0152312Y0092513D02*
X0158312Y0092513D01*
X0158312Y0082513D02*
X0152312Y0082513D01*
X0152312Y0072513D02*
X0158312Y0072513D01*
X0158312Y0062513D02*
X0152312Y0062513D01*
X0138312Y0062513D02*
X0132312Y0062513D01*
X0132312Y0052513D02*
X0138312Y0052513D01*
X0138312Y0042513D02*
X0132312Y0042513D01*
X0132312Y0032513D02*
X0138312Y0032513D01*
X0138312Y0022513D02*
X0132312Y0022513D01*
X0132312Y0012513D02*
X0138312Y0012513D01*
X0152312Y0012513D02*
X0158312Y0012513D01*
X0158312Y0022513D02*
X0152312Y0022513D01*
X0152312Y0032513D02*
X0158312Y0032513D01*
X0158312Y0042513D02*
X0152312Y0042513D01*
X0138312Y0072513D02*
X0132312Y0072513D01*
X0152312Y0112513D02*
X0158312Y0112513D01*
X0158312Y0122513D02*
X0152312Y0122513D01*
X0152312Y0132513D02*
X0158312Y0132513D01*
X0158312Y0142513D02*
X0152312Y0142513D01*
X0202312Y0142513D02*
X0208312Y0142513D01*
X0208312Y0132513D02*
X0202312Y0132513D01*
X0202312Y0122513D02*
X0208312Y0122513D01*
X0208312Y0112513D02*
X0202312Y0112513D01*
X0202312Y0092513D02*
X0208312Y0092513D01*
X0208312Y0082513D02*
X0202312Y0082513D01*
X0202312Y0072513D02*
X0208312Y0072513D01*
X0208312Y0062513D02*
X0202312Y0062513D01*
X0202312Y0042513D02*
X0208312Y0042513D01*
X0208312Y0032513D02*
X0202312Y0032513D01*
X0202312Y0022513D02*
X0208312Y0022513D01*
X0208312Y0012513D02*
X0202312Y0012513D01*
X0225312Y0009513D02*
X0225312Y0015513D01*
X0235312Y0015513D02*
X0235312Y0009513D01*
X0245312Y0009513D02*
X0245312Y0015513D01*
X0255312Y0015513D02*
X0255312Y0009513D01*
X0265312Y0009513D02*
X0265312Y0015513D01*
X0275312Y0015513D02*
X0275312Y0009513D01*
X0285312Y0009513D02*
X0285312Y0015513D01*
X0295312Y0015513D02*
X0295312Y0009513D01*
X0312312Y0012513D02*
X0318312Y0012513D01*
X0318312Y0022513D02*
X0312312Y0022513D01*
X0312312Y0032513D02*
X0318312Y0032513D01*
X0318312Y0052513D02*
X0312312Y0052513D01*
X0312312Y0062513D02*
X0318312Y0062513D01*
X0318312Y0072513D02*
X0312312Y0072513D01*
X0295312Y0079513D02*
X0295312Y0085513D01*
X0285312Y0085513D02*
X0285312Y0079513D01*
X0275312Y0079513D02*
X0275312Y0085513D01*
X0265312Y0085513D02*
X0265312Y0079513D01*
X0255312Y0079513D02*
X0255312Y0085513D01*
X0245312Y0085513D02*
X0245312Y0079513D01*
X0235312Y0079513D02*
X0235312Y0085513D01*
X0225312Y0085513D02*
X0225312Y0079513D01*
X0225312Y0065513D02*
X0225312Y0059513D01*
X0235312Y0059513D02*
X0235312Y0065513D01*
X0245312Y0065513D02*
X0245312Y0059513D01*
X0255312Y0059513D02*
X0255312Y0065513D01*
X0265312Y0065513D02*
X0265312Y0059513D01*
X0275312Y0059513D02*
X0275312Y0065513D01*
X0285312Y0065513D02*
X0285312Y0059513D01*
X0295312Y0059513D02*
X0295312Y0065513D01*
X0312312Y0092513D02*
X0318312Y0092513D01*
X0318312Y0102513D02*
X0312312Y0102513D01*
X0312312Y0112513D02*
X0318312Y0112513D01*
X0318312Y0132513D02*
X0312312Y0132513D01*
X0312312Y0142513D02*
X0318312Y0142513D01*
X0318312Y0152513D02*
X0312312Y0152513D01*
X0295312Y0149513D02*
X0295312Y0155513D01*
X0285312Y0155513D02*
X0285312Y0149513D01*
X0275312Y0149513D02*
X0275312Y0155513D01*
X0265312Y0155513D02*
X0265312Y0149513D01*
X0255312Y0149513D02*
X0255312Y0155513D01*
X0245312Y0155513D02*
X0245312Y0149513D01*
X0235312Y0149513D02*
X0235312Y0155513D01*
X0225312Y0155513D02*
X0225312Y0149513D01*
X0225312Y0135513D02*
X0225312Y0129513D01*
X0235312Y0129513D02*
X0235312Y0135513D01*
X0245312Y0135513D02*
X0245312Y0129513D01*
X0255312Y0129513D02*
X0255312Y0135513D01*
X0265312Y0135513D02*
X0265312Y0129513D01*
X0275312Y0129513D02*
X0275312Y0135513D01*
X0285312Y0135513D02*
X0285312Y0129513D01*
X0295312Y0129513D02*
X0295312Y0135513D01*
X0312312Y0172513D02*
X0318312Y0172513D01*
X0318312Y0182513D02*
X0312312Y0182513D01*
X0312312Y0192513D02*
X0318312Y0192513D01*
X0318312Y0212513D02*
X0312312Y0212513D01*
X0312312Y0222513D02*
X0318312Y0222513D01*
X0318312Y0232513D02*
X0312312Y0232513D01*
X0298312Y0252513D02*
X0292312Y0252513D01*
X0292312Y0262513D02*
X0298312Y0262513D01*
X0298312Y0272513D02*
X0292312Y0272513D01*
X0292312Y0282513D02*
X0298312Y0282513D01*
X0298312Y0292513D02*
X0292312Y0292513D01*
X0292312Y0302513D02*
X0298312Y0302513D01*
X0298312Y0312513D02*
X0292312Y0312513D01*
X0278312Y0312513D02*
X0272312Y0312513D01*
X0272312Y0302513D02*
X0278312Y0302513D01*
X0278312Y0292513D02*
X0272312Y0292513D01*
X0272312Y0282513D02*
X0278312Y0282513D01*
X0278312Y0272513D02*
X0272312Y0272513D01*
X0272312Y0262513D02*
X0278312Y0262513D01*
X0278312Y0252513D02*
X0272312Y0252513D01*
X0268312Y0232513D02*
X0262312Y0232513D01*
X0262312Y0222513D02*
X0268312Y0222513D01*
X0265312Y0205513D02*
X0265312Y0199513D01*
X0275312Y0199513D02*
X0275312Y0205513D01*
X0285312Y0205513D02*
X0285312Y0199513D01*
X0295312Y0199513D02*
X0295312Y0205513D01*
X0255312Y0205513D02*
X0255312Y0199513D01*
X0245312Y0199513D02*
X0245312Y0205513D01*
X0235312Y0205513D02*
X0235312Y0199513D01*
X0225312Y0199513D02*
X0225312Y0205513D01*
X0208312Y0212513D02*
X0202312Y0212513D01*
X0202312Y0222513D02*
X0208312Y0222513D01*
X0208312Y0232513D02*
X0202312Y0232513D01*
X0202312Y0242513D02*
X0208312Y0242513D01*
X0208312Y0252513D02*
X0202312Y0252513D01*
X0202312Y0262513D02*
X0208312Y0262513D01*
X0208312Y0272513D02*
X0202312Y0272513D01*
X0202312Y0292513D02*
X0208312Y0292513D01*
X0208312Y0302513D02*
X0202312Y0302513D01*
X0202312Y0312513D02*
X0208312Y0312513D01*
X0208312Y0322513D02*
X0202312Y0322513D01*
X0202312Y0332513D02*
X0208312Y0332513D01*
X0208312Y0342513D02*
X0202312Y0342513D01*
X0202312Y0352513D02*
X0208312Y0352513D01*
X0225312Y0335513D02*
X0225312Y0329513D01*
X0235312Y0329513D02*
X0235312Y0335513D01*
X0245312Y0335513D02*
X0245312Y0329513D01*
X0255312Y0329513D02*
X0255312Y0335513D01*
X0275312Y0335513D02*
X0275312Y0329513D01*
X0285312Y0329513D02*
X0285312Y0335513D01*
X0295312Y0335513D02*
X0295312Y0329513D01*
X0305312Y0329513D02*
X0305312Y0335513D01*
X0315312Y0335513D02*
X0315312Y0329513D01*
X0325312Y0329513D02*
X0325312Y0335513D01*
X0335312Y0335513D02*
X0335312Y0329513D01*
X0345312Y0329513D02*
X0345312Y0335513D01*
X0362312Y0332513D02*
X0368312Y0332513D01*
X0368312Y0342513D02*
X0362312Y0342513D01*
X0362312Y0362513D02*
X0368312Y0362513D01*
X0368312Y0372513D02*
X0362312Y0372513D01*
X0345312Y0379513D02*
X0345312Y0385513D01*
X0335312Y0385513D02*
X0335312Y0379513D01*
X0325312Y0379513D02*
X0325312Y0385513D01*
X0315312Y0385513D02*
X0315312Y0379513D01*
X0305312Y0379513D02*
X0305312Y0385513D01*
X0295312Y0385513D02*
X0295312Y0379513D01*
X0285312Y0379513D02*
X0285312Y0385513D01*
X0275312Y0385513D02*
X0275312Y0379513D01*
X0255312Y0379513D02*
X0255312Y0385513D01*
X0245312Y0385513D02*
X0245312Y0379513D01*
X0235312Y0379513D02*
X0235312Y0385513D01*
X0225312Y0385513D02*
X0225312Y0379513D01*
X0188312Y0382513D02*
X0182312Y0382513D01*
X0182312Y0372513D02*
X0188312Y0372513D01*
X0222312Y0312513D02*
X0228312Y0312513D01*
X0228312Y0302513D02*
X0222312Y0302513D01*
X0222312Y0292513D02*
X0228312Y0292513D01*
X0228312Y0282513D02*
X0222312Y0282513D01*
X0222312Y0272513D02*
X0228312Y0272513D01*
X0228312Y0262513D02*
X0222312Y0262513D01*
X0222312Y0252513D02*
X0228312Y0252513D01*
X0228312Y0232513D02*
X0222312Y0232513D01*
X0222312Y0222513D02*
X0228312Y0222513D01*
X0208312Y0192513D02*
X0202312Y0192513D01*
X0202312Y0182513D02*
X0208312Y0182513D01*
X0208312Y0172513D02*
X0202312Y0172513D01*
X0202312Y0162513D02*
X0208312Y0162513D01*
X0158312Y0262513D02*
X0152312Y0262513D01*
X0152312Y0272513D02*
X0158312Y0272513D01*
X0138312Y0302513D02*
X0132312Y0302513D01*
X0132312Y0312513D02*
X0138312Y0312513D01*
X0088312Y0272513D02*
X0082312Y0272513D01*
X0082312Y0262513D02*
X0088312Y0262513D01*
X0088312Y0252513D02*
X0082312Y0252513D01*
X0068312Y0252513D02*
X0062312Y0252513D01*
X0062312Y0242513D02*
X0068312Y0242513D01*
X0068312Y0232513D02*
X0062312Y0232513D01*
X0062312Y0222513D02*
X0068312Y0222513D01*
X0068312Y0212513D02*
X0062312Y0212513D01*
X0062312Y0202513D02*
X0068312Y0202513D01*
X0068312Y0192513D02*
X0062312Y0192513D01*
X0082312Y0192513D02*
X0088312Y0192513D01*
X0088312Y0202513D02*
X0082312Y0202513D01*
X0082312Y0212513D02*
X0088312Y0212513D01*
X0088312Y0222513D02*
X0082312Y0222513D01*
X0082312Y0232513D02*
X0088312Y0232513D01*
X0068312Y0262513D02*
X0062312Y0262513D01*
X0082312Y0182513D02*
X0088312Y0182513D01*
X0088312Y0172513D02*
X0082312Y0172513D01*
X0068312Y0172513D02*
X0062312Y0172513D01*
X0062312Y0162513D02*
X0068312Y0162513D01*
X0068312Y0152513D02*
X0062312Y0152513D01*
X0062312Y0142513D02*
X0068312Y0142513D01*
X0068312Y0132513D02*
X0062312Y0132513D01*
X0062312Y0122513D02*
X0068312Y0122513D01*
X0068312Y0112513D02*
X0062312Y0112513D01*
X0062312Y0102513D02*
X0068312Y0102513D01*
X0082312Y0102513D02*
X0088312Y0102513D01*
X0088312Y0092513D02*
X0082312Y0092513D01*
X0068312Y0082513D02*
X0062312Y0082513D01*
X0062312Y0072513D02*
X0068312Y0072513D01*
X0068312Y0062513D02*
X0062312Y0062513D01*
X0062312Y0052513D02*
X0068312Y0052513D01*
X0068312Y0042513D02*
X0062312Y0042513D01*
X0062312Y0032513D02*
X0068312Y0032513D01*
X0068312Y0022513D02*
X0062312Y0022513D01*
X0062312Y0012513D02*
X0068312Y0012513D01*
X0082312Y0012513D02*
X0088312Y0012513D01*
X0088312Y0022513D02*
X0082312Y0022513D01*
X0082312Y0032513D02*
X0088312Y0032513D01*
X0088312Y0042513D02*
X0082312Y0042513D01*
X0082312Y0052513D02*
X0088312Y0052513D01*
X0088312Y0062513D02*
X0082312Y0062513D01*
X0082312Y0072513D02*
X0088312Y0072513D01*
X0088312Y0112513D02*
X0082312Y0112513D01*
X0082312Y0122513D02*
X0088312Y0122513D01*
X0088312Y0132513D02*
X0082312Y0132513D01*
X0082312Y0142513D02*
X0088312Y0142513D01*
X0088312Y0152513D02*
X0082312Y0152513D01*
X0342312Y0152513D02*
X0348312Y0152513D01*
X0348312Y0142513D02*
X0342312Y0142513D01*
X0342312Y0132513D02*
X0348312Y0132513D01*
X0362312Y0132513D02*
X0368312Y0132513D01*
X0368312Y0142513D02*
X0362312Y0142513D01*
X0362312Y0152513D02*
X0368312Y0152513D01*
X0368312Y0172513D02*
X0362312Y0172513D01*
X0362312Y0182513D02*
X0368312Y0182513D01*
X0368312Y0192513D02*
X0362312Y0192513D01*
X0348312Y0192513D02*
X0342312Y0192513D01*
X0342312Y0182513D02*
X0348312Y0182513D01*
X0348312Y0172513D02*
X0342312Y0172513D01*
X0342312Y0212513D02*
X0348312Y0212513D01*
X0348312Y0222513D02*
X0342312Y0222513D01*
X0342312Y0232513D02*
X0348312Y0232513D01*
X0362312Y0242513D02*
X0368312Y0242513D01*
X0368312Y0252513D02*
X0362312Y0252513D01*
X0348312Y0252513D02*
X0342312Y0252513D01*
X0342312Y0262513D02*
X0348312Y0262513D01*
X0348312Y0272513D02*
X0342312Y0272513D01*
X0342312Y0282513D02*
X0348312Y0282513D01*
X0348312Y0292513D02*
X0342312Y0292513D01*
X0342312Y0302513D02*
X0348312Y0302513D01*
X0348312Y0312513D02*
X0342312Y0312513D01*
X0362312Y0312513D02*
X0368312Y0312513D01*
X0368312Y0302513D02*
X0362312Y0302513D01*
X0362312Y0282513D02*
X0368312Y0282513D01*
X0368312Y0272513D02*
X0362312Y0272513D01*
X0362312Y0222513D02*
X0368312Y0222513D01*
X0368312Y0212513D02*
X0362312Y0212513D01*
X0362312Y0112513D02*
X0368312Y0112513D01*
X0368312Y0102513D02*
X0362312Y0102513D01*
X0362312Y0092513D02*
X0368312Y0092513D01*
X0348312Y0092513D02*
X0342312Y0092513D01*
X0342312Y0102513D02*
X0348312Y0102513D01*
X0348312Y0112513D02*
X0342312Y0112513D01*
X0342312Y0072513D02*
X0348312Y0072513D01*
X0348312Y0062513D02*
X0342312Y0062513D01*
X0342312Y0052513D02*
X0348312Y0052513D01*
X0362312Y0052513D02*
X0368312Y0052513D01*
X0368312Y0062513D02*
X0362312Y0062513D01*
X0362312Y0072513D02*
X0368312Y0072513D01*
X0368312Y0032513D02*
X0362312Y0032513D01*
X0362312Y0022513D02*
X0368312Y0022513D01*
X0368312Y0012513D02*
X0362312Y0012513D01*
X0348312Y0012513D02*
X0342312Y0012513D01*
X0342312Y0022513D02*
X0348312Y0022513D01*
X0348312Y0032513D02*
X0342312Y0032513D01*
D12*
X0192412Y0227513D03*
X0192412Y0232513D03*
X0192412Y0237513D03*
X0192412Y0242513D03*
X0192412Y0247513D03*
X0192412Y0252513D03*
X0192412Y0257513D03*
X0168212Y0257513D03*
X0168212Y0252513D03*
X0168212Y0247513D03*
X0168212Y0242513D03*
X0168212Y0237513D03*
X0168212Y0232513D03*
X0168212Y0227513D03*
X0122412Y0217513D03*
X0122412Y0212513D03*
X0122412Y0207513D03*
X0122412Y0202513D03*
X0122412Y0197513D03*
X0122412Y0192513D03*
X0122412Y0187513D03*
X0098212Y0187513D03*
X0098212Y0192513D03*
X0098212Y0197513D03*
X0098212Y0202513D03*
X0098212Y0207513D03*
X0098212Y0212513D03*
X0098212Y0217513D03*
X0052412Y0220013D03*
X0052412Y0225013D03*
X0052412Y0230013D03*
X0052412Y0235013D03*
X0052412Y0240013D03*
X0052412Y0245013D03*
X0028212Y0245013D03*
X0028212Y0240013D03*
X0028212Y0235013D03*
X0028212Y0230013D03*
X0028212Y0225013D03*
X0028212Y0220013D03*
X0028212Y0215013D03*
X0028212Y0210013D03*
X0052412Y0210013D03*
X0052412Y0215013D03*
X0098212Y0267513D03*
X0098212Y0272513D03*
X0098212Y0277513D03*
X0098212Y0282513D03*
X0098212Y0287513D03*
X0098212Y0292513D03*
X0098212Y0297513D03*
X0122412Y0297513D03*
X0122412Y0292513D03*
X0122412Y0287513D03*
X0122412Y0282513D03*
X0122412Y0277513D03*
X0122412Y0272513D03*
X0122412Y0267513D03*
X0168212Y0307513D03*
X0168212Y0312513D03*
X0168212Y0317513D03*
X0168212Y0322513D03*
X0168212Y0327513D03*
X0168212Y0332513D03*
X0168212Y0337513D03*
X0192412Y0337513D03*
X0192412Y0332513D03*
X0192412Y0327513D03*
X0192412Y0322513D03*
X0192412Y0317513D03*
X0192412Y0312513D03*
X0192412Y0307513D03*
X0238212Y0297513D03*
X0238212Y0292513D03*
X0238212Y0287513D03*
X0238212Y0282513D03*
X0238212Y0277513D03*
X0238212Y0272513D03*
X0238212Y0267513D03*
X0262412Y0267513D03*
X0262412Y0272513D03*
X0262412Y0277513D03*
X0262412Y0282513D03*
X0262412Y0287513D03*
X0262412Y0292513D03*
X0262412Y0297513D03*
X0308212Y0297513D03*
X0308212Y0292513D03*
X0308212Y0287513D03*
X0308212Y0282513D03*
X0308212Y0277513D03*
X0308212Y0272513D03*
X0308212Y0267513D03*
X0332412Y0267513D03*
X0332412Y0272513D03*
X0332412Y0277513D03*
X0332412Y0282513D03*
X0332412Y0287513D03*
X0332412Y0292513D03*
X0332412Y0297513D03*
X0122412Y0137513D03*
X0122412Y0132513D03*
X0122412Y0127513D03*
X0122412Y0122513D03*
X0122412Y0117513D03*
X0122412Y0112513D03*
X0122412Y0107513D03*
X0098212Y0107513D03*
X0098212Y0112513D03*
X0098212Y0117513D03*
X0098212Y0122513D03*
X0098212Y0127513D03*
X0098212Y0132513D03*
X0098212Y0137513D03*
X0052412Y0140013D03*
X0052412Y0145013D03*
X0052412Y0150013D03*
X0052412Y0155013D03*
X0052412Y0135013D03*
X0052412Y0130013D03*
X0052412Y0125013D03*
X0052412Y0120013D03*
X0028212Y0120013D03*
X0028212Y0125013D03*
X0028212Y0130013D03*
X0028212Y0135013D03*
X0028212Y0140013D03*
X0028212Y0145013D03*
X0028212Y0150013D03*
X0028212Y0155013D03*
X0028212Y0065013D03*
X0028212Y0060013D03*
X0028212Y0055013D03*
X0028212Y0050013D03*
X0028212Y0045013D03*
X0028212Y0040013D03*
X0028212Y0035013D03*
X0028212Y0030013D03*
X0052412Y0030013D03*
X0052412Y0035013D03*
X0052412Y0040013D03*
X0052412Y0045013D03*
X0052412Y0050013D03*
X0052412Y0055013D03*
X0052412Y0060013D03*
X0052412Y0065013D03*
X0098212Y0057513D03*
X0098212Y0052513D03*
X0098212Y0047513D03*
X0098212Y0042513D03*
X0098212Y0037513D03*
X0098212Y0032513D03*
X0098212Y0027513D03*
X0122412Y0027513D03*
X0122412Y0032513D03*
X0122412Y0037513D03*
X0122412Y0042513D03*
X0122412Y0047513D03*
X0122412Y0052513D03*
X0122412Y0057513D03*
X0052412Y0300013D03*
X0052412Y0305013D03*
X0052412Y0310013D03*
X0052412Y0315013D03*
X0052412Y0320013D03*
X0052412Y0325013D03*
X0052412Y0330013D03*
X0052412Y0335013D03*
X0028212Y0335013D03*
X0028212Y0330013D03*
X0028212Y0325013D03*
X0028212Y0320013D03*
X0028212Y0315013D03*
X0028212Y0310013D03*
X0028212Y0305013D03*
X0028212Y0300013D03*
D13*
X0045312Y0374166D03*
X0045312Y0380859D03*
X0085312Y0380859D03*
X0085312Y0374166D03*
X0125312Y0374166D03*
X0125312Y0380859D03*
X0165312Y0380859D03*
X0165312Y0374166D03*
X0205312Y0374166D03*
X0205312Y0380859D03*
X0245312Y0230859D03*
X0245312Y0224166D03*
X0285312Y0224166D03*
X0285312Y0230859D03*
X0385312Y0220859D03*
X0385312Y0214166D03*
X0385312Y0244166D03*
X0385312Y0250859D03*
X0385312Y0274166D03*
X0385312Y0280859D03*
X0385312Y0304166D03*
X0385312Y0310859D03*
X0385312Y0334166D03*
X0385312Y0340859D03*
X0385312Y0364166D03*
X0385312Y0370859D03*
D14*
X0377312Y0373111D03*
X0377312Y0361914D03*
X0377312Y0343111D03*
X0377312Y0331914D03*
X0377312Y0313111D03*
X0377312Y0301914D03*
X0377312Y0283111D03*
X0377312Y0271914D03*
X0377312Y0253111D03*
X0377312Y0241914D03*
X0377312Y0223111D03*
X0377312Y0211914D03*
X0277312Y0221914D03*
X0277312Y0233111D03*
X0237312Y0233111D03*
X0237312Y0221914D03*
X0197312Y0371914D03*
X0197312Y0383111D03*
X0157312Y0383111D03*
X0157312Y0371914D03*
X0117312Y0371914D03*
X0117312Y0383111D03*
X0077312Y0383111D03*
X0077312Y0371914D03*
X0037312Y0371914D03*
X0037312Y0383111D03*
D15*
X0129572Y0341182D03*
X0137052Y0341182D03*
X0133312Y0349843D03*
X0379572Y0181182D03*
X0387052Y0181182D03*
X0383312Y0189843D03*
X0383312Y0149843D03*
X0387052Y0141182D03*
X0379572Y0141182D03*
X0383312Y0109843D03*
X0387052Y0101182D03*
X0379572Y0101182D03*
X0383312Y0069843D03*
X0387052Y0061182D03*
X0379572Y0061182D03*
X0383312Y0029843D03*
X0387052Y0021182D03*
X0379572Y0021182D03*
D16*
X0190548Y0020013D03*
X0190548Y0025013D03*
X0190548Y0030013D03*
X0190548Y0035013D03*
X0170076Y0035013D03*
X0170076Y0030013D03*
X0170076Y0025013D03*
X0170076Y0020013D03*
X0170076Y0070013D03*
X0170076Y0075013D03*
X0170076Y0080013D03*
X0170076Y0085013D03*
X0190548Y0085013D03*
X0190548Y0080013D03*
X0190548Y0075013D03*
X0190548Y0070013D03*
X0190548Y0120013D03*
X0190548Y0125013D03*
X0190548Y0130013D03*
X0190548Y0135013D03*
X0170076Y0135013D03*
X0170076Y0130013D03*
X0170076Y0125013D03*
X0170076Y0120013D03*
X0170076Y0170013D03*
X0170076Y0175013D03*
X0170076Y0180013D03*
X0170076Y0185013D03*
X0190548Y0185013D03*
X0190548Y0180013D03*
X0190548Y0175013D03*
X0190548Y0170013D03*
D17*
X0242812Y0165413D03*
X0247812Y0165413D03*
X0252812Y0165413D03*
X0257812Y0165413D03*
X0262812Y0165413D03*
X0267812Y0165413D03*
X0272812Y0165413D03*
X0277812Y0165413D03*
X0277812Y0189613D03*
X0272812Y0189613D03*
X0267812Y0189613D03*
X0262812Y0189613D03*
X0257812Y0189613D03*
X0252812Y0189613D03*
X0247812Y0189613D03*
X0242812Y0189613D03*
X0242812Y0119613D03*
X0247812Y0119613D03*
X0252812Y0119613D03*
X0257812Y0119613D03*
X0262812Y0119613D03*
X0267812Y0119613D03*
X0272812Y0119613D03*
X0277812Y0119613D03*
X0277812Y0095413D03*
X0272812Y0095413D03*
X0267812Y0095413D03*
X0262812Y0095413D03*
X0257812Y0095413D03*
X0252812Y0095413D03*
X0247812Y0095413D03*
X0242812Y0095413D03*
X0242812Y0049613D03*
X0247812Y0049613D03*
X0252812Y0049613D03*
X0257812Y0049613D03*
X0262812Y0049613D03*
X0267812Y0049613D03*
X0272812Y0049613D03*
X0277812Y0049613D03*
X0277812Y0025413D03*
X0272812Y0025413D03*
X0267812Y0025413D03*
X0262812Y0025413D03*
X0257812Y0025413D03*
X0252812Y0025413D03*
X0247812Y0025413D03*
X0242812Y0025413D03*
X0292812Y0345413D03*
X0297812Y0345413D03*
X0302812Y0345413D03*
X0307812Y0345413D03*
X0312812Y0345413D03*
X0317812Y0345413D03*
X0322812Y0345413D03*
X0327812Y0345413D03*
X0327812Y0369613D03*
X0322812Y0369613D03*
X0317812Y0369613D03*
X0312812Y0369613D03*
X0307812Y0369613D03*
X0302812Y0369613D03*
X0297812Y0369613D03*
X0292812Y0369613D03*
D18*
X0247812Y0367749D03*
X0242812Y0367749D03*
X0237812Y0367749D03*
X0232812Y0367749D03*
X0232812Y0347277D03*
X0237812Y0347277D03*
X0242812Y0347277D03*
X0247812Y0347277D03*
D19*
X0093658Y0352513D03*
X0086965Y0352513D03*
D20*
X0084713Y0344513D03*
X0095910Y0344513D03*
D21*
X0040312Y0333513D03*
X0040312Y0325513D03*
X0040312Y0308513D03*
X0040312Y0300513D03*
X0040312Y0243513D03*
X0040312Y0235513D03*
X0040312Y0218513D03*
X0040312Y0210513D03*
X0040312Y0153513D03*
X0040312Y0145513D03*
X0040312Y0128513D03*
X0040312Y0120513D03*
X0040312Y0063513D03*
X0040312Y0055513D03*
X0040312Y0038513D03*
X0040312Y0030513D03*
X0244312Y0037513D03*
X0252312Y0037513D03*
X0269312Y0037513D03*
X0277312Y0037513D03*
X0277312Y0107513D03*
X0269312Y0107513D03*
X0252312Y0107513D03*
X0244312Y0107513D03*
X0244312Y0177513D03*
X0252312Y0177513D03*
X0269312Y0177513D03*
X0277312Y0177513D03*
X0294312Y0357513D03*
X0302312Y0357513D03*
X0319312Y0357513D03*
X0327312Y0357513D03*
M02*
