%
M48
M72
T01C0.0394
%
T01
X20910Y910
X20910Y1910
X20910Y2910
X20910Y3910
X20910Y4910
X20910Y5910
X20910Y6910
X20910Y7910
X20910Y8910
X20910Y9910
X20910Y10910
X20910Y11910
X20910Y12910
X20910Y13910
X20910Y14910
X20910Y15910
X20910Y16910
X20910Y17910
X20910Y18910
X20910Y19910
X20910Y20910
X20910Y21910
X20910Y22910
X20910Y23910
X20910Y24910
X20910Y25910
X20910Y26910
X20910Y27910
X20910Y28910
X20910Y29910
X20910Y30910
X20910Y31910
X20910Y32910
X20910Y33910
X20910Y34910
X20910Y35910
X20910Y36910
X20910Y37910
X20910Y38910
X21910Y38910
X22910Y38910
X22910Y37910
X21910Y37910
X21910Y36910
X21910Y35910
X22910Y35910
X22910Y36910
X23910Y36910
X23910Y35910
X24910Y35910
X24910Y36910
X24910Y37910
X23910Y37910
X23910Y38910
X24910Y38910
X25910Y38910
X26910Y38910
X26910Y37910
X25910Y37910
X25910Y36910
X25910Y35910
X26910Y35910
X26910Y36910
X27910Y36910
X27910Y35910
X28910Y35910
X28910Y36910
X28910Y37910
X27910Y37910
X27910Y38910
X28910Y38910
X29910Y38910
X30910Y38910
X30910Y37910
X29910Y37910
X29910Y36910
X29910Y35910
X30910Y35910
X30910Y36910
X31910Y36910
X31910Y35910
X32910Y35910
X32910Y36910
X32910Y37910
X31910Y37910
X31910Y38910
X32910Y38910
X33910Y38910
X34910Y38910
X34910Y37910
X33910Y37910
X33910Y36910
X33910Y35910
X34910Y35910
X34910Y36910
X35910Y36910
X35910Y35910
X36910Y35910
X36910Y36910
X36910Y37910
X35910Y37910
X35910Y38910
X36910Y38910
X37910Y38910
X37910Y37910
X37910Y36910
X37910Y35910
X37910Y34910
X37910Y33910
X37910Y32910
X37910Y31910
X37910Y30910
X37910Y29910
X37910Y28910
X37910Y27910
X37910Y26910
X37910Y25910
X37910Y24910
X37910Y23910
X37910Y22910
X37910Y21910
X37910Y20910
X37910Y19910
X37910Y18910
X37910Y17910
X37910Y16910
X37910Y15910
X37910Y14910
X37910Y13910
X37910Y12910
X37910Y11910
X37910Y10910
X37910Y9910
X37910Y8910
X37910Y7910
X37910Y6910
X37910Y5910
X37910Y4910
X37910Y3910
X37910Y2910
X37910Y1910
X37910Y910
X36910Y910
X36910Y1910
X35910Y1910
X35910Y910
X34910Y910
X34910Y1910
X33910Y1910
X33910Y910
X32910Y910
X32910Y1910
X31910Y1910
X31910Y910
X30910Y910
X30910Y1910
X29910Y1910
X29910Y910
X28910Y910
X28910Y1910
X27910Y1910
X27910Y910
X26910Y910
X26910Y1910
X25910Y1910
X25910Y910
X24910Y910
X24910Y1910
X23910Y1910
X23910Y910
X22910Y910
X22910Y1910
X21910Y1910
X21910Y910
X21910Y2910
X21910Y3910
X22910Y3910
X22910Y2910
X23910Y2910
X23910Y3910
X24910Y3910
X24910Y2910
X25910Y2910
X25910Y3910
X26910Y3910
X26910Y2910
X27910Y2910
X27910Y3910
X28910Y3910
X28910Y2910
X29910Y2910
X29910Y3910
X30910Y3910
X30910Y2910
X31910Y2910
X31910Y3910
X32910Y3910
X32910Y2910
X33910Y2910
X33910Y3910
X34910Y3910
X34910Y2910
X35910Y2910
X35910Y3910
X36910Y3910
X36910Y2910
X36910Y4910
X36910Y5910
X35910Y5910
X35910Y4910
X34910Y4910
X34910Y5910
X33910Y5910
X33910Y4910
X32910Y4910
X32910Y5910
X31910Y5910
X31910Y4910
X30910Y4910
X30910Y5910
X29910Y5910
X29910Y4910
X28910Y4910
X28910Y5910
X27910Y5910
X27910Y4910
X26910Y4910
X26910Y5910
X25910Y5910
X25910Y4910
X24910Y4910
X24910Y5910
X23910Y5910
X23910Y4910
X22910Y4910
X22910Y5910
X21910Y5910
X21910Y4910
X21910Y6910
X21910Y7910
X22910Y7910
X22910Y6910
X23910Y6910
X23910Y7910
X24910Y7910
X24910Y6910
X25910Y6910
X25910Y7910
X26910Y7910
X26910Y6910
X27910Y6910
X27910Y7910
X28910Y7910
X28910Y6910
X29910Y6910
X29910Y7910
X30910Y7910
X30910Y6910
X31910Y6910
X31910Y7910
X32910Y7910
X32910Y6910
X33910Y6910
X33910Y7910
X34910Y7910
X34910Y6910
X35910Y6910
X35910Y7910
X36910Y7910
X36910Y6910
X36910Y8910
X36910Y9910
X35910Y9910
X35910Y8910
X34910Y8910
X34910Y9910
X33910Y9910
X33910Y8910
X32910Y8910
X32910Y9910
X31910Y9910
X31910Y8910
X30910Y8910
X30910Y9910
X29910Y9910
X29910Y8910
X28910Y8910
X28910Y9910
X27910Y9910
X27910Y8910
X26910Y8910
X26910Y9910
X25910Y9910
X25910Y8910
X24910Y8910
X24910Y9910
X23910Y9910
X23910Y8910
X22910Y8910
X22910Y9910
X21910Y9910
X21910Y8910
X21910Y10910
X22910Y10910
X22910Y11910
X22910Y12910
X21910Y12910
X21910Y11910
X21910Y13910
X21910Y14910
X22910Y14910
X22910Y13910
X23910Y13910
X23910Y14910
X24910Y14910
X24910Y13910
X24910Y12910
X24910Y11910
X23910Y11910
X23910Y12910
X23910Y10910
X24910Y10910
X25910Y10910
X26910Y10910
X26910Y11910
X26910Y12910
X25910Y12910
X25910Y11910
X25910Y13910
X25910Y14910
X26910Y14910
X26910Y13910
X27910Y13910
X27910Y14910
X28910Y14910
X28910Y13910
X28910Y12910
X28910Y11910
X27910Y11910
X27910Y12910
X27910Y10910
X28910Y10910
X29910Y10910
X30910Y10910
X30910Y11910
X30910Y12910
X29910Y12910
X29910Y11910
X29910Y13910
X29910Y14910
X30910Y14910
X30910Y13910
X31910Y13910
X31910Y14910
X32910Y14910
X32910Y13910
X32910Y12910
X32910Y11910
X31910Y11910
X31910Y12910
X31910Y10910
X32910Y10910
X33910Y10910
X34910Y10910
X34910Y11910
X34910Y12910
X33910Y12910
X33910Y11910
X33910Y13910
X33910Y14910
X34910Y14910
X34910Y13910
X35910Y13910
X35910Y14910
X36910Y14910
X36910Y13910
X36910Y12910
X36910Y11910
X35910Y11910
X35910Y12910
X35910Y10910
X36910Y10910
X38910Y10910
X38910Y9910
X38910Y8910
X38910Y7910
X38910Y6910
X38910Y5910
X38910Y4910
X38910Y3910
X38910Y2910
X38910Y1910
X38910Y910
X38910Y11910
X38910Y12910
X38910Y13910
X38910Y14910
X38910Y15910
X38910Y16910
X38910Y17910
X38910Y18910
X38910Y19910
X38910Y20910
X38910Y21910
X38910Y22910
X38910Y23910
X38910Y24910
X38910Y25910
X38910Y26910
X38910Y27910
X38910Y28910
X38910Y29910
X38910Y30910
X38910Y31910
X38910Y32910
X38910Y33910
X38910Y34910
X38910Y35910
X38910Y36910
X38910Y37910
X38910Y38910
X36910Y34910
X36910Y33910
X35910Y33910
X35910Y34910
X34910Y34910
X34910Y33910
X33910Y33910
X33910Y34910
X32910Y34910
X32910Y33910
X31910Y33910
X31910Y34910
X30910Y34910
X30910Y33910
X29910Y33910
X29910Y34910
X28910Y34910
X28910Y33910
X27910Y33910
X27910Y34910
X26910Y34910
X26910Y33910
X25910Y33910
X25910Y34910
X24910Y34910
X24910Y33910
X23910Y33910
X23910Y34910
X22910Y34910
X22910Y33910
X21910Y33910
X21910Y34910
X21910Y32910
X21910Y31910
X22910Y31910
X22910Y32910
X23910Y32910
X23910Y31910
X24910Y31910
X24910Y32910
X25910Y32910
X25910Y31910
X26910Y31910
X26910Y32910
X27910Y32910
X27910Y31910
X28910Y31910
X28910Y32910
X29910Y32910
X29910Y31910
X30910Y31910
X30910Y32910
X31910Y32910
X31910Y31910
X32910Y31910
X32910Y32910
X33910Y32910
X33910Y31910
X34910Y31910
X34910Y32910
X35910Y32910
X35910Y31910
X36910Y31910
X36910Y32910
X36910Y30910
X36910Y29910
X35910Y29910
X35910Y30910
X34910Y30910
X34910Y29910
X33910Y29910
X33910Y30910
X32910Y30910
X32910Y29910
X31910Y29910
X31910Y30910
X30910Y30910
X30910Y29910
X29910Y29910
X29910Y30910
X28910Y30910
X28910Y29910
X27910Y29910
X27910Y30910
X26910Y30910
X26910Y29910
X25910Y29910
X25910Y30910
X24910Y30910
X24910Y29910
X23910Y29910
X23910Y30910
X22910Y30910
X22910Y29910
X21910Y29910
X21910Y30910
X21910Y28910
X21910Y27910
X22910Y27910
X22910Y28910
X23910Y28910
X23910Y27910
X24910Y27910
X24910Y28910
X25910Y28910
X25910Y27910
X26910Y27910
X26910Y28910
X27910Y28910
X27910Y27910
X28910Y27910
X28910Y28910
X29910Y28910
X29910Y27910
X30910Y27910
X30910Y28910
X31910Y28910
X31910Y27910
X32910Y27910
X32910Y28910
X33910Y28910
X33910Y27910
X34910Y27910
X34910Y28910
X35910Y28910
X35910Y27910
X36910Y27910
X36910Y28910
X36910Y26910
X36910Y25910
X35910Y25910
X35910Y26910
X34910Y26910
X34910Y25910
X33910Y25910
X33910Y26910
X32910Y26910
X32910Y25910
X31910Y25910
X31910Y26910
X30910Y26910
X30910Y25910
X29910Y25910
X29910Y26910
X28910Y26910
X28910Y25910
X27910Y25910
X27910Y26910
X26910Y26910
X26910Y25910
X25910Y25910
X25910Y26910
X24910Y26910
X24910Y25910
X23910Y25910
X23910Y26910
X22910Y26910
X22910Y25910
X21910Y25910
X21910Y26910
X21910Y24910
X21910Y23910
X22910Y23910
X22910Y24910
X23910Y24910
X23910Y23910
X24910Y23910
X24910Y24910
X25910Y24910
X25910Y23910
X26910Y23910
X26910Y24910
X27910Y24910
X27910Y23910
X28910Y23910
X28910Y24910
X29910Y24910
X29910Y23910
X30910Y23910
X30910Y24910
X31910Y24910
X31910Y23910
X32910Y23910
X32910Y24910
X33910Y24910
X33910Y23910
X34910Y23910
X34910Y24910
X35910Y24910
X35910Y23910
X36910Y23910
X36910Y24910
X36910Y22910
X36910Y21910
X35910Y21910
X35910Y22910
X34910Y22910
X34910Y21910
X33910Y21910
X33910Y22910
X32910Y22910
X32910Y21910
X31910Y21910
X31910Y22910
X30910Y22910
X30910Y21910
X29910Y21910
X29910Y22910
X28910Y22910
X28910Y21910
X27910Y21910
X27910Y22910
X26910Y22910
X26910Y21910
X25910Y21910
X25910Y22910
X24910Y22910
X24910Y21910
X23910Y21910
X23910Y22910
X22910Y22910
X22910Y21910
X21910Y21910
X21910Y22910
X21910Y20910
X21910Y19910
X22910Y19910
X22910Y20910
X23910Y20910
X23910Y19910
X24910Y19910
X24910Y20910
X25910Y20910
X25910Y19910
X26910Y19910
X26910Y20910
X27910Y20910
X27910Y19910
X28910Y19910
X28910Y20910
X29910Y20910
X29910Y19910
X30910Y19910
X30910Y20910
X31910Y20910
X31910Y19910
X32910Y19910
X32910Y20910
X33910Y20910
X33910Y19910
X34910Y19910
X34910Y20910
X35910Y20910
X35910Y19910
X36910Y19910
X36910Y20910
X36910Y18910
X36910Y17910
X35910Y17910
X35910Y18910
X34910Y18910
X34910Y17910
X33910Y17910
X33910Y18910
X32910Y18910
X32910Y17910
X31910Y17910
X31910Y18910
X30910Y18910
X30910Y17910
X29910Y17910
X29910Y18910
X28910Y18910
X28910Y17910
X27910Y17910
X27910Y18910
X26910Y18910
X26910Y17910
X25910Y17910
X25910Y18910
X24910Y18910
X24910Y17910
X23910Y17910
X23910Y18910
X22910Y18910
X22910Y17910
X21910Y17910
X21910Y18910
X21910Y16910
X21910Y15910
X22910Y15910
X22910Y16910
X23910Y16910
X23910Y15910
X24910Y15910
X24910Y16910
X25910Y16910
X25910Y15910
X26910Y15910
X26910Y16910
X27910Y16910
X27910Y15910
X28910Y15910
X28910Y16910
X29910Y16910
X29910Y15910
X30910Y15910
X30910Y16910
X31910Y16910
X31910Y15910
X32910Y15910
X32910Y16910
X33910Y16910
X33910Y15910
X34910Y15910
X34910Y16910
X35910Y16910
X35910Y15910
X36910Y15910
X36910Y16910
M30
