G75*
%MOIN*%
%OFA0B0*%
%FSLAX24Y24*%
%IPPOS*%
%LPD*%
%AMOC8*
5,1,8,0,0,1.08239X$1,22.5*
%
%ADD10R,1.9941X0.0681*%
%ADD11R,0.0846X3.8051*%
%ADD12C,0.0840*%
D10*
X010268Y000910D03*
X010268Y001910D03*
X010268Y002910D03*
X010268Y003910D03*
X010268Y004910D03*
X010268Y005910D03*
X010268Y006910D03*
X010268Y007910D03*
X010268Y008910D03*
X010268Y009910D03*
X010268Y010910D03*
X010268Y011910D03*
X010268Y012910D03*
X010268Y013910D03*
X010268Y014910D03*
X010268Y015910D03*
X010268Y016910D03*
X010268Y017910D03*
X010268Y018910D03*
X010268Y019910D03*
X010268Y020910D03*
X010268Y021910D03*
X010268Y022910D03*
X010268Y023910D03*
X010268Y024910D03*
X010268Y025910D03*
X010268Y026910D03*
X010268Y027910D03*
X010268Y028910D03*
X010268Y029910D03*
X010268Y030910D03*
X010268Y031910D03*
X010268Y032910D03*
X010268Y033910D03*
X010268Y034910D03*
X010268Y035910D03*
X010268Y036910D03*
X010268Y037910D03*
X010268Y038910D03*
D11*
X028910Y019914D03*
X029910Y019914D03*
X030910Y019914D03*
D12*
X030910Y019910D03*
X030910Y020910D03*
X029910Y020910D03*
X029910Y019910D03*
X029910Y018910D03*
X029910Y017910D03*
X030910Y017910D03*
X030910Y018910D03*
X031910Y018910D03*
X031910Y017910D03*
X032910Y017910D03*
X032910Y018910D03*
X032910Y019910D03*
X032910Y020910D03*
X031910Y020910D03*
X031910Y019910D03*
X031910Y021910D03*
X031910Y022910D03*
X032910Y022910D03*
X032910Y021910D03*
X033910Y021910D03*
X033910Y022910D03*
X034910Y022910D03*
X034910Y021910D03*
X034910Y020910D03*
X034910Y019910D03*
X033910Y019910D03*
X033910Y020910D03*
X033910Y018910D03*
X033910Y017910D03*
X034910Y017910D03*
X034910Y018910D03*
X035910Y018910D03*
X035910Y017910D03*
X036910Y017910D03*
X036910Y018910D03*
X036910Y019910D03*
X036910Y020910D03*
X035910Y020910D03*
X035910Y019910D03*
X035910Y021910D03*
X035910Y022910D03*
X036910Y022910D03*
X036910Y021910D03*
X037910Y021910D03*
X037910Y022910D03*
X037910Y023910D03*
X037910Y024910D03*
X037910Y025910D03*
X037910Y026910D03*
X037910Y027910D03*
X037910Y028910D03*
X037910Y029910D03*
X037910Y030910D03*
X037910Y031910D03*
X037910Y032910D03*
X037910Y033910D03*
X037910Y034910D03*
X037910Y035910D03*
X037910Y036910D03*
X037910Y037910D03*
X037910Y038910D03*
X036910Y038910D03*
X035910Y038910D03*
X035910Y037910D03*
X036910Y037910D03*
X036910Y036910D03*
X036910Y035910D03*
X035910Y035910D03*
X035910Y036910D03*
X034910Y036910D03*
X034910Y035910D03*
X033910Y035910D03*
X033910Y036910D03*
X033910Y037910D03*
X034910Y037910D03*
X034910Y038910D03*
X033910Y038910D03*
X032910Y038910D03*
X031910Y038910D03*
X031910Y037910D03*
X032910Y037910D03*
X032910Y036910D03*
X032910Y035910D03*
X031910Y035910D03*
X031910Y036910D03*
X030910Y036910D03*
X030910Y035910D03*
X029910Y035910D03*
X029910Y036910D03*
X029910Y037910D03*
X030910Y037910D03*
X030910Y038910D03*
X029910Y038910D03*
X028910Y038910D03*
X027910Y038910D03*
X027910Y037910D03*
X028910Y037910D03*
X028910Y036910D03*
X028910Y035910D03*
X027910Y035910D03*
X027910Y036910D03*
X026910Y036910D03*
X026910Y035910D03*
X025910Y035910D03*
X025910Y036910D03*
X025910Y037910D03*
X026910Y037910D03*
X026910Y038910D03*
X025910Y038910D03*
X024910Y038910D03*
X023910Y038910D03*
X023910Y037910D03*
X024910Y037910D03*
X024910Y036910D03*
X024910Y035910D03*
X023910Y035910D03*
X023910Y036910D03*
X022910Y036910D03*
X022910Y035910D03*
X021910Y035910D03*
X021910Y036910D03*
X021910Y037910D03*
X022910Y037910D03*
X022910Y038910D03*
X021910Y038910D03*
X020910Y038910D03*
X020910Y037910D03*
X020910Y036910D03*
X020910Y035910D03*
X020910Y034910D03*
X020910Y033910D03*
X020910Y032910D03*
X020910Y031910D03*
X020910Y030910D03*
X020910Y029910D03*
X020910Y028910D03*
X020910Y027910D03*
X020910Y026910D03*
X020910Y025910D03*
X020910Y024910D03*
X020910Y023910D03*
X020910Y022910D03*
X020910Y021910D03*
X020910Y020910D03*
X020910Y019910D03*
X020910Y018910D03*
X020910Y017910D03*
X020910Y016910D03*
X020910Y015910D03*
X020910Y014910D03*
X020910Y013910D03*
X020910Y012910D03*
X020910Y011910D03*
X020910Y010910D03*
X020910Y009910D03*
X020910Y008910D03*
X020910Y007910D03*
X020910Y006910D03*
X020910Y005910D03*
X020910Y004910D03*
X020910Y003910D03*
X020910Y002910D03*
X020910Y001910D03*
X020910Y000910D03*
X021910Y000910D03*
X021910Y001910D03*
X022910Y001910D03*
X022910Y000910D03*
X023910Y000910D03*
X023910Y001910D03*
X024910Y001910D03*
X024910Y000910D03*
X025910Y000910D03*
X025910Y001910D03*
X026910Y001910D03*
X026910Y000910D03*
X027910Y000910D03*
X027910Y001910D03*
X028910Y001910D03*
X028910Y000910D03*
X029910Y000910D03*
X029910Y001910D03*
X030910Y001910D03*
X030910Y000910D03*
X031910Y000910D03*
X031910Y001910D03*
X032910Y001910D03*
X032910Y000910D03*
X033910Y000910D03*
X033910Y001910D03*
X034910Y001910D03*
X034910Y000910D03*
X035910Y000910D03*
X035910Y001910D03*
X036910Y001910D03*
X036910Y000910D03*
X037910Y000910D03*
X037910Y001910D03*
X037910Y002910D03*
X037910Y003910D03*
X037910Y004910D03*
X037910Y005910D03*
X037910Y006910D03*
X037910Y007910D03*
X037910Y008910D03*
X037910Y009910D03*
X037910Y010910D03*
X037910Y011910D03*
X037910Y012910D03*
X037910Y013910D03*
X037910Y014910D03*
X037910Y015910D03*
X037910Y016910D03*
X037910Y017910D03*
X037910Y018910D03*
X037910Y019910D03*
X037910Y020910D03*
X038910Y020910D03*
X038910Y019910D03*
X038910Y018910D03*
X038910Y017910D03*
X038910Y016910D03*
X038910Y015910D03*
X038910Y014910D03*
X038910Y013910D03*
X038910Y012910D03*
X038910Y011910D03*
X038910Y010910D03*
X038910Y009910D03*
X038910Y008910D03*
X038910Y007910D03*
X038910Y006910D03*
X038910Y005910D03*
X038910Y004910D03*
X038910Y003910D03*
X038910Y002910D03*
X038910Y001910D03*
X038910Y000910D03*
X036910Y002910D03*
X036910Y003910D03*
X035910Y003910D03*
X035910Y002910D03*
X034910Y002910D03*
X034910Y003910D03*
X033910Y003910D03*
X033910Y002910D03*
X032910Y002910D03*
X032910Y003910D03*
X031910Y003910D03*
X031910Y002910D03*
X030910Y002910D03*
X030910Y003910D03*
X029910Y003910D03*
X029910Y002910D03*
X028910Y002910D03*
X028910Y003910D03*
X027910Y003910D03*
X027910Y002910D03*
X026910Y002910D03*
X026910Y003910D03*
X025910Y003910D03*
X025910Y002910D03*
X024910Y002910D03*
X024910Y003910D03*
X023910Y003910D03*
X023910Y002910D03*
X022910Y002910D03*
X022910Y003910D03*
X021910Y003910D03*
X021910Y002910D03*
X021910Y004910D03*
X021910Y005910D03*
X022910Y005910D03*
X022910Y004910D03*
X023910Y004910D03*
X023910Y005910D03*
X024910Y005910D03*
X024910Y004910D03*
X025910Y004910D03*
X025910Y005910D03*
X026910Y005910D03*
X026910Y004910D03*
X027910Y004910D03*
X027910Y005910D03*
X028910Y005910D03*
X028910Y004910D03*
X029910Y004910D03*
X029910Y005910D03*
X030910Y005910D03*
X030910Y004910D03*
X031910Y004910D03*
X031910Y005910D03*
X032910Y005910D03*
X032910Y004910D03*
X033910Y004910D03*
X033910Y005910D03*
X034910Y005910D03*
X034910Y004910D03*
X035910Y004910D03*
X035910Y005910D03*
X036910Y005910D03*
X036910Y004910D03*
X036910Y006910D03*
X036910Y007910D03*
X035910Y007910D03*
X035910Y006910D03*
X034910Y006910D03*
X034910Y007910D03*
X033910Y007910D03*
X033910Y006910D03*
X032910Y006910D03*
X032910Y007910D03*
X031910Y007910D03*
X031910Y006910D03*
X030910Y006910D03*
X030910Y007910D03*
X029910Y007910D03*
X029910Y006910D03*
X028910Y006910D03*
X028910Y007910D03*
X027910Y007910D03*
X027910Y006910D03*
X026910Y006910D03*
X026910Y007910D03*
X025910Y007910D03*
X025910Y006910D03*
X024910Y006910D03*
X024910Y007910D03*
X023910Y007910D03*
X023910Y006910D03*
X022910Y006910D03*
X022910Y007910D03*
X021910Y007910D03*
X021910Y006910D03*
X021910Y008910D03*
X021910Y009910D03*
X022910Y009910D03*
X022910Y008910D03*
X023910Y008910D03*
X023910Y009910D03*
X024910Y009910D03*
X024910Y008910D03*
X025910Y008910D03*
X025910Y009910D03*
X026910Y009910D03*
X026910Y008910D03*
X027910Y008910D03*
X027910Y009910D03*
X028910Y009910D03*
X028910Y008910D03*
X029910Y008910D03*
X029910Y009910D03*
X030910Y009910D03*
X030910Y008910D03*
X031910Y008910D03*
X031910Y009910D03*
X032910Y009910D03*
X032910Y008910D03*
X033910Y008910D03*
X033910Y009910D03*
X034910Y009910D03*
X034910Y008910D03*
X035910Y008910D03*
X035910Y009910D03*
X036910Y009910D03*
X036910Y008910D03*
X036910Y010910D03*
X035910Y010910D03*
X035910Y011910D03*
X035910Y012910D03*
X036910Y012910D03*
X036910Y011910D03*
X036910Y013910D03*
X036910Y014910D03*
X035910Y014910D03*
X035910Y013910D03*
X034910Y013910D03*
X034910Y014910D03*
X033910Y014910D03*
X033910Y013910D03*
X033910Y012910D03*
X033910Y011910D03*
X034910Y011910D03*
X034910Y012910D03*
X034910Y010910D03*
X033910Y010910D03*
X032910Y010910D03*
X031910Y010910D03*
X031910Y011910D03*
X031910Y012910D03*
X032910Y012910D03*
X032910Y011910D03*
X032910Y013910D03*
X032910Y014910D03*
X031910Y014910D03*
X031910Y013910D03*
X030910Y013910D03*
X030910Y014910D03*
X029910Y014910D03*
X029910Y013910D03*
X029910Y012910D03*
X029910Y011910D03*
X030910Y011910D03*
X030910Y012910D03*
X030910Y010910D03*
X029910Y010910D03*
X028910Y010910D03*
X027910Y010910D03*
X027910Y011910D03*
X027910Y012910D03*
X028910Y012910D03*
X028910Y011910D03*
X028910Y013910D03*
X028910Y014910D03*
X027910Y014910D03*
X027910Y013910D03*
X026910Y013910D03*
X026910Y014910D03*
X025910Y014910D03*
X025910Y013910D03*
X025910Y012910D03*
X025910Y011910D03*
X026910Y011910D03*
X026910Y012910D03*
X026910Y010910D03*
X025910Y010910D03*
X024910Y010910D03*
X023910Y010910D03*
X023910Y011910D03*
X023910Y012910D03*
X024910Y012910D03*
X024910Y011910D03*
X024910Y013910D03*
X024910Y014910D03*
X023910Y014910D03*
X023910Y013910D03*
X022910Y013910D03*
X022910Y014910D03*
X021910Y014910D03*
X021910Y013910D03*
X021910Y012910D03*
X021910Y011910D03*
X022910Y011910D03*
X022910Y012910D03*
X022910Y010910D03*
X021910Y010910D03*
X021910Y015910D03*
X021910Y016910D03*
X022910Y016910D03*
X022910Y015910D03*
X023910Y015910D03*
X023910Y016910D03*
X024910Y016910D03*
X024910Y015910D03*
X025910Y015910D03*
X025910Y016910D03*
X026910Y016910D03*
X026910Y015910D03*
X027910Y015910D03*
X027910Y016910D03*
X028910Y016910D03*
X028910Y015910D03*
X029910Y015910D03*
X029910Y016910D03*
X030910Y016910D03*
X030910Y015910D03*
X031910Y015910D03*
X031910Y016910D03*
X032910Y016910D03*
X032910Y015910D03*
X033910Y015910D03*
X033910Y016910D03*
X034910Y016910D03*
X034910Y015910D03*
X035910Y015910D03*
X035910Y016910D03*
X036910Y016910D03*
X036910Y015910D03*
X038910Y021910D03*
X038910Y022910D03*
X038910Y023910D03*
X038910Y024910D03*
X038910Y025910D03*
X038910Y026910D03*
X038910Y027910D03*
X038910Y028910D03*
X038910Y029910D03*
X038910Y030910D03*
X038910Y031910D03*
X038910Y032910D03*
X038910Y033910D03*
X038910Y034910D03*
X038910Y035910D03*
X038910Y036910D03*
X038910Y037910D03*
X038910Y038910D03*
X036910Y034910D03*
X036910Y033910D03*
X035910Y033910D03*
X035910Y034910D03*
X034910Y034910D03*
X034910Y033910D03*
X033910Y033910D03*
X033910Y034910D03*
X032910Y034910D03*
X032910Y033910D03*
X031910Y033910D03*
X031910Y034910D03*
X030910Y034910D03*
X030910Y033910D03*
X029910Y033910D03*
X029910Y034910D03*
X028910Y034910D03*
X028910Y033910D03*
X027910Y033910D03*
X027910Y034910D03*
X026910Y034910D03*
X026910Y033910D03*
X025910Y033910D03*
X025910Y034910D03*
X024910Y034910D03*
X024910Y033910D03*
X023910Y033910D03*
X023910Y034910D03*
X022910Y034910D03*
X022910Y033910D03*
X021910Y033910D03*
X021910Y034910D03*
X021910Y032910D03*
X021910Y031910D03*
X022910Y031910D03*
X022910Y032910D03*
X023910Y032910D03*
X023910Y031910D03*
X024910Y031910D03*
X024910Y032910D03*
X025910Y032910D03*
X025910Y031910D03*
X026910Y031910D03*
X026910Y032910D03*
X027910Y032910D03*
X027910Y031910D03*
X028910Y031910D03*
X028910Y032910D03*
X029910Y032910D03*
X029910Y031910D03*
X030910Y031910D03*
X030910Y032910D03*
X031910Y032910D03*
X031910Y031910D03*
X032910Y031910D03*
X032910Y032910D03*
X033910Y032910D03*
X033910Y031910D03*
X034910Y031910D03*
X034910Y032910D03*
X035910Y032910D03*
X035910Y031910D03*
X036910Y031910D03*
X036910Y032910D03*
X036910Y030910D03*
X036910Y029910D03*
X035910Y029910D03*
X035910Y030910D03*
X034910Y030910D03*
X034910Y029910D03*
X033910Y029910D03*
X033910Y030910D03*
X032910Y030910D03*
X032910Y029910D03*
X031910Y029910D03*
X031910Y030910D03*
X030910Y030910D03*
X030910Y029910D03*
X029910Y029910D03*
X029910Y030910D03*
X028910Y030910D03*
X028910Y029910D03*
X027910Y029910D03*
X027910Y030910D03*
X026910Y030910D03*
X026910Y029910D03*
X025910Y029910D03*
X025910Y030910D03*
X024910Y030910D03*
X024910Y029910D03*
X023910Y029910D03*
X023910Y030910D03*
X022910Y030910D03*
X022910Y029910D03*
X021910Y029910D03*
X021910Y030910D03*
X021910Y028910D03*
X021910Y027910D03*
X022910Y027910D03*
X022910Y028910D03*
X023910Y028910D03*
X023910Y027910D03*
X024910Y027910D03*
X024910Y028910D03*
X025910Y028910D03*
X025910Y027910D03*
X026910Y027910D03*
X026910Y028910D03*
X027910Y028910D03*
X027910Y027910D03*
X028910Y027910D03*
X028910Y028910D03*
X029910Y028910D03*
X029910Y027910D03*
X030910Y027910D03*
X030910Y028910D03*
X031910Y028910D03*
X031910Y027910D03*
X032910Y027910D03*
X032910Y028910D03*
X033910Y028910D03*
X033910Y027910D03*
X034910Y027910D03*
X034910Y028910D03*
X035910Y028910D03*
X035910Y027910D03*
X036910Y027910D03*
X036910Y028910D03*
X036910Y026910D03*
X036910Y025910D03*
X035910Y025910D03*
X035910Y026910D03*
X034910Y026910D03*
X034910Y025910D03*
X033910Y025910D03*
X033910Y026910D03*
X032910Y026910D03*
X032910Y025910D03*
X031910Y025910D03*
X031910Y026910D03*
X030910Y026910D03*
X030910Y025910D03*
X029910Y025910D03*
X029910Y026910D03*
X028910Y026910D03*
X028910Y025910D03*
X027910Y025910D03*
X027910Y026910D03*
X026910Y026910D03*
X026910Y025910D03*
X025910Y025910D03*
X025910Y026910D03*
X024910Y026910D03*
X024910Y025910D03*
X023910Y025910D03*
X023910Y026910D03*
X022910Y026910D03*
X022910Y025910D03*
X021910Y025910D03*
X021910Y026910D03*
X021910Y024910D03*
X021910Y023910D03*
X022910Y023910D03*
X022910Y024910D03*
X023910Y024910D03*
X023910Y023910D03*
X024910Y023910D03*
X024910Y024910D03*
X025910Y024910D03*
X025910Y023910D03*
X026910Y023910D03*
X026910Y024910D03*
X027910Y024910D03*
X027910Y023910D03*
X028910Y023910D03*
X028910Y024910D03*
X029910Y024910D03*
X029910Y023910D03*
X030910Y023910D03*
X030910Y024910D03*
X031910Y024910D03*
X031910Y023910D03*
X032910Y023910D03*
X032910Y024910D03*
X033910Y024910D03*
X033910Y023910D03*
X034910Y023910D03*
X034910Y024910D03*
X035910Y024910D03*
X035910Y023910D03*
X036910Y023910D03*
X036910Y024910D03*
X030910Y022910D03*
X030910Y021910D03*
X029910Y021910D03*
X029910Y022910D03*
X028910Y022910D03*
X028910Y021910D03*
X027910Y021910D03*
X027910Y022910D03*
X026910Y022910D03*
X026910Y021910D03*
X025910Y021910D03*
X025910Y022910D03*
X024910Y022910D03*
X024910Y021910D03*
X023910Y021910D03*
X023910Y022910D03*
X022910Y022910D03*
X022910Y021910D03*
X021910Y021910D03*
X021910Y022910D03*
X021910Y020910D03*
X021910Y019910D03*
X022910Y019910D03*
X022910Y020910D03*
X023910Y020910D03*
X023910Y019910D03*
X024910Y019910D03*
X024910Y020910D03*
X025910Y020910D03*
X025910Y019910D03*
X026910Y019910D03*
X026910Y020910D03*
X027910Y020910D03*
X027910Y019910D03*
X028910Y019910D03*
X028910Y020910D03*
X028910Y018910D03*
X028910Y017910D03*
X027910Y017910D03*
X027910Y018910D03*
X026910Y018910D03*
X026910Y017910D03*
X025910Y017910D03*
X025910Y018910D03*
X024910Y018910D03*
X024910Y017910D03*
X023910Y017910D03*
X023910Y018910D03*
X022910Y018910D03*
X022910Y017910D03*
X021910Y017910D03*
X021910Y018910D03*
M02*
