M48
;DRILL file {KiCad 4.0.6} date 07/05/17 21:05:10
;FORMAT={-:-/ absolute / metric / decimal}
FMAT,2
METRIC,TZ
T1C0.400
T2C0.800
T3C1.000
%
G90
G05
M71
T1
X80.645Y-66.04
X80.645Y-91.04
X80.645Y-116.04
X80.645Y-141.04
X82.296Y-71.628
X82.296Y-96.628
X82.296Y-121.628
X82.296Y-146.628
X83.82Y-72.644
X83.82Y-97.644
X83.82Y-122.644
X83.82Y-147.644
X85.344Y-73.66
X85.344Y-98.66
X85.344Y-123.66
X85.344Y-148.66
X86.868Y-74.676
X86.868Y-99.676
X86.868Y-124.676
X86.868Y-149.676
X95.885Y-67.31
X95.885Y-92.31
X95.885Y-117.31
X95.885Y-142.31
X102.235Y-66.04
X102.235Y-91.04
X102.235Y-116.04
X102.235Y-141.04
X103.632Y-71.628
X103.632Y-96.628
X103.632Y-121.628
X103.632Y-146.628
X105.156Y-72.644
X105.156Y-97.644
X105.156Y-122.644
X105.156Y-147.644
X106.68Y-73.66
X106.68Y-98.66
X106.68Y-123.66
X106.68Y-148.66
X108.204Y-74.676
X108.204Y-99.676
X108.204Y-124.676
X108.204Y-149.676
X109.22Y-66.04
X109.22Y-91.04
X109.22Y-116.04
X109.22Y-141.04
X123.825Y-66.04
X123.825Y-91.04
X123.825Y-116.04
X123.825Y-141.04
X125.476Y-71.628
X125.476Y-96.628
X125.476Y-121.628
X125.476Y-146.628
X127.Y-72.644
X127.Y-97.644
X127.Y-122.644
X127.Y-147.644
X128.524Y-73.66
X128.524Y-98.66
X128.524Y-123.66
X128.524Y-148.66
X130.048Y-74.676
X130.048Y-99.676
X130.048Y-124.676
X130.048Y-149.676
X139.065Y-67.31
X139.065Y-92.31
X139.065Y-117.31
X139.065Y-142.31
X145.415Y-66.04
X145.415Y-91.04
X145.415Y-116.04
X145.415Y-141.04
X146.812Y-71.628
X146.812Y-96.628
X146.812Y-121.628
X146.812Y-146.628
X148.336Y-72.644
X148.336Y-97.644
X148.336Y-122.644
X148.336Y-147.644
X149.86Y-73.66
X149.86Y-98.66
X149.86Y-123.66
X149.86Y-148.66
X151.384Y-74.676
X151.384Y-99.676
X151.384Y-124.676
X151.384Y-149.676
T2
X76.2Y-68.58
X76.2Y-76.2
X76.2Y-93.58
X76.2Y-101.2
X76.2Y-118.58
X76.2Y-126.2
X76.2Y-143.58
X76.2Y-151.2
X78.74Y-68.58
X78.74Y-76.2
X78.74Y-93.58
X78.74Y-101.2
X78.74Y-118.58
X78.74Y-126.2
X78.74Y-143.58
X78.74Y-151.2
X81.28Y-68.58
X81.28Y-76.2
X81.28Y-93.58
X81.28Y-101.2
X81.28Y-118.58
X81.28Y-126.2
X81.28Y-143.58
X81.28Y-151.2
X83.82Y-68.58
X83.82Y-76.2
X83.82Y-93.58
X83.82Y-101.2
X83.82Y-118.58
X83.82Y-126.2
X83.82Y-143.58
X83.82Y-151.2
X86.36Y-68.58
X86.36Y-76.2
X86.36Y-93.58
X86.36Y-101.2
X86.36Y-118.58
X86.36Y-126.2
X86.36Y-143.58
X86.36Y-151.2
X88.9Y-68.58
X88.9Y-76.2
X88.9Y-93.58
X88.9Y-101.2
X88.9Y-118.58
X88.9Y-126.2
X88.9Y-143.58
X88.9Y-151.2
X91.44Y-68.58
X91.44Y-76.2
X91.44Y-93.58
X91.44Y-101.2
X91.44Y-118.58
X91.44Y-126.2
X91.44Y-143.58
X91.44Y-151.2
X93.98Y-68.58
X93.98Y-76.2
X93.98Y-93.58
X93.98Y-101.2
X93.98Y-118.58
X93.98Y-126.2
X93.98Y-143.58
X93.98Y-151.2
X97.79Y-68.58
X97.79Y-76.2
X97.79Y-93.58
X97.79Y-101.2
X97.79Y-118.58
X97.79Y-126.2
X97.79Y-143.58
X97.79Y-151.2
X100.33Y-68.58
X100.33Y-76.2
X100.33Y-93.58
X100.33Y-101.2
X100.33Y-118.58
X100.33Y-126.2
X100.33Y-143.58
X100.33Y-151.2
X102.87Y-68.58
X102.87Y-76.2
X102.87Y-93.58
X102.87Y-101.2
X102.87Y-118.58
X102.87Y-126.2
X102.87Y-143.58
X102.87Y-151.2
X105.41Y-68.58
X105.41Y-76.2
X105.41Y-93.58
X105.41Y-101.2
X105.41Y-118.58
X105.41Y-126.2
X105.41Y-143.58
X105.41Y-151.2
X107.95Y-68.58
X107.95Y-76.2
X107.95Y-93.58
X107.95Y-101.2
X107.95Y-118.58
X107.95Y-126.2
X107.95Y-143.58
X107.95Y-151.2
X110.49Y-68.58
X110.49Y-76.2
X110.49Y-93.58
X110.49Y-101.2
X110.49Y-118.58
X110.49Y-126.2
X110.49Y-143.58
X110.49Y-151.2
X113.03Y-68.58
X113.03Y-76.2
X113.03Y-93.58
X113.03Y-101.2
X113.03Y-118.58
X113.03Y-126.2
X113.03Y-143.58
X113.03Y-151.2
X115.57Y-68.58
X115.57Y-76.2
X115.57Y-93.58
X115.57Y-101.2
X115.57Y-118.58
X115.57Y-126.2
X115.57Y-143.58
X115.57Y-151.2
X119.38Y-68.58
X119.38Y-76.2
X119.38Y-93.58
X119.38Y-101.2
X119.38Y-118.58
X119.38Y-126.2
X119.38Y-143.58
X119.38Y-151.2
X121.92Y-68.58
X121.92Y-76.2
X121.92Y-93.58
X121.92Y-101.2
X121.92Y-118.58
X121.92Y-126.2
X121.92Y-143.58
X121.92Y-151.2
X124.46Y-68.58
X124.46Y-76.2
X124.46Y-93.58
X124.46Y-101.2
X124.46Y-118.58
X124.46Y-126.2
X124.46Y-143.58
X124.46Y-151.2
X127.Y-68.58
X127.Y-76.2
X127.Y-93.58
X127.Y-101.2
X127.Y-118.58
X127.Y-126.2
X127.Y-143.58
X127.Y-151.2
X129.54Y-68.58
X129.54Y-76.2
X129.54Y-93.58
X129.54Y-101.2
X129.54Y-118.58
X129.54Y-126.2
X129.54Y-143.58
X129.54Y-151.2
X132.08Y-68.58
X132.08Y-76.2
X132.08Y-93.58
X132.08Y-101.2
X132.08Y-118.58
X132.08Y-126.2
X132.08Y-143.58
X132.08Y-151.2
X134.62Y-68.58
X134.62Y-76.2
X134.62Y-93.58
X134.62Y-101.2
X134.62Y-118.58
X134.62Y-126.2
X134.62Y-143.58
X134.62Y-151.2
X137.16Y-68.58
X137.16Y-76.2
X137.16Y-93.58
X137.16Y-101.2
X137.16Y-118.58
X137.16Y-126.2
X137.16Y-143.58
X137.16Y-151.2
X140.97Y-68.58
X140.97Y-76.2
X140.97Y-93.58
X140.97Y-101.2
X140.97Y-118.58
X140.97Y-126.2
X140.97Y-143.58
X140.97Y-151.2
X143.51Y-68.58
X143.51Y-76.2
X143.51Y-93.58
X143.51Y-101.2
X143.51Y-118.58
X143.51Y-126.2
X143.51Y-143.58
X143.51Y-151.2
X146.05Y-68.58
X146.05Y-76.2
X146.05Y-93.58
X146.05Y-101.2
X146.05Y-118.58
X146.05Y-126.2
X146.05Y-143.58
X146.05Y-151.2
X148.59Y-68.58
X148.59Y-76.2
X148.59Y-93.58
X148.59Y-101.2
X148.59Y-118.58
X148.59Y-126.2
X148.59Y-143.58
X148.59Y-151.2
X151.13Y-68.58
X151.13Y-76.2
X151.13Y-93.58
X151.13Y-101.2
X151.13Y-118.58
X151.13Y-126.2
X151.13Y-143.58
X151.13Y-151.2
X153.67Y-68.58
X153.67Y-76.2
X153.67Y-93.58
X153.67Y-101.2
X153.67Y-118.58
X153.67Y-126.2
X153.67Y-143.58
X153.67Y-151.2
X156.21Y-68.58
X156.21Y-76.2
X156.21Y-93.58
X156.21Y-101.2
X156.21Y-118.58
X156.21Y-126.2
X156.21Y-143.58
X156.21Y-151.2
X158.75Y-68.58
X158.75Y-76.2
X158.75Y-93.58
X158.75Y-101.2
X158.75Y-118.58
X158.75Y-126.2
X158.75Y-143.58
X158.75Y-151.2
T3
X71.12Y-63.5
X71.12Y-66.04
X71.12Y-68.58
X71.12Y-71.12
X71.12Y-73.66
X71.12Y-76.2
X71.12Y-78.74
X71.12Y-81.28
X71.12Y-88.5
X71.12Y-91.04
X71.12Y-93.58
X71.12Y-96.12
X71.12Y-98.66
X71.12Y-101.2
X71.12Y-103.74
X71.12Y-106.28
X71.12Y-113.5
X71.12Y-116.04
X71.12Y-118.58
X71.12Y-121.12
X71.12Y-123.66
X71.12Y-126.2
X71.12Y-128.74
X71.12Y-131.28
X71.12Y-138.5
X71.12Y-141.04
X71.12Y-143.58
X71.12Y-146.12
X71.12Y-148.66
X71.12Y-151.2
X71.12Y-153.74
X71.12Y-156.28
X76.2Y-81.28
X76.2Y-106.28
X76.2Y-131.28
X76.2Y-156.28
X78.74Y-81.28
X78.74Y-106.28
X78.74Y-131.28
X78.74Y-156.28
X81.28Y-81.28
X81.28Y-106.28
X81.28Y-131.28
X81.28Y-156.28
X83.82Y-81.28
X83.82Y-106.28
X83.82Y-131.28
X83.82Y-156.28
X86.36Y-81.28
X86.36Y-106.28
X86.36Y-131.28
X86.36Y-156.28
X88.9Y-81.28
X88.9Y-106.28
X88.9Y-131.28
X88.9Y-156.28
X91.44Y-81.28
X91.44Y-106.28
X91.44Y-131.28
X91.44Y-156.28
X93.98Y-81.28
X93.98Y-106.28
X93.98Y-131.28
X93.98Y-156.28
X96.52Y-81.28
X96.52Y-106.28
X96.52Y-131.28
X96.52Y-156.28
X99.06Y-81.28
X99.06Y-106.28
X99.06Y-131.28
X99.06Y-156.28
X101.6Y-81.28
X101.6Y-106.28
X101.6Y-131.28
X101.6Y-156.28
X104.14Y-81.28
X104.14Y-106.28
X104.14Y-131.28
X104.14Y-156.28
X106.68Y-81.28
X106.68Y-106.28
X106.68Y-131.28
X106.68Y-156.28
X109.22Y-81.28
X109.22Y-106.28
X109.22Y-131.28
X109.22Y-156.28
X111.76Y-81.28
X111.76Y-106.28
X111.76Y-131.28
X111.76Y-156.28
X114.3Y-81.28
X114.3Y-106.28
X114.3Y-131.28
X114.3Y-156.28
X116.84Y-81.28
X116.84Y-106.28
X116.84Y-131.28
X116.84Y-156.28
X119.38Y-81.28
X119.38Y-106.28
X119.38Y-131.28
X119.38Y-156.28
X121.92Y-81.28
X121.92Y-106.28
X121.92Y-131.28
X121.92Y-156.28
X124.46Y-81.28
X124.46Y-106.28
X124.46Y-131.28
X124.46Y-156.28
X127.Y-81.28
X127.Y-106.28
X127.Y-131.28
X127.Y-156.28
X129.54Y-81.28
X129.54Y-106.28
X129.54Y-131.28
X129.54Y-156.28
X132.08Y-81.28
X132.08Y-106.28
X132.08Y-131.28
X132.08Y-156.28
X134.62Y-81.28
X134.62Y-106.28
X134.62Y-131.28
X134.62Y-156.28
X137.16Y-81.28
X137.16Y-106.28
X137.16Y-131.28
X137.16Y-156.28
X139.7Y-81.28
X139.7Y-106.28
X139.7Y-131.28
X139.7Y-156.28
X142.24Y-81.28
X142.24Y-106.28
X142.24Y-131.28
X142.24Y-156.28
X144.78Y-81.28
X144.78Y-106.28
X144.78Y-131.28
X144.78Y-156.28
X147.32Y-81.28
X147.32Y-106.28
X147.32Y-131.28
X147.32Y-156.28
X149.86Y-81.28
X149.86Y-106.28
X149.86Y-131.28
X149.86Y-156.28
X152.4Y-81.28
X152.4Y-106.28
X152.4Y-131.28
X152.4Y-156.28
X154.94Y-81.28
X154.94Y-106.28
X154.94Y-131.28
X154.94Y-156.28
X163.83Y-63.5
X163.83Y-66.04
X163.83Y-68.58
X163.83Y-71.12
X163.83Y-73.66
X163.83Y-76.2
X163.83Y-78.74
X163.83Y-81.28
X163.83Y-88.5
X163.83Y-91.04
X163.83Y-93.58
X163.83Y-96.12
X163.83Y-98.66
X163.83Y-101.2
X163.83Y-103.74
X163.83Y-106.28
X163.83Y-113.5
X163.83Y-116.04
X163.83Y-118.58
X163.83Y-121.12
X163.83Y-123.66
X163.83Y-126.2
X163.83Y-128.74
X163.83Y-131.28
X163.83Y-138.5
X163.83Y-141.04
X163.83Y-143.58
X163.83Y-146.12
X163.83Y-148.66
X163.83Y-151.2
X163.83Y-153.74
X163.83Y-156.28
T0
M30
