G04 #@! TF.FileFunction,Other,Fab,Top*
%FSLAX46Y46*%
G04 Gerber Fmt 4.6, Leading zero omitted, Abs format (unit mm)*
G04 Created by KiCad (PCBNEW 4.0.6) date 07/25/17 18:54:20*
%MOMM*%
%LPD*%
G01*
G04 APERTURE LIST*
%ADD10C,0.100000*%
%ADD11C,0.300000*%
%ADD12C,0.150000*%
%ADD13C,0.075000*%
%ADD14C,0.120000*%
G04 APERTURE END LIST*
D10*
D11*
X47922571Y-32934856D02*
X47208286Y-33434856D01*
X47922571Y-33791999D02*
X46422571Y-33791999D01*
X46422571Y-33220571D01*
X46494000Y-33077713D01*
X46565429Y-33006285D01*
X46708286Y-32934856D01*
X46922571Y-32934856D01*
X47065429Y-33006285D01*
X47136857Y-33077713D01*
X47208286Y-33220571D01*
X47208286Y-33791999D01*
X46422571Y-32506285D02*
X47922571Y-32006285D01*
X46422571Y-31506285D01*
X46922571Y-30363428D02*
X47922571Y-30363428D01*
X46351143Y-30720571D02*
X47422571Y-31077714D01*
X47422571Y-30149142D01*
X47922571Y-23282856D02*
X47208286Y-23782856D01*
X47922571Y-24139999D02*
X46422571Y-24139999D01*
X46422571Y-23568571D01*
X46494000Y-23425713D01*
X46565429Y-23354285D01*
X46708286Y-23282856D01*
X46922571Y-23282856D01*
X47065429Y-23354285D01*
X47136857Y-23425713D01*
X47208286Y-23568571D01*
X47208286Y-24139999D01*
X46422571Y-22854285D02*
X47922571Y-22354285D01*
X46422571Y-21854285D01*
X46422571Y-21497142D02*
X46422571Y-20568571D01*
X46994000Y-21068571D01*
X46994000Y-20854285D01*
X47065429Y-20711428D01*
X47136857Y-20639999D01*
X47279714Y-20568571D01*
X47636857Y-20568571D01*
X47779714Y-20639999D01*
X47851143Y-20711428D01*
X47922571Y-20854285D01*
X47922571Y-21282857D01*
X47851143Y-21425714D01*
X47779714Y-21497142D01*
X3472571Y-30140856D02*
X2758286Y-30640856D01*
X3472571Y-30997999D02*
X1972571Y-30997999D01*
X1972571Y-30426571D01*
X2044000Y-30283713D01*
X2115429Y-30212285D01*
X2258286Y-30140856D01*
X2472571Y-30140856D01*
X2615429Y-30212285D01*
X2686857Y-30283713D01*
X2758286Y-30426571D01*
X2758286Y-30997999D01*
X1972571Y-29712285D02*
X3472571Y-29212285D01*
X1972571Y-28712285D01*
X3472571Y-27426571D02*
X3472571Y-28283714D01*
X3472571Y-27855142D02*
X1972571Y-27855142D01*
X2186857Y-27997999D01*
X2329714Y-28140857D01*
X2401143Y-28283714D01*
X3726571Y-20234856D02*
X3012286Y-20734856D01*
X3726571Y-21091999D02*
X2226571Y-21091999D01*
X2226571Y-20520571D01*
X2298000Y-20377713D01*
X2369429Y-20306285D01*
X2512286Y-20234856D01*
X2726571Y-20234856D01*
X2869429Y-20306285D01*
X2940857Y-20377713D01*
X3012286Y-20520571D01*
X3012286Y-21091999D01*
X2226571Y-19806285D02*
X3726571Y-19306285D01*
X2226571Y-18806285D01*
X2369429Y-18377714D02*
X2298000Y-18306285D01*
X2226571Y-18163428D01*
X2226571Y-17806285D01*
X2298000Y-17663428D01*
X2369429Y-17591999D01*
X2512286Y-17520571D01*
X2655143Y-17520571D01*
X2869429Y-17591999D01*
X3726571Y-18449142D01*
X3726571Y-17520571D01*
X21705143Y-49230571D02*
X21705143Y-47730571D01*
X22062286Y-47730571D01*
X22276571Y-47802000D01*
X22419429Y-47944857D01*
X22490857Y-48087714D01*
X22562286Y-48373429D01*
X22562286Y-48587714D01*
X22490857Y-48873429D01*
X22419429Y-49016286D01*
X22276571Y-49159143D01*
X22062286Y-49230571D01*
X21705143Y-49230571D01*
X17125143Y-48444857D02*
X17339429Y-48516286D01*
X17410857Y-48587714D01*
X17482286Y-48730571D01*
X17482286Y-48944857D01*
X17410857Y-49087714D01*
X17339429Y-49159143D01*
X17196571Y-49230571D01*
X16625143Y-49230571D01*
X16625143Y-47730571D01*
X17125143Y-47730571D01*
X17268000Y-47802000D01*
X17339429Y-47873429D01*
X17410857Y-48016286D01*
X17410857Y-48159143D01*
X17339429Y-48302000D01*
X17268000Y-48373429D01*
X17125143Y-48444857D01*
X16625143Y-48444857D01*
X20022286Y-49087714D02*
X19950857Y-49159143D01*
X19736571Y-49230571D01*
X19593714Y-49230571D01*
X19379429Y-49159143D01*
X19236571Y-49016286D01*
X19165143Y-48873429D01*
X19093714Y-48587714D01*
X19093714Y-48373429D01*
X19165143Y-48087714D01*
X19236571Y-47944857D01*
X19379429Y-47802000D01*
X19593714Y-47730571D01*
X19736571Y-47730571D01*
X19950857Y-47802000D01*
X20022286Y-47873429D01*
X14120857Y-48802000D02*
X14835143Y-48802000D01*
X13978000Y-49230571D02*
X14478000Y-47730571D01*
X14978000Y-49230571D01*
X9005143Y-49230571D02*
X9005143Y-47730571D01*
X9362286Y-47730571D01*
X9576571Y-47802000D01*
X9719429Y-47944857D01*
X9790857Y-48087714D01*
X9862286Y-48373429D01*
X9862286Y-48587714D01*
X9790857Y-48873429D01*
X9719429Y-49016286D01*
X9576571Y-49159143D01*
X9362286Y-49230571D01*
X9005143Y-49230571D01*
X4425143Y-48444857D02*
X4639429Y-48516286D01*
X4710857Y-48587714D01*
X4782286Y-48730571D01*
X4782286Y-48944857D01*
X4710857Y-49087714D01*
X4639429Y-49159143D01*
X4496571Y-49230571D01*
X3925143Y-49230571D01*
X3925143Y-47730571D01*
X4425143Y-47730571D01*
X4568000Y-47802000D01*
X4639429Y-47873429D01*
X4710857Y-48016286D01*
X4710857Y-48159143D01*
X4639429Y-48302000D01*
X4568000Y-48373429D01*
X4425143Y-48444857D01*
X3925143Y-48444857D01*
X7322286Y-49087714D02*
X7250857Y-49159143D01*
X7036571Y-49230571D01*
X6893714Y-49230571D01*
X6679429Y-49159143D01*
X6536571Y-49016286D01*
X6465143Y-48873429D01*
X6393714Y-48587714D01*
X6393714Y-48373429D01*
X6465143Y-48087714D01*
X6536571Y-47944857D01*
X6679429Y-47802000D01*
X6893714Y-47730571D01*
X7036571Y-47730571D01*
X7250857Y-47802000D01*
X7322286Y-47873429D01*
X1420857Y-48802000D02*
X2135143Y-48802000D01*
X1278000Y-49230571D02*
X1778000Y-47730571D01*
X2278000Y-49230571D01*
X14593143Y-5288571D02*
X14593143Y-3788571D01*
X14950286Y-3788571D01*
X15164571Y-3860000D01*
X15307429Y-4002857D01*
X15378857Y-4145714D01*
X15450286Y-4431429D01*
X15450286Y-4645714D01*
X15378857Y-4931429D01*
X15307429Y-5074286D01*
X15164571Y-5217143D01*
X14950286Y-5288571D01*
X14593143Y-5288571D01*
X12910286Y-5145714D02*
X12838857Y-5217143D01*
X12624571Y-5288571D01*
X12481714Y-5288571D01*
X12267429Y-5217143D01*
X12124571Y-5074286D01*
X12053143Y-4931429D01*
X11981714Y-4645714D01*
X11981714Y-4431429D01*
X12053143Y-4145714D01*
X12124571Y-4002857D01*
X12267429Y-3860000D01*
X12481714Y-3788571D01*
X12624571Y-3788571D01*
X12838857Y-3860000D01*
X12910286Y-3931429D01*
X10013143Y-4502857D02*
X10227429Y-4574286D01*
X10298857Y-4645714D01*
X10370286Y-4788571D01*
X10370286Y-5002857D01*
X10298857Y-5145714D01*
X10227429Y-5217143D01*
X10084571Y-5288571D01*
X9513143Y-5288571D01*
X9513143Y-3788571D01*
X10013143Y-3788571D01*
X10156000Y-3860000D01*
X10227429Y-3931429D01*
X10298857Y-4074286D01*
X10298857Y-4217143D01*
X10227429Y-4360000D01*
X10156000Y-4431429D01*
X10013143Y-4502857D01*
X9513143Y-4502857D01*
X7008857Y-4860000D02*
X7723143Y-4860000D01*
X6866000Y-5288571D02*
X7366000Y-3788571D01*
X7866000Y-5288571D01*
D10*
X40532000Y-38938000D02*
X39732000Y-38938000D01*
X40532000Y-37338000D02*
X40532000Y-38938000D01*
X39732000Y-37338000D02*
X40532000Y-37338000D01*
X39732000Y-38938000D02*
X39732000Y-37338000D01*
X13570000Y-31750000D02*
X14370000Y-31750000D01*
X13570000Y-33350000D02*
X13570000Y-31750000D01*
X14370000Y-33350000D02*
X13570000Y-33350000D01*
X14370000Y-31750000D02*
X14370000Y-33350000D01*
X12592000Y-18110000D02*
X11792000Y-18110000D01*
X12592000Y-16510000D02*
X12592000Y-18110000D01*
X11792000Y-16510000D02*
X12592000Y-16510000D01*
X11792000Y-18110000D02*
X11792000Y-16510000D01*
X32728000Y-19488000D02*
X32728000Y-18688000D01*
X34328000Y-19488000D02*
X32728000Y-19488000D01*
X34328000Y-18688000D02*
X34328000Y-19488000D01*
X32728000Y-18688000D02*
X34328000Y-18688000D01*
X7074000Y-30664000D02*
X7074000Y-29864000D01*
X8674000Y-30664000D02*
X7074000Y-30664000D01*
X8674000Y-29864000D02*
X8674000Y-30664000D01*
X7074000Y-29864000D02*
X8674000Y-29864000D01*
X9614000Y-19996000D02*
X9614000Y-19196000D01*
X11214000Y-19996000D02*
X9614000Y-19996000D01*
X11214000Y-19196000D02*
X11214000Y-19996000D01*
X9614000Y-19196000D02*
X11214000Y-19196000D01*
X24219000Y-42094000D02*
X24219000Y-41294000D01*
X25819000Y-42094000D02*
X24219000Y-42094000D01*
X25819000Y-41294000D02*
X25819000Y-42094000D01*
X24219000Y-41294000D02*
X25819000Y-41294000D01*
X22187000Y-6661000D02*
X22187000Y-5861000D01*
X23787000Y-6661000D02*
X22187000Y-6661000D01*
X23787000Y-5861000D02*
X23787000Y-6661000D01*
X22187000Y-5861000D02*
X23787000Y-5861000D01*
X30245000Y-3886000D02*
X29445000Y-3886000D01*
X30245000Y-2286000D02*
X30245000Y-3886000D01*
X29445000Y-2286000D02*
X30245000Y-2286000D01*
X29445000Y-3886000D02*
X29445000Y-2286000D01*
X6058000Y-33966000D02*
X6058000Y-33166000D01*
X7658000Y-33966000D02*
X6058000Y-33966000D01*
X7658000Y-33166000D02*
X7658000Y-33966000D01*
X6058000Y-33166000D02*
X7658000Y-33166000D01*
X8852000Y-14662000D02*
X8852000Y-13862000D01*
X10452000Y-14662000D02*
X8852000Y-14662000D01*
X10452000Y-13862000D02*
X10452000Y-14662000D01*
X8852000Y-13862000D02*
X10452000Y-13862000D01*
X6496000Y-37160000D02*
X5696000Y-37160000D01*
X6496000Y-35560000D02*
X6496000Y-37160000D01*
X5696000Y-35560000D02*
X6496000Y-35560000D01*
X5696000Y-37160000D02*
X5696000Y-35560000D01*
X6458000Y-10922000D02*
X7258000Y-10922000D01*
X6458000Y-12522000D02*
X6458000Y-10922000D01*
X7258000Y-12522000D02*
X6458000Y-12522000D01*
X7258000Y-10922000D02*
X7258000Y-12522000D01*
X28594000Y-8585000D02*
X27794000Y-8585000D01*
X28594000Y-6985000D02*
X28594000Y-8585000D01*
X27794000Y-6985000D02*
X28594000Y-6985000D01*
X27794000Y-8585000D02*
X27794000Y-6985000D01*
X37022000Y-18082000D02*
X36222000Y-18082000D01*
X37022000Y-16482000D02*
X37022000Y-18082000D01*
X36222000Y-16482000D02*
X37022000Y-16482000D01*
X36222000Y-18082000D02*
X36222000Y-16482000D01*
X37700000Y-31750000D02*
X38500000Y-31750000D01*
X37700000Y-33350000D02*
X37700000Y-31750000D01*
X38500000Y-33350000D02*
X37700000Y-33350000D01*
X38500000Y-31750000D02*
X38500000Y-33350000D01*
X44007000Y-19352000D02*
X43207000Y-19352000D01*
X44007000Y-17752000D02*
X44007000Y-19352000D01*
X43207000Y-17752000D02*
X44007000Y-17752000D01*
X43207000Y-19352000D02*
X43207000Y-17752000D01*
X40678000Y-29864000D02*
X40678000Y-30664000D01*
X39078000Y-29864000D02*
X40678000Y-29864000D01*
X39078000Y-30664000D02*
X39078000Y-29864000D01*
X40678000Y-30664000D02*
X39078000Y-30664000D01*
X43137000Y-13072000D02*
X43137000Y-13872000D01*
X41537000Y-13072000D02*
X43137000Y-13072000D01*
X41537000Y-13872000D02*
X41537000Y-13072000D01*
X43137000Y-13872000D02*
X41537000Y-13872000D01*
X40678000Y-34944000D02*
X40678000Y-35744000D01*
X39078000Y-34944000D02*
X40678000Y-34944000D01*
X39078000Y-35744000D02*
X39078000Y-34944000D01*
X40678000Y-35744000D02*
X39078000Y-35744000D01*
X41491000Y-11995000D02*
X41491000Y-11195000D01*
X43091000Y-11995000D02*
X41491000Y-11995000D01*
X43091000Y-11195000D02*
X43091000Y-11995000D01*
X41491000Y-11195000D02*
X43091000Y-11195000D01*
X43980000Y-36468000D02*
X43980000Y-37268000D01*
X42380000Y-36468000D02*
X43980000Y-36468000D01*
X42380000Y-37268000D02*
X42380000Y-36468000D01*
X43980000Y-37268000D02*
X42380000Y-37268000D01*
X8998000Y-32004000D02*
X9798000Y-32004000D01*
X8998000Y-33604000D02*
X8998000Y-32004000D01*
X9798000Y-33604000D02*
X8998000Y-33604000D01*
X9798000Y-32004000D02*
X9798000Y-33604000D01*
X11068000Y-17856000D02*
X10268000Y-17856000D01*
X11068000Y-16256000D02*
X11068000Y-17856000D01*
X10268000Y-16256000D02*
X11068000Y-16256000D01*
X10268000Y-17856000D02*
X10268000Y-16256000D01*
X3340000Y-37992000D02*
X3340000Y-38792000D01*
X1740000Y-37992000D02*
X3340000Y-37992000D01*
X1740000Y-38792000D02*
X1740000Y-37992000D01*
X3340000Y-38792000D02*
X1740000Y-38792000D01*
X5442000Y-16510000D02*
X6242000Y-16510000D01*
X5442000Y-18110000D02*
X5442000Y-16510000D01*
X6242000Y-18110000D02*
X5442000Y-18110000D01*
X6242000Y-16510000D02*
X6242000Y-18110000D01*
X19469000Y-36595000D02*
X19469000Y-37395000D01*
X17869000Y-36595000D02*
X19469000Y-36595000D01*
X17869000Y-37395000D02*
X17869000Y-36595000D01*
X19469000Y-37395000D02*
X17869000Y-37395000D01*
X19469000Y-33928000D02*
X19469000Y-34728000D01*
X17869000Y-33928000D02*
X19469000Y-33928000D01*
X17869000Y-34728000D02*
X17869000Y-33928000D01*
X19469000Y-34728000D02*
X17869000Y-34728000D01*
X16931472Y-16646157D02*
X17497157Y-16080472D01*
X18062843Y-17777528D02*
X16931472Y-16646157D01*
X18628528Y-17211843D02*
X18062843Y-17777528D01*
X17497157Y-16080472D02*
X18628528Y-17211843D01*
X6496000Y-40462000D02*
X5696000Y-40462000D01*
X6496000Y-38862000D02*
X6496000Y-40462000D01*
X5696000Y-38862000D02*
X6496000Y-38862000D01*
X5696000Y-40462000D02*
X5696000Y-38862000D01*
X9036000Y-10744000D02*
X8236000Y-10744000D01*
X9036000Y-9144000D02*
X9036000Y-10744000D01*
X8236000Y-9144000D02*
X9036000Y-9144000D01*
X8236000Y-10744000D02*
X8236000Y-9144000D01*
X9944000Y-38500000D02*
X9944000Y-39300000D01*
X8344000Y-38500000D02*
X9944000Y-38500000D01*
X8344000Y-39300000D02*
X8344000Y-38500000D01*
X9944000Y-39300000D02*
X8344000Y-39300000D01*
X8274000Y-37160000D02*
X7474000Y-37160000D01*
X8274000Y-35560000D02*
X8274000Y-37160000D01*
X7474000Y-35560000D02*
X8274000Y-35560000D01*
X7474000Y-37160000D02*
X7474000Y-35560000D01*
X12484000Y-8782000D02*
X12484000Y-9582000D01*
X10884000Y-8782000D02*
X12484000Y-8782000D01*
X10884000Y-9582000D02*
X10884000Y-8782000D01*
X12484000Y-9582000D02*
X10884000Y-9582000D01*
X8852000Y-12884000D02*
X8852000Y-12084000D01*
X10452000Y-12884000D02*
X8852000Y-12884000D01*
X10452000Y-12084000D02*
X10452000Y-12884000D01*
X8852000Y-12084000D02*
X10452000Y-12084000D01*
X13754000Y-38500000D02*
X13754000Y-39300000D01*
X12154000Y-38500000D02*
X13754000Y-38500000D01*
X12154000Y-39300000D02*
X12154000Y-38500000D01*
X13754000Y-39300000D02*
X12154000Y-39300000D01*
X14586000Y-8382000D02*
X15386000Y-8382000D01*
X14586000Y-9982000D02*
X14586000Y-8382000D01*
X15386000Y-9982000D02*
X14586000Y-9982000D01*
X15386000Y-8382000D02*
X15386000Y-9982000D01*
X12230000Y-36976000D02*
X12230000Y-37776000D01*
X10630000Y-36976000D02*
X12230000Y-36976000D01*
X10630000Y-37776000D02*
X10630000Y-36976000D01*
X12230000Y-37776000D02*
X10630000Y-37776000D01*
X14770000Y-13354000D02*
X14770000Y-14154000D01*
X13170000Y-13354000D02*
X14770000Y-13354000D01*
X13170000Y-14154000D02*
X13170000Y-13354000D01*
X14770000Y-14154000D02*
X13170000Y-14154000D01*
X42102000Y-17447000D02*
X41302000Y-17447000D01*
X42102000Y-15847000D02*
X42102000Y-17447000D01*
X41302000Y-15847000D02*
X42102000Y-15847000D01*
X41302000Y-17447000D02*
X41302000Y-15847000D01*
X39224000Y-31877000D02*
X40024000Y-31877000D01*
X39224000Y-33477000D02*
X39224000Y-31877000D01*
X40024000Y-33477000D02*
X39224000Y-33477000D01*
X40024000Y-31877000D02*
X40024000Y-33477000D01*
X47144000Y-13434000D02*
X47944000Y-13434000D01*
X47144000Y-15034000D02*
X47144000Y-13434000D01*
X47944000Y-15034000D02*
X47144000Y-15034000D01*
X47944000Y-13434000D02*
X47944000Y-15034000D01*
X44342000Y-33350000D02*
X43542000Y-33350000D01*
X44342000Y-31750000D02*
X44342000Y-33350000D01*
X43542000Y-31750000D02*
X44342000Y-31750000D01*
X43542000Y-33350000D02*
X43542000Y-31750000D01*
X30315000Y-34855000D02*
X30315000Y-34055000D01*
X31915000Y-34855000D02*
X30315000Y-34855000D01*
X31915000Y-34055000D02*
X31915000Y-34855000D01*
X30315000Y-34055000D02*
X31915000Y-34055000D01*
X30315000Y-37395000D02*
X30315000Y-36595000D01*
X31915000Y-37395000D02*
X30315000Y-37395000D01*
X31915000Y-36595000D02*
X31915000Y-37395000D01*
X30315000Y-36595000D02*
X31915000Y-36595000D01*
X40150000Y-12658000D02*
X39350000Y-12658000D01*
X40150000Y-11058000D02*
X40150000Y-12658000D01*
X39350000Y-11058000D02*
X40150000Y-11058000D01*
X39350000Y-12658000D02*
X39350000Y-11058000D01*
X45250000Y-37738000D02*
X45250000Y-38538000D01*
X43650000Y-37738000D02*
X45250000Y-37738000D01*
X43650000Y-38538000D02*
X43650000Y-37738000D01*
X45250000Y-38538000D02*
X43650000Y-38538000D01*
X35100000Y-8808000D02*
X35900000Y-8808000D01*
X35100000Y-10408000D02*
X35100000Y-8808000D01*
X35900000Y-10408000D02*
X35100000Y-10408000D01*
X35900000Y-8808000D02*
X35900000Y-10408000D01*
X36350000Y-13058000D02*
X37150000Y-13058000D01*
X36350000Y-14658000D02*
X36350000Y-13058000D01*
X37150000Y-14658000D02*
X36350000Y-14658000D01*
X37150000Y-13058000D02*
X37150000Y-14658000D01*
X46520000Y-39262000D02*
X46520000Y-40062000D01*
X44920000Y-39262000D02*
X46520000Y-39262000D01*
X44920000Y-40062000D02*
X44920000Y-39262000D01*
X46520000Y-40062000D02*
X44920000Y-40062000D01*
X45300000Y-7958000D02*
X45300000Y-8758000D01*
X43700000Y-7958000D02*
X45300000Y-7958000D01*
X43700000Y-8758000D02*
X43700000Y-7958000D01*
X45300000Y-8758000D02*
X43700000Y-8758000D01*
X48114000Y-37592000D02*
X48914000Y-37592000D01*
X48114000Y-39192000D02*
X48114000Y-37592000D01*
X48914000Y-39192000D02*
X48114000Y-39192000D01*
X48914000Y-37592000D02*
X48914000Y-39192000D01*
X41232000Y-7992000D02*
X41232000Y-8792000D01*
X39632000Y-7992000D02*
X41232000Y-7992000D01*
X39632000Y-8792000D02*
X39632000Y-7992000D01*
X41232000Y-8792000D02*
X39632000Y-8792000D01*
X37376000Y-38754000D02*
X37376000Y-39554000D01*
X35776000Y-38754000D02*
X37376000Y-38754000D01*
X35776000Y-39554000D02*
X35776000Y-38754000D01*
X37376000Y-39554000D02*
X35776000Y-39554000D01*
X3469000Y-35006000D02*
X2619000Y-35006000D01*
X2119000Y-35506000D02*
X2119000Y-37206000D01*
X3469000Y-35006000D02*
X3469000Y-37206000D01*
X3469000Y-37206000D02*
X2119000Y-37206000D01*
X2619000Y-35006000D02*
X2119000Y-35506000D01*
X6774000Y-15873000D02*
X6774000Y-16723000D01*
X7274000Y-17223000D02*
X8974000Y-17223000D01*
X6774000Y-15873000D02*
X8974000Y-15873000D01*
X8974000Y-15873000D02*
X8974000Y-17223000D01*
X6774000Y-16723000D02*
X7274000Y-17223000D01*
X20955000Y-5372000D02*
X28575000Y-5372000D01*
X28575000Y-5372000D02*
X28575000Y-2832000D01*
X28575000Y-2832000D02*
X20955000Y-2832000D01*
X20955000Y-2832000D02*
X20955000Y-5372000D01*
X20955000Y-2832000D02*
X28575000Y-2832000D01*
X28575000Y-2832000D02*
X28575000Y-292000D01*
X28575000Y-292000D02*
X20955000Y-292000D01*
X20955000Y-292000D02*
X20955000Y-2832000D01*
X36155000Y-38222000D02*
X37005000Y-38222000D01*
X37505000Y-37722000D02*
X37505000Y-36022000D01*
X36155000Y-38222000D02*
X36155000Y-36022000D01*
X36155000Y-36022000D02*
X37505000Y-36022000D01*
X37005000Y-38222000D02*
X37505000Y-37722000D01*
X36400000Y-9183000D02*
X36400000Y-10033000D01*
X36900000Y-10533000D02*
X38600000Y-10533000D01*
X36400000Y-9183000D02*
X38600000Y-9183000D01*
X38600000Y-9183000D02*
X38600000Y-10533000D01*
X36400000Y-10033000D02*
X36900000Y-10533000D01*
X42846000Y-34557000D02*
X42846000Y-33707000D01*
X42346000Y-33207000D02*
X40646000Y-33207000D01*
X42846000Y-34557000D02*
X40646000Y-34557000D01*
X40646000Y-34557000D02*
X40646000Y-33207000D01*
X42846000Y-33707000D02*
X42346000Y-33207000D01*
X44412000Y-12797000D02*
X44412000Y-13647000D01*
X44912000Y-14147000D02*
X46612000Y-14147000D01*
X44412000Y-12797000D02*
X46612000Y-12797000D01*
X46612000Y-12797000D02*
X46612000Y-14147000D01*
X44412000Y-13647000D02*
X44912000Y-14147000D01*
X13883000Y-10622000D02*
X13033000Y-10622000D01*
X12533000Y-11122000D02*
X12533000Y-12822000D01*
X13883000Y-10622000D02*
X13883000Y-12822000D01*
X13883000Y-12822000D02*
X12533000Y-12822000D01*
X13033000Y-10622000D02*
X12533000Y-11122000D01*
X10073000Y-39832000D02*
X9223000Y-39832000D01*
X8723000Y-40332000D02*
X8723000Y-42032000D01*
X10073000Y-39832000D02*
X10073000Y-42032000D01*
X10073000Y-42032000D02*
X8723000Y-42032000D01*
X9223000Y-39832000D02*
X8723000Y-40332000D01*
X44877000Y-22727000D02*
X44877000Y-28077000D01*
X44877000Y-28077000D02*
X34717000Y-28077000D01*
X34717000Y-28077000D02*
X34717000Y-21727000D01*
X34717000Y-21727000D02*
X43877000Y-21727000D01*
X43877000Y-21727000D02*
X44877000Y-22727000D01*
X5334000Y-27105000D02*
X5334000Y-21755000D01*
X5334000Y-21755000D02*
X15494000Y-21755000D01*
X15494000Y-21755000D02*
X15494000Y-28105000D01*
X15494000Y-28105000D02*
X6334000Y-28105000D01*
X6334000Y-28105000D02*
X5334000Y-27105000D01*
X49743000Y-27785000D02*
G75*
G03X49743000Y-27785000I-1095000J0D01*
G01*
X45088000Y-36045000D02*
X49918000Y-36045000D01*
X49918000Y-36045000D02*
X49918000Y-26515000D01*
X49918000Y-26515000D02*
X45088000Y-26515000D01*
X45088000Y-26515000D02*
X45088000Y-36045000D01*
X47952000Y-26954000D02*
X49479000Y-28481000D01*
X47818000Y-27088000D02*
X49345000Y-28615000D01*
X49743000Y-17879000D02*
G75*
G03X49743000Y-17879000I-1095000J0D01*
G01*
X45088000Y-26139000D02*
X49918000Y-26139000D01*
X49918000Y-26139000D02*
X49918000Y-16609000D01*
X49918000Y-16609000D02*
X45088000Y-16609000D01*
X45088000Y-16609000D02*
X45088000Y-26139000D01*
X47952000Y-17048000D02*
X49479000Y-18575000D01*
X47818000Y-17182000D02*
X49345000Y-18709000D01*
X2485000Y-23599000D02*
G75*
G03X2485000Y-23599000I-1095000J0D01*
G01*
X4950000Y-15339000D02*
X120000Y-15339000D01*
X120000Y-15339000D02*
X120000Y-24869000D01*
X120000Y-24869000D02*
X4950000Y-24869000D01*
X4950000Y-24869000D02*
X4950000Y-15339000D01*
X2086000Y-24430000D02*
X559000Y-22903000D01*
X2220000Y-24296000D02*
X693000Y-22769000D01*
X2485000Y-33505000D02*
G75*
G03X2485000Y-33505000I-1095000J0D01*
G01*
X4950000Y-25245000D02*
X120000Y-25245000D01*
X120000Y-25245000D02*
X120000Y-34775000D01*
X120000Y-34775000D02*
X4950000Y-34775000D01*
X4950000Y-34775000D02*
X4950000Y-25245000D01*
X2086000Y-34336000D02*
X559000Y-32809000D01*
X2220000Y-34202000D02*
X693000Y-32675000D01*
X37338000Y-35090000D02*
X37338000Y-30010000D01*
X37338000Y-30010000D02*
X34798000Y-30010000D01*
X34798000Y-30010000D02*
X34798000Y-35090000D01*
X34798000Y-35090000D02*
X37338000Y-35090000D01*
X37257000Y-14742000D02*
X37257000Y-19822000D01*
X37257000Y-19822000D02*
X39797000Y-19822000D01*
X39797000Y-19822000D02*
X39797000Y-14742000D01*
X39797000Y-14742000D02*
X37257000Y-14742000D01*
X12954000Y-14770000D02*
X12954000Y-19850000D01*
X12954000Y-19850000D02*
X15494000Y-19850000D01*
X15494000Y-19850000D02*
X15494000Y-14770000D01*
X15494000Y-14770000D02*
X12954000Y-14770000D01*
X12954000Y-35090000D02*
X12954000Y-30010000D01*
X12954000Y-30010000D02*
X10414000Y-30010000D01*
X10414000Y-30010000D02*
X10414000Y-35090000D01*
X10414000Y-35090000D02*
X12954000Y-35090000D01*
X13716000Y-800000D02*
X13716000Y-3340000D01*
X13716000Y-3340000D02*
X16256000Y-3340000D01*
X16256000Y-3340000D02*
X16256000Y-800000D01*
X16256000Y-800000D02*
X13716000Y-800000D01*
X11176000Y-800000D02*
X11176000Y-3340000D01*
X11176000Y-3340000D02*
X13716000Y-3340000D01*
X13716000Y-3340000D02*
X13716000Y-800000D01*
X13716000Y-800000D02*
X11176000Y-800000D01*
X20955000Y-44615000D02*
X20955000Y-47155000D01*
X20955000Y-47155000D02*
X23495000Y-47155000D01*
X23495000Y-47155000D02*
X23495000Y-44615000D01*
X23495000Y-44615000D02*
X20955000Y-44615000D01*
X18415000Y-44615000D02*
X18415000Y-47155000D01*
X18415000Y-47155000D02*
X20955000Y-47155000D01*
X20955000Y-47155000D02*
X20955000Y-44615000D01*
X20955000Y-44615000D02*
X18415000Y-44615000D01*
X8255000Y-44615000D02*
X8255000Y-47155000D01*
X8255000Y-47155000D02*
X10795000Y-47155000D01*
X10795000Y-47155000D02*
X10795000Y-44615000D01*
X10795000Y-44615000D02*
X8255000Y-44615000D01*
X5715000Y-44615000D02*
X5715000Y-47155000D01*
X5715000Y-47155000D02*
X8255000Y-47155000D01*
X8255000Y-47155000D02*
X8255000Y-44615000D01*
X8255000Y-44615000D02*
X5715000Y-44615000D01*
X8636000Y-800000D02*
X8636000Y-3340000D01*
X8636000Y-3340000D02*
X11176000Y-3340000D01*
X11176000Y-3340000D02*
X11176000Y-800000D01*
X11176000Y-800000D02*
X8636000Y-800000D01*
X6096000Y-800000D02*
X6096000Y-3340000D01*
X6096000Y-3340000D02*
X8636000Y-3340000D01*
X8636000Y-3340000D02*
X8636000Y-800000D01*
X8636000Y-800000D02*
X6096000Y-800000D01*
X15875000Y-44615000D02*
X15875000Y-47155000D01*
X15875000Y-47155000D02*
X18415000Y-47155000D01*
X18415000Y-47155000D02*
X18415000Y-44615000D01*
X18415000Y-44615000D02*
X15875000Y-44615000D01*
X13335000Y-44615000D02*
X13335000Y-47155000D01*
X13335000Y-47155000D02*
X15875000Y-47155000D01*
X15875000Y-47155000D02*
X15875000Y-44615000D01*
X15875000Y-44615000D02*
X13335000Y-44615000D01*
X3175000Y-44615000D02*
X3175000Y-47155000D01*
X3175000Y-47155000D02*
X5715000Y-47155000D01*
X5715000Y-47155000D02*
X5715000Y-44615000D01*
X5715000Y-44615000D02*
X3175000Y-44615000D01*
X635000Y-44615000D02*
X635000Y-47155000D01*
X635000Y-47155000D02*
X3175000Y-47155000D01*
X3175000Y-47155000D02*
X3175000Y-44615000D01*
X3175000Y-44615000D02*
X635000Y-44615000D01*
X29080000Y-9662000D02*
X31880000Y-9662000D01*
X31880000Y-9662000D02*
X31880000Y-6162000D01*
X31880000Y-6162000D02*
X29080000Y-6162000D01*
X29080000Y-6162000D02*
X29080000Y-9662000D01*
X29080000Y-9312000D02*
X31880000Y-9312000D01*
X29080000Y-9137000D02*
X31880000Y-9137000D01*
X22844000Y-11468000D02*
X28194000Y-11468000D01*
X28194000Y-11468000D02*
X28194000Y-29248000D01*
X28194000Y-29248000D02*
X21844000Y-29248000D01*
X21844000Y-29248000D02*
X21844000Y-12468000D01*
X21844000Y-12468000D02*
X22844000Y-11468000D01*
X25489000Y-6924000D02*
X21989000Y-6924000D01*
X21995375Y-6920375D02*
G75*
G03X23749000Y-11154000I1753625J-1753625D01*
G01*
X25502625Y-6920375D02*
G75*
G02X23749000Y-11154000I-1753625J-1753625D01*
G01*
X31793000Y-39876000D02*
X31793000Y-40726000D01*
X32293000Y-41226000D02*
X33993000Y-41226000D01*
X31793000Y-39876000D02*
X33993000Y-39876000D01*
X33993000Y-39876000D02*
X33993000Y-41226000D01*
X31793000Y-40726000D02*
X32293000Y-41226000D01*
X29699000Y-40513000D02*
X30499000Y-40513000D01*
X29699000Y-42113000D02*
X29699000Y-40513000D01*
X30499000Y-42113000D02*
X29699000Y-42113000D01*
X30499000Y-40513000D02*
X30499000Y-42113000D01*
D12*
X37005809Y-50046381D02*
X37005809Y-49046381D01*
X37339143Y-49760667D01*
X37672476Y-49046381D01*
X37672476Y-50046381D01*
X38291523Y-50046381D02*
X38196285Y-49998762D01*
X38148666Y-49951143D01*
X38101047Y-49855905D01*
X38101047Y-49570190D01*
X38148666Y-49474952D01*
X38196285Y-49427333D01*
X38291523Y-49379714D01*
X38434381Y-49379714D01*
X38529619Y-49427333D01*
X38577238Y-49474952D01*
X38624857Y-49570190D01*
X38624857Y-49855905D01*
X38577238Y-49951143D01*
X38529619Y-49998762D01*
X38434381Y-50046381D01*
X38291523Y-50046381D01*
X39482000Y-49379714D02*
X39482000Y-50046381D01*
X39053428Y-49379714D02*
X39053428Y-49903524D01*
X39101047Y-49998762D01*
X39196285Y-50046381D01*
X39339143Y-50046381D01*
X39434381Y-49998762D01*
X39482000Y-49951143D01*
X39958190Y-49379714D02*
X39958190Y-50046381D01*
X39958190Y-49474952D02*
X40005809Y-49427333D01*
X40101047Y-49379714D01*
X40243905Y-49379714D01*
X40339143Y-49427333D01*
X40386762Y-49522571D01*
X40386762Y-50046381D01*
X40720095Y-49379714D02*
X41101047Y-49379714D01*
X40862952Y-49046381D02*
X40862952Y-49903524D01*
X40910571Y-49998762D01*
X41005809Y-50046381D01*
X41101047Y-50046381D01*
X41434381Y-50046381D02*
X41434381Y-49379714D01*
X41434381Y-49046381D02*
X41386762Y-49094000D01*
X41434381Y-49141619D01*
X41482000Y-49094000D01*
X41434381Y-49046381D01*
X41434381Y-49141619D01*
X41910571Y-49379714D02*
X41910571Y-50046381D01*
X41910571Y-49474952D02*
X41958190Y-49427333D01*
X42053428Y-49379714D01*
X42196286Y-49379714D01*
X42291524Y-49427333D01*
X42339143Y-49522571D01*
X42339143Y-50046381D01*
X43243905Y-49379714D02*
X43243905Y-50189238D01*
X43196286Y-50284476D01*
X43148667Y-50332095D01*
X43053428Y-50379714D01*
X42910571Y-50379714D01*
X42815333Y-50332095D01*
X43243905Y-49998762D02*
X43148667Y-50046381D01*
X42958190Y-50046381D01*
X42862952Y-49998762D01*
X42815333Y-49951143D01*
X42767714Y-49855905D01*
X42767714Y-49570190D01*
X42815333Y-49474952D01*
X42862952Y-49427333D01*
X42958190Y-49379714D01*
X43148667Y-49379714D01*
X43243905Y-49427333D01*
X43720095Y-50046381D02*
X43720095Y-49046381D01*
X43720095Y-49522571D02*
X44291524Y-49522571D01*
X44291524Y-50046381D02*
X44291524Y-49046381D01*
X44910571Y-50046381D02*
X44815333Y-49998762D01*
X44767714Y-49951143D01*
X44720095Y-49855905D01*
X44720095Y-49570190D01*
X44767714Y-49474952D01*
X44815333Y-49427333D01*
X44910571Y-49379714D01*
X45053429Y-49379714D01*
X45148667Y-49427333D01*
X45196286Y-49474952D01*
X45243905Y-49570190D01*
X45243905Y-49855905D01*
X45196286Y-49951143D01*
X45148667Y-49998762D01*
X45053429Y-50046381D01*
X44910571Y-50046381D01*
X45815333Y-50046381D02*
X45720095Y-49998762D01*
X45672476Y-49903524D01*
X45672476Y-49046381D01*
X46577239Y-49998762D02*
X46482001Y-50046381D01*
X46291524Y-50046381D01*
X46196286Y-49998762D01*
X46148667Y-49903524D01*
X46148667Y-49522571D01*
X46196286Y-49427333D01*
X46291524Y-49379714D01*
X46482001Y-49379714D01*
X46577239Y-49427333D01*
X46624858Y-49522571D01*
X46624858Y-49617810D01*
X46148667Y-49713048D01*
X46815334Y-50141619D02*
X47577239Y-50141619D01*
X48243906Y-49379714D02*
X48243906Y-50046381D01*
X48005810Y-48998762D02*
X47767715Y-49713048D01*
X48386763Y-49713048D01*
X48767715Y-50046381D02*
X48767715Y-49379714D01*
X48767715Y-49474952D02*
X48815334Y-49427333D01*
X48910572Y-49379714D01*
X49053430Y-49379714D01*
X49148668Y-49427333D01*
X49196287Y-49522571D01*
X49196287Y-50046381D01*
X49196287Y-49522571D02*
X49243906Y-49427333D01*
X49339144Y-49379714D01*
X49482001Y-49379714D01*
X49577239Y-49427333D01*
X49624858Y-49522571D01*
X49624858Y-50046381D01*
X50101048Y-50046381D02*
X50101048Y-49379714D01*
X50101048Y-49474952D02*
X50148667Y-49427333D01*
X50243905Y-49379714D01*
X50386763Y-49379714D01*
X50482001Y-49427333D01*
X50529620Y-49522571D01*
X50529620Y-50046381D01*
X50529620Y-49522571D02*
X50577239Y-49427333D01*
X50672477Y-49379714D01*
X50815334Y-49379714D01*
X50910572Y-49427333D01*
X50958191Y-49522571D01*
X50958191Y-50046381D01*
X42134381Y-38423714D02*
X42134381Y-38995143D01*
X42134381Y-38709429D02*
X41134381Y-38709429D01*
X41277238Y-38804667D01*
X41372476Y-38899905D01*
X41420095Y-38995143D01*
X42134381Y-37995143D02*
X41134381Y-37995143D01*
X41848667Y-37661809D01*
X41134381Y-37328476D01*
X42134381Y-37328476D01*
D13*
X40312952Y-38395142D02*
X40122476Y-38528476D01*
X40312952Y-38623714D02*
X39912952Y-38623714D01*
X39912952Y-38471333D01*
X39932000Y-38433238D01*
X39951048Y-38414190D01*
X39989143Y-38395142D01*
X40046286Y-38395142D01*
X40084381Y-38414190D01*
X40103429Y-38433238D01*
X40122476Y-38471333D01*
X40122476Y-38623714D01*
X39951048Y-38242762D02*
X39932000Y-38223714D01*
X39912952Y-38185619D01*
X39912952Y-38090381D01*
X39932000Y-38052285D01*
X39951048Y-38033238D01*
X39989143Y-38014190D01*
X40027238Y-38014190D01*
X40084381Y-38033238D01*
X40312952Y-38261809D01*
X40312952Y-38014190D01*
X40312952Y-37823714D02*
X40312952Y-37747524D01*
X40293905Y-37709429D01*
X40274857Y-37690381D01*
X40217714Y-37652286D01*
X40141524Y-37633238D01*
X39989143Y-37633238D01*
X39951048Y-37652286D01*
X39932000Y-37671333D01*
X39912952Y-37709429D01*
X39912952Y-37785619D01*
X39932000Y-37823714D01*
X39951048Y-37842762D01*
X39989143Y-37861810D01*
X40084381Y-37861810D01*
X40122476Y-37842762D01*
X40141524Y-37823714D01*
X40160571Y-37785619D01*
X40160571Y-37709429D01*
X40141524Y-37671333D01*
X40122476Y-37652286D01*
X40084381Y-37633238D01*
D12*
X23201381Y-37844048D02*
X23201381Y-37272619D01*
X24201381Y-37558334D02*
X23201381Y-37558334D01*
X24201381Y-36463095D02*
X24201381Y-36939286D01*
X23201381Y-36939286D01*
X23201381Y-35939286D02*
X23201381Y-35844047D01*
X23249000Y-35748809D01*
X23296619Y-35701190D01*
X23391857Y-35653571D01*
X23582333Y-35605952D01*
X23820429Y-35605952D01*
X24010905Y-35653571D01*
X24106143Y-35701190D01*
X24153762Y-35748809D01*
X24201381Y-35844047D01*
X24201381Y-35939286D01*
X24153762Y-36034524D01*
X24106143Y-36082143D01*
X24010905Y-36129762D01*
X23820429Y-36177381D01*
X23582333Y-36177381D01*
X23391857Y-36129762D01*
X23296619Y-36082143D01*
X23249000Y-36034524D01*
X23201381Y-35939286D01*
X23629952Y-35034524D02*
X23582333Y-35129762D01*
X23534714Y-35177381D01*
X23439476Y-35225000D01*
X23391857Y-35225000D01*
X23296619Y-35177381D01*
X23249000Y-35129762D01*
X23201381Y-35034524D01*
X23201381Y-34844047D01*
X23249000Y-34748809D01*
X23296619Y-34701190D01*
X23391857Y-34653571D01*
X23439476Y-34653571D01*
X23534714Y-34701190D01*
X23582333Y-34748809D01*
X23629952Y-34844047D01*
X23629952Y-35034524D01*
X23677571Y-35129762D01*
X23725190Y-35177381D01*
X23820429Y-35225000D01*
X24010905Y-35225000D01*
X24106143Y-35177381D01*
X24153762Y-35129762D01*
X24201381Y-35034524D01*
X24201381Y-34844047D01*
X24153762Y-34748809D01*
X24106143Y-34701190D01*
X24010905Y-34653571D01*
X23820429Y-34653571D01*
X23725190Y-34701190D01*
X23677571Y-34748809D01*
X23629952Y-34844047D01*
X23534714Y-33796428D02*
X24201381Y-33796428D01*
X23153762Y-34034524D02*
X23868048Y-34272619D01*
X23868048Y-33653571D01*
X12922381Y-33192857D02*
X12922381Y-33764286D01*
X12922381Y-33478572D02*
X11922381Y-33478572D01*
X12065238Y-33573810D01*
X12160476Y-33669048D01*
X12208095Y-33764286D01*
X11922381Y-32573810D02*
X11922381Y-32478571D01*
X11970000Y-32383333D01*
X12017619Y-32335714D01*
X12112857Y-32288095D01*
X12303333Y-32240476D01*
X12541429Y-32240476D01*
X12731905Y-32288095D01*
X12827143Y-32335714D01*
X12874762Y-32383333D01*
X12922381Y-32478571D01*
X12922381Y-32573810D01*
X12874762Y-32669048D01*
X12827143Y-32716667D01*
X12731905Y-32764286D01*
X12541429Y-32811905D01*
X12303333Y-32811905D01*
X12112857Y-32764286D01*
X12017619Y-32716667D01*
X11970000Y-32669048D01*
X11922381Y-32573810D01*
X12255714Y-31811905D02*
X12922381Y-31811905D01*
X12350952Y-31811905D02*
X12303333Y-31764286D01*
X12255714Y-31669048D01*
X12255714Y-31526190D01*
X12303333Y-31430952D01*
X12398571Y-31383333D01*
X12922381Y-31383333D01*
D13*
X14112857Y-32616666D02*
X14131905Y-32635714D01*
X14150952Y-32692857D01*
X14150952Y-32730952D01*
X14131905Y-32788095D01*
X14093810Y-32826190D01*
X14055714Y-32845238D01*
X13979524Y-32864286D01*
X13922381Y-32864286D01*
X13846190Y-32845238D01*
X13808095Y-32826190D01*
X13770000Y-32788095D01*
X13750952Y-32730952D01*
X13750952Y-32692857D01*
X13770000Y-32635714D01*
X13789048Y-32616666D01*
X13750952Y-32483333D02*
X13750952Y-32235714D01*
X13903333Y-32369047D01*
X13903333Y-32311905D01*
X13922381Y-32273809D01*
X13941429Y-32254762D01*
X13979524Y-32235714D01*
X14074762Y-32235714D01*
X14112857Y-32254762D01*
X14131905Y-32273809D01*
X14150952Y-32311905D01*
X14150952Y-32426190D01*
X14131905Y-32464286D01*
X14112857Y-32483333D01*
D12*
X14144381Y-17952857D02*
X14144381Y-18524286D01*
X14144381Y-18238572D02*
X13144381Y-18238572D01*
X13287238Y-18333810D01*
X13382476Y-18429048D01*
X13430095Y-18524286D01*
X13144381Y-17333810D02*
X13144381Y-17238571D01*
X13192000Y-17143333D01*
X13239619Y-17095714D01*
X13334857Y-17048095D01*
X13525333Y-17000476D01*
X13763429Y-17000476D01*
X13953905Y-17048095D01*
X14049143Y-17095714D01*
X14096762Y-17143333D01*
X14144381Y-17238571D01*
X14144381Y-17333810D01*
X14096762Y-17429048D01*
X14049143Y-17476667D01*
X13953905Y-17524286D01*
X13763429Y-17571905D01*
X13525333Y-17571905D01*
X13334857Y-17524286D01*
X13239619Y-17476667D01*
X13192000Y-17429048D01*
X13144381Y-17333810D01*
X13477714Y-16571905D02*
X14144381Y-16571905D01*
X13572952Y-16571905D02*
X13525333Y-16524286D01*
X13477714Y-16429048D01*
X13477714Y-16286190D01*
X13525333Y-16190952D01*
X13620571Y-16143333D01*
X14144381Y-16143333D01*
D13*
X12334857Y-17376666D02*
X12353905Y-17395714D01*
X12372952Y-17452857D01*
X12372952Y-17490952D01*
X12353905Y-17548095D01*
X12315810Y-17586190D01*
X12277714Y-17605238D01*
X12201524Y-17624286D01*
X12144381Y-17624286D01*
X12068190Y-17605238D01*
X12030095Y-17586190D01*
X11992000Y-17548095D01*
X11972952Y-17490952D01*
X11972952Y-17452857D01*
X11992000Y-17395714D01*
X12011048Y-17376666D01*
X12106286Y-17033809D02*
X12372952Y-17033809D01*
X11953905Y-17129047D02*
X12239619Y-17224286D01*
X12239619Y-16976666D01*
D12*
X32885143Y-21040381D02*
X32313714Y-21040381D01*
X32599428Y-21040381D02*
X32599428Y-20040381D01*
X32504190Y-20183238D01*
X32408952Y-20278476D01*
X32313714Y-20326095D01*
X33504190Y-20040381D02*
X33599429Y-20040381D01*
X33694667Y-20088000D01*
X33742286Y-20135619D01*
X33789905Y-20230857D01*
X33837524Y-20421333D01*
X33837524Y-20659429D01*
X33789905Y-20849905D01*
X33742286Y-20945143D01*
X33694667Y-20992762D01*
X33599429Y-21040381D01*
X33504190Y-21040381D01*
X33408952Y-20992762D01*
X33361333Y-20945143D01*
X33313714Y-20849905D01*
X33266095Y-20659429D01*
X33266095Y-20421333D01*
X33313714Y-20230857D01*
X33361333Y-20135619D01*
X33408952Y-20088000D01*
X33504190Y-20040381D01*
X34266095Y-20373714D02*
X34266095Y-21040381D01*
X34266095Y-20468952D02*
X34313714Y-20421333D01*
X34408952Y-20373714D01*
X34551810Y-20373714D01*
X34647048Y-20421333D01*
X34694667Y-20516571D01*
X34694667Y-21040381D01*
D13*
X33461334Y-19230857D02*
X33442286Y-19249905D01*
X33385143Y-19268952D01*
X33347048Y-19268952D01*
X33289905Y-19249905D01*
X33251810Y-19211810D01*
X33232762Y-19173714D01*
X33213714Y-19097524D01*
X33213714Y-19040381D01*
X33232762Y-18964190D01*
X33251810Y-18926095D01*
X33289905Y-18888000D01*
X33347048Y-18868952D01*
X33385143Y-18868952D01*
X33442286Y-18888000D01*
X33461334Y-18907048D01*
X33804191Y-18868952D02*
X33728000Y-18868952D01*
X33689905Y-18888000D01*
X33670857Y-18907048D01*
X33632762Y-18964190D01*
X33613714Y-19040381D01*
X33613714Y-19192762D01*
X33632762Y-19230857D01*
X33651810Y-19249905D01*
X33689905Y-19268952D01*
X33766095Y-19268952D01*
X33804191Y-19249905D01*
X33823238Y-19230857D01*
X33842286Y-19192762D01*
X33842286Y-19097524D01*
X33823238Y-19059429D01*
X33804191Y-19040381D01*
X33766095Y-19021333D01*
X33689905Y-19021333D01*
X33651810Y-19040381D01*
X33632762Y-19059429D01*
X33613714Y-19097524D01*
D12*
X7231143Y-32216381D02*
X6659714Y-32216381D01*
X6945428Y-32216381D02*
X6945428Y-31216381D01*
X6850190Y-31359238D01*
X6754952Y-31454476D01*
X6659714Y-31502095D01*
X7850190Y-31216381D02*
X7945429Y-31216381D01*
X8040667Y-31264000D01*
X8088286Y-31311619D01*
X8135905Y-31406857D01*
X8183524Y-31597333D01*
X8183524Y-31835429D01*
X8135905Y-32025905D01*
X8088286Y-32121143D01*
X8040667Y-32168762D01*
X7945429Y-32216381D01*
X7850190Y-32216381D01*
X7754952Y-32168762D01*
X7707333Y-32121143D01*
X7659714Y-32025905D01*
X7612095Y-31835429D01*
X7612095Y-31597333D01*
X7659714Y-31406857D01*
X7707333Y-31311619D01*
X7754952Y-31264000D01*
X7850190Y-31216381D01*
X8612095Y-31549714D02*
X8612095Y-32216381D01*
X8612095Y-31644952D02*
X8659714Y-31597333D01*
X8754952Y-31549714D01*
X8897810Y-31549714D01*
X8993048Y-31597333D01*
X9040667Y-31692571D01*
X9040667Y-32216381D01*
D13*
X7807334Y-30406857D02*
X7788286Y-30425905D01*
X7731143Y-30444952D01*
X7693048Y-30444952D01*
X7635905Y-30425905D01*
X7597810Y-30387810D01*
X7578762Y-30349714D01*
X7559714Y-30273524D01*
X7559714Y-30216381D01*
X7578762Y-30140190D01*
X7597810Y-30102095D01*
X7635905Y-30064000D01*
X7693048Y-30044952D01*
X7731143Y-30044952D01*
X7788286Y-30064000D01*
X7807334Y-30083048D01*
X7940667Y-30044952D02*
X8207334Y-30044952D01*
X8035905Y-30444952D01*
D12*
X9771143Y-21548381D02*
X9199714Y-21548381D01*
X9485428Y-21548381D02*
X9485428Y-20548381D01*
X9390190Y-20691238D01*
X9294952Y-20786476D01*
X9199714Y-20834095D01*
X10390190Y-20548381D02*
X10485429Y-20548381D01*
X10580667Y-20596000D01*
X10628286Y-20643619D01*
X10675905Y-20738857D01*
X10723524Y-20929333D01*
X10723524Y-21167429D01*
X10675905Y-21357905D01*
X10628286Y-21453143D01*
X10580667Y-21500762D01*
X10485429Y-21548381D01*
X10390190Y-21548381D01*
X10294952Y-21500762D01*
X10247333Y-21453143D01*
X10199714Y-21357905D01*
X10152095Y-21167429D01*
X10152095Y-20929333D01*
X10199714Y-20738857D01*
X10247333Y-20643619D01*
X10294952Y-20596000D01*
X10390190Y-20548381D01*
X11152095Y-20881714D02*
X11152095Y-21548381D01*
X11152095Y-20976952D02*
X11199714Y-20929333D01*
X11294952Y-20881714D01*
X11437810Y-20881714D01*
X11533048Y-20929333D01*
X11580667Y-21024571D01*
X11580667Y-21548381D01*
D13*
X10347334Y-19738857D02*
X10328286Y-19757905D01*
X10271143Y-19776952D01*
X10233048Y-19776952D01*
X10175905Y-19757905D01*
X10137810Y-19719810D01*
X10118762Y-19681714D01*
X10099714Y-19605524D01*
X10099714Y-19548381D01*
X10118762Y-19472190D01*
X10137810Y-19434095D01*
X10175905Y-19396000D01*
X10233048Y-19376952D01*
X10271143Y-19376952D01*
X10328286Y-19396000D01*
X10347334Y-19415048D01*
X10575905Y-19548381D02*
X10537810Y-19529333D01*
X10518762Y-19510286D01*
X10499714Y-19472190D01*
X10499714Y-19453143D01*
X10518762Y-19415048D01*
X10537810Y-19396000D01*
X10575905Y-19376952D01*
X10652095Y-19376952D01*
X10690191Y-19396000D01*
X10709238Y-19415048D01*
X10728286Y-19453143D01*
X10728286Y-19472190D01*
X10709238Y-19510286D01*
X10690191Y-19529333D01*
X10652095Y-19548381D01*
X10575905Y-19548381D01*
X10537810Y-19567429D01*
X10518762Y-19586476D01*
X10499714Y-19624571D01*
X10499714Y-19700762D01*
X10518762Y-19738857D01*
X10537810Y-19757905D01*
X10575905Y-19776952D01*
X10652095Y-19776952D01*
X10690191Y-19757905D01*
X10709238Y-19738857D01*
X10728286Y-19700762D01*
X10728286Y-19624571D01*
X10709238Y-19586476D01*
X10690191Y-19567429D01*
X10652095Y-19548381D01*
D12*
X24376143Y-43646381D02*
X23804714Y-43646381D01*
X24090428Y-43646381D02*
X24090428Y-42646381D01*
X23995190Y-42789238D01*
X23899952Y-42884476D01*
X23804714Y-42932095D01*
X24995190Y-42646381D02*
X25090429Y-42646381D01*
X25185667Y-42694000D01*
X25233286Y-42741619D01*
X25280905Y-42836857D01*
X25328524Y-43027333D01*
X25328524Y-43265429D01*
X25280905Y-43455905D01*
X25233286Y-43551143D01*
X25185667Y-43598762D01*
X25090429Y-43646381D01*
X24995190Y-43646381D01*
X24899952Y-43598762D01*
X24852333Y-43551143D01*
X24804714Y-43455905D01*
X24757095Y-43265429D01*
X24757095Y-43027333D01*
X24804714Y-42836857D01*
X24852333Y-42741619D01*
X24899952Y-42694000D01*
X24995190Y-42646381D01*
X25757095Y-42979714D02*
X25757095Y-43646381D01*
X25757095Y-43074952D02*
X25804714Y-43027333D01*
X25899952Y-42979714D01*
X26042810Y-42979714D01*
X26138048Y-43027333D01*
X26185667Y-43122571D01*
X26185667Y-43646381D01*
D13*
X24761858Y-41836857D02*
X24742810Y-41855905D01*
X24685667Y-41874952D01*
X24647572Y-41874952D01*
X24590429Y-41855905D01*
X24552334Y-41817810D01*
X24533286Y-41779714D01*
X24514238Y-41703524D01*
X24514238Y-41646381D01*
X24533286Y-41570190D01*
X24552334Y-41532095D01*
X24590429Y-41494000D01*
X24647572Y-41474952D01*
X24685667Y-41474952D01*
X24742810Y-41494000D01*
X24761858Y-41513048D01*
X25142810Y-41874952D02*
X24914238Y-41874952D01*
X25028524Y-41874952D02*
X25028524Y-41474952D01*
X24990429Y-41532095D01*
X24952334Y-41570190D01*
X24914238Y-41589238D01*
X25390429Y-41474952D02*
X25428524Y-41474952D01*
X25466619Y-41494000D01*
X25485667Y-41513048D01*
X25504714Y-41551143D01*
X25523762Y-41627333D01*
X25523762Y-41722571D01*
X25504714Y-41798762D01*
X25485667Y-41836857D01*
X25466619Y-41855905D01*
X25428524Y-41874952D01*
X25390429Y-41874952D01*
X25352333Y-41855905D01*
X25333286Y-41836857D01*
X25314238Y-41798762D01*
X25295190Y-41722571D01*
X25295190Y-41627333D01*
X25314238Y-41551143D01*
X25333286Y-41513048D01*
X25352333Y-41494000D01*
X25390429Y-41474952D01*
D12*
X22344143Y-8213381D02*
X21772714Y-8213381D01*
X22058428Y-8213381D02*
X22058428Y-7213381D01*
X21963190Y-7356238D01*
X21867952Y-7451476D01*
X21772714Y-7499095D01*
X22963190Y-7213381D02*
X23058429Y-7213381D01*
X23153667Y-7261000D01*
X23201286Y-7308619D01*
X23248905Y-7403857D01*
X23296524Y-7594333D01*
X23296524Y-7832429D01*
X23248905Y-8022905D01*
X23201286Y-8118143D01*
X23153667Y-8165762D01*
X23058429Y-8213381D01*
X22963190Y-8213381D01*
X22867952Y-8165762D01*
X22820333Y-8118143D01*
X22772714Y-8022905D01*
X22725095Y-7832429D01*
X22725095Y-7594333D01*
X22772714Y-7403857D01*
X22820333Y-7308619D01*
X22867952Y-7261000D01*
X22963190Y-7213381D01*
X23725095Y-7546714D02*
X23725095Y-8213381D01*
X23725095Y-7641952D02*
X23772714Y-7594333D01*
X23867952Y-7546714D01*
X24010810Y-7546714D01*
X24106048Y-7594333D01*
X24153667Y-7689571D01*
X24153667Y-8213381D01*
D13*
X22729858Y-6403857D02*
X22710810Y-6422905D01*
X22653667Y-6441952D01*
X22615572Y-6441952D01*
X22558429Y-6422905D01*
X22520334Y-6384810D01*
X22501286Y-6346714D01*
X22482238Y-6270524D01*
X22482238Y-6213381D01*
X22501286Y-6137190D01*
X22520334Y-6099095D01*
X22558429Y-6061000D01*
X22615572Y-6041952D01*
X22653667Y-6041952D01*
X22710810Y-6061000D01*
X22729858Y-6080048D01*
X23110810Y-6441952D02*
X22882238Y-6441952D01*
X22996524Y-6441952D02*
X22996524Y-6041952D01*
X22958429Y-6099095D01*
X22920334Y-6137190D01*
X22882238Y-6156238D01*
X23491762Y-6441952D02*
X23263190Y-6441952D01*
X23377476Y-6441952D02*
X23377476Y-6041952D01*
X23339381Y-6099095D01*
X23301286Y-6137190D01*
X23263190Y-6156238D01*
D12*
X31797381Y-3728857D02*
X31797381Y-4300286D01*
X31797381Y-4014572D02*
X30797381Y-4014572D01*
X30940238Y-4109810D01*
X31035476Y-4205048D01*
X31083095Y-4300286D01*
X30797381Y-3109810D02*
X30797381Y-3014571D01*
X30845000Y-2919333D01*
X30892619Y-2871714D01*
X30987857Y-2824095D01*
X31178333Y-2776476D01*
X31416429Y-2776476D01*
X31606905Y-2824095D01*
X31702143Y-2871714D01*
X31749762Y-2919333D01*
X31797381Y-3014571D01*
X31797381Y-3109810D01*
X31749762Y-3205048D01*
X31702143Y-3252667D01*
X31606905Y-3300286D01*
X31416429Y-3347905D01*
X31178333Y-3347905D01*
X30987857Y-3300286D01*
X30892619Y-3252667D01*
X30845000Y-3205048D01*
X30797381Y-3109810D01*
X31130714Y-2347905D02*
X31797381Y-2347905D01*
X31225952Y-2347905D02*
X31178333Y-2300286D01*
X31130714Y-2205048D01*
X31130714Y-2062190D01*
X31178333Y-1966952D01*
X31273571Y-1919333D01*
X31797381Y-1919333D01*
D13*
X29987857Y-3343142D02*
X30006905Y-3362190D01*
X30025952Y-3419333D01*
X30025952Y-3457428D01*
X30006905Y-3514571D01*
X29968810Y-3552666D01*
X29930714Y-3571714D01*
X29854524Y-3590762D01*
X29797381Y-3590762D01*
X29721190Y-3571714D01*
X29683095Y-3552666D01*
X29645000Y-3514571D01*
X29625952Y-3457428D01*
X29625952Y-3419333D01*
X29645000Y-3362190D01*
X29664048Y-3343142D01*
X30025952Y-2962190D02*
X30025952Y-3190762D01*
X30025952Y-3076476D02*
X29625952Y-3076476D01*
X29683095Y-3114571D01*
X29721190Y-3152666D01*
X29740238Y-3190762D01*
X29664048Y-2809810D02*
X29645000Y-2790762D01*
X29625952Y-2752667D01*
X29625952Y-2657429D01*
X29645000Y-2619333D01*
X29664048Y-2600286D01*
X29702143Y-2581238D01*
X29740238Y-2581238D01*
X29797381Y-2600286D01*
X30025952Y-2828857D01*
X30025952Y-2581238D01*
D12*
X6215143Y-35518381D02*
X5643714Y-35518381D01*
X5929428Y-35518381D02*
X5929428Y-34518381D01*
X5834190Y-34661238D01*
X5738952Y-34756476D01*
X5643714Y-34804095D01*
X6834190Y-34518381D02*
X6929429Y-34518381D01*
X7024667Y-34566000D01*
X7072286Y-34613619D01*
X7119905Y-34708857D01*
X7167524Y-34899333D01*
X7167524Y-35137429D01*
X7119905Y-35327905D01*
X7072286Y-35423143D01*
X7024667Y-35470762D01*
X6929429Y-35518381D01*
X6834190Y-35518381D01*
X6738952Y-35470762D01*
X6691333Y-35423143D01*
X6643714Y-35327905D01*
X6596095Y-35137429D01*
X6596095Y-34899333D01*
X6643714Y-34708857D01*
X6691333Y-34613619D01*
X6738952Y-34566000D01*
X6834190Y-34518381D01*
X7596095Y-34851714D02*
X7596095Y-35518381D01*
X7596095Y-34946952D02*
X7643714Y-34899333D01*
X7738952Y-34851714D01*
X7881810Y-34851714D01*
X7977048Y-34899333D01*
X8024667Y-34994571D01*
X8024667Y-35518381D01*
D13*
X6600858Y-33708857D02*
X6581810Y-33727905D01*
X6524667Y-33746952D01*
X6486572Y-33746952D01*
X6429429Y-33727905D01*
X6391334Y-33689810D01*
X6372286Y-33651714D01*
X6353238Y-33575524D01*
X6353238Y-33518381D01*
X6372286Y-33442190D01*
X6391334Y-33404095D01*
X6429429Y-33366000D01*
X6486572Y-33346952D01*
X6524667Y-33346952D01*
X6581810Y-33366000D01*
X6600858Y-33385048D01*
X6981810Y-33746952D02*
X6753238Y-33746952D01*
X6867524Y-33746952D02*
X6867524Y-33346952D01*
X6829429Y-33404095D01*
X6791334Y-33442190D01*
X6753238Y-33461238D01*
X7115143Y-33346952D02*
X7362762Y-33346952D01*
X7229429Y-33499333D01*
X7286571Y-33499333D01*
X7324667Y-33518381D01*
X7343714Y-33537429D01*
X7362762Y-33575524D01*
X7362762Y-33670762D01*
X7343714Y-33708857D01*
X7324667Y-33727905D01*
X7286571Y-33746952D01*
X7172286Y-33746952D01*
X7134190Y-33727905D01*
X7115143Y-33708857D01*
D12*
X9009143Y-16214381D02*
X8437714Y-16214381D01*
X8723428Y-16214381D02*
X8723428Y-15214381D01*
X8628190Y-15357238D01*
X8532952Y-15452476D01*
X8437714Y-15500095D01*
X9628190Y-15214381D02*
X9723429Y-15214381D01*
X9818667Y-15262000D01*
X9866286Y-15309619D01*
X9913905Y-15404857D01*
X9961524Y-15595333D01*
X9961524Y-15833429D01*
X9913905Y-16023905D01*
X9866286Y-16119143D01*
X9818667Y-16166762D01*
X9723429Y-16214381D01*
X9628190Y-16214381D01*
X9532952Y-16166762D01*
X9485333Y-16119143D01*
X9437714Y-16023905D01*
X9390095Y-15833429D01*
X9390095Y-15595333D01*
X9437714Y-15404857D01*
X9485333Y-15309619D01*
X9532952Y-15262000D01*
X9628190Y-15214381D01*
X10390095Y-15547714D02*
X10390095Y-16214381D01*
X10390095Y-15642952D02*
X10437714Y-15595333D01*
X10532952Y-15547714D01*
X10675810Y-15547714D01*
X10771048Y-15595333D01*
X10818667Y-15690571D01*
X10818667Y-16214381D01*
D13*
X9394858Y-14404857D02*
X9375810Y-14423905D01*
X9318667Y-14442952D01*
X9280572Y-14442952D01*
X9223429Y-14423905D01*
X9185334Y-14385810D01*
X9166286Y-14347714D01*
X9147238Y-14271524D01*
X9147238Y-14214381D01*
X9166286Y-14138190D01*
X9185334Y-14100095D01*
X9223429Y-14062000D01*
X9280572Y-14042952D01*
X9318667Y-14042952D01*
X9375810Y-14062000D01*
X9394858Y-14081048D01*
X9775810Y-14442952D02*
X9547238Y-14442952D01*
X9661524Y-14442952D02*
X9661524Y-14042952D01*
X9623429Y-14100095D01*
X9585334Y-14138190D01*
X9547238Y-14157238D01*
X10118667Y-14176286D02*
X10118667Y-14442952D01*
X10023429Y-14023905D02*
X9928190Y-14309619D01*
X10175810Y-14309619D01*
D12*
X8048381Y-37002857D02*
X8048381Y-37574286D01*
X8048381Y-37288572D02*
X7048381Y-37288572D01*
X7191238Y-37383810D01*
X7286476Y-37479048D01*
X7334095Y-37574286D01*
X7048381Y-36383810D02*
X7048381Y-36288571D01*
X7096000Y-36193333D01*
X7143619Y-36145714D01*
X7238857Y-36098095D01*
X7429333Y-36050476D01*
X7667429Y-36050476D01*
X7857905Y-36098095D01*
X7953143Y-36145714D01*
X8000762Y-36193333D01*
X8048381Y-36288571D01*
X8048381Y-36383810D01*
X8000762Y-36479048D01*
X7953143Y-36526667D01*
X7857905Y-36574286D01*
X7667429Y-36621905D01*
X7429333Y-36621905D01*
X7238857Y-36574286D01*
X7143619Y-36526667D01*
X7096000Y-36479048D01*
X7048381Y-36383810D01*
X7381714Y-35621905D02*
X8048381Y-35621905D01*
X7476952Y-35621905D02*
X7429333Y-35574286D01*
X7381714Y-35479048D01*
X7381714Y-35336190D01*
X7429333Y-35240952D01*
X7524571Y-35193333D01*
X8048381Y-35193333D01*
D13*
X6238857Y-36617142D02*
X6257905Y-36636190D01*
X6276952Y-36693333D01*
X6276952Y-36731428D01*
X6257905Y-36788571D01*
X6219810Y-36826666D01*
X6181714Y-36845714D01*
X6105524Y-36864762D01*
X6048381Y-36864762D01*
X5972190Y-36845714D01*
X5934095Y-36826666D01*
X5896000Y-36788571D01*
X5876952Y-36731428D01*
X5876952Y-36693333D01*
X5896000Y-36636190D01*
X5915048Y-36617142D01*
X6276952Y-36236190D02*
X6276952Y-36464762D01*
X6276952Y-36350476D02*
X5876952Y-36350476D01*
X5934095Y-36388571D01*
X5972190Y-36426666D01*
X5991238Y-36464762D01*
X5876952Y-35874286D02*
X5876952Y-36064762D01*
X6067429Y-36083810D01*
X6048381Y-36064762D01*
X6029333Y-36026667D01*
X6029333Y-35931429D01*
X6048381Y-35893333D01*
X6067429Y-35874286D01*
X6105524Y-35855238D01*
X6200762Y-35855238D01*
X6238857Y-35874286D01*
X6257905Y-35893333D01*
X6276952Y-35931429D01*
X6276952Y-36026667D01*
X6257905Y-36064762D01*
X6238857Y-36083810D01*
D12*
X5810381Y-12364857D02*
X5810381Y-12936286D01*
X5810381Y-12650572D02*
X4810381Y-12650572D01*
X4953238Y-12745810D01*
X5048476Y-12841048D01*
X5096095Y-12936286D01*
X4810381Y-11745810D02*
X4810381Y-11650571D01*
X4858000Y-11555333D01*
X4905619Y-11507714D01*
X5000857Y-11460095D01*
X5191333Y-11412476D01*
X5429429Y-11412476D01*
X5619905Y-11460095D01*
X5715143Y-11507714D01*
X5762762Y-11555333D01*
X5810381Y-11650571D01*
X5810381Y-11745810D01*
X5762762Y-11841048D01*
X5715143Y-11888667D01*
X5619905Y-11936286D01*
X5429429Y-11983905D01*
X5191333Y-11983905D01*
X5000857Y-11936286D01*
X4905619Y-11888667D01*
X4858000Y-11841048D01*
X4810381Y-11745810D01*
X5143714Y-10983905D02*
X5810381Y-10983905D01*
X5238952Y-10983905D02*
X5191333Y-10936286D01*
X5143714Y-10841048D01*
X5143714Y-10698190D01*
X5191333Y-10602952D01*
X5286571Y-10555333D01*
X5810381Y-10555333D01*
D13*
X7000857Y-11979142D02*
X7019905Y-11998190D01*
X7038952Y-12055333D01*
X7038952Y-12093428D01*
X7019905Y-12150571D01*
X6981810Y-12188666D01*
X6943714Y-12207714D01*
X6867524Y-12226762D01*
X6810381Y-12226762D01*
X6734190Y-12207714D01*
X6696095Y-12188666D01*
X6658000Y-12150571D01*
X6638952Y-12093428D01*
X6638952Y-12055333D01*
X6658000Y-11998190D01*
X6677048Y-11979142D01*
X7038952Y-11598190D02*
X7038952Y-11826762D01*
X7038952Y-11712476D02*
X6638952Y-11712476D01*
X6696095Y-11750571D01*
X6734190Y-11788666D01*
X6753238Y-11826762D01*
X6638952Y-11255333D02*
X6638952Y-11331524D01*
X6658000Y-11369619D01*
X6677048Y-11388667D01*
X6734190Y-11426762D01*
X6810381Y-11445810D01*
X6962762Y-11445810D01*
X7000857Y-11426762D01*
X7019905Y-11407714D01*
X7038952Y-11369619D01*
X7038952Y-11293429D01*
X7019905Y-11255333D01*
X7000857Y-11236286D01*
X6962762Y-11217238D01*
X6867524Y-11217238D01*
X6829429Y-11236286D01*
X6810381Y-11255333D01*
X6791333Y-11293429D01*
X6791333Y-11369619D01*
X6810381Y-11407714D01*
X6829429Y-11426762D01*
X6867524Y-11445810D01*
D12*
X30146381Y-8427857D02*
X30146381Y-8999286D01*
X30146381Y-8713572D02*
X29146381Y-8713572D01*
X29289238Y-8808810D01*
X29384476Y-8904048D01*
X29432095Y-8999286D01*
X29146381Y-7808810D02*
X29146381Y-7713571D01*
X29194000Y-7618333D01*
X29241619Y-7570714D01*
X29336857Y-7523095D01*
X29527333Y-7475476D01*
X29765429Y-7475476D01*
X29955905Y-7523095D01*
X30051143Y-7570714D01*
X30098762Y-7618333D01*
X30146381Y-7713571D01*
X30146381Y-7808810D01*
X30098762Y-7904048D01*
X30051143Y-7951667D01*
X29955905Y-7999286D01*
X29765429Y-8046905D01*
X29527333Y-8046905D01*
X29336857Y-7999286D01*
X29241619Y-7951667D01*
X29194000Y-7904048D01*
X29146381Y-7808810D01*
X29479714Y-7046905D02*
X30146381Y-7046905D01*
X29574952Y-7046905D02*
X29527333Y-6999286D01*
X29479714Y-6904048D01*
X29479714Y-6761190D01*
X29527333Y-6665952D01*
X29622571Y-6618333D01*
X30146381Y-6618333D01*
D13*
X28336857Y-8042142D02*
X28355905Y-8061190D01*
X28374952Y-8118333D01*
X28374952Y-8156428D01*
X28355905Y-8213571D01*
X28317810Y-8251666D01*
X28279714Y-8270714D01*
X28203524Y-8289762D01*
X28146381Y-8289762D01*
X28070190Y-8270714D01*
X28032095Y-8251666D01*
X27994000Y-8213571D01*
X27974952Y-8156428D01*
X27974952Y-8118333D01*
X27994000Y-8061190D01*
X28013048Y-8042142D01*
X28374952Y-7661190D02*
X28374952Y-7889762D01*
X28374952Y-7775476D02*
X27974952Y-7775476D01*
X28032095Y-7813571D01*
X28070190Y-7851666D01*
X28089238Y-7889762D01*
X27974952Y-7527857D02*
X27974952Y-7261190D01*
X28374952Y-7432619D01*
D12*
X38574381Y-17924857D02*
X38574381Y-18496286D01*
X38574381Y-18210572D02*
X37574381Y-18210572D01*
X37717238Y-18305810D01*
X37812476Y-18401048D01*
X37860095Y-18496286D01*
X37574381Y-17305810D02*
X37574381Y-17210571D01*
X37622000Y-17115333D01*
X37669619Y-17067714D01*
X37764857Y-17020095D01*
X37955333Y-16972476D01*
X38193429Y-16972476D01*
X38383905Y-17020095D01*
X38479143Y-17067714D01*
X38526762Y-17115333D01*
X38574381Y-17210571D01*
X38574381Y-17305810D01*
X38526762Y-17401048D01*
X38479143Y-17448667D01*
X38383905Y-17496286D01*
X38193429Y-17543905D01*
X37955333Y-17543905D01*
X37764857Y-17496286D01*
X37669619Y-17448667D01*
X37622000Y-17401048D01*
X37574381Y-17305810D01*
X37907714Y-16543905D02*
X38574381Y-16543905D01*
X38002952Y-16543905D02*
X37955333Y-16496286D01*
X37907714Y-16401048D01*
X37907714Y-16258190D01*
X37955333Y-16162952D01*
X38050571Y-16115333D01*
X38574381Y-16115333D01*
D13*
X36764857Y-17539142D02*
X36783905Y-17558190D01*
X36802952Y-17615333D01*
X36802952Y-17653428D01*
X36783905Y-17710571D01*
X36745810Y-17748666D01*
X36707714Y-17767714D01*
X36631524Y-17786762D01*
X36574381Y-17786762D01*
X36498190Y-17767714D01*
X36460095Y-17748666D01*
X36422000Y-17710571D01*
X36402952Y-17653428D01*
X36402952Y-17615333D01*
X36422000Y-17558190D01*
X36441048Y-17539142D01*
X36802952Y-17158190D02*
X36802952Y-17386762D01*
X36802952Y-17272476D02*
X36402952Y-17272476D01*
X36460095Y-17310571D01*
X36498190Y-17348666D01*
X36517238Y-17386762D01*
X36802952Y-16967714D02*
X36802952Y-16891524D01*
X36783905Y-16853429D01*
X36764857Y-16834381D01*
X36707714Y-16796286D01*
X36631524Y-16777238D01*
X36479143Y-16777238D01*
X36441048Y-16796286D01*
X36422000Y-16815333D01*
X36402952Y-16853429D01*
X36402952Y-16929619D01*
X36422000Y-16967714D01*
X36441048Y-16986762D01*
X36479143Y-17005810D01*
X36574381Y-17005810D01*
X36612476Y-16986762D01*
X36631524Y-16967714D01*
X36650571Y-16929619D01*
X36650571Y-16853429D01*
X36631524Y-16815333D01*
X36612476Y-16796286D01*
X36574381Y-16777238D01*
D12*
X37052381Y-33192857D02*
X37052381Y-33764286D01*
X37052381Y-33478572D02*
X36052381Y-33478572D01*
X36195238Y-33573810D01*
X36290476Y-33669048D01*
X36338095Y-33764286D01*
X36052381Y-32573810D02*
X36052381Y-32478571D01*
X36100000Y-32383333D01*
X36147619Y-32335714D01*
X36242857Y-32288095D01*
X36433333Y-32240476D01*
X36671429Y-32240476D01*
X36861905Y-32288095D01*
X36957143Y-32335714D01*
X37004762Y-32383333D01*
X37052381Y-32478571D01*
X37052381Y-32573810D01*
X37004762Y-32669048D01*
X36957143Y-32716667D01*
X36861905Y-32764286D01*
X36671429Y-32811905D01*
X36433333Y-32811905D01*
X36242857Y-32764286D01*
X36147619Y-32716667D01*
X36100000Y-32669048D01*
X36052381Y-32573810D01*
X36385714Y-31811905D02*
X37052381Y-31811905D01*
X36480952Y-31811905D02*
X36433333Y-31764286D01*
X36385714Y-31669048D01*
X36385714Y-31526190D01*
X36433333Y-31430952D01*
X36528571Y-31383333D01*
X37052381Y-31383333D01*
D13*
X38242857Y-32807142D02*
X38261905Y-32826190D01*
X38280952Y-32883333D01*
X38280952Y-32921428D01*
X38261905Y-32978571D01*
X38223810Y-33016666D01*
X38185714Y-33035714D01*
X38109524Y-33054762D01*
X38052381Y-33054762D01*
X37976190Y-33035714D01*
X37938095Y-33016666D01*
X37900000Y-32978571D01*
X37880952Y-32921428D01*
X37880952Y-32883333D01*
X37900000Y-32826190D01*
X37919048Y-32807142D01*
X37919048Y-32654762D02*
X37900000Y-32635714D01*
X37880952Y-32597619D01*
X37880952Y-32502381D01*
X37900000Y-32464285D01*
X37919048Y-32445238D01*
X37957143Y-32426190D01*
X37995238Y-32426190D01*
X38052381Y-32445238D01*
X38280952Y-32673809D01*
X38280952Y-32426190D01*
X37880952Y-32178571D02*
X37880952Y-32140476D01*
X37900000Y-32102381D01*
X37919048Y-32083333D01*
X37957143Y-32064286D01*
X38033333Y-32045238D01*
X38128571Y-32045238D01*
X38204762Y-32064286D01*
X38242857Y-32083333D01*
X38261905Y-32102381D01*
X38280952Y-32140476D01*
X38280952Y-32178571D01*
X38261905Y-32216667D01*
X38242857Y-32235714D01*
X38204762Y-32254762D01*
X38128571Y-32273810D01*
X38033333Y-32273810D01*
X37957143Y-32254762D01*
X37919048Y-32235714D01*
X37900000Y-32216667D01*
X37880952Y-32178571D01*
D12*
X45559381Y-19194857D02*
X45559381Y-19766286D01*
X45559381Y-19480572D02*
X44559381Y-19480572D01*
X44702238Y-19575810D01*
X44797476Y-19671048D01*
X44845095Y-19766286D01*
X44559381Y-18575810D02*
X44559381Y-18480571D01*
X44607000Y-18385333D01*
X44654619Y-18337714D01*
X44749857Y-18290095D01*
X44940333Y-18242476D01*
X45178429Y-18242476D01*
X45368905Y-18290095D01*
X45464143Y-18337714D01*
X45511762Y-18385333D01*
X45559381Y-18480571D01*
X45559381Y-18575810D01*
X45511762Y-18671048D01*
X45464143Y-18718667D01*
X45368905Y-18766286D01*
X45178429Y-18813905D01*
X44940333Y-18813905D01*
X44749857Y-18766286D01*
X44654619Y-18718667D01*
X44607000Y-18671048D01*
X44559381Y-18575810D01*
X44892714Y-17813905D02*
X45559381Y-17813905D01*
X44987952Y-17813905D02*
X44940333Y-17766286D01*
X44892714Y-17671048D01*
X44892714Y-17528190D01*
X44940333Y-17432952D01*
X45035571Y-17385333D01*
X45559381Y-17385333D01*
D13*
X43749857Y-18809142D02*
X43768905Y-18828190D01*
X43787952Y-18885333D01*
X43787952Y-18923428D01*
X43768905Y-18980571D01*
X43730810Y-19018666D01*
X43692714Y-19037714D01*
X43616524Y-19056762D01*
X43559381Y-19056762D01*
X43483190Y-19037714D01*
X43445095Y-19018666D01*
X43407000Y-18980571D01*
X43387952Y-18923428D01*
X43387952Y-18885333D01*
X43407000Y-18828190D01*
X43426048Y-18809142D01*
X43426048Y-18656762D02*
X43407000Y-18637714D01*
X43387952Y-18599619D01*
X43387952Y-18504381D01*
X43407000Y-18466285D01*
X43426048Y-18447238D01*
X43464143Y-18428190D01*
X43502238Y-18428190D01*
X43559381Y-18447238D01*
X43787952Y-18675809D01*
X43787952Y-18428190D01*
X43787952Y-18047238D02*
X43787952Y-18275810D01*
X43787952Y-18161524D02*
X43387952Y-18161524D01*
X43445095Y-18199619D01*
X43483190Y-18237714D01*
X43502238Y-18275810D01*
D12*
X39235143Y-29216381D02*
X38663714Y-29216381D01*
X38949428Y-29216381D02*
X38949428Y-28216381D01*
X38854190Y-28359238D01*
X38758952Y-28454476D01*
X38663714Y-28502095D01*
X39854190Y-28216381D02*
X39949429Y-28216381D01*
X40044667Y-28264000D01*
X40092286Y-28311619D01*
X40139905Y-28406857D01*
X40187524Y-28597333D01*
X40187524Y-28835429D01*
X40139905Y-29025905D01*
X40092286Y-29121143D01*
X40044667Y-29168762D01*
X39949429Y-29216381D01*
X39854190Y-29216381D01*
X39758952Y-29168762D01*
X39711333Y-29121143D01*
X39663714Y-29025905D01*
X39616095Y-28835429D01*
X39616095Y-28597333D01*
X39663714Y-28406857D01*
X39711333Y-28311619D01*
X39758952Y-28264000D01*
X39854190Y-28216381D01*
X40616095Y-28549714D02*
X40616095Y-29216381D01*
X40616095Y-28644952D02*
X40663714Y-28597333D01*
X40758952Y-28549714D01*
X40901810Y-28549714D01*
X40997048Y-28597333D01*
X41044667Y-28692571D01*
X41044667Y-29216381D01*
D13*
X39620858Y-30406857D02*
X39601810Y-30425905D01*
X39544667Y-30444952D01*
X39506572Y-30444952D01*
X39449429Y-30425905D01*
X39411334Y-30387810D01*
X39392286Y-30349714D01*
X39373238Y-30273524D01*
X39373238Y-30216381D01*
X39392286Y-30140190D01*
X39411334Y-30102095D01*
X39449429Y-30064000D01*
X39506572Y-30044952D01*
X39544667Y-30044952D01*
X39601810Y-30064000D01*
X39620858Y-30083048D01*
X39773238Y-30083048D02*
X39792286Y-30064000D01*
X39830381Y-30044952D01*
X39925619Y-30044952D01*
X39963715Y-30064000D01*
X39982762Y-30083048D01*
X40001810Y-30121143D01*
X40001810Y-30159238D01*
X39982762Y-30216381D01*
X39754191Y-30444952D01*
X40001810Y-30444952D01*
X40154190Y-30083048D02*
X40173238Y-30064000D01*
X40211333Y-30044952D01*
X40306571Y-30044952D01*
X40344667Y-30064000D01*
X40363714Y-30083048D01*
X40382762Y-30121143D01*
X40382762Y-30159238D01*
X40363714Y-30216381D01*
X40135143Y-30444952D01*
X40382762Y-30444952D01*
D12*
X41694143Y-12424381D02*
X41122714Y-12424381D01*
X41408428Y-12424381D02*
X41408428Y-11424381D01*
X41313190Y-11567238D01*
X41217952Y-11662476D01*
X41122714Y-11710095D01*
X42313190Y-11424381D02*
X42408429Y-11424381D01*
X42503667Y-11472000D01*
X42551286Y-11519619D01*
X42598905Y-11614857D01*
X42646524Y-11805333D01*
X42646524Y-12043429D01*
X42598905Y-12233905D01*
X42551286Y-12329143D01*
X42503667Y-12376762D01*
X42408429Y-12424381D01*
X42313190Y-12424381D01*
X42217952Y-12376762D01*
X42170333Y-12329143D01*
X42122714Y-12233905D01*
X42075095Y-12043429D01*
X42075095Y-11805333D01*
X42122714Y-11614857D01*
X42170333Y-11519619D01*
X42217952Y-11472000D01*
X42313190Y-11424381D01*
X43075095Y-11757714D02*
X43075095Y-12424381D01*
X43075095Y-11852952D02*
X43122714Y-11805333D01*
X43217952Y-11757714D01*
X43360810Y-11757714D01*
X43456048Y-11805333D01*
X43503667Y-11900571D01*
X43503667Y-12424381D01*
D13*
X42079858Y-13614857D02*
X42060810Y-13633905D01*
X42003667Y-13652952D01*
X41965572Y-13652952D01*
X41908429Y-13633905D01*
X41870334Y-13595810D01*
X41851286Y-13557714D01*
X41832238Y-13481524D01*
X41832238Y-13424381D01*
X41851286Y-13348190D01*
X41870334Y-13310095D01*
X41908429Y-13272000D01*
X41965572Y-13252952D01*
X42003667Y-13252952D01*
X42060810Y-13272000D01*
X42079858Y-13291048D01*
X42232238Y-13291048D02*
X42251286Y-13272000D01*
X42289381Y-13252952D01*
X42384619Y-13252952D01*
X42422715Y-13272000D01*
X42441762Y-13291048D01*
X42460810Y-13329143D01*
X42460810Y-13367238D01*
X42441762Y-13424381D01*
X42213191Y-13652952D01*
X42460810Y-13652952D01*
X42594143Y-13252952D02*
X42841762Y-13252952D01*
X42708429Y-13405333D01*
X42765571Y-13405333D01*
X42803667Y-13424381D01*
X42822714Y-13443429D01*
X42841762Y-13481524D01*
X42841762Y-13576762D01*
X42822714Y-13614857D01*
X42803667Y-13633905D01*
X42765571Y-13652952D01*
X42651286Y-13652952D01*
X42613190Y-13633905D01*
X42594143Y-13614857D01*
D12*
X39235143Y-34296381D02*
X38663714Y-34296381D01*
X38949428Y-34296381D02*
X38949428Y-33296381D01*
X38854190Y-33439238D01*
X38758952Y-33534476D01*
X38663714Y-33582095D01*
X39854190Y-33296381D02*
X39949429Y-33296381D01*
X40044667Y-33344000D01*
X40092286Y-33391619D01*
X40139905Y-33486857D01*
X40187524Y-33677333D01*
X40187524Y-33915429D01*
X40139905Y-34105905D01*
X40092286Y-34201143D01*
X40044667Y-34248762D01*
X39949429Y-34296381D01*
X39854190Y-34296381D01*
X39758952Y-34248762D01*
X39711333Y-34201143D01*
X39663714Y-34105905D01*
X39616095Y-33915429D01*
X39616095Y-33677333D01*
X39663714Y-33486857D01*
X39711333Y-33391619D01*
X39758952Y-33344000D01*
X39854190Y-33296381D01*
X40616095Y-33629714D02*
X40616095Y-34296381D01*
X40616095Y-33724952D02*
X40663714Y-33677333D01*
X40758952Y-33629714D01*
X40901810Y-33629714D01*
X40997048Y-33677333D01*
X41044667Y-33772571D01*
X41044667Y-34296381D01*
D13*
X39620858Y-35486857D02*
X39601810Y-35505905D01*
X39544667Y-35524952D01*
X39506572Y-35524952D01*
X39449429Y-35505905D01*
X39411334Y-35467810D01*
X39392286Y-35429714D01*
X39373238Y-35353524D01*
X39373238Y-35296381D01*
X39392286Y-35220190D01*
X39411334Y-35182095D01*
X39449429Y-35144000D01*
X39506572Y-35124952D01*
X39544667Y-35124952D01*
X39601810Y-35144000D01*
X39620858Y-35163048D01*
X39773238Y-35163048D02*
X39792286Y-35144000D01*
X39830381Y-35124952D01*
X39925619Y-35124952D01*
X39963715Y-35144000D01*
X39982762Y-35163048D01*
X40001810Y-35201143D01*
X40001810Y-35239238D01*
X39982762Y-35296381D01*
X39754191Y-35524952D01*
X40001810Y-35524952D01*
X40344667Y-35258286D02*
X40344667Y-35524952D01*
X40249429Y-35105905D02*
X40154190Y-35391619D01*
X40401810Y-35391619D01*
D12*
X41648143Y-13547381D02*
X41076714Y-13547381D01*
X41362428Y-13547381D02*
X41362428Y-12547381D01*
X41267190Y-12690238D01*
X41171952Y-12785476D01*
X41076714Y-12833095D01*
X42267190Y-12547381D02*
X42362429Y-12547381D01*
X42457667Y-12595000D01*
X42505286Y-12642619D01*
X42552905Y-12737857D01*
X42600524Y-12928333D01*
X42600524Y-13166429D01*
X42552905Y-13356905D01*
X42505286Y-13452143D01*
X42457667Y-13499762D01*
X42362429Y-13547381D01*
X42267190Y-13547381D01*
X42171952Y-13499762D01*
X42124333Y-13452143D01*
X42076714Y-13356905D01*
X42029095Y-13166429D01*
X42029095Y-12928333D01*
X42076714Y-12737857D01*
X42124333Y-12642619D01*
X42171952Y-12595000D01*
X42267190Y-12547381D01*
X43029095Y-12880714D02*
X43029095Y-13547381D01*
X43029095Y-12975952D02*
X43076714Y-12928333D01*
X43171952Y-12880714D01*
X43314810Y-12880714D01*
X43410048Y-12928333D01*
X43457667Y-13023571D01*
X43457667Y-13547381D01*
D13*
X42033858Y-11737857D02*
X42014810Y-11756905D01*
X41957667Y-11775952D01*
X41919572Y-11775952D01*
X41862429Y-11756905D01*
X41824334Y-11718810D01*
X41805286Y-11680714D01*
X41786238Y-11604524D01*
X41786238Y-11547381D01*
X41805286Y-11471190D01*
X41824334Y-11433095D01*
X41862429Y-11395000D01*
X41919572Y-11375952D01*
X41957667Y-11375952D01*
X42014810Y-11395000D01*
X42033858Y-11414048D01*
X42186238Y-11414048D02*
X42205286Y-11395000D01*
X42243381Y-11375952D01*
X42338619Y-11375952D01*
X42376715Y-11395000D01*
X42395762Y-11414048D01*
X42414810Y-11452143D01*
X42414810Y-11490238D01*
X42395762Y-11547381D01*
X42167191Y-11775952D01*
X42414810Y-11775952D01*
X42776714Y-11375952D02*
X42586238Y-11375952D01*
X42567190Y-11566429D01*
X42586238Y-11547381D01*
X42624333Y-11528333D01*
X42719571Y-11528333D01*
X42757667Y-11547381D01*
X42776714Y-11566429D01*
X42795762Y-11604524D01*
X42795762Y-11699762D01*
X42776714Y-11737857D01*
X42757667Y-11756905D01*
X42719571Y-11775952D01*
X42624333Y-11775952D01*
X42586238Y-11756905D01*
X42567190Y-11737857D01*
D12*
X42537143Y-35820381D02*
X41965714Y-35820381D01*
X42251428Y-35820381D02*
X42251428Y-34820381D01*
X42156190Y-34963238D01*
X42060952Y-35058476D01*
X41965714Y-35106095D01*
X43156190Y-34820381D02*
X43251429Y-34820381D01*
X43346667Y-34868000D01*
X43394286Y-34915619D01*
X43441905Y-35010857D01*
X43489524Y-35201333D01*
X43489524Y-35439429D01*
X43441905Y-35629905D01*
X43394286Y-35725143D01*
X43346667Y-35772762D01*
X43251429Y-35820381D01*
X43156190Y-35820381D01*
X43060952Y-35772762D01*
X43013333Y-35725143D01*
X42965714Y-35629905D01*
X42918095Y-35439429D01*
X42918095Y-35201333D01*
X42965714Y-35010857D01*
X43013333Y-34915619D01*
X43060952Y-34868000D01*
X43156190Y-34820381D01*
X43918095Y-35153714D02*
X43918095Y-35820381D01*
X43918095Y-35248952D02*
X43965714Y-35201333D01*
X44060952Y-35153714D01*
X44203810Y-35153714D01*
X44299048Y-35201333D01*
X44346667Y-35296571D01*
X44346667Y-35820381D01*
D13*
X42922858Y-37010857D02*
X42903810Y-37029905D01*
X42846667Y-37048952D01*
X42808572Y-37048952D01*
X42751429Y-37029905D01*
X42713334Y-36991810D01*
X42694286Y-36953714D01*
X42675238Y-36877524D01*
X42675238Y-36820381D01*
X42694286Y-36744190D01*
X42713334Y-36706095D01*
X42751429Y-36668000D01*
X42808572Y-36648952D01*
X42846667Y-36648952D01*
X42903810Y-36668000D01*
X42922858Y-36687048D01*
X43075238Y-36687048D02*
X43094286Y-36668000D01*
X43132381Y-36648952D01*
X43227619Y-36648952D01*
X43265715Y-36668000D01*
X43284762Y-36687048D01*
X43303810Y-36725143D01*
X43303810Y-36763238D01*
X43284762Y-36820381D01*
X43056191Y-37048952D01*
X43303810Y-37048952D01*
X43646667Y-36648952D02*
X43570476Y-36648952D01*
X43532381Y-36668000D01*
X43513333Y-36687048D01*
X43475238Y-36744190D01*
X43456190Y-36820381D01*
X43456190Y-36972762D01*
X43475238Y-37010857D01*
X43494286Y-37029905D01*
X43532381Y-37048952D01*
X43608571Y-37048952D01*
X43646667Y-37029905D01*
X43665714Y-37010857D01*
X43684762Y-36972762D01*
X43684762Y-36877524D01*
X43665714Y-36839429D01*
X43646667Y-36820381D01*
X43608571Y-36801333D01*
X43532381Y-36801333D01*
X43494286Y-36820381D01*
X43475238Y-36839429D01*
X43456190Y-36877524D01*
D12*
X7633714Y-33327809D02*
X8300381Y-33327809D01*
X7252762Y-33565905D02*
X7967048Y-33804000D01*
X7967048Y-33184952D01*
X8205143Y-32804000D02*
X8252762Y-32756381D01*
X8300381Y-32804000D01*
X8252762Y-32851619D01*
X8205143Y-32804000D01*
X8300381Y-32804000D01*
X7300381Y-32423048D02*
X7300381Y-31756381D01*
X8300381Y-32184953D01*
D13*
X9578952Y-32870666D02*
X9388476Y-33004000D01*
X9578952Y-33099238D02*
X9178952Y-33099238D01*
X9178952Y-32946857D01*
X9198000Y-32908762D01*
X9217048Y-32889714D01*
X9255143Y-32870666D01*
X9312286Y-32870666D01*
X9350381Y-32889714D01*
X9369429Y-32908762D01*
X9388476Y-32946857D01*
X9388476Y-33099238D01*
X9578952Y-32489714D02*
X9578952Y-32718286D01*
X9578952Y-32604000D02*
X9178952Y-32604000D01*
X9236095Y-32642095D01*
X9274190Y-32680190D01*
X9293238Y-32718286D01*
D12*
X12003714Y-17579809D02*
X12670381Y-17579809D01*
X11622762Y-17817905D02*
X12337048Y-18056000D01*
X12337048Y-17436952D01*
X12575143Y-17056000D02*
X12622762Y-17008381D01*
X12670381Y-17056000D01*
X12622762Y-17103619D01*
X12575143Y-17056000D01*
X12670381Y-17056000D01*
X11670381Y-16675048D02*
X11670381Y-16008381D01*
X12670381Y-16436953D01*
D13*
X10848952Y-17122666D02*
X10658476Y-17256000D01*
X10848952Y-17351238D02*
X10448952Y-17351238D01*
X10448952Y-17198857D01*
X10468000Y-17160762D01*
X10487048Y-17141714D01*
X10525143Y-17122666D01*
X10582286Y-17122666D01*
X10620381Y-17141714D01*
X10639429Y-17160762D01*
X10658476Y-17198857D01*
X10658476Y-17351238D01*
X10487048Y-16970286D02*
X10468000Y-16951238D01*
X10448952Y-16913143D01*
X10448952Y-16817905D01*
X10468000Y-16779809D01*
X10487048Y-16760762D01*
X10525143Y-16741714D01*
X10563238Y-16741714D01*
X10620381Y-16760762D01*
X10848952Y-16989333D01*
X10848952Y-16741714D01*
D12*
X1944762Y-37294381D02*
X1373333Y-37294381D01*
X1659047Y-37294381D02*
X1659047Y-36294381D01*
X1563809Y-36437238D01*
X1468571Y-36532476D01*
X1373333Y-36580095D01*
X2563809Y-36294381D02*
X2659048Y-36294381D01*
X2754286Y-36342000D01*
X2801905Y-36389619D01*
X2849524Y-36484857D01*
X2897143Y-36675333D01*
X2897143Y-36913429D01*
X2849524Y-37103905D01*
X2801905Y-37199143D01*
X2754286Y-37246762D01*
X2659048Y-37294381D01*
X2563809Y-37294381D01*
X2468571Y-37246762D01*
X2420952Y-37199143D01*
X2373333Y-37103905D01*
X2325714Y-36913429D01*
X2325714Y-36675333D01*
X2373333Y-36484857D01*
X2420952Y-36389619D01*
X2468571Y-36342000D01*
X2563809Y-36294381D01*
X3325714Y-37294381D02*
X3325714Y-36294381D01*
X3420952Y-36913429D02*
X3706667Y-37294381D01*
X3706667Y-36627714D02*
X3325714Y-37008667D01*
D13*
X2473334Y-38572952D02*
X2340000Y-38382476D01*
X2244762Y-38572952D02*
X2244762Y-38172952D01*
X2397143Y-38172952D01*
X2435238Y-38192000D01*
X2454286Y-38211048D01*
X2473334Y-38249143D01*
X2473334Y-38306286D01*
X2454286Y-38344381D01*
X2435238Y-38363429D01*
X2397143Y-38382476D01*
X2244762Y-38382476D01*
X2606667Y-38172952D02*
X2854286Y-38172952D01*
X2720953Y-38325333D01*
X2778095Y-38325333D01*
X2816191Y-38344381D01*
X2835238Y-38363429D01*
X2854286Y-38401524D01*
X2854286Y-38496762D01*
X2835238Y-38534857D01*
X2816191Y-38553905D01*
X2778095Y-38572952D01*
X2663810Y-38572952D01*
X2625714Y-38553905D01*
X2606667Y-38534857D01*
D12*
X4744381Y-17905238D02*
X4744381Y-18476667D01*
X4744381Y-18190953D02*
X3744381Y-18190953D01*
X3887238Y-18286191D01*
X3982476Y-18381429D01*
X4030095Y-18476667D01*
X3744381Y-17286191D02*
X3744381Y-17190952D01*
X3792000Y-17095714D01*
X3839619Y-17048095D01*
X3934857Y-17000476D01*
X4125333Y-16952857D01*
X4363429Y-16952857D01*
X4553905Y-17000476D01*
X4649143Y-17048095D01*
X4696762Y-17095714D01*
X4744381Y-17190952D01*
X4744381Y-17286191D01*
X4696762Y-17381429D01*
X4649143Y-17429048D01*
X4553905Y-17476667D01*
X4363429Y-17524286D01*
X4125333Y-17524286D01*
X3934857Y-17476667D01*
X3839619Y-17429048D01*
X3792000Y-17381429D01*
X3744381Y-17286191D01*
X4744381Y-16524286D02*
X3744381Y-16524286D01*
X4363429Y-16429048D02*
X4744381Y-16143333D01*
X4077714Y-16143333D02*
X4458667Y-16524286D01*
D13*
X6022952Y-17376666D02*
X5832476Y-17510000D01*
X6022952Y-17605238D02*
X5622952Y-17605238D01*
X5622952Y-17452857D01*
X5642000Y-17414762D01*
X5661048Y-17395714D01*
X5699143Y-17376666D01*
X5756286Y-17376666D01*
X5794381Y-17395714D01*
X5813429Y-17414762D01*
X5832476Y-17452857D01*
X5832476Y-17605238D01*
X5756286Y-17033809D02*
X6022952Y-17033809D01*
X5603905Y-17129047D02*
X5889619Y-17224286D01*
X5889619Y-16976666D01*
D12*
X17907096Y-35897381D02*
X17335667Y-35897381D01*
X17621381Y-35897381D02*
X17621381Y-34897381D01*
X17526143Y-35040238D01*
X17430905Y-35135476D01*
X17335667Y-35183095D01*
X18526143Y-34897381D02*
X18621382Y-34897381D01*
X18716620Y-34945000D01*
X18764239Y-34992619D01*
X18811858Y-35087857D01*
X18859477Y-35278333D01*
X18859477Y-35516429D01*
X18811858Y-35706905D01*
X18764239Y-35802143D01*
X18716620Y-35849762D01*
X18621382Y-35897381D01*
X18526143Y-35897381D01*
X18430905Y-35849762D01*
X18383286Y-35802143D01*
X18335667Y-35706905D01*
X18288048Y-35516429D01*
X18288048Y-35278333D01*
X18335667Y-35087857D01*
X18383286Y-34992619D01*
X18430905Y-34945000D01*
X18526143Y-34897381D01*
X19288048Y-35897381D02*
X19288048Y-34897381D01*
X19621382Y-35611667D01*
X19954715Y-34897381D01*
X19954715Y-35897381D01*
D13*
X18602334Y-37175952D02*
X18469000Y-36985476D01*
X18373762Y-37175952D02*
X18373762Y-36775952D01*
X18526143Y-36775952D01*
X18564238Y-36795000D01*
X18583286Y-36814048D01*
X18602334Y-36852143D01*
X18602334Y-36909286D01*
X18583286Y-36947381D01*
X18564238Y-36966429D01*
X18526143Y-36985476D01*
X18373762Y-36985476D01*
X18964238Y-36775952D02*
X18773762Y-36775952D01*
X18754714Y-36966429D01*
X18773762Y-36947381D01*
X18811857Y-36928333D01*
X18907095Y-36928333D01*
X18945191Y-36947381D01*
X18964238Y-36966429D01*
X18983286Y-37004524D01*
X18983286Y-37099762D01*
X18964238Y-37137857D01*
X18945191Y-37156905D01*
X18907095Y-37175952D01*
X18811857Y-37175952D01*
X18773762Y-37156905D01*
X18754714Y-37137857D01*
D12*
X17907096Y-33230381D02*
X17335667Y-33230381D01*
X17621381Y-33230381D02*
X17621381Y-32230381D01*
X17526143Y-32373238D01*
X17430905Y-32468476D01*
X17335667Y-32516095D01*
X18526143Y-32230381D02*
X18621382Y-32230381D01*
X18716620Y-32278000D01*
X18764239Y-32325619D01*
X18811858Y-32420857D01*
X18859477Y-32611333D01*
X18859477Y-32849429D01*
X18811858Y-33039905D01*
X18764239Y-33135143D01*
X18716620Y-33182762D01*
X18621382Y-33230381D01*
X18526143Y-33230381D01*
X18430905Y-33182762D01*
X18383286Y-33135143D01*
X18335667Y-33039905D01*
X18288048Y-32849429D01*
X18288048Y-32611333D01*
X18335667Y-32420857D01*
X18383286Y-32325619D01*
X18430905Y-32278000D01*
X18526143Y-32230381D01*
X19288048Y-33230381D02*
X19288048Y-32230381D01*
X19621382Y-32944667D01*
X19954715Y-32230381D01*
X19954715Y-33230381D01*
D13*
X18602334Y-34508952D02*
X18469000Y-34318476D01*
X18373762Y-34508952D02*
X18373762Y-34108952D01*
X18526143Y-34108952D01*
X18564238Y-34128000D01*
X18583286Y-34147048D01*
X18602334Y-34185143D01*
X18602334Y-34242286D01*
X18583286Y-34280381D01*
X18564238Y-34299429D01*
X18526143Y-34318476D01*
X18373762Y-34318476D01*
X18945191Y-34108952D02*
X18869000Y-34108952D01*
X18830905Y-34128000D01*
X18811857Y-34147048D01*
X18773762Y-34204190D01*
X18754714Y-34280381D01*
X18754714Y-34432762D01*
X18773762Y-34470857D01*
X18792810Y-34489905D01*
X18830905Y-34508952D01*
X18907095Y-34508952D01*
X18945191Y-34489905D01*
X18964238Y-34470857D01*
X18983286Y-34432762D01*
X18983286Y-34337524D01*
X18964238Y-34299429D01*
X18945191Y-34280381D01*
X18907095Y-34261333D01*
X18830905Y-34261333D01*
X18792810Y-34280381D01*
X18773762Y-34299429D01*
X18754714Y-34337524D01*
D12*
X17037537Y-17604119D02*
X17104882Y-17671463D01*
X17138553Y-17772478D01*
X17138553Y-17839822D01*
X17104882Y-17940837D01*
X17003866Y-18109196D01*
X16835507Y-18277555D01*
X16667148Y-18378570D01*
X16566133Y-18412242D01*
X16498790Y-18412242D01*
X16397775Y-18378570D01*
X16330431Y-18311226D01*
X16296759Y-18210211D01*
X16296759Y-18142867D01*
X16330431Y-18041852D01*
X16431446Y-17873494D01*
X16599805Y-17705134D01*
X16768164Y-17604119D01*
X16869179Y-17570447D01*
X16936522Y-17570447D01*
X17037537Y-17604119D01*
D13*
X17604908Y-17009812D02*
X17645313Y-16780844D01*
X17443283Y-16848188D02*
X17726126Y-16565345D01*
X17833875Y-16673095D01*
X17847343Y-16713501D01*
X17847343Y-16740439D01*
X17833875Y-16780845D01*
X17793469Y-16821251D01*
X17753063Y-16834719D01*
X17726125Y-16834719D01*
X17685719Y-16821250D01*
X17577970Y-16713501D01*
X17982031Y-16821250D02*
X18170593Y-17009812D01*
X17766532Y-17171437D01*
D12*
X8098381Y-39947714D02*
X8098381Y-40519143D01*
X8098381Y-40233429D02*
X7098381Y-40233429D01*
X7241238Y-40328667D01*
X7336476Y-40423905D01*
X7384095Y-40519143D01*
X8098381Y-39519143D02*
X7098381Y-39519143D01*
X7812667Y-39185809D01*
X7098381Y-38852476D01*
X8098381Y-38852476D01*
D13*
X6276952Y-39728666D02*
X6086476Y-39862000D01*
X6276952Y-39957238D02*
X5876952Y-39957238D01*
X5876952Y-39804857D01*
X5896000Y-39766762D01*
X5915048Y-39747714D01*
X5953143Y-39728666D01*
X6010286Y-39728666D01*
X6048381Y-39747714D01*
X6067429Y-39766762D01*
X6086476Y-39804857D01*
X6086476Y-39957238D01*
X6048381Y-39500095D02*
X6029333Y-39538190D01*
X6010286Y-39557238D01*
X5972190Y-39576286D01*
X5953143Y-39576286D01*
X5915048Y-39557238D01*
X5896000Y-39538190D01*
X5876952Y-39500095D01*
X5876952Y-39423905D01*
X5896000Y-39385809D01*
X5915048Y-39366762D01*
X5953143Y-39347714D01*
X5972190Y-39347714D01*
X6010286Y-39366762D01*
X6029333Y-39385809D01*
X6048381Y-39423905D01*
X6048381Y-39500095D01*
X6067429Y-39538190D01*
X6086476Y-39557238D01*
X6124571Y-39576286D01*
X6200762Y-39576286D01*
X6238857Y-39557238D01*
X6257905Y-39538190D01*
X6276952Y-39500095D01*
X6276952Y-39423905D01*
X6257905Y-39385809D01*
X6238857Y-39366762D01*
X6200762Y-39347714D01*
X6124571Y-39347714D01*
X6086476Y-39366762D01*
X6067429Y-39385809D01*
X6048381Y-39423905D01*
D12*
X10638381Y-10229714D02*
X10638381Y-10801143D01*
X10638381Y-10515429D02*
X9638381Y-10515429D01*
X9781238Y-10610667D01*
X9876476Y-10705905D01*
X9924095Y-10801143D01*
X10638381Y-9801143D02*
X9638381Y-9801143D01*
X10352667Y-9467809D01*
X9638381Y-9134476D01*
X10638381Y-9134476D01*
D13*
X8816952Y-10010666D02*
X8626476Y-10144000D01*
X8816952Y-10239238D02*
X8416952Y-10239238D01*
X8416952Y-10086857D01*
X8436000Y-10048762D01*
X8455048Y-10029714D01*
X8493143Y-10010666D01*
X8550286Y-10010666D01*
X8588381Y-10029714D01*
X8607429Y-10048762D01*
X8626476Y-10086857D01*
X8626476Y-10239238D01*
X8816952Y-9820190D02*
X8816952Y-9744000D01*
X8797905Y-9705905D01*
X8778857Y-9686857D01*
X8721714Y-9648762D01*
X8645524Y-9629714D01*
X8493143Y-9629714D01*
X8455048Y-9648762D01*
X8436000Y-9667809D01*
X8416952Y-9705905D01*
X8416952Y-9782095D01*
X8436000Y-9820190D01*
X8455048Y-9839238D01*
X8493143Y-9858286D01*
X8588381Y-9858286D01*
X8626476Y-9839238D01*
X8645524Y-9820190D01*
X8664571Y-9782095D01*
X8664571Y-9705905D01*
X8645524Y-9667809D01*
X8626476Y-9648762D01*
X8588381Y-9629714D01*
D12*
X8382096Y-37802381D02*
X7810667Y-37802381D01*
X8096381Y-37802381D02*
X8096381Y-36802381D01*
X8001143Y-36945238D01*
X7905905Y-37040476D01*
X7810667Y-37088095D01*
X9001143Y-36802381D02*
X9096382Y-36802381D01*
X9191620Y-36850000D01*
X9239239Y-36897619D01*
X9286858Y-36992857D01*
X9334477Y-37183333D01*
X9334477Y-37421429D01*
X9286858Y-37611905D01*
X9239239Y-37707143D01*
X9191620Y-37754762D01*
X9096382Y-37802381D01*
X9001143Y-37802381D01*
X8905905Y-37754762D01*
X8858286Y-37707143D01*
X8810667Y-37611905D01*
X8763048Y-37421429D01*
X8763048Y-37183333D01*
X8810667Y-36992857D01*
X8858286Y-36897619D01*
X8905905Y-36850000D01*
X9001143Y-36802381D01*
X9763048Y-37802381D02*
X9763048Y-36802381D01*
X10096382Y-37516667D01*
X10429715Y-36802381D01*
X10429715Y-37802381D01*
D13*
X8886858Y-39080952D02*
X8753524Y-38890476D01*
X8658286Y-39080952D02*
X8658286Y-38680952D01*
X8810667Y-38680952D01*
X8848762Y-38700000D01*
X8867810Y-38719048D01*
X8886858Y-38757143D01*
X8886858Y-38814286D01*
X8867810Y-38852381D01*
X8848762Y-38871429D01*
X8810667Y-38890476D01*
X8658286Y-38890476D01*
X9267810Y-39080952D02*
X9039238Y-39080952D01*
X9153524Y-39080952D02*
X9153524Y-38680952D01*
X9115429Y-38738095D01*
X9077334Y-38776190D01*
X9039238Y-38795238D01*
X9515429Y-38680952D02*
X9553524Y-38680952D01*
X9591619Y-38700000D01*
X9610667Y-38719048D01*
X9629714Y-38757143D01*
X9648762Y-38833333D01*
X9648762Y-38928571D01*
X9629714Y-39004762D01*
X9610667Y-39042857D01*
X9591619Y-39061905D01*
X9553524Y-39080952D01*
X9515429Y-39080952D01*
X9477333Y-39061905D01*
X9458286Y-39042857D01*
X9439238Y-39004762D01*
X9420190Y-38928571D01*
X9420190Y-38833333D01*
X9439238Y-38757143D01*
X9458286Y-38719048D01*
X9477333Y-38700000D01*
X9515429Y-38680952D01*
D12*
X9876381Y-36645714D02*
X9876381Y-37217143D01*
X9876381Y-36931429D02*
X8876381Y-36931429D01*
X9019238Y-37026667D01*
X9114476Y-37121905D01*
X9162095Y-37217143D01*
X9876381Y-36217143D02*
X8876381Y-36217143D01*
X9590667Y-35883809D01*
X8876381Y-35550476D01*
X9876381Y-35550476D01*
D13*
X8054952Y-36617142D02*
X7864476Y-36750476D01*
X8054952Y-36845714D02*
X7654952Y-36845714D01*
X7654952Y-36693333D01*
X7674000Y-36655238D01*
X7693048Y-36636190D01*
X7731143Y-36617142D01*
X7788286Y-36617142D01*
X7826381Y-36636190D01*
X7845429Y-36655238D01*
X7864476Y-36693333D01*
X7864476Y-36845714D01*
X8054952Y-36236190D02*
X8054952Y-36464762D01*
X8054952Y-36350476D02*
X7654952Y-36350476D01*
X7712095Y-36388571D01*
X7750190Y-36426666D01*
X7769238Y-36464762D01*
X8054952Y-35855238D02*
X8054952Y-36083810D01*
X8054952Y-35969524D02*
X7654952Y-35969524D01*
X7712095Y-36007619D01*
X7750190Y-36045714D01*
X7769238Y-36083810D01*
D12*
X10922096Y-8084381D02*
X10350667Y-8084381D01*
X10636381Y-8084381D02*
X10636381Y-7084381D01*
X10541143Y-7227238D01*
X10445905Y-7322476D01*
X10350667Y-7370095D01*
X11541143Y-7084381D02*
X11636382Y-7084381D01*
X11731620Y-7132000D01*
X11779239Y-7179619D01*
X11826858Y-7274857D01*
X11874477Y-7465333D01*
X11874477Y-7703429D01*
X11826858Y-7893905D01*
X11779239Y-7989143D01*
X11731620Y-8036762D01*
X11636382Y-8084381D01*
X11541143Y-8084381D01*
X11445905Y-8036762D01*
X11398286Y-7989143D01*
X11350667Y-7893905D01*
X11303048Y-7703429D01*
X11303048Y-7465333D01*
X11350667Y-7274857D01*
X11398286Y-7179619D01*
X11445905Y-7132000D01*
X11541143Y-7084381D01*
X12303048Y-8084381D02*
X12303048Y-7084381D01*
X12636382Y-7798667D01*
X12969715Y-7084381D01*
X12969715Y-8084381D01*
D13*
X11426858Y-9362952D02*
X11293524Y-9172476D01*
X11198286Y-9362952D02*
X11198286Y-8962952D01*
X11350667Y-8962952D01*
X11388762Y-8982000D01*
X11407810Y-9001048D01*
X11426858Y-9039143D01*
X11426858Y-9096286D01*
X11407810Y-9134381D01*
X11388762Y-9153429D01*
X11350667Y-9172476D01*
X11198286Y-9172476D01*
X11807810Y-9362952D02*
X11579238Y-9362952D01*
X11693524Y-9362952D02*
X11693524Y-8962952D01*
X11655429Y-9020095D01*
X11617334Y-9058190D01*
X11579238Y-9077238D01*
X11960190Y-9001048D02*
X11979238Y-8982000D01*
X12017333Y-8962952D01*
X12112571Y-8962952D01*
X12150667Y-8982000D01*
X12169714Y-9001048D01*
X12188762Y-9039143D01*
X12188762Y-9077238D01*
X12169714Y-9134381D01*
X11941143Y-9362952D01*
X12188762Y-9362952D01*
D12*
X9366286Y-14486381D02*
X8794857Y-14486381D01*
X9080571Y-14486381D02*
X9080571Y-13486381D01*
X8985333Y-13629238D01*
X8890095Y-13724476D01*
X8794857Y-13772095D01*
X9794857Y-14486381D02*
X9794857Y-13486381D01*
X10128191Y-14200667D01*
X10461524Y-13486381D01*
X10461524Y-14486381D01*
D13*
X9394858Y-12664952D02*
X9261524Y-12474476D01*
X9166286Y-12664952D02*
X9166286Y-12264952D01*
X9318667Y-12264952D01*
X9356762Y-12284000D01*
X9375810Y-12303048D01*
X9394858Y-12341143D01*
X9394858Y-12398286D01*
X9375810Y-12436381D01*
X9356762Y-12455429D01*
X9318667Y-12474476D01*
X9166286Y-12474476D01*
X9775810Y-12664952D02*
X9547238Y-12664952D01*
X9661524Y-12664952D02*
X9661524Y-12264952D01*
X9623429Y-12322095D01*
X9585334Y-12360190D01*
X9547238Y-12379238D01*
X9909143Y-12264952D02*
X10156762Y-12264952D01*
X10023429Y-12417333D01*
X10080571Y-12417333D01*
X10118667Y-12436381D01*
X10137714Y-12455429D01*
X10156762Y-12493524D01*
X10156762Y-12588762D01*
X10137714Y-12626857D01*
X10118667Y-12645905D01*
X10080571Y-12664952D01*
X9966286Y-12664952D01*
X9928190Y-12645905D01*
X9909143Y-12626857D01*
D12*
X11882572Y-37802381D02*
X11311143Y-37802381D01*
X11596857Y-37802381D02*
X11596857Y-36802381D01*
X11501619Y-36945238D01*
X11406381Y-37040476D01*
X11311143Y-37088095D01*
X12501619Y-36802381D02*
X12596858Y-36802381D01*
X12692096Y-36850000D01*
X12739715Y-36897619D01*
X12787334Y-36992857D01*
X12834953Y-37183333D01*
X12834953Y-37421429D01*
X12787334Y-37611905D01*
X12739715Y-37707143D01*
X12692096Y-37754762D01*
X12596858Y-37802381D01*
X12501619Y-37802381D01*
X12406381Y-37754762D01*
X12358762Y-37707143D01*
X12311143Y-37611905D01*
X12263524Y-37421429D01*
X12263524Y-37183333D01*
X12311143Y-36992857D01*
X12358762Y-36897619D01*
X12406381Y-36850000D01*
X12501619Y-36802381D01*
X13454000Y-36802381D02*
X13549239Y-36802381D01*
X13644477Y-36850000D01*
X13692096Y-36897619D01*
X13739715Y-36992857D01*
X13787334Y-37183333D01*
X13787334Y-37421429D01*
X13739715Y-37611905D01*
X13692096Y-37707143D01*
X13644477Y-37754762D01*
X13549239Y-37802381D01*
X13454000Y-37802381D01*
X13358762Y-37754762D01*
X13311143Y-37707143D01*
X13263524Y-37611905D01*
X13215905Y-37421429D01*
X13215905Y-37183333D01*
X13263524Y-36992857D01*
X13311143Y-36897619D01*
X13358762Y-36850000D01*
X13454000Y-36802381D01*
X14215905Y-37802381D02*
X14215905Y-36802381D01*
X14311143Y-37421429D02*
X14596858Y-37802381D01*
X14596858Y-37135714D02*
X14215905Y-37516667D01*
D13*
X12696858Y-39080952D02*
X12563524Y-38890476D01*
X12468286Y-39080952D02*
X12468286Y-38680952D01*
X12620667Y-38680952D01*
X12658762Y-38700000D01*
X12677810Y-38719048D01*
X12696858Y-38757143D01*
X12696858Y-38814286D01*
X12677810Y-38852381D01*
X12658762Y-38871429D01*
X12620667Y-38890476D01*
X12468286Y-38890476D01*
X13077810Y-39080952D02*
X12849238Y-39080952D01*
X12963524Y-39080952D02*
X12963524Y-38680952D01*
X12925429Y-38738095D01*
X12887334Y-38776190D01*
X12849238Y-38795238D01*
X13420667Y-38814286D02*
X13420667Y-39080952D01*
X13325429Y-38661905D02*
X13230190Y-38947619D01*
X13477810Y-38947619D01*
D12*
X13888381Y-10253428D02*
X13888381Y-10824857D01*
X13888381Y-10539143D02*
X12888381Y-10539143D01*
X13031238Y-10634381D01*
X13126476Y-10729619D01*
X13174095Y-10824857D01*
X12888381Y-9634381D02*
X12888381Y-9539142D01*
X12936000Y-9443904D01*
X12983619Y-9396285D01*
X13078857Y-9348666D01*
X13269333Y-9301047D01*
X13507429Y-9301047D01*
X13697905Y-9348666D01*
X13793143Y-9396285D01*
X13840762Y-9443904D01*
X13888381Y-9539142D01*
X13888381Y-9634381D01*
X13840762Y-9729619D01*
X13793143Y-9777238D01*
X13697905Y-9824857D01*
X13507429Y-9872476D01*
X13269333Y-9872476D01*
X13078857Y-9824857D01*
X12983619Y-9777238D01*
X12936000Y-9729619D01*
X12888381Y-9634381D01*
X12888381Y-8682000D02*
X12888381Y-8586761D01*
X12936000Y-8491523D01*
X12983619Y-8443904D01*
X13078857Y-8396285D01*
X13269333Y-8348666D01*
X13507429Y-8348666D01*
X13697905Y-8396285D01*
X13793143Y-8443904D01*
X13840762Y-8491523D01*
X13888381Y-8586761D01*
X13888381Y-8682000D01*
X13840762Y-8777238D01*
X13793143Y-8824857D01*
X13697905Y-8872476D01*
X13507429Y-8920095D01*
X13269333Y-8920095D01*
X13078857Y-8872476D01*
X12983619Y-8824857D01*
X12936000Y-8777238D01*
X12888381Y-8682000D01*
X13888381Y-7920095D02*
X12888381Y-7920095D01*
X13507429Y-7824857D02*
X13888381Y-7539142D01*
X13221714Y-7539142D02*
X13602667Y-7920095D01*
D13*
X15166952Y-9439142D02*
X14976476Y-9572476D01*
X15166952Y-9667714D02*
X14766952Y-9667714D01*
X14766952Y-9515333D01*
X14786000Y-9477238D01*
X14805048Y-9458190D01*
X14843143Y-9439142D01*
X14900286Y-9439142D01*
X14938381Y-9458190D01*
X14957429Y-9477238D01*
X14976476Y-9515333D01*
X14976476Y-9667714D01*
X15166952Y-9058190D02*
X15166952Y-9286762D01*
X15166952Y-9172476D02*
X14766952Y-9172476D01*
X14824095Y-9210571D01*
X14862190Y-9248666D01*
X14881238Y-9286762D01*
X14766952Y-8696286D02*
X14766952Y-8886762D01*
X14957429Y-8905810D01*
X14938381Y-8886762D01*
X14919333Y-8848667D01*
X14919333Y-8753429D01*
X14938381Y-8715333D01*
X14957429Y-8696286D01*
X14995524Y-8677238D01*
X15090762Y-8677238D01*
X15128857Y-8696286D01*
X15147905Y-8715333D01*
X15166952Y-8753429D01*
X15166952Y-8848667D01*
X15147905Y-8886762D01*
X15128857Y-8905810D01*
D12*
X10358572Y-36278381D02*
X9787143Y-36278381D01*
X10072857Y-36278381D02*
X10072857Y-35278381D01*
X9977619Y-35421238D01*
X9882381Y-35516476D01*
X9787143Y-35564095D01*
X10977619Y-35278381D02*
X11072858Y-35278381D01*
X11168096Y-35326000D01*
X11215715Y-35373619D01*
X11263334Y-35468857D01*
X11310953Y-35659333D01*
X11310953Y-35897429D01*
X11263334Y-36087905D01*
X11215715Y-36183143D01*
X11168096Y-36230762D01*
X11072858Y-36278381D01*
X10977619Y-36278381D01*
X10882381Y-36230762D01*
X10834762Y-36183143D01*
X10787143Y-36087905D01*
X10739524Y-35897429D01*
X10739524Y-35659333D01*
X10787143Y-35468857D01*
X10834762Y-35373619D01*
X10882381Y-35326000D01*
X10977619Y-35278381D01*
X11930000Y-35278381D02*
X12025239Y-35278381D01*
X12120477Y-35326000D01*
X12168096Y-35373619D01*
X12215715Y-35468857D01*
X12263334Y-35659333D01*
X12263334Y-35897429D01*
X12215715Y-36087905D01*
X12168096Y-36183143D01*
X12120477Y-36230762D01*
X12025239Y-36278381D01*
X11930000Y-36278381D01*
X11834762Y-36230762D01*
X11787143Y-36183143D01*
X11739524Y-36087905D01*
X11691905Y-35897429D01*
X11691905Y-35659333D01*
X11739524Y-35468857D01*
X11787143Y-35373619D01*
X11834762Y-35326000D01*
X11930000Y-35278381D01*
X12691905Y-36278381D02*
X12691905Y-35278381D01*
X12787143Y-35897429D02*
X13072858Y-36278381D01*
X13072858Y-35611714D02*
X12691905Y-35992667D01*
D13*
X11172858Y-37556952D02*
X11039524Y-37366476D01*
X10944286Y-37556952D02*
X10944286Y-37156952D01*
X11096667Y-37156952D01*
X11134762Y-37176000D01*
X11153810Y-37195048D01*
X11172858Y-37233143D01*
X11172858Y-37290286D01*
X11153810Y-37328381D01*
X11134762Y-37347429D01*
X11096667Y-37366476D01*
X10944286Y-37366476D01*
X11553810Y-37556952D02*
X11325238Y-37556952D01*
X11439524Y-37556952D02*
X11439524Y-37156952D01*
X11401429Y-37214095D01*
X11363334Y-37252190D01*
X11325238Y-37271238D01*
X11896667Y-37156952D02*
X11820476Y-37156952D01*
X11782381Y-37176000D01*
X11763333Y-37195048D01*
X11725238Y-37252190D01*
X11706190Y-37328381D01*
X11706190Y-37480762D01*
X11725238Y-37518857D01*
X11744286Y-37537905D01*
X11782381Y-37556952D01*
X11858571Y-37556952D01*
X11896667Y-37537905D01*
X11915714Y-37518857D01*
X11934762Y-37480762D01*
X11934762Y-37385524D01*
X11915714Y-37347429D01*
X11896667Y-37328381D01*
X11858571Y-37309333D01*
X11782381Y-37309333D01*
X11744286Y-37328381D01*
X11725238Y-37347429D01*
X11706190Y-37385524D01*
D12*
X12898572Y-12656381D02*
X12327143Y-12656381D01*
X12612857Y-12656381D02*
X12612857Y-11656381D01*
X12517619Y-11799238D01*
X12422381Y-11894476D01*
X12327143Y-11942095D01*
X13517619Y-11656381D02*
X13612858Y-11656381D01*
X13708096Y-11704000D01*
X13755715Y-11751619D01*
X13803334Y-11846857D01*
X13850953Y-12037333D01*
X13850953Y-12275429D01*
X13803334Y-12465905D01*
X13755715Y-12561143D01*
X13708096Y-12608762D01*
X13612858Y-12656381D01*
X13517619Y-12656381D01*
X13422381Y-12608762D01*
X13374762Y-12561143D01*
X13327143Y-12465905D01*
X13279524Y-12275429D01*
X13279524Y-12037333D01*
X13327143Y-11846857D01*
X13374762Y-11751619D01*
X13422381Y-11704000D01*
X13517619Y-11656381D01*
X14470000Y-11656381D02*
X14565239Y-11656381D01*
X14660477Y-11704000D01*
X14708096Y-11751619D01*
X14755715Y-11846857D01*
X14803334Y-12037333D01*
X14803334Y-12275429D01*
X14755715Y-12465905D01*
X14708096Y-12561143D01*
X14660477Y-12608762D01*
X14565239Y-12656381D01*
X14470000Y-12656381D01*
X14374762Y-12608762D01*
X14327143Y-12561143D01*
X14279524Y-12465905D01*
X14231905Y-12275429D01*
X14231905Y-12037333D01*
X14279524Y-11846857D01*
X14327143Y-11751619D01*
X14374762Y-11704000D01*
X14470000Y-11656381D01*
X15231905Y-12656381D02*
X15231905Y-11656381D01*
X15327143Y-12275429D02*
X15612858Y-12656381D01*
X15612858Y-11989714D02*
X15231905Y-12370667D01*
D13*
X13712858Y-13934952D02*
X13579524Y-13744476D01*
X13484286Y-13934952D02*
X13484286Y-13534952D01*
X13636667Y-13534952D01*
X13674762Y-13554000D01*
X13693810Y-13573048D01*
X13712858Y-13611143D01*
X13712858Y-13668286D01*
X13693810Y-13706381D01*
X13674762Y-13725429D01*
X13636667Y-13744476D01*
X13484286Y-13744476D01*
X14093810Y-13934952D02*
X13865238Y-13934952D01*
X13979524Y-13934952D02*
X13979524Y-13534952D01*
X13941429Y-13592095D01*
X13903334Y-13630190D01*
X13865238Y-13649238D01*
X14227143Y-13534952D02*
X14493810Y-13534952D01*
X14322381Y-13934952D01*
D12*
X43037714Y-17170809D02*
X43704381Y-17170809D01*
X42656762Y-17408905D02*
X43371048Y-17647000D01*
X43371048Y-17027952D01*
X43609143Y-16647000D02*
X43656762Y-16599381D01*
X43704381Y-16647000D01*
X43656762Y-16694619D01*
X43609143Y-16647000D01*
X43704381Y-16647000D01*
X42704381Y-16266048D02*
X42704381Y-15599381D01*
X43704381Y-16027953D01*
D13*
X41882952Y-16904142D02*
X41692476Y-17037476D01*
X41882952Y-17132714D02*
X41482952Y-17132714D01*
X41482952Y-16980333D01*
X41502000Y-16942238D01*
X41521048Y-16923190D01*
X41559143Y-16904142D01*
X41616286Y-16904142D01*
X41654381Y-16923190D01*
X41673429Y-16942238D01*
X41692476Y-16980333D01*
X41692476Y-17132714D01*
X41882952Y-16523190D02*
X41882952Y-16751762D01*
X41882952Y-16637476D02*
X41482952Y-16637476D01*
X41540095Y-16675571D01*
X41578190Y-16713666D01*
X41597238Y-16751762D01*
X41654381Y-16294619D02*
X41635333Y-16332714D01*
X41616286Y-16351762D01*
X41578190Y-16370810D01*
X41559143Y-16370810D01*
X41521048Y-16351762D01*
X41502000Y-16332714D01*
X41482952Y-16294619D01*
X41482952Y-16218429D01*
X41502000Y-16180333D01*
X41521048Y-16161286D01*
X41559143Y-16142238D01*
X41578190Y-16142238D01*
X41616286Y-16161286D01*
X41635333Y-16180333D01*
X41654381Y-16218429D01*
X41654381Y-16294619D01*
X41673429Y-16332714D01*
X41692476Y-16351762D01*
X41730571Y-16370810D01*
X41806762Y-16370810D01*
X41844857Y-16351762D01*
X41863905Y-16332714D01*
X41882952Y-16294619D01*
X41882952Y-16218429D01*
X41863905Y-16180333D01*
X41844857Y-16161286D01*
X41806762Y-16142238D01*
X41730571Y-16142238D01*
X41692476Y-16161286D01*
X41673429Y-16180333D01*
X41654381Y-16218429D01*
D12*
X37859714Y-33200809D02*
X38526381Y-33200809D01*
X37478762Y-33438905D02*
X38193048Y-33677000D01*
X38193048Y-33057952D01*
X38431143Y-32677000D02*
X38478762Y-32629381D01*
X38526381Y-32677000D01*
X38478762Y-32724619D01*
X38431143Y-32677000D01*
X38526381Y-32677000D01*
X37526381Y-32296048D02*
X37526381Y-31629381D01*
X38526381Y-32057953D01*
D13*
X39804952Y-32934142D02*
X39614476Y-33067476D01*
X39804952Y-33162714D02*
X39404952Y-33162714D01*
X39404952Y-33010333D01*
X39424000Y-32972238D01*
X39443048Y-32953190D01*
X39481143Y-32934142D01*
X39538286Y-32934142D01*
X39576381Y-32953190D01*
X39595429Y-32972238D01*
X39614476Y-33010333D01*
X39614476Y-33162714D01*
X39804952Y-32553190D02*
X39804952Y-32781762D01*
X39804952Y-32667476D02*
X39404952Y-32667476D01*
X39462095Y-32705571D01*
X39500190Y-32743666D01*
X39519238Y-32781762D01*
X39804952Y-32362714D02*
X39804952Y-32286524D01*
X39785905Y-32248429D01*
X39766857Y-32229381D01*
X39709714Y-32191286D01*
X39633524Y-32172238D01*
X39481143Y-32172238D01*
X39443048Y-32191286D01*
X39424000Y-32210333D01*
X39404952Y-32248429D01*
X39404952Y-32324619D01*
X39424000Y-32362714D01*
X39443048Y-32381762D01*
X39481143Y-32400810D01*
X39576381Y-32400810D01*
X39614476Y-32381762D01*
X39633524Y-32362714D01*
X39652571Y-32324619D01*
X39652571Y-32248429D01*
X39633524Y-32210333D01*
X39614476Y-32191286D01*
X39576381Y-32172238D01*
D12*
X46446381Y-14829238D02*
X46446381Y-15400667D01*
X46446381Y-15114953D02*
X45446381Y-15114953D01*
X45589238Y-15210191D01*
X45684476Y-15305429D01*
X45732095Y-15400667D01*
X45446381Y-14210191D02*
X45446381Y-14114952D01*
X45494000Y-14019714D01*
X45541619Y-13972095D01*
X45636857Y-13924476D01*
X45827333Y-13876857D01*
X46065429Y-13876857D01*
X46255905Y-13924476D01*
X46351143Y-13972095D01*
X46398762Y-14019714D01*
X46446381Y-14114952D01*
X46446381Y-14210191D01*
X46398762Y-14305429D01*
X46351143Y-14353048D01*
X46255905Y-14400667D01*
X46065429Y-14448286D01*
X45827333Y-14448286D01*
X45636857Y-14400667D01*
X45541619Y-14353048D01*
X45494000Y-14305429D01*
X45446381Y-14210191D01*
X46446381Y-13448286D02*
X45446381Y-13448286D01*
X46065429Y-13353048D02*
X46446381Y-13067333D01*
X45779714Y-13067333D02*
X46160667Y-13448286D01*
D13*
X47724952Y-14491142D02*
X47534476Y-14624476D01*
X47724952Y-14719714D02*
X47324952Y-14719714D01*
X47324952Y-14567333D01*
X47344000Y-14529238D01*
X47363048Y-14510190D01*
X47401143Y-14491142D01*
X47458286Y-14491142D01*
X47496381Y-14510190D01*
X47515429Y-14529238D01*
X47534476Y-14567333D01*
X47534476Y-14719714D01*
X47363048Y-14338762D02*
X47344000Y-14319714D01*
X47324952Y-14281619D01*
X47324952Y-14186381D01*
X47344000Y-14148285D01*
X47363048Y-14129238D01*
X47401143Y-14110190D01*
X47439238Y-14110190D01*
X47496381Y-14129238D01*
X47724952Y-14357809D01*
X47724952Y-14110190D01*
X47324952Y-13862571D02*
X47324952Y-13824476D01*
X47344000Y-13786381D01*
X47363048Y-13767333D01*
X47401143Y-13748286D01*
X47477333Y-13729238D01*
X47572571Y-13729238D01*
X47648762Y-13748286D01*
X47686857Y-13767333D01*
X47705905Y-13786381D01*
X47724952Y-13824476D01*
X47724952Y-13862571D01*
X47705905Y-13900667D01*
X47686857Y-13919714D01*
X47648762Y-13938762D01*
X47572571Y-13957810D01*
X47477333Y-13957810D01*
X47401143Y-13938762D01*
X47363048Y-13919714D01*
X47344000Y-13900667D01*
X47324952Y-13862571D01*
D12*
X45944381Y-33145238D02*
X45944381Y-33716667D01*
X45944381Y-33430953D02*
X44944381Y-33430953D01*
X45087238Y-33526191D01*
X45182476Y-33621429D01*
X45230095Y-33716667D01*
X44944381Y-32526191D02*
X44944381Y-32430952D01*
X44992000Y-32335714D01*
X45039619Y-32288095D01*
X45134857Y-32240476D01*
X45325333Y-32192857D01*
X45563429Y-32192857D01*
X45753905Y-32240476D01*
X45849143Y-32288095D01*
X45896762Y-32335714D01*
X45944381Y-32430952D01*
X45944381Y-32526191D01*
X45896762Y-32621429D01*
X45849143Y-32669048D01*
X45753905Y-32716667D01*
X45563429Y-32764286D01*
X45325333Y-32764286D01*
X45134857Y-32716667D01*
X45039619Y-32669048D01*
X44992000Y-32621429D01*
X44944381Y-32526191D01*
X45944381Y-31764286D02*
X44944381Y-31764286D01*
X45563429Y-31669048D02*
X45944381Y-31383333D01*
X45277714Y-31383333D02*
X45658667Y-31764286D01*
D13*
X44122952Y-32807142D02*
X43932476Y-32940476D01*
X44122952Y-33035714D02*
X43722952Y-33035714D01*
X43722952Y-32883333D01*
X43742000Y-32845238D01*
X43761048Y-32826190D01*
X43799143Y-32807142D01*
X43856286Y-32807142D01*
X43894381Y-32826190D01*
X43913429Y-32845238D01*
X43932476Y-32883333D01*
X43932476Y-33035714D01*
X43761048Y-32654762D02*
X43742000Y-32635714D01*
X43722952Y-32597619D01*
X43722952Y-32502381D01*
X43742000Y-32464285D01*
X43761048Y-32445238D01*
X43799143Y-32426190D01*
X43837238Y-32426190D01*
X43894381Y-32445238D01*
X44122952Y-32673809D01*
X44122952Y-32426190D01*
X44122952Y-32045238D02*
X44122952Y-32273810D01*
X44122952Y-32159524D02*
X43722952Y-32159524D01*
X43780095Y-32197619D01*
X43818190Y-32235714D01*
X43837238Y-32273810D01*
D12*
X30353096Y-36457381D02*
X29781667Y-36457381D01*
X30067381Y-36457381D02*
X30067381Y-35457381D01*
X29972143Y-35600238D01*
X29876905Y-35695476D01*
X29781667Y-35743095D01*
X30972143Y-35457381D02*
X31067382Y-35457381D01*
X31162620Y-35505000D01*
X31210239Y-35552619D01*
X31257858Y-35647857D01*
X31305477Y-35838333D01*
X31305477Y-36076429D01*
X31257858Y-36266905D01*
X31210239Y-36362143D01*
X31162620Y-36409762D01*
X31067382Y-36457381D01*
X30972143Y-36457381D01*
X30876905Y-36409762D01*
X30829286Y-36362143D01*
X30781667Y-36266905D01*
X30734048Y-36076429D01*
X30734048Y-35838333D01*
X30781667Y-35647857D01*
X30829286Y-35552619D01*
X30876905Y-35505000D01*
X30972143Y-35457381D01*
X31734048Y-36457381D02*
X31734048Y-35457381D01*
X32067382Y-36171667D01*
X32400715Y-35457381D01*
X32400715Y-36457381D01*
D13*
X30857858Y-34635952D02*
X30724524Y-34445476D01*
X30629286Y-34635952D02*
X30629286Y-34235952D01*
X30781667Y-34235952D01*
X30819762Y-34255000D01*
X30838810Y-34274048D01*
X30857858Y-34312143D01*
X30857858Y-34369286D01*
X30838810Y-34407381D01*
X30819762Y-34426429D01*
X30781667Y-34445476D01*
X30629286Y-34445476D01*
X31010238Y-34274048D02*
X31029286Y-34255000D01*
X31067381Y-34235952D01*
X31162619Y-34235952D01*
X31200715Y-34255000D01*
X31219762Y-34274048D01*
X31238810Y-34312143D01*
X31238810Y-34350238D01*
X31219762Y-34407381D01*
X30991191Y-34635952D01*
X31238810Y-34635952D01*
X31391190Y-34274048D02*
X31410238Y-34255000D01*
X31448333Y-34235952D01*
X31543571Y-34235952D01*
X31581667Y-34255000D01*
X31600714Y-34274048D01*
X31619762Y-34312143D01*
X31619762Y-34350238D01*
X31600714Y-34407381D01*
X31372143Y-34635952D01*
X31619762Y-34635952D01*
D12*
X30353096Y-38997381D02*
X29781667Y-38997381D01*
X30067381Y-38997381D02*
X30067381Y-37997381D01*
X29972143Y-38140238D01*
X29876905Y-38235476D01*
X29781667Y-38283095D01*
X30972143Y-37997381D02*
X31067382Y-37997381D01*
X31162620Y-38045000D01*
X31210239Y-38092619D01*
X31257858Y-38187857D01*
X31305477Y-38378333D01*
X31305477Y-38616429D01*
X31257858Y-38806905D01*
X31210239Y-38902143D01*
X31162620Y-38949762D01*
X31067382Y-38997381D01*
X30972143Y-38997381D01*
X30876905Y-38949762D01*
X30829286Y-38902143D01*
X30781667Y-38806905D01*
X30734048Y-38616429D01*
X30734048Y-38378333D01*
X30781667Y-38187857D01*
X30829286Y-38092619D01*
X30876905Y-38045000D01*
X30972143Y-37997381D01*
X31734048Y-38997381D02*
X31734048Y-37997381D01*
X32067382Y-38711667D01*
X32400715Y-37997381D01*
X32400715Y-38997381D01*
D13*
X30857858Y-37175952D02*
X30724524Y-36985476D01*
X30629286Y-37175952D02*
X30629286Y-36775952D01*
X30781667Y-36775952D01*
X30819762Y-36795000D01*
X30838810Y-36814048D01*
X30857858Y-36852143D01*
X30857858Y-36909286D01*
X30838810Y-36947381D01*
X30819762Y-36966429D01*
X30781667Y-36985476D01*
X30629286Y-36985476D01*
X31010238Y-36814048D02*
X31029286Y-36795000D01*
X31067381Y-36775952D01*
X31162619Y-36775952D01*
X31200715Y-36795000D01*
X31219762Y-36814048D01*
X31238810Y-36852143D01*
X31238810Y-36890238D01*
X31219762Y-36947381D01*
X30991191Y-37175952D01*
X31238810Y-37175952D01*
X31372143Y-36775952D02*
X31619762Y-36775952D01*
X31486429Y-36928333D01*
X31543571Y-36928333D01*
X31581667Y-36947381D01*
X31600714Y-36966429D01*
X31619762Y-37004524D01*
X31619762Y-37099762D01*
X31600714Y-37137857D01*
X31581667Y-37156905D01*
X31543571Y-37175952D01*
X31429286Y-37175952D01*
X31391190Y-37156905D01*
X31372143Y-37137857D01*
D12*
X41752381Y-12143714D02*
X41752381Y-12715143D01*
X41752381Y-12429429D02*
X40752381Y-12429429D01*
X40895238Y-12524667D01*
X40990476Y-12619905D01*
X41038095Y-12715143D01*
X41752381Y-11715143D02*
X40752381Y-11715143D01*
X41466667Y-11381809D01*
X40752381Y-11048476D01*
X41752381Y-11048476D01*
D13*
X39930952Y-12115142D02*
X39740476Y-12248476D01*
X39930952Y-12343714D02*
X39530952Y-12343714D01*
X39530952Y-12191333D01*
X39550000Y-12153238D01*
X39569048Y-12134190D01*
X39607143Y-12115142D01*
X39664286Y-12115142D01*
X39702381Y-12134190D01*
X39721429Y-12153238D01*
X39740476Y-12191333D01*
X39740476Y-12343714D01*
X39569048Y-11962762D02*
X39550000Y-11943714D01*
X39530952Y-11905619D01*
X39530952Y-11810381D01*
X39550000Y-11772285D01*
X39569048Y-11753238D01*
X39607143Y-11734190D01*
X39645238Y-11734190D01*
X39702381Y-11753238D01*
X39930952Y-11981809D01*
X39930952Y-11734190D01*
X39664286Y-11391333D02*
X39930952Y-11391333D01*
X39511905Y-11486571D02*
X39797619Y-11581810D01*
X39797619Y-11334190D01*
D12*
X44164286Y-37040381D02*
X43592857Y-37040381D01*
X43878571Y-37040381D02*
X43878571Y-36040381D01*
X43783333Y-36183238D01*
X43688095Y-36278476D01*
X43592857Y-36326095D01*
X44592857Y-37040381D02*
X44592857Y-36040381D01*
X44926191Y-36754667D01*
X45259524Y-36040381D01*
X45259524Y-37040381D01*
D13*
X44192858Y-38318952D02*
X44059524Y-38128476D01*
X43964286Y-38318952D02*
X43964286Y-37918952D01*
X44116667Y-37918952D01*
X44154762Y-37938000D01*
X44173810Y-37957048D01*
X44192858Y-37995143D01*
X44192858Y-38052286D01*
X44173810Y-38090381D01*
X44154762Y-38109429D01*
X44116667Y-38128476D01*
X43964286Y-38128476D01*
X44345238Y-37957048D02*
X44364286Y-37938000D01*
X44402381Y-37918952D01*
X44497619Y-37918952D01*
X44535715Y-37938000D01*
X44554762Y-37957048D01*
X44573810Y-37995143D01*
X44573810Y-38033238D01*
X44554762Y-38090381D01*
X44326191Y-38318952D01*
X44573810Y-38318952D01*
X44935714Y-37918952D02*
X44745238Y-37918952D01*
X44726190Y-38109429D01*
X44745238Y-38090381D01*
X44783333Y-38071333D01*
X44878571Y-38071333D01*
X44916667Y-38090381D01*
X44935714Y-38109429D01*
X44954762Y-38147524D01*
X44954762Y-38242762D01*
X44935714Y-38280857D01*
X44916667Y-38299905D01*
X44878571Y-38318952D01*
X44783333Y-38318952D01*
X44745238Y-38299905D01*
X44726190Y-38280857D01*
D12*
X34402381Y-10369904D02*
X34402381Y-10941333D01*
X34402381Y-10655619D02*
X33402381Y-10655619D01*
X33545238Y-10750857D01*
X33640476Y-10846095D01*
X33688095Y-10941333D01*
X33402381Y-9750857D02*
X33402381Y-9655618D01*
X33450000Y-9560380D01*
X33497619Y-9512761D01*
X33592857Y-9465142D01*
X33783333Y-9417523D01*
X34021429Y-9417523D01*
X34211905Y-9465142D01*
X34307143Y-9512761D01*
X34354762Y-9560380D01*
X34402381Y-9655618D01*
X34402381Y-9750857D01*
X34354762Y-9846095D01*
X34307143Y-9893714D01*
X34211905Y-9941333D01*
X34021429Y-9988952D01*
X33783333Y-9988952D01*
X33592857Y-9941333D01*
X33497619Y-9893714D01*
X33450000Y-9846095D01*
X33402381Y-9750857D01*
X34402381Y-8988952D02*
X33402381Y-8988952D01*
X34116667Y-8655618D01*
X33402381Y-8322285D01*
X34402381Y-8322285D01*
D13*
X35680952Y-9865142D02*
X35490476Y-9998476D01*
X35680952Y-10093714D02*
X35280952Y-10093714D01*
X35280952Y-9941333D01*
X35300000Y-9903238D01*
X35319048Y-9884190D01*
X35357143Y-9865142D01*
X35414286Y-9865142D01*
X35452381Y-9884190D01*
X35471429Y-9903238D01*
X35490476Y-9941333D01*
X35490476Y-10093714D01*
X35319048Y-9712762D02*
X35300000Y-9693714D01*
X35280952Y-9655619D01*
X35280952Y-9560381D01*
X35300000Y-9522285D01*
X35319048Y-9503238D01*
X35357143Y-9484190D01*
X35395238Y-9484190D01*
X35452381Y-9503238D01*
X35680952Y-9731809D01*
X35680952Y-9484190D01*
X35280952Y-9141333D02*
X35280952Y-9217524D01*
X35300000Y-9255619D01*
X35319048Y-9274667D01*
X35376190Y-9312762D01*
X35452381Y-9331810D01*
X35604762Y-9331810D01*
X35642857Y-9312762D01*
X35661905Y-9293714D01*
X35680952Y-9255619D01*
X35680952Y-9179429D01*
X35661905Y-9141333D01*
X35642857Y-9122286D01*
X35604762Y-9103238D01*
X35509524Y-9103238D01*
X35471429Y-9122286D01*
X35452381Y-9141333D01*
X35433333Y-9179429D01*
X35433333Y-9255619D01*
X35452381Y-9293714D01*
X35471429Y-9312762D01*
X35509524Y-9331810D01*
D12*
X35652381Y-14143714D02*
X35652381Y-14715143D01*
X35652381Y-14429429D02*
X34652381Y-14429429D01*
X34795238Y-14524667D01*
X34890476Y-14619905D01*
X34938095Y-14715143D01*
X35652381Y-13715143D02*
X34652381Y-13715143D01*
X35366667Y-13381809D01*
X34652381Y-13048476D01*
X35652381Y-13048476D01*
D13*
X36930952Y-14115142D02*
X36740476Y-14248476D01*
X36930952Y-14343714D02*
X36530952Y-14343714D01*
X36530952Y-14191333D01*
X36550000Y-14153238D01*
X36569048Y-14134190D01*
X36607143Y-14115142D01*
X36664286Y-14115142D01*
X36702381Y-14134190D01*
X36721429Y-14153238D01*
X36740476Y-14191333D01*
X36740476Y-14343714D01*
X36569048Y-13962762D02*
X36550000Y-13943714D01*
X36530952Y-13905619D01*
X36530952Y-13810381D01*
X36550000Y-13772285D01*
X36569048Y-13753238D01*
X36607143Y-13734190D01*
X36645238Y-13734190D01*
X36702381Y-13753238D01*
X36930952Y-13981809D01*
X36930952Y-13734190D01*
X36530952Y-13600857D02*
X36530952Y-13334190D01*
X36930952Y-13505619D01*
D12*
X44958096Y-38564381D02*
X44386667Y-38564381D01*
X44672381Y-38564381D02*
X44672381Y-37564381D01*
X44577143Y-37707238D01*
X44481905Y-37802476D01*
X44386667Y-37850095D01*
X45577143Y-37564381D02*
X45672382Y-37564381D01*
X45767620Y-37612000D01*
X45815239Y-37659619D01*
X45862858Y-37754857D01*
X45910477Y-37945333D01*
X45910477Y-38183429D01*
X45862858Y-38373905D01*
X45815239Y-38469143D01*
X45767620Y-38516762D01*
X45672382Y-38564381D01*
X45577143Y-38564381D01*
X45481905Y-38516762D01*
X45434286Y-38469143D01*
X45386667Y-38373905D01*
X45339048Y-38183429D01*
X45339048Y-37945333D01*
X45386667Y-37754857D01*
X45434286Y-37659619D01*
X45481905Y-37612000D01*
X45577143Y-37564381D01*
X46339048Y-38564381D02*
X46339048Y-37564381D01*
X46672382Y-38278667D01*
X47005715Y-37564381D01*
X47005715Y-38564381D01*
D13*
X45462858Y-39842952D02*
X45329524Y-39652476D01*
X45234286Y-39842952D02*
X45234286Y-39442952D01*
X45386667Y-39442952D01*
X45424762Y-39462000D01*
X45443810Y-39481048D01*
X45462858Y-39519143D01*
X45462858Y-39576286D01*
X45443810Y-39614381D01*
X45424762Y-39633429D01*
X45386667Y-39652476D01*
X45234286Y-39652476D01*
X45615238Y-39481048D02*
X45634286Y-39462000D01*
X45672381Y-39442952D01*
X45767619Y-39442952D01*
X45805715Y-39462000D01*
X45824762Y-39481048D01*
X45843810Y-39519143D01*
X45843810Y-39557238D01*
X45824762Y-39614381D01*
X45596191Y-39842952D01*
X45843810Y-39842952D01*
X46072381Y-39614381D02*
X46034286Y-39595333D01*
X46015238Y-39576286D01*
X45996190Y-39538190D01*
X45996190Y-39519143D01*
X46015238Y-39481048D01*
X46034286Y-39462000D01*
X46072381Y-39442952D01*
X46148571Y-39442952D01*
X46186667Y-39462000D01*
X46205714Y-39481048D01*
X46224762Y-39519143D01*
X46224762Y-39538190D01*
X46205714Y-39576286D01*
X46186667Y-39595333D01*
X46148571Y-39614381D01*
X46072381Y-39614381D01*
X46034286Y-39633429D01*
X46015238Y-39652476D01*
X45996190Y-39690571D01*
X45996190Y-39766762D01*
X46015238Y-39804857D01*
X46034286Y-39823905D01*
X46072381Y-39842952D01*
X46148571Y-39842952D01*
X46186667Y-39823905D01*
X46205714Y-39804857D01*
X46224762Y-39766762D01*
X46224762Y-39690571D01*
X46205714Y-39652476D01*
X46186667Y-39633429D01*
X46148571Y-39614381D01*
D12*
X43428572Y-7260381D02*
X42857143Y-7260381D01*
X43142857Y-7260381D02*
X43142857Y-6260381D01*
X43047619Y-6403238D01*
X42952381Y-6498476D01*
X42857143Y-6546095D01*
X44047619Y-6260381D02*
X44142858Y-6260381D01*
X44238096Y-6308000D01*
X44285715Y-6355619D01*
X44333334Y-6450857D01*
X44380953Y-6641333D01*
X44380953Y-6879429D01*
X44333334Y-7069905D01*
X44285715Y-7165143D01*
X44238096Y-7212762D01*
X44142858Y-7260381D01*
X44047619Y-7260381D01*
X43952381Y-7212762D01*
X43904762Y-7165143D01*
X43857143Y-7069905D01*
X43809524Y-6879429D01*
X43809524Y-6641333D01*
X43857143Y-6450857D01*
X43904762Y-6355619D01*
X43952381Y-6308000D01*
X44047619Y-6260381D01*
X45000000Y-6260381D02*
X45095239Y-6260381D01*
X45190477Y-6308000D01*
X45238096Y-6355619D01*
X45285715Y-6450857D01*
X45333334Y-6641333D01*
X45333334Y-6879429D01*
X45285715Y-7069905D01*
X45238096Y-7165143D01*
X45190477Y-7212762D01*
X45095239Y-7260381D01*
X45000000Y-7260381D01*
X44904762Y-7212762D01*
X44857143Y-7165143D01*
X44809524Y-7069905D01*
X44761905Y-6879429D01*
X44761905Y-6641333D01*
X44809524Y-6450857D01*
X44857143Y-6355619D01*
X44904762Y-6308000D01*
X45000000Y-6260381D01*
X45761905Y-7260381D02*
X45761905Y-6260381D01*
X45857143Y-6879429D02*
X46142858Y-7260381D01*
X46142858Y-6593714D02*
X45761905Y-6974667D01*
D13*
X44242858Y-8538952D02*
X44109524Y-8348476D01*
X44014286Y-8538952D02*
X44014286Y-8138952D01*
X44166667Y-8138952D01*
X44204762Y-8158000D01*
X44223810Y-8177048D01*
X44242858Y-8215143D01*
X44242858Y-8272286D01*
X44223810Y-8310381D01*
X44204762Y-8329429D01*
X44166667Y-8348476D01*
X44014286Y-8348476D01*
X44376191Y-8138952D02*
X44623810Y-8138952D01*
X44490477Y-8291333D01*
X44547619Y-8291333D01*
X44585715Y-8310381D01*
X44604762Y-8329429D01*
X44623810Y-8367524D01*
X44623810Y-8462762D01*
X44604762Y-8500857D01*
X44585715Y-8519905D01*
X44547619Y-8538952D01*
X44433334Y-8538952D01*
X44395238Y-8519905D01*
X44376191Y-8500857D01*
X44871429Y-8138952D02*
X44909524Y-8138952D01*
X44947619Y-8158000D01*
X44966667Y-8177048D01*
X44985714Y-8215143D01*
X45004762Y-8291333D01*
X45004762Y-8386571D01*
X44985714Y-8462762D01*
X44966667Y-8500857D01*
X44947619Y-8519905D01*
X44909524Y-8538952D01*
X44871429Y-8538952D01*
X44833333Y-8519905D01*
X44814286Y-8500857D01*
X44795238Y-8462762D01*
X44776190Y-8386571D01*
X44776190Y-8291333D01*
X44795238Y-8215143D01*
X44814286Y-8177048D01*
X44833333Y-8158000D01*
X44871429Y-8138952D01*
D12*
X47416381Y-39463428D02*
X47416381Y-40034857D01*
X47416381Y-39749143D02*
X46416381Y-39749143D01*
X46559238Y-39844381D01*
X46654476Y-39939619D01*
X46702095Y-40034857D01*
X46416381Y-38844381D02*
X46416381Y-38749142D01*
X46464000Y-38653904D01*
X46511619Y-38606285D01*
X46606857Y-38558666D01*
X46797333Y-38511047D01*
X47035429Y-38511047D01*
X47225905Y-38558666D01*
X47321143Y-38606285D01*
X47368762Y-38653904D01*
X47416381Y-38749142D01*
X47416381Y-38844381D01*
X47368762Y-38939619D01*
X47321143Y-38987238D01*
X47225905Y-39034857D01*
X47035429Y-39082476D01*
X46797333Y-39082476D01*
X46606857Y-39034857D01*
X46511619Y-38987238D01*
X46464000Y-38939619D01*
X46416381Y-38844381D01*
X46416381Y-37892000D02*
X46416381Y-37796761D01*
X46464000Y-37701523D01*
X46511619Y-37653904D01*
X46606857Y-37606285D01*
X46797333Y-37558666D01*
X47035429Y-37558666D01*
X47225905Y-37606285D01*
X47321143Y-37653904D01*
X47368762Y-37701523D01*
X47416381Y-37796761D01*
X47416381Y-37892000D01*
X47368762Y-37987238D01*
X47321143Y-38034857D01*
X47225905Y-38082476D01*
X47035429Y-38130095D01*
X46797333Y-38130095D01*
X46606857Y-38082476D01*
X46511619Y-38034857D01*
X46464000Y-37987238D01*
X46416381Y-37892000D01*
X47416381Y-37130095D02*
X46416381Y-37130095D01*
X47035429Y-37034857D02*
X47416381Y-36749142D01*
X46749714Y-36749142D02*
X47130667Y-37130095D01*
D13*
X48694952Y-38649142D02*
X48504476Y-38782476D01*
X48694952Y-38877714D02*
X48294952Y-38877714D01*
X48294952Y-38725333D01*
X48314000Y-38687238D01*
X48333048Y-38668190D01*
X48371143Y-38649142D01*
X48428286Y-38649142D01*
X48466381Y-38668190D01*
X48485429Y-38687238D01*
X48504476Y-38725333D01*
X48504476Y-38877714D01*
X48294952Y-38515809D02*
X48294952Y-38268190D01*
X48447333Y-38401523D01*
X48447333Y-38344381D01*
X48466381Y-38306285D01*
X48485429Y-38287238D01*
X48523524Y-38268190D01*
X48618762Y-38268190D01*
X48656857Y-38287238D01*
X48675905Y-38306285D01*
X48694952Y-38344381D01*
X48694952Y-38458666D01*
X48675905Y-38496762D01*
X48656857Y-38515809D01*
X48694952Y-37887238D02*
X48694952Y-38115810D01*
X48694952Y-38001524D02*
X48294952Y-38001524D01*
X48352095Y-38039619D01*
X48390190Y-38077714D01*
X48409238Y-38115810D01*
D12*
X39360572Y-7294381D02*
X38789143Y-7294381D01*
X39074857Y-7294381D02*
X39074857Y-6294381D01*
X38979619Y-6437238D01*
X38884381Y-6532476D01*
X38789143Y-6580095D01*
X39979619Y-6294381D02*
X40074858Y-6294381D01*
X40170096Y-6342000D01*
X40217715Y-6389619D01*
X40265334Y-6484857D01*
X40312953Y-6675333D01*
X40312953Y-6913429D01*
X40265334Y-7103905D01*
X40217715Y-7199143D01*
X40170096Y-7246762D01*
X40074858Y-7294381D01*
X39979619Y-7294381D01*
X39884381Y-7246762D01*
X39836762Y-7199143D01*
X39789143Y-7103905D01*
X39741524Y-6913429D01*
X39741524Y-6675333D01*
X39789143Y-6484857D01*
X39836762Y-6389619D01*
X39884381Y-6342000D01*
X39979619Y-6294381D01*
X40932000Y-6294381D02*
X41027239Y-6294381D01*
X41122477Y-6342000D01*
X41170096Y-6389619D01*
X41217715Y-6484857D01*
X41265334Y-6675333D01*
X41265334Y-6913429D01*
X41217715Y-7103905D01*
X41170096Y-7199143D01*
X41122477Y-7246762D01*
X41027239Y-7294381D01*
X40932000Y-7294381D01*
X40836762Y-7246762D01*
X40789143Y-7199143D01*
X40741524Y-7103905D01*
X40693905Y-6913429D01*
X40693905Y-6675333D01*
X40741524Y-6484857D01*
X40789143Y-6389619D01*
X40836762Y-6342000D01*
X40932000Y-6294381D01*
X41693905Y-7294381D02*
X41693905Y-6294381D01*
X41789143Y-6913429D02*
X42074858Y-7294381D01*
X42074858Y-6627714D02*
X41693905Y-7008667D01*
D13*
X40174858Y-8572952D02*
X40041524Y-8382476D01*
X39946286Y-8572952D02*
X39946286Y-8172952D01*
X40098667Y-8172952D01*
X40136762Y-8192000D01*
X40155810Y-8211048D01*
X40174858Y-8249143D01*
X40174858Y-8306286D01*
X40155810Y-8344381D01*
X40136762Y-8363429D01*
X40098667Y-8382476D01*
X39946286Y-8382476D01*
X40308191Y-8172952D02*
X40555810Y-8172952D01*
X40422477Y-8325333D01*
X40479619Y-8325333D01*
X40517715Y-8344381D01*
X40536762Y-8363429D01*
X40555810Y-8401524D01*
X40555810Y-8496762D01*
X40536762Y-8534857D01*
X40517715Y-8553905D01*
X40479619Y-8572952D01*
X40365334Y-8572952D01*
X40327238Y-8553905D01*
X40308191Y-8534857D01*
X40708190Y-8211048D02*
X40727238Y-8192000D01*
X40765333Y-8172952D01*
X40860571Y-8172952D01*
X40898667Y-8192000D01*
X40917714Y-8211048D01*
X40936762Y-8249143D01*
X40936762Y-8287238D01*
X40917714Y-8344381D01*
X40689143Y-8572952D01*
X40936762Y-8572952D01*
D12*
X35504572Y-38056381D02*
X34933143Y-38056381D01*
X35218857Y-38056381D02*
X35218857Y-37056381D01*
X35123619Y-37199238D01*
X35028381Y-37294476D01*
X34933143Y-37342095D01*
X36123619Y-37056381D02*
X36218858Y-37056381D01*
X36314096Y-37104000D01*
X36361715Y-37151619D01*
X36409334Y-37246857D01*
X36456953Y-37437333D01*
X36456953Y-37675429D01*
X36409334Y-37865905D01*
X36361715Y-37961143D01*
X36314096Y-38008762D01*
X36218858Y-38056381D01*
X36123619Y-38056381D01*
X36028381Y-38008762D01*
X35980762Y-37961143D01*
X35933143Y-37865905D01*
X35885524Y-37675429D01*
X35885524Y-37437333D01*
X35933143Y-37246857D01*
X35980762Y-37151619D01*
X36028381Y-37104000D01*
X36123619Y-37056381D01*
X37076000Y-37056381D02*
X37171239Y-37056381D01*
X37266477Y-37104000D01*
X37314096Y-37151619D01*
X37361715Y-37246857D01*
X37409334Y-37437333D01*
X37409334Y-37675429D01*
X37361715Y-37865905D01*
X37314096Y-37961143D01*
X37266477Y-38008762D01*
X37171239Y-38056381D01*
X37076000Y-38056381D01*
X36980762Y-38008762D01*
X36933143Y-37961143D01*
X36885524Y-37865905D01*
X36837905Y-37675429D01*
X36837905Y-37437333D01*
X36885524Y-37246857D01*
X36933143Y-37151619D01*
X36980762Y-37104000D01*
X37076000Y-37056381D01*
X37837905Y-38056381D02*
X37837905Y-37056381D01*
X37933143Y-37675429D02*
X38218858Y-38056381D01*
X38218858Y-37389714D02*
X37837905Y-37770667D01*
D13*
X36318858Y-39334952D02*
X36185524Y-39144476D01*
X36090286Y-39334952D02*
X36090286Y-38934952D01*
X36242667Y-38934952D01*
X36280762Y-38954000D01*
X36299810Y-38973048D01*
X36318858Y-39011143D01*
X36318858Y-39068286D01*
X36299810Y-39106381D01*
X36280762Y-39125429D01*
X36242667Y-39144476D01*
X36090286Y-39144476D01*
X36452191Y-38934952D02*
X36699810Y-38934952D01*
X36566477Y-39087333D01*
X36623619Y-39087333D01*
X36661715Y-39106381D01*
X36680762Y-39125429D01*
X36699810Y-39163524D01*
X36699810Y-39258762D01*
X36680762Y-39296857D01*
X36661715Y-39315905D01*
X36623619Y-39334952D01*
X36509334Y-39334952D01*
X36471238Y-39315905D01*
X36452191Y-39296857D01*
X36833143Y-38934952D02*
X37080762Y-38934952D01*
X36947429Y-39087333D01*
X37004571Y-39087333D01*
X37042667Y-39106381D01*
X37061714Y-39125429D01*
X37080762Y-39163524D01*
X37080762Y-39258762D01*
X37061714Y-39296857D01*
X37042667Y-39315905D01*
X37004571Y-39334952D01*
X36890286Y-39334952D01*
X36852190Y-39315905D01*
X36833143Y-39296857D01*
D12*
X-134571Y-38084571D02*
X8286Y-38132190D01*
X55905Y-38179810D01*
X103524Y-38275048D01*
X103524Y-38417905D01*
X55905Y-38513143D01*
X8286Y-38560762D01*
X-86952Y-38608381D01*
X-467905Y-38608381D01*
X-467905Y-37608381D01*
X-134571Y-37608381D01*
X-39333Y-37656000D01*
X8286Y-37703619D01*
X55905Y-37798857D01*
X55905Y-37894095D01*
X8286Y-37989333D01*
X-39333Y-38036952D01*
X-134571Y-38084571D01*
X-467905Y-38084571D01*
X1103524Y-38513143D02*
X1055905Y-38560762D01*
X913048Y-38608381D01*
X817810Y-38608381D01*
X674952Y-38560762D01*
X579714Y-38465524D01*
X532095Y-38370286D01*
X484476Y-38179810D01*
X484476Y-38036952D01*
X532095Y-37846476D01*
X579714Y-37751238D01*
X674952Y-37656000D01*
X817810Y-37608381D01*
X913048Y-37608381D01*
X1055905Y-37656000D01*
X1103524Y-37703619D01*
X1674952Y-38036952D02*
X1579714Y-37989333D01*
X1532095Y-37941714D01*
X1484476Y-37846476D01*
X1484476Y-37798857D01*
X1532095Y-37703619D01*
X1579714Y-37656000D01*
X1674952Y-37608381D01*
X1865429Y-37608381D01*
X1960667Y-37656000D01*
X2008286Y-37703619D01*
X2055905Y-37798857D01*
X2055905Y-37846476D01*
X2008286Y-37941714D01*
X1960667Y-37989333D01*
X1865429Y-38036952D01*
X1674952Y-38036952D01*
X1579714Y-38084571D01*
X1532095Y-38132190D01*
X1484476Y-38227429D01*
X1484476Y-38417905D01*
X1532095Y-38513143D01*
X1579714Y-38560762D01*
X1674952Y-38608381D01*
X1865429Y-38608381D01*
X1960667Y-38560762D01*
X2008286Y-38513143D01*
X2055905Y-38417905D01*
X2055905Y-38227429D01*
X2008286Y-38132190D01*
X1960667Y-38084571D01*
X1865429Y-38036952D01*
X2913048Y-37941714D02*
X2913048Y-38608381D01*
X2674952Y-37560762D02*
X2436857Y-38275048D01*
X3055905Y-38275048D01*
X3341619Y-37608381D02*
X4008286Y-37608381D01*
X3579714Y-38608381D01*
X4960667Y-38513143D02*
X4913048Y-38560762D01*
X4770191Y-38608381D01*
X4674953Y-38608381D01*
X4532095Y-38560762D01*
X4436857Y-38465524D01*
X4389238Y-38370286D01*
X4341619Y-38179810D01*
X4341619Y-38036952D01*
X4389238Y-37846476D01*
X4436857Y-37751238D01*
X4532095Y-37656000D01*
X4674953Y-37608381D01*
X4770191Y-37608381D01*
X4913048Y-37656000D01*
X4960667Y-37703619D01*
X5294000Y-37608381D02*
X5532095Y-38608381D01*
X5722572Y-37894095D01*
X5913048Y-38608381D01*
X6151143Y-37608381D01*
D13*
X3067810Y-36153619D02*
X3044000Y-36201238D01*
X2996381Y-36248857D01*
X2924952Y-36320286D01*
X2901143Y-36367905D01*
X2901143Y-36415524D01*
X3020190Y-36391714D02*
X2996381Y-36439333D01*
X2948762Y-36486952D01*
X2853524Y-36510762D01*
X2686857Y-36510762D01*
X2591619Y-36486952D01*
X2544000Y-36439333D01*
X2520190Y-36391714D01*
X2520190Y-36296476D01*
X2544000Y-36248857D01*
X2591619Y-36201238D01*
X2686857Y-36177429D01*
X2853524Y-36177429D01*
X2948762Y-36201238D01*
X2996381Y-36248857D01*
X3020190Y-36296476D01*
X3020190Y-36391714D01*
X3020190Y-35701238D02*
X3020190Y-35986952D01*
X3020190Y-35844095D02*
X2520190Y-35844095D01*
X2591619Y-35891714D01*
X2639238Y-35939333D01*
X2663048Y-35986952D01*
D12*
X9852571Y-19476571D02*
X9900190Y-19333714D01*
X9947810Y-19286095D01*
X10043048Y-19238476D01*
X10185905Y-19238476D01*
X10281143Y-19286095D01*
X10328762Y-19333714D01*
X10376381Y-19428952D01*
X10376381Y-19809905D01*
X9376381Y-19809905D01*
X9376381Y-19476571D01*
X9424000Y-19381333D01*
X9471619Y-19333714D01*
X9566857Y-19286095D01*
X9662095Y-19286095D01*
X9757333Y-19333714D01*
X9804952Y-19381333D01*
X9852571Y-19476571D01*
X9852571Y-19809905D01*
X10281143Y-18238476D02*
X10328762Y-18286095D01*
X10376381Y-18428952D01*
X10376381Y-18524190D01*
X10328762Y-18667048D01*
X10233524Y-18762286D01*
X10138286Y-18809905D01*
X9947810Y-18857524D01*
X9804952Y-18857524D01*
X9614476Y-18809905D01*
X9519238Y-18762286D01*
X9424000Y-18667048D01*
X9376381Y-18524190D01*
X9376381Y-18428952D01*
X9424000Y-18286095D01*
X9471619Y-18238476D01*
X9804952Y-17667048D02*
X9757333Y-17762286D01*
X9709714Y-17809905D01*
X9614476Y-17857524D01*
X9566857Y-17857524D01*
X9471619Y-17809905D01*
X9424000Y-17762286D01*
X9376381Y-17667048D01*
X9376381Y-17476571D01*
X9424000Y-17381333D01*
X9471619Y-17333714D01*
X9566857Y-17286095D01*
X9614476Y-17286095D01*
X9709714Y-17333714D01*
X9757333Y-17381333D01*
X9804952Y-17476571D01*
X9804952Y-17667048D01*
X9852571Y-17762286D01*
X9900190Y-17809905D01*
X9995429Y-17857524D01*
X10185905Y-17857524D01*
X10281143Y-17809905D01*
X10328762Y-17762286D01*
X10376381Y-17667048D01*
X10376381Y-17476571D01*
X10328762Y-17381333D01*
X10281143Y-17333714D01*
X10185905Y-17286095D01*
X9995429Y-17286095D01*
X9900190Y-17333714D01*
X9852571Y-17381333D01*
X9804952Y-17476571D01*
X9709714Y-16428952D02*
X10376381Y-16428952D01*
X9328762Y-16667048D02*
X10043048Y-16905143D01*
X10043048Y-16286095D01*
X9376381Y-16000381D02*
X9376381Y-15333714D01*
X10376381Y-15762286D01*
X10281143Y-14381333D02*
X10328762Y-14428952D01*
X10376381Y-14571809D01*
X10376381Y-14667047D01*
X10328762Y-14809905D01*
X10233524Y-14905143D01*
X10138286Y-14952762D01*
X9947810Y-15000381D01*
X9804952Y-15000381D01*
X9614476Y-14952762D01*
X9519238Y-14905143D01*
X9424000Y-14809905D01*
X9376381Y-14667047D01*
X9376381Y-14571809D01*
X9424000Y-14428952D01*
X9471619Y-14381333D01*
X9376381Y-14048000D02*
X10376381Y-13809905D01*
X9662095Y-13619428D01*
X10376381Y-13428952D01*
X9376381Y-13190857D01*
D13*
X7826381Y-16821810D02*
X7778762Y-16798000D01*
X7731143Y-16750381D01*
X7659714Y-16678952D01*
X7612095Y-16655143D01*
X7564476Y-16655143D01*
X7588286Y-16774190D02*
X7540667Y-16750381D01*
X7493048Y-16702762D01*
X7469238Y-16607524D01*
X7469238Y-16440857D01*
X7493048Y-16345619D01*
X7540667Y-16298000D01*
X7588286Y-16274190D01*
X7683524Y-16274190D01*
X7731143Y-16298000D01*
X7778762Y-16345619D01*
X7802571Y-16440857D01*
X7802571Y-16607524D01*
X7778762Y-16702762D01*
X7731143Y-16750381D01*
X7683524Y-16774190D01*
X7588286Y-16774190D01*
X7993048Y-16321810D02*
X8016858Y-16298000D01*
X8064477Y-16274190D01*
X8183524Y-16274190D01*
X8231143Y-16298000D01*
X8254953Y-16321810D01*
X8278762Y-16369429D01*
X8278762Y-16417048D01*
X8254953Y-16488476D01*
X7969239Y-16774190D01*
X8278762Y-16774190D01*
D12*
X21355952Y-3796381D02*
X21355952Y-2796381D01*
X21736905Y-2796381D01*
X21832143Y-2844000D01*
X21879762Y-2891619D01*
X21927381Y-2986857D01*
X21927381Y-3129714D01*
X21879762Y-3224952D01*
X21832143Y-3272571D01*
X21736905Y-3320190D01*
X21355952Y-3320190D01*
X22498809Y-3796381D02*
X22403571Y-3748762D01*
X22355952Y-3701143D01*
X22308333Y-3605905D01*
X22308333Y-3320190D01*
X22355952Y-3224952D01*
X22403571Y-3177333D01*
X22498809Y-3129714D01*
X22641667Y-3129714D01*
X22736905Y-3177333D01*
X22784524Y-3224952D01*
X22832143Y-3320190D01*
X22832143Y-3605905D01*
X22784524Y-3701143D01*
X22736905Y-3748762D01*
X22641667Y-3796381D01*
X22498809Y-3796381D01*
X23165476Y-3129714D02*
X23355952Y-3796381D01*
X23546429Y-3320190D01*
X23736905Y-3796381D01*
X23927381Y-3129714D01*
X24689286Y-3748762D02*
X24594048Y-3796381D01*
X24403571Y-3796381D01*
X24308333Y-3748762D01*
X24260714Y-3653524D01*
X24260714Y-3272571D01*
X24308333Y-3177333D01*
X24403571Y-3129714D01*
X24594048Y-3129714D01*
X24689286Y-3177333D01*
X24736905Y-3272571D01*
X24736905Y-3367810D01*
X24260714Y-3463048D01*
X25165476Y-3796381D02*
X25165476Y-3129714D01*
X25165476Y-3320190D02*
X25213095Y-3224952D01*
X25260714Y-3177333D01*
X25355952Y-3129714D01*
X25451191Y-3129714D01*
X26736905Y-2796381D02*
X26927382Y-2796381D01*
X27022620Y-2844000D01*
X27117858Y-2939238D01*
X27165477Y-3129714D01*
X27165477Y-3463048D01*
X27117858Y-3653524D01*
X27022620Y-3748762D01*
X26927382Y-3796381D01*
X26736905Y-3796381D01*
X26641667Y-3748762D01*
X26546429Y-3653524D01*
X26498810Y-3463048D01*
X26498810Y-3129714D01*
X26546429Y-2939238D01*
X26641667Y-2844000D01*
X26736905Y-2796381D01*
X28022620Y-3129714D02*
X28022620Y-3796381D01*
X27594048Y-3129714D02*
X27594048Y-3653524D01*
X27641667Y-3748762D01*
X27736905Y-3796381D01*
X27879763Y-3796381D01*
X27975001Y-3748762D01*
X28022620Y-3701143D01*
X28355953Y-3129714D02*
X28736905Y-3129714D01*
X28498810Y-2796381D02*
X28498810Y-3653524D01*
X28546429Y-3748762D01*
X28641667Y-3796381D01*
X28736905Y-3796381D01*
X21542477Y-3554381D02*
X21542477Y-4268667D01*
X21494857Y-4411524D01*
X21399619Y-4506762D01*
X21256762Y-4554381D01*
X21161524Y-4554381D01*
X22542477Y-4554381D02*
X21971048Y-4554381D01*
X22256762Y-4554381D02*
X22256762Y-3554381D01*
X22161524Y-3697238D01*
X22066286Y-3792476D01*
X21971048Y-3840095D01*
X23399620Y-3887714D02*
X23399620Y-4554381D01*
X23161524Y-3506762D02*
X22923429Y-4221048D01*
X23542477Y-4221048D01*
X21336381Y-1379381D02*
X21336381Y-379381D01*
X21717334Y-379381D01*
X21812572Y-427000D01*
X21860191Y-474619D01*
X21907810Y-569857D01*
X21907810Y-712714D01*
X21860191Y-807952D01*
X21812572Y-855571D01*
X21717334Y-903190D01*
X21336381Y-903190D01*
X22479238Y-1379381D02*
X22384000Y-1331762D01*
X22336381Y-1284143D01*
X22288762Y-1188905D01*
X22288762Y-903190D01*
X22336381Y-807952D01*
X22384000Y-760333D01*
X22479238Y-712714D01*
X22622096Y-712714D01*
X22717334Y-760333D01*
X22764953Y-807952D01*
X22812572Y-903190D01*
X22812572Y-1188905D01*
X22764953Y-1284143D01*
X22717334Y-1331762D01*
X22622096Y-1379381D01*
X22479238Y-1379381D01*
X23145905Y-712714D02*
X23336381Y-1379381D01*
X23526858Y-903190D01*
X23717334Y-1379381D01*
X23907810Y-712714D01*
X24669715Y-1331762D02*
X24574477Y-1379381D01*
X24384000Y-1379381D01*
X24288762Y-1331762D01*
X24241143Y-1236524D01*
X24241143Y-855571D01*
X24288762Y-760333D01*
X24384000Y-712714D01*
X24574477Y-712714D01*
X24669715Y-760333D01*
X24717334Y-855571D01*
X24717334Y-950810D01*
X24241143Y-1046048D01*
X25145905Y-1379381D02*
X25145905Y-712714D01*
X25145905Y-903190D02*
X25193524Y-807952D01*
X25241143Y-760333D01*
X25336381Y-712714D01*
X25431620Y-712714D01*
X26526858Y-1379381D02*
X26526858Y-379381D01*
X27003048Y-712714D02*
X27003048Y-1379381D01*
X27003048Y-807952D02*
X27050667Y-760333D01*
X27145905Y-712714D01*
X27288763Y-712714D01*
X27384001Y-760333D01*
X27431620Y-855571D01*
X27431620Y-1379381D01*
X21542477Y-1014381D02*
X21542477Y-1728667D01*
X21494857Y-1871524D01*
X21399619Y-1966762D01*
X21256762Y-2014381D01*
X21161524Y-2014381D01*
X22542477Y-2014381D02*
X21971048Y-2014381D01*
X22256762Y-2014381D02*
X22256762Y-1014381D01*
X22161524Y-1157238D01*
X22066286Y-1252476D01*
X21971048Y-1300095D01*
X22875810Y-1014381D02*
X23494858Y-1014381D01*
X23161524Y-1395333D01*
X23304382Y-1395333D01*
X23399620Y-1442952D01*
X23447239Y-1490571D01*
X23494858Y-1585810D01*
X23494858Y-1823905D01*
X23447239Y-1919143D01*
X23399620Y-1966762D01*
X23304382Y-2014381D01*
X23018667Y-2014381D01*
X22923429Y-1966762D01*
X22875810Y-1919143D01*
X33901429Y-35000571D02*
X34044286Y-35048190D01*
X34091905Y-35095810D01*
X34139524Y-35191048D01*
X34139524Y-35333905D01*
X34091905Y-35429143D01*
X34044286Y-35476762D01*
X33949048Y-35524381D01*
X33568095Y-35524381D01*
X33568095Y-34524381D01*
X33901429Y-34524381D01*
X33996667Y-34572000D01*
X34044286Y-34619619D01*
X34091905Y-34714857D01*
X34091905Y-34810095D01*
X34044286Y-34905333D01*
X33996667Y-34952952D01*
X33901429Y-35000571D01*
X33568095Y-35000571D01*
X35139524Y-35429143D02*
X35091905Y-35476762D01*
X34949048Y-35524381D01*
X34853810Y-35524381D01*
X34710952Y-35476762D01*
X34615714Y-35381524D01*
X34568095Y-35286286D01*
X34520476Y-35095810D01*
X34520476Y-34952952D01*
X34568095Y-34762476D01*
X34615714Y-34667238D01*
X34710952Y-34572000D01*
X34853810Y-34524381D01*
X34949048Y-34524381D01*
X35091905Y-34572000D01*
X35139524Y-34619619D01*
X35710952Y-34952952D02*
X35615714Y-34905333D01*
X35568095Y-34857714D01*
X35520476Y-34762476D01*
X35520476Y-34714857D01*
X35568095Y-34619619D01*
X35615714Y-34572000D01*
X35710952Y-34524381D01*
X35901429Y-34524381D01*
X35996667Y-34572000D01*
X36044286Y-34619619D01*
X36091905Y-34714857D01*
X36091905Y-34762476D01*
X36044286Y-34857714D01*
X35996667Y-34905333D01*
X35901429Y-34952952D01*
X35710952Y-34952952D01*
X35615714Y-35000571D01*
X35568095Y-35048190D01*
X35520476Y-35143429D01*
X35520476Y-35333905D01*
X35568095Y-35429143D01*
X35615714Y-35476762D01*
X35710952Y-35524381D01*
X35901429Y-35524381D01*
X35996667Y-35476762D01*
X36044286Y-35429143D01*
X36091905Y-35333905D01*
X36091905Y-35143429D01*
X36044286Y-35048190D01*
X35996667Y-35000571D01*
X35901429Y-34952952D01*
X36949048Y-34857714D02*
X36949048Y-35524381D01*
X36710952Y-34476762D02*
X36472857Y-35191048D01*
X37091905Y-35191048D01*
X37377619Y-34524381D02*
X38044286Y-34524381D01*
X37615714Y-35524381D01*
X38996667Y-35429143D02*
X38949048Y-35476762D01*
X38806191Y-35524381D01*
X38710953Y-35524381D01*
X38568095Y-35476762D01*
X38472857Y-35381524D01*
X38425238Y-35286286D01*
X38377619Y-35095810D01*
X38377619Y-34952952D01*
X38425238Y-34762476D01*
X38472857Y-34667238D01*
X38568095Y-34572000D01*
X38710953Y-34524381D01*
X38806191Y-34524381D01*
X38949048Y-34572000D01*
X38996667Y-34619619D01*
X39330000Y-34524381D02*
X39568095Y-35524381D01*
X39758572Y-34810095D01*
X39949048Y-35524381D01*
X40187143Y-34524381D01*
D13*
X37103810Y-37169619D02*
X37080000Y-37217238D01*
X37032381Y-37264857D01*
X36960952Y-37336286D01*
X36937143Y-37383905D01*
X36937143Y-37431524D01*
X37056190Y-37407714D02*
X37032381Y-37455333D01*
X36984762Y-37502952D01*
X36889524Y-37526762D01*
X36722857Y-37526762D01*
X36627619Y-37502952D01*
X36580000Y-37455333D01*
X36556190Y-37407714D01*
X36556190Y-37312476D01*
X36580000Y-37264857D01*
X36627619Y-37217238D01*
X36722857Y-37193429D01*
X36889524Y-37193429D01*
X36984762Y-37217238D01*
X37032381Y-37264857D01*
X37056190Y-37312476D01*
X37056190Y-37407714D01*
X36770476Y-36907714D02*
X36746667Y-36955333D01*
X36722857Y-36979142D01*
X36675238Y-37002952D01*
X36651429Y-37002952D01*
X36603810Y-36979142D01*
X36580000Y-36955333D01*
X36556190Y-36907714D01*
X36556190Y-36812476D01*
X36580000Y-36764857D01*
X36603810Y-36741047D01*
X36651429Y-36717238D01*
X36675238Y-36717238D01*
X36722857Y-36741047D01*
X36746667Y-36764857D01*
X36770476Y-36812476D01*
X36770476Y-36907714D01*
X36794286Y-36955333D01*
X36818095Y-36979142D01*
X36865714Y-37002952D01*
X36960952Y-37002952D01*
X37008571Y-36979142D01*
X37032381Y-36955333D01*
X37056190Y-36907714D01*
X37056190Y-36812476D01*
X37032381Y-36764857D01*
X37008571Y-36741047D01*
X36960952Y-36717238D01*
X36865714Y-36717238D01*
X36818095Y-36741047D01*
X36794286Y-36764857D01*
X36770476Y-36812476D01*
D12*
X39478571Y-12786571D02*
X39526190Y-12643714D01*
X39573810Y-12596095D01*
X39669048Y-12548476D01*
X39811905Y-12548476D01*
X39907143Y-12596095D01*
X39954762Y-12643714D01*
X40002381Y-12738952D01*
X40002381Y-13119905D01*
X39002381Y-13119905D01*
X39002381Y-12786571D01*
X39050000Y-12691333D01*
X39097619Y-12643714D01*
X39192857Y-12596095D01*
X39288095Y-12596095D01*
X39383333Y-12643714D01*
X39430952Y-12691333D01*
X39478571Y-12786571D01*
X39478571Y-13119905D01*
X39907143Y-11548476D02*
X39954762Y-11596095D01*
X40002381Y-11738952D01*
X40002381Y-11834190D01*
X39954762Y-11977048D01*
X39859524Y-12072286D01*
X39764286Y-12119905D01*
X39573810Y-12167524D01*
X39430952Y-12167524D01*
X39240476Y-12119905D01*
X39145238Y-12072286D01*
X39050000Y-11977048D01*
X39002381Y-11834190D01*
X39002381Y-11738952D01*
X39050000Y-11596095D01*
X39097619Y-11548476D01*
X39430952Y-10977048D02*
X39383333Y-11072286D01*
X39335714Y-11119905D01*
X39240476Y-11167524D01*
X39192857Y-11167524D01*
X39097619Y-11119905D01*
X39050000Y-11072286D01*
X39002381Y-10977048D01*
X39002381Y-10786571D01*
X39050000Y-10691333D01*
X39097619Y-10643714D01*
X39192857Y-10596095D01*
X39240476Y-10596095D01*
X39335714Y-10643714D01*
X39383333Y-10691333D01*
X39430952Y-10786571D01*
X39430952Y-10977048D01*
X39478571Y-11072286D01*
X39526190Y-11119905D01*
X39621429Y-11167524D01*
X39811905Y-11167524D01*
X39907143Y-11119905D01*
X39954762Y-11072286D01*
X40002381Y-10977048D01*
X40002381Y-10786571D01*
X39954762Y-10691333D01*
X39907143Y-10643714D01*
X39811905Y-10596095D01*
X39621429Y-10596095D01*
X39526190Y-10643714D01*
X39478571Y-10691333D01*
X39430952Y-10786571D01*
X39335714Y-9738952D02*
X40002381Y-9738952D01*
X38954762Y-9977048D02*
X39669048Y-10215143D01*
X39669048Y-9596095D01*
X39002381Y-9310381D02*
X39002381Y-8643714D01*
X40002381Y-9072286D01*
X39907143Y-7691333D02*
X39954762Y-7738952D01*
X40002381Y-7881809D01*
X40002381Y-7977047D01*
X39954762Y-8119905D01*
X39859524Y-8215143D01*
X39764286Y-8262762D01*
X39573810Y-8310381D01*
X39430952Y-8310381D01*
X39240476Y-8262762D01*
X39145238Y-8215143D01*
X39050000Y-8119905D01*
X39002381Y-7977047D01*
X39002381Y-7881809D01*
X39050000Y-7738952D01*
X39097619Y-7691333D01*
X39002381Y-7358000D02*
X40002381Y-7119905D01*
X39288095Y-6929428D01*
X40002381Y-6738952D01*
X39002381Y-6500857D01*
D13*
X37452381Y-10131810D02*
X37404762Y-10108000D01*
X37357143Y-10060381D01*
X37285714Y-9988952D01*
X37238095Y-9965143D01*
X37190476Y-9965143D01*
X37214286Y-10084190D02*
X37166667Y-10060381D01*
X37119048Y-10012762D01*
X37095238Y-9917524D01*
X37095238Y-9750857D01*
X37119048Y-9655619D01*
X37166667Y-9608000D01*
X37214286Y-9584190D01*
X37309524Y-9584190D01*
X37357143Y-9608000D01*
X37404762Y-9655619D01*
X37428571Y-9750857D01*
X37428571Y-9917524D01*
X37404762Y-10012762D01*
X37357143Y-10060381D01*
X37309524Y-10084190D01*
X37214286Y-10084190D01*
X37595239Y-9584190D02*
X37928572Y-9584190D01*
X37714286Y-10084190D01*
D12*
X39624571Y-36810571D02*
X39672190Y-36667714D01*
X39719810Y-36620095D01*
X39815048Y-36572476D01*
X39957905Y-36572476D01*
X40053143Y-36620095D01*
X40100762Y-36667714D01*
X40148381Y-36762952D01*
X40148381Y-37143905D01*
X39148381Y-37143905D01*
X39148381Y-36810571D01*
X39196000Y-36715333D01*
X39243619Y-36667714D01*
X39338857Y-36620095D01*
X39434095Y-36620095D01*
X39529333Y-36667714D01*
X39576952Y-36715333D01*
X39624571Y-36810571D01*
X39624571Y-37143905D01*
X40053143Y-35572476D02*
X40100762Y-35620095D01*
X40148381Y-35762952D01*
X40148381Y-35858190D01*
X40100762Y-36001048D01*
X40005524Y-36096286D01*
X39910286Y-36143905D01*
X39719810Y-36191524D01*
X39576952Y-36191524D01*
X39386476Y-36143905D01*
X39291238Y-36096286D01*
X39196000Y-36001048D01*
X39148381Y-35858190D01*
X39148381Y-35762952D01*
X39196000Y-35620095D01*
X39243619Y-35572476D01*
X39576952Y-35001048D02*
X39529333Y-35096286D01*
X39481714Y-35143905D01*
X39386476Y-35191524D01*
X39338857Y-35191524D01*
X39243619Y-35143905D01*
X39196000Y-35096286D01*
X39148381Y-35001048D01*
X39148381Y-34810571D01*
X39196000Y-34715333D01*
X39243619Y-34667714D01*
X39338857Y-34620095D01*
X39386476Y-34620095D01*
X39481714Y-34667714D01*
X39529333Y-34715333D01*
X39576952Y-34810571D01*
X39576952Y-35001048D01*
X39624571Y-35096286D01*
X39672190Y-35143905D01*
X39767429Y-35191524D01*
X39957905Y-35191524D01*
X40053143Y-35143905D01*
X40100762Y-35096286D01*
X40148381Y-35001048D01*
X40148381Y-34810571D01*
X40100762Y-34715333D01*
X40053143Y-34667714D01*
X39957905Y-34620095D01*
X39767429Y-34620095D01*
X39672190Y-34667714D01*
X39624571Y-34715333D01*
X39576952Y-34810571D01*
X39481714Y-33762952D02*
X40148381Y-33762952D01*
X39100762Y-34001048D02*
X39815048Y-34239143D01*
X39815048Y-33620095D01*
X39148381Y-33334381D02*
X39148381Y-32667714D01*
X40148381Y-33096286D01*
X40053143Y-31715333D02*
X40100762Y-31762952D01*
X40148381Y-31905809D01*
X40148381Y-32001047D01*
X40100762Y-32143905D01*
X40005524Y-32239143D01*
X39910286Y-32286762D01*
X39719810Y-32334381D01*
X39576952Y-32334381D01*
X39386476Y-32286762D01*
X39291238Y-32239143D01*
X39196000Y-32143905D01*
X39148381Y-32001047D01*
X39148381Y-31905809D01*
X39196000Y-31762952D01*
X39243619Y-31715333D01*
X39148381Y-31382000D02*
X40148381Y-31143905D01*
X39434095Y-30953428D01*
X40148381Y-30762952D01*
X39148381Y-30524857D01*
D13*
X41698381Y-34155810D02*
X41650762Y-34132000D01*
X41603143Y-34084381D01*
X41531714Y-34012952D01*
X41484095Y-33989143D01*
X41436476Y-33989143D01*
X41460286Y-34108190D02*
X41412667Y-34084381D01*
X41365048Y-34036762D01*
X41341238Y-33941524D01*
X41341238Y-33774857D01*
X41365048Y-33679619D01*
X41412667Y-33632000D01*
X41460286Y-33608190D01*
X41555524Y-33608190D01*
X41603143Y-33632000D01*
X41650762Y-33679619D01*
X41674571Y-33774857D01*
X41674571Y-33941524D01*
X41650762Y-34036762D01*
X41603143Y-34084381D01*
X41555524Y-34108190D01*
X41460286Y-34108190D01*
X42103143Y-33608190D02*
X42007905Y-33608190D01*
X41960286Y-33632000D01*
X41936477Y-33655810D01*
X41888858Y-33727238D01*
X41865048Y-33822476D01*
X41865048Y-34012952D01*
X41888858Y-34060571D01*
X41912667Y-34084381D01*
X41960286Y-34108190D01*
X42055524Y-34108190D01*
X42103143Y-34084381D01*
X42126953Y-34060571D01*
X42150762Y-34012952D01*
X42150762Y-33893905D01*
X42126953Y-33846286D01*
X42103143Y-33822476D01*
X42055524Y-33798667D01*
X41960286Y-33798667D01*
X41912667Y-33822476D01*
X41888858Y-33846286D01*
X41865048Y-33893905D01*
D12*
X47490571Y-16400571D02*
X47538190Y-16257714D01*
X47585810Y-16210095D01*
X47681048Y-16162476D01*
X47823905Y-16162476D01*
X47919143Y-16210095D01*
X47966762Y-16257714D01*
X48014381Y-16352952D01*
X48014381Y-16733905D01*
X47014381Y-16733905D01*
X47014381Y-16400571D01*
X47062000Y-16305333D01*
X47109619Y-16257714D01*
X47204857Y-16210095D01*
X47300095Y-16210095D01*
X47395333Y-16257714D01*
X47442952Y-16305333D01*
X47490571Y-16400571D01*
X47490571Y-16733905D01*
X47919143Y-15162476D02*
X47966762Y-15210095D01*
X48014381Y-15352952D01*
X48014381Y-15448190D01*
X47966762Y-15591048D01*
X47871524Y-15686286D01*
X47776286Y-15733905D01*
X47585810Y-15781524D01*
X47442952Y-15781524D01*
X47252476Y-15733905D01*
X47157238Y-15686286D01*
X47062000Y-15591048D01*
X47014381Y-15448190D01*
X47014381Y-15352952D01*
X47062000Y-15210095D01*
X47109619Y-15162476D01*
X47442952Y-14591048D02*
X47395333Y-14686286D01*
X47347714Y-14733905D01*
X47252476Y-14781524D01*
X47204857Y-14781524D01*
X47109619Y-14733905D01*
X47062000Y-14686286D01*
X47014381Y-14591048D01*
X47014381Y-14400571D01*
X47062000Y-14305333D01*
X47109619Y-14257714D01*
X47204857Y-14210095D01*
X47252476Y-14210095D01*
X47347714Y-14257714D01*
X47395333Y-14305333D01*
X47442952Y-14400571D01*
X47442952Y-14591048D01*
X47490571Y-14686286D01*
X47538190Y-14733905D01*
X47633429Y-14781524D01*
X47823905Y-14781524D01*
X47919143Y-14733905D01*
X47966762Y-14686286D01*
X48014381Y-14591048D01*
X48014381Y-14400571D01*
X47966762Y-14305333D01*
X47919143Y-14257714D01*
X47823905Y-14210095D01*
X47633429Y-14210095D01*
X47538190Y-14257714D01*
X47490571Y-14305333D01*
X47442952Y-14400571D01*
X47347714Y-13352952D02*
X48014381Y-13352952D01*
X46966762Y-13591048D02*
X47681048Y-13829143D01*
X47681048Y-13210095D01*
X47014381Y-12924381D02*
X47014381Y-12257714D01*
X48014381Y-12686286D01*
X47919143Y-11305333D02*
X47966762Y-11352952D01*
X48014381Y-11495809D01*
X48014381Y-11591047D01*
X47966762Y-11733905D01*
X47871524Y-11829143D01*
X47776286Y-11876762D01*
X47585810Y-11924381D01*
X47442952Y-11924381D01*
X47252476Y-11876762D01*
X47157238Y-11829143D01*
X47062000Y-11733905D01*
X47014381Y-11591047D01*
X47014381Y-11495809D01*
X47062000Y-11352952D01*
X47109619Y-11305333D01*
X47014381Y-10972000D02*
X48014381Y-10733905D01*
X47300095Y-10543428D01*
X48014381Y-10352952D01*
X47014381Y-10114857D01*
D13*
X45464381Y-13745810D02*
X45416762Y-13722000D01*
X45369143Y-13674381D01*
X45297714Y-13602952D01*
X45250095Y-13579143D01*
X45202476Y-13579143D01*
X45226286Y-13698190D02*
X45178667Y-13674381D01*
X45131048Y-13626762D01*
X45107238Y-13531524D01*
X45107238Y-13364857D01*
X45131048Y-13269619D01*
X45178667Y-13222000D01*
X45226286Y-13198190D01*
X45321524Y-13198190D01*
X45369143Y-13222000D01*
X45416762Y-13269619D01*
X45440571Y-13364857D01*
X45440571Y-13531524D01*
X45416762Y-13626762D01*
X45369143Y-13674381D01*
X45321524Y-13698190D01*
X45226286Y-13698190D01*
X45892953Y-13198190D02*
X45654858Y-13198190D01*
X45631048Y-13436286D01*
X45654858Y-13412476D01*
X45702477Y-13388667D01*
X45821524Y-13388667D01*
X45869143Y-13412476D01*
X45892953Y-13436286D01*
X45916762Y-13483905D01*
X45916762Y-13602952D01*
X45892953Y-13650571D01*
X45869143Y-13674381D01*
X45821524Y-13698190D01*
X45702477Y-13698190D01*
X45654858Y-13674381D01*
X45631048Y-13650571D01*
D12*
X10279429Y-13700571D02*
X10422286Y-13748190D01*
X10469905Y-13795810D01*
X10517524Y-13891048D01*
X10517524Y-14033905D01*
X10469905Y-14129143D01*
X10422286Y-14176762D01*
X10327048Y-14224381D01*
X9946095Y-14224381D01*
X9946095Y-13224381D01*
X10279429Y-13224381D01*
X10374667Y-13272000D01*
X10422286Y-13319619D01*
X10469905Y-13414857D01*
X10469905Y-13510095D01*
X10422286Y-13605333D01*
X10374667Y-13652952D01*
X10279429Y-13700571D01*
X9946095Y-13700571D01*
X11517524Y-14129143D02*
X11469905Y-14176762D01*
X11327048Y-14224381D01*
X11231810Y-14224381D01*
X11088952Y-14176762D01*
X10993714Y-14081524D01*
X10946095Y-13986286D01*
X10898476Y-13795810D01*
X10898476Y-13652952D01*
X10946095Y-13462476D01*
X10993714Y-13367238D01*
X11088952Y-13272000D01*
X11231810Y-13224381D01*
X11327048Y-13224381D01*
X11469905Y-13272000D01*
X11517524Y-13319619D01*
X12088952Y-13652952D02*
X11993714Y-13605333D01*
X11946095Y-13557714D01*
X11898476Y-13462476D01*
X11898476Y-13414857D01*
X11946095Y-13319619D01*
X11993714Y-13272000D01*
X12088952Y-13224381D01*
X12279429Y-13224381D01*
X12374667Y-13272000D01*
X12422286Y-13319619D01*
X12469905Y-13414857D01*
X12469905Y-13462476D01*
X12422286Y-13557714D01*
X12374667Y-13605333D01*
X12279429Y-13652952D01*
X12088952Y-13652952D01*
X11993714Y-13700571D01*
X11946095Y-13748190D01*
X11898476Y-13843429D01*
X11898476Y-14033905D01*
X11946095Y-14129143D01*
X11993714Y-14176762D01*
X12088952Y-14224381D01*
X12279429Y-14224381D01*
X12374667Y-14176762D01*
X12422286Y-14129143D01*
X12469905Y-14033905D01*
X12469905Y-13843429D01*
X12422286Y-13748190D01*
X12374667Y-13700571D01*
X12279429Y-13652952D01*
X13327048Y-13557714D02*
X13327048Y-14224381D01*
X13088952Y-13176762D02*
X12850857Y-13891048D01*
X13469905Y-13891048D01*
X13755619Y-13224381D02*
X14422286Y-13224381D01*
X13993714Y-14224381D01*
X15374667Y-14129143D02*
X15327048Y-14176762D01*
X15184191Y-14224381D01*
X15088953Y-14224381D01*
X14946095Y-14176762D01*
X14850857Y-14081524D01*
X14803238Y-13986286D01*
X14755619Y-13795810D01*
X14755619Y-13652952D01*
X14803238Y-13462476D01*
X14850857Y-13367238D01*
X14946095Y-13272000D01*
X15088953Y-13224381D01*
X15184191Y-13224381D01*
X15327048Y-13272000D01*
X15374667Y-13319619D01*
X15708000Y-13224381D02*
X15946095Y-14224381D01*
X16136572Y-13510095D01*
X16327048Y-14224381D01*
X16565143Y-13224381D01*
D13*
X13481810Y-11769619D02*
X13458000Y-11817238D01*
X13410381Y-11864857D01*
X13338952Y-11936286D01*
X13315143Y-11983905D01*
X13315143Y-12031524D01*
X13434190Y-12007714D02*
X13410381Y-12055333D01*
X13362762Y-12102952D01*
X13267524Y-12126762D01*
X13100857Y-12126762D01*
X13005619Y-12102952D01*
X12958000Y-12055333D01*
X12934190Y-12007714D01*
X12934190Y-11912476D01*
X12958000Y-11864857D01*
X13005619Y-11817238D01*
X13100857Y-11793429D01*
X13267524Y-11793429D01*
X13362762Y-11817238D01*
X13410381Y-11864857D01*
X13434190Y-11912476D01*
X13434190Y-12007714D01*
X13100857Y-11364857D02*
X13434190Y-11364857D01*
X12910381Y-11483904D02*
X13267524Y-11602952D01*
X13267524Y-11293428D01*
D12*
X6469429Y-42910571D02*
X6612286Y-42958190D01*
X6659905Y-43005810D01*
X6707524Y-43101048D01*
X6707524Y-43243905D01*
X6659905Y-43339143D01*
X6612286Y-43386762D01*
X6517048Y-43434381D01*
X6136095Y-43434381D01*
X6136095Y-42434381D01*
X6469429Y-42434381D01*
X6564667Y-42482000D01*
X6612286Y-42529619D01*
X6659905Y-42624857D01*
X6659905Y-42720095D01*
X6612286Y-42815333D01*
X6564667Y-42862952D01*
X6469429Y-42910571D01*
X6136095Y-42910571D01*
X7707524Y-43339143D02*
X7659905Y-43386762D01*
X7517048Y-43434381D01*
X7421810Y-43434381D01*
X7278952Y-43386762D01*
X7183714Y-43291524D01*
X7136095Y-43196286D01*
X7088476Y-43005810D01*
X7088476Y-42862952D01*
X7136095Y-42672476D01*
X7183714Y-42577238D01*
X7278952Y-42482000D01*
X7421810Y-42434381D01*
X7517048Y-42434381D01*
X7659905Y-42482000D01*
X7707524Y-42529619D01*
X8278952Y-42862952D02*
X8183714Y-42815333D01*
X8136095Y-42767714D01*
X8088476Y-42672476D01*
X8088476Y-42624857D01*
X8136095Y-42529619D01*
X8183714Y-42482000D01*
X8278952Y-42434381D01*
X8469429Y-42434381D01*
X8564667Y-42482000D01*
X8612286Y-42529619D01*
X8659905Y-42624857D01*
X8659905Y-42672476D01*
X8612286Y-42767714D01*
X8564667Y-42815333D01*
X8469429Y-42862952D01*
X8278952Y-42862952D01*
X8183714Y-42910571D01*
X8136095Y-42958190D01*
X8088476Y-43053429D01*
X8088476Y-43243905D01*
X8136095Y-43339143D01*
X8183714Y-43386762D01*
X8278952Y-43434381D01*
X8469429Y-43434381D01*
X8564667Y-43386762D01*
X8612286Y-43339143D01*
X8659905Y-43243905D01*
X8659905Y-43053429D01*
X8612286Y-42958190D01*
X8564667Y-42910571D01*
X8469429Y-42862952D01*
X9517048Y-42767714D02*
X9517048Y-43434381D01*
X9278952Y-42386762D02*
X9040857Y-43101048D01*
X9659905Y-43101048D01*
X9945619Y-42434381D02*
X10612286Y-42434381D01*
X10183714Y-43434381D01*
X11564667Y-43339143D02*
X11517048Y-43386762D01*
X11374191Y-43434381D01*
X11278953Y-43434381D01*
X11136095Y-43386762D01*
X11040857Y-43291524D01*
X10993238Y-43196286D01*
X10945619Y-43005810D01*
X10945619Y-42862952D01*
X10993238Y-42672476D01*
X11040857Y-42577238D01*
X11136095Y-42482000D01*
X11278953Y-42434381D01*
X11374191Y-42434381D01*
X11517048Y-42482000D01*
X11564667Y-42529619D01*
X11898000Y-42434381D02*
X12136095Y-43434381D01*
X12326572Y-42720095D01*
X12517048Y-43434381D01*
X12755143Y-42434381D01*
D13*
X9671810Y-40979619D02*
X9648000Y-41027238D01*
X9600381Y-41074857D01*
X9528952Y-41146286D01*
X9505143Y-41193905D01*
X9505143Y-41241524D01*
X9624190Y-41217714D02*
X9600381Y-41265333D01*
X9552762Y-41312952D01*
X9457524Y-41336762D01*
X9290857Y-41336762D01*
X9195619Y-41312952D01*
X9148000Y-41265333D01*
X9124190Y-41217714D01*
X9124190Y-41122476D01*
X9148000Y-41074857D01*
X9195619Y-41027238D01*
X9290857Y-41003429D01*
X9457524Y-41003429D01*
X9552762Y-41027238D01*
X9600381Y-41074857D01*
X9624190Y-41122476D01*
X9624190Y-41217714D01*
X9124190Y-40836761D02*
X9124190Y-40527238D01*
X9314667Y-40693904D01*
X9314667Y-40622476D01*
X9338476Y-40574857D01*
X9362286Y-40551047D01*
X9409905Y-40527238D01*
X9528952Y-40527238D01*
X9576571Y-40551047D01*
X9600381Y-40574857D01*
X9624190Y-40622476D01*
X9624190Y-40765333D01*
X9600381Y-40812952D01*
X9576571Y-40836761D01*
D12*
X36520381Y-26366476D02*
X36520381Y-26842667D01*
X35520381Y-26842667D01*
X36520381Y-26033143D02*
X35520381Y-26033143D01*
X36234667Y-25699809D01*
X35520381Y-25366476D01*
X36520381Y-25366476D01*
X35948952Y-24747429D02*
X35901333Y-24842667D01*
X35853714Y-24890286D01*
X35758476Y-24937905D01*
X35710857Y-24937905D01*
X35615619Y-24890286D01*
X35568000Y-24842667D01*
X35520381Y-24747429D01*
X35520381Y-24556952D01*
X35568000Y-24461714D01*
X35615619Y-24414095D01*
X35710857Y-24366476D01*
X35758476Y-24366476D01*
X35853714Y-24414095D01*
X35901333Y-24461714D01*
X35948952Y-24556952D01*
X35948952Y-24747429D01*
X35996571Y-24842667D01*
X36044190Y-24890286D01*
X36139429Y-24937905D01*
X36329905Y-24937905D01*
X36425143Y-24890286D01*
X36472762Y-24842667D01*
X36520381Y-24747429D01*
X36520381Y-24556952D01*
X36472762Y-24461714D01*
X36425143Y-24414095D01*
X36329905Y-24366476D01*
X36139429Y-24366476D01*
X36044190Y-24414095D01*
X35996571Y-24461714D01*
X35948952Y-24556952D01*
X35520381Y-24033143D02*
X35520381Y-23414095D01*
X35901333Y-23747429D01*
X35901333Y-23604571D01*
X35948952Y-23509333D01*
X35996571Y-23461714D01*
X36091810Y-23414095D01*
X36329905Y-23414095D01*
X36425143Y-23461714D01*
X36472762Y-23509333D01*
X36520381Y-23604571D01*
X36520381Y-23890286D01*
X36472762Y-23985524D01*
X36425143Y-24033143D01*
X35520381Y-23080762D02*
X35520381Y-22461714D01*
X35901333Y-22795048D01*
X35901333Y-22652190D01*
X35948952Y-22556952D01*
X35996571Y-22509333D01*
X36091810Y-22461714D01*
X36329905Y-22461714D01*
X36425143Y-22509333D01*
X36472762Y-22556952D01*
X36520381Y-22652190D01*
X36520381Y-22937905D01*
X36472762Y-23033143D01*
X36425143Y-23080762D01*
X42926095Y-22350381D02*
X42926095Y-23159905D01*
X42973714Y-23255143D01*
X43021333Y-23302762D01*
X43116571Y-23350381D01*
X43307048Y-23350381D01*
X43402286Y-23302762D01*
X43449905Y-23255143D01*
X43497524Y-23159905D01*
X43497524Y-22350381D01*
X44449905Y-22350381D02*
X43973714Y-22350381D01*
X43926095Y-22826571D01*
X43973714Y-22778952D01*
X44068952Y-22731333D01*
X44307048Y-22731333D01*
X44402286Y-22778952D01*
X44449905Y-22826571D01*
X44497524Y-22921810D01*
X44497524Y-23159905D01*
X44449905Y-23255143D01*
X44402286Y-23302762D01*
X44307048Y-23350381D01*
X44068952Y-23350381D01*
X43973714Y-23302762D01*
X43926095Y-23255143D01*
X8326381Y-26620476D02*
X8326381Y-27096667D01*
X7326381Y-27096667D01*
X8326381Y-26287143D02*
X7326381Y-26287143D01*
X8040667Y-25953809D01*
X7326381Y-25620476D01*
X8326381Y-25620476D01*
X7754952Y-25001429D02*
X7707333Y-25096667D01*
X7659714Y-25144286D01*
X7564476Y-25191905D01*
X7516857Y-25191905D01*
X7421619Y-25144286D01*
X7374000Y-25096667D01*
X7326381Y-25001429D01*
X7326381Y-24810952D01*
X7374000Y-24715714D01*
X7421619Y-24668095D01*
X7516857Y-24620476D01*
X7564476Y-24620476D01*
X7659714Y-24668095D01*
X7707333Y-24715714D01*
X7754952Y-24810952D01*
X7754952Y-25001429D01*
X7802571Y-25096667D01*
X7850190Y-25144286D01*
X7945429Y-25191905D01*
X8135905Y-25191905D01*
X8231143Y-25144286D01*
X8278762Y-25096667D01*
X8326381Y-25001429D01*
X8326381Y-24810952D01*
X8278762Y-24715714D01*
X8231143Y-24668095D01*
X8135905Y-24620476D01*
X7945429Y-24620476D01*
X7850190Y-24668095D01*
X7802571Y-24715714D01*
X7754952Y-24810952D01*
X7326381Y-24287143D02*
X7326381Y-23668095D01*
X7707333Y-24001429D01*
X7707333Y-23858571D01*
X7754952Y-23763333D01*
X7802571Y-23715714D01*
X7897810Y-23668095D01*
X8135905Y-23668095D01*
X8231143Y-23715714D01*
X8278762Y-23763333D01*
X8326381Y-23858571D01*
X8326381Y-24144286D01*
X8278762Y-24239524D01*
X8231143Y-24287143D01*
X7326381Y-23334762D02*
X7326381Y-22715714D01*
X7707333Y-23049048D01*
X7707333Y-22906190D01*
X7754952Y-22810952D01*
X7802571Y-22763333D01*
X7897810Y-22715714D01*
X8135905Y-22715714D01*
X8231143Y-22763333D01*
X8278762Y-22810952D01*
X8326381Y-22906190D01*
X8326381Y-23191905D01*
X8278762Y-23287143D01*
X8231143Y-23334762D01*
X5588095Y-26160381D02*
X5588095Y-26969905D01*
X5635714Y-27065143D01*
X5683333Y-27112762D01*
X5778571Y-27160381D01*
X5969048Y-27160381D01*
X6064286Y-27112762D01*
X6111905Y-27065143D01*
X6159524Y-26969905D01*
X6159524Y-26160381D01*
X7159524Y-27160381D02*
X6588095Y-27160381D01*
X6873809Y-27160381D02*
X6873809Y-26160381D01*
X6778571Y-26303238D01*
X6683333Y-26398476D01*
X6588095Y-26446095D01*
X49728381Y-34669238D02*
X49728381Y-35240667D01*
X49728381Y-34954953D02*
X48728381Y-34954953D01*
X48871238Y-35050191D01*
X48966476Y-35145429D01*
X49014095Y-35240667D01*
X48728381Y-34050191D02*
X48728381Y-33954952D01*
X48776000Y-33859714D01*
X48823619Y-33812095D01*
X48918857Y-33764476D01*
X49109333Y-33716857D01*
X49347429Y-33716857D01*
X49537905Y-33764476D01*
X49633143Y-33812095D01*
X49680762Y-33859714D01*
X49728381Y-33954952D01*
X49728381Y-34050191D01*
X49680762Y-34145429D01*
X49633143Y-34193048D01*
X49537905Y-34240667D01*
X49347429Y-34288286D01*
X49109333Y-34288286D01*
X48918857Y-34240667D01*
X48823619Y-34193048D01*
X48776000Y-34145429D01*
X48728381Y-34050191D01*
X49728381Y-33288286D02*
X48728381Y-33288286D01*
X49347429Y-33193048D02*
X49728381Y-32907333D01*
X49061714Y-32907333D02*
X49442667Y-33288286D01*
X49474381Y-25017238D02*
X49474381Y-25588667D01*
X49474381Y-25302953D02*
X48474381Y-25302953D01*
X48617238Y-25398191D01*
X48712476Y-25493429D01*
X48760095Y-25588667D01*
X48474381Y-24398191D02*
X48474381Y-24302952D01*
X48522000Y-24207714D01*
X48569619Y-24160095D01*
X48664857Y-24112476D01*
X48855333Y-24064857D01*
X49093429Y-24064857D01*
X49283905Y-24112476D01*
X49379143Y-24160095D01*
X49426762Y-24207714D01*
X49474381Y-24302952D01*
X49474381Y-24398191D01*
X49426762Y-24493429D01*
X49379143Y-24541048D01*
X49283905Y-24588667D01*
X49093429Y-24636286D01*
X48855333Y-24636286D01*
X48664857Y-24588667D01*
X48569619Y-24541048D01*
X48522000Y-24493429D01*
X48474381Y-24398191D01*
X49474381Y-23636286D02*
X48474381Y-23636286D01*
X49093429Y-23541048D02*
X49474381Y-23255333D01*
X48807714Y-23255333D02*
X49188667Y-23636286D01*
X1214381Y-17397238D02*
X1214381Y-17968667D01*
X1214381Y-17682953D02*
X214381Y-17682953D01*
X357238Y-17778191D01*
X452476Y-17873429D01*
X500095Y-17968667D01*
X214381Y-16778191D02*
X214381Y-16682952D01*
X262000Y-16587714D01*
X309619Y-16540095D01*
X404857Y-16492476D01*
X595333Y-16444857D01*
X833429Y-16444857D01*
X1023905Y-16492476D01*
X1119143Y-16540095D01*
X1166762Y-16587714D01*
X1214381Y-16682952D01*
X1214381Y-16778191D01*
X1166762Y-16873429D01*
X1119143Y-16921048D01*
X1023905Y-16968667D01*
X833429Y-17016286D01*
X595333Y-17016286D01*
X404857Y-16968667D01*
X309619Y-16921048D01*
X262000Y-16873429D01*
X214381Y-16778191D01*
X1214381Y-16016286D02*
X214381Y-16016286D01*
X833429Y-15921048D02*
X1214381Y-15635333D01*
X547714Y-15635333D02*
X928667Y-16016286D01*
X1214381Y-27557238D02*
X1214381Y-28128667D01*
X1214381Y-27842953D02*
X214381Y-27842953D01*
X357238Y-27938191D01*
X452476Y-28033429D01*
X500095Y-28128667D01*
X214381Y-26938191D02*
X214381Y-26842952D01*
X262000Y-26747714D01*
X309619Y-26700095D01*
X404857Y-26652476D01*
X595333Y-26604857D01*
X833429Y-26604857D01*
X1023905Y-26652476D01*
X1119143Y-26700095D01*
X1166762Y-26747714D01*
X1214381Y-26842952D01*
X1214381Y-26938191D01*
X1166762Y-27033429D01*
X1119143Y-27081048D01*
X1023905Y-27128667D01*
X833429Y-27176286D01*
X595333Y-27176286D01*
X404857Y-27128667D01*
X309619Y-27081048D01*
X262000Y-27033429D01*
X214381Y-26938191D01*
X1214381Y-26176286D02*
X214381Y-26176286D01*
X833429Y-26081048D02*
X1214381Y-25795333D01*
X547714Y-25795333D02*
X928667Y-26176286D01*
X32591809Y-29402381D02*
X32591809Y-28402381D01*
X33067999Y-28735714D02*
X33067999Y-29402381D01*
X33067999Y-28830952D02*
X33115618Y-28783333D01*
X33210856Y-28735714D01*
X33353714Y-28735714D01*
X33448952Y-28783333D01*
X33496571Y-28878571D01*
X33496571Y-29402381D01*
X33972761Y-28735714D02*
X33972761Y-29735714D01*
X33972761Y-28783333D02*
X34067999Y-28735714D01*
X34258476Y-28735714D01*
X34353714Y-28783333D01*
X34401333Y-28830952D01*
X34448952Y-28926190D01*
X34448952Y-29211905D01*
X34401333Y-29307143D01*
X34353714Y-29354762D01*
X34258476Y-29402381D01*
X34067999Y-29402381D01*
X33972761Y-29354762D01*
X35306095Y-28735714D02*
X35306095Y-29402381D01*
X34877523Y-28735714D02*
X34877523Y-29259524D01*
X34925142Y-29354762D01*
X35020380Y-29402381D01*
X35163238Y-29402381D01*
X35258476Y-29354762D01*
X35306095Y-29307143D01*
X35639428Y-28735714D02*
X36020380Y-28735714D01*
X35782285Y-28402381D02*
X35782285Y-29259524D01*
X35829904Y-29354762D01*
X35925142Y-29402381D01*
X36020380Y-29402381D01*
X37687048Y-29307143D02*
X37639429Y-29354762D01*
X37496572Y-29402381D01*
X37401334Y-29402381D01*
X37258476Y-29354762D01*
X37163238Y-29259524D01*
X37115619Y-29164286D01*
X37068000Y-28973810D01*
X37068000Y-28830952D01*
X37115619Y-28640476D01*
X37163238Y-28545238D01*
X37258476Y-28450000D01*
X37401334Y-28402381D01*
X37496572Y-28402381D01*
X37639429Y-28450000D01*
X37687048Y-28497619D01*
X38258476Y-29402381D02*
X38163238Y-29354762D01*
X38115619Y-29307143D01*
X38068000Y-29211905D01*
X38068000Y-28926190D01*
X38115619Y-28830952D01*
X38163238Y-28783333D01*
X38258476Y-28735714D01*
X38401334Y-28735714D01*
X38496572Y-28783333D01*
X38544191Y-28830952D01*
X38591810Y-28926190D01*
X38591810Y-29211905D01*
X38544191Y-29307143D01*
X38496572Y-29354762D01*
X38401334Y-29402381D01*
X38258476Y-29402381D01*
X39020381Y-29402381D02*
X39020381Y-28735714D01*
X39020381Y-28402381D02*
X38972762Y-28450000D01*
X39020381Y-28497619D01*
X39068000Y-28450000D01*
X39020381Y-28402381D01*
X39020381Y-28497619D01*
X39639428Y-29402381D02*
X39544190Y-29354762D01*
X39496571Y-29259524D01*
X39496571Y-28402381D01*
X36452381Y-34166666D02*
X36452381Y-34642857D01*
X35452381Y-34642857D01*
X35785714Y-33404761D02*
X36452381Y-33404761D01*
X35404762Y-33642857D02*
X36119048Y-33880952D01*
X36119048Y-33261904D01*
X35050809Y-21334381D02*
X35050809Y-20334381D01*
X35526999Y-20667714D02*
X35526999Y-21334381D01*
X35526999Y-20762952D02*
X35574618Y-20715333D01*
X35669856Y-20667714D01*
X35812714Y-20667714D01*
X35907952Y-20715333D01*
X35955571Y-20810571D01*
X35955571Y-21334381D01*
X36431761Y-20667714D02*
X36431761Y-21667714D01*
X36431761Y-20715333D02*
X36526999Y-20667714D01*
X36717476Y-20667714D01*
X36812714Y-20715333D01*
X36860333Y-20762952D01*
X36907952Y-20858190D01*
X36907952Y-21143905D01*
X36860333Y-21239143D01*
X36812714Y-21286762D01*
X36717476Y-21334381D01*
X36526999Y-21334381D01*
X36431761Y-21286762D01*
X37765095Y-20667714D02*
X37765095Y-21334381D01*
X37336523Y-20667714D02*
X37336523Y-21191524D01*
X37384142Y-21286762D01*
X37479380Y-21334381D01*
X37622238Y-21334381D01*
X37717476Y-21286762D01*
X37765095Y-21239143D01*
X38098428Y-20667714D02*
X38479380Y-20667714D01*
X38241285Y-20334381D02*
X38241285Y-21191524D01*
X38288904Y-21286762D01*
X38384142Y-21334381D01*
X38479380Y-21334381D01*
X40146048Y-21239143D02*
X40098429Y-21286762D01*
X39955572Y-21334381D01*
X39860334Y-21334381D01*
X39717476Y-21286762D01*
X39622238Y-21191524D01*
X39574619Y-21096286D01*
X39527000Y-20905810D01*
X39527000Y-20762952D01*
X39574619Y-20572476D01*
X39622238Y-20477238D01*
X39717476Y-20382000D01*
X39860334Y-20334381D01*
X39955572Y-20334381D01*
X40098429Y-20382000D01*
X40146048Y-20429619D01*
X40717476Y-21334381D02*
X40622238Y-21286762D01*
X40574619Y-21239143D01*
X40527000Y-21143905D01*
X40527000Y-20858190D01*
X40574619Y-20762952D01*
X40622238Y-20715333D01*
X40717476Y-20667714D01*
X40860334Y-20667714D01*
X40955572Y-20715333D01*
X41003191Y-20762952D01*
X41050810Y-20858190D01*
X41050810Y-21143905D01*
X41003191Y-21239143D01*
X40955572Y-21286762D01*
X40860334Y-21334381D01*
X40717476Y-21334381D01*
X41479381Y-21334381D02*
X41479381Y-20667714D01*
X41479381Y-20334381D02*
X41431762Y-20382000D01*
X41479381Y-20429619D01*
X41527000Y-20382000D01*
X41479381Y-20334381D01*
X41479381Y-20429619D01*
X42098428Y-21334381D02*
X42003190Y-21286762D01*
X41955571Y-21191524D01*
X41955571Y-20334381D01*
X38952381Y-16166666D02*
X38952381Y-16642857D01*
X37952381Y-16642857D01*
X37952381Y-15928571D02*
X37952381Y-15309523D01*
X38333333Y-15642857D01*
X38333333Y-15499999D01*
X38380952Y-15404761D01*
X38428571Y-15357142D01*
X38523810Y-15309523D01*
X38761905Y-15309523D01*
X38857143Y-15357142D01*
X38904762Y-15404761D01*
X38952381Y-15499999D01*
X38952381Y-15785714D01*
X38904762Y-15880952D01*
X38857143Y-15928571D01*
X10747809Y-21362381D02*
X10747809Y-20362381D01*
X11223999Y-20695714D02*
X11223999Y-21362381D01*
X11223999Y-20790952D02*
X11271618Y-20743333D01*
X11366856Y-20695714D01*
X11509714Y-20695714D01*
X11604952Y-20743333D01*
X11652571Y-20838571D01*
X11652571Y-21362381D01*
X12128761Y-20695714D02*
X12128761Y-21695714D01*
X12128761Y-20743333D02*
X12223999Y-20695714D01*
X12414476Y-20695714D01*
X12509714Y-20743333D01*
X12557333Y-20790952D01*
X12604952Y-20886190D01*
X12604952Y-21171905D01*
X12557333Y-21267143D01*
X12509714Y-21314762D01*
X12414476Y-21362381D01*
X12223999Y-21362381D01*
X12128761Y-21314762D01*
X13462095Y-20695714D02*
X13462095Y-21362381D01*
X13033523Y-20695714D02*
X13033523Y-21219524D01*
X13081142Y-21314762D01*
X13176380Y-21362381D01*
X13319238Y-21362381D01*
X13414476Y-21314762D01*
X13462095Y-21267143D01*
X13795428Y-20695714D02*
X14176380Y-20695714D01*
X13938285Y-20362381D02*
X13938285Y-21219524D01*
X13985904Y-21314762D01*
X14081142Y-21362381D01*
X14176380Y-21362381D01*
X15843048Y-21267143D02*
X15795429Y-21314762D01*
X15652572Y-21362381D01*
X15557334Y-21362381D01*
X15414476Y-21314762D01*
X15319238Y-21219524D01*
X15271619Y-21124286D01*
X15224000Y-20933810D01*
X15224000Y-20790952D01*
X15271619Y-20600476D01*
X15319238Y-20505238D01*
X15414476Y-20410000D01*
X15557334Y-20362381D01*
X15652572Y-20362381D01*
X15795429Y-20410000D01*
X15843048Y-20457619D01*
X16414476Y-21362381D02*
X16319238Y-21314762D01*
X16271619Y-21267143D01*
X16224000Y-21171905D01*
X16224000Y-20886190D01*
X16271619Y-20790952D01*
X16319238Y-20743333D01*
X16414476Y-20695714D01*
X16557334Y-20695714D01*
X16652572Y-20743333D01*
X16700191Y-20790952D01*
X16747810Y-20886190D01*
X16747810Y-21171905D01*
X16700191Y-21267143D01*
X16652572Y-21314762D01*
X16557334Y-21362381D01*
X16414476Y-21362381D01*
X17176381Y-21362381D02*
X17176381Y-20695714D01*
X17176381Y-20362381D02*
X17128762Y-20410000D01*
X17176381Y-20457619D01*
X17224000Y-20410000D01*
X17176381Y-20362381D01*
X17176381Y-20457619D01*
X17795428Y-21362381D02*
X17700190Y-21314762D01*
X17652571Y-21219524D01*
X17652571Y-20362381D01*
X14952381Y-16166666D02*
X14952381Y-16642857D01*
X13952381Y-16642857D01*
X14047619Y-15880952D02*
X14000000Y-15833333D01*
X13952381Y-15738095D01*
X13952381Y-15499999D01*
X14000000Y-15404761D01*
X14047619Y-15357142D01*
X14142857Y-15309523D01*
X14238095Y-15309523D01*
X14380952Y-15357142D01*
X14952381Y-15928571D01*
X14952381Y-15309523D01*
X8207809Y-29402381D02*
X8207809Y-28402381D01*
X8683999Y-28735714D02*
X8683999Y-29402381D01*
X8683999Y-28830952D02*
X8731618Y-28783333D01*
X8826856Y-28735714D01*
X8969714Y-28735714D01*
X9064952Y-28783333D01*
X9112571Y-28878571D01*
X9112571Y-29402381D01*
X9588761Y-28735714D02*
X9588761Y-29735714D01*
X9588761Y-28783333D02*
X9683999Y-28735714D01*
X9874476Y-28735714D01*
X9969714Y-28783333D01*
X10017333Y-28830952D01*
X10064952Y-28926190D01*
X10064952Y-29211905D01*
X10017333Y-29307143D01*
X9969714Y-29354762D01*
X9874476Y-29402381D01*
X9683999Y-29402381D01*
X9588761Y-29354762D01*
X10922095Y-28735714D02*
X10922095Y-29402381D01*
X10493523Y-28735714D02*
X10493523Y-29259524D01*
X10541142Y-29354762D01*
X10636380Y-29402381D01*
X10779238Y-29402381D01*
X10874476Y-29354762D01*
X10922095Y-29307143D01*
X11255428Y-28735714D02*
X11636380Y-28735714D01*
X11398285Y-28402381D02*
X11398285Y-29259524D01*
X11445904Y-29354762D01*
X11541142Y-29402381D01*
X11636380Y-29402381D01*
X13303048Y-29307143D02*
X13255429Y-29354762D01*
X13112572Y-29402381D01*
X13017334Y-29402381D01*
X12874476Y-29354762D01*
X12779238Y-29259524D01*
X12731619Y-29164286D01*
X12684000Y-28973810D01*
X12684000Y-28830952D01*
X12731619Y-28640476D01*
X12779238Y-28545238D01*
X12874476Y-28450000D01*
X13017334Y-28402381D01*
X13112572Y-28402381D01*
X13255429Y-28450000D01*
X13303048Y-28497619D01*
X13874476Y-29402381D02*
X13779238Y-29354762D01*
X13731619Y-29307143D01*
X13684000Y-29211905D01*
X13684000Y-28926190D01*
X13731619Y-28830952D01*
X13779238Y-28783333D01*
X13874476Y-28735714D01*
X14017334Y-28735714D01*
X14112572Y-28783333D01*
X14160191Y-28830952D01*
X14207810Y-28926190D01*
X14207810Y-29211905D01*
X14160191Y-29307143D01*
X14112572Y-29354762D01*
X14017334Y-29402381D01*
X13874476Y-29402381D01*
X14636381Y-29402381D02*
X14636381Y-28735714D01*
X14636381Y-28402381D02*
X14588762Y-28450000D01*
X14636381Y-28497619D01*
X14684000Y-28450000D01*
X14636381Y-28402381D01*
X14636381Y-28497619D01*
X15255428Y-29402381D02*
X15160190Y-29354762D01*
X15112571Y-29259524D01*
X15112571Y-28402381D01*
X11952381Y-34166666D02*
X11952381Y-34642857D01*
X10952381Y-34642857D01*
X11952381Y-33309523D02*
X11952381Y-33880952D01*
X11952381Y-33595238D02*
X10952381Y-33595238D01*
X11095238Y-33690476D01*
X11190476Y-33785714D01*
X11238095Y-33880952D01*
X14176477Y-1522381D02*
X14176477Y-2236667D01*
X14128857Y-2379524D01*
X14033619Y-2474762D01*
X13890762Y-2522381D01*
X13795524Y-2522381D01*
X15176477Y-2522381D02*
X14605048Y-2522381D01*
X14890762Y-2522381D02*
X14890762Y-1522381D01*
X14795524Y-1665238D01*
X14700286Y-1760476D01*
X14605048Y-1808095D01*
X15557429Y-1617619D02*
X15605048Y-1570000D01*
X15700286Y-1522381D01*
X15938382Y-1522381D01*
X16033620Y-1570000D01*
X16081239Y-1617619D01*
X16128858Y-1712857D01*
X16128858Y-1808095D01*
X16081239Y-1950952D01*
X15509810Y-2522381D01*
X16128858Y-2522381D01*
X11636477Y-1522381D02*
X11636477Y-2236667D01*
X11588857Y-2379524D01*
X11493619Y-2474762D01*
X11350762Y-2522381D01*
X11255524Y-2522381D01*
X12636477Y-2522381D02*
X12065048Y-2522381D01*
X12350762Y-2522381D02*
X12350762Y-1522381D01*
X12255524Y-1665238D01*
X12160286Y-1760476D01*
X12065048Y-1808095D01*
X13588858Y-2522381D02*
X13017429Y-2522381D01*
X13303143Y-2522381D02*
X13303143Y-1522381D01*
X13207905Y-1665238D01*
X13112667Y-1760476D01*
X13017429Y-1808095D01*
X21058333Y-48143571D02*
X21391667Y-48143571D01*
X21534524Y-48667381D02*
X21058333Y-48667381D01*
X21058333Y-47667381D01*
X21534524Y-47667381D01*
X21963095Y-48667381D02*
X21963095Y-47667381D01*
X22534524Y-48667381D01*
X22534524Y-47667381D01*
X22867857Y-47667381D02*
X23201190Y-48667381D01*
X23534524Y-47667381D01*
X21542477Y-45464381D02*
X21542477Y-46178667D01*
X21494857Y-46321524D01*
X21399619Y-46416762D01*
X21256762Y-46464381D01*
X21161524Y-46464381D01*
X22542477Y-46464381D02*
X21971048Y-46464381D01*
X22256762Y-46464381D02*
X22256762Y-45464381D01*
X22161524Y-45607238D01*
X22066286Y-45702476D01*
X21971048Y-45750095D01*
X23161524Y-45464381D02*
X23256763Y-45464381D01*
X23352001Y-45512000D01*
X23399620Y-45559619D01*
X23447239Y-45654857D01*
X23494858Y-45845333D01*
X23494858Y-46083429D01*
X23447239Y-46273905D01*
X23399620Y-46369143D01*
X23352001Y-46416762D01*
X23256763Y-46464381D01*
X23161524Y-46464381D01*
X23066286Y-46416762D01*
X23018667Y-46369143D01*
X22971048Y-46273905D01*
X22923429Y-46083429D01*
X22923429Y-45845333D01*
X22971048Y-45654857D01*
X23018667Y-45559619D01*
X23066286Y-45512000D01*
X23161524Y-45464381D01*
X18518333Y-48143571D02*
X18851667Y-48143571D01*
X18994524Y-48667381D02*
X18518333Y-48667381D01*
X18518333Y-47667381D01*
X18994524Y-47667381D01*
X19423095Y-48667381D02*
X19423095Y-47667381D01*
X19994524Y-48667381D01*
X19994524Y-47667381D01*
X20327857Y-47667381D02*
X20661190Y-48667381D01*
X20994524Y-47667381D01*
X19478667Y-45464381D02*
X19478667Y-46178667D01*
X19431047Y-46321524D01*
X19335809Y-46416762D01*
X19192952Y-46464381D01*
X19097714Y-46464381D01*
X20002476Y-46464381D02*
X20192952Y-46464381D01*
X20288191Y-46416762D01*
X20335810Y-46369143D01*
X20431048Y-46226286D01*
X20478667Y-46035810D01*
X20478667Y-45654857D01*
X20431048Y-45559619D01*
X20383429Y-45512000D01*
X20288191Y-45464381D01*
X20097714Y-45464381D01*
X20002476Y-45512000D01*
X19954857Y-45559619D01*
X19907238Y-45654857D01*
X19907238Y-45892952D01*
X19954857Y-45988190D01*
X20002476Y-46035810D01*
X20097714Y-46083429D01*
X20288191Y-46083429D01*
X20383429Y-46035810D01*
X20431048Y-45988190D01*
X20478667Y-45892952D01*
X7501191Y-48381667D02*
X7977382Y-48381667D01*
X7405953Y-48667381D02*
X7739286Y-47667381D01*
X8072620Y-48667381D01*
X8405953Y-47667381D02*
X8405953Y-48476905D01*
X8453572Y-48572143D01*
X8501191Y-48619762D01*
X8596429Y-48667381D01*
X8786906Y-48667381D01*
X8882144Y-48619762D01*
X8929763Y-48572143D01*
X8977382Y-48476905D01*
X8977382Y-47667381D01*
X9453572Y-48667381D02*
X9453572Y-47667381D01*
X9691667Y-47667381D01*
X9834525Y-47715000D01*
X9929763Y-47810238D01*
X9977382Y-47905476D01*
X10025001Y-48095952D01*
X10025001Y-48238810D01*
X9977382Y-48429286D01*
X9929763Y-48524524D01*
X9834525Y-48619762D01*
X9691667Y-48667381D01*
X9453572Y-48667381D01*
X10453572Y-48667381D02*
X10453572Y-47667381D01*
X11120238Y-47667381D02*
X11310715Y-47667381D01*
X11405953Y-47715000D01*
X11501191Y-47810238D01*
X11548810Y-48000714D01*
X11548810Y-48334048D01*
X11501191Y-48524524D01*
X11405953Y-48619762D01*
X11310715Y-48667381D01*
X11120238Y-48667381D01*
X11025000Y-48619762D01*
X10929762Y-48524524D01*
X10882143Y-48334048D01*
X10882143Y-48000714D01*
X10929762Y-47810238D01*
X11025000Y-47715000D01*
X11120238Y-47667381D01*
X9318667Y-45464381D02*
X9318667Y-46178667D01*
X9271047Y-46321524D01*
X9175809Y-46416762D01*
X9032952Y-46464381D01*
X8937714Y-46464381D01*
X9937714Y-45892952D02*
X9842476Y-45845333D01*
X9794857Y-45797714D01*
X9747238Y-45702476D01*
X9747238Y-45654857D01*
X9794857Y-45559619D01*
X9842476Y-45512000D01*
X9937714Y-45464381D01*
X10128191Y-45464381D01*
X10223429Y-45512000D01*
X10271048Y-45559619D01*
X10318667Y-45654857D01*
X10318667Y-45702476D01*
X10271048Y-45797714D01*
X10223429Y-45845333D01*
X10128191Y-45892952D01*
X9937714Y-45892952D01*
X9842476Y-45940571D01*
X9794857Y-45988190D01*
X9747238Y-46083429D01*
X9747238Y-46273905D01*
X9794857Y-46369143D01*
X9842476Y-46416762D01*
X9937714Y-46464381D01*
X10128191Y-46464381D01*
X10223429Y-46416762D01*
X10271048Y-46369143D01*
X10318667Y-46273905D01*
X10318667Y-46083429D01*
X10271048Y-45988190D01*
X10223429Y-45940571D01*
X10128191Y-45892952D01*
X4961191Y-48381667D02*
X5437382Y-48381667D01*
X4865953Y-48667381D02*
X5199286Y-47667381D01*
X5532620Y-48667381D01*
X5865953Y-47667381D02*
X5865953Y-48476905D01*
X5913572Y-48572143D01*
X5961191Y-48619762D01*
X6056429Y-48667381D01*
X6246906Y-48667381D01*
X6342144Y-48619762D01*
X6389763Y-48572143D01*
X6437382Y-48476905D01*
X6437382Y-47667381D01*
X6913572Y-48667381D02*
X6913572Y-47667381D01*
X7151667Y-47667381D01*
X7294525Y-47715000D01*
X7389763Y-47810238D01*
X7437382Y-47905476D01*
X7485001Y-48095952D01*
X7485001Y-48238810D01*
X7437382Y-48429286D01*
X7389763Y-48524524D01*
X7294525Y-48619762D01*
X7151667Y-48667381D01*
X6913572Y-48667381D01*
X7913572Y-48667381D02*
X7913572Y-47667381D01*
X8580238Y-47667381D02*
X8770715Y-47667381D01*
X8865953Y-47715000D01*
X8961191Y-47810238D01*
X9008810Y-48000714D01*
X9008810Y-48334048D01*
X8961191Y-48524524D01*
X8865953Y-48619762D01*
X8770715Y-48667381D01*
X8580238Y-48667381D01*
X8485000Y-48619762D01*
X8389762Y-48524524D01*
X8342143Y-48334048D01*
X8342143Y-48000714D01*
X8389762Y-47810238D01*
X8485000Y-47715000D01*
X8580238Y-47667381D01*
X6778667Y-45464381D02*
X6778667Y-46178667D01*
X6731047Y-46321524D01*
X6635809Y-46416762D01*
X6492952Y-46464381D01*
X6397714Y-46464381D01*
X7159619Y-45464381D02*
X7826286Y-45464381D01*
X7397714Y-46464381D01*
X9572667Y-1522381D02*
X9572667Y-2236667D01*
X9525047Y-2379524D01*
X9429809Y-2474762D01*
X9286952Y-2522381D01*
X9191714Y-2522381D01*
X10477429Y-1522381D02*
X10286952Y-1522381D01*
X10191714Y-1570000D01*
X10144095Y-1617619D01*
X10048857Y-1760476D01*
X10001238Y-1950952D01*
X10001238Y-2331905D01*
X10048857Y-2427143D01*
X10096476Y-2474762D01*
X10191714Y-2522381D01*
X10382191Y-2522381D01*
X10477429Y-2474762D01*
X10525048Y-2427143D01*
X10572667Y-2331905D01*
X10572667Y-2093810D01*
X10525048Y-1998571D01*
X10477429Y-1950952D01*
X10382191Y-1903333D01*
X10191714Y-1903333D01*
X10096476Y-1950952D01*
X10048857Y-1998571D01*
X10001238Y-2093810D01*
X7032667Y-1522381D02*
X7032667Y-2236667D01*
X6985047Y-2379524D01*
X6889809Y-2474762D01*
X6746952Y-2522381D01*
X6651714Y-2522381D01*
X7985048Y-1522381D02*
X7508857Y-1522381D01*
X7461238Y-1998571D01*
X7508857Y-1950952D01*
X7604095Y-1903333D01*
X7842191Y-1903333D01*
X7937429Y-1950952D01*
X7985048Y-1998571D01*
X8032667Y-2093810D01*
X8032667Y-2331905D01*
X7985048Y-2427143D01*
X7937429Y-2474762D01*
X7842191Y-2522381D01*
X7604095Y-2522381D01*
X7508857Y-2474762D01*
X7461238Y-2427143D01*
X15978333Y-48143571D02*
X16311667Y-48143571D01*
X16454524Y-48667381D02*
X15978333Y-48667381D01*
X15978333Y-47667381D01*
X16454524Y-47667381D01*
X16883095Y-48667381D02*
X16883095Y-47667381D01*
X17454524Y-48667381D01*
X17454524Y-47667381D01*
X17787857Y-47667381D02*
X18121190Y-48667381D01*
X18454524Y-47667381D01*
X16938667Y-45464381D02*
X16938667Y-46178667D01*
X16891047Y-46321524D01*
X16795809Y-46416762D01*
X16652952Y-46464381D01*
X16557714Y-46464381D01*
X17843429Y-45797714D02*
X17843429Y-46464381D01*
X17605333Y-45416762D02*
X17367238Y-46131048D01*
X17986286Y-46131048D01*
X13438333Y-48143571D02*
X13771667Y-48143571D01*
X13914524Y-48667381D02*
X13438333Y-48667381D01*
X13438333Y-47667381D01*
X13914524Y-47667381D01*
X14343095Y-48667381D02*
X14343095Y-47667381D01*
X14914524Y-48667381D01*
X14914524Y-47667381D01*
X15247857Y-47667381D02*
X15581190Y-48667381D01*
X15914524Y-47667381D01*
X14398667Y-45464381D02*
X14398667Y-46178667D01*
X14351047Y-46321524D01*
X14255809Y-46416762D01*
X14112952Y-46464381D01*
X14017714Y-46464381D01*
X14779619Y-45464381D02*
X15398667Y-45464381D01*
X15065333Y-45845333D01*
X15208191Y-45845333D01*
X15303429Y-45892952D01*
X15351048Y-45940571D01*
X15398667Y-46035810D01*
X15398667Y-46273905D01*
X15351048Y-46369143D01*
X15303429Y-46416762D01*
X15208191Y-46464381D01*
X14922476Y-46464381D01*
X14827238Y-46416762D01*
X14779619Y-46369143D01*
X2421191Y-48381667D02*
X2897382Y-48381667D01*
X2325953Y-48667381D02*
X2659286Y-47667381D01*
X2992620Y-48667381D01*
X3325953Y-47667381D02*
X3325953Y-48476905D01*
X3373572Y-48572143D01*
X3421191Y-48619762D01*
X3516429Y-48667381D01*
X3706906Y-48667381D01*
X3802144Y-48619762D01*
X3849763Y-48572143D01*
X3897382Y-48476905D01*
X3897382Y-47667381D01*
X4373572Y-48667381D02*
X4373572Y-47667381D01*
X4611667Y-47667381D01*
X4754525Y-47715000D01*
X4849763Y-47810238D01*
X4897382Y-47905476D01*
X4945001Y-48095952D01*
X4945001Y-48238810D01*
X4897382Y-48429286D01*
X4849763Y-48524524D01*
X4754525Y-48619762D01*
X4611667Y-48667381D01*
X4373572Y-48667381D01*
X5373572Y-48667381D02*
X5373572Y-47667381D01*
X6040238Y-47667381D02*
X6230715Y-47667381D01*
X6325953Y-47715000D01*
X6421191Y-47810238D01*
X6468810Y-48000714D01*
X6468810Y-48334048D01*
X6421191Y-48524524D01*
X6325953Y-48619762D01*
X6230715Y-48667381D01*
X6040238Y-48667381D01*
X5945000Y-48619762D01*
X5849762Y-48524524D01*
X5802143Y-48334048D01*
X5802143Y-48000714D01*
X5849762Y-47810238D01*
X5945000Y-47715000D01*
X6040238Y-47667381D01*
X4238667Y-45210381D02*
X4238667Y-45924667D01*
X4191047Y-46067524D01*
X4095809Y-46162762D01*
X3952952Y-46210381D01*
X3857714Y-46210381D01*
X4667238Y-45305619D02*
X4714857Y-45258000D01*
X4810095Y-45210381D01*
X5048191Y-45210381D01*
X5143429Y-45258000D01*
X5191048Y-45305619D01*
X5238667Y-45400857D01*
X5238667Y-45496095D01*
X5191048Y-45638952D01*
X4619619Y-46210381D01*
X5238667Y-46210381D01*
X-118809Y-48591667D02*
X357382Y-48591667D01*
X-214047Y-48877381D02*
X119286Y-47877381D01*
X452620Y-48877381D01*
X785953Y-47877381D02*
X785953Y-48686905D01*
X833572Y-48782143D01*
X881191Y-48829762D01*
X976429Y-48877381D01*
X1166906Y-48877381D01*
X1262144Y-48829762D01*
X1309763Y-48782143D01*
X1357382Y-48686905D01*
X1357382Y-47877381D01*
X1833572Y-48877381D02*
X1833572Y-47877381D01*
X2071667Y-47877381D01*
X2214525Y-47925000D01*
X2309763Y-48020238D01*
X2357382Y-48115476D01*
X2405001Y-48305952D01*
X2405001Y-48448810D01*
X2357382Y-48639286D01*
X2309763Y-48734524D01*
X2214525Y-48829762D01*
X2071667Y-48877381D01*
X1833572Y-48877381D01*
X2833572Y-48877381D02*
X2833572Y-47877381D01*
X3500238Y-47877381D02*
X3690715Y-47877381D01*
X3785953Y-47925000D01*
X3881191Y-48020238D01*
X3928810Y-48210714D01*
X3928810Y-48544048D01*
X3881191Y-48734524D01*
X3785953Y-48829762D01*
X3690715Y-48877381D01*
X3500238Y-48877381D01*
X3405000Y-48829762D01*
X3309762Y-48734524D01*
X3262143Y-48544048D01*
X3262143Y-48210714D01*
X3309762Y-48020238D01*
X3405000Y-47925000D01*
X3500238Y-47877381D01*
X1698667Y-45210381D02*
X1698667Y-45924667D01*
X1651047Y-46067524D01*
X1555809Y-46162762D01*
X1412952Y-46210381D01*
X1317714Y-46210381D01*
X2698667Y-46210381D02*
X2127238Y-46210381D01*
X2412952Y-46210381D02*
X2412952Y-45210381D01*
X2317714Y-45353238D01*
X2222476Y-45448476D01*
X2127238Y-45496095D01*
X34082381Y-8626285D02*
X34082381Y-9197714D01*
X34082381Y-8912000D02*
X33082381Y-8912000D01*
X33225238Y-9007238D01*
X33320476Y-9102476D01*
X33368095Y-9197714D01*
X33082381Y-8007238D02*
X33082381Y-7911999D01*
X33130000Y-7816761D01*
X33177619Y-7769142D01*
X33272857Y-7721523D01*
X33463333Y-7673904D01*
X33701429Y-7673904D01*
X33891905Y-7721523D01*
X33987143Y-7769142D01*
X34034762Y-7816761D01*
X34082381Y-7911999D01*
X34082381Y-8007238D01*
X34034762Y-8102476D01*
X33987143Y-8150095D01*
X33891905Y-8197714D01*
X33701429Y-8245333D01*
X33463333Y-8245333D01*
X33272857Y-8197714D01*
X33177619Y-8150095D01*
X33130000Y-8102476D01*
X33082381Y-8007238D01*
X33415714Y-7245333D02*
X34415714Y-7245333D01*
X33939524Y-6769142D02*
X34034762Y-6721523D01*
X34082381Y-6626285D01*
X33939524Y-7245333D02*
X34034762Y-7197714D01*
X34082381Y-7102476D01*
X34082381Y-6911999D01*
X34034762Y-6816761D01*
X33939524Y-6769142D01*
X33415714Y-6769142D01*
D14*
X30765714Y-8426286D02*
X30803810Y-8464381D01*
X30841905Y-8578667D01*
X30841905Y-8654857D01*
X30803810Y-8769143D01*
X30727619Y-8845334D01*
X30651429Y-8883429D01*
X30499048Y-8921524D01*
X30384762Y-8921524D01*
X30232381Y-8883429D01*
X30156190Y-8845334D01*
X30080000Y-8769143D01*
X30041905Y-8654857D01*
X30041905Y-8578667D01*
X30080000Y-8464381D01*
X30118095Y-8426286D01*
X30841905Y-7664381D02*
X30841905Y-8121524D01*
X30841905Y-7892953D02*
X30041905Y-7892953D01*
X30156190Y-7969143D01*
X30232381Y-8045334D01*
X30270476Y-8121524D01*
X30384762Y-7207238D02*
X30346667Y-7283429D01*
X30308571Y-7321524D01*
X30232381Y-7359619D01*
X30194286Y-7359619D01*
X30118095Y-7321524D01*
X30080000Y-7283429D01*
X30041905Y-7207238D01*
X30041905Y-7054857D01*
X30080000Y-6978667D01*
X30118095Y-6940571D01*
X30194286Y-6902476D01*
X30232381Y-6902476D01*
X30308571Y-6940571D01*
X30346667Y-6978667D01*
X30384762Y-7054857D01*
X30384762Y-7207238D01*
X30422857Y-7283429D01*
X30460952Y-7321524D01*
X30537143Y-7359619D01*
X30689524Y-7359619D01*
X30765714Y-7321524D01*
X30803810Y-7283429D01*
X30841905Y-7207238D01*
X30841905Y-7054857D01*
X30803810Y-6978667D01*
X30765714Y-6940571D01*
X30689524Y-6902476D01*
X30537143Y-6902476D01*
X30460952Y-6940571D01*
X30422857Y-6978667D01*
X30384762Y-7054857D01*
D12*
X22233286Y-29820381D02*
X22899953Y-29820381D01*
X22471381Y-30820381D01*
X23709477Y-30153714D02*
X23709477Y-30820381D01*
X23471381Y-29772762D02*
X23233286Y-30487048D01*
X23852334Y-30487048D01*
X24233286Y-30820381D02*
X24233286Y-29820381D01*
X24233286Y-30296571D02*
X24804715Y-30296571D01*
X24804715Y-30820381D02*
X24804715Y-29820381D01*
X25852334Y-30725143D02*
X25804715Y-30772762D01*
X25661858Y-30820381D01*
X25566620Y-30820381D01*
X25423762Y-30772762D01*
X25328524Y-30677524D01*
X25280905Y-30582286D01*
X25233286Y-30391810D01*
X25233286Y-30248952D01*
X25280905Y-30058476D01*
X25328524Y-29963238D01*
X25423762Y-29868000D01*
X25566620Y-29820381D01*
X25661858Y-29820381D01*
X25804715Y-29868000D01*
X25852334Y-29915619D01*
X26804715Y-30820381D02*
X26233286Y-30820381D01*
X26519000Y-30820381D02*
X26519000Y-29820381D01*
X26423762Y-29963238D01*
X26328524Y-30058476D01*
X26233286Y-30106095D01*
X27661858Y-30153714D02*
X27661858Y-30820381D01*
X27423762Y-29772762D02*
X27185667Y-30487048D01*
X27804715Y-30487048D01*
X22606095Y-11936381D02*
X22606095Y-12745905D01*
X22653714Y-12841143D01*
X22701333Y-12888762D01*
X22796571Y-12936381D01*
X22987048Y-12936381D01*
X23082286Y-12888762D01*
X23129905Y-12841143D01*
X23177524Y-12745905D01*
X23177524Y-11936381D01*
X24082286Y-12269714D02*
X24082286Y-12936381D01*
X23844190Y-11888762D02*
X23606095Y-12603048D01*
X24225143Y-12603048D01*
X21582333Y-5336381D02*
X22249000Y-5336381D01*
X21820428Y-6336381D01*
X22772809Y-5764952D02*
X22677571Y-5717333D01*
X22629952Y-5669714D01*
X22582333Y-5574476D01*
X22582333Y-5526857D01*
X22629952Y-5431619D01*
X22677571Y-5384000D01*
X22772809Y-5336381D01*
X22963286Y-5336381D01*
X23058524Y-5384000D01*
X23106143Y-5431619D01*
X23153762Y-5526857D01*
X23153762Y-5574476D01*
X23106143Y-5669714D01*
X23058524Y-5717333D01*
X22963286Y-5764952D01*
X22772809Y-5764952D01*
X22677571Y-5812571D01*
X22629952Y-5860190D01*
X22582333Y-5955429D01*
X22582333Y-6145905D01*
X22629952Y-6241143D01*
X22677571Y-6288762D01*
X22772809Y-6336381D01*
X22963286Y-6336381D01*
X23058524Y-6288762D01*
X23106143Y-6241143D01*
X23153762Y-6145905D01*
X23153762Y-5955429D01*
X23106143Y-5860190D01*
X23058524Y-5812571D01*
X22963286Y-5764952D01*
X24058524Y-6336381D02*
X23582333Y-6336381D01*
X23582333Y-5336381D01*
X24582333Y-5336381D02*
X24677572Y-5336381D01*
X24772810Y-5384000D01*
X24820429Y-5431619D01*
X24868048Y-5526857D01*
X24915667Y-5717333D01*
X24915667Y-5955429D01*
X24868048Y-6145905D01*
X24820429Y-6241143D01*
X24772810Y-6288762D01*
X24677572Y-6336381D01*
X24582333Y-6336381D01*
X24487095Y-6288762D01*
X24439476Y-6241143D01*
X24391857Y-6145905D01*
X24344238Y-5955429D01*
X24344238Y-5717333D01*
X24391857Y-5526857D01*
X24439476Y-5431619D01*
X24487095Y-5384000D01*
X24582333Y-5336381D01*
X25820429Y-5336381D02*
X25344238Y-5336381D01*
X25296619Y-5812571D01*
X25344238Y-5764952D01*
X25439476Y-5717333D01*
X25677572Y-5717333D01*
X25772810Y-5764952D01*
X25820429Y-5812571D01*
X25868048Y-5907810D01*
X25868048Y-6145905D01*
X25820429Y-6241143D01*
X25772810Y-6288762D01*
X25677572Y-6336381D01*
X25439476Y-6336381D01*
X25344238Y-6288762D01*
X25296619Y-6241143D01*
X22860095Y-9396381D02*
X22860095Y-10205905D01*
X22907714Y-10301143D01*
X22955333Y-10348762D01*
X23050571Y-10396381D01*
X23241048Y-10396381D01*
X23336286Y-10348762D01*
X23383905Y-10301143D01*
X23431524Y-10205905D01*
X23431524Y-9396381D01*
X23860095Y-9491619D02*
X23907714Y-9444000D01*
X24002952Y-9396381D01*
X24241048Y-9396381D01*
X24336286Y-9444000D01*
X24383905Y-9491619D01*
X24431524Y-9586857D01*
X24431524Y-9682095D01*
X24383905Y-9824952D01*
X23812476Y-10396381D01*
X24431524Y-10396381D01*
X34871571Y-43479571D02*
X34919190Y-43336714D01*
X34966810Y-43289095D01*
X35062048Y-43241476D01*
X35204905Y-43241476D01*
X35300143Y-43289095D01*
X35347762Y-43336714D01*
X35395381Y-43431952D01*
X35395381Y-43812905D01*
X34395381Y-43812905D01*
X34395381Y-43479571D01*
X34443000Y-43384333D01*
X34490619Y-43336714D01*
X34585857Y-43289095D01*
X34681095Y-43289095D01*
X34776333Y-43336714D01*
X34823952Y-43384333D01*
X34871571Y-43479571D01*
X34871571Y-43812905D01*
X35300143Y-42241476D02*
X35347762Y-42289095D01*
X35395381Y-42431952D01*
X35395381Y-42527190D01*
X35347762Y-42670048D01*
X35252524Y-42765286D01*
X35157286Y-42812905D01*
X34966810Y-42860524D01*
X34823952Y-42860524D01*
X34633476Y-42812905D01*
X34538238Y-42765286D01*
X34443000Y-42670048D01*
X34395381Y-42527190D01*
X34395381Y-42431952D01*
X34443000Y-42289095D01*
X34490619Y-42241476D01*
X34823952Y-41670048D02*
X34776333Y-41765286D01*
X34728714Y-41812905D01*
X34633476Y-41860524D01*
X34585857Y-41860524D01*
X34490619Y-41812905D01*
X34443000Y-41765286D01*
X34395381Y-41670048D01*
X34395381Y-41479571D01*
X34443000Y-41384333D01*
X34490619Y-41336714D01*
X34585857Y-41289095D01*
X34633476Y-41289095D01*
X34728714Y-41336714D01*
X34776333Y-41384333D01*
X34823952Y-41479571D01*
X34823952Y-41670048D01*
X34871571Y-41765286D01*
X34919190Y-41812905D01*
X35014429Y-41860524D01*
X35204905Y-41860524D01*
X35300143Y-41812905D01*
X35347762Y-41765286D01*
X35395381Y-41670048D01*
X35395381Y-41479571D01*
X35347762Y-41384333D01*
X35300143Y-41336714D01*
X35204905Y-41289095D01*
X35014429Y-41289095D01*
X34919190Y-41336714D01*
X34871571Y-41384333D01*
X34823952Y-41479571D01*
X34728714Y-40431952D02*
X35395381Y-40431952D01*
X34347762Y-40670048D02*
X35062048Y-40908143D01*
X35062048Y-40289095D01*
X34395381Y-40003381D02*
X34395381Y-39336714D01*
X35395381Y-39765286D01*
X35300143Y-38384333D02*
X35347762Y-38431952D01*
X35395381Y-38574809D01*
X35395381Y-38670047D01*
X35347762Y-38812905D01*
X35252524Y-38908143D01*
X35157286Y-38955762D01*
X34966810Y-39003381D01*
X34823952Y-39003381D01*
X34633476Y-38955762D01*
X34538238Y-38908143D01*
X34443000Y-38812905D01*
X34395381Y-38670047D01*
X34395381Y-38574809D01*
X34443000Y-38431952D01*
X34490619Y-38384333D01*
X34395381Y-38051000D02*
X35395381Y-37812905D01*
X34681095Y-37622428D01*
X35395381Y-37431952D01*
X34395381Y-37193857D01*
D13*
X32845381Y-40824810D02*
X32797762Y-40801000D01*
X32750143Y-40753381D01*
X32678714Y-40681952D01*
X32631095Y-40658143D01*
X32583476Y-40658143D01*
X32607286Y-40777190D02*
X32559667Y-40753381D01*
X32512048Y-40705762D01*
X32488238Y-40610524D01*
X32488238Y-40443857D01*
X32512048Y-40348619D01*
X32559667Y-40301000D01*
X32607286Y-40277190D01*
X32702524Y-40277190D01*
X32750143Y-40301000D01*
X32797762Y-40348619D01*
X32821571Y-40443857D01*
X32821571Y-40610524D01*
X32797762Y-40705762D01*
X32750143Y-40753381D01*
X32702524Y-40777190D01*
X32607286Y-40777190D01*
X33059667Y-40777190D02*
X33154905Y-40777190D01*
X33202524Y-40753381D01*
X33226334Y-40729571D01*
X33273953Y-40658143D01*
X33297762Y-40562905D01*
X33297762Y-40372429D01*
X33273953Y-40324810D01*
X33250143Y-40301000D01*
X33202524Y-40277190D01*
X33107286Y-40277190D01*
X33059667Y-40301000D01*
X33035858Y-40324810D01*
X33012048Y-40372429D01*
X33012048Y-40491476D01*
X33035858Y-40539095D01*
X33059667Y-40562905D01*
X33107286Y-40586714D01*
X33202524Y-40586714D01*
X33250143Y-40562905D01*
X33273953Y-40539095D01*
X33297762Y-40491476D01*
D12*
X29001381Y-41908238D02*
X29001381Y-42479667D01*
X29001381Y-42193953D02*
X28001381Y-42193953D01*
X28144238Y-42289191D01*
X28239476Y-42384429D01*
X28287095Y-42479667D01*
X28001381Y-41289191D02*
X28001381Y-41193952D01*
X28049000Y-41098714D01*
X28096619Y-41051095D01*
X28191857Y-41003476D01*
X28382333Y-40955857D01*
X28620429Y-40955857D01*
X28810905Y-41003476D01*
X28906143Y-41051095D01*
X28953762Y-41098714D01*
X29001381Y-41193952D01*
X29001381Y-41289191D01*
X28953762Y-41384429D01*
X28906143Y-41432048D01*
X28810905Y-41479667D01*
X28620429Y-41527286D01*
X28382333Y-41527286D01*
X28191857Y-41479667D01*
X28096619Y-41432048D01*
X28049000Y-41384429D01*
X28001381Y-41289191D01*
X29001381Y-40527286D02*
X28001381Y-40527286D01*
X28620429Y-40432048D02*
X29001381Y-40146333D01*
X28334714Y-40146333D02*
X28715667Y-40527286D01*
D13*
X30279952Y-41570142D02*
X30089476Y-41703476D01*
X30279952Y-41798714D02*
X29879952Y-41798714D01*
X29879952Y-41646333D01*
X29899000Y-41608238D01*
X29918048Y-41589190D01*
X29956143Y-41570142D01*
X30013286Y-41570142D01*
X30051381Y-41589190D01*
X30070429Y-41608238D01*
X30089476Y-41646333D01*
X30089476Y-41798714D01*
X29879952Y-41436809D02*
X29879952Y-41189190D01*
X30032333Y-41322523D01*
X30032333Y-41265381D01*
X30051381Y-41227285D01*
X30070429Y-41208238D01*
X30108524Y-41189190D01*
X30203762Y-41189190D01*
X30241857Y-41208238D01*
X30260905Y-41227285D01*
X30279952Y-41265381D01*
X30279952Y-41379666D01*
X30260905Y-41417762D01*
X30241857Y-41436809D01*
X30013286Y-40846333D02*
X30279952Y-40846333D01*
X29860905Y-40941571D02*
X30146619Y-41036810D01*
X30146619Y-40789190D01*
D12*
X39505809Y-9046381D02*
X39505809Y-8046381D01*
X39839143Y-8760667D01*
X40172476Y-8046381D01*
X40172476Y-9046381D01*
X40791523Y-9046381D02*
X40696285Y-8998762D01*
X40648666Y-8951143D01*
X40601047Y-8855905D01*
X40601047Y-8570190D01*
X40648666Y-8474952D01*
X40696285Y-8427333D01*
X40791523Y-8379714D01*
X40934381Y-8379714D01*
X41029619Y-8427333D01*
X41077238Y-8474952D01*
X41124857Y-8570190D01*
X41124857Y-8855905D01*
X41077238Y-8951143D01*
X41029619Y-8998762D01*
X40934381Y-9046381D01*
X40791523Y-9046381D01*
X41982000Y-8379714D02*
X41982000Y-9046381D01*
X41553428Y-8379714D02*
X41553428Y-8903524D01*
X41601047Y-8998762D01*
X41696285Y-9046381D01*
X41839143Y-9046381D01*
X41934381Y-8998762D01*
X41982000Y-8951143D01*
X42458190Y-8379714D02*
X42458190Y-9046381D01*
X42458190Y-8474952D02*
X42505809Y-8427333D01*
X42601047Y-8379714D01*
X42743905Y-8379714D01*
X42839143Y-8427333D01*
X42886762Y-8522571D01*
X42886762Y-9046381D01*
X43220095Y-8379714D02*
X43601047Y-8379714D01*
X43362952Y-8046381D02*
X43362952Y-8903524D01*
X43410571Y-8998762D01*
X43505809Y-9046381D01*
X43601047Y-9046381D01*
X43934381Y-9046381D02*
X43934381Y-8379714D01*
X43934381Y-8046381D02*
X43886762Y-8094000D01*
X43934381Y-8141619D01*
X43982000Y-8094000D01*
X43934381Y-8046381D01*
X43934381Y-8141619D01*
X44410571Y-8379714D02*
X44410571Y-9046381D01*
X44410571Y-8474952D02*
X44458190Y-8427333D01*
X44553428Y-8379714D01*
X44696286Y-8379714D01*
X44791524Y-8427333D01*
X44839143Y-8522571D01*
X44839143Y-9046381D01*
X45743905Y-8379714D02*
X45743905Y-9189238D01*
X45696286Y-9284476D01*
X45648667Y-9332095D01*
X45553428Y-9379714D01*
X45410571Y-9379714D01*
X45315333Y-9332095D01*
X45743905Y-8998762D02*
X45648667Y-9046381D01*
X45458190Y-9046381D01*
X45362952Y-8998762D01*
X45315333Y-8951143D01*
X45267714Y-8855905D01*
X45267714Y-8570190D01*
X45315333Y-8474952D01*
X45362952Y-8427333D01*
X45458190Y-8379714D01*
X45648667Y-8379714D01*
X45743905Y-8427333D01*
X46220095Y-9046381D02*
X46220095Y-8046381D01*
X46220095Y-8522571D02*
X46791524Y-8522571D01*
X46791524Y-9046381D02*
X46791524Y-8046381D01*
X47410571Y-9046381D02*
X47315333Y-8998762D01*
X47267714Y-8951143D01*
X47220095Y-8855905D01*
X47220095Y-8570190D01*
X47267714Y-8474952D01*
X47315333Y-8427333D01*
X47410571Y-8379714D01*
X47553429Y-8379714D01*
X47648667Y-8427333D01*
X47696286Y-8474952D01*
X47743905Y-8570190D01*
X47743905Y-8855905D01*
X47696286Y-8951143D01*
X47648667Y-8998762D01*
X47553429Y-9046381D01*
X47410571Y-9046381D01*
X48315333Y-9046381D02*
X48220095Y-8998762D01*
X48172476Y-8903524D01*
X48172476Y-8046381D01*
X49077239Y-8998762D02*
X48982001Y-9046381D01*
X48791524Y-9046381D01*
X48696286Y-8998762D01*
X48648667Y-8903524D01*
X48648667Y-8522571D01*
X48696286Y-8427333D01*
X48791524Y-8379714D01*
X48982001Y-8379714D01*
X49077239Y-8427333D01*
X49124858Y-8522571D01*
X49124858Y-8617810D01*
X48648667Y-8713048D01*
X49315334Y-9141619D02*
X50077239Y-9141619D01*
X50743906Y-8379714D02*
X50743906Y-9046381D01*
X50505810Y-7998762D02*
X50267715Y-8713048D01*
X50886763Y-8713048D01*
X51267715Y-9046381D02*
X51267715Y-8379714D01*
X51267715Y-8474952D02*
X51315334Y-8427333D01*
X51410572Y-8379714D01*
X51553430Y-8379714D01*
X51648668Y-8427333D01*
X51696287Y-8522571D01*
X51696287Y-9046381D01*
X51696287Y-8522571D02*
X51743906Y-8427333D01*
X51839144Y-8379714D01*
X51982001Y-8379714D01*
X52077239Y-8427333D01*
X52124858Y-8522571D01*
X52124858Y-9046381D01*
X52601048Y-9046381D02*
X52601048Y-8379714D01*
X52601048Y-8474952D02*
X52648667Y-8427333D01*
X52743905Y-8379714D01*
X52886763Y-8379714D01*
X52982001Y-8427333D01*
X53029620Y-8522571D01*
X53029620Y-9046381D01*
X53029620Y-8522571D02*
X53077239Y-8427333D01*
X53172477Y-8379714D01*
X53315334Y-8379714D01*
X53410572Y-8427333D01*
X53458191Y-8522571D01*
X53458191Y-9046381D01*
M02*
