G04 #@! TF.FileFunction,Other,Fab,Bot*
%FSLAX46Y46*%
G04 Gerber Fmt 4.6, Leading zero omitted, Abs format (unit mm)*
G04 Created by KiCad (PCBNEW 4.0.6) date 07/25/17 18:54:20*
%MOMM*%
%LPD*%
G01*
G04 APERTURE LIST*
%ADD10C,0.100000*%
%ADD11C,0.150000*%
%ADD12C,0.075000*%
G04 APERTURE END LIST*
D10*
X26759000Y-29991000D02*
X26759000Y-30791000D01*
X28359000Y-29991000D02*
X26759000Y-29991000D01*
X28359000Y-30791000D02*
X28359000Y-29991000D01*
X26759000Y-30791000D02*
X28359000Y-30791000D01*
D11*
X28201857Y-29343381D02*
X28773286Y-29343381D01*
X28487572Y-29343381D02*
X28487572Y-28343381D01*
X28582810Y-28486238D01*
X28678048Y-28581476D01*
X28773286Y-28629095D01*
X27582810Y-28343381D02*
X27487571Y-28343381D01*
X27392333Y-28391000D01*
X27344714Y-28438619D01*
X27297095Y-28533857D01*
X27249476Y-28724333D01*
X27249476Y-28962429D01*
X27297095Y-29152905D01*
X27344714Y-29248143D01*
X27392333Y-29295762D01*
X27487571Y-29343381D01*
X27582810Y-29343381D01*
X27678048Y-29295762D01*
X27725667Y-29248143D01*
X27773286Y-29152905D01*
X27820905Y-28962429D01*
X27820905Y-28724333D01*
X27773286Y-28533857D01*
X27725667Y-28438619D01*
X27678048Y-28391000D01*
X27582810Y-28343381D01*
X26820905Y-28676714D02*
X26820905Y-29343381D01*
X26820905Y-28771952D02*
X26773286Y-28724333D01*
X26678048Y-28676714D01*
X26535190Y-28676714D01*
X26439952Y-28724333D01*
X26392333Y-28819571D01*
X26392333Y-29343381D01*
D12*
X27625666Y-30533857D02*
X27644714Y-30552905D01*
X27701857Y-30571952D01*
X27739952Y-30571952D01*
X27797095Y-30552905D01*
X27835190Y-30514810D01*
X27854238Y-30476714D01*
X27873286Y-30400524D01*
X27873286Y-30343381D01*
X27854238Y-30267190D01*
X27835190Y-30229095D01*
X27797095Y-30191000D01*
X27739952Y-30171952D01*
X27701857Y-30171952D01*
X27644714Y-30191000D01*
X27625666Y-30210048D01*
X27244714Y-30571952D02*
X27473286Y-30571952D01*
X27359000Y-30571952D02*
X27359000Y-30171952D01*
X27397095Y-30229095D01*
X27435190Y-30267190D01*
X27473286Y-30286238D01*
M02*
