G04 #@! TF.FileFunction,Legend,Bot*
%FSLAX46Y46*%
G04 Gerber Fmt 4.6, Leading zero omitted, Abs format (unit mm)*
G04 Created by KiCad (PCBNEW 4.0.6) date 07/25/17 18:54:20*
%MOMM*%
%LPD*%
G01*
G04 APERTURE LIST*
%ADD10C,0.100000*%
%ADD11C,0.200000*%
%ADD12C,0.300000*%
%ADD13C,0.120000*%
%ADD14C,0.150000*%
G04 APERTURE END LIST*
D10*
D11*
X48190476Y-48952381D02*
X48523810Y-48476190D01*
X48761905Y-48952381D02*
X48761905Y-47952381D01*
X48380952Y-47952381D01*
X48285714Y-48000000D01*
X48238095Y-48047619D01*
X48190476Y-48142857D01*
X48190476Y-48285714D01*
X48238095Y-48380952D01*
X48285714Y-48428571D01*
X48380952Y-48476190D01*
X48761905Y-48476190D01*
X47857143Y-48285714D02*
X47619048Y-48952381D01*
X47380952Y-48285714D02*
X47619048Y-48952381D01*
X47714286Y-49190476D01*
X47761905Y-49238095D01*
X47857143Y-49285714D01*
X46571428Y-48952381D02*
X46571428Y-48428571D01*
X46619047Y-48333333D01*
X46714285Y-48285714D01*
X46904762Y-48285714D01*
X47000000Y-48333333D01*
X46571428Y-48904762D02*
X46666666Y-48952381D01*
X46904762Y-48952381D01*
X47000000Y-48904762D01*
X47047619Y-48809524D01*
X47047619Y-48714286D01*
X47000000Y-48619048D01*
X46904762Y-48571429D01*
X46666666Y-48571429D01*
X46571428Y-48523810D01*
X46095238Y-48285714D02*
X46095238Y-48952381D01*
X46095238Y-48380952D02*
X46047619Y-48333333D01*
X45952381Y-48285714D01*
X45809523Y-48285714D01*
X45714285Y-48333333D01*
X45666666Y-48428571D01*
X45666666Y-48952381D01*
X44142856Y-47952381D02*
X44142856Y-48666667D01*
X44190476Y-48809524D01*
X44285714Y-48904762D01*
X44428571Y-48952381D01*
X44523809Y-48952381D01*
X43285713Y-48904762D02*
X43380951Y-48952381D01*
X43571428Y-48952381D01*
X43666666Y-48904762D01*
X43714285Y-48809524D01*
X43714285Y-48428571D01*
X43666666Y-48333333D01*
X43571428Y-48285714D01*
X43380951Y-48285714D01*
X43285713Y-48333333D01*
X43238094Y-48428571D01*
X43238094Y-48523810D01*
X43714285Y-48619048D01*
X42809523Y-48285714D02*
X42809523Y-48952381D01*
X42809523Y-48380952D02*
X42761904Y-48333333D01*
X42666666Y-48285714D01*
X42523808Y-48285714D01*
X42428570Y-48333333D01*
X42380951Y-48428571D01*
X42380951Y-48952381D01*
X41952380Y-48904762D02*
X41857142Y-48952381D01*
X41666666Y-48952381D01*
X41571427Y-48904762D01*
X41523808Y-48809524D01*
X41523808Y-48761905D01*
X41571427Y-48666667D01*
X41666666Y-48619048D01*
X41809523Y-48619048D01*
X41904761Y-48571429D01*
X41952380Y-48476190D01*
X41952380Y-48428571D01*
X41904761Y-48333333D01*
X41809523Y-48285714D01*
X41666666Y-48285714D01*
X41571427Y-48333333D01*
X40714284Y-48904762D02*
X40809522Y-48952381D01*
X40999999Y-48952381D01*
X41095237Y-48904762D01*
X41142856Y-48809524D01*
X41142856Y-48428571D01*
X41095237Y-48333333D01*
X40999999Y-48285714D01*
X40809522Y-48285714D01*
X40714284Y-48333333D01*
X40666665Y-48428571D01*
X40666665Y-48523810D01*
X41142856Y-48619048D01*
X40238094Y-48285714D02*
X40238094Y-48952381D01*
X40238094Y-48380952D02*
X40190475Y-48333333D01*
X40095237Y-48285714D01*
X39952379Y-48285714D01*
X39857141Y-48333333D01*
X39809522Y-48428571D01*
X39809522Y-48952381D01*
X36333331Y-48047619D02*
X36285712Y-48000000D01*
X36190474Y-47952381D01*
X35952378Y-47952381D01*
X35857140Y-48000000D01*
X35809521Y-48047619D01*
X35761902Y-48142857D01*
X35761902Y-48238095D01*
X35809521Y-48380952D01*
X36380950Y-48952381D01*
X35761902Y-48952381D01*
X35142855Y-47952381D02*
X35047616Y-47952381D01*
X34952378Y-48000000D01*
X34904759Y-48047619D01*
X34857140Y-48142857D01*
X34809521Y-48333333D01*
X34809521Y-48571429D01*
X34857140Y-48761905D01*
X34904759Y-48857143D01*
X34952378Y-48904762D01*
X35047616Y-48952381D01*
X35142855Y-48952381D01*
X35238093Y-48904762D01*
X35285712Y-48857143D01*
X35333331Y-48761905D01*
X35380950Y-48571429D01*
X35380950Y-48333333D01*
X35333331Y-48142857D01*
X35285712Y-48047619D01*
X35238093Y-48000000D01*
X35142855Y-47952381D01*
X33857140Y-48952381D02*
X34428569Y-48952381D01*
X34142855Y-48952381D02*
X34142855Y-47952381D01*
X34238093Y-48095238D01*
X34333331Y-48190476D01*
X34428569Y-48238095D01*
X33523807Y-47952381D02*
X32857140Y-47952381D01*
X33285712Y-48952381D01*
X31428568Y-47952381D02*
X31428568Y-48666667D01*
X31476188Y-48809524D01*
X31571426Y-48904762D01*
X31714283Y-48952381D01*
X31809521Y-48952381D01*
X30523806Y-48285714D02*
X30523806Y-48952381D01*
X30952378Y-48285714D02*
X30952378Y-48809524D01*
X30904759Y-48904762D01*
X30809521Y-48952381D01*
X30666663Y-48952381D01*
X30571425Y-48904762D01*
X30523806Y-48857143D01*
X29904759Y-48952381D02*
X29999997Y-48904762D01*
X30047616Y-48809524D01*
X30047616Y-47952381D01*
X29619044Y-48285714D02*
X29380949Y-48952381D01*
X29142853Y-48285714D02*
X29380949Y-48952381D01*
X29476187Y-49190476D01*
X29523806Y-49238095D01*
X29619044Y-49285714D01*
D12*
X43928571Y-6128571D02*
X42928571Y-7628571D01*
X42928571Y-6128571D02*
X43928571Y-7628571D01*
X42357143Y-7628571D02*
X42357143Y-6128571D01*
X41785715Y-6128571D01*
X41642857Y-6200000D01*
X41571429Y-6271429D01*
X41500000Y-6414286D01*
X41500000Y-6628571D01*
X41571429Y-6771429D01*
X41642857Y-6842857D01*
X41785715Y-6914286D01*
X42357143Y-6914286D01*
X40857143Y-7628571D02*
X40857143Y-6128571D01*
X40214286Y-7628571D02*
X40214286Y-6842857D01*
X40285715Y-6700000D01*
X40428572Y-6628571D01*
X40642857Y-6628571D01*
X40785715Y-6700000D01*
X40857143Y-6771429D01*
X39285714Y-7628571D02*
X39428572Y-7557143D01*
X39500000Y-7485714D01*
X39571429Y-7342857D01*
X39571429Y-6914286D01*
X39500000Y-6771429D01*
X39428572Y-6700000D01*
X39285714Y-6628571D01*
X39071429Y-6628571D01*
X38928572Y-6700000D01*
X38857143Y-6771429D01*
X38785714Y-6914286D01*
X38785714Y-7342857D01*
X38857143Y-7485714D01*
X38928572Y-7557143D01*
X39071429Y-7628571D01*
X39285714Y-7628571D01*
X38142857Y-6628571D02*
X38142857Y-7628571D01*
X38142857Y-6771429D02*
X38071429Y-6700000D01*
X37928571Y-6628571D01*
X37714286Y-6628571D01*
X37571429Y-6700000D01*
X37500000Y-6842857D01*
X37500000Y-7628571D01*
X36214286Y-7557143D02*
X36357143Y-7628571D01*
X36642857Y-7628571D01*
X36785714Y-7557143D01*
X36857143Y-7414286D01*
X36857143Y-6842857D01*
X36785714Y-6700000D01*
X36642857Y-6628571D01*
X36357143Y-6628571D01*
X36214286Y-6700000D01*
X36142857Y-6842857D01*
X36142857Y-6985714D01*
X36857143Y-7128571D01*
X42464286Y-10178571D02*
X42464286Y-8678571D01*
X41750000Y-9178571D02*
X41750000Y-10178571D01*
X41750000Y-9321429D02*
X41678572Y-9250000D01*
X41535714Y-9178571D01*
X41321429Y-9178571D01*
X41178572Y-9250000D01*
X41107143Y-9392857D01*
X41107143Y-10178571D01*
X40392857Y-9178571D02*
X40392857Y-10678571D01*
X40392857Y-9250000D02*
X40250000Y-9178571D01*
X39964286Y-9178571D01*
X39821429Y-9250000D01*
X39750000Y-9321429D01*
X39678571Y-9464286D01*
X39678571Y-9892857D01*
X39750000Y-10035714D01*
X39821429Y-10107143D01*
X39964286Y-10178571D01*
X40250000Y-10178571D01*
X40392857Y-10107143D01*
X38392857Y-9178571D02*
X38392857Y-10178571D01*
X39035714Y-9178571D02*
X39035714Y-9964286D01*
X38964286Y-10107143D01*
X38821428Y-10178571D01*
X38607143Y-10178571D01*
X38464286Y-10107143D01*
X38392857Y-10035714D01*
X37892857Y-9178571D02*
X37321428Y-9178571D01*
X37678571Y-8678571D02*
X37678571Y-9964286D01*
X37607143Y-10107143D01*
X37464285Y-10178571D01*
X37321428Y-10178571D01*
X42392857Y-11942857D02*
X42178571Y-12014286D01*
X42107143Y-12085714D01*
X42035714Y-12228571D01*
X42035714Y-12442857D01*
X42107143Y-12585714D01*
X42178571Y-12657143D01*
X42321429Y-12728571D01*
X42892857Y-12728571D01*
X42892857Y-11228571D01*
X42392857Y-11228571D01*
X42250000Y-11300000D01*
X42178571Y-11371429D01*
X42107143Y-11514286D01*
X42107143Y-11657143D01*
X42178571Y-11800000D01*
X42250000Y-11871429D01*
X42392857Y-11942857D01*
X42892857Y-11942857D01*
X41178571Y-12728571D02*
X41321429Y-12657143D01*
X41392857Y-12585714D01*
X41464286Y-12442857D01*
X41464286Y-12014286D01*
X41392857Y-11871429D01*
X41321429Y-11800000D01*
X41178571Y-11728571D01*
X40964286Y-11728571D01*
X40821429Y-11800000D01*
X40750000Y-11871429D01*
X40678571Y-12014286D01*
X40678571Y-12442857D01*
X40750000Y-12585714D01*
X40821429Y-12657143D01*
X40964286Y-12728571D01*
X41178571Y-12728571D01*
X39392857Y-12728571D02*
X39392857Y-11942857D01*
X39464286Y-11800000D01*
X39607143Y-11728571D01*
X39892857Y-11728571D01*
X40035714Y-11800000D01*
X39392857Y-12657143D02*
X39535714Y-12728571D01*
X39892857Y-12728571D01*
X40035714Y-12657143D01*
X40107143Y-12514286D01*
X40107143Y-12371429D01*
X40035714Y-12228571D01*
X39892857Y-12157143D01*
X39535714Y-12157143D01*
X39392857Y-12085714D01*
X38678571Y-12728571D02*
X38678571Y-11728571D01*
X38678571Y-12014286D02*
X38607143Y-11871429D01*
X38535714Y-11800000D01*
X38392857Y-11728571D01*
X38250000Y-11728571D01*
X37107143Y-12728571D02*
X37107143Y-11228571D01*
X37107143Y-12657143D02*
X37250000Y-12728571D01*
X37535714Y-12728571D01*
X37678572Y-12657143D01*
X37750000Y-12585714D01*
X37821429Y-12442857D01*
X37821429Y-12014286D01*
X37750000Y-11871429D01*
X37678572Y-11800000D01*
X37535714Y-11728571D01*
X37250000Y-11728571D01*
X37107143Y-11800000D01*
D11*
X0Y-50000000D02*
X100000000Y-50000000D01*
X50000000Y0D02*
X50000000Y-100000000D01*
D13*
X27209000Y-30991000D02*
X27909000Y-30991000D01*
X27909000Y-29791000D02*
X27209000Y-29791000D01*
D14*
X27725666Y-31998143D02*
X27773285Y-32045762D01*
X27916142Y-32093381D01*
X28011380Y-32093381D01*
X28154238Y-32045762D01*
X28249476Y-31950524D01*
X28297095Y-31855286D01*
X28344714Y-31664810D01*
X28344714Y-31521952D01*
X28297095Y-31331476D01*
X28249476Y-31236238D01*
X28154238Y-31141000D01*
X28011380Y-31093381D01*
X27916142Y-31093381D01*
X27773285Y-31141000D01*
X27725666Y-31188619D01*
X26773285Y-32093381D02*
X27344714Y-32093381D01*
X27059000Y-32093381D02*
X27059000Y-31093381D01*
X27154238Y-31236238D01*
X27249476Y-31331476D01*
X27344714Y-31379095D01*
M02*
