G04 #@! TF.FileFunction,Legend,Top*
%FSLAX46Y46*%
G04 Gerber Fmt 4.6, Leading zero omitted, Abs format (unit mm)*
G04 Created by KiCad (PCBNEW 4.0.6) date 07/25/17 18:54:20*
%MOMM*%
%LPD*%
G01*
G04 APERTURE LIST*
%ADD10C,0.100000*%
%ADD11C,0.200000*%
%ADD12C,0.300000*%
%ADD13C,0.400000*%
%ADD14C,0.125000*%
%ADD15C,0.120000*%
%ADD16C,0.150000*%
G04 APERTURE END LIST*
D10*
D11*
X0Y-50000000D02*
X100000000Y-50000000D01*
X50000000Y0D02*
X50000000Y-100000000D01*
D12*
X13747714Y-43722000D02*
X14462000Y-43722000D01*
X13604857Y-44150571D02*
X14104857Y-42650571D01*
X14604857Y-44150571D01*
X15747714Y-43150571D02*
X15747714Y-44150571D01*
X15104857Y-43150571D02*
X15104857Y-43936286D01*
X15176285Y-44079143D01*
X15319143Y-44150571D01*
X15533428Y-44150571D01*
X15676285Y-44079143D01*
X15747714Y-44007714D01*
X17104857Y-44150571D02*
X17104857Y-42650571D01*
X17104857Y-44079143D02*
X16962000Y-44150571D01*
X16676286Y-44150571D01*
X16533428Y-44079143D01*
X16462000Y-44007714D01*
X16390571Y-43864857D01*
X16390571Y-43436286D01*
X16462000Y-43293429D01*
X16533428Y-43222000D01*
X16676286Y-43150571D01*
X16962000Y-43150571D01*
X17104857Y-43222000D01*
X17819143Y-44150571D02*
X17819143Y-43150571D01*
X17819143Y-42650571D02*
X17747714Y-42722000D01*
X17819143Y-42793429D01*
X17890571Y-42722000D01*
X17819143Y-42650571D01*
X17819143Y-42793429D01*
X18747715Y-44150571D02*
X18604857Y-44079143D01*
X18533429Y-44007714D01*
X18462000Y-43864857D01*
X18462000Y-43436286D01*
X18533429Y-43293429D01*
X18604857Y-43222000D01*
X18747715Y-43150571D01*
X18962000Y-43150571D01*
X19104857Y-43222000D01*
X19176286Y-43293429D01*
X19247715Y-43436286D01*
X19247715Y-43864857D01*
X19176286Y-44007714D01*
X19104857Y-44079143D01*
X18962000Y-44150571D01*
X18747715Y-44150571D01*
X21319143Y-42650571D02*
X21604857Y-42650571D01*
X21747715Y-42722000D01*
X21890572Y-42864857D01*
X21962000Y-43150571D01*
X21962000Y-43650571D01*
X21890572Y-43936286D01*
X21747715Y-44079143D01*
X21604857Y-44150571D01*
X21319143Y-44150571D01*
X21176286Y-44079143D01*
X21033429Y-43936286D01*
X20962000Y-43650571D01*
X20962000Y-43150571D01*
X21033429Y-42864857D01*
X21176286Y-42722000D01*
X21319143Y-42650571D01*
X23247715Y-43150571D02*
X23247715Y-44150571D01*
X22604858Y-43150571D02*
X22604858Y-43936286D01*
X22676286Y-44079143D01*
X22819144Y-44150571D01*
X23033429Y-44150571D01*
X23176286Y-44079143D01*
X23247715Y-44007714D01*
X23747715Y-43150571D02*
X24319144Y-43150571D01*
X23962001Y-42650571D02*
X23962001Y-43936286D01*
X24033429Y-44079143D01*
X24176287Y-44150571D01*
X24319144Y-44150571D01*
X865143Y-43364857D02*
X1365143Y-43364857D01*
X1579429Y-44150571D02*
X865143Y-44150571D01*
X865143Y-42650571D01*
X1579429Y-42650571D01*
X2222286Y-43150571D02*
X2222286Y-44150571D01*
X2222286Y-43293429D02*
X2293714Y-43222000D01*
X2436572Y-43150571D01*
X2650857Y-43150571D01*
X2793714Y-43222000D01*
X2865143Y-43364857D01*
X2865143Y-44150571D01*
X3436572Y-43150571D02*
X3793715Y-44150571D01*
X4150857Y-43150571D01*
X4722286Y-44007714D02*
X4793714Y-44079143D01*
X4722286Y-44150571D01*
X4650857Y-44079143D01*
X4722286Y-44007714D01*
X4722286Y-44150571D01*
X6865143Y-42650571D02*
X7150857Y-42650571D01*
X7293715Y-42722000D01*
X7436572Y-42864857D01*
X7508000Y-43150571D01*
X7508000Y-43650571D01*
X7436572Y-43936286D01*
X7293715Y-44079143D01*
X7150857Y-44150571D01*
X6865143Y-44150571D01*
X6722286Y-44079143D01*
X6579429Y-43936286D01*
X6508000Y-43650571D01*
X6508000Y-43150571D01*
X6579429Y-42864857D01*
X6722286Y-42722000D01*
X6865143Y-42650571D01*
X8793715Y-43150571D02*
X8793715Y-44150571D01*
X8150858Y-43150571D02*
X8150858Y-43936286D01*
X8222286Y-44079143D01*
X8365144Y-44150571D01*
X8579429Y-44150571D01*
X8722286Y-44079143D01*
X8793715Y-44007714D01*
X9293715Y-43150571D02*
X9865144Y-43150571D01*
X9508001Y-42650571D02*
X9508001Y-43936286D01*
X9579429Y-44079143D01*
X9722287Y-44150571D01*
X9865144Y-44150571D01*
D13*
X32873238Y-31648952D02*
X32873238Y-29148952D01*
X33468476Y-29148952D01*
X33825619Y-29268000D01*
X34063714Y-29506095D01*
X34182762Y-29744190D01*
X34301810Y-30220381D01*
X34301810Y-30577524D01*
X34182762Y-31053714D01*
X34063714Y-31291810D01*
X33825619Y-31529905D01*
X33468476Y-31648952D01*
X32873238Y-31648952D01*
X33793810Y-16424857D02*
X33674762Y-16543905D01*
X33317619Y-16662952D01*
X33079524Y-16662952D01*
X32722381Y-16543905D01*
X32484286Y-16305810D01*
X32365238Y-16067714D01*
X32246190Y-15591524D01*
X32246190Y-15234381D01*
X32365238Y-14758190D01*
X32484286Y-14520095D01*
X32722381Y-14282000D01*
X33079524Y-14162952D01*
X33317619Y-14162952D01*
X33674762Y-14282000D01*
X33793810Y-14401048D01*
X16942571Y-19417429D02*
X17299714Y-19536476D01*
X17418762Y-19655524D01*
X17537810Y-19893619D01*
X17537810Y-20250762D01*
X17418762Y-20488857D01*
X17299714Y-20607905D01*
X17061619Y-20726952D01*
X16109238Y-20726952D01*
X16109238Y-18226952D01*
X16942571Y-18226952D01*
X17180667Y-18346000D01*
X17299714Y-18465048D01*
X17418762Y-18703143D01*
X17418762Y-18941238D01*
X17299714Y-19179333D01*
X17180667Y-19298381D01*
X16942571Y-19417429D01*
X16109238Y-19417429D01*
X13882762Y-36268667D02*
X15073239Y-36268667D01*
X13644667Y-36982952D02*
X14478001Y-34482952D01*
X15311334Y-36982952D01*
D12*
X17125143Y-48444857D02*
X17339429Y-48516286D01*
X17410857Y-48587714D01*
X17482286Y-48730571D01*
X17482286Y-48944857D01*
X17410857Y-49087714D01*
X17339429Y-49159143D01*
X17196571Y-49230571D01*
X16625143Y-49230571D01*
X16625143Y-47730571D01*
X17125143Y-47730571D01*
X17268000Y-47802000D01*
X17339429Y-47873429D01*
X17410857Y-48016286D01*
X17410857Y-48159143D01*
X17339429Y-48302000D01*
X17268000Y-48373429D01*
X17125143Y-48444857D01*
X16625143Y-48444857D01*
X20022286Y-49087714D02*
X19950857Y-49159143D01*
X19736571Y-49230571D01*
X19593714Y-49230571D01*
X19379429Y-49159143D01*
X19236571Y-49016286D01*
X19165143Y-48873429D01*
X19093714Y-48587714D01*
X19093714Y-48373429D01*
X19165143Y-48087714D01*
X19236571Y-47944857D01*
X19379429Y-47802000D01*
X19593714Y-47730571D01*
X19736571Y-47730571D01*
X19950857Y-47802000D01*
X20022286Y-47873429D01*
X14120857Y-48802000D02*
X14835143Y-48802000D01*
X13978000Y-49230571D02*
X14478000Y-47730571D01*
X14978000Y-49230571D01*
X21705143Y-49230571D02*
X21705143Y-47730571D01*
X22062286Y-47730571D01*
X22276571Y-47802000D01*
X22419429Y-47944857D01*
X22490857Y-48087714D01*
X22562286Y-48373429D01*
X22562286Y-48587714D01*
X22490857Y-48873429D01*
X22419429Y-49016286D01*
X22276571Y-49159143D01*
X22062286Y-49230571D01*
X21705143Y-49230571D01*
X4425143Y-48444857D02*
X4639429Y-48516286D01*
X4710857Y-48587714D01*
X4782286Y-48730571D01*
X4782286Y-48944857D01*
X4710857Y-49087714D01*
X4639429Y-49159143D01*
X4496571Y-49230571D01*
X3925143Y-49230571D01*
X3925143Y-47730571D01*
X4425143Y-47730571D01*
X4568000Y-47802000D01*
X4639429Y-47873429D01*
X4710857Y-48016286D01*
X4710857Y-48159143D01*
X4639429Y-48302000D01*
X4568000Y-48373429D01*
X4425143Y-48444857D01*
X3925143Y-48444857D01*
X7322286Y-49087714D02*
X7250857Y-49159143D01*
X7036571Y-49230571D01*
X6893714Y-49230571D01*
X6679429Y-49159143D01*
X6536571Y-49016286D01*
X6465143Y-48873429D01*
X6393714Y-48587714D01*
X6393714Y-48373429D01*
X6465143Y-48087714D01*
X6536571Y-47944857D01*
X6679429Y-47802000D01*
X6893714Y-47730571D01*
X7036571Y-47730571D01*
X7250857Y-47802000D01*
X7322286Y-47873429D01*
X1420857Y-48802000D02*
X2135143Y-48802000D01*
X1278000Y-49230571D02*
X1778000Y-47730571D01*
X2278000Y-49230571D01*
X9005143Y-49230571D02*
X9005143Y-47730571D01*
X9362286Y-47730571D01*
X9576571Y-47802000D01*
X9719429Y-47944857D01*
X9790857Y-48087714D01*
X9862286Y-48373429D01*
X9862286Y-48587714D01*
X9790857Y-48873429D01*
X9719429Y-49016286D01*
X9576571Y-49159143D01*
X9362286Y-49230571D01*
X9005143Y-49230571D01*
D14*
X24206286Y-5684000D02*
X24120572Y-5641143D01*
X23992001Y-5641143D01*
X23863429Y-5684000D01*
X23777715Y-5769714D01*
X23734858Y-5855429D01*
X23692001Y-6026857D01*
X23692001Y-6155429D01*
X23734858Y-6326857D01*
X23777715Y-6412571D01*
X23863429Y-6498286D01*
X23992001Y-6541143D01*
X24077715Y-6541143D01*
X24206286Y-6498286D01*
X24249143Y-6455429D01*
X24249143Y-6155429D01*
X24077715Y-6155429D01*
X24634858Y-6541143D02*
X24634858Y-5641143D01*
X25149143Y-6541143D01*
X25149143Y-5641143D01*
X25577715Y-6541143D02*
X25577715Y-5641143D01*
X25792000Y-5641143D01*
X25920572Y-5684000D01*
X26006286Y-5769714D01*
X26049143Y-5855429D01*
X26092000Y-6026857D01*
X26092000Y-6155429D01*
X26049143Y-6326857D01*
X26006286Y-6412571D01*
X25920572Y-6498286D01*
X25792000Y-6541143D01*
X25577715Y-6541143D01*
D12*
X29107144Y-1415143D02*
X30250001Y-1415143D01*
X31750001Y-1986571D02*
X30892858Y-1986571D01*
X31321430Y-1986571D02*
X31321430Y-486571D01*
X31178573Y-700857D01*
X31035715Y-843714D01*
X30892858Y-915143D01*
X32321429Y-629429D02*
X32392858Y-558000D01*
X32535715Y-486571D01*
X32892858Y-486571D01*
X33035715Y-558000D01*
X33107144Y-629429D01*
X33178572Y-772286D01*
X33178572Y-915143D01*
X33107144Y-1129429D01*
X32250001Y-1986571D01*
X33178572Y-1986571D01*
X33607143Y-486571D02*
X34107143Y-1986571D01*
X34607143Y-486571D01*
X19919143Y-5982856D02*
X19919143Y-4839999D01*
X20490571Y-5411428D02*
X19347714Y-5411428D01*
X20490571Y-3339999D02*
X20490571Y-4197142D01*
X20490571Y-3768570D02*
X18990571Y-3768570D01*
X19204857Y-3911427D01*
X19347714Y-4054285D01*
X19419143Y-4197142D01*
X19133429Y-2768571D02*
X19062000Y-2697142D01*
X18990571Y-2554285D01*
X18990571Y-2197142D01*
X19062000Y-2054285D01*
X19133429Y-1982856D01*
X19276286Y-1911428D01*
X19419143Y-1911428D01*
X19633429Y-1982856D01*
X20490571Y-2839999D01*
X20490571Y-1911428D01*
X18990571Y-1482857D02*
X20490571Y-982857D01*
X18990571Y-482857D01*
X14593143Y-5288571D02*
X14593143Y-3788571D01*
X14950286Y-3788571D01*
X15164571Y-3860000D01*
X15307429Y-4002857D01*
X15378857Y-4145714D01*
X15450286Y-4431429D01*
X15450286Y-4645714D01*
X15378857Y-4931429D01*
X15307429Y-5074286D01*
X15164571Y-5217143D01*
X14950286Y-5288571D01*
X14593143Y-5288571D01*
X12910286Y-5145714D02*
X12838857Y-5217143D01*
X12624571Y-5288571D01*
X12481714Y-5288571D01*
X12267429Y-5217143D01*
X12124571Y-5074286D01*
X12053143Y-4931429D01*
X11981714Y-4645714D01*
X11981714Y-4431429D01*
X12053143Y-4145714D01*
X12124571Y-4002857D01*
X12267429Y-3860000D01*
X12481714Y-3788571D01*
X12624571Y-3788571D01*
X12838857Y-3860000D01*
X12910286Y-3931429D01*
X10013143Y-4502857D02*
X10227429Y-4574286D01*
X10298857Y-4645714D01*
X10370286Y-4788571D01*
X10370286Y-5002857D01*
X10298857Y-5145714D01*
X10227429Y-5217143D01*
X10084571Y-5288571D01*
X9513143Y-5288571D01*
X9513143Y-3788571D01*
X10013143Y-3788571D01*
X10156000Y-3860000D01*
X10227429Y-3931429D01*
X10298857Y-4074286D01*
X10298857Y-4217143D01*
X10227429Y-4360000D01*
X10156000Y-4431429D01*
X10013143Y-4502857D01*
X9513143Y-4502857D01*
X7008857Y-4860000D02*
X7723143Y-4860000D01*
X6866000Y-5288571D02*
X7366000Y-3788571D01*
X7866000Y-5288571D01*
X2705571Y-6816285D02*
X1205571Y-6816285D01*
X1205571Y-6244857D01*
X1277000Y-6101999D01*
X1348429Y-6030571D01*
X1491286Y-5959142D01*
X1705571Y-5959142D01*
X1848429Y-6030571D01*
X1919857Y-6101999D01*
X1991286Y-6244857D01*
X1991286Y-6816285D01*
X1705571Y-4673428D02*
X2705571Y-4673428D01*
X1705571Y-5316285D02*
X2491286Y-5316285D01*
X2634143Y-5244857D01*
X2705571Y-5101999D01*
X2705571Y-4887714D01*
X2634143Y-4744857D01*
X2562714Y-4673428D01*
X2705571Y-3744856D02*
X2634143Y-3887714D01*
X2491286Y-3959142D01*
X1205571Y-3959142D01*
X2634143Y-3244857D02*
X2705571Y-3102000D01*
X2705571Y-2816285D01*
X2634143Y-2673428D01*
X2491286Y-2602000D01*
X2419857Y-2602000D01*
X2277000Y-2673428D01*
X2205571Y-2816285D01*
X2205571Y-3030571D01*
X2134143Y-3173428D01*
X1991286Y-3244857D01*
X1919857Y-3244857D01*
X1777000Y-3173428D01*
X1705571Y-3030571D01*
X1705571Y-2816285D01*
X1777000Y-2673428D01*
X2634143Y-1387714D02*
X2705571Y-1530571D01*
X2705571Y-1816285D01*
X2634143Y-1959142D01*
X2491286Y-2030571D01*
X1919857Y-2030571D01*
X1777000Y-1959142D01*
X1705571Y-1816285D01*
X1705571Y-1530571D01*
X1777000Y-1387714D01*
X1919857Y-1316285D01*
X2062714Y-1316285D01*
X2205571Y-2030571D01*
X3755571Y-5352000D02*
X3755571Y-5066286D01*
X3827000Y-4923428D01*
X3969857Y-4780571D01*
X4255571Y-4709143D01*
X4755571Y-4709143D01*
X5041286Y-4780571D01*
X5184143Y-4923428D01*
X5255571Y-5066286D01*
X5255571Y-5352000D01*
X5184143Y-5494857D01*
X5041286Y-5637714D01*
X4755571Y-5709143D01*
X4255571Y-5709143D01*
X3969857Y-5637714D01*
X3827000Y-5494857D01*
X3755571Y-5352000D01*
X4255571Y-3423428D02*
X5255571Y-3423428D01*
X4255571Y-4066285D02*
X5041286Y-4066285D01*
X5184143Y-3994857D01*
X5255571Y-3851999D01*
X5255571Y-3637714D01*
X5184143Y-3494857D01*
X5112714Y-3423428D01*
X4255571Y-2923428D02*
X4255571Y-2351999D01*
X3755571Y-2709142D02*
X5041286Y-2709142D01*
X5184143Y-2637714D01*
X5255571Y-2494856D01*
X5255571Y-2351999D01*
D15*
X40812000Y-37638000D02*
X40812000Y-38638000D01*
X39452000Y-38638000D02*
X39452000Y-37638000D01*
D16*
X27305000Y-40805000D02*
X22479000Y-40805000D01*
X22479000Y-40805000D02*
X22479000Y-30645000D01*
X22479000Y-30645000D02*
X27305000Y-30645000D01*
X27305000Y-30645000D02*
X27305000Y-40805000D01*
X25527000Y-30645000D02*
X25527000Y-31280000D01*
X25527000Y-31280000D02*
X24257000Y-31280000D01*
X24257000Y-31280000D02*
X24257000Y-30645000D01*
D15*
X14570000Y-32200000D02*
X14570000Y-32900000D01*
X13370000Y-32900000D02*
X13370000Y-32200000D01*
X11592000Y-17660000D02*
X11592000Y-16960000D01*
X12792000Y-16960000D02*
X12792000Y-17660000D01*
X33178000Y-18488000D02*
X33878000Y-18488000D01*
X33878000Y-19688000D02*
X33178000Y-19688000D01*
X7524000Y-29664000D02*
X8224000Y-29664000D01*
X8224000Y-30864000D02*
X7524000Y-30864000D01*
X10064000Y-18996000D02*
X10764000Y-18996000D01*
X10764000Y-20196000D02*
X10064000Y-20196000D01*
X24669000Y-41094000D02*
X25369000Y-41094000D01*
X25369000Y-42294000D02*
X24669000Y-42294000D01*
X22637000Y-5661000D02*
X23337000Y-5661000D01*
X23337000Y-6861000D02*
X22637000Y-6861000D01*
X29245000Y-3436000D02*
X29245000Y-2736000D01*
X30445000Y-2736000D02*
X30445000Y-3436000D01*
X6508000Y-32966000D02*
X7208000Y-32966000D01*
X7208000Y-34166000D02*
X6508000Y-34166000D01*
X9302000Y-13662000D02*
X10002000Y-13662000D01*
X10002000Y-14862000D02*
X9302000Y-14862000D01*
X5496000Y-36710000D02*
X5496000Y-36010000D01*
X6696000Y-36010000D02*
X6696000Y-36710000D01*
X7458000Y-11372000D02*
X7458000Y-12072000D01*
X6258000Y-12072000D02*
X6258000Y-11372000D01*
X27594000Y-8135000D02*
X27594000Y-7435000D01*
X28794000Y-7435000D02*
X28794000Y-8135000D01*
X36022000Y-17632000D02*
X36022000Y-16932000D01*
X37222000Y-16932000D02*
X37222000Y-17632000D01*
X38700000Y-32200000D02*
X38700000Y-32900000D01*
X37500000Y-32900000D02*
X37500000Y-32200000D01*
X43007000Y-18902000D02*
X43007000Y-18202000D01*
X44207000Y-18202000D02*
X44207000Y-18902000D01*
X40228000Y-30864000D02*
X39528000Y-30864000D01*
X39528000Y-29664000D02*
X40228000Y-29664000D01*
X42687000Y-14072000D02*
X41987000Y-14072000D01*
X41987000Y-12872000D02*
X42687000Y-12872000D01*
X40228000Y-35944000D02*
X39528000Y-35944000D01*
X39528000Y-34744000D02*
X40228000Y-34744000D01*
X41941000Y-10995000D02*
X42641000Y-10995000D01*
X42641000Y-12195000D02*
X41941000Y-12195000D01*
X43530000Y-37468000D02*
X42830000Y-37468000D01*
X42830000Y-36268000D02*
X43530000Y-36268000D01*
X8718000Y-33304000D02*
X8718000Y-32304000D01*
X10078000Y-32304000D02*
X10078000Y-33304000D01*
X11348000Y-16556000D02*
X11348000Y-17556000D01*
X9988000Y-17556000D02*
X9988000Y-16556000D01*
X2040000Y-37712000D02*
X3040000Y-37712000D01*
X3040000Y-39072000D02*
X2040000Y-39072000D01*
X5162000Y-17810000D02*
X5162000Y-16810000D01*
X6522000Y-16810000D02*
X6522000Y-17810000D01*
X18169000Y-36315000D02*
X19169000Y-36315000D01*
X19169000Y-37675000D02*
X18169000Y-37675000D01*
X18169000Y-33648000D02*
X19169000Y-33648000D01*
X19169000Y-35008000D02*
X18169000Y-35008000D01*
X17652721Y-17763386D02*
X16945614Y-17056279D01*
X17907279Y-16094614D02*
X18614386Y-16801721D01*
X6776000Y-39162000D02*
X6776000Y-40162000D01*
X5416000Y-40162000D02*
X5416000Y-39162000D01*
X9316000Y-9444000D02*
X9316000Y-10444000D01*
X7956000Y-10444000D02*
X7956000Y-9444000D01*
X8644000Y-38220000D02*
X9644000Y-38220000D01*
X9644000Y-39580000D02*
X8644000Y-39580000D01*
X8554000Y-35860000D02*
X8554000Y-36860000D01*
X7194000Y-36860000D02*
X7194000Y-35860000D01*
X11184000Y-8502000D02*
X12184000Y-8502000D01*
X12184000Y-9862000D02*
X11184000Y-9862000D01*
X10152000Y-13164000D02*
X9152000Y-13164000D01*
X9152000Y-11804000D02*
X10152000Y-11804000D01*
X12454000Y-38220000D02*
X13454000Y-38220000D01*
X13454000Y-39580000D02*
X12454000Y-39580000D01*
X14306000Y-9682000D02*
X14306000Y-8682000D01*
X15666000Y-8682000D02*
X15666000Y-9682000D01*
X10930000Y-36696000D02*
X11930000Y-36696000D01*
X11930000Y-38056000D02*
X10930000Y-38056000D01*
X13470000Y-13074000D02*
X14470000Y-13074000D01*
X14470000Y-14434000D02*
X13470000Y-14434000D01*
X42382000Y-16147000D02*
X42382000Y-17147000D01*
X41022000Y-17147000D02*
X41022000Y-16147000D01*
X38944000Y-33177000D02*
X38944000Y-32177000D01*
X40304000Y-32177000D02*
X40304000Y-33177000D01*
X46864000Y-14734000D02*
X46864000Y-13734000D01*
X48224000Y-13734000D02*
X48224000Y-14734000D01*
X44622000Y-32050000D02*
X44622000Y-33050000D01*
X43262000Y-33050000D02*
X43262000Y-32050000D01*
X31615000Y-35135000D02*
X30615000Y-35135000D01*
X30615000Y-33775000D02*
X31615000Y-33775000D01*
X31615000Y-37675000D02*
X30615000Y-37675000D01*
X30615000Y-36315000D02*
X31615000Y-36315000D01*
X40430000Y-11358000D02*
X40430000Y-12358000D01*
X39070000Y-12358000D02*
X39070000Y-11358000D01*
X43950000Y-37458000D02*
X44950000Y-37458000D01*
X44950000Y-38818000D02*
X43950000Y-38818000D01*
X34820000Y-10108000D02*
X34820000Y-9108000D01*
X36180000Y-9108000D02*
X36180000Y-10108000D01*
X36070000Y-14358000D02*
X36070000Y-13358000D01*
X37430000Y-13358000D02*
X37430000Y-14358000D01*
X45220000Y-38982000D02*
X46220000Y-38982000D01*
X46220000Y-40342000D02*
X45220000Y-40342000D01*
X44000000Y-7678000D02*
X45000000Y-7678000D01*
X45000000Y-9038000D02*
X44000000Y-9038000D01*
X47834000Y-38892000D02*
X47834000Y-37892000D01*
X49194000Y-37892000D02*
X49194000Y-38892000D01*
X39932000Y-7712000D02*
X40932000Y-7712000D01*
X40932000Y-9072000D02*
X39932000Y-9072000D01*
X36076000Y-38474000D02*
X37076000Y-38474000D01*
X37076000Y-39834000D02*
X36076000Y-39834000D01*
X3529000Y-36606000D02*
X3529000Y-37266000D01*
X3529000Y-34936000D02*
X3529000Y-35606000D01*
X3529000Y-34946000D02*
X794000Y-34946000D01*
X2119000Y-37266000D02*
X3529000Y-37266000D01*
X8374000Y-15813000D02*
X9034000Y-15813000D01*
X6704000Y-15813000D02*
X7374000Y-15813000D01*
X6714000Y-15813000D02*
X6714000Y-18548000D01*
X9034000Y-17223000D02*
X9034000Y-15813000D01*
X23495000Y-5432000D02*
X28635000Y-5432000D01*
X28635000Y-5432000D02*
X28635000Y-2772000D01*
X28635000Y-2772000D02*
X23495000Y-2772000D01*
X23495000Y-2772000D02*
X23495000Y-5432000D01*
X22225000Y-5432000D02*
X20895000Y-5432000D01*
X20895000Y-5432000D02*
X20895000Y-4102000D01*
X23495000Y-2892000D02*
X28635000Y-2892000D01*
X28635000Y-2892000D02*
X28635000Y-232000D01*
X28635000Y-232000D02*
X23495000Y-232000D01*
X23495000Y-232000D02*
X23495000Y-2892000D01*
X22225000Y-2892000D02*
X20895000Y-2892000D01*
X20895000Y-2892000D02*
X20895000Y-1562000D01*
X36095000Y-36622000D02*
X36095000Y-35962000D01*
X36095000Y-38292000D02*
X36095000Y-37622000D01*
X36095000Y-38282000D02*
X38830000Y-38282000D01*
X37505000Y-35962000D02*
X36095000Y-35962000D01*
X38000000Y-9123000D02*
X38660000Y-9123000D01*
X36330000Y-9123000D02*
X37000000Y-9123000D01*
X36340000Y-9123000D02*
X36340000Y-11858000D01*
X38660000Y-10533000D02*
X38660000Y-9123000D01*
X41246000Y-34617000D02*
X40586000Y-34617000D01*
X42916000Y-34617000D02*
X42246000Y-34617000D01*
X42906000Y-34617000D02*
X42906000Y-31882000D01*
X40586000Y-33207000D02*
X40586000Y-34617000D01*
X46012000Y-12737000D02*
X46672000Y-12737000D01*
X44342000Y-12737000D02*
X45012000Y-12737000D01*
X44352000Y-12737000D02*
X44352000Y-15472000D01*
X46672000Y-14147000D02*
X46672000Y-12737000D01*
X13943000Y-12222000D02*
X13943000Y-12882000D01*
X13943000Y-10552000D02*
X13943000Y-11222000D01*
X13943000Y-10562000D02*
X11208000Y-10562000D01*
X12533000Y-12882000D02*
X13943000Y-12882000D01*
X10133000Y-41432000D02*
X10133000Y-42092000D01*
X10133000Y-39762000D02*
X10133000Y-40432000D01*
X10133000Y-39772000D02*
X7398000Y-39772000D01*
X8723000Y-42092000D02*
X10133000Y-42092000D01*
X44997000Y-23902000D02*
X44997000Y-22132000D01*
X44997000Y-22132000D02*
X34597000Y-22132000D01*
X34597000Y-22132000D02*
X34597000Y-27672000D01*
X34597000Y-27672000D02*
X44997000Y-27672000D01*
X44997000Y-27672000D02*
X44997000Y-25902000D01*
X44997000Y-25902000D02*
G75*
G02X44997000Y-23902000I0J1000000D01*
G01*
X5214000Y-25930000D02*
X5214000Y-27700000D01*
X5214000Y-27700000D02*
X15614000Y-27700000D01*
X15614000Y-27700000D02*
X15614000Y-22160000D01*
X15614000Y-22160000D02*
X5214000Y-22160000D01*
X5214000Y-22160000D02*
X5214000Y-23930000D01*
X5214000Y-23930000D02*
G75*
G02X5214000Y-25930000I0J-1000000D01*
G01*
X47493704Y-27825309D02*
G75*
G02X49803000Y-27785000I1154296J40309D01*
G01*
X49802052Y-27764879D02*
G75*
G02X48408000Y-28914000I-1154052J-20121D01*
G01*
X45028000Y-36105000D02*
X45028000Y-26455000D01*
X49979000Y-36105000D02*
X49979000Y-26455000D01*
X45028000Y-36105000D02*
X49979000Y-36105000D01*
X45028000Y-26455000D02*
X49979000Y-26455000D01*
X47914000Y-26909000D02*
X49524000Y-28520000D01*
X47773000Y-27049000D02*
X49383000Y-28661000D01*
X47493704Y-17919309D02*
G75*
G02X49803000Y-17879000I1154296J40309D01*
G01*
X49802052Y-17858879D02*
G75*
G02X48408000Y-19008000I-1154052J-20121D01*
G01*
X45028000Y-26199000D02*
X45028000Y-16549000D01*
X49979000Y-26199000D02*
X49979000Y-16549000D01*
X45028000Y-26199000D02*
X49979000Y-26199000D01*
X45028000Y-16549000D02*
X49979000Y-16549000D01*
X47914000Y-17003000D02*
X49524000Y-18614000D01*
X47773000Y-17143000D02*
X49383000Y-18755000D01*
X2544296Y-23558691D02*
G75*
G02X235000Y-23599000I-1154296J-40309D01*
G01*
X235948Y-23619121D02*
G75*
G02X1630000Y-22470000I1154052J20121D01*
G01*
X5010000Y-15279000D02*
X5010000Y-24929000D01*
X59000Y-15279000D02*
X59000Y-24929000D01*
X5010000Y-15279000D02*
X59000Y-15279000D01*
X5010000Y-24929000D02*
X59000Y-24929000D01*
X2124000Y-24475000D02*
X514000Y-22864000D01*
X2265000Y-24335000D02*
X655000Y-22723000D01*
X2544296Y-33464691D02*
G75*
G02X235000Y-33505000I-1154296J-40309D01*
G01*
X235948Y-33525121D02*
G75*
G02X1630000Y-32376000I1154052J20121D01*
G01*
X5010000Y-25185000D02*
X5010000Y-34835000D01*
X59000Y-25185000D02*
X59000Y-34835000D01*
X5010000Y-25185000D02*
X59000Y-25185000D01*
X5010000Y-34835000D02*
X59000Y-34835000D01*
X2124000Y-34381000D02*
X514000Y-32770000D01*
X2265000Y-34241000D02*
X655000Y-32629000D01*
X37398000Y-32550000D02*
X37398000Y-29950000D01*
X37398000Y-29950000D02*
X34738000Y-29950000D01*
X34738000Y-29950000D02*
X34738000Y-32550000D01*
X34738000Y-32550000D02*
X37398000Y-32550000D01*
X37398000Y-33820000D02*
X37398000Y-35150000D01*
X37398000Y-35150000D02*
X36068000Y-35150000D01*
X37197000Y-17282000D02*
X37197000Y-19882000D01*
X37197000Y-19882000D02*
X39857000Y-19882000D01*
X39857000Y-19882000D02*
X39857000Y-17282000D01*
X39857000Y-17282000D02*
X37197000Y-17282000D01*
X37197000Y-16012000D02*
X37197000Y-14682000D01*
X37197000Y-14682000D02*
X38527000Y-14682000D01*
X12894000Y-17310000D02*
X12894000Y-19910000D01*
X12894000Y-19910000D02*
X15554000Y-19910000D01*
X15554000Y-19910000D02*
X15554000Y-17310000D01*
X15554000Y-17310000D02*
X12894000Y-17310000D01*
X12894000Y-16040000D02*
X12894000Y-14710000D01*
X12894000Y-14710000D02*
X14224000Y-14710000D01*
X13014000Y-32550000D02*
X13014000Y-29950000D01*
X13014000Y-29950000D02*
X10354000Y-29950000D01*
X10354000Y-29950000D02*
X10354000Y-32550000D01*
X10354000Y-32550000D02*
X13014000Y-32550000D01*
X13014000Y-33820000D02*
X13014000Y-35150000D01*
X13014000Y-35150000D02*
X11684000Y-35150000D01*
X13656000Y-3340000D02*
X13656000Y-3400000D01*
X13656000Y-3400000D02*
X16316000Y-3400000D01*
X16316000Y-3400000D02*
X16316000Y-3340000D01*
X16316000Y-3340000D02*
X13656000Y-3340000D01*
X13656000Y-2070000D02*
X13656000Y-740000D01*
X13656000Y-740000D02*
X14986000Y-740000D01*
X11116000Y-3340000D02*
X11116000Y-3400000D01*
X11116000Y-3400000D02*
X13776000Y-3400000D01*
X13776000Y-3400000D02*
X13776000Y-3340000D01*
X13776000Y-3340000D02*
X11116000Y-3340000D01*
X11116000Y-2070000D02*
X11116000Y-740000D01*
X11116000Y-740000D02*
X12446000Y-740000D01*
X20895000Y-47155000D02*
X20895000Y-47215000D01*
X20895000Y-47215000D02*
X23555000Y-47215000D01*
X23555000Y-47215000D02*
X23555000Y-47155000D01*
X23555000Y-47155000D02*
X20895000Y-47155000D01*
X20895000Y-45885000D02*
X20895000Y-44555000D01*
X20895000Y-44555000D02*
X22225000Y-44555000D01*
X18355000Y-47155000D02*
X18355000Y-47215000D01*
X18355000Y-47215000D02*
X21015000Y-47215000D01*
X21015000Y-47215000D02*
X21015000Y-47155000D01*
X21015000Y-47155000D02*
X18355000Y-47155000D01*
X18355000Y-45885000D02*
X18355000Y-44555000D01*
X18355000Y-44555000D02*
X19685000Y-44555000D01*
X8195000Y-47155000D02*
X8195000Y-47215000D01*
X8195000Y-47215000D02*
X10855000Y-47215000D01*
X10855000Y-47215000D02*
X10855000Y-47155000D01*
X10855000Y-47155000D02*
X8195000Y-47155000D01*
X8195000Y-45885000D02*
X8195000Y-44555000D01*
X8195000Y-44555000D02*
X9525000Y-44555000D01*
X5655000Y-47155000D02*
X5655000Y-47215000D01*
X5655000Y-47215000D02*
X8315000Y-47215000D01*
X8315000Y-47215000D02*
X8315000Y-47155000D01*
X8315000Y-47155000D02*
X5655000Y-47155000D01*
X5655000Y-45885000D02*
X5655000Y-44555000D01*
X5655000Y-44555000D02*
X6985000Y-44555000D01*
X8576000Y-3340000D02*
X8576000Y-3400000D01*
X8576000Y-3400000D02*
X11236000Y-3400000D01*
X11236000Y-3400000D02*
X11236000Y-3340000D01*
X11236000Y-3340000D02*
X8576000Y-3340000D01*
X8576000Y-2070000D02*
X8576000Y-740000D01*
X8576000Y-740000D02*
X9906000Y-740000D01*
X6036000Y-3340000D02*
X6036000Y-3400000D01*
X6036000Y-3400000D02*
X8696000Y-3400000D01*
X8696000Y-3400000D02*
X8696000Y-3340000D01*
X8696000Y-3340000D02*
X6036000Y-3340000D01*
X6036000Y-2070000D02*
X6036000Y-740000D01*
X6036000Y-740000D02*
X7366000Y-740000D01*
X15815000Y-47155000D02*
X15815000Y-47215000D01*
X15815000Y-47215000D02*
X18475000Y-47215000D01*
X18475000Y-47215000D02*
X18475000Y-47155000D01*
X18475000Y-47155000D02*
X15815000Y-47155000D01*
X15815000Y-45885000D02*
X15815000Y-44555000D01*
X15815000Y-44555000D02*
X17145000Y-44555000D01*
X13275000Y-47155000D02*
X13275000Y-47215000D01*
X13275000Y-47215000D02*
X15935000Y-47215000D01*
X15935000Y-47215000D02*
X15935000Y-47155000D01*
X15935000Y-47155000D02*
X13275000Y-47155000D01*
X13275000Y-45885000D02*
X13275000Y-44555000D01*
X13275000Y-44555000D02*
X14605000Y-44555000D01*
X3115000Y-47155000D02*
X3115000Y-47215000D01*
X3115000Y-47215000D02*
X5775000Y-47215000D01*
X5775000Y-47215000D02*
X5775000Y-47155000D01*
X5775000Y-47155000D02*
X3115000Y-47155000D01*
X3115000Y-45885000D02*
X3115000Y-44555000D01*
X3115000Y-44555000D02*
X4445000Y-44555000D01*
X575000Y-47155000D02*
X575000Y-47215000D01*
X575000Y-47215000D02*
X3235000Y-47215000D01*
X3235000Y-47215000D02*
X3235000Y-47155000D01*
X3235000Y-47155000D02*
X575000Y-47155000D01*
X575000Y-45885000D02*
X575000Y-44555000D01*
X575000Y-44555000D02*
X1905000Y-44555000D01*
X28830000Y-10912000D02*
X28830000Y-6162000D01*
X32130000Y-10912000D02*
X32130000Y-6162000D01*
X28830000Y-10912000D02*
X32130000Y-10912000D01*
X24019000Y-11348000D02*
X22249000Y-11348000D01*
X22249000Y-11348000D02*
X22249000Y-29368000D01*
X22249000Y-29368000D02*
X27789000Y-29368000D01*
X27789000Y-29368000D02*
X27789000Y-11348000D01*
X27789000Y-11348000D02*
X26019000Y-11348000D01*
X26019000Y-11348000D02*
G75*
G02X24019000Y-11348000I-1000000J0D01*
G01*
X25549000Y-6824000D02*
X21949000Y-6824000D01*
X26073184Y-7551205D02*
G75*
G03X25549000Y-6824000I-2324184J-1122795D01*
G01*
X26105400Y-9772807D02*
G75*
G02X23749000Y-11274000I-2356400J1098807D01*
G01*
X21392600Y-9772807D02*
G75*
G03X23749000Y-11274000I2356400J1098807D01*
G01*
X21424816Y-7551205D02*
G75*
G02X21949000Y-6824000I2324184J-1122795D01*
G01*
X33393000Y-39816000D02*
X34053000Y-39816000D01*
X31723000Y-39816000D02*
X32393000Y-39816000D01*
X31733000Y-39816000D02*
X31733000Y-42551000D01*
X34053000Y-41226000D02*
X34053000Y-39816000D01*
X29419000Y-41813000D02*
X29419000Y-40813000D01*
X30779000Y-40813000D02*
X30779000Y-41813000D01*
D16*
X40584381Y-42082857D02*
X40108190Y-42416191D01*
X40584381Y-42654286D02*
X39584381Y-42654286D01*
X39584381Y-42273333D01*
X39632000Y-42178095D01*
X39679619Y-42130476D01*
X39774857Y-42082857D01*
X39917714Y-42082857D01*
X40012952Y-42130476D01*
X40060571Y-42178095D01*
X40108190Y-42273333D01*
X40108190Y-42654286D01*
X39679619Y-41701905D02*
X39632000Y-41654286D01*
X39584381Y-41559048D01*
X39584381Y-41320952D01*
X39632000Y-41225714D01*
X39679619Y-41178095D01*
X39774857Y-41130476D01*
X39870095Y-41130476D01*
X40012952Y-41178095D01*
X40584381Y-41749524D01*
X40584381Y-41130476D01*
X40584381Y-40654286D02*
X40584381Y-40463810D01*
X40536762Y-40368571D01*
X40489143Y-40320952D01*
X40346286Y-40225714D01*
X40155810Y-40178095D01*
X39774857Y-40178095D01*
X39679619Y-40225714D01*
X39632000Y-40273333D01*
X39584381Y-40368571D01*
X39584381Y-40559048D01*
X39632000Y-40654286D01*
X39679619Y-40701905D01*
X39774857Y-40749524D01*
X40012952Y-40749524D01*
X40108190Y-40701905D01*
X40155810Y-40654286D01*
X40203429Y-40559048D01*
X40203429Y-40368571D01*
X40155810Y-40273333D01*
X40108190Y-40225714D01*
X40012952Y-40178095D01*
X22860095Y-31748381D02*
X22860095Y-32557905D01*
X22907714Y-32653143D01*
X22955333Y-32700762D01*
X23050571Y-32748381D01*
X23241048Y-32748381D01*
X23336286Y-32700762D01*
X23383905Y-32653143D01*
X23431524Y-32557905D01*
X23431524Y-31748381D01*
X23812476Y-31748381D02*
X24431524Y-31748381D01*
X24098190Y-32129333D01*
X24241048Y-32129333D01*
X24336286Y-32176952D01*
X24383905Y-32224571D01*
X24431524Y-32319810D01*
X24431524Y-32557905D01*
X24383905Y-32653143D01*
X24336286Y-32700762D01*
X24241048Y-32748381D01*
X23955333Y-32748381D01*
X23860095Y-32700762D01*
X23812476Y-32653143D01*
X15577143Y-32716666D02*
X15624762Y-32764285D01*
X15672381Y-32907142D01*
X15672381Y-33002380D01*
X15624762Y-33145238D01*
X15529524Y-33240476D01*
X15434286Y-33288095D01*
X15243810Y-33335714D01*
X15100952Y-33335714D01*
X14910476Y-33288095D01*
X14815238Y-33240476D01*
X14720000Y-33145238D01*
X14672381Y-33002380D01*
X14672381Y-32907142D01*
X14720000Y-32764285D01*
X14767619Y-32716666D01*
X14672381Y-32383333D02*
X14672381Y-31764285D01*
X15053333Y-32097619D01*
X15053333Y-31954761D01*
X15100952Y-31859523D01*
X15148571Y-31811904D01*
X15243810Y-31764285D01*
X15481905Y-31764285D01*
X15577143Y-31811904D01*
X15624762Y-31859523D01*
X15672381Y-31954761D01*
X15672381Y-32240476D01*
X15624762Y-32335714D01*
X15577143Y-32383333D01*
X33361334Y-18195143D02*
X33313715Y-18242762D01*
X33170858Y-18290381D01*
X33075620Y-18290381D01*
X32932762Y-18242762D01*
X32837524Y-18147524D01*
X32789905Y-18052286D01*
X32742286Y-17861810D01*
X32742286Y-17718952D01*
X32789905Y-17528476D01*
X32837524Y-17433238D01*
X32932762Y-17338000D01*
X33075620Y-17290381D01*
X33170858Y-17290381D01*
X33313715Y-17338000D01*
X33361334Y-17385619D01*
X34218477Y-17290381D02*
X34028000Y-17290381D01*
X33932762Y-17338000D01*
X33885143Y-17385619D01*
X33789905Y-17528476D01*
X33742286Y-17718952D01*
X33742286Y-18099905D01*
X33789905Y-18195143D01*
X33837524Y-18242762D01*
X33932762Y-18290381D01*
X34123239Y-18290381D01*
X34218477Y-18242762D01*
X34266096Y-18195143D01*
X34313715Y-18099905D01*
X34313715Y-17861810D01*
X34266096Y-17766571D01*
X34218477Y-17718952D01*
X34123239Y-17671333D01*
X33932762Y-17671333D01*
X33837524Y-17718952D01*
X33789905Y-17766571D01*
X33742286Y-17861810D01*
X7707334Y-20207143D02*
X7659715Y-20254762D01*
X7516858Y-20302381D01*
X7421620Y-20302381D01*
X7278762Y-20254762D01*
X7183524Y-20159524D01*
X7135905Y-20064286D01*
X7088286Y-19873810D01*
X7088286Y-19730952D01*
X7135905Y-19540476D01*
X7183524Y-19445238D01*
X7278762Y-19350000D01*
X7421620Y-19302381D01*
X7516858Y-19302381D01*
X7659715Y-19350000D01*
X7707334Y-19397619D01*
X8278762Y-19730952D02*
X8183524Y-19683333D01*
X8135905Y-19635714D01*
X8088286Y-19540476D01*
X8088286Y-19492857D01*
X8135905Y-19397619D01*
X8183524Y-19350000D01*
X8278762Y-19302381D01*
X8469239Y-19302381D01*
X8564477Y-19350000D01*
X8612096Y-19397619D01*
X8659715Y-19492857D01*
X8659715Y-19540476D01*
X8612096Y-19635714D01*
X8564477Y-19683333D01*
X8469239Y-19730952D01*
X8278762Y-19730952D01*
X8183524Y-19778571D01*
X8135905Y-19826190D01*
X8088286Y-19921429D01*
X8088286Y-20111905D01*
X8135905Y-20207143D01*
X8183524Y-20254762D01*
X8278762Y-20302381D01*
X8469239Y-20302381D01*
X8564477Y-20254762D01*
X8612096Y-20207143D01*
X8659715Y-20111905D01*
X8659715Y-19921429D01*
X8612096Y-19826190D01*
X8564477Y-19778571D01*
X8469239Y-19730952D01*
X27297143Y-42559143D02*
X27249524Y-42606762D01*
X27106667Y-42654381D01*
X27011429Y-42654381D01*
X26868571Y-42606762D01*
X26773333Y-42511524D01*
X26725714Y-42416286D01*
X26678095Y-42225810D01*
X26678095Y-42082952D01*
X26725714Y-41892476D01*
X26773333Y-41797238D01*
X26868571Y-41702000D01*
X27011429Y-41654381D01*
X27106667Y-41654381D01*
X27249524Y-41702000D01*
X27297143Y-41749619D01*
X28249524Y-42654381D02*
X27678095Y-42654381D01*
X27963809Y-42654381D02*
X27963809Y-41654381D01*
X27868571Y-41797238D01*
X27773333Y-41892476D01*
X27678095Y-41940095D01*
X28868571Y-41654381D02*
X28963810Y-41654381D01*
X29059048Y-41702000D01*
X29106667Y-41749619D01*
X29154286Y-41844857D01*
X29201905Y-42035333D01*
X29201905Y-42273429D01*
X29154286Y-42463905D01*
X29106667Y-42559143D01*
X29059048Y-42606762D01*
X28963810Y-42654381D01*
X28868571Y-42654381D01*
X28773333Y-42606762D01*
X28725714Y-42559143D01*
X28678095Y-42463905D01*
X28630476Y-42273429D01*
X28630476Y-42035333D01*
X28678095Y-41844857D01*
X28725714Y-41749619D01*
X28773333Y-41702000D01*
X28868571Y-41654381D01*
X19677143Y-7253143D02*
X19629524Y-7300762D01*
X19486667Y-7348381D01*
X19391429Y-7348381D01*
X19248571Y-7300762D01*
X19153333Y-7205524D01*
X19105714Y-7110286D01*
X19058095Y-6919810D01*
X19058095Y-6776952D01*
X19105714Y-6586476D01*
X19153333Y-6491238D01*
X19248571Y-6396000D01*
X19391429Y-6348381D01*
X19486667Y-6348381D01*
X19629524Y-6396000D01*
X19677143Y-6443619D01*
X20629524Y-7348381D02*
X20058095Y-7348381D01*
X20343809Y-7348381D02*
X20343809Y-6348381D01*
X20248571Y-6491238D01*
X20153333Y-6586476D01*
X20058095Y-6634095D01*
X21581905Y-7348381D02*
X21010476Y-7348381D01*
X21296190Y-7348381D02*
X21296190Y-6348381D01*
X21200952Y-6491238D01*
X21105714Y-6586476D01*
X21010476Y-6634095D01*
X31361143Y-3951143D02*
X31313524Y-3998762D01*
X31170667Y-4046381D01*
X31075429Y-4046381D01*
X30932571Y-3998762D01*
X30837333Y-3903524D01*
X30789714Y-3808286D01*
X30742095Y-3617810D01*
X30742095Y-3474952D01*
X30789714Y-3284476D01*
X30837333Y-3189238D01*
X30932571Y-3094000D01*
X31075429Y-3046381D01*
X31170667Y-3046381D01*
X31313524Y-3094000D01*
X31361143Y-3141619D01*
X32313524Y-4046381D02*
X31742095Y-4046381D01*
X32027809Y-4046381D02*
X32027809Y-3046381D01*
X31932571Y-3189238D01*
X31837333Y-3284476D01*
X31742095Y-3332095D01*
X32694476Y-3141619D02*
X32742095Y-3094000D01*
X32837333Y-3046381D01*
X33075429Y-3046381D01*
X33170667Y-3094000D01*
X33218286Y-3141619D01*
X33265905Y-3236857D01*
X33265905Y-3332095D01*
X33218286Y-3474952D01*
X32646857Y-4046381D01*
X33265905Y-4046381D01*
X6215143Y-32653143D02*
X6167524Y-32700762D01*
X6024667Y-32748381D01*
X5929429Y-32748381D01*
X5786571Y-32700762D01*
X5691333Y-32605524D01*
X5643714Y-32510286D01*
X5596095Y-32319810D01*
X5596095Y-32176952D01*
X5643714Y-31986476D01*
X5691333Y-31891238D01*
X5786571Y-31796000D01*
X5929429Y-31748381D01*
X6024667Y-31748381D01*
X6167524Y-31796000D01*
X6215143Y-31843619D01*
X7167524Y-32748381D02*
X6596095Y-32748381D01*
X6881809Y-32748381D02*
X6881809Y-31748381D01*
X6786571Y-31891238D01*
X6691333Y-31986476D01*
X6596095Y-32034095D01*
X7500857Y-31748381D02*
X8119905Y-31748381D01*
X7786571Y-32129333D01*
X7929429Y-32129333D01*
X8024667Y-32176952D01*
X8072286Y-32224571D01*
X8119905Y-32319810D01*
X8119905Y-32557905D01*
X8072286Y-32653143D01*
X8024667Y-32700762D01*
X7929429Y-32748381D01*
X7643714Y-32748381D01*
X7548476Y-32700762D01*
X7500857Y-32653143D01*
X5453143Y-14619143D02*
X5405524Y-14666762D01*
X5262667Y-14714381D01*
X5167429Y-14714381D01*
X5024571Y-14666762D01*
X4929333Y-14571524D01*
X4881714Y-14476286D01*
X4834095Y-14285810D01*
X4834095Y-14142952D01*
X4881714Y-13952476D01*
X4929333Y-13857238D01*
X5024571Y-13762000D01*
X5167429Y-13714381D01*
X5262667Y-13714381D01*
X5405524Y-13762000D01*
X5453143Y-13809619D01*
X6405524Y-14714381D02*
X5834095Y-14714381D01*
X6119809Y-14714381D02*
X6119809Y-13714381D01*
X6024571Y-13857238D01*
X5929333Y-13952476D01*
X5834095Y-14000095D01*
X7262667Y-14047714D02*
X7262667Y-14714381D01*
X7024571Y-13666762D02*
X6786476Y-14381048D01*
X7405524Y-14381048D01*
X5945143Y-12364857D02*
X5992762Y-12412476D01*
X6040381Y-12555333D01*
X6040381Y-12650571D01*
X5992762Y-12793429D01*
X5897524Y-12888667D01*
X5802286Y-12936286D01*
X5611810Y-12983905D01*
X5468952Y-12983905D01*
X5278476Y-12936286D01*
X5183238Y-12888667D01*
X5088000Y-12793429D01*
X5040381Y-12650571D01*
X5040381Y-12555333D01*
X5088000Y-12412476D01*
X5135619Y-12364857D01*
X6040381Y-11412476D02*
X6040381Y-11983905D01*
X6040381Y-11698191D02*
X5040381Y-11698191D01*
X5183238Y-11793429D01*
X5278476Y-11888667D01*
X5326095Y-11983905D01*
X5040381Y-10555333D02*
X5040381Y-10745810D01*
X5088000Y-10841048D01*
X5135619Y-10888667D01*
X5278476Y-10983905D01*
X5468952Y-11031524D01*
X5849905Y-11031524D01*
X5945143Y-10983905D01*
X5992762Y-10936286D01*
X6040381Y-10841048D01*
X6040381Y-10650571D01*
X5992762Y-10555333D01*
X5945143Y-10507714D01*
X5849905Y-10460095D01*
X5611810Y-10460095D01*
X5516571Y-10507714D01*
X5468952Y-10555333D01*
X5421333Y-10650571D01*
X5421333Y-10841048D01*
X5468952Y-10936286D01*
X5516571Y-10983905D01*
X5611810Y-11031524D01*
X28043143Y-11094857D02*
X28090762Y-11142476D01*
X28138381Y-11285333D01*
X28138381Y-11380571D01*
X28090762Y-11523429D01*
X27995524Y-11618667D01*
X27900286Y-11666286D01*
X27709810Y-11713905D01*
X27566952Y-11713905D01*
X27376476Y-11666286D01*
X27281238Y-11618667D01*
X27186000Y-11523429D01*
X27138381Y-11380571D01*
X27138381Y-11285333D01*
X27186000Y-11142476D01*
X27233619Y-11094857D01*
X28138381Y-10142476D02*
X28138381Y-10713905D01*
X28138381Y-10428191D02*
X27138381Y-10428191D01*
X27281238Y-10523429D01*
X27376476Y-10618667D01*
X27424095Y-10713905D01*
X27138381Y-9809143D02*
X27138381Y-9142476D01*
X28138381Y-9571048D01*
X35729143Y-17924857D02*
X35776762Y-17972476D01*
X35824381Y-18115333D01*
X35824381Y-18210571D01*
X35776762Y-18353429D01*
X35681524Y-18448667D01*
X35586286Y-18496286D01*
X35395810Y-18543905D01*
X35252952Y-18543905D01*
X35062476Y-18496286D01*
X34967238Y-18448667D01*
X34872000Y-18353429D01*
X34824381Y-18210571D01*
X34824381Y-18115333D01*
X34872000Y-17972476D01*
X34919619Y-17924857D01*
X35824381Y-16972476D02*
X35824381Y-17543905D01*
X35824381Y-17258191D02*
X34824381Y-17258191D01*
X34967238Y-17353429D01*
X35062476Y-17448667D01*
X35110095Y-17543905D01*
X35824381Y-16496286D02*
X35824381Y-16305810D01*
X35776762Y-16210571D01*
X35729143Y-16162952D01*
X35586286Y-16067714D01*
X35395810Y-16020095D01*
X35014857Y-16020095D01*
X34919619Y-16067714D01*
X34872000Y-16115333D01*
X34824381Y-16210571D01*
X34824381Y-16401048D01*
X34872000Y-16496286D01*
X34919619Y-16543905D01*
X35014857Y-16591524D01*
X35252952Y-16591524D01*
X35348190Y-16543905D01*
X35395810Y-16496286D01*
X35443429Y-16401048D01*
X35443429Y-16210571D01*
X35395810Y-16115333D01*
X35348190Y-16067714D01*
X35252952Y-16020095D01*
X41267143Y-19699143D02*
X41219524Y-19746762D01*
X41076667Y-19794381D01*
X40981429Y-19794381D01*
X40838571Y-19746762D01*
X40743333Y-19651524D01*
X40695714Y-19556286D01*
X40648095Y-19365810D01*
X40648095Y-19222952D01*
X40695714Y-19032476D01*
X40743333Y-18937238D01*
X40838571Y-18842000D01*
X40981429Y-18794381D01*
X41076667Y-18794381D01*
X41219524Y-18842000D01*
X41267143Y-18889619D01*
X41648095Y-18889619D02*
X41695714Y-18842000D01*
X41790952Y-18794381D01*
X42029048Y-18794381D01*
X42124286Y-18842000D01*
X42171905Y-18889619D01*
X42219524Y-18984857D01*
X42219524Y-19080095D01*
X42171905Y-19222952D01*
X41600476Y-19794381D01*
X42219524Y-19794381D01*
X43171905Y-19794381D02*
X42600476Y-19794381D01*
X42886190Y-19794381D02*
X42886190Y-18794381D01*
X42790952Y-18937238D01*
X42695714Y-19032476D01*
X42600476Y-19080095D01*
X41775143Y-10555143D02*
X41727524Y-10602762D01*
X41584667Y-10650381D01*
X41489429Y-10650381D01*
X41346571Y-10602762D01*
X41251333Y-10507524D01*
X41203714Y-10412286D01*
X41156095Y-10221810D01*
X41156095Y-10078952D01*
X41203714Y-9888476D01*
X41251333Y-9793238D01*
X41346571Y-9698000D01*
X41489429Y-9650381D01*
X41584667Y-9650381D01*
X41727524Y-9698000D01*
X41775143Y-9745619D01*
X42156095Y-9745619D02*
X42203714Y-9698000D01*
X42298952Y-9650381D01*
X42537048Y-9650381D01*
X42632286Y-9698000D01*
X42679905Y-9745619D01*
X42727524Y-9840857D01*
X42727524Y-9936095D01*
X42679905Y-10078952D01*
X42108476Y-10650381D01*
X42727524Y-10650381D01*
X43632286Y-9650381D02*
X43156095Y-9650381D01*
X43108476Y-10126571D01*
X43156095Y-10078952D01*
X43251333Y-10031333D01*
X43489429Y-10031333D01*
X43584667Y-10078952D01*
X43632286Y-10126571D01*
X43679905Y-10221810D01*
X43679905Y-10459905D01*
X43632286Y-10555143D01*
X43584667Y-10602762D01*
X43489429Y-10650381D01*
X43251333Y-10650381D01*
X43156095Y-10602762D01*
X43108476Y-10555143D01*
X45585143Y-35701143D02*
X45537524Y-35748762D01*
X45394667Y-35796381D01*
X45299429Y-35796381D01*
X45156571Y-35748762D01*
X45061333Y-35653524D01*
X45013714Y-35558286D01*
X44966095Y-35367810D01*
X44966095Y-35224952D01*
X45013714Y-35034476D01*
X45061333Y-34939238D01*
X45156571Y-34844000D01*
X45299429Y-34796381D01*
X45394667Y-34796381D01*
X45537524Y-34844000D01*
X45585143Y-34891619D01*
X45966095Y-34891619D02*
X46013714Y-34844000D01*
X46108952Y-34796381D01*
X46347048Y-34796381D01*
X46442286Y-34844000D01*
X46489905Y-34891619D01*
X46537524Y-34986857D01*
X46537524Y-35082095D01*
X46489905Y-35224952D01*
X45918476Y-35796381D01*
X46537524Y-35796381D01*
X47394667Y-34796381D02*
X47204190Y-34796381D01*
X47108952Y-34844000D01*
X47061333Y-34891619D01*
X46966095Y-35034476D01*
X46918476Y-35224952D01*
X46918476Y-35605905D01*
X46966095Y-35701143D01*
X47013714Y-35748762D01*
X47108952Y-35796381D01*
X47299429Y-35796381D01*
X47394667Y-35748762D01*
X47442286Y-35701143D01*
X47489905Y-35605905D01*
X47489905Y-35367810D01*
X47442286Y-35272571D01*
X47394667Y-35224952D01*
X47299429Y-35177333D01*
X47108952Y-35177333D01*
X47013714Y-35224952D01*
X46966095Y-35272571D01*
X46918476Y-35367810D01*
X2373334Y-40294381D02*
X2040000Y-39818190D01*
X1801905Y-40294381D02*
X1801905Y-39294381D01*
X2182858Y-39294381D01*
X2278096Y-39342000D01*
X2325715Y-39389619D01*
X2373334Y-39484857D01*
X2373334Y-39627714D01*
X2325715Y-39722952D01*
X2278096Y-39770571D01*
X2182858Y-39818190D01*
X1801905Y-39818190D01*
X2706667Y-39294381D02*
X3325715Y-39294381D01*
X2992381Y-39675333D01*
X3135239Y-39675333D01*
X3230477Y-39722952D01*
X3278096Y-39770571D01*
X3325715Y-39865810D01*
X3325715Y-40103905D01*
X3278096Y-40199143D01*
X3230477Y-40246762D01*
X3135239Y-40294381D01*
X2849524Y-40294381D01*
X2754286Y-40246762D01*
X2706667Y-40199143D01*
X4770381Y-17476666D02*
X4294190Y-17810000D01*
X4770381Y-18048095D02*
X3770381Y-18048095D01*
X3770381Y-17667142D01*
X3818000Y-17571904D01*
X3865619Y-17524285D01*
X3960857Y-17476666D01*
X4103714Y-17476666D01*
X4198952Y-17524285D01*
X4246571Y-17571904D01*
X4294190Y-17667142D01*
X4294190Y-18048095D01*
X4103714Y-16619523D02*
X4770381Y-16619523D01*
X3722762Y-16857619D02*
X4437048Y-17095714D01*
X4437048Y-16476666D01*
X18629334Y-36304381D02*
X18296000Y-35828190D01*
X18057905Y-36304381D02*
X18057905Y-35304381D01*
X18438858Y-35304381D01*
X18534096Y-35352000D01*
X18581715Y-35399619D01*
X18629334Y-35494857D01*
X18629334Y-35637714D01*
X18581715Y-35732952D01*
X18534096Y-35780571D01*
X18438858Y-35828190D01*
X18057905Y-35828190D01*
X19534096Y-35304381D02*
X19057905Y-35304381D01*
X19010286Y-35780571D01*
X19057905Y-35732952D01*
X19153143Y-35685333D01*
X19391239Y-35685333D01*
X19486477Y-35732952D01*
X19534096Y-35780571D01*
X19581715Y-35875810D01*
X19581715Y-36113905D01*
X19534096Y-36209143D01*
X19486477Y-36256762D01*
X19391239Y-36304381D01*
X19153143Y-36304381D01*
X19057905Y-36256762D01*
X19010286Y-36209143D01*
X18629334Y-33256381D02*
X18296000Y-32780190D01*
X18057905Y-33256381D02*
X18057905Y-32256381D01*
X18438858Y-32256381D01*
X18534096Y-32304000D01*
X18581715Y-32351619D01*
X18629334Y-32446857D01*
X18629334Y-32589714D01*
X18581715Y-32684952D01*
X18534096Y-32732571D01*
X18438858Y-32780190D01*
X18057905Y-32780190D01*
X19486477Y-32256381D02*
X19296000Y-32256381D01*
X19200762Y-32304000D01*
X19153143Y-32351619D01*
X19057905Y-32494476D01*
X19010286Y-32684952D01*
X19010286Y-33065905D01*
X19057905Y-33161143D01*
X19105524Y-33208762D01*
X19200762Y-33256381D01*
X19391239Y-33256381D01*
X19486477Y-33208762D01*
X19534096Y-33161143D01*
X19581715Y-33065905D01*
X19581715Y-32827810D01*
X19534096Y-32732571D01*
X19486477Y-32684952D01*
X19391239Y-32637333D01*
X19200762Y-32637333D01*
X19105524Y-32684952D01*
X19057905Y-32732571D01*
X19010286Y-32827810D01*
X18367573Y-16105726D02*
X18468588Y-15533305D01*
X17963511Y-15701665D02*
X18670618Y-14994558D01*
X18939993Y-15263932D01*
X18973664Y-15364948D01*
X18973664Y-15432291D01*
X18939993Y-15533306D01*
X18838977Y-15634321D01*
X18737962Y-15667993D01*
X18670619Y-15667993D01*
X18569604Y-15634321D01*
X18300229Y-15364947D01*
X19310381Y-15634321D02*
X19781786Y-16105726D01*
X18771633Y-16509787D01*
X5024381Y-40336666D02*
X4548190Y-40670000D01*
X5024381Y-40908095D02*
X4024381Y-40908095D01*
X4024381Y-40527142D01*
X4072000Y-40431904D01*
X4119619Y-40384285D01*
X4214857Y-40336666D01*
X4357714Y-40336666D01*
X4452952Y-40384285D01*
X4500571Y-40431904D01*
X4548190Y-40527142D01*
X4548190Y-40908095D01*
X4452952Y-39765238D02*
X4405333Y-39860476D01*
X4357714Y-39908095D01*
X4262476Y-39955714D01*
X4214857Y-39955714D01*
X4119619Y-39908095D01*
X4072000Y-39860476D01*
X4024381Y-39765238D01*
X4024381Y-39574761D01*
X4072000Y-39479523D01*
X4119619Y-39431904D01*
X4214857Y-39384285D01*
X4262476Y-39384285D01*
X4357714Y-39431904D01*
X4405333Y-39479523D01*
X4452952Y-39574761D01*
X4452952Y-39765238D01*
X4500571Y-39860476D01*
X4548190Y-39908095D01*
X4643429Y-39955714D01*
X4833905Y-39955714D01*
X4929143Y-39908095D01*
X4976762Y-39860476D01*
X5024381Y-39765238D01*
X5024381Y-39574761D01*
X4976762Y-39479523D01*
X4929143Y-39431904D01*
X4833905Y-39384285D01*
X4643429Y-39384285D01*
X4548190Y-39431904D01*
X4500571Y-39479523D01*
X4452952Y-39574761D01*
X9088381Y-7316666D02*
X8612190Y-7650000D01*
X9088381Y-7888095D02*
X8088381Y-7888095D01*
X8088381Y-7507142D01*
X8136000Y-7411904D01*
X8183619Y-7364285D01*
X8278857Y-7316666D01*
X8421714Y-7316666D01*
X8516952Y-7364285D01*
X8564571Y-7411904D01*
X8612190Y-7507142D01*
X8612190Y-7888095D01*
X9088381Y-6840476D02*
X9088381Y-6650000D01*
X9040762Y-6554761D01*
X8993143Y-6507142D01*
X8850286Y-6411904D01*
X8659810Y-6364285D01*
X8278857Y-6364285D01*
X8183619Y-6411904D01*
X8136000Y-6459523D01*
X8088381Y-6554761D01*
X8088381Y-6745238D01*
X8136000Y-6840476D01*
X8183619Y-6888095D01*
X8278857Y-6935714D01*
X8516952Y-6935714D01*
X8612190Y-6888095D01*
X8659810Y-6840476D01*
X8707429Y-6745238D01*
X8707429Y-6554761D01*
X8659810Y-6459523D01*
X8612190Y-6411904D01*
X8516952Y-6364285D01*
X11041143Y-8364381D02*
X10707809Y-7888190D01*
X10469714Y-8364381D02*
X10469714Y-7364381D01*
X10850667Y-7364381D01*
X10945905Y-7412000D01*
X10993524Y-7459619D01*
X11041143Y-7554857D01*
X11041143Y-7697714D01*
X10993524Y-7792952D01*
X10945905Y-7840571D01*
X10850667Y-7888190D01*
X10469714Y-7888190D01*
X11993524Y-8364381D02*
X11422095Y-8364381D01*
X11707809Y-8364381D02*
X11707809Y-7364381D01*
X11612571Y-7507238D01*
X11517333Y-7602476D01*
X11422095Y-7650095D01*
X12374476Y-7459619D02*
X12422095Y-7412000D01*
X12517333Y-7364381D01*
X12755429Y-7364381D01*
X12850667Y-7412000D01*
X12898286Y-7459619D01*
X12945905Y-7554857D01*
X12945905Y-7650095D01*
X12898286Y-7792952D01*
X12326857Y-8364381D01*
X12945905Y-8364381D01*
X12311143Y-40802381D02*
X11977809Y-40326190D01*
X11739714Y-40802381D02*
X11739714Y-39802381D01*
X12120667Y-39802381D01*
X12215905Y-39850000D01*
X12263524Y-39897619D01*
X12311143Y-39992857D01*
X12311143Y-40135714D01*
X12263524Y-40230952D01*
X12215905Y-40278571D01*
X12120667Y-40326190D01*
X11739714Y-40326190D01*
X13263524Y-40802381D02*
X12692095Y-40802381D01*
X12977809Y-40802381D02*
X12977809Y-39802381D01*
X12882571Y-39945238D01*
X12787333Y-40040476D01*
X12692095Y-40088095D01*
X14120667Y-40135714D02*
X14120667Y-40802381D01*
X13882571Y-39754762D02*
X13644476Y-40469048D01*
X14263524Y-40469048D01*
X16888381Y-9824857D02*
X16412190Y-10158191D01*
X16888381Y-10396286D02*
X15888381Y-10396286D01*
X15888381Y-10015333D01*
X15936000Y-9920095D01*
X15983619Y-9872476D01*
X16078857Y-9824857D01*
X16221714Y-9824857D01*
X16316952Y-9872476D01*
X16364571Y-9920095D01*
X16412190Y-10015333D01*
X16412190Y-10396286D01*
X16888381Y-8872476D02*
X16888381Y-9443905D01*
X16888381Y-9158191D02*
X15888381Y-9158191D01*
X16031238Y-9253429D01*
X16126476Y-9348667D01*
X16174095Y-9443905D01*
X15888381Y-7967714D02*
X15888381Y-8443905D01*
X16364571Y-8491524D01*
X16316952Y-8443905D01*
X16269333Y-8348667D01*
X16269333Y-8110571D01*
X16316952Y-8015333D01*
X16364571Y-7967714D01*
X16459810Y-7920095D01*
X16697905Y-7920095D01*
X16793143Y-7967714D01*
X16840762Y-8015333D01*
X16888381Y-8110571D01*
X16888381Y-8348667D01*
X16840762Y-8443905D01*
X16793143Y-8491524D01*
X10787143Y-36558381D02*
X10453809Y-36082190D01*
X10215714Y-36558381D02*
X10215714Y-35558381D01*
X10596667Y-35558381D01*
X10691905Y-35606000D01*
X10739524Y-35653619D01*
X10787143Y-35748857D01*
X10787143Y-35891714D01*
X10739524Y-35986952D01*
X10691905Y-36034571D01*
X10596667Y-36082190D01*
X10215714Y-36082190D01*
X11739524Y-36558381D02*
X11168095Y-36558381D01*
X11453809Y-36558381D02*
X11453809Y-35558381D01*
X11358571Y-35701238D01*
X11263333Y-35796476D01*
X11168095Y-35844095D01*
X12596667Y-35558381D02*
X12406190Y-35558381D01*
X12310952Y-35606000D01*
X12263333Y-35653619D01*
X12168095Y-35796476D01*
X12120476Y-35986952D01*
X12120476Y-36367905D01*
X12168095Y-36463143D01*
X12215714Y-36510762D01*
X12310952Y-36558381D01*
X12501429Y-36558381D01*
X12596667Y-36510762D01*
X12644286Y-36463143D01*
X12691905Y-36367905D01*
X12691905Y-36129810D01*
X12644286Y-36034571D01*
X12596667Y-35986952D01*
X12501429Y-35939333D01*
X12310952Y-35939333D01*
X12215714Y-35986952D01*
X12168095Y-36034571D01*
X12120476Y-36129810D01*
X16629143Y-14206381D02*
X16295809Y-13730190D01*
X16057714Y-14206381D02*
X16057714Y-13206381D01*
X16438667Y-13206381D01*
X16533905Y-13254000D01*
X16581524Y-13301619D01*
X16629143Y-13396857D01*
X16629143Y-13539714D01*
X16581524Y-13634952D01*
X16533905Y-13682571D01*
X16438667Y-13730190D01*
X16057714Y-13730190D01*
X17581524Y-14206381D02*
X17010095Y-14206381D01*
X17295809Y-14206381D02*
X17295809Y-13206381D01*
X17200571Y-13349238D01*
X17105333Y-13444476D01*
X17010095Y-13492095D01*
X17914857Y-13206381D02*
X18581524Y-13206381D01*
X18152952Y-14206381D01*
X40838381Y-16428857D02*
X40362190Y-16762191D01*
X40838381Y-17000286D02*
X39838381Y-17000286D01*
X39838381Y-16619333D01*
X39886000Y-16524095D01*
X39933619Y-16476476D01*
X40028857Y-16428857D01*
X40171714Y-16428857D01*
X40266952Y-16476476D01*
X40314571Y-16524095D01*
X40362190Y-16619333D01*
X40362190Y-17000286D01*
X40838381Y-15476476D02*
X40838381Y-16047905D01*
X40838381Y-15762191D02*
X39838381Y-15762191D01*
X39981238Y-15857429D01*
X40076476Y-15952667D01*
X40124095Y-16047905D01*
X40266952Y-14905048D02*
X40219333Y-15000286D01*
X40171714Y-15047905D01*
X40076476Y-15095524D01*
X40028857Y-15095524D01*
X39933619Y-15047905D01*
X39886000Y-15000286D01*
X39838381Y-14905048D01*
X39838381Y-14714571D01*
X39886000Y-14619333D01*
X39933619Y-14571714D01*
X40028857Y-14524095D01*
X40076476Y-14524095D01*
X40171714Y-14571714D01*
X40219333Y-14619333D01*
X40266952Y-14714571D01*
X40266952Y-14905048D01*
X40314571Y-15000286D01*
X40362190Y-15047905D01*
X40457429Y-15095524D01*
X40647905Y-15095524D01*
X40743143Y-15047905D01*
X40790762Y-15000286D01*
X40838381Y-14905048D01*
X40838381Y-14714571D01*
X40790762Y-14619333D01*
X40743143Y-14571714D01*
X40647905Y-14524095D01*
X40457429Y-14524095D01*
X40362190Y-14571714D01*
X40314571Y-14619333D01*
X40266952Y-14714571D01*
X49446381Y-14876857D02*
X48970190Y-15210191D01*
X49446381Y-15448286D02*
X48446381Y-15448286D01*
X48446381Y-15067333D01*
X48494000Y-14972095D01*
X48541619Y-14924476D01*
X48636857Y-14876857D01*
X48779714Y-14876857D01*
X48874952Y-14924476D01*
X48922571Y-14972095D01*
X48970190Y-15067333D01*
X48970190Y-15448286D01*
X48541619Y-14495905D02*
X48494000Y-14448286D01*
X48446381Y-14353048D01*
X48446381Y-14114952D01*
X48494000Y-14019714D01*
X48541619Y-13972095D01*
X48636857Y-13924476D01*
X48732095Y-13924476D01*
X48874952Y-13972095D01*
X49446381Y-14543524D01*
X49446381Y-13924476D01*
X48446381Y-13305429D02*
X48446381Y-13210190D01*
X48494000Y-13114952D01*
X48541619Y-13067333D01*
X48636857Y-13019714D01*
X48827333Y-12972095D01*
X49065429Y-12972095D01*
X49255905Y-13019714D01*
X49351143Y-13067333D01*
X49398762Y-13114952D01*
X49446381Y-13210190D01*
X49446381Y-13305429D01*
X49398762Y-13400667D01*
X49351143Y-13448286D01*
X49255905Y-13495905D01*
X49065429Y-13543524D01*
X48827333Y-13543524D01*
X48636857Y-13495905D01*
X48541619Y-13448286D01*
X48494000Y-13400667D01*
X48446381Y-13305429D01*
X46172381Y-33192857D02*
X45696190Y-33526191D01*
X46172381Y-33764286D02*
X45172381Y-33764286D01*
X45172381Y-33383333D01*
X45220000Y-33288095D01*
X45267619Y-33240476D01*
X45362857Y-33192857D01*
X45505714Y-33192857D01*
X45600952Y-33240476D01*
X45648571Y-33288095D01*
X45696190Y-33383333D01*
X45696190Y-33764286D01*
X45267619Y-32811905D02*
X45220000Y-32764286D01*
X45172381Y-32669048D01*
X45172381Y-32430952D01*
X45220000Y-32335714D01*
X45267619Y-32288095D01*
X45362857Y-32240476D01*
X45458095Y-32240476D01*
X45600952Y-32288095D01*
X46172381Y-32859524D01*
X46172381Y-32240476D01*
X46172381Y-31288095D02*
X46172381Y-31859524D01*
X46172381Y-31573810D02*
X45172381Y-31573810D01*
X45315238Y-31669048D01*
X45410476Y-31764286D01*
X45458095Y-31859524D01*
X30472143Y-33457381D02*
X30138809Y-32981190D01*
X29900714Y-33457381D02*
X29900714Y-32457381D01*
X30281667Y-32457381D01*
X30376905Y-32505000D01*
X30424524Y-32552619D01*
X30472143Y-32647857D01*
X30472143Y-32790714D01*
X30424524Y-32885952D01*
X30376905Y-32933571D01*
X30281667Y-32981190D01*
X29900714Y-32981190D01*
X30853095Y-32552619D02*
X30900714Y-32505000D01*
X30995952Y-32457381D01*
X31234048Y-32457381D01*
X31329286Y-32505000D01*
X31376905Y-32552619D01*
X31424524Y-32647857D01*
X31424524Y-32743095D01*
X31376905Y-32885952D01*
X30805476Y-33457381D01*
X31424524Y-33457381D01*
X31805476Y-32552619D02*
X31853095Y-32505000D01*
X31948333Y-32457381D01*
X32186429Y-32457381D01*
X32281667Y-32505000D01*
X32329286Y-32552619D01*
X32376905Y-32647857D01*
X32376905Y-32743095D01*
X32329286Y-32885952D01*
X31757857Y-33457381D01*
X32376905Y-33457381D01*
X30472143Y-35997381D02*
X30138809Y-35521190D01*
X29900714Y-35997381D02*
X29900714Y-34997381D01*
X30281667Y-34997381D01*
X30376905Y-35045000D01*
X30424524Y-35092619D01*
X30472143Y-35187857D01*
X30472143Y-35330714D01*
X30424524Y-35425952D01*
X30376905Y-35473571D01*
X30281667Y-35521190D01*
X29900714Y-35521190D01*
X30853095Y-35092619D02*
X30900714Y-35045000D01*
X30995952Y-34997381D01*
X31234048Y-34997381D01*
X31329286Y-35045000D01*
X31376905Y-35092619D01*
X31424524Y-35187857D01*
X31424524Y-35283095D01*
X31376905Y-35425952D01*
X30805476Y-35997381D01*
X31424524Y-35997381D01*
X31757857Y-34997381D02*
X32376905Y-34997381D01*
X32043571Y-35378333D01*
X32186429Y-35378333D01*
X32281667Y-35425952D01*
X32329286Y-35473571D01*
X32376905Y-35568810D01*
X32376905Y-35806905D01*
X32329286Y-35902143D01*
X32281667Y-35949762D01*
X32186429Y-35997381D01*
X31900714Y-35997381D01*
X31805476Y-35949762D01*
X31757857Y-35902143D01*
X43124381Y-40812857D02*
X42648190Y-41146191D01*
X43124381Y-41384286D02*
X42124381Y-41384286D01*
X42124381Y-41003333D01*
X42172000Y-40908095D01*
X42219619Y-40860476D01*
X42314857Y-40812857D01*
X42457714Y-40812857D01*
X42552952Y-40860476D01*
X42600571Y-40908095D01*
X42648190Y-41003333D01*
X42648190Y-41384286D01*
X42219619Y-40431905D02*
X42172000Y-40384286D01*
X42124381Y-40289048D01*
X42124381Y-40050952D01*
X42172000Y-39955714D01*
X42219619Y-39908095D01*
X42314857Y-39860476D01*
X42410095Y-39860476D01*
X42552952Y-39908095D01*
X43124381Y-40479524D01*
X43124381Y-39860476D01*
X42124381Y-38955714D02*
X42124381Y-39431905D01*
X42600571Y-39479524D01*
X42552952Y-39431905D01*
X42505333Y-39336667D01*
X42505333Y-39098571D01*
X42552952Y-39003333D01*
X42600571Y-38955714D01*
X42695810Y-38908095D01*
X42933905Y-38908095D01*
X43029143Y-38955714D01*
X43076762Y-39003333D01*
X43124381Y-39098571D01*
X43124381Y-39336667D01*
X43076762Y-39431905D01*
X43029143Y-39479524D01*
X34742381Y-10078857D02*
X34266190Y-10412191D01*
X34742381Y-10650286D02*
X33742381Y-10650286D01*
X33742381Y-10269333D01*
X33790000Y-10174095D01*
X33837619Y-10126476D01*
X33932857Y-10078857D01*
X34075714Y-10078857D01*
X34170952Y-10126476D01*
X34218571Y-10174095D01*
X34266190Y-10269333D01*
X34266190Y-10650286D01*
X33837619Y-9697905D02*
X33790000Y-9650286D01*
X33742381Y-9555048D01*
X33742381Y-9316952D01*
X33790000Y-9221714D01*
X33837619Y-9174095D01*
X33932857Y-9126476D01*
X34028095Y-9126476D01*
X34170952Y-9174095D01*
X34742381Y-9745524D01*
X34742381Y-9126476D01*
X33742381Y-8269333D02*
X33742381Y-8459810D01*
X33790000Y-8555048D01*
X33837619Y-8602667D01*
X33980476Y-8697905D01*
X34170952Y-8745524D01*
X34551905Y-8745524D01*
X34647143Y-8697905D01*
X34694762Y-8650286D01*
X34742381Y-8555048D01*
X34742381Y-8364571D01*
X34694762Y-8269333D01*
X34647143Y-8221714D01*
X34551905Y-8174095D01*
X34313810Y-8174095D01*
X34218571Y-8221714D01*
X34170952Y-8269333D01*
X34123333Y-8364571D01*
X34123333Y-8555048D01*
X34170952Y-8650286D01*
X34218571Y-8697905D01*
X34313810Y-8745524D01*
X35758381Y-14142857D02*
X35282190Y-14476191D01*
X35758381Y-14714286D02*
X34758381Y-14714286D01*
X34758381Y-14333333D01*
X34806000Y-14238095D01*
X34853619Y-14190476D01*
X34948857Y-14142857D01*
X35091714Y-14142857D01*
X35186952Y-14190476D01*
X35234571Y-14238095D01*
X35282190Y-14333333D01*
X35282190Y-14714286D01*
X34853619Y-13761905D02*
X34806000Y-13714286D01*
X34758381Y-13619048D01*
X34758381Y-13380952D01*
X34806000Y-13285714D01*
X34853619Y-13238095D01*
X34948857Y-13190476D01*
X35044095Y-13190476D01*
X35186952Y-13238095D01*
X35758381Y-13809524D01*
X35758381Y-13190476D01*
X34758381Y-12857143D02*
X34758381Y-12190476D01*
X35758381Y-12619048D01*
X45077143Y-41638381D02*
X44743809Y-41162190D01*
X44505714Y-41638381D02*
X44505714Y-40638381D01*
X44886667Y-40638381D01*
X44981905Y-40686000D01*
X45029524Y-40733619D01*
X45077143Y-40828857D01*
X45077143Y-40971714D01*
X45029524Y-41066952D01*
X44981905Y-41114571D01*
X44886667Y-41162190D01*
X44505714Y-41162190D01*
X45458095Y-40733619D02*
X45505714Y-40686000D01*
X45600952Y-40638381D01*
X45839048Y-40638381D01*
X45934286Y-40686000D01*
X45981905Y-40733619D01*
X46029524Y-40828857D01*
X46029524Y-40924095D01*
X45981905Y-41066952D01*
X45410476Y-41638381D01*
X46029524Y-41638381D01*
X46600952Y-41066952D02*
X46505714Y-41019333D01*
X46458095Y-40971714D01*
X46410476Y-40876476D01*
X46410476Y-40828857D01*
X46458095Y-40733619D01*
X46505714Y-40686000D01*
X46600952Y-40638381D01*
X46791429Y-40638381D01*
X46886667Y-40686000D01*
X46934286Y-40733619D01*
X46981905Y-40828857D01*
X46981905Y-40876476D01*
X46934286Y-40971714D01*
X46886667Y-41019333D01*
X46791429Y-41066952D01*
X46600952Y-41066952D01*
X46505714Y-41114571D01*
X46458095Y-41162190D01*
X46410476Y-41257429D01*
X46410476Y-41447905D01*
X46458095Y-41543143D01*
X46505714Y-41590762D01*
X46600952Y-41638381D01*
X46791429Y-41638381D01*
X46886667Y-41590762D01*
X46934286Y-41543143D01*
X46981905Y-41447905D01*
X46981905Y-41257429D01*
X46934286Y-41162190D01*
X46886667Y-41114571D01*
X46791429Y-41066952D01*
X44061143Y-7348381D02*
X43727809Y-6872190D01*
X43489714Y-7348381D02*
X43489714Y-6348381D01*
X43870667Y-6348381D01*
X43965905Y-6396000D01*
X44013524Y-6443619D01*
X44061143Y-6538857D01*
X44061143Y-6681714D01*
X44013524Y-6776952D01*
X43965905Y-6824571D01*
X43870667Y-6872190D01*
X43489714Y-6872190D01*
X44394476Y-6348381D02*
X45013524Y-6348381D01*
X44680190Y-6729333D01*
X44823048Y-6729333D01*
X44918286Y-6776952D01*
X44965905Y-6824571D01*
X45013524Y-6919810D01*
X45013524Y-7157905D01*
X44965905Y-7253143D01*
X44918286Y-7300762D01*
X44823048Y-7348381D01*
X44537333Y-7348381D01*
X44442095Y-7300762D01*
X44394476Y-7253143D01*
X45632571Y-6348381D02*
X45727810Y-6348381D01*
X45823048Y-6396000D01*
X45870667Y-6443619D01*
X45918286Y-6538857D01*
X45965905Y-6729333D01*
X45965905Y-6967429D01*
X45918286Y-7157905D01*
X45870667Y-7253143D01*
X45823048Y-7300762D01*
X45727810Y-7348381D01*
X45632571Y-7348381D01*
X45537333Y-7300762D01*
X45489714Y-7253143D01*
X45442095Y-7157905D01*
X45394476Y-6967429D01*
X45394476Y-6729333D01*
X45442095Y-6538857D01*
X45489714Y-6443619D01*
X45537333Y-6396000D01*
X45632571Y-6348381D01*
X49220381Y-42336857D02*
X48744190Y-42670191D01*
X49220381Y-42908286D02*
X48220381Y-42908286D01*
X48220381Y-42527333D01*
X48268000Y-42432095D01*
X48315619Y-42384476D01*
X48410857Y-42336857D01*
X48553714Y-42336857D01*
X48648952Y-42384476D01*
X48696571Y-42432095D01*
X48744190Y-42527333D01*
X48744190Y-42908286D01*
X48220381Y-42003524D02*
X48220381Y-41384476D01*
X48601333Y-41717810D01*
X48601333Y-41574952D01*
X48648952Y-41479714D01*
X48696571Y-41432095D01*
X48791810Y-41384476D01*
X49029905Y-41384476D01*
X49125143Y-41432095D01*
X49172762Y-41479714D01*
X49220381Y-41574952D01*
X49220381Y-41860667D01*
X49172762Y-41955905D01*
X49125143Y-42003524D01*
X49220381Y-40432095D02*
X49220381Y-41003524D01*
X49220381Y-40717810D02*
X48220381Y-40717810D01*
X48363238Y-40813048D01*
X48458476Y-40908286D01*
X48506095Y-41003524D01*
X39743143Y-7348381D02*
X39409809Y-6872190D01*
X39171714Y-7348381D02*
X39171714Y-6348381D01*
X39552667Y-6348381D01*
X39647905Y-6396000D01*
X39695524Y-6443619D01*
X39743143Y-6538857D01*
X39743143Y-6681714D01*
X39695524Y-6776952D01*
X39647905Y-6824571D01*
X39552667Y-6872190D01*
X39171714Y-6872190D01*
X40076476Y-6348381D02*
X40695524Y-6348381D01*
X40362190Y-6729333D01*
X40505048Y-6729333D01*
X40600286Y-6776952D01*
X40647905Y-6824571D01*
X40695524Y-6919810D01*
X40695524Y-7157905D01*
X40647905Y-7253143D01*
X40600286Y-7300762D01*
X40505048Y-7348381D01*
X40219333Y-7348381D01*
X40124095Y-7300762D01*
X40076476Y-7253143D01*
X41076476Y-6443619D02*
X41124095Y-6396000D01*
X41219333Y-6348381D01*
X41457429Y-6348381D01*
X41552667Y-6396000D01*
X41600286Y-6443619D01*
X41647905Y-6538857D01*
X41647905Y-6634095D01*
X41600286Y-6776952D01*
X41028857Y-7348381D01*
X41647905Y-7348381D01*
X36187143Y-41130381D02*
X35853809Y-40654190D01*
X35615714Y-41130381D02*
X35615714Y-40130381D01*
X35996667Y-40130381D01*
X36091905Y-40178000D01*
X36139524Y-40225619D01*
X36187143Y-40320857D01*
X36187143Y-40463714D01*
X36139524Y-40558952D01*
X36091905Y-40606571D01*
X35996667Y-40654190D01*
X35615714Y-40654190D01*
X36520476Y-40130381D02*
X37139524Y-40130381D01*
X36806190Y-40511333D01*
X36949048Y-40511333D01*
X37044286Y-40558952D01*
X37091905Y-40606571D01*
X37139524Y-40701810D01*
X37139524Y-40939905D01*
X37091905Y-41035143D01*
X37044286Y-41082762D01*
X36949048Y-41130381D01*
X36663333Y-41130381D01*
X36568095Y-41082762D01*
X36520476Y-41035143D01*
X37472857Y-40130381D02*
X38091905Y-40130381D01*
X37758571Y-40511333D01*
X37901429Y-40511333D01*
X37996667Y-40558952D01*
X38044286Y-40606571D01*
X38091905Y-40701810D01*
X38091905Y-40939905D01*
X38044286Y-41035143D01*
X37996667Y-41082762D01*
X37901429Y-41130381D01*
X37615714Y-41130381D01*
X37520476Y-41082762D01*
X37472857Y-41035143D01*
X4476762Y-37669619D02*
X4381524Y-37622000D01*
X4286286Y-37526762D01*
X4143429Y-37383905D01*
X4048190Y-37336286D01*
X3952952Y-37336286D01*
X4000571Y-37574381D02*
X3905333Y-37526762D01*
X3810095Y-37431524D01*
X3762476Y-37241048D01*
X3762476Y-36907714D01*
X3810095Y-36717238D01*
X3905333Y-36622000D01*
X4000571Y-36574381D01*
X4191048Y-36574381D01*
X4286286Y-36622000D01*
X4381524Y-36717238D01*
X4429143Y-36907714D01*
X4429143Y-37241048D01*
X4381524Y-37431524D01*
X4286286Y-37526762D01*
X4191048Y-37574381D01*
X4000571Y-37574381D01*
X5381524Y-37574381D02*
X4810095Y-37574381D01*
X5095809Y-37574381D02*
X5095809Y-36574381D01*
X5000571Y-36717238D01*
X4905333Y-36812476D01*
X4810095Y-36860095D01*
X34547619Y-37095238D02*
X34500000Y-37190476D01*
X34404762Y-37285714D01*
X34261905Y-37428571D01*
X34214286Y-37523810D01*
X34214286Y-37619048D01*
X34452381Y-37571429D02*
X34404762Y-37666667D01*
X34309524Y-37761905D01*
X34119048Y-37809524D01*
X33785714Y-37809524D01*
X33595238Y-37761905D01*
X33500000Y-37666667D01*
X33452381Y-37571429D01*
X33452381Y-37380952D01*
X33500000Y-37285714D01*
X33595238Y-37190476D01*
X33785714Y-37142857D01*
X34119048Y-37142857D01*
X34309524Y-37190476D01*
X34404762Y-37285714D01*
X34452381Y-37380952D01*
X34452381Y-37571429D01*
X33880952Y-36571429D02*
X33833333Y-36666667D01*
X33785714Y-36714286D01*
X33690476Y-36761905D01*
X33642857Y-36761905D01*
X33547619Y-36714286D01*
X33500000Y-36666667D01*
X33452381Y-36571429D01*
X33452381Y-36380952D01*
X33500000Y-36285714D01*
X33547619Y-36238095D01*
X33642857Y-36190476D01*
X33690476Y-36190476D01*
X33785714Y-36238095D01*
X33833333Y-36285714D01*
X33880952Y-36380952D01*
X33880952Y-36571429D01*
X33928571Y-36666667D01*
X33976190Y-36714286D01*
X34071429Y-36761905D01*
X34261905Y-36761905D01*
X34357143Y-36714286D01*
X34404762Y-36666667D01*
X34452381Y-36571429D01*
X34452381Y-36380952D01*
X34404762Y-36285714D01*
X34357143Y-36238095D01*
X34261905Y-36190476D01*
X34071429Y-36190476D01*
X33976190Y-36238095D01*
X33928571Y-36285714D01*
X33880952Y-36380952D01*
X36988762Y-7189619D02*
X36893524Y-7142000D01*
X36798286Y-7046762D01*
X36655429Y-6903905D01*
X36560190Y-6856286D01*
X36464952Y-6856286D01*
X36512571Y-7094381D02*
X36417333Y-7046762D01*
X36322095Y-6951524D01*
X36274476Y-6761048D01*
X36274476Y-6427714D01*
X36322095Y-6237238D01*
X36417333Y-6142000D01*
X36512571Y-6094381D01*
X36703048Y-6094381D01*
X36798286Y-6142000D01*
X36893524Y-6237238D01*
X36941143Y-6427714D01*
X36941143Y-6761048D01*
X36893524Y-6951524D01*
X36798286Y-7046762D01*
X36703048Y-7094381D01*
X36512571Y-7094381D01*
X37274476Y-6094381D02*
X37941143Y-6094381D01*
X37512571Y-7094381D01*
X42965619Y-30613238D02*
X42918000Y-30708476D01*
X42822762Y-30803714D01*
X42679905Y-30946571D01*
X42632286Y-31041810D01*
X42632286Y-31137048D01*
X42870381Y-31089429D02*
X42822762Y-31184667D01*
X42727524Y-31279905D01*
X42537048Y-31327524D01*
X42203714Y-31327524D01*
X42013238Y-31279905D01*
X41918000Y-31184667D01*
X41870381Y-31089429D01*
X41870381Y-30898952D01*
X41918000Y-30803714D01*
X42013238Y-30708476D01*
X42203714Y-30660857D01*
X42537048Y-30660857D01*
X42727524Y-30708476D01*
X42822762Y-30803714D01*
X42870381Y-30898952D01*
X42870381Y-31089429D01*
X41870381Y-29803714D02*
X41870381Y-29994191D01*
X41918000Y-30089429D01*
X41965619Y-30137048D01*
X42108476Y-30232286D01*
X42298952Y-30279905D01*
X42679905Y-30279905D01*
X42775143Y-30232286D01*
X42822762Y-30184667D01*
X42870381Y-30089429D01*
X42870381Y-29898952D01*
X42822762Y-29803714D01*
X42775143Y-29756095D01*
X42679905Y-29708476D01*
X42441810Y-29708476D01*
X42346571Y-29756095D01*
X42298952Y-29803714D01*
X42251333Y-29898952D01*
X42251333Y-30089429D01*
X42298952Y-30184667D01*
X42346571Y-30232286D01*
X42441810Y-30279905D01*
X43338762Y-16587619D02*
X43243524Y-16540000D01*
X43148286Y-16444762D01*
X43005429Y-16301905D01*
X42910190Y-16254286D01*
X42814952Y-16254286D01*
X42862571Y-16492381D02*
X42767333Y-16444762D01*
X42672095Y-16349524D01*
X42624476Y-16159048D01*
X42624476Y-15825714D01*
X42672095Y-15635238D01*
X42767333Y-15540000D01*
X42862571Y-15492381D01*
X43053048Y-15492381D01*
X43148286Y-15540000D01*
X43243524Y-15635238D01*
X43291143Y-15825714D01*
X43291143Y-16159048D01*
X43243524Y-16349524D01*
X43148286Y-16444762D01*
X43053048Y-16492381D01*
X42862571Y-16492381D01*
X44195905Y-15492381D02*
X43719714Y-15492381D01*
X43672095Y-15968571D01*
X43719714Y-15920952D01*
X43814952Y-15873333D01*
X44053048Y-15873333D01*
X44148286Y-15920952D01*
X44195905Y-15968571D01*
X44243524Y-16063810D01*
X44243524Y-16301905D01*
X44195905Y-16397143D01*
X44148286Y-16444762D01*
X44053048Y-16492381D01*
X43814952Y-16492381D01*
X43719714Y-16444762D01*
X43672095Y-16397143D01*
X16414762Y-12523619D02*
X16319524Y-12476000D01*
X16224286Y-12380762D01*
X16081429Y-12237905D01*
X15986190Y-12190286D01*
X15890952Y-12190286D01*
X15938571Y-12428381D02*
X15843333Y-12380762D01*
X15748095Y-12285524D01*
X15700476Y-12095048D01*
X15700476Y-11761714D01*
X15748095Y-11571238D01*
X15843333Y-11476000D01*
X15938571Y-11428381D01*
X16129048Y-11428381D01*
X16224286Y-11476000D01*
X16319524Y-11571238D01*
X16367143Y-11761714D01*
X16367143Y-12095048D01*
X16319524Y-12285524D01*
X16224286Y-12380762D01*
X16129048Y-12428381D01*
X15938571Y-12428381D01*
X17224286Y-11761714D02*
X17224286Y-12428381D01*
X16986190Y-11380762D02*
X16748095Y-12095048D01*
X17367143Y-12095048D01*
X11334762Y-42749619D02*
X11239524Y-42702000D01*
X11144286Y-42606762D01*
X11001429Y-42463905D01*
X10906190Y-42416286D01*
X10810952Y-42416286D01*
X10858571Y-42654381D02*
X10763333Y-42606762D01*
X10668095Y-42511524D01*
X10620476Y-42321048D01*
X10620476Y-41987714D01*
X10668095Y-41797238D01*
X10763333Y-41702000D01*
X10858571Y-41654381D01*
X11049048Y-41654381D01*
X11144286Y-41702000D01*
X11239524Y-41797238D01*
X11287143Y-41987714D01*
X11287143Y-42321048D01*
X11239524Y-42511524D01*
X11144286Y-42606762D01*
X11049048Y-42654381D01*
X10858571Y-42654381D01*
X11620476Y-41654381D02*
X12239524Y-41654381D01*
X11906190Y-42035333D01*
X12049048Y-42035333D01*
X12144286Y-42082952D01*
X12191905Y-42130571D01*
X12239524Y-42225810D01*
X12239524Y-42463905D01*
X12191905Y-42559143D01*
X12144286Y-42606762D01*
X12049048Y-42654381D01*
X11763333Y-42654381D01*
X11668095Y-42606762D01*
X11620476Y-42559143D01*
X42926095Y-22350381D02*
X42926095Y-23159905D01*
X42973714Y-23255143D01*
X43021333Y-23302762D01*
X43116571Y-23350381D01*
X43307048Y-23350381D01*
X43402286Y-23302762D01*
X43449905Y-23255143D01*
X43497524Y-23159905D01*
X43497524Y-22350381D01*
X44449905Y-22350381D02*
X43973714Y-22350381D01*
X43926095Y-22826571D01*
X43973714Y-22778952D01*
X44068952Y-22731333D01*
X44307048Y-22731333D01*
X44402286Y-22778952D01*
X44449905Y-22826571D01*
X44497524Y-22921810D01*
X44497524Y-23159905D01*
X44449905Y-23255143D01*
X44402286Y-23302762D01*
X44307048Y-23350381D01*
X44068952Y-23350381D01*
X43973714Y-23302762D01*
X43926095Y-23255143D01*
X5588095Y-26160381D02*
X5588095Y-26969905D01*
X5635714Y-27065143D01*
X5683333Y-27112762D01*
X5778571Y-27160381D01*
X5969048Y-27160381D01*
X6064286Y-27112762D01*
X6111905Y-27065143D01*
X6159524Y-26969905D01*
X6159524Y-26160381D01*
X7159524Y-27160381D02*
X6588095Y-27160381D01*
X6873809Y-27160381D02*
X6873809Y-26160381D01*
X6778571Y-26303238D01*
X6683333Y-26398476D01*
X6588095Y-26446095D01*
X46426381Y-28573238D02*
X45950190Y-28906572D01*
X46426381Y-29144667D02*
X45426381Y-29144667D01*
X45426381Y-28763714D01*
X45474000Y-28668476D01*
X45521619Y-28620857D01*
X45616857Y-28573238D01*
X45759714Y-28573238D01*
X45854952Y-28620857D01*
X45902571Y-28668476D01*
X45950190Y-28763714D01*
X45950190Y-29144667D01*
X45426381Y-28287524D02*
X46426381Y-27954191D01*
X45426381Y-27620857D01*
X45759714Y-26858952D02*
X46426381Y-26858952D01*
X45378762Y-27097048D02*
X46093048Y-27335143D01*
X46093048Y-26716095D01*
X46426381Y-25271238D02*
X45950190Y-25604572D01*
X46426381Y-25842667D02*
X45426381Y-25842667D01*
X45426381Y-25461714D01*
X45474000Y-25366476D01*
X45521619Y-25318857D01*
X45616857Y-25271238D01*
X45759714Y-25271238D01*
X45854952Y-25318857D01*
X45902571Y-25366476D01*
X45950190Y-25461714D01*
X45950190Y-25842667D01*
X45426381Y-24985524D02*
X46426381Y-24652191D01*
X45426381Y-24318857D01*
X45426381Y-24080762D02*
X45426381Y-23461714D01*
X45807333Y-23795048D01*
X45807333Y-23652190D01*
X45854952Y-23556952D01*
X45902571Y-23509333D01*
X45997810Y-23461714D01*
X46235905Y-23461714D01*
X46331143Y-23509333D01*
X46378762Y-23556952D01*
X46426381Y-23652190D01*
X46426381Y-23937905D01*
X46378762Y-24033143D01*
X46331143Y-24080762D01*
X4770381Y-24001238D02*
X4294190Y-24334572D01*
X4770381Y-24572667D02*
X3770381Y-24572667D01*
X3770381Y-24191714D01*
X3818000Y-24096476D01*
X3865619Y-24048857D01*
X3960857Y-24001238D01*
X4103714Y-24001238D01*
X4198952Y-24048857D01*
X4246571Y-24096476D01*
X4294190Y-24191714D01*
X4294190Y-24572667D01*
X3770381Y-23715524D02*
X4770381Y-23382191D01*
X3770381Y-23048857D01*
X3865619Y-22763143D02*
X3818000Y-22715524D01*
X3770381Y-22620286D01*
X3770381Y-22382190D01*
X3818000Y-22286952D01*
X3865619Y-22239333D01*
X3960857Y-22191714D01*
X4056095Y-22191714D01*
X4198952Y-22239333D01*
X4770381Y-22810762D01*
X4770381Y-22191714D01*
X4770381Y-27303238D02*
X4294190Y-27636572D01*
X4770381Y-27874667D02*
X3770381Y-27874667D01*
X3770381Y-27493714D01*
X3818000Y-27398476D01*
X3865619Y-27350857D01*
X3960857Y-27303238D01*
X4103714Y-27303238D01*
X4198952Y-27350857D01*
X4246571Y-27398476D01*
X4294190Y-27493714D01*
X4294190Y-27874667D01*
X3770381Y-27017524D02*
X4770381Y-26684191D01*
X3770381Y-26350857D01*
X4770381Y-25493714D02*
X4770381Y-26065143D01*
X4770381Y-25779429D02*
X3770381Y-25779429D01*
X3913238Y-25874667D01*
X4008476Y-25969905D01*
X4056095Y-26065143D01*
X31345143Y-13126857D02*
X31392762Y-13174476D01*
X31440381Y-13317333D01*
X31440381Y-13412571D01*
X31392762Y-13555429D01*
X31297524Y-13650667D01*
X31202286Y-13698286D01*
X31011810Y-13745905D01*
X30868952Y-13745905D01*
X30678476Y-13698286D01*
X30583238Y-13650667D01*
X30488000Y-13555429D01*
X30440381Y-13412571D01*
X30440381Y-13317333D01*
X30488000Y-13174476D01*
X30535619Y-13126857D01*
X31440381Y-12174476D02*
X31440381Y-12745905D01*
X31440381Y-12460191D02*
X30440381Y-12460191D01*
X30583238Y-12555429D01*
X30678476Y-12650667D01*
X30726095Y-12745905D01*
X30868952Y-11603048D02*
X30821333Y-11698286D01*
X30773714Y-11745905D01*
X30678476Y-11793524D01*
X30630857Y-11793524D01*
X30535619Y-11745905D01*
X30488000Y-11698286D01*
X30440381Y-11603048D01*
X30440381Y-11412571D01*
X30488000Y-11317333D01*
X30535619Y-11269714D01*
X30630857Y-11222095D01*
X30678476Y-11222095D01*
X30773714Y-11269714D01*
X30821333Y-11317333D01*
X30868952Y-11412571D01*
X30868952Y-11603048D01*
X30916571Y-11698286D01*
X30964190Y-11745905D01*
X31059429Y-11793524D01*
X31249905Y-11793524D01*
X31345143Y-11745905D01*
X31392762Y-11698286D01*
X31440381Y-11603048D01*
X31440381Y-11412571D01*
X31392762Y-11317333D01*
X31345143Y-11269714D01*
X31249905Y-11222095D01*
X31059429Y-11222095D01*
X30964190Y-11269714D01*
X30916571Y-11317333D01*
X30868952Y-11412571D01*
X22606095Y-11936381D02*
X22606095Y-12745905D01*
X22653714Y-12841143D01*
X22701333Y-12888762D01*
X22796571Y-12936381D01*
X22987048Y-12936381D01*
X23082286Y-12888762D01*
X23129905Y-12841143D01*
X23177524Y-12745905D01*
X23177524Y-11936381D01*
X24082286Y-12269714D02*
X24082286Y-12936381D01*
X23844190Y-11888762D02*
X23606095Y-12603048D01*
X24225143Y-12603048D01*
X22860095Y-9904381D02*
X22860095Y-10713905D01*
X22907714Y-10809143D01*
X22955333Y-10856762D01*
X23050571Y-10904381D01*
X23241048Y-10904381D01*
X23336286Y-10856762D01*
X23383905Y-10809143D01*
X23431524Y-10713905D01*
X23431524Y-9904381D01*
X23860095Y-9999619D02*
X23907714Y-9952000D01*
X24002952Y-9904381D01*
X24241048Y-9904381D01*
X24336286Y-9952000D01*
X24383905Y-9999619D01*
X24431524Y-10094857D01*
X24431524Y-10190095D01*
X24383905Y-10332952D01*
X23812476Y-10904381D01*
X24431524Y-10904381D01*
X33821619Y-44329238D02*
X33774000Y-44424476D01*
X33678762Y-44519714D01*
X33535905Y-44662571D01*
X33488286Y-44757810D01*
X33488286Y-44853048D01*
X33726381Y-44805429D02*
X33678762Y-44900667D01*
X33583524Y-44995905D01*
X33393048Y-45043524D01*
X33059714Y-45043524D01*
X32869238Y-44995905D01*
X32774000Y-44900667D01*
X32726381Y-44805429D01*
X32726381Y-44614952D01*
X32774000Y-44519714D01*
X32869238Y-44424476D01*
X33059714Y-44376857D01*
X33393048Y-44376857D01*
X33583524Y-44424476D01*
X33678762Y-44519714D01*
X33726381Y-44614952D01*
X33726381Y-44805429D01*
X33726381Y-43900667D02*
X33726381Y-43710191D01*
X33678762Y-43614952D01*
X33631143Y-43567333D01*
X33488286Y-43472095D01*
X33297810Y-43424476D01*
X32916857Y-43424476D01*
X32821619Y-43472095D01*
X32774000Y-43519714D01*
X32726381Y-43614952D01*
X32726381Y-43805429D01*
X32774000Y-43900667D01*
X32821619Y-43948286D01*
X32916857Y-43995905D01*
X33154952Y-43995905D01*
X33250190Y-43948286D01*
X33297810Y-43900667D01*
X33345429Y-43805429D01*
X33345429Y-43614952D01*
X33297810Y-43519714D01*
X33250190Y-43472095D01*
X33154952Y-43424476D01*
X30678381Y-45638857D02*
X30202190Y-45972191D01*
X30678381Y-46210286D02*
X29678381Y-46210286D01*
X29678381Y-45829333D01*
X29726000Y-45734095D01*
X29773619Y-45686476D01*
X29868857Y-45638857D01*
X30011714Y-45638857D01*
X30106952Y-45686476D01*
X30154571Y-45734095D01*
X30202190Y-45829333D01*
X30202190Y-46210286D01*
X29678381Y-45305524D02*
X29678381Y-44686476D01*
X30059333Y-45019810D01*
X30059333Y-44876952D01*
X30106952Y-44781714D01*
X30154571Y-44734095D01*
X30249810Y-44686476D01*
X30487905Y-44686476D01*
X30583143Y-44734095D01*
X30630762Y-44781714D01*
X30678381Y-44876952D01*
X30678381Y-45162667D01*
X30630762Y-45257905D01*
X30583143Y-45305524D01*
X30011714Y-43829333D02*
X30678381Y-43829333D01*
X29630762Y-44067429D02*
X30345048Y-44305524D01*
X30345048Y-43686476D01*
M02*
