G04 #@! TF.FileFunction,Other,Fab,Top*
%FSLAX46Y46*%
G04 Gerber Fmt 4.6, Leading zero omitted, Abs format (unit mm)*
G04 Created by KiCad (PCBNEW 4.0.6) date 07/20/17 01:45:34*
%MOMM*%
%LPD*%
G01*
G04 APERTURE LIST*
%ADD10C,0.100000*%
%ADD11C,0.150000*%
%ADD12C,0.075000*%
%ADD13C,0.120000*%
G04 APERTURE END LIST*
D10*
X40532000Y-88938000D02*
X39732000Y-88938000D01*
X40532000Y-87338000D02*
X40532000Y-88938000D01*
X39732000Y-87338000D02*
X40532000Y-87338000D01*
X39732000Y-88938000D02*
X39732000Y-87338000D01*
X13570000Y-81750000D02*
X14370000Y-81750000D01*
X13570000Y-83350000D02*
X13570000Y-81750000D01*
X14370000Y-83350000D02*
X13570000Y-83350000D01*
X14370000Y-81750000D02*
X14370000Y-83350000D01*
X12592000Y-68110000D02*
X11792000Y-68110000D01*
X12592000Y-66510000D02*
X12592000Y-68110000D01*
X11792000Y-66510000D02*
X12592000Y-66510000D01*
X11792000Y-68110000D02*
X11792000Y-66510000D01*
X32728000Y-69488000D02*
X32728000Y-68688000D01*
X34328000Y-69488000D02*
X32728000Y-69488000D01*
X34328000Y-68688000D02*
X34328000Y-69488000D01*
X32728000Y-68688000D02*
X34328000Y-68688000D01*
X7074000Y-80664000D02*
X7074000Y-79864000D01*
X8674000Y-80664000D02*
X7074000Y-80664000D01*
X8674000Y-79864000D02*
X8674000Y-80664000D01*
X7074000Y-79864000D02*
X8674000Y-79864000D01*
X9614000Y-69996000D02*
X9614000Y-69196000D01*
X11214000Y-69996000D02*
X9614000Y-69996000D01*
X11214000Y-69196000D02*
X11214000Y-69996000D01*
X9614000Y-69196000D02*
X11214000Y-69196000D01*
X24219000Y-92094000D02*
X24219000Y-91294000D01*
X25819000Y-92094000D02*
X24219000Y-92094000D01*
X25819000Y-91294000D02*
X25819000Y-92094000D01*
X24219000Y-91294000D02*
X25819000Y-91294000D01*
X22187000Y-56661000D02*
X22187000Y-55861000D01*
X23787000Y-56661000D02*
X22187000Y-56661000D01*
X23787000Y-55861000D02*
X23787000Y-56661000D01*
X22187000Y-55861000D02*
X23787000Y-55861000D01*
X30245000Y-53886000D02*
X29445000Y-53886000D01*
X30245000Y-52286000D02*
X30245000Y-53886000D01*
X29445000Y-52286000D02*
X30245000Y-52286000D01*
X29445000Y-53886000D02*
X29445000Y-52286000D01*
X6058000Y-83966000D02*
X6058000Y-83166000D01*
X7658000Y-83966000D02*
X6058000Y-83966000D01*
X7658000Y-83166000D02*
X7658000Y-83966000D01*
X6058000Y-83166000D02*
X7658000Y-83166000D01*
X8852000Y-64662000D02*
X8852000Y-63862000D01*
X10452000Y-64662000D02*
X8852000Y-64662000D01*
X10452000Y-63862000D02*
X10452000Y-64662000D01*
X8852000Y-63862000D02*
X10452000Y-63862000D01*
X6496000Y-87160000D02*
X5696000Y-87160000D01*
X6496000Y-85560000D02*
X6496000Y-87160000D01*
X5696000Y-85560000D02*
X6496000Y-85560000D01*
X5696000Y-87160000D02*
X5696000Y-85560000D01*
X6458000Y-60922000D02*
X7258000Y-60922000D01*
X6458000Y-62522000D02*
X6458000Y-60922000D01*
X7258000Y-62522000D02*
X6458000Y-62522000D01*
X7258000Y-60922000D02*
X7258000Y-62522000D01*
X28594000Y-58585000D02*
X27794000Y-58585000D01*
X28594000Y-56985000D02*
X28594000Y-58585000D01*
X27794000Y-56985000D02*
X28594000Y-56985000D01*
X27794000Y-58585000D02*
X27794000Y-56985000D01*
X37022000Y-68082000D02*
X36222000Y-68082000D01*
X37022000Y-66482000D02*
X37022000Y-68082000D01*
X36222000Y-66482000D02*
X37022000Y-66482000D01*
X36222000Y-68082000D02*
X36222000Y-66482000D01*
X37700000Y-81750000D02*
X38500000Y-81750000D01*
X37700000Y-83350000D02*
X37700000Y-81750000D01*
X38500000Y-83350000D02*
X37700000Y-83350000D01*
X38500000Y-81750000D02*
X38500000Y-83350000D01*
X44007000Y-69352000D02*
X43207000Y-69352000D01*
X44007000Y-67752000D02*
X44007000Y-69352000D01*
X43207000Y-67752000D02*
X44007000Y-67752000D01*
X43207000Y-69352000D02*
X43207000Y-67752000D01*
X40678000Y-79864000D02*
X40678000Y-80664000D01*
X39078000Y-79864000D02*
X40678000Y-79864000D01*
X39078000Y-80664000D02*
X39078000Y-79864000D01*
X40678000Y-80664000D02*
X39078000Y-80664000D01*
X43137000Y-63072000D02*
X43137000Y-63872000D01*
X41537000Y-63072000D02*
X43137000Y-63072000D01*
X41537000Y-63872000D02*
X41537000Y-63072000D01*
X43137000Y-63872000D02*
X41537000Y-63872000D01*
X40678000Y-84944000D02*
X40678000Y-85744000D01*
X39078000Y-84944000D02*
X40678000Y-84944000D01*
X39078000Y-85744000D02*
X39078000Y-84944000D01*
X40678000Y-85744000D02*
X39078000Y-85744000D01*
X41491000Y-61995000D02*
X41491000Y-61195000D01*
X43091000Y-61995000D02*
X41491000Y-61995000D01*
X43091000Y-61195000D02*
X43091000Y-61995000D01*
X41491000Y-61195000D02*
X43091000Y-61195000D01*
X43980000Y-86468000D02*
X43980000Y-87268000D01*
X42380000Y-86468000D02*
X43980000Y-86468000D01*
X42380000Y-87268000D02*
X42380000Y-86468000D01*
X43980000Y-87268000D02*
X42380000Y-87268000D01*
X8998000Y-82004000D02*
X9798000Y-82004000D01*
X8998000Y-83604000D02*
X8998000Y-82004000D01*
X9798000Y-83604000D02*
X8998000Y-83604000D01*
X9798000Y-82004000D02*
X9798000Y-83604000D01*
X11068000Y-67856000D02*
X10268000Y-67856000D01*
X11068000Y-66256000D02*
X11068000Y-67856000D01*
X10268000Y-66256000D02*
X11068000Y-66256000D01*
X10268000Y-67856000D02*
X10268000Y-66256000D01*
X3340000Y-87992000D02*
X3340000Y-88792000D01*
X1740000Y-87992000D02*
X3340000Y-87992000D01*
X1740000Y-88792000D02*
X1740000Y-87992000D01*
X3340000Y-88792000D02*
X1740000Y-88792000D01*
X5442000Y-66510000D02*
X6242000Y-66510000D01*
X5442000Y-68110000D02*
X5442000Y-66510000D01*
X6242000Y-68110000D02*
X5442000Y-68110000D01*
X6242000Y-66510000D02*
X6242000Y-68110000D01*
X19469000Y-86595000D02*
X19469000Y-87395000D01*
X17869000Y-86595000D02*
X19469000Y-86595000D01*
X17869000Y-87395000D02*
X17869000Y-86595000D01*
X19469000Y-87395000D02*
X17869000Y-87395000D01*
X19469000Y-83928000D02*
X19469000Y-84728000D01*
X17869000Y-83928000D02*
X19469000Y-83928000D01*
X17869000Y-84728000D02*
X17869000Y-83928000D01*
X19469000Y-84728000D02*
X17869000Y-84728000D01*
X16931472Y-66646157D02*
X17497157Y-66080472D01*
X18062843Y-67777528D02*
X16931472Y-66646157D01*
X18628528Y-67211843D02*
X18062843Y-67777528D01*
X17497157Y-66080472D02*
X18628528Y-67211843D01*
X6496000Y-90462000D02*
X5696000Y-90462000D01*
X6496000Y-88862000D02*
X6496000Y-90462000D01*
X5696000Y-88862000D02*
X6496000Y-88862000D01*
X5696000Y-90462000D02*
X5696000Y-88862000D01*
X9036000Y-60744000D02*
X8236000Y-60744000D01*
X9036000Y-59144000D02*
X9036000Y-60744000D01*
X8236000Y-59144000D02*
X9036000Y-59144000D01*
X8236000Y-60744000D02*
X8236000Y-59144000D01*
X9944000Y-88500000D02*
X9944000Y-89300000D01*
X8344000Y-88500000D02*
X9944000Y-88500000D01*
X8344000Y-89300000D02*
X8344000Y-88500000D01*
X9944000Y-89300000D02*
X8344000Y-89300000D01*
X8274000Y-87160000D02*
X7474000Y-87160000D01*
X8274000Y-85560000D02*
X8274000Y-87160000D01*
X7474000Y-85560000D02*
X8274000Y-85560000D01*
X7474000Y-87160000D02*
X7474000Y-85560000D01*
X12484000Y-58782000D02*
X12484000Y-59582000D01*
X10884000Y-58782000D02*
X12484000Y-58782000D01*
X10884000Y-59582000D02*
X10884000Y-58782000D01*
X12484000Y-59582000D02*
X10884000Y-59582000D01*
X8852000Y-62884000D02*
X8852000Y-62084000D01*
X10452000Y-62884000D02*
X8852000Y-62884000D01*
X10452000Y-62084000D02*
X10452000Y-62884000D01*
X8852000Y-62084000D02*
X10452000Y-62084000D01*
X13754000Y-88500000D02*
X13754000Y-89300000D01*
X12154000Y-88500000D02*
X13754000Y-88500000D01*
X12154000Y-89300000D02*
X12154000Y-88500000D01*
X13754000Y-89300000D02*
X12154000Y-89300000D01*
X14586000Y-58382000D02*
X15386000Y-58382000D01*
X14586000Y-59982000D02*
X14586000Y-58382000D01*
X15386000Y-59982000D02*
X14586000Y-59982000D01*
X15386000Y-58382000D02*
X15386000Y-59982000D01*
X12230000Y-86976000D02*
X12230000Y-87776000D01*
X10630000Y-86976000D02*
X12230000Y-86976000D01*
X10630000Y-87776000D02*
X10630000Y-86976000D01*
X12230000Y-87776000D02*
X10630000Y-87776000D01*
X14770000Y-63354000D02*
X14770000Y-64154000D01*
X13170000Y-63354000D02*
X14770000Y-63354000D01*
X13170000Y-64154000D02*
X13170000Y-63354000D01*
X14770000Y-64154000D02*
X13170000Y-64154000D01*
X42102000Y-67447000D02*
X41302000Y-67447000D01*
X42102000Y-65847000D02*
X42102000Y-67447000D01*
X41302000Y-65847000D02*
X42102000Y-65847000D01*
X41302000Y-67447000D02*
X41302000Y-65847000D01*
X39224000Y-81877000D02*
X40024000Y-81877000D01*
X39224000Y-83477000D02*
X39224000Y-81877000D01*
X40024000Y-83477000D02*
X39224000Y-83477000D01*
X40024000Y-81877000D02*
X40024000Y-83477000D01*
X47144000Y-63434000D02*
X47944000Y-63434000D01*
X47144000Y-65034000D02*
X47144000Y-63434000D01*
X47944000Y-65034000D02*
X47144000Y-65034000D01*
X47944000Y-63434000D02*
X47944000Y-65034000D01*
X44342000Y-83350000D02*
X43542000Y-83350000D01*
X44342000Y-81750000D02*
X44342000Y-83350000D01*
X43542000Y-81750000D02*
X44342000Y-81750000D01*
X43542000Y-83350000D02*
X43542000Y-81750000D01*
X30315000Y-84855000D02*
X30315000Y-84055000D01*
X31915000Y-84855000D02*
X30315000Y-84855000D01*
X31915000Y-84055000D02*
X31915000Y-84855000D01*
X30315000Y-84055000D02*
X31915000Y-84055000D01*
X30315000Y-87395000D02*
X30315000Y-86595000D01*
X31915000Y-87395000D02*
X30315000Y-87395000D01*
X31915000Y-86595000D02*
X31915000Y-87395000D01*
X30315000Y-86595000D02*
X31915000Y-86595000D01*
X40150000Y-62658000D02*
X39350000Y-62658000D01*
X40150000Y-61058000D02*
X40150000Y-62658000D01*
X39350000Y-61058000D02*
X40150000Y-61058000D01*
X39350000Y-62658000D02*
X39350000Y-61058000D01*
X45250000Y-87738000D02*
X45250000Y-88538000D01*
X43650000Y-87738000D02*
X45250000Y-87738000D01*
X43650000Y-88538000D02*
X43650000Y-87738000D01*
X45250000Y-88538000D02*
X43650000Y-88538000D01*
X35100000Y-58808000D02*
X35900000Y-58808000D01*
X35100000Y-60408000D02*
X35100000Y-58808000D01*
X35900000Y-60408000D02*
X35100000Y-60408000D01*
X35900000Y-58808000D02*
X35900000Y-60408000D01*
X36350000Y-63058000D02*
X37150000Y-63058000D01*
X36350000Y-64658000D02*
X36350000Y-63058000D01*
X37150000Y-64658000D02*
X36350000Y-64658000D01*
X37150000Y-63058000D02*
X37150000Y-64658000D01*
X46520000Y-89262000D02*
X46520000Y-90062000D01*
X44920000Y-89262000D02*
X46520000Y-89262000D01*
X44920000Y-90062000D02*
X44920000Y-89262000D01*
X46520000Y-90062000D02*
X44920000Y-90062000D01*
X45300000Y-57958000D02*
X45300000Y-58758000D01*
X43700000Y-57958000D02*
X45300000Y-57958000D01*
X43700000Y-58758000D02*
X43700000Y-57958000D01*
X45300000Y-58758000D02*
X43700000Y-58758000D01*
X48114000Y-87592000D02*
X48914000Y-87592000D01*
X48114000Y-89192000D02*
X48114000Y-87592000D01*
X48914000Y-89192000D02*
X48114000Y-89192000D01*
X48914000Y-87592000D02*
X48914000Y-89192000D01*
X41232000Y-57992000D02*
X41232000Y-58792000D01*
X39632000Y-57992000D02*
X41232000Y-57992000D01*
X39632000Y-58792000D02*
X39632000Y-57992000D01*
X41232000Y-58792000D02*
X39632000Y-58792000D01*
X37376000Y-88754000D02*
X37376000Y-89554000D01*
X35776000Y-88754000D02*
X37376000Y-88754000D01*
X35776000Y-89554000D02*
X35776000Y-88754000D01*
X37376000Y-89554000D02*
X35776000Y-89554000D01*
X3469000Y-85006000D02*
X2619000Y-85006000D01*
X2119000Y-85506000D02*
X2119000Y-87206000D01*
X3469000Y-85006000D02*
X3469000Y-87206000D01*
X3469000Y-87206000D02*
X2119000Y-87206000D01*
X2619000Y-85006000D02*
X2119000Y-85506000D01*
X6774000Y-65873000D02*
X6774000Y-66723000D01*
X7274000Y-67223000D02*
X8974000Y-67223000D01*
X6774000Y-65873000D02*
X8974000Y-65873000D01*
X8974000Y-65873000D02*
X8974000Y-67223000D01*
X6774000Y-66723000D02*
X7274000Y-67223000D01*
X20955000Y-55372000D02*
X28575000Y-55372000D01*
X28575000Y-55372000D02*
X28575000Y-52832000D01*
X28575000Y-52832000D02*
X20955000Y-52832000D01*
X20955000Y-52832000D02*
X20955000Y-55372000D01*
X20955000Y-52832000D02*
X28575000Y-52832000D01*
X28575000Y-52832000D02*
X28575000Y-50292000D01*
X28575000Y-50292000D02*
X20955000Y-50292000D01*
X20955000Y-50292000D02*
X20955000Y-52832000D01*
X36155000Y-88222000D02*
X37005000Y-88222000D01*
X37505000Y-87722000D02*
X37505000Y-86022000D01*
X36155000Y-88222000D02*
X36155000Y-86022000D01*
X36155000Y-86022000D02*
X37505000Y-86022000D01*
X37005000Y-88222000D02*
X37505000Y-87722000D01*
X36400000Y-59183000D02*
X36400000Y-60033000D01*
X36900000Y-60533000D02*
X38600000Y-60533000D01*
X36400000Y-59183000D02*
X38600000Y-59183000D01*
X38600000Y-59183000D02*
X38600000Y-60533000D01*
X36400000Y-60033000D02*
X36900000Y-60533000D01*
X42846000Y-84557000D02*
X42846000Y-83707000D01*
X42346000Y-83207000D02*
X40646000Y-83207000D01*
X42846000Y-84557000D02*
X40646000Y-84557000D01*
X40646000Y-84557000D02*
X40646000Y-83207000D01*
X42846000Y-83707000D02*
X42346000Y-83207000D01*
X44412000Y-62797000D02*
X44412000Y-63647000D01*
X44912000Y-64147000D02*
X46612000Y-64147000D01*
X44412000Y-62797000D02*
X46612000Y-62797000D01*
X46612000Y-62797000D02*
X46612000Y-64147000D01*
X44412000Y-63647000D02*
X44912000Y-64147000D01*
X13883000Y-60622000D02*
X13033000Y-60622000D01*
X12533000Y-61122000D02*
X12533000Y-62822000D01*
X13883000Y-60622000D02*
X13883000Y-62822000D01*
X13883000Y-62822000D02*
X12533000Y-62822000D01*
X13033000Y-60622000D02*
X12533000Y-61122000D01*
X10073000Y-89832000D02*
X9223000Y-89832000D01*
X8723000Y-90332000D02*
X8723000Y-92032000D01*
X10073000Y-89832000D02*
X10073000Y-92032000D01*
X10073000Y-92032000D02*
X8723000Y-92032000D01*
X9223000Y-89832000D02*
X8723000Y-90332000D01*
X44877000Y-72727000D02*
X44877000Y-78077000D01*
X44877000Y-78077000D02*
X34717000Y-78077000D01*
X34717000Y-78077000D02*
X34717000Y-71727000D01*
X34717000Y-71727000D02*
X43877000Y-71727000D01*
X43877000Y-71727000D02*
X44877000Y-72727000D01*
X5334000Y-77105000D02*
X5334000Y-71755000D01*
X5334000Y-71755000D02*
X15494000Y-71755000D01*
X15494000Y-71755000D02*
X15494000Y-78105000D01*
X15494000Y-78105000D02*
X6334000Y-78105000D01*
X6334000Y-78105000D02*
X5334000Y-77105000D01*
X49743000Y-77785000D02*
G75*
G03X49743000Y-77785000I-1095000J0D01*
G01*
X45088000Y-86045000D02*
X49918000Y-86045000D01*
X49918000Y-86045000D02*
X49918000Y-76515000D01*
X49918000Y-76515000D02*
X45088000Y-76515000D01*
X45088000Y-76515000D02*
X45088000Y-86045000D01*
X47952000Y-76954000D02*
X49479000Y-78481000D01*
X47818000Y-77088000D02*
X49345000Y-78615000D01*
X49743000Y-67879000D02*
G75*
G03X49743000Y-67879000I-1095000J0D01*
G01*
X45088000Y-76139000D02*
X49918000Y-76139000D01*
X49918000Y-76139000D02*
X49918000Y-66609000D01*
X49918000Y-66609000D02*
X45088000Y-66609000D01*
X45088000Y-66609000D02*
X45088000Y-76139000D01*
X47952000Y-67048000D02*
X49479000Y-68575000D01*
X47818000Y-67182000D02*
X49345000Y-68709000D01*
X2485000Y-73599000D02*
G75*
G03X2485000Y-73599000I-1095000J0D01*
G01*
X4950000Y-65339000D02*
X120000Y-65339000D01*
X120000Y-65339000D02*
X120000Y-74869000D01*
X120000Y-74869000D02*
X4950000Y-74869000D01*
X4950000Y-74869000D02*
X4950000Y-65339000D01*
X2086000Y-74430000D02*
X559000Y-72903000D01*
X2220000Y-74296000D02*
X693000Y-72769000D01*
X2485000Y-83505000D02*
G75*
G03X2485000Y-83505000I-1095000J0D01*
G01*
X4950000Y-75245000D02*
X120000Y-75245000D01*
X120000Y-75245000D02*
X120000Y-84775000D01*
X120000Y-84775000D02*
X4950000Y-84775000D01*
X4950000Y-84775000D02*
X4950000Y-75245000D01*
X2086000Y-84336000D02*
X559000Y-82809000D01*
X2220000Y-84202000D02*
X693000Y-82675000D01*
X37338000Y-85090000D02*
X37338000Y-80010000D01*
X37338000Y-80010000D02*
X34798000Y-80010000D01*
X34798000Y-80010000D02*
X34798000Y-85090000D01*
X34798000Y-85090000D02*
X37338000Y-85090000D01*
X37257000Y-64742000D02*
X37257000Y-69822000D01*
X37257000Y-69822000D02*
X39797000Y-69822000D01*
X39797000Y-69822000D02*
X39797000Y-64742000D01*
X39797000Y-64742000D02*
X37257000Y-64742000D01*
X12954000Y-64770000D02*
X12954000Y-69850000D01*
X12954000Y-69850000D02*
X15494000Y-69850000D01*
X15494000Y-69850000D02*
X15494000Y-64770000D01*
X15494000Y-64770000D02*
X12954000Y-64770000D01*
X13716000Y-50800000D02*
X13716000Y-53340000D01*
X13716000Y-53340000D02*
X16256000Y-53340000D01*
X16256000Y-53340000D02*
X16256000Y-50800000D01*
X16256000Y-50800000D02*
X13716000Y-50800000D01*
X11176000Y-50800000D02*
X11176000Y-53340000D01*
X11176000Y-53340000D02*
X13716000Y-53340000D01*
X13716000Y-53340000D02*
X13716000Y-50800000D01*
X13716000Y-50800000D02*
X11176000Y-50800000D01*
X20955000Y-94615000D02*
X20955000Y-97155000D01*
X20955000Y-97155000D02*
X23495000Y-97155000D01*
X23495000Y-97155000D02*
X23495000Y-94615000D01*
X23495000Y-94615000D02*
X20955000Y-94615000D01*
X18415000Y-94615000D02*
X18415000Y-97155000D01*
X18415000Y-97155000D02*
X20955000Y-97155000D01*
X20955000Y-97155000D02*
X20955000Y-94615000D01*
X20955000Y-94615000D02*
X18415000Y-94615000D01*
X8255000Y-94615000D02*
X8255000Y-97155000D01*
X8255000Y-97155000D02*
X10795000Y-97155000D01*
X10795000Y-97155000D02*
X10795000Y-94615000D01*
X10795000Y-94615000D02*
X8255000Y-94615000D01*
X5715000Y-94615000D02*
X5715000Y-97155000D01*
X5715000Y-97155000D02*
X8255000Y-97155000D01*
X8255000Y-97155000D02*
X8255000Y-94615000D01*
X8255000Y-94615000D02*
X5715000Y-94615000D01*
X8636000Y-50800000D02*
X8636000Y-53340000D01*
X8636000Y-53340000D02*
X11176000Y-53340000D01*
X11176000Y-53340000D02*
X11176000Y-50800000D01*
X11176000Y-50800000D02*
X8636000Y-50800000D01*
X6096000Y-50800000D02*
X6096000Y-53340000D01*
X6096000Y-53340000D02*
X8636000Y-53340000D01*
X8636000Y-53340000D02*
X8636000Y-50800000D01*
X8636000Y-50800000D02*
X6096000Y-50800000D01*
X15875000Y-94615000D02*
X15875000Y-97155000D01*
X15875000Y-97155000D02*
X18415000Y-97155000D01*
X18415000Y-97155000D02*
X18415000Y-94615000D01*
X18415000Y-94615000D02*
X15875000Y-94615000D01*
X13335000Y-94615000D02*
X13335000Y-97155000D01*
X13335000Y-97155000D02*
X15875000Y-97155000D01*
X15875000Y-97155000D02*
X15875000Y-94615000D01*
X15875000Y-94615000D02*
X13335000Y-94615000D01*
X3175000Y-94615000D02*
X3175000Y-97155000D01*
X3175000Y-97155000D02*
X5715000Y-97155000D01*
X5715000Y-97155000D02*
X5715000Y-94615000D01*
X5715000Y-94615000D02*
X3175000Y-94615000D01*
X635000Y-94615000D02*
X635000Y-97155000D01*
X635000Y-97155000D02*
X3175000Y-97155000D01*
X3175000Y-97155000D02*
X3175000Y-94615000D01*
X3175000Y-94615000D02*
X635000Y-94615000D01*
X29080000Y-59662000D02*
X31880000Y-59662000D01*
X31880000Y-59662000D02*
X31880000Y-56162000D01*
X31880000Y-56162000D02*
X29080000Y-56162000D01*
X29080000Y-56162000D02*
X29080000Y-59662000D01*
X29080000Y-59312000D02*
X31880000Y-59312000D01*
X29080000Y-59137000D02*
X31880000Y-59137000D01*
X22844000Y-61468000D02*
X28194000Y-61468000D01*
X28194000Y-61468000D02*
X28194000Y-79248000D01*
X28194000Y-79248000D02*
X21844000Y-79248000D01*
X21844000Y-79248000D02*
X21844000Y-62468000D01*
X21844000Y-62468000D02*
X22844000Y-61468000D01*
X25489000Y-56924000D02*
X21989000Y-56924000D01*
X21995375Y-56920375D02*
G75*
G03X23749000Y-61154000I1753625J-1753625D01*
G01*
X25502625Y-56920375D02*
G75*
G02X23749000Y-61154000I-1753625J-1753625D01*
G01*
D11*
X42134381Y-88423714D02*
X42134381Y-88995143D01*
X42134381Y-88709429D02*
X41134381Y-88709429D01*
X41277238Y-88804667D01*
X41372476Y-88899905D01*
X41420095Y-88995143D01*
X42134381Y-87995143D02*
X41134381Y-87995143D01*
X41848667Y-87661809D01*
X41134381Y-87328476D01*
X42134381Y-87328476D01*
D12*
X40312952Y-88395142D02*
X40122476Y-88528476D01*
X40312952Y-88623714D02*
X39912952Y-88623714D01*
X39912952Y-88471333D01*
X39932000Y-88433238D01*
X39951048Y-88414190D01*
X39989143Y-88395142D01*
X40046286Y-88395142D01*
X40084381Y-88414190D01*
X40103429Y-88433238D01*
X40122476Y-88471333D01*
X40122476Y-88623714D01*
X39951048Y-88242762D02*
X39932000Y-88223714D01*
X39912952Y-88185619D01*
X39912952Y-88090381D01*
X39932000Y-88052285D01*
X39951048Y-88033238D01*
X39989143Y-88014190D01*
X40027238Y-88014190D01*
X40084381Y-88033238D01*
X40312952Y-88261809D01*
X40312952Y-88014190D01*
X40312952Y-87823714D02*
X40312952Y-87747524D01*
X40293905Y-87709429D01*
X40274857Y-87690381D01*
X40217714Y-87652286D01*
X40141524Y-87633238D01*
X39989143Y-87633238D01*
X39951048Y-87652286D01*
X39932000Y-87671333D01*
X39912952Y-87709429D01*
X39912952Y-87785619D01*
X39932000Y-87823714D01*
X39951048Y-87842762D01*
X39989143Y-87861810D01*
X40084381Y-87861810D01*
X40122476Y-87842762D01*
X40141524Y-87823714D01*
X40160571Y-87785619D01*
X40160571Y-87709429D01*
X40141524Y-87671333D01*
X40122476Y-87652286D01*
X40084381Y-87633238D01*
D11*
X23201381Y-87844048D02*
X23201381Y-87272619D01*
X24201381Y-87558334D02*
X23201381Y-87558334D01*
X24201381Y-86463095D02*
X24201381Y-86939286D01*
X23201381Y-86939286D01*
X23201381Y-85939286D02*
X23201381Y-85844047D01*
X23249000Y-85748809D01*
X23296619Y-85701190D01*
X23391857Y-85653571D01*
X23582333Y-85605952D01*
X23820429Y-85605952D01*
X24010905Y-85653571D01*
X24106143Y-85701190D01*
X24153762Y-85748809D01*
X24201381Y-85844047D01*
X24201381Y-85939286D01*
X24153762Y-86034524D01*
X24106143Y-86082143D01*
X24010905Y-86129762D01*
X23820429Y-86177381D01*
X23582333Y-86177381D01*
X23391857Y-86129762D01*
X23296619Y-86082143D01*
X23249000Y-86034524D01*
X23201381Y-85939286D01*
X23629952Y-85034524D02*
X23582333Y-85129762D01*
X23534714Y-85177381D01*
X23439476Y-85225000D01*
X23391857Y-85225000D01*
X23296619Y-85177381D01*
X23249000Y-85129762D01*
X23201381Y-85034524D01*
X23201381Y-84844047D01*
X23249000Y-84748809D01*
X23296619Y-84701190D01*
X23391857Y-84653571D01*
X23439476Y-84653571D01*
X23534714Y-84701190D01*
X23582333Y-84748809D01*
X23629952Y-84844047D01*
X23629952Y-85034524D01*
X23677571Y-85129762D01*
X23725190Y-85177381D01*
X23820429Y-85225000D01*
X24010905Y-85225000D01*
X24106143Y-85177381D01*
X24153762Y-85129762D01*
X24201381Y-85034524D01*
X24201381Y-84844047D01*
X24153762Y-84748809D01*
X24106143Y-84701190D01*
X24010905Y-84653571D01*
X23820429Y-84653571D01*
X23725190Y-84701190D01*
X23677571Y-84748809D01*
X23629952Y-84844047D01*
X23534714Y-83796428D02*
X24201381Y-83796428D01*
X23153762Y-84034524D02*
X23868048Y-84272619D01*
X23868048Y-83653571D01*
X12922381Y-83192857D02*
X12922381Y-83764286D01*
X12922381Y-83478572D02*
X11922381Y-83478572D01*
X12065238Y-83573810D01*
X12160476Y-83669048D01*
X12208095Y-83764286D01*
X11922381Y-82573810D02*
X11922381Y-82478571D01*
X11970000Y-82383333D01*
X12017619Y-82335714D01*
X12112857Y-82288095D01*
X12303333Y-82240476D01*
X12541429Y-82240476D01*
X12731905Y-82288095D01*
X12827143Y-82335714D01*
X12874762Y-82383333D01*
X12922381Y-82478571D01*
X12922381Y-82573810D01*
X12874762Y-82669048D01*
X12827143Y-82716667D01*
X12731905Y-82764286D01*
X12541429Y-82811905D01*
X12303333Y-82811905D01*
X12112857Y-82764286D01*
X12017619Y-82716667D01*
X11970000Y-82669048D01*
X11922381Y-82573810D01*
X12255714Y-81811905D02*
X12922381Y-81811905D01*
X12350952Y-81811905D02*
X12303333Y-81764286D01*
X12255714Y-81669048D01*
X12255714Y-81526190D01*
X12303333Y-81430952D01*
X12398571Y-81383333D01*
X12922381Y-81383333D01*
D12*
X14112857Y-82616666D02*
X14131905Y-82635714D01*
X14150952Y-82692857D01*
X14150952Y-82730952D01*
X14131905Y-82788095D01*
X14093810Y-82826190D01*
X14055714Y-82845238D01*
X13979524Y-82864286D01*
X13922381Y-82864286D01*
X13846190Y-82845238D01*
X13808095Y-82826190D01*
X13770000Y-82788095D01*
X13750952Y-82730952D01*
X13750952Y-82692857D01*
X13770000Y-82635714D01*
X13789048Y-82616666D01*
X13750952Y-82483333D02*
X13750952Y-82235714D01*
X13903333Y-82369047D01*
X13903333Y-82311905D01*
X13922381Y-82273809D01*
X13941429Y-82254762D01*
X13979524Y-82235714D01*
X14074762Y-82235714D01*
X14112857Y-82254762D01*
X14131905Y-82273809D01*
X14150952Y-82311905D01*
X14150952Y-82426190D01*
X14131905Y-82464286D01*
X14112857Y-82483333D01*
D11*
X14144381Y-67952857D02*
X14144381Y-68524286D01*
X14144381Y-68238572D02*
X13144381Y-68238572D01*
X13287238Y-68333810D01*
X13382476Y-68429048D01*
X13430095Y-68524286D01*
X13144381Y-67333810D02*
X13144381Y-67238571D01*
X13192000Y-67143333D01*
X13239619Y-67095714D01*
X13334857Y-67048095D01*
X13525333Y-67000476D01*
X13763429Y-67000476D01*
X13953905Y-67048095D01*
X14049143Y-67095714D01*
X14096762Y-67143333D01*
X14144381Y-67238571D01*
X14144381Y-67333810D01*
X14096762Y-67429048D01*
X14049143Y-67476667D01*
X13953905Y-67524286D01*
X13763429Y-67571905D01*
X13525333Y-67571905D01*
X13334857Y-67524286D01*
X13239619Y-67476667D01*
X13192000Y-67429048D01*
X13144381Y-67333810D01*
X13477714Y-66571905D02*
X14144381Y-66571905D01*
X13572952Y-66571905D02*
X13525333Y-66524286D01*
X13477714Y-66429048D01*
X13477714Y-66286190D01*
X13525333Y-66190952D01*
X13620571Y-66143333D01*
X14144381Y-66143333D01*
D12*
X12334857Y-67376666D02*
X12353905Y-67395714D01*
X12372952Y-67452857D01*
X12372952Y-67490952D01*
X12353905Y-67548095D01*
X12315810Y-67586190D01*
X12277714Y-67605238D01*
X12201524Y-67624286D01*
X12144381Y-67624286D01*
X12068190Y-67605238D01*
X12030095Y-67586190D01*
X11992000Y-67548095D01*
X11972952Y-67490952D01*
X11972952Y-67452857D01*
X11992000Y-67395714D01*
X12011048Y-67376666D01*
X12106286Y-67033809D02*
X12372952Y-67033809D01*
X11953905Y-67129047D02*
X12239619Y-67224286D01*
X12239619Y-66976666D01*
D11*
X32885143Y-71040381D02*
X32313714Y-71040381D01*
X32599428Y-71040381D02*
X32599428Y-70040381D01*
X32504190Y-70183238D01*
X32408952Y-70278476D01*
X32313714Y-70326095D01*
X33504190Y-70040381D02*
X33599429Y-70040381D01*
X33694667Y-70088000D01*
X33742286Y-70135619D01*
X33789905Y-70230857D01*
X33837524Y-70421333D01*
X33837524Y-70659429D01*
X33789905Y-70849905D01*
X33742286Y-70945143D01*
X33694667Y-70992762D01*
X33599429Y-71040381D01*
X33504190Y-71040381D01*
X33408952Y-70992762D01*
X33361333Y-70945143D01*
X33313714Y-70849905D01*
X33266095Y-70659429D01*
X33266095Y-70421333D01*
X33313714Y-70230857D01*
X33361333Y-70135619D01*
X33408952Y-70088000D01*
X33504190Y-70040381D01*
X34266095Y-70373714D02*
X34266095Y-71040381D01*
X34266095Y-70468952D02*
X34313714Y-70421333D01*
X34408952Y-70373714D01*
X34551810Y-70373714D01*
X34647048Y-70421333D01*
X34694667Y-70516571D01*
X34694667Y-71040381D01*
D12*
X33461334Y-69230857D02*
X33442286Y-69249905D01*
X33385143Y-69268952D01*
X33347048Y-69268952D01*
X33289905Y-69249905D01*
X33251810Y-69211810D01*
X33232762Y-69173714D01*
X33213714Y-69097524D01*
X33213714Y-69040381D01*
X33232762Y-68964190D01*
X33251810Y-68926095D01*
X33289905Y-68888000D01*
X33347048Y-68868952D01*
X33385143Y-68868952D01*
X33442286Y-68888000D01*
X33461334Y-68907048D01*
X33804191Y-68868952D02*
X33728000Y-68868952D01*
X33689905Y-68888000D01*
X33670857Y-68907048D01*
X33632762Y-68964190D01*
X33613714Y-69040381D01*
X33613714Y-69192762D01*
X33632762Y-69230857D01*
X33651810Y-69249905D01*
X33689905Y-69268952D01*
X33766095Y-69268952D01*
X33804191Y-69249905D01*
X33823238Y-69230857D01*
X33842286Y-69192762D01*
X33842286Y-69097524D01*
X33823238Y-69059429D01*
X33804191Y-69040381D01*
X33766095Y-69021333D01*
X33689905Y-69021333D01*
X33651810Y-69040381D01*
X33632762Y-69059429D01*
X33613714Y-69097524D01*
D11*
X7231143Y-82216381D02*
X6659714Y-82216381D01*
X6945428Y-82216381D02*
X6945428Y-81216381D01*
X6850190Y-81359238D01*
X6754952Y-81454476D01*
X6659714Y-81502095D01*
X7850190Y-81216381D02*
X7945429Y-81216381D01*
X8040667Y-81264000D01*
X8088286Y-81311619D01*
X8135905Y-81406857D01*
X8183524Y-81597333D01*
X8183524Y-81835429D01*
X8135905Y-82025905D01*
X8088286Y-82121143D01*
X8040667Y-82168762D01*
X7945429Y-82216381D01*
X7850190Y-82216381D01*
X7754952Y-82168762D01*
X7707333Y-82121143D01*
X7659714Y-82025905D01*
X7612095Y-81835429D01*
X7612095Y-81597333D01*
X7659714Y-81406857D01*
X7707333Y-81311619D01*
X7754952Y-81264000D01*
X7850190Y-81216381D01*
X8612095Y-81549714D02*
X8612095Y-82216381D01*
X8612095Y-81644952D02*
X8659714Y-81597333D01*
X8754952Y-81549714D01*
X8897810Y-81549714D01*
X8993048Y-81597333D01*
X9040667Y-81692571D01*
X9040667Y-82216381D01*
D12*
X7807334Y-80406857D02*
X7788286Y-80425905D01*
X7731143Y-80444952D01*
X7693048Y-80444952D01*
X7635905Y-80425905D01*
X7597810Y-80387810D01*
X7578762Y-80349714D01*
X7559714Y-80273524D01*
X7559714Y-80216381D01*
X7578762Y-80140190D01*
X7597810Y-80102095D01*
X7635905Y-80064000D01*
X7693048Y-80044952D01*
X7731143Y-80044952D01*
X7788286Y-80064000D01*
X7807334Y-80083048D01*
X7940667Y-80044952D02*
X8207334Y-80044952D01*
X8035905Y-80444952D01*
D11*
X9771143Y-71548381D02*
X9199714Y-71548381D01*
X9485428Y-71548381D02*
X9485428Y-70548381D01*
X9390190Y-70691238D01*
X9294952Y-70786476D01*
X9199714Y-70834095D01*
X10390190Y-70548381D02*
X10485429Y-70548381D01*
X10580667Y-70596000D01*
X10628286Y-70643619D01*
X10675905Y-70738857D01*
X10723524Y-70929333D01*
X10723524Y-71167429D01*
X10675905Y-71357905D01*
X10628286Y-71453143D01*
X10580667Y-71500762D01*
X10485429Y-71548381D01*
X10390190Y-71548381D01*
X10294952Y-71500762D01*
X10247333Y-71453143D01*
X10199714Y-71357905D01*
X10152095Y-71167429D01*
X10152095Y-70929333D01*
X10199714Y-70738857D01*
X10247333Y-70643619D01*
X10294952Y-70596000D01*
X10390190Y-70548381D01*
X11152095Y-70881714D02*
X11152095Y-71548381D01*
X11152095Y-70976952D02*
X11199714Y-70929333D01*
X11294952Y-70881714D01*
X11437810Y-70881714D01*
X11533048Y-70929333D01*
X11580667Y-71024571D01*
X11580667Y-71548381D01*
D12*
X10347334Y-69738857D02*
X10328286Y-69757905D01*
X10271143Y-69776952D01*
X10233048Y-69776952D01*
X10175905Y-69757905D01*
X10137810Y-69719810D01*
X10118762Y-69681714D01*
X10099714Y-69605524D01*
X10099714Y-69548381D01*
X10118762Y-69472190D01*
X10137810Y-69434095D01*
X10175905Y-69396000D01*
X10233048Y-69376952D01*
X10271143Y-69376952D01*
X10328286Y-69396000D01*
X10347334Y-69415048D01*
X10575905Y-69548381D02*
X10537810Y-69529333D01*
X10518762Y-69510286D01*
X10499714Y-69472190D01*
X10499714Y-69453143D01*
X10518762Y-69415048D01*
X10537810Y-69396000D01*
X10575905Y-69376952D01*
X10652095Y-69376952D01*
X10690191Y-69396000D01*
X10709238Y-69415048D01*
X10728286Y-69453143D01*
X10728286Y-69472190D01*
X10709238Y-69510286D01*
X10690191Y-69529333D01*
X10652095Y-69548381D01*
X10575905Y-69548381D01*
X10537810Y-69567429D01*
X10518762Y-69586476D01*
X10499714Y-69624571D01*
X10499714Y-69700762D01*
X10518762Y-69738857D01*
X10537810Y-69757905D01*
X10575905Y-69776952D01*
X10652095Y-69776952D01*
X10690191Y-69757905D01*
X10709238Y-69738857D01*
X10728286Y-69700762D01*
X10728286Y-69624571D01*
X10709238Y-69586476D01*
X10690191Y-69567429D01*
X10652095Y-69548381D01*
D11*
X24376143Y-93646381D02*
X23804714Y-93646381D01*
X24090428Y-93646381D02*
X24090428Y-92646381D01*
X23995190Y-92789238D01*
X23899952Y-92884476D01*
X23804714Y-92932095D01*
X24995190Y-92646381D02*
X25090429Y-92646381D01*
X25185667Y-92694000D01*
X25233286Y-92741619D01*
X25280905Y-92836857D01*
X25328524Y-93027333D01*
X25328524Y-93265429D01*
X25280905Y-93455905D01*
X25233286Y-93551143D01*
X25185667Y-93598762D01*
X25090429Y-93646381D01*
X24995190Y-93646381D01*
X24899952Y-93598762D01*
X24852333Y-93551143D01*
X24804714Y-93455905D01*
X24757095Y-93265429D01*
X24757095Y-93027333D01*
X24804714Y-92836857D01*
X24852333Y-92741619D01*
X24899952Y-92694000D01*
X24995190Y-92646381D01*
X25757095Y-92979714D02*
X25757095Y-93646381D01*
X25757095Y-93074952D02*
X25804714Y-93027333D01*
X25899952Y-92979714D01*
X26042810Y-92979714D01*
X26138048Y-93027333D01*
X26185667Y-93122571D01*
X26185667Y-93646381D01*
D12*
X24761858Y-91836857D02*
X24742810Y-91855905D01*
X24685667Y-91874952D01*
X24647572Y-91874952D01*
X24590429Y-91855905D01*
X24552334Y-91817810D01*
X24533286Y-91779714D01*
X24514238Y-91703524D01*
X24514238Y-91646381D01*
X24533286Y-91570190D01*
X24552334Y-91532095D01*
X24590429Y-91494000D01*
X24647572Y-91474952D01*
X24685667Y-91474952D01*
X24742810Y-91494000D01*
X24761858Y-91513048D01*
X25142810Y-91874952D02*
X24914238Y-91874952D01*
X25028524Y-91874952D02*
X25028524Y-91474952D01*
X24990429Y-91532095D01*
X24952334Y-91570190D01*
X24914238Y-91589238D01*
X25390429Y-91474952D02*
X25428524Y-91474952D01*
X25466619Y-91494000D01*
X25485667Y-91513048D01*
X25504714Y-91551143D01*
X25523762Y-91627333D01*
X25523762Y-91722571D01*
X25504714Y-91798762D01*
X25485667Y-91836857D01*
X25466619Y-91855905D01*
X25428524Y-91874952D01*
X25390429Y-91874952D01*
X25352333Y-91855905D01*
X25333286Y-91836857D01*
X25314238Y-91798762D01*
X25295190Y-91722571D01*
X25295190Y-91627333D01*
X25314238Y-91551143D01*
X25333286Y-91513048D01*
X25352333Y-91494000D01*
X25390429Y-91474952D01*
D11*
X22344143Y-58213381D02*
X21772714Y-58213381D01*
X22058428Y-58213381D02*
X22058428Y-57213381D01*
X21963190Y-57356238D01*
X21867952Y-57451476D01*
X21772714Y-57499095D01*
X22963190Y-57213381D02*
X23058429Y-57213381D01*
X23153667Y-57261000D01*
X23201286Y-57308619D01*
X23248905Y-57403857D01*
X23296524Y-57594333D01*
X23296524Y-57832429D01*
X23248905Y-58022905D01*
X23201286Y-58118143D01*
X23153667Y-58165762D01*
X23058429Y-58213381D01*
X22963190Y-58213381D01*
X22867952Y-58165762D01*
X22820333Y-58118143D01*
X22772714Y-58022905D01*
X22725095Y-57832429D01*
X22725095Y-57594333D01*
X22772714Y-57403857D01*
X22820333Y-57308619D01*
X22867952Y-57261000D01*
X22963190Y-57213381D01*
X23725095Y-57546714D02*
X23725095Y-58213381D01*
X23725095Y-57641952D02*
X23772714Y-57594333D01*
X23867952Y-57546714D01*
X24010810Y-57546714D01*
X24106048Y-57594333D01*
X24153667Y-57689571D01*
X24153667Y-58213381D01*
D12*
X22729858Y-56403857D02*
X22710810Y-56422905D01*
X22653667Y-56441952D01*
X22615572Y-56441952D01*
X22558429Y-56422905D01*
X22520334Y-56384810D01*
X22501286Y-56346714D01*
X22482238Y-56270524D01*
X22482238Y-56213381D01*
X22501286Y-56137190D01*
X22520334Y-56099095D01*
X22558429Y-56061000D01*
X22615572Y-56041952D01*
X22653667Y-56041952D01*
X22710810Y-56061000D01*
X22729858Y-56080048D01*
X23110810Y-56441952D02*
X22882238Y-56441952D01*
X22996524Y-56441952D02*
X22996524Y-56041952D01*
X22958429Y-56099095D01*
X22920334Y-56137190D01*
X22882238Y-56156238D01*
X23491762Y-56441952D02*
X23263190Y-56441952D01*
X23377476Y-56441952D02*
X23377476Y-56041952D01*
X23339381Y-56099095D01*
X23301286Y-56137190D01*
X23263190Y-56156238D01*
D11*
X31797381Y-53728857D02*
X31797381Y-54300286D01*
X31797381Y-54014572D02*
X30797381Y-54014572D01*
X30940238Y-54109810D01*
X31035476Y-54205048D01*
X31083095Y-54300286D01*
X30797381Y-53109810D02*
X30797381Y-53014571D01*
X30845000Y-52919333D01*
X30892619Y-52871714D01*
X30987857Y-52824095D01*
X31178333Y-52776476D01*
X31416429Y-52776476D01*
X31606905Y-52824095D01*
X31702143Y-52871714D01*
X31749762Y-52919333D01*
X31797381Y-53014571D01*
X31797381Y-53109810D01*
X31749762Y-53205048D01*
X31702143Y-53252667D01*
X31606905Y-53300286D01*
X31416429Y-53347905D01*
X31178333Y-53347905D01*
X30987857Y-53300286D01*
X30892619Y-53252667D01*
X30845000Y-53205048D01*
X30797381Y-53109810D01*
X31130714Y-52347905D02*
X31797381Y-52347905D01*
X31225952Y-52347905D02*
X31178333Y-52300286D01*
X31130714Y-52205048D01*
X31130714Y-52062190D01*
X31178333Y-51966952D01*
X31273571Y-51919333D01*
X31797381Y-51919333D01*
D12*
X29987857Y-53343142D02*
X30006905Y-53362190D01*
X30025952Y-53419333D01*
X30025952Y-53457428D01*
X30006905Y-53514571D01*
X29968810Y-53552666D01*
X29930714Y-53571714D01*
X29854524Y-53590762D01*
X29797381Y-53590762D01*
X29721190Y-53571714D01*
X29683095Y-53552666D01*
X29645000Y-53514571D01*
X29625952Y-53457428D01*
X29625952Y-53419333D01*
X29645000Y-53362190D01*
X29664048Y-53343142D01*
X30025952Y-52962190D02*
X30025952Y-53190762D01*
X30025952Y-53076476D02*
X29625952Y-53076476D01*
X29683095Y-53114571D01*
X29721190Y-53152666D01*
X29740238Y-53190762D01*
X29664048Y-52809810D02*
X29645000Y-52790762D01*
X29625952Y-52752667D01*
X29625952Y-52657429D01*
X29645000Y-52619333D01*
X29664048Y-52600286D01*
X29702143Y-52581238D01*
X29740238Y-52581238D01*
X29797381Y-52600286D01*
X30025952Y-52828857D01*
X30025952Y-52581238D01*
D11*
X6215143Y-85518381D02*
X5643714Y-85518381D01*
X5929428Y-85518381D02*
X5929428Y-84518381D01*
X5834190Y-84661238D01*
X5738952Y-84756476D01*
X5643714Y-84804095D01*
X6834190Y-84518381D02*
X6929429Y-84518381D01*
X7024667Y-84566000D01*
X7072286Y-84613619D01*
X7119905Y-84708857D01*
X7167524Y-84899333D01*
X7167524Y-85137429D01*
X7119905Y-85327905D01*
X7072286Y-85423143D01*
X7024667Y-85470762D01*
X6929429Y-85518381D01*
X6834190Y-85518381D01*
X6738952Y-85470762D01*
X6691333Y-85423143D01*
X6643714Y-85327905D01*
X6596095Y-85137429D01*
X6596095Y-84899333D01*
X6643714Y-84708857D01*
X6691333Y-84613619D01*
X6738952Y-84566000D01*
X6834190Y-84518381D01*
X7596095Y-84851714D02*
X7596095Y-85518381D01*
X7596095Y-84946952D02*
X7643714Y-84899333D01*
X7738952Y-84851714D01*
X7881810Y-84851714D01*
X7977048Y-84899333D01*
X8024667Y-84994571D01*
X8024667Y-85518381D01*
D12*
X6600858Y-83708857D02*
X6581810Y-83727905D01*
X6524667Y-83746952D01*
X6486572Y-83746952D01*
X6429429Y-83727905D01*
X6391334Y-83689810D01*
X6372286Y-83651714D01*
X6353238Y-83575524D01*
X6353238Y-83518381D01*
X6372286Y-83442190D01*
X6391334Y-83404095D01*
X6429429Y-83366000D01*
X6486572Y-83346952D01*
X6524667Y-83346952D01*
X6581810Y-83366000D01*
X6600858Y-83385048D01*
X6981810Y-83746952D02*
X6753238Y-83746952D01*
X6867524Y-83746952D02*
X6867524Y-83346952D01*
X6829429Y-83404095D01*
X6791334Y-83442190D01*
X6753238Y-83461238D01*
X7115143Y-83346952D02*
X7362762Y-83346952D01*
X7229429Y-83499333D01*
X7286571Y-83499333D01*
X7324667Y-83518381D01*
X7343714Y-83537429D01*
X7362762Y-83575524D01*
X7362762Y-83670762D01*
X7343714Y-83708857D01*
X7324667Y-83727905D01*
X7286571Y-83746952D01*
X7172286Y-83746952D01*
X7134190Y-83727905D01*
X7115143Y-83708857D01*
D11*
X9009143Y-66214381D02*
X8437714Y-66214381D01*
X8723428Y-66214381D02*
X8723428Y-65214381D01*
X8628190Y-65357238D01*
X8532952Y-65452476D01*
X8437714Y-65500095D01*
X9628190Y-65214381D02*
X9723429Y-65214381D01*
X9818667Y-65262000D01*
X9866286Y-65309619D01*
X9913905Y-65404857D01*
X9961524Y-65595333D01*
X9961524Y-65833429D01*
X9913905Y-66023905D01*
X9866286Y-66119143D01*
X9818667Y-66166762D01*
X9723429Y-66214381D01*
X9628190Y-66214381D01*
X9532952Y-66166762D01*
X9485333Y-66119143D01*
X9437714Y-66023905D01*
X9390095Y-65833429D01*
X9390095Y-65595333D01*
X9437714Y-65404857D01*
X9485333Y-65309619D01*
X9532952Y-65262000D01*
X9628190Y-65214381D01*
X10390095Y-65547714D02*
X10390095Y-66214381D01*
X10390095Y-65642952D02*
X10437714Y-65595333D01*
X10532952Y-65547714D01*
X10675810Y-65547714D01*
X10771048Y-65595333D01*
X10818667Y-65690571D01*
X10818667Y-66214381D01*
D12*
X9394858Y-64404857D02*
X9375810Y-64423905D01*
X9318667Y-64442952D01*
X9280572Y-64442952D01*
X9223429Y-64423905D01*
X9185334Y-64385810D01*
X9166286Y-64347714D01*
X9147238Y-64271524D01*
X9147238Y-64214381D01*
X9166286Y-64138190D01*
X9185334Y-64100095D01*
X9223429Y-64062000D01*
X9280572Y-64042952D01*
X9318667Y-64042952D01*
X9375810Y-64062000D01*
X9394858Y-64081048D01*
X9775810Y-64442952D02*
X9547238Y-64442952D01*
X9661524Y-64442952D02*
X9661524Y-64042952D01*
X9623429Y-64100095D01*
X9585334Y-64138190D01*
X9547238Y-64157238D01*
X10118667Y-64176286D02*
X10118667Y-64442952D01*
X10023429Y-64023905D02*
X9928190Y-64309619D01*
X10175810Y-64309619D01*
D11*
X8048381Y-87002857D02*
X8048381Y-87574286D01*
X8048381Y-87288572D02*
X7048381Y-87288572D01*
X7191238Y-87383810D01*
X7286476Y-87479048D01*
X7334095Y-87574286D01*
X7048381Y-86383810D02*
X7048381Y-86288571D01*
X7096000Y-86193333D01*
X7143619Y-86145714D01*
X7238857Y-86098095D01*
X7429333Y-86050476D01*
X7667429Y-86050476D01*
X7857905Y-86098095D01*
X7953143Y-86145714D01*
X8000762Y-86193333D01*
X8048381Y-86288571D01*
X8048381Y-86383810D01*
X8000762Y-86479048D01*
X7953143Y-86526667D01*
X7857905Y-86574286D01*
X7667429Y-86621905D01*
X7429333Y-86621905D01*
X7238857Y-86574286D01*
X7143619Y-86526667D01*
X7096000Y-86479048D01*
X7048381Y-86383810D01*
X7381714Y-85621905D02*
X8048381Y-85621905D01*
X7476952Y-85621905D02*
X7429333Y-85574286D01*
X7381714Y-85479048D01*
X7381714Y-85336190D01*
X7429333Y-85240952D01*
X7524571Y-85193333D01*
X8048381Y-85193333D01*
D12*
X6238857Y-86617142D02*
X6257905Y-86636190D01*
X6276952Y-86693333D01*
X6276952Y-86731428D01*
X6257905Y-86788571D01*
X6219810Y-86826666D01*
X6181714Y-86845714D01*
X6105524Y-86864762D01*
X6048381Y-86864762D01*
X5972190Y-86845714D01*
X5934095Y-86826666D01*
X5896000Y-86788571D01*
X5876952Y-86731428D01*
X5876952Y-86693333D01*
X5896000Y-86636190D01*
X5915048Y-86617142D01*
X6276952Y-86236190D02*
X6276952Y-86464762D01*
X6276952Y-86350476D02*
X5876952Y-86350476D01*
X5934095Y-86388571D01*
X5972190Y-86426666D01*
X5991238Y-86464762D01*
X5876952Y-85874286D02*
X5876952Y-86064762D01*
X6067429Y-86083810D01*
X6048381Y-86064762D01*
X6029333Y-86026667D01*
X6029333Y-85931429D01*
X6048381Y-85893333D01*
X6067429Y-85874286D01*
X6105524Y-85855238D01*
X6200762Y-85855238D01*
X6238857Y-85874286D01*
X6257905Y-85893333D01*
X6276952Y-85931429D01*
X6276952Y-86026667D01*
X6257905Y-86064762D01*
X6238857Y-86083810D01*
D11*
X5810381Y-62364857D02*
X5810381Y-62936286D01*
X5810381Y-62650572D02*
X4810381Y-62650572D01*
X4953238Y-62745810D01*
X5048476Y-62841048D01*
X5096095Y-62936286D01*
X4810381Y-61745810D02*
X4810381Y-61650571D01*
X4858000Y-61555333D01*
X4905619Y-61507714D01*
X5000857Y-61460095D01*
X5191333Y-61412476D01*
X5429429Y-61412476D01*
X5619905Y-61460095D01*
X5715143Y-61507714D01*
X5762762Y-61555333D01*
X5810381Y-61650571D01*
X5810381Y-61745810D01*
X5762762Y-61841048D01*
X5715143Y-61888667D01*
X5619905Y-61936286D01*
X5429429Y-61983905D01*
X5191333Y-61983905D01*
X5000857Y-61936286D01*
X4905619Y-61888667D01*
X4858000Y-61841048D01*
X4810381Y-61745810D01*
X5143714Y-60983905D02*
X5810381Y-60983905D01*
X5238952Y-60983905D02*
X5191333Y-60936286D01*
X5143714Y-60841048D01*
X5143714Y-60698190D01*
X5191333Y-60602952D01*
X5286571Y-60555333D01*
X5810381Y-60555333D01*
D12*
X7000857Y-61979142D02*
X7019905Y-61998190D01*
X7038952Y-62055333D01*
X7038952Y-62093428D01*
X7019905Y-62150571D01*
X6981810Y-62188666D01*
X6943714Y-62207714D01*
X6867524Y-62226762D01*
X6810381Y-62226762D01*
X6734190Y-62207714D01*
X6696095Y-62188666D01*
X6658000Y-62150571D01*
X6638952Y-62093428D01*
X6638952Y-62055333D01*
X6658000Y-61998190D01*
X6677048Y-61979142D01*
X7038952Y-61598190D02*
X7038952Y-61826762D01*
X7038952Y-61712476D02*
X6638952Y-61712476D01*
X6696095Y-61750571D01*
X6734190Y-61788666D01*
X6753238Y-61826762D01*
X6638952Y-61255333D02*
X6638952Y-61331524D01*
X6658000Y-61369619D01*
X6677048Y-61388667D01*
X6734190Y-61426762D01*
X6810381Y-61445810D01*
X6962762Y-61445810D01*
X7000857Y-61426762D01*
X7019905Y-61407714D01*
X7038952Y-61369619D01*
X7038952Y-61293429D01*
X7019905Y-61255333D01*
X7000857Y-61236286D01*
X6962762Y-61217238D01*
X6867524Y-61217238D01*
X6829429Y-61236286D01*
X6810381Y-61255333D01*
X6791333Y-61293429D01*
X6791333Y-61369619D01*
X6810381Y-61407714D01*
X6829429Y-61426762D01*
X6867524Y-61445810D01*
D11*
X30146381Y-58427857D02*
X30146381Y-58999286D01*
X30146381Y-58713572D02*
X29146381Y-58713572D01*
X29289238Y-58808810D01*
X29384476Y-58904048D01*
X29432095Y-58999286D01*
X29146381Y-57808810D02*
X29146381Y-57713571D01*
X29194000Y-57618333D01*
X29241619Y-57570714D01*
X29336857Y-57523095D01*
X29527333Y-57475476D01*
X29765429Y-57475476D01*
X29955905Y-57523095D01*
X30051143Y-57570714D01*
X30098762Y-57618333D01*
X30146381Y-57713571D01*
X30146381Y-57808810D01*
X30098762Y-57904048D01*
X30051143Y-57951667D01*
X29955905Y-57999286D01*
X29765429Y-58046905D01*
X29527333Y-58046905D01*
X29336857Y-57999286D01*
X29241619Y-57951667D01*
X29194000Y-57904048D01*
X29146381Y-57808810D01*
X29479714Y-57046905D02*
X30146381Y-57046905D01*
X29574952Y-57046905D02*
X29527333Y-56999286D01*
X29479714Y-56904048D01*
X29479714Y-56761190D01*
X29527333Y-56665952D01*
X29622571Y-56618333D01*
X30146381Y-56618333D01*
D12*
X28336857Y-58042142D02*
X28355905Y-58061190D01*
X28374952Y-58118333D01*
X28374952Y-58156428D01*
X28355905Y-58213571D01*
X28317810Y-58251666D01*
X28279714Y-58270714D01*
X28203524Y-58289762D01*
X28146381Y-58289762D01*
X28070190Y-58270714D01*
X28032095Y-58251666D01*
X27994000Y-58213571D01*
X27974952Y-58156428D01*
X27974952Y-58118333D01*
X27994000Y-58061190D01*
X28013048Y-58042142D01*
X28374952Y-57661190D02*
X28374952Y-57889762D01*
X28374952Y-57775476D02*
X27974952Y-57775476D01*
X28032095Y-57813571D01*
X28070190Y-57851666D01*
X28089238Y-57889762D01*
X27974952Y-57527857D02*
X27974952Y-57261190D01*
X28374952Y-57432619D01*
D11*
X38574381Y-67924857D02*
X38574381Y-68496286D01*
X38574381Y-68210572D02*
X37574381Y-68210572D01*
X37717238Y-68305810D01*
X37812476Y-68401048D01*
X37860095Y-68496286D01*
X37574381Y-67305810D02*
X37574381Y-67210571D01*
X37622000Y-67115333D01*
X37669619Y-67067714D01*
X37764857Y-67020095D01*
X37955333Y-66972476D01*
X38193429Y-66972476D01*
X38383905Y-67020095D01*
X38479143Y-67067714D01*
X38526762Y-67115333D01*
X38574381Y-67210571D01*
X38574381Y-67305810D01*
X38526762Y-67401048D01*
X38479143Y-67448667D01*
X38383905Y-67496286D01*
X38193429Y-67543905D01*
X37955333Y-67543905D01*
X37764857Y-67496286D01*
X37669619Y-67448667D01*
X37622000Y-67401048D01*
X37574381Y-67305810D01*
X37907714Y-66543905D02*
X38574381Y-66543905D01*
X38002952Y-66543905D02*
X37955333Y-66496286D01*
X37907714Y-66401048D01*
X37907714Y-66258190D01*
X37955333Y-66162952D01*
X38050571Y-66115333D01*
X38574381Y-66115333D01*
D12*
X36764857Y-67539142D02*
X36783905Y-67558190D01*
X36802952Y-67615333D01*
X36802952Y-67653428D01*
X36783905Y-67710571D01*
X36745810Y-67748666D01*
X36707714Y-67767714D01*
X36631524Y-67786762D01*
X36574381Y-67786762D01*
X36498190Y-67767714D01*
X36460095Y-67748666D01*
X36422000Y-67710571D01*
X36402952Y-67653428D01*
X36402952Y-67615333D01*
X36422000Y-67558190D01*
X36441048Y-67539142D01*
X36802952Y-67158190D02*
X36802952Y-67386762D01*
X36802952Y-67272476D02*
X36402952Y-67272476D01*
X36460095Y-67310571D01*
X36498190Y-67348666D01*
X36517238Y-67386762D01*
X36802952Y-66967714D02*
X36802952Y-66891524D01*
X36783905Y-66853429D01*
X36764857Y-66834381D01*
X36707714Y-66796286D01*
X36631524Y-66777238D01*
X36479143Y-66777238D01*
X36441048Y-66796286D01*
X36422000Y-66815333D01*
X36402952Y-66853429D01*
X36402952Y-66929619D01*
X36422000Y-66967714D01*
X36441048Y-66986762D01*
X36479143Y-67005810D01*
X36574381Y-67005810D01*
X36612476Y-66986762D01*
X36631524Y-66967714D01*
X36650571Y-66929619D01*
X36650571Y-66853429D01*
X36631524Y-66815333D01*
X36612476Y-66796286D01*
X36574381Y-66777238D01*
D11*
X37052381Y-83192857D02*
X37052381Y-83764286D01*
X37052381Y-83478572D02*
X36052381Y-83478572D01*
X36195238Y-83573810D01*
X36290476Y-83669048D01*
X36338095Y-83764286D01*
X36052381Y-82573810D02*
X36052381Y-82478571D01*
X36100000Y-82383333D01*
X36147619Y-82335714D01*
X36242857Y-82288095D01*
X36433333Y-82240476D01*
X36671429Y-82240476D01*
X36861905Y-82288095D01*
X36957143Y-82335714D01*
X37004762Y-82383333D01*
X37052381Y-82478571D01*
X37052381Y-82573810D01*
X37004762Y-82669048D01*
X36957143Y-82716667D01*
X36861905Y-82764286D01*
X36671429Y-82811905D01*
X36433333Y-82811905D01*
X36242857Y-82764286D01*
X36147619Y-82716667D01*
X36100000Y-82669048D01*
X36052381Y-82573810D01*
X36385714Y-81811905D02*
X37052381Y-81811905D01*
X36480952Y-81811905D02*
X36433333Y-81764286D01*
X36385714Y-81669048D01*
X36385714Y-81526190D01*
X36433333Y-81430952D01*
X36528571Y-81383333D01*
X37052381Y-81383333D01*
D12*
X38242857Y-82807142D02*
X38261905Y-82826190D01*
X38280952Y-82883333D01*
X38280952Y-82921428D01*
X38261905Y-82978571D01*
X38223810Y-83016666D01*
X38185714Y-83035714D01*
X38109524Y-83054762D01*
X38052381Y-83054762D01*
X37976190Y-83035714D01*
X37938095Y-83016666D01*
X37900000Y-82978571D01*
X37880952Y-82921428D01*
X37880952Y-82883333D01*
X37900000Y-82826190D01*
X37919048Y-82807142D01*
X37919048Y-82654762D02*
X37900000Y-82635714D01*
X37880952Y-82597619D01*
X37880952Y-82502381D01*
X37900000Y-82464285D01*
X37919048Y-82445238D01*
X37957143Y-82426190D01*
X37995238Y-82426190D01*
X38052381Y-82445238D01*
X38280952Y-82673809D01*
X38280952Y-82426190D01*
X37880952Y-82178571D02*
X37880952Y-82140476D01*
X37900000Y-82102381D01*
X37919048Y-82083333D01*
X37957143Y-82064286D01*
X38033333Y-82045238D01*
X38128571Y-82045238D01*
X38204762Y-82064286D01*
X38242857Y-82083333D01*
X38261905Y-82102381D01*
X38280952Y-82140476D01*
X38280952Y-82178571D01*
X38261905Y-82216667D01*
X38242857Y-82235714D01*
X38204762Y-82254762D01*
X38128571Y-82273810D01*
X38033333Y-82273810D01*
X37957143Y-82254762D01*
X37919048Y-82235714D01*
X37900000Y-82216667D01*
X37880952Y-82178571D01*
D11*
X45559381Y-69194857D02*
X45559381Y-69766286D01*
X45559381Y-69480572D02*
X44559381Y-69480572D01*
X44702238Y-69575810D01*
X44797476Y-69671048D01*
X44845095Y-69766286D01*
X44559381Y-68575810D02*
X44559381Y-68480571D01*
X44607000Y-68385333D01*
X44654619Y-68337714D01*
X44749857Y-68290095D01*
X44940333Y-68242476D01*
X45178429Y-68242476D01*
X45368905Y-68290095D01*
X45464143Y-68337714D01*
X45511762Y-68385333D01*
X45559381Y-68480571D01*
X45559381Y-68575810D01*
X45511762Y-68671048D01*
X45464143Y-68718667D01*
X45368905Y-68766286D01*
X45178429Y-68813905D01*
X44940333Y-68813905D01*
X44749857Y-68766286D01*
X44654619Y-68718667D01*
X44607000Y-68671048D01*
X44559381Y-68575810D01*
X44892714Y-67813905D02*
X45559381Y-67813905D01*
X44987952Y-67813905D02*
X44940333Y-67766286D01*
X44892714Y-67671048D01*
X44892714Y-67528190D01*
X44940333Y-67432952D01*
X45035571Y-67385333D01*
X45559381Y-67385333D01*
D12*
X43749857Y-68809142D02*
X43768905Y-68828190D01*
X43787952Y-68885333D01*
X43787952Y-68923428D01*
X43768905Y-68980571D01*
X43730810Y-69018666D01*
X43692714Y-69037714D01*
X43616524Y-69056762D01*
X43559381Y-69056762D01*
X43483190Y-69037714D01*
X43445095Y-69018666D01*
X43407000Y-68980571D01*
X43387952Y-68923428D01*
X43387952Y-68885333D01*
X43407000Y-68828190D01*
X43426048Y-68809142D01*
X43426048Y-68656762D02*
X43407000Y-68637714D01*
X43387952Y-68599619D01*
X43387952Y-68504381D01*
X43407000Y-68466285D01*
X43426048Y-68447238D01*
X43464143Y-68428190D01*
X43502238Y-68428190D01*
X43559381Y-68447238D01*
X43787952Y-68675809D01*
X43787952Y-68428190D01*
X43787952Y-68047238D02*
X43787952Y-68275810D01*
X43787952Y-68161524D02*
X43387952Y-68161524D01*
X43445095Y-68199619D01*
X43483190Y-68237714D01*
X43502238Y-68275810D01*
D11*
X39235143Y-79216381D02*
X38663714Y-79216381D01*
X38949428Y-79216381D02*
X38949428Y-78216381D01*
X38854190Y-78359238D01*
X38758952Y-78454476D01*
X38663714Y-78502095D01*
X39854190Y-78216381D02*
X39949429Y-78216381D01*
X40044667Y-78264000D01*
X40092286Y-78311619D01*
X40139905Y-78406857D01*
X40187524Y-78597333D01*
X40187524Y-78835429D01*
X40139905Y-79025905D01*
X40092286Y-79121143D01*
X40044667Y-79168762D01*
X39949429Y-79216381D01*
X39854190Y-79216381D01*
X39758952Y-79168762D01*
X39711333Y-79121143D01*
X39663714Y-79025905D01*
X39616095Y-78835429D01*
X39616095Y-78597333D01*
X39663714Y-78406857D01*
X39711333Y-78311619D01*
X39758952Y-78264000D01*
X39854190Y-78216381D01*
X40616095Y-78549714D02*
X40616095Y-79216381D01*
X40616095Y-78644952D02*
X40663714Y-78597333D01*
X40758952Y-78549714D01*
X40901810Y-78549714D01*
X40997048Y-78597333D01*
X41044667Y-78692571D01*
X41044667Y-79216381D01*
D12*
X39620858Y-80406857D02*
X39601810Y-80425905D01*
X39544667Y-80444952D01*
X39506572Y-80444952D01*
X39449429Y-80425905D01*
X39411334Y-80387810D01*
X39392286Y-80349714D01*
X39373238Y-80273524D01*
X39373238Y-80216381D01*
X39392286Y-80140190D01*
X39411334Y-80102095D01*
X39449429Y-80064000D01*
X39506572Y-80044952D01*
X39544667Y-80044952D01*
X39601810Y-80064000D01*
X39620858Y-80083048D01*
X39773238Y-80083048D02*
X39792286Y-80064000D01*
X39830381Y-80044952D01*
X39925619Y-80044952D01*
X39963715Y-80064000D01*
X39982762Y-80083048D01*
X40001810Y-80121143D01*
X40001810Y-80159238D01*
X39982762Y-80216381D01*
X39754191Y-80444952D01*
X40001810Y-80444952D01*
X40154190Y-80083048D02*
X40173238Y-80064000D01*
X40211333Y-80044952D01*
X40306571Y-80044952D01*
X40344667Y-80064000D01*
X40363714Y-80083048D01*
X40382762Y-80121143D01*
X40382762Y-80159238D01*
X40363714Y-80216381D01*
X40135143Y-80444952D01*
X40382762Y-80444952D01*
D11*
X41694143Y-62424381D02*
X41122714Y-62424381D01*
X41408428Y-62424381D02*
X41408428Y-61424381D01*
X41313190Y-61567238D01*
X41217952Y-61662476D01*
X41122714Y-61710095D01*
X42313190Y-61424381D02*
X42408429Y-61424381D01*
X42503667Y-61472000D01*
X42551286Y-61519619D01*
X42598905Y-61614857D01*
X42646524Y-61805333D01*
X42646524Y-62043429D01*
X42598905Y-62233905D01*
X42551286Y-62329143D01*
X42503667Y-62376762D01*
X42408429Y-62424381D01*
X42313190Y-62424381D01*
X42217952Y-62376762D01*
X42170333Y-62329143D01*
X42122714Y-62233905D01*
X42075095Y-62043429D01*
X42075095Y-61805333D01*
X42122714Y-61614857D01*
X42170333Y-61519619D01*
X42217952Y-61472000D01*
X42313190Y-61424381D01*
X43075095Y-61757714D02*
X43075095Y-62424381D01*
X43075095Y-61852952D02*
X43122714Y-61805333D01*
X43217952Y-61757714D01*
X43360810Y-61757714D01*
X43456048Y-61805333D01*
X43503667Y-61900571D01*
X43503667Y-62424381D01*
D12*
X42079858Y-63614857D02*
X42060810Y-63633905D01*
X42003667Y-63652952D01*
X41965572Y-63652952D01*
X41908429Y-63633905D01*
X41870334Y-63595810D01*
X41851286Y-63557714D01*
X41832238Y-63481524D01*
X41832238Y-63424381D01*
X41851286Y-63348190D01*
X41870334Y-63310095D01*
X41908429Y-63272000D01*
X41965572Y-63252952D01*
X42003667Y-63252952D01*
X42060810Y-63272000D01*
X42079858Y-63291048D01*
X42232238Y-63291048D02*
X42251286Y-63272000D01*
X42289381Y-63252952D01*
X42384619Y-63252952D01*
X42422715Y-63272000D01*
X42441762Y-63291048D01*
X42460810Y-63329143D01*
X42460810Y-63367238D01*
X42441762Y-63424381D01*
X42213191Y-63652952D01*
X42460810Y-63652952D01*
X42594143Y-63252952D02*
X42841762Y-63252952D01*
X42708429Y-63405333D01*
X42765571Y-63405333D01*
X42803667Y-63424381D01*
X42822714Y-63443429D01*
X42841762Y-63481524D01*
X42841762Y-63576762D01*
X42822714Y-63614857D01*
X42803667Y-63633905D01*
X42765571Y-63652952D01*
X42651286Y-63652952D01*
X42613190Y-63633905D01*
X42594143Y-63614857D01*
D11*
X39235143Y-84296381D02*
X38663714Y-84296381D01*
X38949428Y-84296381D02*
X38949428Y-83296381D01*
X38854190Y-83439238D01*
X38758952Y-83534476D01*
X38663714Y-83582095D01*
X39854190Y-83296381D02*
X39949429Y-83296381D01*
X40044667Y-83344000D01*
X40092286Y-83391619D01*
X40139905Y-83486857D01*
X40187524Y-83677333D01*
X40187524Y-83915429D01*
X40139905Y-84105905D01*
X40092286Y-84201143D01*
X40044667Y-84248762D01*
X39949429Y-84296381D01*
X39854190Y-84296381D01*
X39758952Y-84248762D01*
X39711333Y-84201143D01*
X39663714Y-84105905D01*
X39616095Y-83915429D01*
X39616095Y-83677333D01*
X39663714Y-83486857D01*
X39711333Y-83391619D01*
X39758952Y-83344000D01*
X39854190Y-83296381D01*
X40616095Y-83629714D02*
X40616095Y-84296381D01*
X40616095Y-83724952D02*
X40663714Y-83677333D01*
X40758952Y-83629714D01*
X40901810Y-83629714D01*
X40997048Y-83677333D01*
X41044667Y-83772571D01*
X41044667Y-84296381D01*
D12*
X39620858Y-85486857D02*
X39601810Y-85505905D01*
X39544667Y-85524952D01*
X39506572Y-85524952D01*
X39449429Y-85505905D01*
X39411334Y-85467810D01*
X39392286Y-85429714D01*
X39373238Y-85353524D01*
X39373238Y-85296381D01*
X39392286Y-85220190D01*
X39411334Y-85182095D01*
X39449429Y-85144000D01*
X39506572Y-85124952D01*
X39544667Y-85124952D01*
X39601810Y-85144000D01*
X39620858Y-85163048D01*
X39773238Y-85163048D02*
X39792286Y-85144000D01*
X39830381Y-85124952D01*
X39925619Y-85124952D01*
X39963715Y-85144000D01*
X39982762Y-85163048D01*
X40001810Y-85201143D01*
X40001810Y-85239238D01*
X39982762Y-85296381D01*
X39754191Y-85524952D01*
X40001810Y-85524952D01*
X40344667Y-85258286D02*
X40344667Y-85524952D01*
X40249429Y-85105905D02*
X40154190Y-85391619D01*
X40401810Y-85391619D01*
D11*
X41648143Y-63547381D02*
X41076714Y-63547381D01*
X41362428Y-63547381D02*
X41362428Y-62547381D01*
X41267190Y-62690238D01*
X41171952Y-62785476D01*
X41076714Y-62833095D01*
X42267190Y-62547381D02*
X42362429Y-62547381D01*
X42457667Y-62595000D01*
X42505286Y-62642619D01*
X42552905Y-62737857D01*
X42600524Y-62928333D01*
X42600524Y-63166429D01*
X42552905Y-63356905D01*
X42505286Y-63452143D01*
X42457667Y-63499762D01*
X42362429Y-63547381D01*
X42267190Y-63547381D01*
X42171952Y-63499762D01*
X42124333Y-63452143D01*
X42076714Y-63356905D01*
X42029095Y-63166429D01*
X42029095Y-62928333D01*
X42076714Y-62737857D01*
X42124333Y-62642619D01*
X42171952Y-62595000D01*
X42267190Y-62547381D01*
X43029095Y-62880714D02*
X43029095Y-63547381D01*
X43029095Y-62975952D02*
X43076714Y-62928333D01*
X43171952Y-62880714D01*
X43314810Y-62880714D01*
X43410048Y-62928333D01*
X43457667Y-63023571D01*
X43457667Y-63547381D01*
D12*
X42033858Y-61737857D02*
X42014810Y-61756905D01*
X41957667Y-61775952D01*
X41919572Y-61775952D01*
X41862429Y-61756905D01*
X41824334Y-61718810D01*
X41805286Y-61680714D01*
X41786238Y-61604524D01*
X41786238Y-61547381D01*
X41805286Y-61471190D01*
X41824334Y-61433095D01*
X41862429Y-61395000D01*
X41919572Y-61375952D01*
X41957667Y-61375952D01*
X42014810Y-61395000D01*
X42033858Y-61414048D01*
X42186238Y-61414048D02*
X42205286Y-61395000D01*
X42243381Y-61375952D01*
X42338619Y-61375952D01*
X42376715Y-61395000D01*
X42395762Y-61414048D01*
X42414810Y-61452143D01*
X42414810Y-61490238D01*
X42395762Y-61547381D01*
X42167191Y-61775952D01*
X42414810Y-61775952D01*
X42776714Y-61375952D02*
X42586238Y-61375952D01*
X42567190Y-61566429D01*
X42586238Y-61547381D01*
X42624333Y-61528333D01*
X42719571Y-61528333D01*
X42757667Y-61547381D01*
X42776714Y-61566429D01*
X42795762Y-61604524D01*
X42795762Y-61699762D01*
X42776714Y-61737857D01*
X42757667Y-61756905D01*
X42719571Y-61775952D01*
X42624333Y-61775952D01*
X42586238Y-61756905D01*
X42567190Y-61737857D01*
D11*
X42537143Y-85820381D02*
X41965714Y-85820381D01*
X42251428Y-85820381D02*
X42251428Y-84820381D01*
X42156190Y-84963238D01*
X42060952Y-85058476D01*
X41965714Y-85106095D01*
X43156190Y-84820381D02*
X43251429Y-84820381D01*
X43346667Y-84868000D01*
X43394286Y-84915619D01*
X43441905Y-85010857D01*
X43489524Y-85201333D01*
X43489524Y-85439429D01*
X43441905Y-85629905D01*
X43394286Y-85725143D01*
X43346667Y-85772762D01*
X43251429Y-85820381D01*
X43156190Y-85820381D01*
X43060952Y-85772762D01*
X43013333Y-85725143D01*
X42965714Y-85629905D01*
X42918095Y-85439429D01*
X42918095Y-85201333D01*
X42965714Y-85010857D01*
X43013333Y-84915619D01*
X43060952Y-84868000D01*
X43156190Y-84820381D01*
X43918095Y-85153714D02*
X43918095Y-85820381D01*
X43918095Y-85248952D02*
X43965714Y-85201333D01*
X44060952Y-85153714D01*
X44203810Y-85153714D01*
X44299048Y-85201333D01*
X44346667Y-85296571D01*
X44346667Y-85820381D01*
D12*
X42922858Y-87010857D02*
X42903810Y-87029905D01*
X42846667Y-87048952D01*
X42808572Y-87048952D01*
X42751429Y-87029905D01*
X42713334Y-86991810D01*
X42694286Y-86953714D01*
X42675238Y-86877524D01*
X42675238Y-86820381D01*
X42694286Y-86744190D01*
X42713334Y-86706095D01*
X42751429Y-86668000D01*
X42808572Y-86648952D01*
X42846667Y-86648952D01*
X42903810Y-86668000D01*
X42922858Y-86687048D01*
X43075238Y-86687048D02*
X43094286Y-86668000D01*
X43132381Y-86648952D01*
X43227619Y-86648952D01*
X43265715Y-86668000D01*
X43284762Y-86687048D01*
X43303810Y-86725143D01*
X43303810Y-86763238D01*
X43284762Y-86820381D01*
X43056191Y-87048952D01*
X43303810Y-87048952D01*
X43646667Y-86648952D02*
X43570476Y-86648952D01*
X43532381Y-86668000D01*
X43513333Y-86687048D01*
X43475238Y-86744190D01*
X43456190Y-86820381D01*
X43456190Y-86972762D01*
X43475238Y-87010857D01*
X43494286Y-87029905D01*
X43532381Y-87048952D01*
X43608571Y-87048952D01*
X43646667Y-87029905D01*
X43665714Y-87010857D01*
X43684762Y-86972762D01*
X43684762Y-86877524D01*
X43665714Y-86839429D01*
X43646667Y-86820381D01*
X43608571Y-86801333D01*
X43532381Y-86801333D01*
X43494286Y-86820381D01*
X43475238Y-86839429D01*
X43456190Y-86877524D01*
D11*
X7633714Y-83327809D02*
X8300381Y-83327809D01*
X7252762Y-83565905D02*
X7967048Y-83804000D01*
X7967048Y-83184952D01*
X8205143Y-82804000D02*
X8252762Y-82756381D01*
X8300381Y-82804000D01*
X8252762Y-82851619D01*
X8205143Y-82804000D01*
X8300381Y-82804000D01*
X7300381Y-82423048D02*
X7300381Y-81756381D01*
X8300381Y-82184953D01*
D12*
X9578952Y-82870666D02*
X9388476Y-83004000D01*
X9578952Y-83099238D02*
X9178952Y-83099238D01*
X9178952Y-82946857D01*
X9198000Y-82908762D01*
X9217048Y-82889714D01*
X9255143Y-82870666D01*
X9312286Y-82870666D01*
X9350381Y-82889714D01*
X9369429Y-82908762D01*
X9388476Y-82946857D01*
X9388476Y-83099238D01*
X9578952Y-82489714D02*
X9578952Y-82718286D01*
X9578952Y-82604000D02*
X9178952Y-82604000D01*
X9236095Y-82642095D01*
X9274190Y-82680190D01*
X9293238Y-82718286D01*
D11*
X12003714Y-67579809D02*
X12670381Y-67579809D01*
X11622762Y-67817905D02*
X12337048Y-68056000D01*
X12337048Y-67436952D01*
X12575143Y-67056000D02*
X12622762Y-67008381D01*
X12670381Y-67056000D01*
X12622762Y-67103619D01*
X12575143Y-67056000D01*
X12670381Y-67056000D01*
X11670381Y-66675048D02*
X11670381Y-66008381D01*
X12670381Y-66436953D01*
D12*
X10848952Y-67122666D02*
X10658476Y-67256000D01*
X10848952Y-67351238D02*
X10448952Y-67351238D01*
X10448952Y-67198857D01*
X10468000Y-67160762D01*
X10487048Y-67141714D01*
X10525143Y-67122666D01*
X10582286Y-67122666D01*
X10620381Y-67141714D01*
X10639429Y-67160762D01*
X10658476Y-67198857D01*
X10658476Y-67351238D01*
X10487048Y-66970286D02*
X10468000Y-66951238D01*
X10448952Y-66913143D01*
X10448952Y-66817905D01*
X10468000Y-66779809D01*
X10487048Y-66760762D01*
X10525143Y-66741714D01*
X10563238Y-66741714D01*
X10620381Y-66760762D01*
X10848952Y-66989333D01*
X10848952Y-66741714D01*
D11*
X1944762Y-87294381D02*
X1373333Y-87294381D01*
X1659047Y-87294381D02*
X1659047Y-86294381D01*
X1563809Y-86437238D01*
X1468571Y-86532476D01*
X1373333Y-86580095D01*
X2563809Y-86294381D02*
X2659048Y-86294381D01*
X2754286Y-86342000D01*
X2801905Y-86389619D01*
X2849524Y-86484857D01*
X2897143Y-86675333D01*
X2897143Y-86913429D01*
X2849524Y-87103905D01*
X2801905Y-87199143D01*
X2754286Y-87246762D01*
X2659048Y-87294381D01*
X2563809Y-87294381D01*
X2468571Y-87246762D01*
X2420952Y-87199143D01*
X2373333Y-87103905D01*
X2325714Y-86913429D01*
X2325714Y-86675333D01*
X2373333Y-86484857D01*
X2420952Y-86389619D01*
X2468571Y-86342000D01*
X2563809Y-86294381D01*
X3325714Y-87294381D02*
X3325714Y-86294381D01*
X3420952Y-86913429D02*
X3706667Y-87294381D01*
X3706667Y-86627714D02*
X3325714Y-87008667D01*
D12*
X2473334Y-88572952D02*
X2340000Y-88382476D01*
X2244762Y-88572952D02*
X2244762Y-88172952D01*
X2397143Y-88172952D01*
X2435238Y-88192000D01*
X2454286Y-88211048D01*
X2473334Y-88249143D01*
X2473334Y-88306286D01*
X2454286Y-88344381D01*
X2435238Y-88363429D01*
X2397143Y-88382476D01*
X2244762Y-88382476D01*
X2606667Y-88172952D02*
X2854286Y-88172952D01*
X2720953Y-88325333D01*
X2778095Y-88325333D01*
X2816191Y-88344381D01*
X2835238Y-88363429D01*
X2854286Y-88401524D01*
X2854286Y-88496762D01*
X2835238Y-88534857D01*
X2816191Y-88553905D01*
X2778095Y-88572952D01*
X2663810Y-88572952D01*
X2625714Y-88553905D01*
X2606667Y-88534857D01*
D11*
X4744381Y-67905238D02*
X4744381Y-68476667D01*
X4744381Y-68190953D02*
X3744381Y-68190953D01*
X3887238Y-68286191D01*
X3982476Y-68381429D01*
X4030095Y-68476667D01*
X3744381Y-67286191D02*
X3744381Y-67190952D01*
X3792000Y-67095714D01*
X3839619Y-67048095D01*
X3934857Y-67000476D01*
X4125333Y-66952857D01*
X4363429Y-66952857D01*
X4553905Y-67000476D01*
X4649143Y-67048095D01*
X4696762Y-67095714D01*
X4744381Y-67190952D01*
X4744381Y-67286191D01*
X4696762Y-67381429D01*
X4649143Y-67429048D01*
X4553905Y-67476667D01*
X4363429Y-67524286D01*
X4125333Y-67524286D01*
X3934857Y-67476667D01*
X3839619Y-67429048D01*
X3792000Y-67381429D01*
X3744381Y-67286191D01*
X4744381Y-66524286D02*
X3744381Y-66524286D01*
X4363429Y-66429048D02*
X4744381Y-66143333D01*
X4077714Y-66143333D02*
X4458667Y-66524286D01*
D12*
X6022952Y-67376666D02*
X5832476Y-67510000D01*
X6022952Y-67605238D02*
X5622952Y-67605238D01*
X5622952Y-67452857D01*
X5642000Y-67414762D01*
X5661048Y-67395714D01*
X5699143Y-67376666D01*
X5756286Y-67376666D01*
X5794381Y-67395714D01*
X5813429Y-67414762D01*
X5832476Y-67452857D01*
X5832476Y-67605238D01*
X5756286Y-67033809D02*
X6022952Y-67033809D01*
X5603905Y-67129047D02*
X5889619Y-67224286D01*
X5889619Y-66976666D01*
D11*
X17907096Y-85897381D02*
X17335667Y-85897381D01*
X17621381Y-85897381D02*
X17621381Y-84897381D01*
X17526143Y-85040238D01*
X17430905Y-85135476D01*
X17335667Y-85183095D01*
X18526143Y-84897381D02*
X18621382Y-84897381D01*
X18716620Y-84945000D01*
X18764239Y-84992619D01*
X18811858Y-85087857D01*
X18859477Y-85278333D01*
X18859477Y-85516429D01*
X18811858Y-85706905D01*
X18764239Y-85802143D01*
X18716620Y-85849762D01*
X18621382Y-85897381D01*
X18526143Y-85897381D01*
X18430905Y-85849762D01*
X18383286Y-85802143D01*
X18335667Y-85706905D01*
X18288048Y-85516429D01*
X18288048Y-85278333D01*
X18335667Y-85087857D01*
X18383286Y-84992619D01*
X18430905Y-84945000D01*
X18526143Y-84897381D01*
X19288048Y-85897381D02*
X19288048Y-84897381D01*
X19621382Y-85611667D01*
X19954715Y-84897381D01*
X19954715Y-85897381D01*
D12*
X18602334Y-87175952D02*
X18469000Y-86985476D01*
X18373762Y-87175952D02*
X18373762Y-86775952D01*
X18526143Y-86775952D01*
X18564238Y-86795000D01*
X18583286Y-86814048D01*
X18602334Y-86852143D01*
X18602334Y-86909286D01*
X18583286Y-86947381D01*
X18564238Y-86966429D01*
X18526143Y-86985476D01*
X18373762Y-86985476D01*
X18964238Y-86775952D02*
X18773762Y-86775952D01*
X18754714Y-86966429D01*
X18773762Y-86947381D01*
X18811857Y-86928333D01*
X18907095Y-86928333D01*
X18945191Y-86947381D01*
X18964238Y-86966429D01*
X18983286Y-87004524D01*
X18983286Y-87099762D01*
X18964238Y-87137857D01*
X18945191Y-87156905D01*
X18907095Y-87175952D01*
X18811857Y-87175952D01*
X18773762Y-87156905D01*
X18754714Y-87137857D01*
D11*
X17907096Y-83230381D02*
X17335667Y-83230381D01*
X17621381Y-83230381D02*
X17621381Y-82230381D01*
X17526143Y-82373238D01*
X17430905Y-82468476D01*
X17335667Y-82516095D01*
X18526143Y-82230381D02*
X18621382Y-82230381D01*
X18716620Y-82278000D01*
X18764239Y-82325619D01*
X18811858Y-82420857D01*
X18859477Y-82611333D01*
X18859477Y-82849429D01*
X18811858Y-83039905D01*
X18764239Y-83135143D01*
X18716620Y-83182762D01*
X18621382Y-83230381D01*
X18526143Y-83230381D01*
X18430905Y-83182762D01*
X18383286Y-83135143D01*
X18335667Y-83039905D01*
X18288048Y-82849429D01*
X18288048Y-82611333D01*
X18335667Y-82420857D01*
X18383286Y-82325619D01*
X18430905Y-82278000D01*
X18526143Y-82230381D01*
X19288048Y-83230381D02*
X19288048Y-82230381D01*
X19621382Y-82944667D01*
X19954715Y-82230381D01*
X19954715Y-83230381D01*
D12*
X18602334Y-84508952D02*
X18469000Y-84318476D01*
X18373762Y-84508952D02*
X18373762Y-84108952D01*
X18526143Y-84108952D01*
X18564238Y-84128000D01*
X18583286Y-84147048D01*
X18602334Y-84185143D01*
X18602334Y-84242286D01*
X18583286Y-84280381D01*
X18564238Y-84299429D01*
X18526143Y-84318476D01*
X18373762Y-84318476D01*
X18945191Y-84108952D02*
X18869000Y-84108952D01*
X18830905Y-84128000D01*
X18811857Y-84147048D01*
X18773762Y-84204190D01*
X18754714Y-84280381D01*
X18754714Y-84432762D01*
X18773762Y-84470857D01*
X18792810Y-84489905D01*
X18830905Y-84508952D01*
X18907095Y-84508952D01*
X18945191Y-84489905D01*
X18964238Y-84470857D01*
X18983286Y-84432762D01*
X18983286Y-84337524D01*
X18964238Y-84299429D01*
X18945191Y-84280381D01*
X18907095Y-84261333D01*
X18830905Y-84261333D01*
X18792810Y-84280381D01*
X18773762Y-84299429D01*
X18754714Y-84337524D01*
D11*
X17037537Y-67604119D02*
X17104882Y-67671463D01*
X17138553Y-67772478D01*
X17138553Y-67839822D01*
X17104882Y-67940837D01*
X17003866Y-68109196D01*
X16835507Y-68277555D01*
X16667148Y-68378570D01*
X16566133Y-68412242D01*
X16498790Y-68412242D01*
X16397775Y-68378570D01*
X16330431Y-68311226D01*
X16296759Y-68210211D01*
X16296759Y-68142867D01*
X16330431Y-68041852D01*
X16431446Y-67873494D01*
X16599805Y-67705134D01*
X16768164Y-67604119D01*
X16869179Y-67570447D01*
X16936522Y-67570447D01*
X17037537Y-67604119D01*
D12*
X17604908Y-67009812D02*
X17645313Y-66780844D01*
X17443283Y-66848188D02*
X17726126Y-66565345D01*
X17833875Y-66673095D01*
X17847343Y-66713501D01*
X17847343Y-66740439D01*
X17833875Y-66780845D01*
X17793469Y-66821251D01*
X17753063Y-66834719D01*
X17726125Y-66834719D01*
X17685719Y-66821250D01*
X17577970Y-66713501D01*
X17982031Y-66821250D02*
X18170593Y-67009812D01*
X17766532Y-67171437D01*
D11*
X8098381Y-89947714D02*
X8098381Y-90519143D01*
X8098381Y-90233429D02*
X7098381Y-90233429D01*
X7241238Y-90328667D01*
X7336476Y-90423905D01*
X7384095Y-90519143D01*
X8098381Y-89519143D02*
X7098381Y-89519143D01*
X7812667Y-89185809D01*
X7098381Y-88852476D01*
X8098381Y-88852476D01*
D12*
X6276952Y-89728666D02*
X6086476Y-89862000D01*
X6276952Y-89957238D02*
X5876952Y-89957238D01*
X5876952Y-89804857D01*
X5896000Y-89766762D01*
X5915048Y-89747714D01*
X5953143Y-89728666D01*
X6010286Y-89728666D01*
X6048381Y-89747714D01*
X6067429Y-89766762D01*
X6086476Y-89804857D01*
X6086476Y-89957238D01*
X6048381Y-89500095D02*
X6029333Y-89538190D01*
X6010286Y-89557238D01*
X5972190Y-89576286D01*
X5953143Y-89576286D01*
X5915048Y-89557238D01*
X5896000Y-89538190D01*
X5876952Y-89500095D01*
X5876952Y-89423905D01*
X5896000Y-89385809D01*
X5915048Y-89366762D01*
X5953143Y-89347714D01*
X5972190Y-89347714D01*
X6010286Y-89366762D01*
X6029333Y-89385809D01*
X6048381Y-89423905D01*
X6048381Y-89500095D01*
X6067429Y-89538190D01*
X6086476Y-89557238D01*
X6124571Y-89576286D01*
X6200762Y-89576286D01*
X6238857Y-89557238D01*
X6257905Y-89538190D01*
X6276952Y-89500095D01*
X6276952Y-89423905D01*
X6257905Y-89385809D01*
X6238857Y-89366762D01*
X6200762Y-89347714D01*
X6124571Y-89347714D01*
X6086476Y-89366762D01*
X6067429Y-89385809D01*
X6048381Y-89423905D01*
D11*
X10638381Y-60229714D02*
X10638381Y-60801143D01*
X10638381Y-60515429D02*
X9638381Y-60515429D01*
X9781238Y-60610667D01*
X9876476Y-60705905D01*
X9924095Y-60801143D01*
X10638381Y-59801143D02*
X9638381Y-59801143D01*
X10352667Y-59467809D01*
X9638381Y-59134476D01*
X10638381Y-59134476D01*
D12*
X8816952Y-60010666D02*
X8626476Y-60144000D01*
X8816952Y-60239238D02*
X8416952Y-60239238D01*
X8416952Y-60086857D01*
X8436000Y-60048762D01*
X8455048Y-60029714D01*
X8493143Y-60010666D01*
X8550286Y-60010666D01*
X8588381Y-60029714D01*
X8607429Y-60048762D01*
X8626476Y-60086857D01*
X8626476Y-60239238D01*
X8816952Y-59820190D02*
X8816952Y-59744000D01*
X8797905Y-59705905D01*
X8778857Y-59686857D01*
X8721714Y-59648762D01*
X8645524Y-59629714D01*
X8493143Y-59629714D01*
X8455048Y-59648762D01*
X8436000Y-59667809D01*
X8416952Y-59705905D01*
X8416952Y-59782095D01*
X8436000Y-59820190D01*
X8455048Y-59839238D01*
X8493143Y-59858286D01*
X8588381Y-59858286D01*
X8626476Y-59839238D01*
X8645524Y-59820190D01*
X8664571Y-59782095D01*
X8664571Y-59705905D01*
X8645524Y-59667809D01*
X8626476Y-59648762D01*
X8588381Y-59629714D01*
D11*
X8382096Y-87802381D02*
X7810667Y-87802381D01*
X8096381Y-87802381D02*
X8096381Y-86802381D01*
X8001143Y-86945238D01*
X7905905Y-87040476D01*
X7810667Y-87088095D01*
X9001143Y-86802381D02*
X9096382Y-86802381D01*
X9191620Y-86850000D01*
X9239239Y-86897619D01*
X9286858Y-86992857D01*
X9334477Y-87183333D01*
X9334477Y-87421429D01*
X9286858Y-87611905D01*
X9239239Y-87707143D01*
X9191620Y-87754762D01*
X9096382Y-87802381D01*
X9001143Y-87802381D01*
X8905905Y-87754762D01*
X8858286Y-87707143D01*
X8810667Y-87611905D01*
X8763048Y-87421429D01*
X8763048Y-87183333D01*
X8810667Y-86992857D01*
X8858286Y-86897619D01*
X8905905Y-86850000D01*
X9001143Y-86802381D01*
X9763048Y-87802381D02*
X9763048Y-86802381D01*
X10096382Y-87516667D01*
X10429715Y-86802381D01*
X10429715Y-87802381D01*
D12*
X8886858Y-89080952D02*
X8753524Y-88890476D01*
X8658286Y-89080952D02*
X8658286Y-88680952D01*
X8810667Y-88680952D01*
X8848762Y-88700000D01*
X8867810Y-88719048D01*
X8886858Y-88757143D01*
X8886858Y-88814286D01*
X8867810Y-88852381D01*
X8848762Y-88871429D01*
X8810667Y-88890476D01*
X8658286Y-88890476D01*
X9267810Y-89080952D02*
X9039238Y-89080952D01*
X9153524Y-89080952D02*
X9153524Y-88680952D01*
X9115429Y-88738095D01*
X9077334Y-88776190D01*
X9039238Y-88795238D01*
X9515429Y-88680952D02*
X9553524Y-88680952D01*
X9591619Y-88700000D01*
X9610667Y-88719048D01*
X9629714Y-88757143D01*
X9648762Y-88833333D01*
X9648762Y-88928571D01*
X9629714Y-89004762D01*
X9610667Y-89042857D01*
X9591619Y-89061905D01*
X9553524Y-89080952D01*
X9515429Y-89080952D01*
X9477333Y-89061905D01*
X9458286Y-89042857D01*
X9439238Y-89004762D01*
X9420190Y-88928571D01*
X9420190Y-88833333D01*
X9439238Y-88757143D01*
X9458286Y-88719048D01*
X9477333Y-88700000D01*
X9515429Y-88680952D01*
D11*
X9876381Y-86645714D02*
X9876381Y-87217143D01*
X9876381Y-86931429D02*
X8876381Y-86931429D01*
X9019238Y-87026667D01*
X9114476Y-87121905D01*
X9162095Y-87217143D01*
X9876381Y-86217143D02*
X8876381Y-86217143D01*
X9590667Y-85883809D01*
X8876381Y-85550476D01*
X9876381Y-85550476D01*
D12*
X8054952Y-86617142D02*
X7864476Y-86750476D01*
X8054952Y-86845714D02*
X7654952Y-86845714D01*
X7654952Y-86693333D01*
X7674000Y-86655238D01*
X7693048Y-86636190D01*
X7731143Y-86617142D01*
X7788286Y-86617142D01*
X7826381Y-86636190D01*
X7845429Y-86655238D01*
X7864476Y-86693333D01*
X7864476Y-86845714D01*
X8054952Y-86236190D02*
X8054952Y-86464762D01*
X8054952Y-86350476D02*
X7654952Y-86350476D01*
X7712095Y-86388571D01*
X7750190Y-86426666D01*
X7769238Y-86464762D01*
X8054952Y-85855238D02*
X8054952Y-86083810D01*
X8054952Y-85969524D02*
X7654952Y-85969524D01*
X7712095Y-86007619D01*
X7750190Y-86045714D01*
X7769238Y-86083810D01*
D11*
X10922096Y-58084381D02*
X10350667Y-58084381D01*
X10636381Y-58084381D02*
X10636381Y-57084381D01*
X10541143Y-57227238D01*
X10445905Y-57322476D01*
X10350667Y-57370095D01*
X11541143Y-57084381D02*
X11636382Y-57084381D01*
X11731620Y-57132000D01*
X11779239Y-57179619D01*
X11826858Y-57274857D01*
X11874477Y-57465333D01*
X11874477Y-57703429D01*
X11826858Y-57893905D01*
X11779239Y-57989143D01*
X11731620Y-58036762D01*
X11636382Y-58084381D01*
X11541143Y-58084381D01*
X11445905Y-58036762D01*
X11398286Y-57989143D01*
X11350667Y-57893905D01*
X11303048Y-57703429D01*
X11303048Y-57465333D01*
X11350667Y-57274857D01*
X11398286Y-57179619D01*
X11445905Y-57132000D01*
X11541143Y-57084381D01*
X12303048Y-58084381D02*
X12303048Y-57084381D01*
X12636382Y-57798667D01*
X12969715Y-57084381D01*
X12969715Y-58084381D01*
D12*
X11426858Y-59362952D02*
X11293524Y-59172476D01*
X11198286Y-59362952D02*
X11198286Y-58962952D01*
X11350667Y-58962952D01*
X11388762Y-58982000D01*
X11407810Y-59001048D01*
X11426858Y-59039143D01*
X11426858Y-59096286D01*
X11407810Y-59134381D01*
X11388762Y-59153429D01*
X11350667Y-59172476D01*
X11198286Y-59172476D01*
X11807810Y-59362952D02*
X11579238Y-59362952D01*
X11693524Y-59362952D02*
X11693524Y-58962952D01*
X11655429Y-59020095D01*
X11617334Y-59058190D01*
X11579238Y-59077238D01*
X11960190Y-59001048D02*
X11979238Y-58982000D01*
X12017333Y-58962952D01*
X12112571Y-58962952D01*
X12150667Y-58982000D01*
X12169714Y-59001048D01*
X12188762Y-59039143D01*
X12188762Y-59077238D01*
X12169714Y-59134381D01*
X11941143Y-59362952D01*
X12188762Y-59362952D01*
D11*
X9366286Y-64486381D02*
X8794857Y-64486381D01*
X9080571Y-64486381D02*
X9080571Y-63486381D01*
X8985333Y-63629238D01*
X8890095Y-63724476D01*
X8794857Y-63772095D01*
X9794857Y-64486381D02*
X9794857Y-63486381D01*
X10128191Y-64200667D01*
X10461524Y-63486381D01*
X10461524Y-64486381D01*
D12*
X9394858Y-62664952D02*
X9261524Y-62474476D01*
X9166286Y-62664952D02*
X9166286Y-62264952D01*
X9318667Y-62264952D01*
X9356762Y-62284000D01*
X9375810Y-62303048D01*
X9394858Y-62341143D01*
X9394858Y-62398286D01*
X9375810Y-62436381D01*
X9356762Y-62455429D01*
X9318667Y-62474476D01*
X9166286Y-62474476D01*
X9775810Y-62664952D02*
X9547238Y-62664952D01*
X9661524Y-62664952D02*
X9661524Y-62264952D01*
X9623429Y-62322095D01*
X9585334Y-62360190D01*
X9547238Y-62379238D01*
X9909143Y-62264952D02*
X10156762Y-62264952D01*
X10023429Y-62417333D01*
X10080571Y-62417333D01*
X10118667Y-62436381D01*
X10137714Y-62455429D01*
X10156762Y-62493524D01*
X10156762Y-62588762D01*
X10137714Y-62626857D01*
X10118667Y-62645905D01*
X10080571Y-62664952D01*
X9966286Y-62664952D01*
X9928190Y-62645905D01*
X9909143Y-62626857D01*
D11*
X11882572Y-87802381D02*
X11311143Y-87802381D01*
X11596857Y-87802381D02*
X11596857Y-86802381D01*
X11501619Y-86945238D01*
X11406381Y-87040476D01*
X11311143Y-87088095D01*
X12501619Y-86802381D02*
X12596858Y-86802381D01*
X12692096Y-86850000D01*
X12739715Y-86897619D01*
X12787334Y-86992857D01*
X12834953Y-87183333D01*
X12834953Y-87421429D01*
X12787334Y-87611905D01*
X12739715Y-87707143D01*
X12692096Y-87754762D01*
X12596858Y-87802381D01*
X12501619Y-87802381D01*
X12406381Y-87754762D01*
X12358762Y-87707143D01*
X12311143Y-87611905D01*
X12263524Y-87421429D01*
X12263524Y-87183333D01*
X12311143Y-86992857D01*
X12358762Y-86897619D01*
X12406381Y-86850000D01*
X12501619Y-86802381D01*
X13454000Y-86802381D02*
X13549239Y-86802381D01*
X13644477Y-86850000D01*
X13692096Y-86897619D01*
X13739715Y-86992857D01*
X13787334Y-87183333D01*
X13787334Y-87421429D01*
X13739715Y-87611905D01*
X13692096Y-87707143D01*
X13644477Y-87754762D01*
X13549239Y-87802381D01*
X13454000Y-87802381D01*
X13358762Y-87754762D01*
X13311143Y-87707143D01*
X13263524Y-87611905D01*
X13215905Y-87421429D01*
X13215905Y-87183333D01*
X13263524Y-86992857D01*
X13311143Y-86897619D01*
X13358762Y-86850000D01*
X13454000Y-86802381D01*
X14215905Y-87802381D02*
X14215905Y-86802381D01*
X14311143Y-87421429D02*
X14596858Y-87802381D01*
X14596858Y-87135714D02*
X14215905Y-87516667D01*
D12*
X12696858Y-89080952D02*
X12563524Y-88890476D01*
X12468286Y-89080952D02*
X12468286Y-88680952D01*
X12620667Y-88680952D01*
X12658762Y-88700000D01*
X12677810Y-88719048D01*
X12696858Y-88757143D01*
X12696858Y-88814286D01*
X12677810Y-88852381D01*
X12658762Y-88871429D01*
X12620667Y-88890476D01*
X12468286Y-88890476D01*
X13077810Y-89080952D02*
X12849238Y-89080952D01*
X12963524Y-89080952D02*
X12963524Y-88680952D01*
X12925429Y-88738095D01*
X12887334Y-88776190D01*
X12849238Y-88795238D01*
X13420667Y-88814286D02*
X13420667Y-89080952D01*
X13325429Y-88661905D02*
X13230190Y-88947619D01*
X13477810Y-88947619D01*
D11*
X13888381Y-60253428D02*
X13888381Y-60824857D01*
X13888381Y-60539143D02*
X12888381Y-60539143D01*
X13031238Y-60634381D01*
X13126476Y-60729619D01*
X13174095Y-60824857D01*
X12888381Y-59634381D02*
X12888381Y-59539142D01*
X12936000Y-59443904D01*
X12983619Y-59396285D01*
X13078857Y-59348666D01*
X13269333Y-59301047D01*
X13507429Y-59301047D01*
X13697905Y-59348666D01*
X13793143Y-59396285D01*
X13840762Y-59443904D01*
X13888381Y-59539142D01*
X13888381Y-59634381D01*
X13840762Y-59729619D01*
X13793143Y-59777238D01*
X13697905Y-59824857D01*
X13507429Y-59872476D01*
X13269333Y-59872476D01*
X13078857Y-59824857D01*
X12983619Y-59777238D01*
X12936000Y-59729619D01*
X12888381Y-59634381D01*
X12888381Y-58682000D02*
X12888381Y-58586761D01*
X12936000Y-58491523D01*
X12983619Y-58443904D01*
X13078857Y-58396285D01*
X13269333Y-58348666D01*
X13507429Y-58348666D01*
X13697905Y-58396285D01*
X13793143Y-58443904D01*
X13840762Y-58491523D01*
X13888381Y-58586761D01*
X13888381Y-58682000D01*
X13840762Y-58777238D01*
X13793143Y-58824857D01*
X13697905Y-58872476D01*
X13507429Y-58920095D01*
X13269333Y-58920095D01*
X13078857Y-58872476D01*
X12983619Y-58824857D01*
X12936000Y-58777238D01*
X12888381Y-58682000D01*
X13888381Y-57920095D02*
X12888381Y-57920095D01*
X13507429Y-57824857D02*
X13888381Y-57539142D01*
X13221714Y-57539142D02*
X13602667Y-57920095D01*
D12*
X15166952Y-59439142D02*
X14976476Y-59572476D01*
X15166952Y-59667714D02*
X14766952Y-59667714D01*
X14766952Y-59515333D01*
X14786000Y-59477238D01*
X14805048Y-59458190D01*
X14843143Y-59439142D01*
X14900286Y-59439142D01*
X14938381Y-59458190D01*
X14957429Y-59477238D01*
X14976476Y-59515333D01*
X14976476Y-59667714D01*
X15166952Y-59058190D02*
X15166952Y-59286762D01*
X15166952Y-59172476D02*
X14766952Y-59172476D01*
X14824095Y-59210571D01*
X14862190Y-59248666D01*
X14881238Y-59286762D01*
X14766952Y-58696286D02*
X14766952Y-58886762D01*
X14957429Y-58905810D01*
X14938381Y-58886762D01*
X14919333Y-58848667D01*
X14919333Y-58753429D01*
X14938381Y-58715333D01*
X14957429Y-58696286D01*
X14995524Y-58677238D01*
X15090762Y-58677238D01*
X15128857Y-58696286D01*
X15147905Y-58715333D01*
X15166952Y-58753429D01*
X15166952Y-58848667D01*
X15147905Y-58886762D01*
X15128857Y-58905810D01*
D11*
X10358572Y-86278381D02*
X9787143Y-86278381D01*
X10072857Y-86278381D02*
X10072857Y-85278381D01*
X9977619Y-85421238D01*
X9882381Y-85516476D01*
X9787143Y-85564095D01*
X10977619Y-85278381D02*
X11072858Y-85278381D01*
X11168096Y-85326000D01*
X11215715Y-85373619D01*
X11263334Y-85468857D01*
X11310953Y-85659333D01*
X11310953Y-85897429D01*
X11263334Y-86087905D01*
X11215715Y-86183143D01*
X11168096Y-86230762D01*
X11072858Y-86278381D01*
X10977619Y-86278381D01*
X10882381Y-86230762D01*
X10834762Y-86183143D01*
X10787143Y-86087905D01*
X10739524Y-85897429D01*
X10739524Y-85659333D01*
X10787143Y-85468857D01*
X10834762Y-85373619D01*
X10882381Y-85326000D01*
X10977619Y-85278381D01*
X11930000Y-85278381D02*
X12025239Y-85278381D01*
X12120477Y-85326000D01*
X12168096Y-85373619D01*
X12215715Y-85468857D01*
X12263334Y-85659333D01*
X12263334Y-85897429D01*
X12215715Y-86087905D01*
X12168096Y-86183143D01*
X12120477Y-86230762D01*
X12025239Y-86278381D01*
X11930000Y-86278381D01*
X11834762Y-86230762D01*
X11787143Y-86183143D01*
X11739524Y-86087905D01*
X11691905Y-85897429D01*
X11691905Y-85659333D01*
X11739524Y-85468857D01*
X11787143Y-85373619D01*
X11834762Y-85326000D01*
X11930000Y-85278381D01*
X12691905Y-86278381D02*
X12691905Y-85278381D01*
X12787143Y-85897429D02*
X13072858Y-86278381D01*
X13072858Y-85611714D02*
X12691905Y-85992667D01*
D12*
X11172858Y-87556952D02*
X11039524Y-87366476D01*
X10944286Y-87556952D02*
X10944286Y-87156952D01*
X11096667Y-87156952D01*
X11134762Y-87176000D01*
X11153810Y-87195048D01*
X11172858Y-87233143D01*
X11172858Y-87290286D01*
X11153810Y-87328381D01*
X11134762Y-87347429D01*
X11096667Y-87366476D01*
X10944286Y-87366476D01*
X11553810Y-87556952D02*
X11325238Y-87556952D01*
X11439524Y-87556952D02*
X11439524Y-87156952D01*
X11401429Y-87214095D01*
X11363334Y-87252190D01*
X11325238Y-87271238D01*
X11896667Y-87156952D02*
X11820476Y-87156952D01*
X11782381Y-87176000D01*
X11763333Y-87195048D01*
X11725238Y-87252190D01*
X11706190Y-87328381D01*
X11706190Y-87480762D01*
X11725238Y-87518857D01*
X11744286Y-87537905D01*
X11782381Y-87556952D01*
X11858571Y-87556952D01*
X11896667Y-87537905D01*
X11915714Y-87518857D01*
X11934762Y-87480762D01*
X11934762Y-87385524D01*
X11915714Y-87347429D01*
X11896667Y-87328381D01*
X11858571Y-87309333D01*
X11782381Y-87309333D01*
X11744286Y-87328381D01*
X11725238Y-87347429D01*
X11706190Y-87385524D01*
D11*
X12898572Y-62656381D02*
X12327143Y-62656381D01*
X12612857Y-62656381D02*
X12612857Y-61656381D01*
X12517619Y-61799238D01*
X12422381Y-61894476D01*
X12327143Y-61942095D01*
X13517619Y-61656381D02*
X13612858Y-61656381D01*
X13708096Y-61704000D01*
X13755715Y-61751619D01*
X13803334Y-61846857D01*
X13850953Y-62037333D01*
X13850953Y-62275429D01*
X13803334Y-62465905D01*
X13755715Y-62561143D01*
X13708096Y-62608762D01*
X13612858Y-62656381D01*
X13517619Y-62656381D01*
X13422381Y-62608762D01*
X13374762Y-62561143D01*
X13327143Y-62465905D01*
X13279524Y-62275429D01*
X13279524Y-62037333D01*
X13327143Y-61846857D01*
X13374762Y-61751619D01*
X13422381Y-61704000D01*
X13517619Y-61656381D01*
X14470000Y-61656381D02*
X14565239Y-61656381D01*
X14660477Y-61704000D01*
X14708096Y-61751619D01*
X14755715Y-61846857D01*
X14803334Y-62037333D01*
X14803334Y-62275429D01*
X14755715Y-62465905D01*
X14708096Y-62561143D01*
X14660477Y-62608762D01*
X14565239Y-62656381D01*
X14470000Y-62656381D01*
X14374762Y-62608762D01*
X14327143Y-62561143D01*
X14279524Y-62465905D01*
X14231905Y-62275429D01*
X14231905Y-62037333D01*
X14279524Y-61846857D01*
X14327143Y-61751619D01*
X14374762Y-61704000D01*
X14470000Y-61656381D01*
X15231905Y-62656381D02*
X15231905Y-61656381D01*
X15327143Y-62275429D02*
X15612858Y-62656381D01*
X15612858Y-61989714D02*
X15231905Y-62370667D01*
D12*
X13712858Y-63934952D02*
X13579524Y-63744476D01*
X13484286Y-63934952D02*
X13484286Y-63534952D01*
X13636667Y-63534952D01*
X13674762Y-63554000D01*
X13693810Y-63573048D01*
X13712858Y-63611143D01*
X13712858Y-63668286D01*
X13693810Y-63706381D01*
X13674762Y-63725429D01*
X13636667Y-63744476D01*
X13484286Y-63744476D01*
X14093810Y-63934952D02*
X13865238Y-63934952D01*
X13979524Y-63934952D02*
X13979524Y-63534952D01*
X13941429Y-63592095D01*
X13903334Y-63630190D01*
X13865238Y-63649238D01*
X14227143Y-63534952D02*
X14493810Y-63534952D01*
X14322381Y-63934952D01*
D11*
X43037714Y-67170809D02*
X43704381Y-67170809D01*
X42656762Y-67408905D02*
X43371048Y-67647000D01*
X43371048Y-67027952D01*
X43609143Y-66647000D02*
X43656762Y-66599381D01*
X43704381Y-66647000D01*
X43656762Y-66694619D01*
X43609143Y-66647000D01*
X43704381Y-66647000D01*
X42704381Y-66266048D02*
X42704381Y-65599381D01*
X43704381Y-66027953D01*
D12*
X41882952Y-66904142D02*
X41692476Y-67037476D01*
X41882952Y-67132714D02*
X41482952Y-67132714D01*
X41482952Y-66980333D01*
X41502000Y-66942238D01*
X41521048Y-66923190D01*
X41559143Y-66904142D01*
X41616286Y-66904142D01*
X41654381Y-66923190D01*
X41673429Y-66942238D01*
X41692476Y-66980333D01*
X41692476Y-67132714D01*
X41882952Y-66523190D02*
X41882952Y-66751762D01*
X41882952Y-66637476D02*
X41482952Y-66637476D01*
X41540095Y-66675571D01*
X41578190Y-66713666D01*
X41597238Y-66751762D01*
X41654381Y-66294619D02*
X41635333Y-66332714D01*
X41616286Y-66351762D01*
X41578190Y-66370810D01*
X41559143Y-66370810D01*
X41521048Y-66351762D01*
X41502000Y-66332714D01*
X41482952Y-66294619D01*
X41482952Y-66218429D01*
X41502000Y-66180333D01*
X41521048Y-66161286D01*
X41559143Y-66142238D01*
X41578190Y-66142238D01*
X41616286Y-66161286D01*
X41635333Y-66180333D01*
X41654381Y-66218429D01*
X41654381Y-66294619D01*
X41673429Y-66332714D01*
X41692476Y-66351762D01*
X41730571Y-66370810D01*
X41806762Y-66370810D01*
X41844857Y-66351762D01*
X41863905Y-66332714D01*
X41882952Y-66294619D01*
X41882952Y-66218429D01*
X41863905Y-66180333D01*
X41844857Y-66161286D01*
X41806762Y-66142238D01*
X41730571Y-66142238D01*
X41692476Y-66161286D01*
X41673429Y-66180333D01*
X41654381Y-66218429D01*
D11*
X37859714Y-83200809D02*
X38526381Y-83200809D01*
X37478762Y-83438905D02*
X38193048Y-83677000D01*
X38193048Y-83057952D01*
X38431143Y-82677000D02*
X38478762Y-82629381D01*
X38526381Y-82677000D01*
X38478762Y-82724619D01*
X38431143Y-82677000D01*
X38526381Y-82677000D01*
X37526381Y-82296048D02*
X37526381Y-81629381D01*
X38526381Y-82057953D01*
D12*
X39804952Y-82934142D02*
X39614476Y-83067476D01*
X39804952Y-83162714D02*
X39404952Y-83162714D01*
X39404952Y-83010333D01*
X39424000Y-82972238D01*
X39443048Y-82953190D01*
X39481143Y-82934142D01*
X39538286Y-82934142D01*
X39576381Y-82953190D01*
X39595429Y-82972238D01*
X39614476Y-83010333D01*
X39614476Y-83162714D01*
X39804952Y-82553190D02*
X39804952Y-82781762D01*
X39804952Y-82667476D02*
X39404952Y-82667476D01*
X39462095Y-82705571D01*
X39500190Y-82743666D01*
X39519238Y-82781762D01*
X39804952Y-82362714D02*
X39804952Y-82286524D01*
X39785905Y-82248429D01*
X39766857Y-82229381D01*
X39709714Y-82191286D01*
X39633524Y-82172238D01*
X39481143Y-82172238D01*
X39443048Y-82191286D01*
X39424000Y-82210333D01*
X39404952Y-82248429D01*
X39404952Y-82324619D01*
X39424000Y-82362714D01*
X39443048Y-82381762D01*
X39481143Y-82400810D01*
X39576381Y-82400810D01*
X39614476Y-82381762D01*
X39633524Y-82362714D01*
X39652571Y-82324619D01*
X39652571Y-82248429D01*
X39633524Y-82210333D01*
X39614476Y-82191286D01*
X39576381Y-82172238D01*
D11*
X46446381Y-64829238D02*
X46446381Y-65400667D01*
X46446381Y-65114953D02*
X45446381Y-65114953D01*
X45589238Y-65210191D01*
X45684476Y-65305429D01*
X45732095Y-65400667D01*
X45446381Y-64210191D02*
X45446381Y-64114952D01*
X45494000Y-64019714D01*
X45541619Y-63972095D01*
X45636857Y-63924476D01*
X45827333Y-63876857D01*
X46065429Y-63876857D01*
X46255905Y-63924476D01*
X46351143Y-63972095D01*
X46398762Y-64019714D01*
X46446381Y-64114952D01*
X46446381Y-64210191D01*
X46398762Y-64305429D01*
X46351143Y-64353048D01*
X46255905Y-64400667D01*
X46065429Y-64448286D01*
X45827333Y-64448286D01*
X45636857Y-64400667D01*
X45541619Y-64353048D01*
X45494000Y-64305429D01*
X45446381Y-64210191D01*
X46446381Y-63448286D02*
X45446381Y-63448286D01*
X46065429Y-63353048D02*
X46446381Y-63067333D01*
X45779714Y-63067333D02*
X46160667Y-63448286D01*
D12*
X47724952Y-64491142D02*
X47534476Y-64624476D01*
X47724952Y-64719714D02*
X47324952Y-64719714D01*
X47324952Y-64567333D01*
X47344000Y-64529238D01*
X47363048Y-64510190D01*
X47401143Y-64491142D01*
X47458286Y-64491142D01*
X47496381Y-64510190D01*
X47515429Y-64529238D01*
X47534476Y-64567333D01*
X47534476Y-64719714D01*
X47363048Y-64338762D02*
X47344000Y-64319714D01*
X47324952Y-64281619D01*
X47324952Y-64186381D01*
X47344000Y-64148285D01*
X47363048Y-64129238D01*
X47401143Y-64110190D01*
X47439238Y-64110190D01*
X47496381Y-64129238D01*
X47724952Y-64357809D01*
X47724952Y-64110190D01*
X47324952Y-63862571D02*
X47324952Y-63824476D01*
X47344000Y-63786381D01*
X47363048Y-63767333D01*
X47401143Y-63748286D01*
X47477333Y-63729238D01*
X47572571Y-63729238D01*
X47648762Y-63748286D01*
X47686857Y-63767333D01*
X47705905Y-63786381D01*
X47724952Y-63824476D01*
X47724952Y-63862571D01*
X47705905Y-63900667D01*
X47686857Y-63919714D01*
X47648762Y-63938762D01*
X47572571Y-63957810D01*
X47477333Y-63957810D01*
X47401143Y-63938762D01*
X47363048Y-63919714D01*
X47344000Y-63900667D01*
X47324952Y-63862571D01*
D11*
X45944381Y-83145238D02*
X45944381Y-83716667D01*
X45944381Y-83430953D02*
X44944381Y-83430953D01*
X45087238Y-83526191D01*
X45182476Y-83621429D01*
X45230095Y-83716667D01*
X44944381Y-82526191D02*
X44944381Y-82430952D01*
X44992000Y-82335714D01*
X45039619Y-82288095D01*
X45134857Y-82240476D01*
X45325333Y-82192857D01*
X45563429Y-82192857D01*
X45753905Y-82240476D01*
X45849143Y-82288095D01*
X45896762Y-82335714D01*
X45944381Y-82430952D01*
X45944381Y-82526191D01*
X45896762Y-82621429D01*
X45849143Y-82669048D01*
X45753905Y-82716667D01*
X45563429Y-82764286D01*
X45325333Y-82764286D01*
X45134857Y-82716667D01*
X45039619Y-82669048D01*
X44992000Y-82621429D01*
X44944381Y-82526191D01*
X45944381Y-81764286D02*
X44944381Y-81764286D01*
X45563429Y-81669048D02*
X45944381Y-81383333D01*
X45277714Y-81383333D02*
X45658667Y-81764286D01*
D12*
X44122952Y-82807142D02*
X43932476Y-82940476D01*
X44122952Y-83035714D02*
X43722952Y-83035714D01*
X43722952Y-82883333D01*
X43742000Y-82845238D01*
X43761048Y-82826190D01*
X43799143Y-82807142D01*
X43856286Y-82807142D01*
X43894381Y-82826190D01*
X43913429Y-82845238D01*
X43932476Y-82883333D01*
X43932476Y-83035714D01*
X43761048Y-82654762D02*
X43742000Y-82635714D01*
X43722952Y-82597619D01*
X43722952Y-82502381D01*
X43742000Y-82464285D01*
X43761048Y-82445238D01*
X43799143Y-82426190D01*
X43837238Y-82426190D01*
X43894381Y-82445238D01*
X44122952Y-82673809D01*
X44122952Y-82426190D01*
X44122952Y-82045238D02*
X44122952Y-82273810D01*
X44122952Y-82159524D02*
X43722952Y-82159524D01*
X43780095Y-82197619D01*
X43818190Y-82235714D01*
X43837238Y-82273810D01*
D11*
X30353096Y-86457381D02*
X29781667Y-86457381D01*
X30067381Y-86457381D02*
X30067381Y-85457381D01*
X29972143Y-85600238D01*
X29876905Y-85695476D01*
X29781667Y-85743095D01*
X30972143Y-85457381D02*
X31067382Y-85457381D01*
X31162620Y-85505000D01*
X31210239Y-85552619D01*
X31257858Y-85647857D01*
X31305477Y-85838333D01*
X31305477Y-86076429D01*
X31257858Y-86266905D01*
X31210239Y-86362143D01*
X31162620Y-86409762D01*
X31067382Y-86457381D01*
X30972143Y-86457381D01*
X30876905Y-86409762D01*
X30829286Y-86362143D01*
X30781667Y-86266905D01*
X30734048Y-86076429D01*
X30734048Y-85838333D01*
X30781667Y-85647857D01*
X30829286Y-85552619D01*
X30876905Y-85505000D01*
X30972143Y-85457381D01*
X31734048Y-86457381D02*
X31734048Y-85457381D01*
X32067382Y-86171667D01*
X32400715Y-85457381D01*
X32400715Y-86457381D01*
D12*
X30857858Y-84635952D02*
X30724524Y-84445476D01*
X30629286Y-84635952D02*
X30629286Y-84235952D01*
X30781667Y-84235952D01*
X30819762Y-84255000D01*
X30838810Y-84274048D01*
X30857858Y-84312143D01*
X30857858Y-84369286D01*
X30838810Y-84407381D01*
X30819762Y-84426429D01*
X30781667Y-84445476D01*
X30629286Y-84445476D01*
X31010238Y-84274048D02*
X31029286Y-84255000D01*
X31067381Y-84235952D01*
X31162619Y-84235952D01*
X31200715Y-84255000D01*
X31219762Y-84274048D01*
X31238810Y-84312143D01*
X31238810Y-84350238D01*
X31219762Y-84407381D01*
X30991191Y-84635952D01*
X31238810Y-84635952D01*
X31391190Y-84274048D02*
X31410238Y-84255000D01*
X31448333Y-84235952D01*
X31543571Y-84235952D01*
X31581667Y-84255000D01*
X31600714Y-84274048D01*
X31619762Y-84312143D01*
X31619762Y-84350238D01*
X31600714Y-84407381D01*
X31372143Y-84635952D01*
X31619762Y-84635952D01*
D11*
X30353096Y-88997381D02*
X29781667Y-88997381D01*
X30067381Y-88997381D02*
X30067381Y-87997381D01*
X29972143Y-88140238D01*
X29876905Y-88235476D01*
X29781667Y-88283095D01*
X30972143Y-87997381D02*
X31067382Y-87997381D01*
X31162620Y-88045000D01*
X31210239Y-88092619D01*
X31257858Y-88187857D01*
X31305477Y-88378333D01*
X31305477Y-88616429D01*
X31257858Y-88806905D01*
X31210239Y-88902143D01*
X31162620Y-88949762D01*
X31067382Y-88997381D01*
X30972143Y-88997381D01*
X30876905Y-88949762D01*
X30829286Y-88902143D01*
X30781667Y-88806905D01*
X30734048Y-88616429D01*
X30734048Y-88378333D01*
X30781667Y-88187857D01*
X30829286Y-88092619D01*
X30876905Y-88045000D01*
X30972143Y-87997381D01*
X31734048Y-88997381D02*
X31734048Y-87997381D01*
X32067382Y-88711667D01*
X32400715Y-87997381D01*
X32400715Y-88997381D01*
D12*
X30857858Y-87175952D02*
X30724524Y-86985476D01*
X30629286Y-87175952D02*
X30629286Y-86775952D01*
X30781667Y-86775952D01*
X30819762Y-86795000D01*
X30838810Y-86814048D01*
X30857858Y-86852143D01*
X30857858Y-86909286D01*
X30838810Y-86947381D01*
X30819762Y-86966429D01*
X30781667Y-86985476D01*
X30629286Y-86985476D01*
X31010238Y-86814048D02*
X31029286Y-86795000D01*
X31067381Y-86775952D01*
X31162619Y-86775952D01*
X31200715Y-86795000D01*
X31219762Y-86814048D01*
X31238810Y-86852143D01*
X31238810Y-86890238D01*
X31219762Y-86947381D01*
X30991191Y-87175952D01*
X31238810Y-87175952D01*
X31372143Y-86775952D02*
X31619762Y-86775952D01*
X31486429Y-86928333D01*
X31543571Y-86928333D01*
X31581667Y-86947381D01*
X31600714Y-86966429D01*
X31619762Y-87004524D01*
X31619762Y-87099762D01*
X31600714Y-87137857D01*
X31581667Y-87156905D01*
X31543571Y-87175952D01*
X31429286Y-87175952D01*
X31391190Y-87156905D01*
X31372143Y-87137857D01*
D11*
X41752381Y-62143714D02*
X41752381Y-62715143D01*
X41752381Y-62429429D02*
X40752381Y-62429429D01*
X40895238Y-62524667D01*
X40990476Y-62619905D01*
X41038095Y-62715143D01*
X41752381Y-61715143D02*
X40752381Y-61715143D01*
X41466667Y-61381809D01*
X40752381Y-61048476D01*
X41752381Y-61048476D01*
D12*
X39930952Y-62115142D02*
X39740476Y-62248476D01*
X39930952Y-62343714D02*
X39530952Y-62343714D01*
X39530952Y-62191333D01*
X39550000Y-62153238D01*
X39569048Y-62134190D01*
X39607143Y-62115142D01*
X39664286Y-62115142D01*
X39702381Y-62134190D01*
X39721429Y-62153238D01*
X39740476Y-62191333D01*
X39740476Y-62343714D01*
X39569048Y-61962762D02*
X39550000Y-61943714D01*
X39530952Y-61905619D01*
X39530952Y-61810381D01*
X39550000Y-61772285D01*
X39569048Y-61753238D01*
X39607143Y-61734190D01*
X39645238Y-61734190D01*
X39702381Y-61753238D01*
X39930952Y-61981809D01*
X39930952Y-61734190D01*
X39664286Y-61391333D02*
X39930952Y-61391333D01*
X39511905Y-61486571D02*
X39797619Y-61581810D01*
X39797619Y-61334190D01*
D11*
X44164286Y-87040381D02*
X43592857Y-87040381D01*
X43878571Y-87040381D02*
X43878571Y-86040381D01*
X43783333Y-86183238D01*
X43688095Y-86278476D01*
X43592857Y-86326095D01*
X44592857Y-87040381D02*
X44592857Y-86040381D01*
X44926191Y-86754667D01*
X45259524Y-86040381D01*
X45259524Y-87040381D01*
D12*
X44192858Y-88318952D02*
X44059524Y-88128476D01*
X43964286Y-88318952D02*
X43964286Y-87918952D01*
X44116667Y-87918952D01*
X44154762Y-87938000D01*
X44173810Y-87957048D01*
X44192858Y-87995143D01*
X44192858Y-88052286D01*
X44173810Y-88090381D01*
X44154762Y-88109429D01*
X44116667Y-88128476D01*
X43964286Y-88128476D01*
X44345238Y-87957048D02*
X44364286Y-87938000D01*
X44402381Y-87918952D01*
X44497619Y-87918952D01*
X44535715Y-87938000D01*
X44554762Y-87957048D01*
X44573810Y-87995143D01*
X44573810Y-88033238D01*
X44554762Y-88090381D01*
X44326191Y-88318952D01*
X44573810Y-88318952D01*
X44935714Y-87918952D02*
X44745238Y-87918952D01*
X44726190Y-88109429D01*
X44745238Y-88090381D01*
X44783333Y-88071333D01*
X44878571Y-88071333D01*
X44916667Y-88090381D01*
X44935714Y-88109429D01*
X44954762Y-88147524D01*
X44954762Y-88242762D01*
X44935714Y-88280857D01*
X44916667Y-88299905D01*
X44878571Y-88318952D01*
X44783333Y-88318952D01*
X44745238Y-88299905D01*
X44726190Y-88280857D01*
D11*
X34402381Y-60369904D02*
X34402381Y-60941333D01*
X34402381Y-60655619D02*
X33402381Y-60655619D01*
X33545238Y-60750857D01*
X33640476Y-60846095D01*
X33688095Y-60941333D01*
X33402381Y-59750857D02*
X33402381Y-59655618D01*
X33450000Y-59560380D01*
X33497619Y-59512761D01*
X33592857Y-59465142D01*
X33783333Y-59417523D01*
X34021429Y-59417523D01*
X34211905Y-59465142D01*
X34307143Y-59512761D01*
X34354762Y-59560380D01*
X34402381Y-59655618D01*
X34402381Y-59750857D01*
X34354762Y-59846095D01*
X34307143Y-59893714D01*
X34211905Y-59941333D01*
X34021429Y-59988952D01*
X33783333Y-59988952D01*
X33592857Y-59941333D01*
X33497619Y-59893714D01*
X33450000Y-59846095D01*
X33402381Y-59750857D01*
X34402381Y-58988952D02*
X33402381Y-58988952D01*
X34116667Y-58655618D01*
X33402381Y-58322285D01*
X34402381Y-58322285D01*
D12*
X35680952Y-59865142D02*
X35490476Y-59998476D01*
X35680952Y-60093714D02*
X35280952Y-60093714D01*
X35280952Y-59941333D01*
X35300000Y-59903238D01*
X35319048Y-59884190D01*
X35357143Y-59865142D01*
X35414286Y-59865142D01*
X35452381Y-59884190D01*
X35471429Y-59903238D01*
X35490476Y-59941333D01*
X35490476Y-60093714D01*
X35319048Y-59712762D02*
X35300000Y-59693714D01*
X35280952Y-59655619D01*
X35280952Y-59560381D01*
X35300000Y-59522285D01*
X35319048Y-59503238D01*
X35357143Y-59484190D01*
X35395238Y-59484190D01*
X35452381Y-59503238D01*
X35680952Y-59731809D01*
X35680952Y-59484190D01*
X35280952Y-59141333D02*
X35280952Y-59217524D01*
X35300000Y-59255619D01*
X35319048Y-59274667D01*
X35376190Y-59312762D01*
X35452381Y-59331810D01*
X35604762Y-59331810D01*
X35642857Y-59312762D01*
X35661905Y-59293714D01*
X35680952Y-59255619D01*
X35680952Y-59179429D01*
X35661905Y-59141333D01*
X35642857Y-59122286D01*
X35604762Y-59103238D01*
X35509524Y-59103238D01*
X35471429Y-59122286D01*
X35452381Y-59141333D01*
X35433333Y-59179429D01*
X35433333Y-59255619D01*
X35452381Y-59293714D01*
X35471429Y-59312762D01*
X35509524Y-59331810D01*
D11*
X35652381Y-64143714D02*
X35652381Y-64715143D01*
X35652381Y-64429429D02*
X34652381Y-64429429D01*
X34795238Y-64524667D01*
X34890476Y-64619905D01*
X34938095Y-64715143D01*
X35652381Y-63715143D02*
X34652381Y-63715143D01*
X35366667Y-63381809D01*
X34652381Y-63048476D01*
X35652381Y-63048476D01*
D12*
X36930952Y-64115142D02*
X36740476Y-64248476D01*
X36930952Y-64343714D02*
X36530952Y-64343714D01*
X36530952Y-64191333D01*
X36550000Y-64153238D01*
X36569048Y-64134190D01*
X36607143Y-64115142D01*
X36664286Y-64115142D01*
X36702381Y-64134190D01*
X36721429Y-64153238D01*
X36740476Y-64191333D01*
X36740476Y-64343714D01*
X36569048Y-63962762D02*
X36550000Y-63943714D01*
X36530952Y-63905619D01*
X36530952Y-63810381D01*
X36550000Y-63772285D01*
X36569048Y-63753238D01*
X36607143Y-63734190D01*
X36645238Y-63734190D01*
X36702381Y-63753238D01*
X36930952Y-63981809D01*
X36930952Y-63734190D01*
X36530952Y-63600857D02*
X36530952Y-63334190D01*
X36930952Y-63505619D01*
D11*
X44958096Y-88564381D02*
X44386667Y-88564381D01*
X44672381Y-88564381D02*
X44672381Y-87564381D01*
X44577143Y-87707238D01*
X44481905Y-87802476D01*
X44386667Y-87850095D01*
X45577143Y-87564381D02*
X45672382Y-87564381D01*
X45767620Y-87612000D01*
X45815239Y-87659619D01*
X45862858Y-87754857D01*
X45910477Y-87945333D01*
X45910477Y-88183429D01*
X45862858Y-88373905D01*
X45815239Y-88469143D01*
X45767620Y-88516762D01*
X45672382Y-88564381D01*
X45577143Y-88564381D01*
X45481905Y-88516762D01*
X45434286Y-88469143D01*
X45386667Y-88373905D01*
X45339048Y-88183429D01*
X45339048Y-87945333D01*
X45386667Y-87754857D01*
X45434286Y-87659619D01*
X45481905Y-87612000D01*
X45577143Y-87564381D01*
X46339048Y-88564381D02*
X46339048Y-87564381D01*
X46672382Y-88278667D01*
X47005715Y-87564381D01*
X47005715Y-88564381D01*
D12*
X45462858Y-89842952D02*
X45329524Y-89652476D01*
X45234286Y-89842952D02*
X45234286Y-89442952D01*
X45386667Y-89442952D01*
X45424762Y-89462000D01*
X45443810Y-89481048D01*
X45462858Y-89519143D01*
X45462858Y-89576286D01*
X45443810Y-89614381D01*
X45424762Y-89633429D01*
X45386667Y-89652476D01*
X45234286Y-89652476D01*
X45615238Y-89481048D02*
X45634286Y-89462000D01*
X45672381Y-89442952D01*
X45767619Y-89442952D01*
X45805715Y-89462000D01*
X45824762Y-89481048D01*
X45843810Y-89519143D01*
X45843810Y-89557238D01*
X45824762Y-89614381D01*
X45596191Y-89842952D01*
X45843810Y-89842952D01*
X46072381Y-89614381D02*
X46034286Y-89595333D01*
X46015238Y-89576286D01*
X45996190Y-89538190D01*
X45996190Y-89519143D01*
X46015238Y-89481048D01*
X46034286Y-89462000D01*
X46072381Y-89442952D01*
X46148571Y-89442952D01*
X46186667Y-89462000D01*
X46205714Y-89481048D01*
X46224762Y-89519143D01*
X46224762Y-89538190D01*
X46205714Y-89576286D01*
X46186667Y-89595333D01*
X46148571Y-89614381D01*
X46072381Y-89614381D01*
X46034286Y-89633429D01*
X46015238Y-89652476D01*
X45996190Y-89690571D01*
X45996190Y-89766762D01*
X46015238Y-89804857D01*
X46034286Y-89823905D01*
X46072381Y-89842952D01*
X46148571Y-89842952D01*
X46186667Y-89823905D01*
X46205714Y-89804857D01*
X46224762Y-89766762D01*
X46224762Y-89690571D01*
X46205714Y-89652476D01*
X46186667Y-89633429D01*
X46148571Y-89614381D01*
D11*
X43428572Y-57260381D02*
X42857143Y-57260381D01*
X43142857Y-57260381D02*
X43142857Y-56260381D01*
X43047619Y-56403238D01*
X42952381Y-56498476D01*
X42857143Y-56546095D01*
X44047619Y-56260381D02*
X44142858Y-56260381D01*
X44238096Y-56308000D01*
X44285715Y-56355619D01*
X44333334Y-56450857D01*
X44380953Y-56641333D01*
X44380953Y-56879429D01*
X44333334Y-57069905D01*
X44285715Y-57165143D01*
X44238096Y-57212762D01*
X44142858Y-57260381D01*
X44047619Y-57260381D01*
X43952381Y-57212762D01*
X43904762Y-57165143D01*
X43857143Y-57069905D01*
X43809524Y-56879429D01*
X43809524Y-56641333D01*
X43857143Y-56450857D01*
X43904762Y-56355619D01*
X43952381Y-56308000D01*
X44047619Y-56260381D01*
X45000000Y-56260381D02*
X45095239Y-56260381D01*
X45190477Y-56308000D01*
X45238096Y-56355619D01*
X45285715Y-56450857D01*
X45333334Y-56641333D01*
X45333334Y-56879429D01*
X45285715Y-57069905D01*
X45238096Y-57165143D01*
X45190477Y-57212762D01*
X45095239Y-57260381D01*
X45000000Y-57260381D01*
X44904762Y-57212762D01*
X44857143Y-57165143D01*
X44809524Y-57069905D01*
X44761905Y-56879429D01*
X44761905Y-56641333D01*
X44809524Y-56450857D01*
X44857143Y-56355619D01*
X44904762Y-56308000D01*
X45000000Y-56260381D01*
X45761905Y-57260381D02*
X45761905Y-56260381D01*
X45857143Y-56879429D02*
X46142858Y-57260381D01*
X46142858Y-56593714D02*
X45761905Y-56974667D01*
D12*
X44242858Y-58538952D02*
X44109524Y-58348476D01*
X44014286Y-58538952D02*
X44014286Y-58138952D01*
X44166667Y-58138952D01*
X44204762Y-58158000D01*
X44223810Y-58177048D01*
X44242858Y-58215143D01*
X44242858Y-58272286D01*
X44223810Y-58310381D01*
X44204762Y-58329429D01*
X44166667Y-58348476D01*
X44014286Y-58348476D01*
X44376191Y-58138952D02*
X44623810Y-58138952D01*
X44490477Y-58291333D01*
X44547619Y-58291333D01*
X44585715Y-58310381D01*
X44604762Y-58329429D01*
X44623810Y-58367524D01*
X44623810Y-58462762D01*
X44604762Y-58500857D01*
X44585715Y-58519905D01*
X44547619Y-58538952D01*
X44433334Y-58538952D01*
X44395238Y-58519905D01*
X44376191Y-58500857D01*
X44871429Y-58138952D02*
X44909524Y-58138952D01*
X44947619Y-58158000D01*
X44966667Y-58177048D01*
X44985714Y-58215143D01*
X45004762Y-58291333D01*
X45004762Y-58386571D01*
X44985714Y-58462762D01*
X44966667Y-58500857D01*
X44947619Y-58519905D01*
X44909524Y-58538952D01*
X44871429Y-58538952D01*
X44833333Y-58519905D01*
X44814286Y-58500857D01*
X44795238Y-58462762D01*
X44776190Y-58386571D01*
X44776190Y-58291333D01*
X44795238Y-58215143D01*
X44814286Y-58177048D01*
X44833333Y-58158000D01*
X44871429Y-58138952D01*
D11*
X47416381Y-89463428D02*
X47416381Y-90034857D01*
X47416381Y-89749143D02*
X46416381Y-89749143D01*
X46559238Y-89844381D01*
X46654476Y-89939619D01*
X46702095Y-90034857D01*
X46416381Y-88844381D02*
X46416381Y-88749142D01*
X46464000Y-88653904D01*
X46511619Y-88606285D01*
X46606857Y-88558666D01*
X46797333Y-88511047D01*
X47035429Y-88511047D01*
X47225905Y-88558666D01*
X47321143Y-88606285D01*
X47368762Y-88653904D01*
X47416381Y-88749142D01*
X47416381Y-88844381D01*
X47368762Y-88939619D01*
X47321143Y-88987238D01*
X47225905Y-89034857D01*
X47035429Y-89082476D01*
X46797333Y-89082476D01*
X46606857Y-89034857D01*
X46511619Y-88987238D01*
X46464000Y-88939619D01*
X46416381Y-88844381D01*
X46416381Y-87892000D02*
X46416381Y-87796761D01*
X46464000Y-87701523D01*
X46511619Y-87653904D01*
X46606857Y-87606285D01*
X46797333Y-87558666D01*
X47035429Y-87558666D01*
X47225905Y-87606285D01*
X47321143Y-87653904D01*
X47368762Y-87701523D01*
X47416381Y-87796761D01*
X47416381Y-87892000D01*
X47368762Y-87987238D01*
X47321143Y-88034857D01*
X47225905Y-88082476D01*
X47035429Y-88130095D01*
X46797333Y-88130095D01*
X46606857Y-88082476D01*
X46511619Y-88034857D01*
X46464000Y-87987238D01*
X46416381Y-87892000D01*
X47416381Y-87130095D02*
X46416381Y-87130095D01*
X47035429Y-87034857D02*
X47416381Y-86749142D01*
X46749714Y-86749142D02*
X47130667Y-87130095D01*
D12*
X48694952Y-88649142D02*
X48504476Y-88782476D01*
X48694952Y-88877714D02*
X48294952Y-88877714D01*
X48294952Y-88725333D01*
X48314000Y-88687238D01*
X48333048Y-88668190D01*
X48371143Y-88649142D01*
X48428286Y-88649142D01*
X48466381Y-88668190D01*
X48485429Y-88687238D01*
X48504476Y-88725333D01*
X48504476Y-88877714D01*
X48294952Y-88515809D02*
X48294952Y-88268190D01*
X48447333Y-88401523D01*
X48447333Y-88344381D01*
X48466381Y-88306285D01*
X48485429Y-88287238D01*
X48523524Y-88268190D01*
X48618762Y-88268190D01*
X48656857Y-88287238D01*
X48675905Y-88306285D01*
X48694952Y-88344381D01*
X48694952Y-88458666D01*
X48675905Y-88496762D01*
X48656857Y-88515809D01*
X48694952Y-87887238D02*
X48694952Y-88115810D01*
X48694952Y-88001524D02*
X48294952Y-88001524D01*
X48352095Y-88039619D01*
X48390190Y-88077714D01*
X48409238Y-88115810D01*
D11*
X39360572Y-57294381D02*
X38789143Y-57294381D01*
X39074857Y-57294381D02*
X39074857Y-56294381D01*
X38979619Y-56437238D01*
X38884381Y-56532476D01*
X38789143Y-56580095D01*
X39979619Y-56294381D02*
X40074858Y-56294381D01*
X40170096Y-56342000D01*
X40217715Y-56389619D01*
X40265334Y-56484857D01*
X40312953Y-56675333D01*
X40312953Y-56913429D01*
X40265334Y-57103905D01*
X40217715Y-57199143D01*
X40170096Y-57246762D01*
X40074858Y-57294381D01*
X39979619Y-57294381D01*
X39884381Y-57246762D01*
X39836762Y-57199143D01*
X39789143Y-57103905D01*
X39741524Y-56913429D01*
X39741524Y-56675333D01*
X39789143Y-56484857D01*
X39836762Y-56389619D01*
X39884381Y-56342000D01*
X39979619Y-56294381D01*
X40932000Y-56294381D02*
X41027239Y-56294381D01*
X41122477Y-56342000D01*
X41170096Y-56389619D01*
X41217715Y-56484857D01*
X41265334Y-56675333D01*
X41265334Y-56913429D01*
X41217715Y-57103905D01*
X41170096Y-57199143D01*
X41122477Y-57246762D01*
X41027239Y-57294381D01*
X40932000Y-57294381D01*
X40836762Y-57246762D01*
X40789143Y-57199143D01*
X40741524Y-57103905D01*
X40693905Y-56913429D01*
X40693905Y-56675333D01*
X40741524Y-56484857D01*
X40789143Y-56389619D01*
X40836762Y-56342000D01*
X40932000Y-56294381D01*
X41693905Y-57294381D02*
X41693905Y-56294381D01*
X41789143Y-56913429D02*
X42074858Y-57294381D01*
X42074858Y-56627714D02*
X41693905Y-57008667D01*
D12*
X40174858Y-58572952D02*
X40041524Y-58382476D01*
X39946286Y-58572952D02*
X39946286Y-58172952D01*
X40098667Y-58172952D01*
X40136762Y-58192000D01*
X40155810Y-58211048D01*
X40174858Y-58249143D01*
X40174858Y-58306286D01*
X40155810Y-58344381D01*
X40136762Y-58363429D01*
X40098667Y-58382476D01*
X39946286Y-58382476D01*
X40308191Y-58172952D02*
X40555810Y-58172952D01*
X40422477Y-58325333D01*
X40479619Y-58325333D01*
X40517715Y-58344381D01*
X40536762Y-58363429D01*
X40555810Y-58401524D01*
X40555810Y-58496762D01*
X40536762Y-58534857D01*
X40517715Y-58553905D01*
X40479619Y-58572952D01*
X40365334Y-58572952D01*
X40327238Y-58553905D01*
X40308191Y-58534857D01*
X40708190Y-58211048D02*
X40727238Y-58192000D01*
X40765333Y-58172952D01*
X40860571Y-58172952D01*
X40898667Y-58192000D01*
X40917714Y-58211048D01*
X40936762Y-58249143D01*
X40936762Y-58287238D01*
X40917714Y-58344381D01*
X40689143Y-58572952D01*
X40936762Y-58572952D01*
D11*
X35504572Y-88056381D02*
X34933143Y-88056381D01*
X35218857Y-88056381D02*
X35218857Y-87056381D01*
X35123619Y-87199238D01*
X35028381Y-87294476D01*
X34933143Y-87342095D01*
X36123619Y-87056381D02*
X36218858Y-87056381D01*
X36314096Y-87104000D01*
X36361715Y-87151619D01*
X36409334Y-87246857D01*
X36456953Y-87437333D01*
X36456953Y-87675429D01*
X36409334Y-87865905D01*
X36361715Y-87961143D01*
X36314096Y-88008762D01*
X36218858Y-88056381D01*
X36123619Y-88056381D01*
X36028381Y-88008762D01*
X35980762Y-87961143D01*
X35933143Y-87865905D01*
X35885524Y-87675429D01*
X35885524Y-87437333D01*
X35933143Y-87246857D01*
X35980762Y-87151619D01*
X36028381Y-87104000D01*
X36123619Y-87056381D01*
X37076000Y-87056381D02*
X37171239Y-87056381D01*
X37266477Y-87104000D01*
X37314096Y-87151619D01*
X37361715Y-87246857D01*
X37409334Y-87437333D01*
X37409334Y-87675429D01*
X37361715Y-87865905D01*
X37314096Y-87961143D01*
X37266477Y-88008762D01*
X37171239Y-88056381D01*
X37076000Y-88056381D01*
X36980762Y-88008762D01*
X36933143Y-87961143D01*
X36885524Y-87865905D01*
X36837905Y-87675429D01*
X36837905Y-87437333D01*
X36885524Y-87246857D01*
X36933143Y-87151619D01*
X36980762Y-87104000D01*
X37076000Y-87056381D01*
X37837905Y-88056381D02*
X37837905Y-87056381D01*
X37933143Y-87675429D02*
X38218858Y-88056381D01*
X38218858Y-87389714D02*
X37837905Y-87770667D01*
D12*
X36318858Y-89334952D02*
X36185524Y-89144476D01*
X36090286Y-89334952D02*
X36090286Y-88934952D01*
X36242667Y-88934952D01*
X36280762Y-88954000D01*
X36299810Y-88973048D01*
X36318858Y-89011143D01*
X36318858Y-89068286D01*
X36299810Y-89106381D01*
X36280762Y-89125429D01*
X36242667Y-89144476D01*
X36090286Y-89144476D01*
X36452191Y-88934952D02*
X36699810Y-88934952D01*
X36566477Y-89087333D01*
X36623619Y-89087333D01*
X36661715Y-89106381D01*
X36680762Y-89125429D01*
X36699810Y-89163524D01*
X36699810Y-89258762D01*
X36680762Y-89296857D01*
X36661715Y-89315905D01*
X36623619Y-89334952D01*
X36509334Y-89334952D01*
X36471238Y-89315905D01*
X36452191Y-89296857D01*
X36833143Y-88934952D02*
X37080762Y-88934952D01*
X36947429Y-89087333D01*
X37004571Y-89087333D01*
X37042667Y-89106381D01*
X37061714Y-89125429D01*
X37080762Y-89163524D01*
X37080762Y-89258762D01*
X37061714Y-89296857D01*
X37042667Y-89315905D01*
X37004571Y-89334952D01*
X36890286Y-89334952D01*
X36852190Y-89315905D01*
X36833143Y-89296857D01*
D11*
X-134571Y-88084571D02*
X8286Y-88132190D01*
X55905Y-88179810D01*
X103524Y-88275048D01*
X103524Y-88417905D01*
X55905Y-88513143D01*
X8286Y-88560762D01*
X-86952Y-88608381D01*
X-467905Y-88608381D01*
X-467905Y-87608381D01*
X-134571Y-87608381D01*
X-39333Y-87656000D01*
X8286Y-87703619D01*
X55905Y-87798857D01*
X55905Y-87894095D01*
X8286Y-87989333D01*
X-39333Y-88036952D01*
X-134571Y-88084571D01*
X-467905Y-88084571D01*
X1103524Y-88513143D02*
X1055905Y-88560762D01*
X913048Y-88608381D01*
X817810Y-88608381D01*
X674952Y-88560762D01*
X579714Y-88465524D01*
X532095Y-88370286D01*
X484476Y-88179810D01*
X484476Y-88036952D01*
X532095Y-87846476D01*
X579714Y-87751238D01*
X674952Y-87656000D01*
X817810Y-87608381D01*
X913048Y-87608381D01*
X1055905Y-87656000D01*
X1103524Y-87703619D01*
X1674952Y-88036952D02*
X1579714Y-87989333D01*
X1532095Y-87941714D01*
X1484476Y-87846476D01*
X1484476Y-87798857D01*
X1532095Y-87703619D01*
X1579714Y-87656000D01*
X1674952Y-87608381D01*
X1865429Y-87608381D01*
X1960667Y-87656000D01*
X2008286Y-87703619D01*
X2055905Y-87798857D01*
X2055905Y-87846476D01*
X2008286Y-87941714D01*
X1960667Y-87989333D01*
X1865429Y-88036952D01*
X1674952Y-88036952D01*
X1579714Y-88084571D01*
X1532095Y-88132190D01*
X1484476Y-88227429D01*
X1484476Y-88417905D01*
X1532095Y-88513143D01*
X1579714Y-88560762D01*
X1674952Y-88608381D01*
X1865429Y-88608381D01*
X1960667Y-88560762D01*
X2008286Y-88513143D01*
X2055905Y-88417905D01*
X2055905Y-88227429D01*
X2008286Y-88132190D01*
X1960667Y-88084571D01*
X1865429Y-88036952D01*
X2913048Y-87941714D02*
X2913048Y-88608381D01*
X2674952Y-87560762D02*
X2436857Y-88275048D01*
X3055905Y-88275048D01*
X3341619Y-87608381D02*
X4008286Y-87608381D01*
X3579714Y-88608381D01*
X4960667Y-88513143D02*
X4913048Y-88560762D01*
X4770191Y-88608381D01*
X4674953Y-88608381D01*
X4532095Y-88560762D01*
X4436857Y-88465524D01*
X4389238Y-88370286D01*
X4341619Y-88179810D01*
X4341619Y-88036952D01*
X4389238Y-87846476D01*
X4436857Y-87751238D01*
X4532095Y-87656000D01*
X4674953Y-87608381D01*
X4770191Y-87608381D01*
X4913048Y-87656000D01*
X4960667Y-87703619D01*
X5294000Y-87608381D02*
X5532095Y-88608381D01*
X5722572Y-87894095D01*
X5913048Y-88608381D01*
X6151143Y-87608381D01*
D12*
X3067810Y-86153619D02*
X3044000Y-86201238D01*
X2996381Y-86248857D01*
X2924952Y-86320286D01*
X2901143Y-86367905D01*
X2901143Y-86415524D01*
X3020190Y-86391714D02*
X2996381Y-86439333D01*
X2948762Y-86486952D01*
X2853524Y-86510762D01*
X2686857Y-86510762D01*
X2591619Y-86486952D01*
X2544000Y-86439333D01*
X2520190Y-86391714D01*
X2520190Y-86296476D01*
X2544000Y-86248857D01*
X2591619Y-86201238D01*
X2686857Y-86177429D01*
X2853524Y-86177429D01*
X2948762Y-86201238D01*
X2996381Y-86248857D01*
X3020190Y-86296476D01*
X3020190Y-86391714D01*
X3020190Y-85701238D02*
X3020190Y-85986952D01*
X3020190Y-85844095D02*
X2520190Y-85844095D01*
X2591619Y-85891714D01*
X2639238Y-85939333D01*
X2663048Y-85986952D01*
D11*
X9852571Y-69476571D02*
X9900190Y-69333714D01*
X9947810Y-69286095D01*
X10043048Y-69238476D01*
X10185905Y-69238476D01*
X10281143Y-69286095D01*
X10328762Y-69333714D01*
X10376381Y-69428952D01*
X10376381Y-69809905D01*
X9376381Y-69809905D01*
X9376381Y-69476571D01*
X9424000Y-69381333D01*
X9471619Y-69333714D01*
X9566857Y-69286095D01*
X9662095Y-69286095D01*
X9757333Y-69333714D01*
X9804952Y-69381333D01*
X9852571Y-69476571D01*
X9852571Y-69809905D01*
X10281143Y-68238476D02*
X10328762Y-68286095D01*
X10376381Y-68428952D01*
X10376381Y-68524190D01*
X10328762Y-68667048D01*
X10233524Y-68762286D01*
X10138286Y-68809905D01*
X9947810Y-68857524D01*
X9804952Y-68857524D01*
X9614476Y-68809905D01*
X9519238Y-68762286D01*
X9424000Y-68667048D01*
X9376381Y-68524190D01*
X9376381Y-68428952D01*
X9424000Y-68286095D01*
X9471619Y-68238476D01*
X9804952Y-67667048D02*
X9757333Y-67762286D01*
X9709714Y-67809905D01*
X9614476Y-67857524D01*
X9566857Y-67857524D01*
X9471619Y-67809905D01*
X9424000Y-67762286D01*
X9376381Y-67667048D01*
X9376381Y-67476571D01*
X9424000Y-67381333D01*
X9471619Y-67333714D01*
X9566857Y-67286095D01*
X9614476Y-67286095D01*
X9709714Y-67333714D01*
X9757333Y-67381333D01*
X9804952Y-67476571D01*
X9804952Y-67667048D01*
X9852571Y-67762286D01*
X9900190Y-67809905D01*
X9995429Y-67857524D01*
X10185905Y-67857524D01*
X10281143Y-67809905D01*
X10328762Y-67762286D01*
X10376381Y-67667048D01*
X10376381Y-67476571D01*
X10328762Y-67381333D01*
X10281143Y-67333714D01*
X10185905Y-67286095D01*
X9995429Y-67286095D01*
X9900190Y-67333714D01*
X9852571Y-67381333D01*
X9804952Y-67476571D01*
X9709714Y-66428952D02*
X10376381Y-66428952D01*
X9328762Y-66667048D02*
X10043048Y-66905143D01*
X10043048Y-66286095D01*
X9376381Y-66000381D02*
X9376381Y-65333714D01*
X10376381Y-65762286D01*
X10281143Y-64381333D02*
X10328762Y-64428952D01*
X10376381Y-64571809D01*
X10376381Y-64667047D01*
X10328762Y-64809905D01*
X10233524Y-64905143D01*
X10138286Y-64952762D01*
X9947810Y-65000381D01*
X9804952Y-65000381D01*
X9614476Y-64952762D01*
X9519238Y-64905143D01*
X9424000Y-64809905D01*
X9376381Y-64667047D01*
X9376381Y-64571809D01*
X9424000Y-64428952D01*
X9471619Y-64381333D01*
X9376381Y-64048000D02*
X10376381Y-63809905D01*
X9662095Y-63619428D01*
X10376381Y-63428952D01*
X9376381Y-63190857D01*
D12*
X7826381Y-66821810D02*
X7778762Y-66798000D01*
X7731143Y-66750381D01*
X7659714Y-66678952D01*
X7612095Y-66655143D01*
X7564476Y-66655143D01*
X7588286Y-66774190D02*
X7540667Y-66750381D01*
X7493048Y-66702762D01*
X7469238Y-66607524D01*
X7469238Y-66440857D01*
X7493048Y-66345619D01*
X7540667Y-66298000D01*
X7588286Y-66274190D01*
X7683524Y-66274190D01*
X7731143Y-66298000D01*
X7778762Y-66345619D01*
X7802571Y-66440857D01*
X7802571Y-66607524D01*
X7778762Y-66702762D01*
X7731143Y-66750381D01*
X7683524Y-66774190D01*
X7588286Y-66774190D01*
X7993048Y-66321810D02*
X8016858Y-66298000D01*
X8064477Y-66274190D01*
X8183524Y-66274190D01*
X8231143Y-66298000D01*
X8254953Y-66321810D01*
X8278762Y-66369429D01*
X8278762Y-66417048D01*
X8254953Y-66488476D01*
X7969239Y-66774190D01*
X8278762Y-66774190D01*
D11*
X21355952Y-53796381D02*
X21355952Y-52796381D01*
X21736905Y-52796381D01*
X21832143Y-52844000D01*
X21879762Y-52891619D01*
X21927381Y-52986857D01*
X21927381Y-53129714D01*
X21879762Y-53224952D01*
X21832143Y-53272571D01*
X21736905Y-53320190D01*
X21355952Y-53320190D01*
X22498809Y-53796381D02*
X22403571Y-53748762D01*
X22355952Y-53701143D01*
X22308333Y-53605905D01*
X22308333Y-53320190D01*
X22355952Y-53224952D01*
X22403571Y-53177333D01*
X22498809Y-53129714D01*
X22641667Y-53129714D01*
X22736905Y-53177333D01*
X22784524Y-53224952D01*
X22832143Y-53320190D01*
X22832143Y-53605905D01*
X22784524Y-53701143D01*
X22736905Y-53748762D01*
X22641667Y-53796381D01*
X22498809Y-53796381D01*
X23165476Y-53129714D02*
X23355952Y-53796381D01*
X23546429Y-53320190D01*
X23736905Y-53796381D01*
X23927381Y-53129714D01*
X24689286Y-53748762D02*
X24594048Y-53796381D01*
X24403571Y-53796381D01*
X24308333Y-53748762D01*
X24260714Y-53653524D01*
X24260714Y-53272571D01*
X24308333Y-53177333D01*
X24403571Y-53129714D01*
X24594048Y-53129714D01*
X24689286Y-53177333D01*
X24736905Y-53272571D01*
X24736905Y-53367810D01*
X24260714Y-53463048D01*
X25165476Y-53796381D02*
X25165476Y-53129714D01*
X25165476Y-53320190D02*
X25213095Y-53224952D01*
X25260714Y-53177333D01*
X25355952Y-53129714D01*
X25451191Y-53129714D01*
X26736905Y-52796381D02*
X26927382Y-52796381D01*
X27022620Y-52844000D01*
X27117858Y-52939238D01*
X27165477Y-53129714D01*
X27165477Y-53463048D01*
X27117858Y-53653524D01*
X27022620Y-53748762D01*
X26927382Y-53796381D01*
X26736905Y-53796381D01*
X26641667Y-53748762D01*
X26546429Y-53653524D01*
X26498810Y-53463048D01*
X26498810Y-53129714D01*
X26546429Y-52939238D01*
X26641667Y-52844000D01*
X26736905Y-52796381D01*
X28022620Y-53129714D02*
X28022620Y-53796381D01*
X27594048Y-53129714D02*
X27594048Y-53653524D01*
X27641667Y-53748762D01*
X27736905Y-53796381D01*
X27879763Y-53796381D01*
X27975001Y-53748762D01*
X28022620Y-53701143D01*
X28355953Y-53129714D02*
X28736905Y-53129714D01*
X28498810Y-52796381D02*
X28498810Y-53653524D01*
X28546429Y-53748762D01*
X28641667Y-53796381D01*
X28736905Y-53796381D01*
X23828477Y-54062381D02*
X23828477Y-54776667D01*
X23780857Y-54919524D01*
X23685619Y-55014762D01*
X23542762Y-55062381D01*
X23447524Y-55062381D01*
X24828477Y-55062381D02*
X24257048Y-55062381D01*
X24542762Y-55062381D02*
X24542762Y-54062381D01*
X24447524Y-54205238D01*
X24352286Y-54300476D01*
X24257048Y-54348095D01*
X25685620Y-54395714D02*
X25685620Y-55062381D01*
X25447524Y-54014762D02*
X25209429Y-54729048D01*
X25828477Y-54729048D01*
X21336381Y-51379381D02*
X21336381Y-50379381D01*
X21717334Y-50379381D01*
X21812572Y-50427000D01*
X21860191Y-50474619D01*
X21907810Y-50569857D01*
X21907810Y-50712714D01*
X21860191Y-50807952D01*
X21812572Y-50855571D01*
X21717334Y-50903190D01*
X21336381Y-50903190D01*
X22479238Y-51379381D02*
X22384000Y-51331762D01*
X22336381Y-51284143D01*
X22288762Y-51188905D01*
X22288762Y-50903190D01*
X22336381Y-50807952D01*
X22384000Y-50760333D01*
X22479238Y-50712714D01*
X22622096Y-50712714D01*
X22717334Y-50760333D01*
X22764953Y-50807952D01*
X22812572Y-50903190D01*
X22812572Y-51188905D01*
X22764953Y-51284143D01*
X22717334Y-51331762D01*
X22622096Y-51379381D01*
X22479238Y-51379381D01*
X23145905Y-50712714D02*
X23336381Y-51379381D01*
X23526858Y-50903190D01*
X23717334Y-51379381D01*
X23907810Y-50712714D01*
X24669715Y-51331762D02*
X24574477Y-51379381D01*
X24384000Y-51379381D01*
X24288762Y-51331762D01*
X24241143Y-51236524D01*
X24241143Y-50855571D01*
X24288762Y-50760333D01*
X24384000Y-50712714D01*
X24574477Y-50712714D01*
X24669715Y-50760333D01*
X24717334Y-50855571D01*
X24717334Y-50950810D01*
X24241143Y-51046048D01*
X25145905Y-51379381D02*
X25145905Y-50712714D01*
X25145905Y-50903190D02*
X25193524Y-50807952D01*
X25241143Y-50760333D01*
X25336381Y-50712714D01*
X25431620Y-50712714D01*
X26526858Y-51379381D02*
X26526858Y-50379381D01*
X27003048Y-50712714D02*
X27003048Y-51379381D01*
X27003048Y-50807952D02*
X27050667Y-50760333D01*
X27145905Y-50712714D01*
X27288763Y-50712714D01*
X27384001Y-50760333D01*
X27431620Y-50855571D01*
X27431620Y-51379381D01*
X23955477Y-51649381D02*
X23955477Y-52363667D01*
X23907857Y-52506524D01*
X23812619Y-52601762D01*
X23669762Y-52649381D01*
X23574524Y-52649381D01*
X24955477Y-52649381D02*
X24384048Y-52649381D01*
X24669762Y-52649381D02*
X24669762Y-51649381D01*
X24574524Y-51792238D01*
X24479286Y-51887476D01*
X24384048Y-51935095D01*
X25288810Y-51649381D02*
X25907858Y-51649381D01*
X25574524Y-52030333D01*
X25717382Y-52030333D01*
X25812620Y-52077952D01*
X25860239Y-52125571D01*
X25907858Y-52220810D01*
X25907858Y-52458905D01*
X25860239Y-52554143D01*
X25812620Y-52601762D01*
X25717382Y-52649381D01*
X25431667Y-52649381D01*
X25336429Y-52601762D01*
X25288810Y-52554143D01*
X33901429Y-85000571D02*
X34044286Y-85048190D01*
X34091905Y-85095810D01*
X34139524Y-85191048D01*
X34139524Y-85333905D01*
X34091905Y-85429143D01*
X34044286Y-85476762D01*
X33949048Y-85524381D01*
X33568095Y-85524381D01*
X33568095Y-84524381D01*
X33901429Y-84524381D01*
X33996667Y-84572000D01*
X34044286Y-84619619D01*
X34091905Y-84714857D01*
X34091905Y-84810095D01*
X34044286Y-84905333D01*
X33996667Y-84952952D01*
X33901429Y-85000571D01*
X33568095Y-85000571D01*
X35139524Y-85429143D02*
X35091905Y-85476762D01*
X34949048Y-85524381D01*
X34853810Y-85524381D01*
X34710952Y-85476762D01*
X34615714Y-85381524D01*
X34568095Y-85286286D01*
X34520476Y-85095810D01*
X34520476Y-84952952D01*
X34568095Y-84762476D01*
X34615714Y-84667238D01*
X34710952Y-84572000D01*
X34853810Y-84524381D01*
X34949048Y-84524381D01*
X35091905Y-84572000D01*
X35139524Y-84619619D01*
X35710952Y-84952952D02*
X35615714Y-84905333D01*
X35568095Y-84857714D01*
X35520476Y-84762476D01*
X35520476Y-84714857D01*
X35568095Y-84619619D01*
X35615714Y-84572000D01*
X35710952Y-84524381D01*
X35901429Y-84524381D01*
X35996667Y-84572000D01*
X36044286Y-84619619D01*
X36091905Y-84714857D01*
X36091905Y-84762476D01*
X36044286Y-84857714D01*
X35996667Y-84905333D01*
X35901429Y-84952952D01*
X35710952Y-84952952D01*
X35615714Y-85000571D01*
X35568095Y-85048190D01*
X35520476Y-85143429D01*
X35520476Y-85333905D01*
X35568095Y-85429143D01*
X35615714Y-85476762D01*
X35710952Y-85524381D01*
X35901429Y-85524381D01*
X35996667Y-85476762D01*
X36044286Y-85429143D01*
X36091905Y-85333905D01*
X36091905Y-85143429D01*
X36044286Y-85048190D01*
X35996667Y-85000571D01*
X35901429Y-84952952D01*
X36949048Y-84857714D02*
X36949048Y-85524381D01*
X36710952Y-84476762D02*
X36472857Y-85191048D01*
X37091905Y-85191048D01*
X37377619Y-84524381D02*
X38044286Y-84524381D01*
X37615714Y-85524381D01*
X38996667Y-85429143D02*
X38949048Y-85476762D01*
X38806191Y-85524381D01*
X38710953Y-85524381D01*
X38568095Y-85476762D01*
X38472857Y-85381524D01*
X38425238Y-85286286D01*
X38377619Y-85095810D01*
X38377619Y-84952952D01*
X38425238Y-84762476D01*
X38472857Y-84667238D01*
X38568095Y-84572000D01*
X38710953Y-84524381D01*
X38806191Y-84524381D01*
X38949048Y-84572000D01*
X38996667Y-84619619D01*
X39330000Y-84524381D02*
X39568095Y-85524381D01*
X39758572Y-84810095D01*
X39949048Y-85524381D01*
X40187143Y-84524381D01*
D12*
X37103810Y-87169619D02*
X37080000Y-87217238D01*
X37032381Y-87264857D01*
X36960952Y-87336286D01*
X36937143Y-87383905D01*
X36937143Y-87431524D01*
X37056190Y-87407714D02*
X37032381Y-87455333D01*
X36984762Y-87502952D01*
X36889524Y-87526762D01*
X36722857Y-87526762D01*
X36627619Y-87502952D01*
X36580000Y-87455333D01*
X36556190Y-87407714D01*
X36556190Y-87312476D01*
X36580000Y-87264857D01*
X36627619Y-87217238D01*
X36722857Y-87193429D01*
X36889524Y-87193429D01*
X36984762Y-87217238D01*
X37032381Y-87264857D01*
X37056190Y-87312476D01*
X37056190Y-87407714D01*
X36770476Y-86907714D02*
X36746667Y-86955333D01*
X36722857Y-86979142D01*
X36675238Y-87002952D01*
X36651429Y-87002952D01*
X36603810Y-86979142D01*
X36580000Y-86955333D01*
X36556190Y-86907714D01*
X36556190Y-86812476D01*
X36580000Y-86764857D01*
X36603810Y-86741047D01*
X36651429Y-86717238D01*
X36675238Y-86717238D01*
X36722857Y-86741047D01*
X36746667Y-86764857D01*
X36770476Y-86812476D01*
X36770476Y-86907714D01*
X36794286Y-86955333D01*
X36818095Y-86979142D01*
X36865714Y-87002952D01*
X36960952Y-87002952D01*
X37008571Y-86979142D01*
X37032381Y-86955333D01*
X37056190Y-86907714D01*
X37056190Y-86812476D01*
X37032381Y-86764857D01*
X37008571Y-86741047D01*
X36960952Y-86717238D01*
X36865714Y-86717238D01*
X36818095Y-86741047D01*
X36794286Y-86764857D01*
X36770476Y-86812476D01*
D11*
X39478571Y-62786571D02*
X39526190Y-62643714D01*
X39573810Y-62596095D01*
X39669048Y-62548476D01*
X39811905Y-62548476D01*
X39907143Y-62596095D01*
X39954762Y-62643714D01*
X40002381Y-62738952D01*
X40002381Y-63119905D01*
X39002381Y-63119905D01*
X39002381Y-62786571D01*
X39050000Y-62691333D01*
X39097619Y-62643714D01*
X39192857Y-62596095D01*
X39288095Y-62596095D01*
X39383333Y-62643714D01*
X39430952Y-62691333D01*
X39478571Y-62786571D01*
X39478571Y-63119905D01*
X39907143Y-61548476D02*
X39954762Y-61596095D01*
X40002381Y-61738952D01*
X40002381Y-61834190D01*
X39954762Y-61977048D01*
X39859524Y-62072286D01*
X39764286Y-62119905D01*
X39573810Y-62167524D01*
X39430952Y-62167524D01*
X39240476Y-62119905D01*
X39145238Y-62072286D01*
X39050000Y-61977048D01*
X39002381Y-61834190D01*
X39002381Y-61738952D01*
X39050000Y-61596095D01*
X39097619Y-61548476D01*
X39430952Y-60977048D02*
X39383333Y-61072286D01*
X39335714Y-61119905D01*
X39240476Y-61167524D01*
X39192857Y-61167524D01*
X39097619Y-61119905D01*
X39050000Y-61072286D01*
X39002381Y-60977048D01*
X39002381Y-60786571D01*
X39050000Y-60691333D01*
X39097619Y-60643714D01*
X39192857Y-60596095D01*
X39240476Y-60596095D01*
X39335714Y-60643714D01*
X39383333Y-60691333D01*
X39430952Y-60786571D01*
X39430952Y-60977048D01*
X39478571Y-61072286D01*
X39526190Y-61119905D01*
X39621429Y-61167524D01*
X39811905Y-61167524D01*
X39907143Y-61119905D01*
X39954762Y-61072286D01*
X40002381Y-60977048D01*
X40002381Y-60786571D01*
X39954762Y-60691333D01*
X39907143Y-60643714D01*
X39811905Y-60596095D01*
X39621429Y-60596095D01*
X39526190Y-60643714D01*
X39478571Y-60691333D01*
X39430952Y-60786571D01*
X39335714Y-59738952D02*
X40002381Y-59738952D01*
X38954762Y-59977048D02*
X39669048Y-60215143D01*
X39669048Y-59596095D01*
X39002381Y-59310381D02*
X39002381Y-58643714D01*
X40002381Y-59072286D01*
X39907143Y-57691333D02*
X39954762Y-57738952D01*
X40002381Y-57881809D01*
X40002381Y-57977047D01*
X39954762Y-58119905D01*
X39859524Y-58215143D01*
X39764286Y-58262762D01*
X39573810Y-58310381D01*
X39430952Y-58310381D01*
X39240476Y-58262762D01*
X39145238Y-58215143D01*
X39050000Y-58119905D01*
X39002381Y-57977047D01*
X39002381Y-57881809D01*
X39050000Y-57738952D01*
X39097619Y-57691333D01*
X39002381Y-57358000D02*
X40002381Y-57119905D01*
X39288095Y-56929428D01*
X40002381Y-56738952D01*
X39002381Y-56500857D01*
D12*
X37452381Y-60131810D02*
X37404762Y-60108000D01*
X37357143Y-60060381D01*
X37285714Y-59988952D01*
X37238095Y-59965143D01*
X37190476Y-59965143D01*
X37214286Y-60084190D02*
X37166667Y-60060381D01*
X37119048Y-60012762D01*
X37095238Y-59917524D01*
X37095238Y-59750857D01*
X37119048Y-59655619D01*
X37166667Y-59608000D01*
X37214286Y-59584190D01*
X37309524Y-59584190D01*
X37357143Y-59608000D01*
X37404762Y-59655619D01*
X37428571Y-59750857D01*
X37428571Y-59917524D01*
X37404762Y-60012762D01*
X37357143Y-60060381D01*
X37309524Y-60084190D01*
X37214286Y-60084190D01*
X37595239Y-59584190D02*
X37928572Y-59584190D01*
X37714286Y-60084190D01*
D11*
X39624571Y-86810571D02*
X39672190Y-86667714D01*
X39719810Y-86620095D01*
X39815048Y-86572476D01*
X39957905Y-86572476D01*
X40053143Y-86620095D01*
X40100762Y-86667714D01*
X40148381Y-86762952D01*
X40148381Y-87143905D01*
X39148381Y-87143905D01*
X39148381Y-86810571D01*
X39196000Y-86715333D01*
X39243619Y-86667714D01*
X39338857Y-86620095D01*
X39434095Y-86620095D01*
X39529333Y-86667714D01*
X39576952Y-86715333D01*
X39624571Y-86810571D01*
X39624571Y-87143905D01*
X40053143Y-85572476D02*
X40100762Y-85620095D01*
X40148381Y-85762952D01*
X40148381Y-85858190D01*
X40100762Y-86001048D01*
X40005524Y-86096286D01*
X39910286Y-86143905D01*
X39719810Y-86191524D01*
X39576952Y-86191524D01*
X39386476Y-86143905D01*
X39291238Y-86096286D01*
X39196000Y-86001048D01*
X39148381Y-85858190D01*
X39148381Y-85762952D01*
X39196000Y-85620095D01*
X39243619Y-85572476D01*
X39576952Y-85001048D02*
X39529333Y-85096286D01*
X39481714Y-85143905D01*
X39386476Y-85191524D01*
X39338857Y-85191524D01*
X39243619Y-85143905D01*
X39196000Y-85096286D01*
X39148381Y-85001048D01*
X39148381Y-84810571D01*
X39196000Y-84715333D01*
X39243619Y-84667714D01*
X39338857Y-84620095D01*
X39386476Y-84620095D01*
X39481714Y-84667714D01*
X39529333Y-84715333D01*
X39576952Y-84810571D01*
X39576952Y-85001048D01*
X39624571Y-85096286D01*
X39672190Y-85143905D01*
X39767429Y-85191524D01*
X39957905Y-85191524D01*
X40053143Y-85143905D01*
X40100762Y-85096286D01*
X40148381Y-85001048D01*
X40148381Y-84810571D01*
X40100762Y-84715333D01*
X40053143Y-84667714D01*
X39957905Y-84620095D01*
X39767429Y-84620095D01*
X39672190Y-84667714D01*
X39624571Y-84715333D01*
X39576952Y-84810571D01*
X39481714Y-83762952D02*
X40148381Y-83762952D01*
X39100762Y-84001048D02*
X39815048Y-84239143D01*
X39815048Y-83620095D01*
X39148381Y-83334381D02*
X39148381Y-82667714D01*
X40148381Y-83096286D01*
X40053143Y-81715333D02*
X40100762Y-81762952D01*
X40148381Y-81905809D01*
X40148381Y-82001047D01*
X40100762Y-82143905D01*
X40005524Y-82239143D01*
X39910286Y-82286762D01*
X39719810Y-82334381D01*
X39576952Y-82334381D01*
X39386476Y-82286762D01*
X39291238Y-82239143D01*
X39196000Y-82143905D01*
X39148381Y-82001047D01*
X39148381Y-81905809D01*
X39196000Y-81762952D01*
X39243619Y-81715333D01*
X39148381Y-81382000D02*
X40148381Y-81143905D01*
X39434095Y-80953428D01*
X40148381Y-80762952D01*
X39148381Y-80524857D01*
D12*
X41698381Y-84155810D02*
X41650762Y-84132000D01*
X41603143Y-84084381D01*
X41531714Y-84012952D01*
X41484095Y-83989143D01*
X41436476Y-83989143D01*
X41460286Y-84108190D02*
X41412667Y-84084381D01*
X41365048Y-84036762D01*
X41341238Y-83941524D01*
X41341238Y-83774857D01*
X41365048Y-83679619D01*
X41412667Y-83632000D01*
X41460286Y-83608190D01*
X41555524Y-83608190D01*
X41603143Y-83632000D01*
X41650762Y-83679619D01*
X41674571Y-83774857D01*
X41674571Y-83941524D01*
X41650762Y-84036762D01*
X41603143Y-84084381D01*
X41555524Y-84108190D01*
X41460286Y-84108190D01*
X42103143Y-83608190D02*
X42007905Y-83608190D01*
X41960286Y-83632000D01*
X41936477Y-83655810D01*
X41888858Y-83727238D01*
X41865048Y-83822476D01*
X41865048Y-84012952D01*
X41888858Y-84060571D01*
X41912667Y-84084381D01*
X41960286Y-84108190D01*
X42055524Y-84108190D01*
X42103143Y-84084381D01*
X42126953Y-84060571D01*
X42150762Y-84012952D01*
X42150762Y-83893905D01*
X42126953Y-83846286D01*
X42103143Y-83822476D01*
X42055524Y-83798667D01*
X41960286Y-83798667D01*
X41912667Y-83822476D01*
X41888858Y-83846286D01*
X41865048Y-83893905D01*
D11*
X47490571Y-66400571D02*
X47538190Y-66257714D01*
X47585810Y-66210095D01*
X47681048Y-66162476D01*
X47823905Y-66162476D01*
X47919143Y-66210095D01*
X47966762Y-66257714D01*
X48014381Y-66352952D01*
X48014381Y-66733905D01*
X47014381Y-66733905D01*
X47014381Y-66400571D01*
X47062000Y-66305333D01*
X47109619Y-66257714D01*
X47204857Y-66210095D01*
X47300095Y-66210095D01*
X47395333Y-66257714D01*
X47442952Y-66305333D01*
X47490571Y-66400571D01*
X47490571Y-66733905D01*
X47919143Y-65162476D02*
X47966762Y-65210095D01*
X48014381Y-65352952D01*
X48014381Y-65448190D01*
X47966762Y-65591048D01*
X47871524Y-65686286D01*
X47776286Y-65733905D01*
X47585810Y-65781524D01*
X47442952Y-65781524D01*
X47252476Y-65733905D01*
X47157238Y-65686286D01*
X47062000Y-65591048D01*
X47014381Y-65448190D01*
X47014381Y-65352952D01*
X47062000Y-65210095D01*
X47109619Y-65162476D01*
X47442952Y-64591048D02*
X47395333Y-64686286D01*
X47347714Y-64733905D01*
X47252476Y-64781524D01*
X47204857Y-64781524D01*
X47109619Y-64733905D01*
X47062000Y-64686286D01*
X47014381Y-64591048D01*
X47014381Y-64400571D01*
X47062000Y-64305333D01*
X47109619Y-64257714D01*
X47204857Y-64210095D01*
X47252476Y-64210095D01*
X47347714Y-64257714D01*
X47395333Y-64305333D01*
X47442952Y-64400571D01*
X47442952Y-64591048D01*
X47490571Y-64686286D01*
X47538190Y-64733905D01*
X47633429Y-64781524D01*
X47823905Y-64781524D01*
X47919143Y-64733905D01*
X47966762Y-64686286D01*
X48014381Y-64591048D01*
X48014381Y-64400571D01*
X47966762Y-64305333D01*
X47919143Y-64257714D01*
X47823905Y-64210095D01*
X47633429Y-64210095D01*
X47538190Y-64257714D01*
X47490571Y-64305333D01*
X47442952Y-64400571D01*
X47347714Y-63352952D02*
X48014381Y-63352952D01*
X46966762Y-63591048D02*
X47681048Y-63829143D01*
X47681048Y-63210095D01*
X47014381Y-62924381D02*
X47014381Y-62257714D01*
X48014381Y-62686286D01*
X47919143Y-61305333D02*
X47966762Y-61352952D01*
X48014381Y-61495809D01*
X48014381Y-61591047D01*
X47966762Y-61733905D01*
X47871524Y-61829143D01*
X47776286Y-61876762D01*
X47585810Y-61924381D01*
X47442952Y-61924381D01*
X47252476Y-61876762D01*
X47157238Y-61829143D01*
X47062000Y-61733905D01*
X47014381Y-61591047D01*
X47014381Y-61495809D01*
X47062000Y-61352952D01*
X47109619Y-61305333D01*
X47014381Y-60972000D02*
X48014381Y-60733905D01*
X47300095Y-60543428D01*
X48014381Y-60352952D01*
X47014381Y-60114857D01*
D12*
X45464381Y-63745810D02*
X45416762Y-63722000D01*
X45369143Y-63674381D01*
X45297714Y-63602952D01*
X45250095Y-63579143D01*
X45202476Y-63579143D01*
X45226286Y-63698190D02*
X45178667Y-63674381D01*
X45131048Y-63626762D01*
X45107238Y-63531524D01*
X45107238Y-63364857D01*
X45131048Y-63269619D01*
X45178667Y-63222000D01*
X45226286Y-63198190D01*
X45321524Y-63198190D01*
X45369143Y-63222000D01*
X45416762Y-63269619D01*
X45440571Y-63364857D01*
X45440571Y-63531524D01*
X45416762Y-63626762D01*
X45369143Y-63674381D01*
X45321524Y-63698190D01*
X45226286Y-63698190D01*
X45892953Y-63198190D02*
X45654858Y-63198190D01*
X45631048Y-63436286D01*
X45654858Y-63412476D01*
X45702477Y-63388667D01*
X45821524Y-63388667D01*
X45869143Y-63412476D01*
X45892953Y-63436286D01*
X45916762Y-63483905D01*
X45916762Y-63602952D01*
X45892953Y-63650571D01*
X45869143Y-63674381D01*
X45821524Y-63698190D01*
X45702477Y-63698190D01*
X45654858Y-63674381D01*
X45631048Y-63650571D01*
D11*
X10279429Y-63700571D02*
X10422286Y-63748190D01*
X10469905Y-63795810D01*
X10517524Y-63891048D01*
X10517524Y-64033905D01*
X10469905Y-64129143D01*
X10422286Y-64176762D01*
X10327048Y-64224381D01*
X9946095Y-64224381D01*
X9946095Y-63224381D01*
X10279429Y-63224381D01*
X10374667Y-63272000D01*
X10422286Y-63319619D01*
X10469905Y-63414857D01*
X10469905Y-63510095D01*
X10422286Y-63605333D01*
X10374667Y-63652952D01*
X10279429Y-63700571D01*
X9946095Y-63700571D01*
X11517524Y-64129143D02*
X11469905Y-64176762D01*
X11327048Y-64224381D01*
X11231810Y-64224381D01*
X11088952Y-64176762D01*
X10993714Y-64081524D01*
X10946095Y-63986286D01*
X10898476Y-63795810D01*
X10898476Y-63652952D01*
X10946095Y-63462476D01*
X10993714Y-63367238D01*
X11088952Y-63272000D01*
X11231810Y-63224381D01*
X11327048Y-63224381D01*
X11469905Y-63272000D01*
X11517524Y-63319619D01*
X12088952Y-63652952D02*
X11993714Y-63605333D01*
X11946095Y-63557714D01*
X11898476Y-63462476D01*
X11898476Y-63414857D01*
X11946095Y-63319619D01*
X11993714Y-63272000D01*
X12088952Y-63224381D01*
X12279429Y-63224381D01*
X12374667Y-63272000D01*
X12422286Y-63319619D01*
X12469905Y-63414857D01*
X12469905Y-63462476D01*
X12422286Y-63557714D01*
X12374667Y-63605333D01*
X12279429Y-63652952D01*
X12088952Y-63652952D01*
X11993714Y-63700571D01*
X11946095Y-63748190D01*
X11898476Y-63843429D01*
X11898476Y-64033905D01*
X11946095Y-64129143D01*
X11993714Y-64176762D01*
X12088952Y-64224381D01*
X12279429Y-64224381D01*
X12374667Y-64176762D01*
X12422286Y-64129143D01*
X12469905Y-64033905D01*
X12469905Y-63843429D01*
X12422286Y-63748190D01*
X12374667Y-63700571D01*
X12279429Y-63652952D01*
X13327048Y-63557714D02*
X13327048Y-64224381D01*
X13088952Y-63176762D02*
X12850857Y-63891048D01*
X13469905Y-63891048D01*
X13755619Y-63224381D02*
X14422286Y-63224381D01*
X13993714Y-64224381D01*
X15374667Y-64129143D02*
X15327048Y-64176762D01*
X15184191Y-64224381D01*
X15088953Y-64224381D01*
X14946095Y-64176762D01*
X14850857Y-64081524D01*
X14803238Y-63986286D01*
X14755619Y-63795810D01*
X14755619Y-63652952D01*
X14803238Y-63462476D01*
X14850857Y-63367238D01*
X14946095Y-63272000D01*
X15088953Y-63224381D01*
X15184191Y-63224381D01*
X15327048Y-63272000D01*
X15374667Y-63319619D01*
X15708000Y-63224381D02*
X15946095Y-64224381D01*
X16136572Y-63510095D01*
X16327048Y-64224381D01*
X16565143Y-63224381D01*
D12*
X13481810Y-61769619D02*
X13458000Y-61817238D01*
X13410381Y-61864857D01*
X13338952Y-61936286D01*
X13315143Y-61983905D01*
X13315143Y-62031524D01*
X13434190Y-62007714D02*
X13410381Y-62055333D01*
X13362762Y-62102952D01*
X13267524Y-62126762D01*
X13100857Y-62126762D01*
X13005619Y-62102952D01*
X12958000Y-62055333D01*
X12934190Y-62007714D01*
X12934190Y-61912476D01*
X12958000Y-61864857D01*
X13005619Y-61817238D01*
X13100857Y-61793429D01*
X13267524Y-61793429D01*
X13362762Y-61817238D01*
X13410381Y-61864857D01*
X13434190Y-61912476D01*
X13434190Y-62007714D01*
X13100857Y-61364857D02*
X13434190Y-61364857D01*
X12910381Y-61483904D02*
X13267524Y-61602952D01*
X13267524Y-61293428D01*
D11*
X6469429Y-92910571D02*
X6612286Y-92958190D01*
X6659905Y-93005810D01*
X6707524Y-93101048D01*
X6707524Y-93243905D01*
X6659905Y-93339143D01*
X6612286Y-93386762D01*
X6517048Y-93434381D01*
X6136095Y-93434381D01*
X6136095Y-92434381D01*
X6469429Y-92434381D01*
X6564667Y-92482000D01*
X6612286Y-92529619D01*
X6659905Y-92624857D01*
X6659905Y-92720095D01*
X6612286Y-92815333D01*
X6564667Y-92862952D01*
X6469429Y-92910571D01*
X6136095Y-92910571D01*
X7707524Y-93339143D02*
X7659905Y-93386762D01*
X7517048Y-93434381D01*
X7421810Y-93434381D01*
X7278952Y-93386762D01*
X7183714Y-93291524D01*
X7136095Y-93196286D01*
X7088476Y-93005810D01*
X7088476Y-92862952D01*
X7136095Y-92672476D01*
X7183714Y-92577238D01*
X7278952Y-92482000D01*
X7421810Y-92434381D01*
X7517048Y-92434381D01*
X7659905Y-92482000D01*
X7707524Y-92529619D01*
X8278952Y-92862952D02*
X8183714Y-92815333D01*
X8136095Y-92767714D01*
X8088476Y-92672476D01*
X8088476Y-92624857D01*
X8136095Y-92529619D01*
X8183714Y-92482000D01*
X8278952Y-92434381D01*
X8469429Y-92434381D01*
X8564667Y-92482000D01*
X8612286Y-92529619D01*
X8659905Y-92624857D01*
X8659905Y-92672476D01*
X8612286Y-92767714D01*
X8564667Y-92815333D01*
X8469429Y-92862952D01*
X8278952Y-92862952D01*
X8183714Y-92910571D01*
X8136095Y-92958190D01*
X8088476Y-93053429D01*
X8088476Y-93243905D01*
X8136095Y-93339143D01*
X8183714Y-93386762D01*
X8278952Y-93434381D01*
X8469429Y-93434381D01*
X8564667Y-93386762D01*
X8612286Y-93339143D01*
X8659905Y-93243905D01*
X8659905Y-93053429D01*
X8612286Y-92958190D01*
X8564667Y-92910571D01*
X8469429Y-92862952D01*
X9517048Y-92767714D02*
X9517048Y-93434381D01*
X9278952Y-92386762D02*
X9040857Y-93101048D01*
X9659905Y-93101048D01*
X9945619Y-92434381D02*
X10612286Y-92434381D01*
X10183714Y-93434381D01*
X11564667Y-93339143D02*
X11517048Y-93386762D01*
X11374191Y-93434381D01*
X11278953Y-93434381D01*
X11136095Y-93386762D01*
X11040857Y-93291524D01*
X10993238Y-93196286D01*
X10945619Y-93005810D01*
X10945619Y-92862952D01*
X10993238Y-92672476D01*
X11040857Y-92577238D01*
X11136095Y-92482000D01*
X11278953Y-92434381D01*
X11374191Y-92434381D01*
X11517048Y-92482000D01*
X11564667Y-92529619D01*
X11898000Y-92434381D02*
X12136095Y-93434381D01*
X12326572Y-92720095D01*
X12517048Y-93434381D01*
X12755143Y-92434381D01*
D12*
X9671810Y-90979619D02*
X9648000Y-91027238D01*
X9600381Y-91074857D01*
X9528952Y-91146286D01*
X9505143Y-91193905D01*
X9505143Y-91241524D01*
X9624190Y-91217714D02*
X9600381Y-91265333D01*
X9552762Y-91312952D01*
X9457524Y-91336762D01*
X9290857Y-91336762D01*
X9195619Y-91312952D01*
X9148000Y-91265333D01*
X9124190Y-91217714D01*
X9124190Y-91122476D01*
X9148000Y-91074857D01*
X9195619Y-91027238D01*
X9290857Y-91003429D01*
X9457524Y-91003429D01*
X9552762Y-91027238D01*
X9600381Y-91074857D01*
X9624190Y-91122476D01*
X9624190Y-91217714D01*
X9124190Y-90836761D02*
X9124190Y-90527238D01*
X9314667Y-90693904D01*
X9314667Y-90622476D01*
X9338476Y-90574857D01*
X9362286Y-90551047D01*
X9409905Y-90527238D01*
X9528952Y-90527238D01*
X9576571Y-90551047D01*
X9600381Y-90574857D01*
X9624190Y-90622476D01*
X9624190Y-90765333D01*
X9600381Y-90812952D01*
X9576571Y-90836761D01*
D11*
X36520381Y-76366476D02*
X36520381Y-76842667D01*
X35520381Y-76842667D01*
X36520381Y-76033143D02*
X35520381Y-76033143D01*
X36234667Y-75699809D01*
X35520381Y-75366476D01*
X36520381Y-75366476D01*
X35948952Y-74747429D02*
X35901333Y-74842667D01*
X35853714Y-74890286D01*
X35758476Y-74937905D01*
X35710857Y-74937905D01*
X35615619Y-74890286D01*
X35568000Y-74842667D01*
X35520381Y-74747429D01*
X35520381Y-74556952D01*
X35568000Y-74461714D01*
X35615619Y-74414095D01*
X35710857Y-74366476D01*
X35758476Y-74366476D01*
X35853714Y-74414095D01*
X35901333Y-74461714D01*
X35948952Y-74556952D01*
X35948952Y-74747429D01*
X35996571Y-74842667D01*
X36044190Y-74890286D01*
X36139429Y-74937905D01*
X36329905Y-74937905D01*
X36425143Y-74890286D01*
X36472762Y-74842667D01*
X36520381Y-74747429D01*
X36520381Y-74556952D01*
X36472762Y-74461714D01*
X36425143Y-74414095D01*
X36329905Y-74366476D01*
X36139429Y-74366476D01*
X36044190Y-74414095D01*
X35996571Y-74461714D01*
X35948952Y-74556952D01*
X35520381Y-74033143D02*
X35520381Y-73414095D01*
X35901333Y-73747429D01*
X35901333Y-73604571D01*
X35948952Y-73509333D01*
X35996571Y-73461714D01*
X36091810Y-73414095D01*
X36329905Y-73414095D01*
X36425143Y-73461714D01*
X36472762Y-73509333D01*
X36520381Y-73604571D01*
X36520381Y-73890286D01*
X36472762Y-73985524D01*
X36425143Y-74033143D01*
X35520381Y-73080762D02*
X35520381Y-72461714D01*
X35901333Y-72795048D01*
X35901333Y-72652190D01*
X35948952Y-72556952D01*
X35996571Y-72509333D01*
X36091810Y-72461714D01*
X36329905Y-72461714D01*
X36425143Y-72509333D01*
X36472762Y-72556952D01*
X36520381Y-72652190D01*
X36520381Y-72937905D01*
X36472762Y-73033143D01*
X36425143Y-73080762D01*
X39249381Y-75663905D02*
X40058905Y-75663905D01*
X40154143Y-75616286D01*
X40201762Y-75568667D01*
X40249381Y-75473429D01*
X40249381Y-75282952D01*
X40201762Y-75187714D01*
X40154143Y-75140095D01*
X40058905Y-75092476D01*
X39249381Y-75092476D01*
X39249381Y-74140095D02*
X39249381Y-74616286D01*
X39725571Y-74663905D01*
X39677952Y-74616286D01*
X39630333Y-74521048D01*
X39630333Y-74282952D01*
X39677952Y-74187714D01*
X39725571Y-74140095D01*
X39820810Y-74092476D01*
X40058905Y-74092476D01*
X40154143Y-74140095D01*
X40201762Y-74187714D01*
X40249381Y-74282952D01*
X40249381Y-74521048D01*
X40201762Y-74616286D01*
X40154143Y-74663905D01*
X8326381Y-76620476D02*
X8326381Y-77096667D01*
X7326381Y-77096667D01*
X8326381Y-76287143D02*
X7326381Y-76287143D01*
X8040667Y-75953809D01*
X7326381Y-75620476D01*
X8326381Y-75620476D01*
X7754952Y-75001429D02*
X7707333Y-75096667D01*
X7659714Y-75144286D01*
X7564476Y-75191905D01*
X7516857Y-75191905D01*
X7421619Y-75144286D01*
X7374000Y-75096667D01*
X7326381Y-75001429D01*
X7326381Y-74810952D01*
X7374000Y-74715714D01*
X7421619Y-74668095D01*
X7516857Y-74620476D01*
X7564476Y-74620476D01*
X7659714Y-74668095D01*
X7707333Y-74715714D01*
X7754952Y-74810952D01*
X7754952Y-75001429D01*
X7802571Y-75096667D01*
X7850190Y-75144286D01*
X7945429Y-75191905D01*
X8135905Y-75191905D01*
X8231143Y-75144286D01*
X8278762Y-75096667D01*
X8326381Y-75001429D01*
X8326381Y-74810952D01*
X8278762Y-74715714D01*
X8231143Y-74668095D01*
X8135905Y-74620476D01*
X7945429Y-74620476D01*
X7850190Y-74668095D01*
X7802571Y-74715714D01*
X7754952Y-74810952D01*
X7326381Y-74287143D02*
X7326381Y-73668095D01*
X7707333Y-74001429D01*
X7707333Y-73858571D01*
X7754952Y-73763333D01*
X7802571Y-73715714D01*
X7897810Y-73668095D01*
X8135905Y-73668095D01*
X8231143Y-73715714D01*
X8278762Y-73763333D01*
X8326381Y-73858571D01*
X8326381Y-74144286D01*
X8278762Y-74239524D01*
X8231143Y-74287143D01*
X7326381Y-73334762D02*
X7326381Y-72715714D01*
X7707333Y-73049048D01*
X7707333Y-72906190D01*
X7754952Y-72810952D01*
X7802571Y-72763333D01*
X7897810Y-72715714D01*
X8135905Y-72715714D01*
X8231143Y-72763333D01*
X8278762Y-72810952D01*
X8326381Y-72906190D01*
X8326381Y-73191905D01*
X8278762Y-73287143D01*
X8231143Y-73334762D01*
X9866381Y-75691905D02*
X10675905Y-75691905D01*
X10771143Y-75644286D01*
X10818762Y-75596667D01*
X10866381Y-75501429D01*
X10866381Y-75310952D01*
X10818762Y-75215714D01*
X10771143Y-75168095D01*
X10675905Y-75120476D01*
X9866381Y-75120476D01*
X10866381Y-74120476D02*
X10866381Y-74691905D01*
X10866381Y-74406191D02*
X9866381Y-74406191D01*
X10009238Y-74501429D01*
X10104476Y-74596667D01*
X10152095Y-74691905D01*
X49728381Y-84669238D02*
X49728381Y-85240667D01*
X49728381Y-84954953D02*
X48728381Y-84954953D01*
X48871238Y-85050191D01*
X48966476Y-85145429D01*
X49014095Y-85240667D01*
X48728381Y-84050191D02*
X48728381Y-83954952D01*
X48776000Y-83859714D01*
X48823619Y-83812095D01*
X48918857Y-83764476D01*
X49109333Y-83716857D01*
X49347429Y-83716857D01*
X49537905Y-83764476D01*
X49633143Y-83812095D01*
X49680762Y-83859714D01*
X49728381Y-83954952D01*
X49728381Y-84050191D01*
X49680762Y-84145429D01*
X49633143Y-84193048D01*
X49537905Y-84240667D01*
X49347429Y-84288286D01*
X49109333Y-84288286D01*
X48918857Y-84240667D01*
X48823619Y-84193048D01*
X48776000Y-84145429D01*
X48728381Y-84050191D01*
X49728381Y-83288286D02*
X48728381Y-83288286D01*
X49347429Y-83193048D02*
X49728381Y-82907333D01*
X49061714Y-82907333D02*
X49442667Y-83288286D01*
X49474381Y-75017238D02*
X49474381Y-75588667D01*
X49474381Y-75302953D02*
X48474381Y-75302953D01*
X48617238Y-75398191D01*
X48712476Y-75493429D01*
X48760095Y-75588667D01*
X48474381Y-74398191D02*
X48474381Y-74302952D01*
X48522000Y-74207714D01*
X48569619Y-74160095D01*
X48664857Y-74112476D01*
X48855333Y-74064857D01*
X49093429Y-74064857D01*
X49283905Y-74112476D01*
X49379143Y-74160095D01*
X49426762Y-74207714D01*
X49474381Y-74302952D01*
X49474381Y-74398191D01*
X49426762Y-74493429D01*
X49379143Y-74541048D01*
X49283905Y-74588667D01*
X49093429Y-74636286D01*
X48855333Y-74636286D01*
X48664857Y-74588667D01*
X48569619Y-74541048D01*
X48522000Y-74493429D01*
X48474381Y-74398191D01*
X49474381Y-73636286D02*
X48474381Y-73636286D01*
X49093429Y-73541048D02*
X49474381Y-73255333D01*
X48807714Y-73255333D02*
X49188667Y-73636286D01*
X1214381Y-67397238D02*
X1214381Y-67968667D01*
X1214381Y-67682953D02*
X214381Y-67682953D01*
X357238Y-67778191D01*
X452476Y-67873429D01*
X500095Y-67968667D01*
X214381Y-66778191D02*
X214381Y-66682952D01*
X262000Y-66587714D01*
X309619Y-66540095D01*
X404857Y-66492476D01*
X595333Y-66444857D01*
X833429Y-66444857D01*
X1023905Y-66492476D01*
X1119143Y-66540095D01*
X1166762Y-66587714D01*
X1214381Y-66682952D01*
X1214381Y-66778191D01*
X1166762Y-66873429D01*
X1119143Y-66921048D01*
X1023905Y-66968667D01*
X833429Y-67016286D01*
X595333Y-67016286D01*
X404857Y-66968667D01*
X309619Y-66921048D01*
X262000Y-66873429D01*
X214381Y-66778191D01*
X1214381Y-66016286D02*
X214381Y-66016286D01*
X833429Y-65921048D02*
X1214381Y-65635333D01*
X547714Y-65635333D02*
X928667Y-66016286D01*
X1214381Y-77557238D02*
X1214381Y-78128667D01*
X1214381Y-77842953D02*
X214381Y-77842953D01*
X357238Y-77938191D01*
X452476Y-78033429D01*
X500095Y-78128667D01*
X214381Y-76938191D02*
X214381Y-76842952D01*
X262000Y-76747714D01*
X309619Y-76700095D01*
X404857Y-76652476D01*
X595333Y-76604857D01*
X833429Y-76604857D01*
X1023905Y-76652476D01*
X1119143Y-76700095D01*
X1166762Y-76747714D01*
X1214381Y-76842952D01*
X1214381Y-76938191D01*
X1166762Y-77033429D01*
X1119143Y-77081048D01*
X1023905Y-77128667D01*
X833429Y-77176286D01*
X595333Y-77176286D01*
X404857Y-77128667D01*
X309619Y-77081048D01*
X262000Y-77033429D01*
X214381Y-76938191D01*
X1214381Y-76176286D02*
X214381Y-76176286D01*
X833429Y-76081048D02*
X1214381Y-75795333D01*
X547714Y-75795333D02*
X928667Y-76176286D01*
X32591809Y-79402381D02*
X32591809Y-78402381D01*
X33067999Y-78735714D02*
X33067999Y-79402381D01*
X33067999Y-78830952D02*
X33115618Y-78783333D01*
X33210856Y-78735714D01*
X33353714Y-78735714D01*
X33448952Y-78783333D01*
X33496571Y-78878571D01*
X33496571Y-79402381D01*
X33972761Y-78735714D02*
X33972761Y-79735714D01*
X33972761Y-78783333D02*
X34067999Y-78735714D01*
X34258476Y-78735714D01*
X34353714Y-78783333D01*
X34401333Y-78830952D01*
X34448952Y-78926190D01*
X34448952Y-79211905D01*
X34401333Y-79307143D01*
X34353714Y-79354762D01*
X34258476Y-79402381D01*
X34067999Y-79402381D01*
X33972761Y-79354762D01*
X35306095Y-78735714D02*
X35306095Y-79402381D01*
X34877523Y-78735714D02*
X34877523Y-79259524D01*
X34925142Y-79354762D01*
X35020380Y-79402381D01*
X35163238Y-79402381D01*
X35258476Y-79354762D01*
X35306095Y-79307143D01*
X35639428Y-78735714D02*
X36020380Y-78735714D01*
X35782285Y-78402381D02*
X35782285Y-79259524D01*
X35829904Y-79354762D01*
X35925142Y-79402381D01*
X36020380Y-79402381D01*
X37687048Y-79307143D02*
X37639429Y-79354762D01*
X37496572Y-79402381D01*
X37401334Y-79402381D01*
X37258476Y-79354762D01*
X37163238Y-79259524D01*
X37115619Y-79164286D01*
X37068000Y-78973810D01*
X37068000Y-78830952D01*
X37115619Y-78640476D01*
X37163238Y-78545238D01*
X37258476Y-78450000D01*
X37401334Y-78402381D01*
X37496572Y-78402381D01*
X37639429Y-78450000D01*
X37687048Y-78497619D01*
X38258476Y-79402381D02*
X38163238Y-79354762D01*
X38115619Y-79307143D01*
X38068000Y-79211905D01*
X38068000Y-78926190D01*
X38115619Y-78830952D01*
X38163238Y-78783333D01*
X38258476Y-78735714D01*
X38401334Y-78735714D01*
X38496572Y-78783333D01*
X38544191Y-78830952D01*
X38591810Y-78926190D01*
X38591810Y-79211905D01*
X38544191Y-79307143D01*
X38496572Y-79354762D01*
X38401334Y-79402381D01*
X38258476Y-79402381D01*
X39020381Y-79402381D02*
X39020381Y-78735714D01*
X39020381Y-78402381D02*
X38972762Y-78450000D01*
X39020381Y-78497619D01*
X39068000Y-78450000D01*
X39020381Y-78402381D01*
X39020381Y-78497619D01*
X39639428Y-79402381D02*
X39544190Y-79354762D01*
X39496571Y-79259524D01*
X39496571Y-78402381D01*
X35901334Y-86602381D02*
X35425143Y-86602381D01*
X35425143Y-85602381D01*
X36663239Y-85935714D02*
X36663239Y-86602381D01*
X36425143Y-85554762D02*
X36187048Y-86269048D01*
X36806096Y-86269048D01*
X35050809Y-71334381D02*
X35050809Y-70334381D01*
X35526999Y-70667714D02*
X35526999Y-71334381D01*
X35526999Y-70762952D02*
X35574618Y-70715333D01*
X35669856Y-70667714D01*
X35812714Y-70667714D01*
X35907952Y-70715333D01*
X35955571Y-70810571D01*
X35955571Y-71334381D01*
X36431761Y-70667714D02*
X36431761Y-71667714D01*
X36431761Y-70715333D02*
X36526999Y-70667714D01*
X36717476Y-70667714D01*
X36812714Y-70715333D01*
X36860333Y-70762952D01*
X36907952Y-70858190D01*
X36907952Y-71143905D01*
X36860333Y-71239143D01*
X36812714Y-71286762D01*
X36717476Y-71334381D01*
X36526999Y-71334381D01*
X36431761Y-71286762D01*
X37765095Y-70667714D02*
X37765095Y-71334381D01*
X37336523Y-70667714D02*
X37336523Y-71191524D01*
X37384142Y-71286762D01*
X37479380Y-71334381D01*
X37622238Y-71334381D01*
X37717476Y-71286762D01*
X37765095Y-71239143D01*
X38098428Y-70667714D02*
X38479380Y-70667714D01*
X38241285Y-70334381D02*
X38241285Y-71191524D01*
X38288904Y-71286762D01*
X38384142Y-71334381D01*
X38479380Y-71334381D01*
X40146048Y-71239143D02*
X40098429Y-71286762D01*
X39955572Y-71334381D01*
X39860334Y-71334381D01*
X39717476Y-71286762D01*
X39622238Y-71191524D01*
X39574619Y-71096286D01*
X39527000Y-70905810D01*
X39527000Y-70762952D01*
X39574619Y-70572476D01*
X39622238Y-70477238D01*
X39717476Y-70382000D01*
X39860334Y-70334381D01*
X39955572Y-70334381D01*
X40098429Y-70382000D01*
X40146048Y-70429619D01*
X40717476Y-71334381D02*
X40622238Y-71286762D01*
X40574619Y-71239143D01*
X40527000Y-71143905D01*
X40527000Y-70858190D01*
X40574619Y-70762952D01*
X40622238Y-70715333D01*
X40717476Y-70667714D01*
X40860334Y-70667714D01*
X40955572Y-70715333D01*
X41003191Y-70762952D01*
X41050810Y-70858190D01*
X41050810Y-71143905D01*
X41003191Y-71239143D01*
X40955572Y-71286762D01*
X40860334Y-71334381D01*
X40717476Y-71334381D01*
X41479381Y-71334381D02*
X41479381Y-70667714D01*
X41479381Y-70334381D02*
X41431762Y-70382000D01*
X41479381Y-70429619D01*
X41527000Y-70382000D01*
X41479381Y-70334381D01*
X41479381Y-70429619D01*
X42098428Y-71334381D02*
X42003190Y-71286762D01*
X41955571Y-71191524D01*
X41955571Y-70334381D01*
X38360334Y-64134381D02*
X37884143Y-64134381D01*
X37884143Y-63134381D01*
X38598429Y-63134381D02*
X39217477Y-63134381D01*
X38884143Y-63515333D01*
X39027001Y-63515333D01*
X39122239Y-63562952D01*
X39169858Y-63610571D01*
X39217477Y-63705810D01*
X39217477Y-63943905D01*
X39169858Y-64039143D01*
X39122239Y-64086762D01*
X39027001Y-64134381D01*
X38741286Y-64134381D01*
X38646048Y-64086762D01*
X38598429Y-64039143D01*
X10747809Y-71362381D02*
X10747809Y-70362381D01*
X11223999Y-70695714D02*
X11223999Y-71362381D01*
X11223999Y-70790952D02*
X11271618Y-70743333D01*
X11366856Y-70695714D01*
X11509714Y-70695714D01*
X11604952Y-70743333D01*
X11652571Y-70838571D01*
X11652571Y-71362381D01*
X12128761Y-70695714D02*
X12128761Y-71695714D01*
X12128761Y-70743333D02*
X12223999Y-70695714D01*
X12414476Y-70695714D01*
X12509714Y-70743333D01*
X12557333Y-70790952D01*
X12604952Y-70886190D01*
X12604952Y-71171905D01*
X12557333Y-71267143D01*
X12509714Y-71314762D01*
X12414476Y-71362381D01*
X12223999Y-71362381D01*
X12128761Y-71314762D01*
X13462095Y-70695714D02*
X13462095Y-71362381D01*
X13033523Y-70695714D02*
X13033523Y-71219524D01*
X13081142Y-71314762D01*
X13176380Y-71362381D01*
X13319238Y-71362381D01*
X13414476Y-71314762D01*
X13462095Y-71267143D01*
X13795428Y-70695714D02*
X14176380Y-70695714D01*
X13938285Y-70362381D02*
X13938285Y-71219524D01*
X13985904Y-71314762D01*
X14081142Y-71362381D01*
X14176380Y-71362381D01*
X15843048Y-71267143D02*
X15795429Y-71314762D01*
X15652572Y-71362381D01*
X15557334Y-71362381D01*
X15414476Y-71314762D01*
X15319238Y-71219524D01*
X15271619Y-71124286D01*
X15224000Y-70933810D01*
X15224000Y-70790952D01*
X15271619Y-70600476D01*
X15319238Y-70505238D01*
X15414476Y-70410000D01*
X15557334Y-70362381D01*
X15652572Y-70362381D01*
X15795429Y-70410000D01*
X15843048Y-70457619D01*
X16414476Y-71362381D02*
X16319238Y-71314762D01*
X16271619Y-71267143D01*
X16224000Y-71171905D01*
X16224000Y-70886190D01*
X16271619Y-70790952D01*
X16319238Y-70743333D01*
X16414476Y-70695714D01*
X16557334Y-70695714D01*
X16652572Y-70743333D01*
X16700191Y-70790952D01*
X16747810Y-70886190D01*
X16747810Y-71171905D01*
X16700191Y-71267143D01*
X16652572Y-71314762D01*
X16557334Y-71362381D01*
X16414476Y-71362381D01*
X17176381Y-71362381D02*
X17176381Y-70695714D01*
X17176381Y-70362381D02*
X17128762Y-70410000D01*
X17176381Y-70457619D01*
X17224000Y-70410000D01*
X17176381Y-70362381D01*
X17176381Y-70457619D01*
X17795428Y-71362381D02*
X17700190Y-71314762D01*
X17652571Y-71219524D01*
X17652571Y-70362381D01*
X14057334Y-64162381D02*
X13581143Y-64162381D01*
X13581143Y-63162381D01*
X14343048Y-63257619D02*
X14390667Y-63210000D01*
X14485905Y-63162381D01*
X14724001Y-63162381D01*
X14819239Y-63210000D01*
X14866858Y-63257619D01*
X14914477Y-63352857D01*
X14914477Y-63448095D01*
X14866858Y-63590952D01*
X14295429Y-64162381D01*
X14914477Y-64162381D01*
X12866952Y-54852381D02*
X12866952Y-53852381D01*
X13247905Y-53852381D01*
X13343143Y-53900000D01*
X13390762Y-53947619D01*
X13438381Y-54042857D01*
X13438381Y-54185714D01*
X13390762Y-54280952D01*
X13343143Y-54328571D01*
X13247905Y-54376190D01*
X12866952Y-54376190D01*
X13866952Y-53852381D02*
X13866952Y-54661905D01*
X13914571Y-54757143D01*
X13962190Y-54804762D01*
X14057428Y-54852381D01*
X14247905Y-54852381D01*
X14343143Y-54804762D01*
X14390762Y-54757143D01*
X14438381Y-54661905D01*
X14438381Y-53852381D01*
X15390762Y-54852381D02*
X14914571Y-54852381D01*
X14914571Y-53852381D01*
X15676476Y-54804762D02*
X15819333Y-54852381D01*
X16057429Y-54852381D01*
X16152667Y-54804762D01*
X16200286Y-54757143D01*
X16247905Y-54661905D01*
X16247905Y-54566667D01*
X16200286Y-54471429D01*
X16152667Y-54423810D01*
X16057429Y-54376190D01*
X15866952Y-54328571D01*
X15771714Y-54280952D01*
X15724095Y-54233333D01*
X15676476Y-54138095D01*
X15676476Y-54042857D01*
X15724095Y-53947619D01*
X15771714Y-53900000D01*
X15866952Y-53852381D01*
X16105048Y-53852381D01*
X16247905Y-53900000D01*
X16676476Y-54328571D02*
X17009810Y-54328571D01*
X17152667Y-54852381D02*
X16676476Y-54852381D01*
X16676476Y-53852381D01*
X17152667Y-53852381D01*
X14176477Y-49192381D02*
X14176477Y-49906667D01*
X14128857Y-50049524D01*
X14033619Y-50144762D01*
X13890762Y-50192381D01*
X13795524Y-50192381D01*
X15176477Y-50192381D02*
X14605048Y-50192381D01*
X14890762Y-50192381D02*
X14890762Y-49192381D01*
X14795524Y-49335238D01*
X14700286Y-49430476D01*
X14605048Y-49478095D01*
X15557429Y-49287619D02*
X15605048Y-49240000D01*
X15700286Y-49192381D01*
X15938382Y-49192381D01*
X16033620Y-49240000D01*
X16081239Y-49287619D01*
X16128858Y-49382857D01*
X16128858Y-49478095D01*
X16081239Y-49620952D01*
X15509810Y-50192381D01*
X16128858Y-50192381D01*
X10326952Y-54852381D02*
X10326952Y-53852381D01*
X10707905Y-53852381D01*
X10803143Y-53900000D01*
X10850762Y-53947619D01*
X10898381Y-54042857D01*
X10898381Y-54185714D01*
X10850762Y-54280952D01*
X10803143Y-54328571D01*
X10707905Y-54376190D01*
X10326952Y-54376190D01*
X11326952Y-53852381D02*
X11326952Y-54661905D01*
X11374571Y-54757143D01*
X11422190Y-54804762D01*
X11517428Y-54852381D01*
X11707905Y-54852381D01*
X11803143Y-54804762D01*
X11850762Y-54757143D01*
X11898381Y-54661905D01*
X11898381Y-53852381D01*
X12850762Y-54852381D02*
X12374571Y-54852381D01*
X12374571Y-53852381D01*
X13136476Y-54804762D02*
X13279333Y-54852381D01*
X13517429Y-54852381D01*
X13612667Y-54804762D01*
X13660286Y-54757143D01*
X13707905Y-54661905D01*
X13707905Y-54566667D01*
X13660286Y-54471429D01*
X13612667Y-54423810D01*
X13517429Y-54376190D01*
X13326952Y-54328571D01*
X13231714Y-54280952D01*
X13184095Y-54233333D01*
X13136476Y-54138095D01*
X13136476Y-54042857D01*
X13184095Y-53947619D01*
X13231714Y-53900000D01*
X13326952Y-53852381D01*
X13565048Y-53852381D01*
X13707905Y-53900000D01*
X14136476Y-54328571D02*
X14469810Y-54328571D01*
X14612667Y-54852381D02*
X14136476Y-54852381D01*
X14136476Y-53852381D01*
X14612667Y-53852381D01*
X11636477Y-49192381D02*
X11636477Y-49906667D01*
X11588857Y-50049524D01*
X11493619Y-50144762D01*
X11350762Y-50192381D01*
X11255524Y-50192381D01*
X12636477Y-50192381D02*
X12065048Y-50192381D01*
X12350762Y-50192381D02*
X12350762Y-49192381D01*
X12255524Y-49335238D01*
X12160286Y-49430476D01*
X12065048Y-49478095D01*
X13588858Y-50192381D02*
X13017429Y-50192381D01*
X13303143Y-50192381D02*
X13303143Y-49192381D01*
X13207905Y-49335238D01*
X13112667Y-49430476D01*
X13017429Y-49478095D01*
X21058333Y-98143571D02*
X21391667Y-98143571D01*
X21534524Y-98667381D02*
X21058333Y-98667381D01*
X21058333Y-97667381D01*
X21534524Y-97667381D01*
X21963095Y-98667381D02*
X21963095Y-97667381D01*
X22534524Y-98667381D01*
X22534524Y-97667381D01*
X22867857Y-97667381D02*
X23201190Y-98667381D01*
X23534524Y-97667381D01*
X21415477Y-93007381D02*
X21415477Y-93721667D01*
X21367857Y-93864524D01*
X21272619Y-93959762D01*
X21129762Y-94007381D01*
X21034524Y-94007381D01*
X22415477Y-94007381D02*
X21844048Y-94007381D01*
X22129762Y-94007381D02*
X22129762Y-93007381D01*
X22034524Y-93150238D01*
X21939286Y-93245476D01*
X21844048Y-93293095D01*
X23034524Y-93007381D02*
X23129763Y-93007381D01*
X23225001Y-93055000D01*
X23272620Y-93102619D01*
X23320239Y-93197857D01*
X23367858Y-93388333D01*
X23367858Y-93626429D01*
X23320239Y-93816905D01*
X23272620Y-93912143D01*
X23225001Y-93959762D01*
X23129763Y-94007381D01*
X23034524Y-94007381D01*
X22939286Y-93959762D01*
X22891667Y-93912143D01*
X22844048Y-93816905D01*
X22796429Y-93626429D01*
X22796429Y-93388333D01*
X22844048Y-93197857D01*
X22891667Y-93102619D01*
X22939286Y-93055000D01*
X23034524Y-93007381D01*
X18518333Y-98143571D02*
X18851667Y-98143571D01*
X18994524Y-98667381D02*
X18518333Y-98667381D01*
X18518333Y-97667381D01*
X18994524Y-97667381D01*
X19423095Y-98667381D02*
X19423095Y-97667381D01*
X19994524Y-98667381D01*
X19994524Y-97667381D01*
X20327857Y-97667381D02*
X20661190Y-98667381D01*
X20994524Y-97667381D01*
X19351667Y-93007381D02*
X19351667Y-93721667D01*
X19304047Y-93864524D01*
X19208809Y-93959762D01*
X19065952Y-94007381D01*
X18970714Y-94007381D01*
X19875476Y-94007381D02*
X20065952Y-94007381D01*
X20161191Y-93959762D01*
X20208810Y-93912143D01*
X20304048Y-93769286D01*
X20351667Y-93578810D01*
X20351667Y-93197857D01*
X20304048Y-93102619D01*
X20256429Y-93055000D01*
X20161191Y-93007381D01*
X19970714Y-93007381D01*
X19875476Y-93055000D01*
X19827857Y-93102619D01*
X19780238Y-93197857D01*
X19780238Y-93435952D01*
X19827857Y-93531190D01*
X19875476Y-93578810D01*
X19970714Y-93626429D01*
X20161191Y-93626429D01*
X20256429Y-93578810D01*
X20304048Y-93531190D01*
X20351667Y-93435952D01*
X7501191Y-98381667D02*
X7977382Y-98381667D01*
X7405953Y-98667381D02*
X7739286Y-97667381D01*
X8072620Y-98667381D01*
X8405953Y-97667381D02*
X8405953Y-98476905D01*
X8453572Y-98572143D01*
X8501191Y-98619762D01*
X8596429Y-98667381D01*
X8786906Y-98667381D01*
X8882144Y-98619762D01*
X8929763Y-98572143D01*
X8977382Y-98476905D01*
X8977382Y-97667381D01*
X9453572Y-98667381D02*
X9453572Y-97667381D01*
X9691667Y-97667381D01*
X9834525Y-97715000D01*
X9929763Y-97810238D01*
X9977382Y-97905476D01*
X10025001Y-98095952D01*
X10025001Y-98238810D01*
X9977382Y-98429286D01*
X9929763Y-98524524D01*
X9834525Y-98619762D01*
X9691667Y-98667381D01*
X9453572Y-98667381D01*
X10453572Y-98667381D02*
X10453572Y-97667381D01*
X11120238Y-97667381D02*
X11310715Y-97667381D01*
X11405953Y-97715000D01*
X11501191Y-97810238D01*
X11548810Y-98000714D01*
X11548810Y-98334048D01*
X11501191Y-98524524D01*
X11405953Y-98619762D01*
X11310715Y-98667381D01*
X11120238Y-98667381D01*
X11025000Y-98619762D01*
X10929762Y-98524524D01*
X10882143Y-98334048D01*
X10882143Y-98000714D01*
X10929762Y-97810238D01*
X11025000Y-97715000D01*
X11120238Y-97667381D01*
X9191667Y-93007381D02*
X9191667Y-93721667D01*
X9144047Y-93864524D01*
X9048809Y-93959762D01*
X8905952Y-94007381D01*
X8810714Y-94007381D01*
X9810714Y-93435952D02*
X9715476Y-93388333D01*
X9667857Y-93340714D01*
X9620238Y-93245476D01*
X9620238Y-93197857D01*
X9667857Y-93102619D01*
X9715476Y-93055000D01*
X9810714Y-93007381D01*
X10001191Y-93007381D01*
X10096429Y-93055000D01*
X10144048Y-93102619D01*
X10191667Y-93197857D01*
X10191667Y-93245476D01*
X10144048Y-93340714D01*
X10096429Y-93388333D01*
X10001191Y-93435952D01*
X9810714Y-93435952D01*
X9715476Y-93483571D01*
X9667857Y-93531190D01*
X9620238Y-93626429D01*
X9620238Y-93816905D01*
X9667857Y-93912143D01*
X9715476Y-93959762D01*
X9810714Y-94007381D01*
X10001191Y-94007381D01*
X10096429Y-93959762D01*
X10144048Y-93912143D01*
X10191667Y-93816905D01*
X10191667Y-93626429D01*
X10144048Y-93531190D01*
X10096429Y-93483571D01*
X10001191Y-93435952D01*
X4961191Y-98381667D02*
X5437382Y-98381667D01*
X4865953Y-98667381D02*
X5199286Y-97667381D01*
X5532620Y-98667381D01*
X5865953Y-97667381D02*
X5865953Y-98476905D01*
X5913572Y-98572143D01*
X5961191Y-98619762D01*
X6056429Y-98667381D01*
X6246906Y-98667381D01*
X6342144Y-98619762D01*
X6389763Y-98572143D01*
X6437382Y-98476905D01*
X6437382Y-97667381D01*
X6913572Y-98667381D02*
X6913572Y-97667381D01*
X7151667Y-97667381D01*
X7294525Y-97715000D01*
X7389763Y-97810238D01*
X7437382Y-97905476D01*
X7485001Y-98095952D01*
X7485001Y-98238810D01*
X7437382Y-98429286D01*
X7389763Y-98524524D01*
X7294525Y-98619762D01*
X7151667Y-98667381D01*
X6913572Y-98667381D01*
X7913572Y-98667381D02*
X7913572Y-97667381D01*
X8580238Y-97667381D02*
X8770715Y-97667381D01*
X8865953Y-97715000D01*
X8961191Y-97810238D01*
X9008810Y-98000714D01*
X9008810Y-98334048D01*
X8961191Y-98524524D01*
X8865953Y-98619762D01*
X8770715Y-98667381D01*
X8580238Y-98667381D01*
X8485000Y-98619762D01*
X8389762Y-98524524D01*
X8342143Y-98334048D01*
X8342143Y-98000714D01*
X8389762Y-97810238D01*
X8485000Y-97715000D01*
X8580238Y-97667381D01*
X6651667Y-93007381D02*
X6651667Y-93721667D01*
X6604047Y-93864524D01*
X6508809Y-93959762D01*
X6365952Y-94007381D01*
X6270714Y-94007381D01*
X7032619Y-93007381D02*
X7699286Y-93007381D01*
X7270714Y-94007381D01*
X7786952Y-54852381D02*
X7786952Y-53852381D01*
X8167905Y-53852381D01*
X8263143Y-53900000D01*
X8310762Y-53947619D01*
X8358381Y-54042857D01*
X8358381Y-54185714D01*
X8310762Y-54280952D01*
X8263143Y-54328571D01*
X8167905Y-54376190D01*
X7786952Y-54376190D01*
X8786952Y-53852381D02*
X8786952Y-54661905D01*
X8834571Y-54757143D01*
X8882190Y-54804762D01*
X8977428Y-54852381D01*
X9167905Y-54852381D01*
X9263143Y-54804762D01*
X9310762Y-54757143D01*
X9358381Y-54661905D01*
X9358381Y-53852381D01*
X10310762Y-54852381D02*
X9834571Y-54852381D01*
X9834571Y-53852381D01*
X10596476Y-54804762D02*
X10739333Y-54852381D01*
X10977429Y-54852381D01*
X11072667Y-54804762D01*
X11120286Y-54757143D01*
X11167905Y-54661905D01*
X11167905Y-54566667D01*
X11120286Y-54471429D01*
X11072667Y-54423810D01*
X10977429Y-54376190D01*
X10786952Y-54328571D01*
X10691714Y-54280952D01*
X10644095Y-54233333D01*
X10596476Y-54138095D01*
X10596476Y-54042857D01*
X10644095Y-53947619D01*
X10691714Y-53900000D01*
X10786952Y-53852381D01*
X11025048Y-53852381D01*
X11167905Y-53900000D01*
X11596476Y-54328571D02*
X11929810Y-54328571D01*
X12072667Y-54852381D02*
X11596476Y-54852381D01*
X11596476Y-53852381D01*
X12072667Y-53852381D01*
X9572667Y-49192381D02*
X9572667Y-49906667D01*
X9525047Y-50049524D01*
X9429809Y-50144762D01*
X9286952Y-50192381D01*
X9191714Y-50192381D01*
X10477429Y-49192381D02*
X10286952Y-49192381D01*
X10191714Y-49240000D01*
X10144095Y-49287619D01*
X10048857Y-49430476D01*
X10001238Y-49620952D01*
X10001238Y-50001905D01*
X10048857Y-50097143D01*
X10096476Y-50144762D01*
X10191714Y-50192381D01*
X10382191Y-50192381D01*
X10477429Y-50144762D01*
X10525048Y-50097143D01*
X10572667Y-50001905D01*
X10572667Y-49763810D01*
X10525048Y-49668571D01*
X10477429Y-49620952D01*
X10382191Y-49573333D01*
X10191714Y-49573333D01*
X10096476Y-49620952D01*
X10048857Y-49668571D01*
X10001238Y-49763810D01*
X5246952Y-54852381D02*
X5246952Y-53852381D01*
X5627905Y-53852381D01*
X5723143Y-53900000D01*
X5770762Y-53947619D01*
X5818381Y-54042857D01*
X5818381Y-54185714D01*
X5770762Y-54280952D01*
X5723143Y-54328571D01*
X5627905Y-54376190D01*
X5246952Y-54376190D01*
X6246952Y-53852381D02*
X6246952Y-54661905D01*
X6294571Y-54757143D01*
X6342190Y-54804762D01*
X6437428Y-54852381D01*
X6627905Y-54852381D01*
X6723143Y-54804762D01*
X6770762Y-54757143D01*
X6818381Y-54661905D01*
X6818381Y-53852381D01*
X7770762Y-54852381D02*
X7294571Y-54852381D01*
X7294571Y-53852381D01*
X8056476Y-54804762D02*
X8199333Y-54852381D01*
X8437429Y-54852381D01*
X8532667Y-54804762D01*
X8580286Y-54757143D01*
X8627905Y-54661905D01*
X8627905Y-54566667D01*
X8580286Y-54471429D01*
X8532667Y-54423810D01*
X8437429Y-54376190D01*
X8246952Y-54328571D01*
X8151714Y-54280952D01*
X8104095Y-54233333D01*
X8056476Y-54138095D01*
X8056476Y-54042857D01*
X8104095Y-53947619D01*
X8151714Y-53900000D01*
X8246952Y-53852381D01*
X8485048Y-53852381D01*
X8627905Y-53900000D01*
X9056476Y-54328571D02*
X9389810Y-54328571D01*
X9532667Y-54852381D02*
X9056476Y-54852381D01*
X9056476Y-53852381D01*
X9532667Y-53852381D01*
X7032667Y-49192381D02*
X7032667Y-49906667D01*
X6985047Y-50049524D01*
X6889809Y-50144762D01*
X6746952Y-50192381D01*
X6651714Y-50192381D01*
X7985048Y-49192381D02*
X7508857Y-49192381D01*
X7461238Y-49668571D01*
X7508857Y-49620952D01*
X7604095Y-49573333D01*
X7842191Y-49573333D01*
X7937429Y-49620952D01*
X7985048Y-49668571D01*
X8032667Y-49763810D01*
X8032667Y-50001905D01*
X7985048Y-50097143D01*
X7937429Y-50144762D01*
X7842191Y-50192381D01*
X7604095Y-50192381D01*
X7508857Y-50144762D01*
X7461238Y-50097143D01*
X15978333Y-98143571D02*
X16311667Y-98143571D01*
X16454524Y-98667381D02*
X15978333Y-98667381D01*
X15978333Y-97667381D01*
X16454524Y-97667381D01*
X16883095Y-98667381D02*
X16883095Y-97667381D01*
X17454524Y-98667381D01*
X17454524Y-97667381D01*
X17787857Y-97667381D02*
X18121190Y-98667381D01*
X18454524Y-97667381D01*
X16811667Y-93007381D02*
X16811667Y-93721667D01*
X16764047Y-93864524D01*
X16668809Y-93959762D01*
X16525952Y-94007381D01*
X16430714Y-94007381D01*
X17716429Y-93340714D02*
X17716429Y-94007381D01*
X17478333Y-92959762D02*
X17240238Y-93674048D01*
X17859286Y-93674048D01*
X13438333Y-98143571D02*
X13771667Y-98143571D01*
X13914524Y-98667381D02*
X13438333Y-98667381D01*
X13438333Y-97667381D01*
X13914524Y-97667381D01*
X14343095Y-98667381D02*
X14343095Y-97667381D01*
X14914524Y-98667381D01*
X14914524Y-97667381D01*
X15247857Y-97667381D02*
X15581190Y-98667381D01*
X15914524Y-97667381D01*
X14271667Y-93007381D02*
X14271667Y-93721667D01*
X14224047Y-93864524D01*
X14128809Y-93959762D01*
X13985952Y-94007381D01*
X13890714Y-94007381D01*
X14652619Y-93007381D02*
X15271667Y-93007381D01*
X14938333Y-93388333D01*
X15081191Y-93388333D01*
X15176429Y-93435952D01*
X15224048Y-93483571D01*
X15271667Y-93578810D01*
X15271667Y-93816905D01*
X15224048Y-93912143D01*
X15176429Y-93959762D01*
X15081191Y-94007381D01*
X14795476Y-94007381D01*
X14700238Y-93959762D01*
X14652619Y-93912143D01*
X2421191Y-98381667D02*
X2897382Y-98381667D01*
X2325953Y-98667381D02*
X2659286Y-97667381D01*
X2992620Y-98667381D01*
X3325953Y-97667381D02*
X3325953Y-98476905D01*
X3373572Y-98572143D01*
X3421191Y-98619762D01*
X3516429Y-98667381D01*
X3706906Y-98667381D01*
X3802144Y-98619762D01*
X3849763Y-98572143D01*
X3897382Y-98476905D01*
X3897382Y-97667381D01*
X4373572Y-98667381D02*
X4373572Y-97667381D01*
X4611667Y-97667381D01*
X4754525Y-97715000D01*
X4849763Y-97810238D01*
X4897382Y-97905476D01*
X4945001Y-98095952D01*
X4945001Y-98238810D01*
X4897382Y-98429286D01*
X4849763Y-98524524D01*
X4754525Y-98619762D01*
X4611667Y-98667381D01*
X4373572Y-98667381D01*
X5373572Y-98667381D02*
X5373572Y-97667381D01*
X6040238Y-97667381D02*
X6230715Y-97667381D01*
X6325953Y-97715000D01*
X6421191Y-97810238D01*
X6468810Y-98000714D01*
X6468810Y-98334048D01*
X6421191Y-98524524D01*
X6325953Y-98619762D01*
X6230715Y-98667381D01*
X6040238Y-98667381D01*
X5945000Y-98619762D01*
X5849762Y-98524524D01*
X5802143Y-98334048D01*
X5802143Y-98000714D01*
X5849762Y-97810238D01*
X5945000Y-97715000D01*
X6040238Y-97667381D01*
X4111667Y-93007381D02*
X4111667Y-93721667D01*
X4064047Y-93864524D01*
X3968809Y-93959762D01*
X3825952Y-94007381D01*
X3730714Y-94007381D01*
X4540238Y-93102619D02*
X4587857Y-93055000D01*
X4683095Y-93007381D01*
X4921191Y-93007381D01*
X5016429Y-93055000D01*
X5064048Y-93102619D01*
X5111667Y-93197857D01*
X5111667Y-93293095D01*
X5064048Y-93435952D01*
X4492619Y-94007381D01*
X5111667Y-94007381D01*
X-118809Y-98591667D02*
X357382Y-98591667D01*
X-214047Y-98877381D02*
X119286Y-97877381D01*
X452620Y-98877381D01*
X785953Y-97877381D02*
X785953Y-98686905D01*
X833572Y-98782143D01*
X881191Y-98829762D01*
X976429Y-98877381D01*
X1166906Y-98877381D01*
X1262144Y-98829762D01*
X1309763Y-98782143D01*
X1357382Y-98686905D01*
X1357382Y-97877381D01*
X1833572Y-98877381D02*
X1833572Y-97877381D01*
X2071667Y-97877381D01*
X2214525Y-97925000D01*
X2309763Y-98020238D01*
X2357382Y-98115476D01*
X2405001Y-98305952D01*
X2405001Y-98448810D01*
X2357382Y-98639286D01*
X2309763Y-98734524D01*
X2214525Y-98829762D01*
X2071667Y-98877381D01*
X1833572Y-98877381D01*
X2833572Y-98877381D02*
X2833572Y-97877381D01*
X3500238Y-97877381D02*
X3690715Y-97877381D01*
X3785953Y-97925000D01*
X3881191Y-98020238D01*
X3928810Y-98210714D01*
X3928810Y-98544048D01*
X3881191Y-98734524D01*
X3785953Y-98829762D01*
X3690715Y-98877381D01*
X3500238Y-98877381D01*
X3405000Y-98829762D01*
X3309762Y-98734524D01*
X3262143Y-98544048D01*
X3262143Y-98210714D01*
X3309762Y-98020238D01*
X3405000Y-97925000D01*
X3500238Y-97877381D01*
X1571667Y-93007381D02*
X1571667Y-93721667D01*
X1524047Y-93864524D01*
X1428809Y-93959762D01*
X1285952Y-94007381D01*
X1190714Y-94007381D01*
X2571667Y-94007381D02*
X2000238Y-94007381D01*
X2285952Y-94007381D02*
X2285952Y-93007381D01*
X2190714Y-93150238D01*
X2095476Y-93245476D01*
X2000238Y-93293095D01*
X34082381Y-58626285D02*
X34082381Y-59197714D01*
X34082381Y-58912000D02*
X33082381Y-58912000D01*
X33225238Y-59007238D01*
X33320476Y-59102476D01*
X33368095Y-59197714D01*
X33082381Y-58007238D02*
X33082381Y-57911999D01*
X33130000Y-57816761D01*
X33177619Y-57769142D01*
X33272857Y-57721523D01*
X33463333Y-57673904D01*
X33701429Y-57673904D01*
X33891905Y-57721523D01*
X33987143Y-57769142D01*
X34034762Y-57816761D01*
X34082381Y-57911999D01*
X34082381Y-58007238D01*
X34034762Y-58102476D01*
X33987143Y-58150095D01*
X33891905Y-58197714D01*
X33701429Y-58245333D01*
X33463333Y-58245333D01*
X33272857Y-58197714D01*
X33177619Y-58150095D01*
X33130000Y-58102476D01*
X33082381Y-58007238D01*
X33415714Y-57245333D02*
X34415714Y-57245333D01*
X33939524Y-56769142D02*
X34034762Y-56721523D01*
X34082381Y-56626285D01*
X33939524Y-57245333D02*
X34034762Y-57197714D01*
X34082381Y-57102476D01*
X34082381Y-56911999D01*
X34034762Y-56816761D01*
X33939524Y-56769142D01*
X33415714Y-56769142D01*
D13*
X30765714Y-58426286D02*
X30803810Y-58464381D01*
X30841905Y-58578667D01*
X30841905Y-58654857D01*
X30803810Y-58769143D01*
X30727619Y-58845334D01*
X30651429Y-58883429D01*
X30499048Y-58921524D01*
X30384762Y-58921524D01*
X30232381Y-58883429D01*
X30156190Y-58845334D01*
X30080000Y-58769143D01*
X30041905Y-58654857D01*
X30041905Y-58578667D01*
X30080000Y-58464381D01*
X30118095Y-58426286D01*
X30841905Y-57664381D02*
X30841905Y-58121524D01*
X30841905Y-57892953D02*
X30041905Y-57892953D01*
X30156190Y-57969143D01*
X30232381Y-58045334D01*
X30270476Y-58121524D01*
X30384762Y-57207238D02*
X30346667Y-57283429D01*
X30308571Y-57321524D01*
X30232381Y-57359619D01*
X30194286Y-57359619D01*
X30118095Y-57321524D01*
X30080000Y-57283429D01*
X30041905Y-57207238D01*
X30041905Y-57054857D01*
X30080000Y-56978667D01*
X30118095Y-56940571D01*
X30194286Y-56902476D01*
X30232381Y-56902476D01*
X30308571Y-56940571D01*
X30346667Y-56978667D01*
X30384762Y-57054857D01*
X30384762Y-57207238D01*
X30422857Y-57283429D01*
X30460952Y-57321524D01*
X30537143Y-57359619D01*
X30689524Y-57359619D01*
X30765714Y-57321524D01*
X30803810Y-57283429D01*
X30841905Y-57207238D01*
X30841905Y-57054857D01*
X30803810Y-56978667D01*
X30765714Y-56940571D01*
X30689524Y-56902476D01*
X30537143Y-56902476D01*
X30460952Y-56940571D01*
X30422857Y-56978667D01*
X30384762Y-57054857D01*
D11*
X22233286Y-79820381D02*
X22899953Y-79820381D01*
X22471381Y-80820381D01*
X23709477Y-80153714D02*
X23709477Y-80820381D01*
X23471381Y-79772762D02*
X23233286Y-80487048D01*
X23852334Y-80487048D01*
X24233286Y-80820381D02*
X24233286Y-79820381D01*
X24233286Y-80296571D02*
X24804715Y-80296571D01*
X24804715Y-80820381D02*
X24804715Y-79820381D01*
X25852334Y-80725143D02*
X25804715Y-80772762D01*
X25661858Y-80820381D01*
X25566620Y-80820381D01*
X25423762Y-80772762D01*
X25328524Y-80677524D01*
X25280905Y-80582286D01*
X25233286Y-80391810D01*
X25233286Y-80248952D01*
X25280905Y-80058476D01*
X25328524Y-79963238D01*
X25423762Y-79868000D01*
X25566620Y-79820381D01*
X25661858Y-79820381D01*
X25804715Y-79868000D01*
X25852334Y-79915619D01*
X26804715Y-80820381D02*
X26233286Y-80820381D01*
X26519000Y-80820381D02*
X26519000Y-79820381D01*
X26423762Y-79963238D01*
X26328524Y-80058476D01*
X26233286Y-80106095D01*
X27661858Y-80153714D02*
X27661858Y-80820381D01*
X27423762Y-79772762D02*
X27185667Y-80487048D01*
X27804715Y-80487048D01*
X24257095Y-69810381D02*
X24257095Y-70619905D01*
X24304714Y-70715143D01*
X24352333Y-70762762D01*
X24447571Y-70810381D01*
X24638048Y-70810381D01*
X24733286Y-70762762D01*
X24780905Y-70715143D01*
X24828524Y-70619905D01*
X24828524Y-69810381D01*
X25733286Y-70143714D02*
X25733286Y-70810381D01*
X25495190Y-69762762D02*
X25257095Y-70477048D01*
X25876143Y-70477048D01*
X21582333Y-55336381D02*
X22249000Y-55336381D01*
X21820428Y-56336381D01*
X22772809Y-55764952D02*
X22677571Y-55717333D01*
X22629952Y-55669714D01*
X22582333Y-55574476D01*
X22582333Y-55526857D01*
X22629952Y-55431619D01*
X22677571Y-55384000D01*
X22772809Y-55336381D01*
X22963286Y-55336381D01*
X23058524Y-55384000D01*
X23106143Y-55431619D01*
X23153762Y-55526857D01*
X23153762Y-55574476D01*
X23106143Y-55669714D01*
X23058524Y-55717333D01*
X22963286Y-55764952D01*
X22772809Y-55764952D01*
X22677571Y-55812571D01*
X22629952Y-55860190D01*
X22582333Y-55955429D01*
X22582333Y-56145905D01*
X22629952Y-56241143D01*
X22677571Y-56288762D01*
X22772809Y-56336381D01*
X22963286Y-56336381D01*
X23058524Y-56288762D01*
X23106143Y-56241143D01*
X23153762Y-56145905D01*
X23153762Y-55955429D01*
X23106143Y-55860190D01*
X23058524Y-55812571D01*
X22963286Y-55764952D01*
X24058524Y-56336381D02*
X23582333Y-56336381D01*
X23582333Y-55336381D01*
X24582333Y-55336381D02*
X24677572Y-55336381D01*
X24772810Y-55384000D01*
X24820429Y-55431619D01*
X24868048Y-55526857D01*
X24915667Y-55717333D01*
X24915667Y-55955429D01*
X24868048Y-56145905D01*
X24820429Y-56241143D01*
X24772810Y-56288762D01*
X24677572Y-56336381D01*
X24582333Y-56336381D01*
X24487095Y-56288762D01*
X24439476Y-56241143D01*
X24391857Y-56145905D01*
X24344238Y-55955429D01*
X24344238Y-55717333D01*
X24391857Y-55526857D01*
X24439476Y-55431619D01*
X24487095Y-55384000D01*
X24582333Y-55336381D01*
X25820429Y-55336381D02*
X25344238Y-55336381D01*
X25296619Y-55812571D01*
X25344238Y-55764952D01*
X25439476Y-55717333D01*
X25677572Y-55717333D01*
X25772810Y-55764952D01*
X25820429Y-55812571D01*
X25868048Y-55907810D01*
X25868048Y-56145905D01*
X25820429Y-56241143D01*
X25772810Y-56288762D01*
X25677572Y-56336381D01*
X25439476Y-56336381D01*
X25344238Y-56288762D01*
X25296619Y-56241143D01*
X22987095Y-61686381D02*
X22987095Y-62495905D01*
X23034714Y-62591143D01*
X23082333Y-62638762D01*
X23177571Y-62686381D01*
X23368048Y-62686381D01*
X23463286Y-62638762D01*
X23510905Y-62591143D01*
X23558524Y-62495905D01*
X23558524Y-61686381D01*
X23987095Y-61781619D02*
X24034714Y-61734000D01*
X24129952Y-61686381D01*
X24368048Y-61686381D01*
X24463286Y-61734000D01*
X24510905Y-61781619D01*
X24558524Y-61876857D01*
X24558524Y-61972095D01*
X24510905Y-62114952D01*
X23939476Y-62686381D01*
X24558524Y-62686381D01*
M02*
