M48
;DRILL file {KiCad 4.0.6} date 07/20/17 01:45:41
;FORMAT={-:-/ absolute / metric / decimal}
FMAT,2
METRIC,TZ
T1C0.600
T2C0.800
T3C1.000
%
G90
G05
M71
T1
X1.143Y-90.424
X3.81Y-84.328
X4.572Y-64.77
X6.35Y-64.262
X7.366Y-91.948
X9.525Y-57.277
X9.525Y-85.852
X12.192Y-55.118
X13.462Y-85.471
X13.716Y-75.692
X14.351Y-54.102
X15.875Y-86.233
X17.526Y-85.725
X18.288Y-80.645
X19.304Y-62.611
X19.558Y-88.519
X20.701Y-90.17
X24.003Y-80.645
X25.019Y-86.995
X26.289Y-82.169
X27.686Y-91.059
X30.099Y-88.392
X30.988Y-66.802
X32.215Y-85.725
X32.639Y-82.677
X33.147Y-71.12
X34.29Y-85.852
X35.75Y-62.358
X37.338Y-77.343
X38.354Y-89.154
X39.797Y-64.107
X41.656Y-87.63
X42.672Y-73.914
X43.942Y-85.09
X46.609Y-60.452
X47.117Y-75.946
X47.498Y-58.42
X47.498Y-61.976
X47.498Y-86.614
T2
X2.54Y-67.564
X2.54Y-70.104
X2.54Y-72.644
X2.54Y-77.47
X2.54Y-80.01
X2.54Y-82.55
X6.604Y-71.12
X6.604Y-78.74
X9.144Y-71.12
X9.144Y-78.74
X11.684Y-71.12
X11.684Y-78.74
X14.224Y-71.12
X14.224Y-78.74
X21.209Y-58.674
X21.209Y-62.738
X21.209Y-65.278
X21.209Y-67.818
X21.209Y-70.358
X21.209Y-72.898
X21.209Y-75.438
X21.209Y-77.978
X23.749Y-58.674
X26.289Y-58.674
X28.829Y-62.738
X28.829Y-65.278
X28.829Y-67.818
X28.829Y-70.358
X28.829Y-72.898
X28.829Y-75.438
X28.829Y-77.978
X35.987Y-71.092
X35.987Y-78.712
X38.527Y-71.092
X38.527Y-78.712
X41.067Y-71.092
X41.067Y-78.712
X43.607Y-71.092
X43.607Y-78.712
X47.498Y-68.834
X47.498Y-71.374
X47.498Y-73.914
X47.498Y-78.74
X47.498Y-81.28
X47.498Y-83.82
T3
X1.905Y-95.885
X4.445Y-95.885
X6.985Y-95.885
X7.366Y-52.07
X9.525Y-95.885
X9.906Y-52.07
X11.684Y-81.28
X11.684Y-83.82
X12.446Y-52.07
X14.224Y-66.04
X14.224Y-68.58
X14.605Y-95.885
X14.986Y-52.07
X17.145Y-95.885
X19.685Y-95.885
X22.225Y-51.562
X22.225Y-54.102
X22.225Y-95.885
X24.765Y-51.562
X24.765Y-54.102
X27.305Y-51.562
X27.305Y-54.102
X36.068Y-81.28
X36.068Y-83.82
X38.527Y-66.012
X38.527Y-68.552
T0
M30
