G04 #@! TF.FileFunction,Soldermask,Bot*
%FSLAX46Y46*%
G04 Gerber Fmt 4.6, Leading zero omitted, Abs format (unit mm)*
G04 Created by KiCad (PCBNEW 4.0.6) date 07/25/17 18:54:20*
%MOMM*%
%LPD*%
G01*
G04 APERTURE LIST*
%ADD10C,0.100000*%
%ADD11C,4.400000*%
%ADD12R,1.600000X1.150000*%
%ADD13R,2.100000X2.100000*%
%ADD14O,2.100000X2.100000*%
%ADD15R,2.000000X2.000000*%
%ADD16O,2.000000X2.000000*%
%ADD17C,1.840000*%
%ADD18C,1.920000*%
%ADD19R,1.920000X1.920000*%
G04 APERTURE END LIST*
D10*
D11*
X43982000Y-44594000D03*
D12*
X26609000Y-30391000D03*
X28509000Y-30391000D03*
D13*
X22225000Y-4102000D03*
D14*
X24765000Y-4102000D03*
X27305000Y-4102000D03*
D13*
X22225000Y-1562000D03*
D14*
X24765000Y-1562000D03*
X27305000Y-1562000D03*
D15*
X43607000Y-21092000D03*
D16*
X35987000Y-28712000D03*
X41067000Y-21092000D03*
X38527000Y-28712000D03*
X38527000Y-21092000D03*
X41067000Y-28712000D03*
X35987000Y-21092000D03*
X43607000Y-28712000D03*
D15*
X6604000Y-28740000D03*
D16*
X14224000Y-21120000D03*
X9144000Y-28740000D03*
X11684000Y-21120000D03*
X11684000Y-28740000D03*
X9144000Y-21120000D03*
X14224000Y-28740000D03*
X6604000Y-21120000D03*
D17*
X47498000Y-28740000D03*
X47498000Y-31280000D03*
X47498000Y-33820000D03*
X47498000Y-18834000D03*
X47498000Y-21374000D03*
X47498000Y-23914000D03*
X2540000Y-22644000D03*
X2540000Y-20104000D03*
X2540000Y-17564000D03*
X2540000Y-32550000D03*
X2540000Y-30010000D03*
X2540000Y-27470000D03*
D13*
X36068000Y-33820000D03*
D14*
X36068000Y-31280000D03*
D13*
X38527000Y-16012000D03*
D14*
X38527000Y-18552000D03*
D13*
X14224000Y-16040000D03*
D14*
X14224000Y-18580000D03*
D13*
X11684000Y-33820000D03*
D14*
X11684000Y-31280000D03*
D13*
X14986000Y-2070000D03*
X12446000Y-2070000D03*
X22225000Y-45885000D03*
X19685000Y-45885000D03*
X9525000Y-45885000D03*
X6985000Y-45885000D03*
X9906000Y-2070000D03*
X7366000Y-2070000D03*
X17145000Y-45885000D03*
X14605000Y-45885000D03*
X4445000Y-45885000D03*
X1905000Y-45885000D03*
D15*
X21209000Y-12738000D03*
D16*
X28829000Y-27978000D03*
X21209000Y-15278000D03*
X28829000Y-25438000D03*
X21209000Y-17818000D03*
X28829000Y-22898000D03*
X21209000Y-20358000D03*
X28829000Y-20358000D03*
X21209000Y-22898000D03*
X28829000Y-17818000D03*
X21209000Y-25438000D03*
X28829000Y-15278000D03*
X21209000Y-27978000D03*
X28829000Y-12738000D03*
D18*
X23749000Y-8674000D03*
X21209000Y-8674000D03*
D19*
X26289000Y-8674000D03*
D11*
X46482000Y-3594000D03*
M02*
