G04 #@! TF.FileFunction,Copper,L1,Top,Signal*
%FSLAX46Y46*%
G04 Gerber Fmt 4.6, Leading zero omitted, Abs format (unit mm)*
G04 Created by KiCad (PCBNEW 4.0.6) date 07/25/17 21:38:10*
%MOMM*%
%LPD*%
G01*
G04 APERTURE LIST*
%ADD10C,0.100000*%
%ADD11R,1.800000X2.150000*%
%ADD12R,0.450000X1.500000*%
%ADD13R,0.900000X1.200000*%
%ADD14R,1.200000X0.900000*%
%ADD15R,1.200000X0.750000*%
%ADD16R,1.700000X1.700000*%
%ADD17O,1.700000X1.700000*%
%ADD18R,1.600000X1.600000*%
%ADD19O,1.600000X1.600000*%
%ADD20R,0.750000X1.200000*%
%ADD21C,1.440000*%
%ADD22R,1.500000X0.450000*%
%ADD23C,1.520000*%
%ADD24R,1.520000X1.520000*%
%ADD25R,1.143000X0.508000*%
%ADD26C,1.000000*%
%ADD27C,0.800000*%
%ADD28C,0.300000*%
G04 APERTURE END LIST*
D10*
D11*
X108340000Y-95357000D03*
X108340000Y-92107000D03*
X58340000Y-95357000D03*
X58340000Y-92107000D03*
X108340000Y-45357000D03*
X108340000Y-42107000D03*
D12*
X114710000Y-97008000D03*
X116010000Y-97008000D03*
X115360000Y-94348000D03*
X64710000Y-97008000D03*
X66010000Y-97008000D03*
X65360000Y-94348000D03*
X114710000Y-47008000D03*
X116010000Y-47008000D03*
X115360000Y-44348000D03*
D13*
X114610000Y-98578000D03*
X114610000Y-100778000D03*
X64610000Y-98578000D03*
X64610000Y-100778000D03*
X114610000Y-48578000D03*
X114610000Y-50778000D03*
X113360000Y-94328000D03*
X113360000Y-96528000D03*
X63360000Y-94328000D03*
X63360000Y-96528000D03*
X113360000Y-44328000D03*
X113360000Y-46528000D03*
X117610000Y-98778000D03*
X117610000Y-96578000D03*
X67610000Y-98778000D03*
X67610000Y-96578000D03*
X117610000Y-48778000D03*
X117610000Y-46578000D03*
D14*
X119392000Y-94212000D03*
X117192000Y-94212000D03*
X69392000Y-94212000D03*
X67192000Y-94212000D03*
X119392000Y-44212000D03*
X117192000Y-44212000D03*
D15*
X121147000Y-99292000D03*
X119247000Y-99292000D03*
X71147000Y-99292000D03*
X69247000Y-99292000D03*
X121147000Y-49292000D03*
X119247000Y-49292000D03*
D16*
X116387000Y-101832000D03*
D17*
X116387000Y-104372000D03*
D16*
X66387000Y-101832000D03*
D17*
X66387000Y-104372000D03*
D16*
X116387000Y-51832000D03*
D17*
X116387000Y-54372000D03*
D18*
X121467000Y-106912000D03*
D19*
X113847000Y-114532000D03*
X118927000Y-106912000D03*
X116387000Y-114532000D03*
X116387000Y-106912000D03*
X118927000Y-114532000D03*
X113847000Y-106912000D03*
X121467000Y-114532000D03*
D18*
X71467000Y-106912000D03*
D19*
X63847000Y-114532000D03*
X68927000Y-106912000D03*
X66387000Y-114532000D03*
X66387000Y-106912000D03*
X68927000Y-114532000D03*
X63847000Y-106912000D03*
X71467000Y-114532000D03*
D18*
X121467000Y-56912000D03*
D19*
X113847000Y-64532000D03*
X118927000Y-56912000D03*
X116387000Y-64532000D03*
X116387000Y-56912000D03*
X118927000Y-64532000D03*
X113847000Y-56912000D03*
X121467000Y-64532000D03*
D13*
X119562000Y-103567000D03*
X119562000Y-101367000D03*
X69562000Y-103567000D03*
X69562000Y-101367000D03*
X119562000Y-53567000D03*
X119562000Y-51367000D03*
D20*
X121467000Y-105322000D03*
X121467000Y-103422000D03*
X71467000Y-105322000D03*
X71467000Y-103422000D03*
X121467000Y-55322000D03*
X121467000Y-53422000D03*
X114482000Y-104052000D03*
X114482000Y-102152000D03*
X64482000Y-104052000D03*
X64482000Y-102152000D03*
X114482000Y-54052000D03*
X114482000Y-52152000D03*
D15*
X110438000Y-104908000D03*
X112338000Y-104908000D03*
X60438000Y-104908000D03*
X62338000Y-104908000D03*
X110438000Y-54908000D03*
X112338000Y-54908000D03*
D21*
X125358000Y-104654000D03*
X125358000Y-107194000D03*
X125358000Y-109734000D03*
X75358000Y-104654000D03*
X75358000Y-107194000D03*
X75358000Y-109734000D03*
X125358000Y-54654000D03*
X125358000Y-57194000D03*
X125358000Y-59734000D03*
D16*
X113928000Y-119640000D03*
D17*
X113928000Y-117100000D03*
D16*
X63928000Y-119640000D03*
D17*
X63928000Y-117100000D03*
D16*
X113928000Y-69640000D03*
D17*
X113928000Y-67100000D03*
D21*
X125358000Y-114560000D03*
X125358000Y-117100000D03*
X125358000Y-119640000D03*
X75358000Y-114560000D03*
X75358000Y-117100000D03*
X75358000Y-119640000D03*
X125358000Y-64560000D03*
X125358000Y-67100000D03*
X125358000Y-69640000D03*
D20*
X115960000Y-117420000D03*
X115960000Y-119320000D03*
X65960000Y-117420000D03*
X65960000Y-119320000D03*
X115960000Y-67420000D03*
X115960000Y-69320000D03*
D12*
X120256000Y-118372000D03*
X118956000Y-118372000D03*
X119606000Y-121032000D03*
X70256000Y-118372000D03*
X68956000Y-118372000D03*
X69606000Y-121032000D03*
X120256000Y-68372000D03*
X118956000Y-68372000D03*
X119606000Y-71032000D03*
D13*
X121802000Y-119470000D03*
X121802000Y-117270000D03*
X71802000Y-119470000D03*
X71802000Y-117270000D03*
X121802000Y-69470000D03*
X121802000Y-67270000D03*
X117484000Y-117397000D03*
X117484000Y-119597000D03*
X67484000Y-117397000D03*
X67484000Y-119597000D03*
X117484000Y-67397000D03*
X117484000Y-69597000D03*
D15*
X118688000Y-121164000D03*
X116788000Y-121164000D03*
X68688000Y-121164000D03*
X66788000Y-121164000D03*
X118688000Y-71164000D03*
X116788000Y-71164000D03*
X118688000Y-116084000D03*
X116788000Y-116084000D03*
X68688000Y-116084000D03*
X66788000Y-116084000D03*
X118688000Y-66084000D03*
X116788000Y-66084000D03*
D13*
X126374000Y-123112000D03*
X126374000Y-125312000D03*
X76374000Y-123112000D03*
X76374000Y-125312000D03*
X126374000Y-73112000D03*
X126374000Y-75312000D03*
D15*
X121990000Y-122688000D03*
X120090000Y-122688000D03*
X71990000Y-122688000D03*
X70090000Y-122688000D03*
X121990000Y-72688000D03*
X120090000Y-72688000D03*
D14*
X123410000Y-123958000D03*
X121210000Y-123958000D03*
X73410000Y-123958000D03*
X71210000Y-123958000D03*
X123410000Y-73958000D03*
X121210000Y-73958000D03*
X124680000Y-125482000D03*
X122480000Y-125482000D03*
X74680000Y-125482000D03*
X72480000Y-125482000D03*
X124680000Y-75482000D03*
X122480000Y-75482000D03*
D13*
X107959000Y-126033000D03*
X107959000Y-128233000D03*
X57959000Y-126033000D03*
X57959000Y-128233000D03*
X107959000Y-76033000D03*
X107959000Y-78233000D03*
D14*
X107875000Y-120275000D03*
X110075000Y-120275000D03*
X57875000Y-120275000D03*
X60075000Y-120275000D03*
X107875000Y-70275000D03*
X110075000Y-70275000D03*
D12*
X110103000Y-127701000D03*
X111403000Y-127701000D03*
X110753000Y-125041000D03*
X60103000Y-127701000D03*
X61403000Y-127701000D03*
X60753000Y-125041000D03*
X110103000Y-77701000D03*
X111403000Y-77701000D03*
X110753000Y-75041000D03*
D14*
X115536000Y-124974000D03*
X113336000Y-124974000D03*
X65536000Y-124974000D03*
X63336000Y-124974000D03*
X115536000Y-74974000D03*
X113336000Y-74974000D03*
X107875000Y-122815000D03*
X110075000Y-122815000D03*
X57875000Y-122815000D03*
X60075000Y-122815000D03*
X107875000Y-72815000D03*
X110075000Y-72815000D03*
D22*
X116020000Y-123592000D03*
X116020000Y-122292000D03*
X113360000Y-122942000D03*
X66020000Y-123592000D03*
X66020000Y-122292000D03*
X63360000Y-122942000D03*
X116020000Y-73592000D03*
X116020000Y-72292000D03*
X113360000Y-72942000D03*
D13*
X117992000Y-125058000D03*
X117992000Y-122858000D03*
X67992000Y-125058000D03*
X67992000Y-122858000D03*
X117992000Y-75058000D03*
X117992000Y-72858000D03*
X125404000Y-98954000D03*
X125404000Y-101154000D03*
X75404000Y-98954000D03*
X75404000Y-101154000D03*
X125404000Y-48954000D03*
X125404000Y-51154000D03*
D12*
X122722000Y-100622000D03*
X124022000Y-100622000D03*
X123372000Y-97962000D03*
X72722000Y-100622000D03*
X74022000Y-100622000D03*
X73372000Y-97962000D03*
X122722000Y-50622000D03*
X124022000Y-50622000D03*
X123372000Y-47962000D03*
D15*
X119201000Y-97415000D03*
X121101000Y-97415000D03*
X69201000Y-97415000D03*
X71101000Y-97415000D03*
X119201000Y-47415000D03*
X121101000Y-47415000D03*
D14*
X123460000Y-94178000D03*
X121260000Y-94178000D03*
X73460000Y-94178000D03*
X71260000Y-94178000D03*
X123460000Y-44178000D03*
X121260000Y-44178000D03*
D18*
X99069000Y-98558000D03*
D19*
X106689000Y-113798000D03*
X99069000Y-101098000D03*
X106689000Y-111258000D03*
X99069000Y-103638000D03*
X106689000Y-108718000D03*
X99069000Y-106178000D03*
X106689000Y-106178000D03*
X99069000Y-108718000D03*
X106689000Y-103638000D03*
X99069000Y-111258000D03*
X106689000Y-101098000D03*
X99069000Y-113798000D03*
X106689000Y-98558000D03*
D18*
X49069000Y-98558000D03*
D19*
X56689000Y-113798000D03*
X49069000Y-101098000D03*
X56689000Y-111258000D03*
X49069000Y-103638000D03*
X56689000Y-108718000D03*
X49069000Y-106178000D03*
X56689000Y-106178000D03*
X49069000Y-108718000D03*
X56689000Y-103638000D03*
X49069000Y-111258000D03*
X56689000Y-101098000D03*
X49069000Y-113798000D03*
X56689000Y-98558000D03*
D18*
X99069000Y-48558000D03*
D19*
X106689000Y-63798000D03*
X99069000Y-51098000D03*
X106689000Y-61258000D03*
X99069000Y-53638000D03*
X106689000Y-58718000D03*
X99069000Y-56178000D03*
X106689000Y-56178000D03*
X99069000Y-58718000D03*
X106689000Y-53638000D03*
X99069000Y-61258000D03*
X106689000Y-51098000D03*
X99069000Y-63798000D03*
X106689000Y-48558000D03*
D10*
G36*
X94119721Y-101865117D02*
X94756117Y-101228721D01*
X95604645Y-102077249D01*
X94968249Y-102713645D01*
X94119721Y-101865117D01*
X94119721Y-101865117D01*
G37*
G36*
X95675355Y-103420751D02*
X96311751Y-102784355D01*
X97160279Y-103632883D01*
X96523883Y-104269279D01*
X95675355Y-103420751D01*
X95675355Y-103420751D01*
G37*
G36*
X44119721Y-101865117D02*
X44756117Y-101228721D01*
X45604645Y-102077249D01*
X44968249Y-102713645D01*
X44119721Y-101865117D01*
X44119721Y-101865117D01*
G37*
G36*
X45675355Y-103420751D02*
X46311751Y-102784355D01*
X47160279Y-103632883D01*
X46523883Y-104269279D01*
X45675355Y-103420751D01*
X45675355Y-103420751D01*
G37*
G36*
X94119721Y-51865117D02*
X94756117Y-51228721D01*
X95604645Y-52077249D01*
X94968249Y-52713645D01*
X94119721Y-51865117D01*
X94119721Y-51865117D01*
G37*
G36*
X95675355Y-53420751D02*
X96311751Y-52784355D01*
X97160279Y-53632883D01*
X96523883Y-54269279D01*
X95675355Y-53420751D01*
X95675355Y-53420751D01*
G37*
D16*
X92084000Y-101860000D03*
D17*
X92084000Y-104400000D03*
D16*
X42084000Y-101860000D03*
D17*
X42084000Y-104400000D03*
D16*
X92084000Y-51860000D03*
D17*
X92084000Y-54400000D03*
D13*
X88528000Y-103976000D03*
X88528000Y-101776000D03*
X38528000Y-103976000D03*
X38528000Y-101776000D03*
X88528000Y-53976000D03*
X88528000Y-51776000D03*
D20*
X90052000Y-104080000D03*
X90052000Y-102180000D03*
X40052000Y-104080000D03*
X40052000Y-102180000D03*
X90052000Y-54080000D03*
X90052000Y-52180000D03*
D15*
X87324000Y-105416000D03*
X89224000Y-105416000D03*
X37324000Y-105416000D03*
X39224000Y-105416000D03*
X87324000Y-55416000D03*
X89224000Y-55416000D03*
D12*
X85084000Y-103698000D03*
X86384000Y-103698000D03*
X85734000Y-101038000D03*
X35084000Y-103698000D03*
X36384000Y-103698000D03*
X35734000Y-101038000D03*
X85084000Y-53698000D03*
X86384000Y-53698000D03*
X85734000Y-51038000D03*
D18*
X84464000Y-114560000D03*
D19*
X92084000Y-106940000D03*
X87004000Y-114560000D03*
X89544000Y-106940000D03*
X89544000Y-114560000D03*
X87004000Y-106940000D03*
X92084000Y-114560000D03*
X84464000Y-106940000D03*
D18*
X34464000Y-114560000D03*
D19*
X42084000Y-106940000D03*
X37004000Y-114560000D03*
X39544000Y-106940000D03*
X39544000Y-114560000D03*
X37004000Y-106940000D03*
X42084000Y-114560000D03*
X34464000Y-106940000D03*
D18*
X84464000Y-64560000D03*
D19*
X92084000Y-56940000D03*
X87004000Y-64560000D03*
X89544000Y-56940000D03*
X89544000Y-64560000D03*
X87004000Y-56940000D03*
X92084000Y-64560000D03*
X84464000Y-56940000D03*
D13*
X83702000Y-102030000D03*
X83702000Y-104230000D03*
X33702000Y-102030000D03*
X33702000Y-104230000D03*
X83702000Y-52030000D03*
X83702000Y-54230000D03*
D21*
X80400000Y-108464000D03*
X80400000Y-105924000D03*
X80400000Y-103384000D03*
X30400000Y-108464000D03*
X30400000Y-105924000D03*
X30400000Y-103384000D03*
X80400000Y-58464000D03*
X80400000Y-55924000D03*
X80400000Y-53384000D03*
D16*
X85226000Y-87890000D03*
X35226000Y-87890000D03*
X85226000Y-37890000D03*
X90306000Y-87890000D03*
X40306000Y-87890000D03*
X90306000Y-37890000D03*
X92846000Y-87890000D03*
X42846000Y-87890000D03*
X92846000Y-37890000D03*
X87766000Y-87890000D03*
X37766000Y-87890000D03*
X87766000Y-37890000D03*
D14*
X90644000Y-95002000D03*
X88444000Y-95002000D03*
X40644000Y-95002000D03*
X38444000Y-95002000D03*
X90644000Y-45002000D03*
X88444000Y-45002000D03*
D13*
X86496000Y-96864000D03*
X86496000Y-94664000D03*
X36496000Y-96864000D03*
X36496000Y-94664000D03*
X86496000Y-46864000D03*
X86496000Y-44664000D03*
D20*
X84718000Y-96592000D03*
X84718000Y-98492000D03*
X34718000Y-96592000D03*
X34718000Y-98492000D03*
X84718000Y-46592000D03*
X84718000Y-48492000D03*
D22*
X89738000Y-96892000D03*
X89738000Y-98192000D03*
X92398000Y-97542000D03*
X39738000Y-96892000D03*
X39738000Y-98192000D03*
X42398000Y-97542000D03*
X89738000Y-46892000D03*
X89738000Y-48192000D03*
X92398000Y-47542000D03*
D13*
X92846000Y-93902000D03*
X92846000Y-96102000D03*
X42846000Y-93902000D03*
X42846000Y-96102000D03*
X92846000Y-43902000D03*
X92846000Y-46102000D03*
D14*
X92930000Y-99574000D03*
X90730000Y-99574000D03*
X42930000Y-99574000D03*
X40730000Y-99574000D03*
X92930000Y-49574000D03*
X90730000Y-49574000D03*
D15*
X86562000Y-100082000D03*
X88462000Y-100082000D03*
X36562000Y-100082000D03*
X38462000Y-100082000D03*
X86562000Y-50082000D03*
X88462000Y-50082000D03*
D14*
X86412000Y-98304000D03*
X88612000Y-98304000D03*
X36412000Y-98304000D03*
X38612000Y-98304000D03*
X86412000Y-48304000D03*
X88612000Y-48304000D03*
D23*
X101609000Y-94494000D03*
X99069000Y-94494000D03*
D24*
X104149000Y-94494000D03*
D23*
X51609000Y-94494000D03*
X49069000Y-94494000D03*
D24*
X54149000Y-94494000D03*
D23*
X101609000Y-44494000D03*
X99069000Y-44494000D03*
D24*
X104149000Y-44494000D03*
D20*
X106054000Y-94555000D03*
X106054000Y-92655000D03*
X56054000Y-94555000D03*
X56054000Y-92655000D03*
X106054000Y-44555000D03*
X106054000Y-42655000D03*
D16*
X100085000Y-89922000D03*
D17*
X102625000Y-89922000D03*
X105165000Y-89922000D03*
D16*
X50085000Y-89922000D03*
D17*
X52625000Y-89922000D03*
X55165000Y-89922000D03*
D16*
X100085000Y-39922000D03*
D17*
X102625000Y-39922000D03*
X105165000Y-39922000D03*
D16*
X100085000Y-87382000D03*
D17*
X102625000Y-87382000D03*
X105165000Y-87382000D03*
D16*
X50085000Y-87382000D03*
D17*
X52625000Y-87382000D03*
X55165000Y-87382000D03*
D16*
X100085000Y-37382000D03*
D17*
X102625000Y-37382000D03*
X105165000Y-37382000D03*
D20*
X107705000Y-89856000D03*
X107705000Y-87956000D03*
X57705000Y-89856000D03*
X57705000Y-87956000D03*
X107705000Y-39856000D03*
X107705000Y-37956000D03*
D15*
X99897000Y-92081000D03*
X101797000Y-92081000D03*
X49897000Y-92081000D03*
X51797000Y-92081000D03*
X99897000Y-42081000D03*
X101797000Y-42081000D03*
D16*
X95005000Y-131705000D03*
X45005000Y-131705000D03*
X95005000Y-81705000D03*
X97545000Y-131705000D03*
X47545000Y-131705000D03*
X97545000Y-81705000D03*
D14*
X97629000Y-122815000D03*
X95429000Y-122815000D03*
X47629000Y-122815000D03*
X45429000Y-122815000D03*
X97629000Y-72815000D03*
X95429000Y-72815000D03*
D15*
X101929000Y-127514000D03*
X103829000Y-127514000D03*
X51929000Y-127514000D03*
X53829000Y-127514000D03*
X101929000Y-77514000D03*
X103829000Y-77514000D03*
D16*
X100085000Y-131705000D03*
X50085000Y-131705000D03*
X100085000Y-81705000D03*
D14*
X97629000Y-120148000D03*
X95429000Y-120148000D03*
X47629000Y-120148000D03*
X45429000Y-120148000D03*
X97629000Y-70148000D03*
X95429000Y-70148000D03*
D25*
X99577000Y-117735000D03*
X99577000Y-119005000D03*
X99577000Y-120275000D03*
X99577000Y-121545000D03*
X99577000Y-122815000D03*
X99577000Y-124085000D03*
X99577000Y-125355000D03*
X105927000Y-125355000D03*
X105927000Y-124085000D03*
X105927000Y-121545000D03*
X105927000Y-120275000D03*
X105927000Y-119005000D03*
X105927000Y-117735000D03*
X105927000Y-122815000D03*
X49577000Y-117735000D03*
X49577000Y-119005000D03*
X49577000Y-120275000D03*
X49577000Y-121545000D03*
X49577000Y-122815000D03*
X49577000Y-124085000D03*
X49577000Y-125355000D03*
X55927000Y-125355000D03*
X55927000Y-124085000D03*
X55927000Y-121545000D03*
X55927000Y-120275000D03*
X55927000Y-119005000D03*
X55927000Y-117735000D03*
X55927000Y-122815000D03*
X99577000Y-67735000D03*
X99577000Y-69005000D03*
X99577000Y-70275000D03*
X99577000Y-71545000D03*
X99577000Y-72815000D03*
X99577000Y-74085000D03*
X99577000Y-75355000D03*
X105927000Y-75355000D03*
X105927000Y-74085000D03*
X105927000Y-71545000D03*
X105927000Y-70275000D03*
X105927000Y-69005000D03*
X105927000Y-67735000D03*
X105927000Y-72815000D03*
D16*
X79765000Y-131705000D03*
X29765000Y-131705000D03*
X79765000Y-81705000D03*
D13*
X83956000Y-126582000D03*
X83956000Y-124382000D03*
X33956000Y-126582000D03*
X33956000Y-124382000D03*
X83956000Y-76582000D03*
X83956000Y-74382000D03*
D14*
X81500000Y-124212000D03*
X79300000Y-124212000D03*
X31500000Y-124212000D03*
X29300000Y-124212000D03*
X81500000Y-74212000D03*
X79300000Y-74212000D03*
X88104000Y-124720000D03*
X85904000Y-124720000D03*
X38104000Y-124720000D03*
X35904000Y-124720000D03*
X88104000Y-74720000D03*
X85904000Y-74720000D03*
D16*
X82305000Y-131705000D03*
X32305000Y-131705000D03*
X82305000Y-81705000D03*
X84845000Y-131705000D03*
X34845000Y-131705000D03*
X84845000Y-81705000D03*
D22*
X79324000Y-121276000D03*
X79324000Y-122576000D03*
X81984000Y-121926000D03*
X29324000Y-121276000D03*
X29324000Y-122576000D03*
X31984000Y-121926000D03*
X79324000Y-71276000D03*
X79324000Y-72576000D03*
X81984000Y-71926000D03*
D16*
X92465000Y-131705000D03*
X42465000Y-131705000D03*
X92465000Y-81705000D03*
D14*
X90390000Y-123196000D03*
X88190000Y-123196000D03*
X40390000Y-123196000D03*
X38190000Y-123196000D03*
X90390000Y-73196000D03*
X88190000Y-73196000D03*
D16*
X87385000Y-131705000D03*
X37385000Y-131705000D03*
X87385000Y-81705000D03*
D22*
X85928000Y-126102000D03*
X85928000Y-127402000D03*
X88588000Y-126752000D03*
X35928000Y-126102000D03*
X35928000Y-127402000D03*
X38588000Y-126752000D03*
X85928000Y-76102000D03*
X85928000Y-77402000D03*
X88588000Y-76752000D03*
D14*
X91914000Y-124720000D03*
X89714000Y-124720000D03*
X41914000Y-124720000D03*
X39714000Y-124720000D03*
X91914000Y-74720000D03*
X89714000Y-74720000D03*
D16*
X89544000Y-119640000D03*
D17*
X89544000Y-117100000D03*
D16*
X39544000Y-119640000D03*
D17*
X39544000Y-117100000D03*
D16*
X89544000Y-69640000D03*
D17*
X89544000Y-67100000D03*
D20*
X91830000Y-117420000D03*
X91830000Y-119320000D03*
X41830000Y-117420000D03*
X41830000Y-119320000D03*
X91830000Y-67420000D03*
X91830000Y-69320000D03*
D21*
X80400000Y-118370000D03*
X80400000Y-115830000D03*
X80400000Y-113290000D03*
X30400000Y-118370000D03*
X30400000Y-115830000D03*
X30400000Y-113290000D03*
X80400000Y-68370000D03*
X80400000Y-65830000D03*
X80400000Y-63290000D03*
D13*
X85734000Y-123280000D03*
X85734000Y-121080000D03*
X35734000Y-123280000D03*
X35734000Y-121080000D03*
X85734000Y-73280000D03*
X85734000Y-71080000D03*
X87258000Y-117524000D03*
X87258000Y-119724000D03*
X37258000Y-117524000D03*
X37258000Y-119724000D03*
X87258000Y-67524000D03*
X87258000Y-69724000D03*
D15*
X83768000Y-119386000D03*
X85668000Y-119386000D03*
X33768000Y-119386000D03*
X35668000Y-119386000D03*
X83768000Y-69386000D03*
X85668000Y-69386000D03*
X84784000Y-116084000D03*
X86684000Y-116084000D03*
X34784000Y-116084000D03*
X36684000Y-116084000D03*
X84784000Y-66084000D03*
X86684000Y-66084000D03*
D20*
X83956000Y-123130000D03*
X83956000Y-121230000D03*
X33956000Y-123130000D03*
X33956000Y-121230000D03*
X83956000Y-73130000D03*
X83956000Y-71230000D03*
D13*
X67992000Y-75058000D03*
X67992000Y-72858000D03*
D25*
X49577000Y-67735000D03*
X49577000Y-69005000D03*
X49577000Y-70275000D03*
X49577000Y-71545000D03*
X49577000Y-72815000D03*
X49577000Y-74085000D03*
X49577000Y-75355000D03*
X55927000Y-75355000D03*
X55927000Y-74085000D03*
X55927000Y-71545000D03*
X55927000Y-70275000D03*
X55927000Y-69005000D03*
X55927000Y-67735000D03*
X55927000Y-72815000D03*
D20*
X41830000Y-67420000D03*
X41830000Y-69320000D03*
X40052000Y-54080000D03*
X40052000Y-52180000D03*
D15*
X60438000Y-54908000D03*
X62338000Y-54908000D03*
X34784000Y-66084000D03*
X36684000Y-66084000D03*
X37324000Y-55416000D03*
X39224000Y-55416000D03*
X51929000Y-77514000D03*
X53829000Y-77514000D03*
X49897000Y-42081000D03*
X51797000Y-42081000D03*
D20*
X57705000Y-39856000D03*
X57705000Y-37956000D03*
D15*
X33768000Y-69386000D03*
X35668000Y-69386000D03*
X36562000Y-50082000D03*
X38462000Y-50082000D03*
D20*
X33956000Y-73130000D03*
X33956000Y-71230000D03*
X34718000Y-46592000D03*
X34718000Y-48492000D03*
X56054000Y-44555000D03*
X56054000Y-42655000D03*
X64482000Y-54052000D03*
X64482000Y-52152000D03*
X65960000Y-67420000D03*
X65960000Y-69320000D03*
X71467000Y-55322000D03*
X71467000Y-53422000D03*
D15*
X68688000Y-66084000D03*
X66788000Y-66084000D03*
X71147000Y-49292000D03*
X69247000Y-49292000D03*
X68688000Y-71164000D03*
X66788000Y-71164000D03*
X69201000Y-47415000D03*
X71101000Y-47415000D03*
X71990000Y-72688000D03*
X70090000Y-72688000D03*
D13*
X37258000Y-67524000D03*
X37258000Y-69724000D03*
X38528000Y-53976000D03*
X38528000Y-51776000D03*
D14*
X31500000Y-74212000D03*
X29300000Y-74212000D03*
D13*
X33702000Y-52030000D03*
X33702000Y-54230000D03*
D14*
X47629000Y-72815000D03*
X45429000Y-72815000D03*
X47629000Y-70148000D03*
X45429000Y-70148000D03*
D10*
G36*
X44119721Y-51865117D02*
X44756117Y-51228721D01*
X45604645Y-52077249D01*
X44968249Y-52713645D01*
X44119721Y-51865117D01*
X44119721Y-51865117D01*
G37*
G36*
X45675355Y-53420751D02*
X46311751Y-52784355D01*
X47160279Y-53632883D01*
X46523883Y-54269279D01*
X45675355Y-53420751D01*
X45675355Y-53420751D01*
G37*
D13*
X33956000Y-76582000D03*
X33956000Y-74382000D03*
X36496000Y-46864000D03*
X36496000Y-44664000D03*
D14*
X38104000Y-74720000D03*
X35904000Y-74720000D03*
D13*
X35734000Y-73280000D03*
X35734000Y-71080000D03*
D14*
X40644000Y-45002000D03*
X38444000Y-45002000D03*
X36412000Y-48304000D03*
X38612000Y-48304000D03*
X41914000Y-74720000D03*
X39714000Y-74720000D03*
D13*
X42846000Y-43902000D03*
X42846000Y-46102000D03*
D14*
X40390000Y-73196000D03*
X38190000Y-73196000D03*
X42930000Y-49574000D03*
X40730000Y-49574000D03*
D13*
X69562000Y-53567000D03*
X69562000Y-51367000D03*
X67484000Y-67397000D03*
X67484000Y-69597000D03*
X75404000Y-48954000D03*
X75404000Y-51154000D03*
X71802000Y-69470000D03*
X71802000Y-67270000D03*
D14*
X57875000Y-70275000D03*
X60075000Y-70275000D03*
X57875000Y-72815000D03*
X60075000Y-72815000D03*
D13*
X67610000Y-48778000D03*
X67610000Y-46578000D03*
D14*
X73410000Y-73958000D03*
X71210000Y-73958000D03*
D13*
X63360000Y-44328000D03*
X63360000Y-46528000D03*
X64610000Y-48578000D03*
X64610000Y-50778000D03*
D14*
X74680000Y-75482000D03*
X72480000Y-75482000D03*
X73460000Y-44178000D03*
X71260000Y-44178000D03*
D13*
X76374000Y-73112000D03*
X76374000Y-75312000D03*
D14*
X69392000Y-44212000D03*
X67192000Y-44212000D03*
X65536000Y-74974000D03*
X63336000Y-74974000D03*
D22*
X29324000Y-71276000D03*
X29324000Y-72576000D03*
X31984000Y-71926000D03*
D12*
X35084000Y-53698000D03*
X36384000Y-53698000D03*
X35734000Y-51038000D03*
D16*
X50085000Y-39922000D03*
D17*
X52625000Y-39922000D03*
X55165000Y-39922000D03*
D16*
X50085000Y-37382000D03*
D17*
X52625000Y-37382000D03*
X55165000Y-37382000D03*
D22*
X66020000Y-73592000D03*
X66020000Y-72292000D03*
X63360000Y-72942000D03*
D12*
X64710000Y-47008000D03*
X66010000Y-47008000D03*
X65360000Y-44348000D03*
X70256000Y-68372000D03*
X68956000Y-68372000D03*
X69606000Y-71032000D03*
X72722000Y-50622000D03*
X74022000Y-50622000D03*
X73372000Y-47962000D03*
D22*
X39738000Y-46892000D03*
X39738000Y-48192000D03*
X42398000Y-47542000D03*
X35928000Y-76102000D03*
X35928000Y-77402000D03*
X38588000Y-76752000D03*
D18*
X71467000Y-56912000D03*
D19*
X63847000Y-64532000D03*
X68927000Y-56912000D03*
X66387000Y-64532000D03*
X66387000Y-56912000D03*
X68927000Y-64532000D03*
X63847000Y-56912000D03*
X71467000Y-64532000D03*
D18*
X34464000Y-64560000D03*
D19*
X42084000Y-56940000D03*
X37004000Y-64560000D03*
X39544000Y-56940000D03*
X39544000Y-64560000D03*
X37004000Y-56940000D03*
X42084000Y-64560000D03*
X34464000Y-56940000D03*
D21*
X75358000Y-64560000D03*
X75358000Y-67100000D03*
X75358000Y-69640000D03*
X75358000Y-54654000D03*
X75358000Y-57194000D03*
X75358000Y-59734000D03*
X30400000Y-58464000D03*
X30400000Y-55924000D03*
X30400000Y-53384000D03*
X30400000Y-68370000D03*
X30400000Y-65830000D03*
X30400000Y-63290000D03*
D16*
X63928000Y-69640000D03*
D17*
X63928000Y-67100000D03*
D16*
X66387000Y-51832000D03*
D17*
X66387000Y-54372000D03*
D16*
X42084000Y-51860000D03*
D17*
X42084000Y-54400000D03*
D16*
X39544000Y-69640000D03*
D17*
X39544000Y-67100000D03*
D16*
X42846000Y-37890000D03*
X40306000Y-37890000D03*
X50085000Y-81705000D03*
X47545000Y-81705000D03*
X37385000Y-81705000D03*
X34845000Y-81705000D03*
X37766000Y-37890000D03*
X35226000Y-37890000D03*
X45005000Y-81705000D03*
X42465000Y-81705000D03*
X32305000Y-81705000D03*
X29765000Y-81705000D03*
D11*
X58340000Y-45357000D03*
X58340000Y-42107000D03*
D18*
X49069000Y-48558000D03*
D19*
X56689000Y-63798000D03*
X49069000Y-51098000D03*
X56689000Y-61258000D03*
X49069000Y-53638000D03*
X56689000Y-58718000D03*
X49069000Y-56178000D03*
X56689000Y-56178000D03*
X49069000Y-58718000D03*
X56689000Y-53638000D03*
X49069000Y-61258000D03*
X56689000Y-51098000D03*
X49069000Y-63798000D03*
X56689000Y-48558000D03*
D23*
X51609000Y-44494000D03*
X49069000Y-44494000D03*
D24*
X54149000Y-44494000D03*
D12*
X60103000Y-77701000D03*
X61403000Y-77701000D03*
X60753000Y-75041000D03*
D13*
X57959000Y-76033000D03*
X57959000Y-78233000D03*
D26*
X125358000Y-122434000D03*
X75358000Y-122434000D03*
X125358000Y-72434000D03*
X101863000Y-116465000D03*
X51863000Y-116465000D03*
X101863000Y-66465000D03*
X111007000Y-106940000D03*
X61007000Y-106940000D03*
X111007000Y-56940000D03*
X120532000Y-109734000D03*
X70532000Y-109734000D03*
X120532000Y-59734000D03*
X125358000Y-94240000D03*
X75358000Y-94240000D03*
X125358000Y-44240000D03*
X87385000Y-93097000D03*
X37385000Y-93097000D03*
X87385000Y-43097000D03*
X37385000Y-43097000D03*
X70532000Y-59734000D03*
X51863000Y-66465000D03*
X61007000Y-56940000D03*
X75358000Y-44240000D03*
X75358000Y-72434000D03*
X85226000Y-127768000D03*
X35226000Y-127768000D03*
X85226000Y-77768000D03*
X112785000Y-127768000D03*
X62785000Y-127768000D03*
X112785000Y-77768000D03*
X91576000Y-111512000D03*
X41576000Y-111512000D03*
X91576000Y-61512000D03*
X108848000Y-102622000D03*
X58848000Y-102622000D03*
X108848000Y-52622000D03*
X97164000Y-98431000D03*
X47164000Y-98431000D03*
X97164000Y-48431000D03*
X62785000Y-77768000D03*
X58848000Y-52622000D03*
X47164000Y-48431000D03*
X41576000Y-61512000D03*
X35226000Y-77768000D03*
X81670000Y-120148000D03*
X31670000Y-120148000D03*
X81670000Y-70148000D03*
X87385000Y-121672000D03*
X37385000Y-121672000D03*
X87385000Y-71672000D03*
X97418000Y-124339000D03*
X47418000Y-124339000D03*
X97418000Y-74339000D03*
X91322000Y-121291000D03*
X41322000Y-121291000D03*
X91322000Y-71291000D03*
X31670000Y-70148000D03*
X47418000Y-74339000D03*
X41322000Y-71291000D03*
X37385000Y-71672000D03*
X96148000Y-116465000D03*
X46148000Y-116465000D03*
X96148000Y-66465000D03*
X84210000Y-100082000D03*
X34210000Y-100082000D03*
X84210000Y-50082000D03*
X34210000Y-50082000D03*
X46148000Y-66465000D03*
X124977000Y-111766000D03*
X74977000Y-111766000D03*
X124977000Y-61766000D03*
X110499000Y-118497000D03*
X60499000Y-118497000D03*
X110499000Y-68497000D03*
X115198000Y-113163000D03*
X65198000Y-113163000D03*
X115198000Y-63163000D03*
X124469000Y-96272000D03*
X74469000Y-96272000D03*
X124469000Y-46272000D03*
X74469000Y-46272000D03*
X74977000Y-61766000D03*
X65198000Y-63163000D03*
X60499000Y-68497000D03*
X119516000Y-123450000D03*
X69516000Y-123450000D03*
X119516000Y-73450000D03*
X107959000Y-124212000D03*
X57959000Y-124212000D03*
X107959000Y-74212000D03*
X57959000Y-74212000D03*
X69516000Y-73450000D03*
X79003000Y-126244000D03*
X29003000Y-126244000D03*
X79003000Y-76244000D03*
X29003000Y-76244000D03*
X82432000Y-100590000D03*
X32432000Y-100590000D03*
X82432000Y-50590000D03*
X32432000Y-50590000D03*
X98561000Y-125990000D03*
X48561000Y-125990000D03*
X98561000Y-75990000D03*
X48561000Y-75990000D03*
X93735000Y-122053000D03*
X43735000Y-122053000D03*
X93735000Y-72053000D03*
X43735000Y-72053000D03*
X92211000Y-89922000D03*
X42211000Y-89922000D03*
X92211000Y-39922000D03*
X42211000Y-39922000D03*
X125358000Y-97796000D03*
X75358000Y-97796000D03*
X125358000Y-47796000D03*
X75358000Y-47796000D03*
X121802000Y-120910000D03*
X71802000Y-120910000D03*
X121802000Y-70910000D03*
X71802000Y-70910000D03*
X102879000Y-122815000D03*
X52879000Y-122815000D03*
X102879000Y-72815000D03*
X52879000Y-72815000D03*
X105546000Y-126879000D03*
X55546000Y-126879000D03*
X105546000Y-76879000D03*
X55546000Y-76879000D03*
X90052000Y-90938000D03*
X40052000Y-90938000D03*
X90052000Y-40938000D03*
X40052000Y-40938000D03*
X110075000Y-121545000D03*
X60075000Y-121545000D03*
X110075000Y-71545000D03*
X95386000Y-121545000D03*
X45386000Y-121545000D03*
X95386000Y-71545000D03*
X60075000Y-71545000D03*
X45386000Y-71545000D03*
X117657000Y-99927000D03*
X67657000Y-99927000D03*
X117657000Y-49927000D03*
X113610000Y-98178000D03*
X63610000Y-98178000D03*
X113610000Y-48178000D03*
X63610000Y-48178000D03*
X67657000Y-49927000D03*
X112150000Y-121672000D03*
X62150000Y-121672000D03*
X112150000Y-71672000D03*
X116214000Y-124974000D03*
X66214000Y-124974000D03*
X116214000Y-74974000D03*
X66214000Y-74974000D03*
X62150000Y-71672000D03*
X104149000Y-117989000D03*
X54149000Y-117989000D03*
X104149000Y-67989000D03*
X54149000Y-67989000D03*
D27*
X101355000Y-116973000D02*
X101355000Y-121037000D01*
X51355000Y-116973000D02*
X51355000Y-121037000D01*
X101355000Y-66973000D02*
X101355000Y-71037000D01*
X101863000Y-116465000D02*
X101355000Y-116973000D01*
X51863000Y-116465000D02*
X51355000Y-116973000D01*
X101863000Y-66465000D02*
X101355000Y-66973000D01*
X101355000Y-127514000D02*
X101355000Y-121037000D01*
X51355000Y-127514000D02*
X51355000Y-121037000D01*
X101355000Y-77514000D02*
X101355000Y-71037000D01*
X126120000Y-122434000D02*
X125358000Y-122434000D01*
X76120000Y-122434000D02*
X75358000Y-122434000D01*
X126120000Y-72434000D02*
X125358000Y-72434000D01*
X126374000Y-122688000D02*
X126120000Y-122434000D01*
X76374000Y-122688000D02*
X76120000Y-122434000D01*
X126374000Y-72688000D02*
X126120000Y-72434000D01*
X126374000Y-123112000D02*
X126374000Y-122688000D01*
X76374000Y-123112000D02*
X76374000Y-122688000D01*
X126374000Y-73112000D02*
X126374000Y-72688000D01*
X125296000Y-94178000D02*
X125358000Y-94240000D01*
X75296000Y-94178000D02*
X75358000Y-94240000D01*
X125296000Y-44178000D02*
X125358000Y-44240000D01*
X123460000Y-94178000D02*
X125296000Y-94178000D01*
X73460000Y-94178000D02*
X75296000Y-94178000D01*
X123460000Y-44178000D02*
X125296000Y-44178000D01*
X111007000Y-106940000D02*
X111007000Y-107067000D01*
X61007000Y-106940000D02*
X61007000Y-107067000D01*
X111007000Y-56940000D02*
X111007000Y-57067000D01*
X111007000Y-107067000D02*
X112785000Y-108845000D01*
X61007000Y-107067000D02*
X62785000Y-108845000D01*
X111007000Y-57067000D02*
X112785000Y-58845000D01*
X110438000Y-106371000D02*
X111007000Y-106940000D01*
X60438000Y-106371000D02*
X61007000Y-106940000D01*
X110438000Y-56371000D02*
X111007000Y-56940000D01*
X110438000Y-104908000D02*
X110438000Y-106371000D01*
X60438000Y-104908000D02*
X60438000Y-106371000D01*
X110438000Y-54908000D02*
X110438000Y-56371000D01*
X112785000Y-108845000D02*
X119643000Y-108845000D01*
X62785000Y-108845000D02*
X69643000Y-108845000D01*
X112785000Y-58845000D02*
X119643000Y-58845000D01*
X119643000Y-108845000D02*
X120532000Y-109734000D01*
X69643000Y-108845000D02*
X70532000Y-109734000D01*
X119643000Y-58845000D02*
X120532000Y-59734000D01*
X91914000Y-124720000D02*
X94243000Y-124720000D01*
X41914000Y-124720000D02*
X44243000Y-124720000D01*
X91914000Y-74720000D02*
X94243000Y-74720000D01*
X87385000Y-93097000D02*
X88020000Y-92462000D01*
X37385000Y-93097000D02*
X38020000Y-92462000D01*
X87385000Y-43097000D02*
X88020000Y-42462000D01*
X88020000Y-92462000D02*
X92719000Y-92462000D01*
X38020000Y-92462000D02*
X42719000Y-92462000D01*
X88020000Y-42462000D02*
X92719000Y-42462000D01*
X92846000Y-93902000D02*
X92846000Y-93859000D01*
X42846000Y-93902000D02*
X42846000Y-93859000D01*
X92846000Y-43902000D02*
X92846000Y-43859000D01*
X92719000Y-92462000D02*
X93354000Y-93097000D01*
X42719000Y-92462000D02*
X43354000Y-93097000D01*
X92719000Y-42462000D02*
X93354000Y-43097000D01*
X93354000Y-93351000D02*
X93354000Y-93097000D01*
X43354000Y-93351000D02*
X43354000Y-93097000D01*
X93354000Y-43351000D02*
X93354000Y-43097000D01*
X92846000Y-93859000D02*
X93354000Y-93351000D01*
X42846000Y-93859000D02*
X43354000Y-93351000D01*
X92846000Y-43859000D02*
X93354000Y-43351000D01*
X99069000Y-92462000D02*
X100085000Y-91446000D01*
X49069000Y-92462000D02*
X50085000Y-91446000D01*
X99069000Y-42462000D02*
X100085000Y-41446000D01*
X99069000Y-94494000D02*
X99069000Y-93351000D01*
X49069000Y-94494000D02*
X49069000Y-93351000D01*
X99069000Y-44494000D02*
X99069000Y-43351000D01*
X99069000Y-93351000D02*
X99069000Y-92462000D01*
X49069000Y-93351000D02*
X49069000Y-92462000D01*
X99069000Y-43351000D02*
X99069000Y-42462000D01*
X99450000Y-92081000D02*
X99069000Y-92462000D01*
X49450000Y-92081000D02*
X49069000Y-92462000D01*
X99450000Y-42081000D02*
X99069000Y-42462000D01*
X100085000Y-87382000D02*
X100085000Y-89922000D01*
X50085000Y-87382000D02*
X50085000Y-89922000D01*
X100085000Y-37382000D02*
X100085000Y-39922000D01*
X100085000Y-91446000D02*
X100085000Y-89922000D01*
X50085000Y-91446000D02*
X50085000Y-89922000D01*
X100085000Y-41446000D02*
X100085000Y-39922000D01*
X99897000Y-92081000D02*
X99450000Y-92081000D01*
X49897000Y-92081000D02*
X49450000Y-92081000D01*
X99897000Y-42081000D02*
X99450000Y-42081000D01*
X97926000Y-128403000D02*
X100466000Y-128403000D01*
X47926000Y-128403000D02*
X50466000Y-128403000D01*
X97926000Y-78403000D02*
X100466000Y-78403000D01*
X94243000Y-124720000D02*
X97926000Y-128403000D01*
X44243000Y-124720000D02*
X47926000Y-128403000D01*
X94243000Y-74720000D02*
X97926000Y-78403000D01*
X100466000Y-128403000D02*
X101355000Y-127514000D01*
X50466000Y-128403000D02*
X51355000Y-127514000D01*
X100466000Y-78403000D02*
X101355000Y-77514000D01*
X101355000Y-121037000D02*
X100847000Y-121545000D01*
X51355000Y-121037000D02*
X50847000Y-121545000D01*
X101355000Y-71037000D02*
X100847000Y-71545000D01*
X100847000Y-121545000D02*
X99577000Y-121545000D01*
X50847000Y-121545000D02*
X49577000Y-121545000D01*
X100847000Y-71545000D02*
X99577000Y-71545000D01*
X93354000Y-93351000D02*
X99069000Y-93351000D01*
X43354000Y-93351000D02*
X49069000Y-93351000D01*
X93354000Y-43351000D02*
X99069000Y-43351000D01*
X42719000Y-42462000D02*
X43354000Y-43097000D01*
X43354000Y-43351000D02*
X43354000Y-43097000D01*
X38020000Y-42462000D02*
X42719000Y-42462000D01*
X37385000Y-43097000D02*
X38020000Y-42462000D01*
X61007000Y-56940000D02*
X61007000Y-57067000D01*
X69643000Y-58845000D02*
X70532000Y-59734000D01*
X62785000Y-58845000D02*
X69643000Y-58845000D01*
X61007000Y-57067000D02*
X62785000Y-58845000D01*
X60438000Y-54908000D02*
X60438000Y-56371000D01*
X60438000Y-56371000D02*
X61007000Y-56940000D01*
X41914000Y-74720000D02*
X44243000Y-74720000D01*
X51355000Y-77514000D02*
X51355000Y-71037000D01*
X50466000Y-78403000D02*
X51355000Y-77514000D01*
X47926000Y-78403000D02*
X50466000Y-78403000D01*
X44243000Y-74720000D02*
X47926000Y-78403000D01*
X50847000Y-71545000D02*
X49577000Y-71545000D01*
X51355000Y-71037000D02*
X50847000Y-71545000D01*
X51355000Y-66973000D02*
X51355000Y-71037000D01*
X51863000Y-66465000D02*
X51355000Y-66973000D01*
X42846000Y-43902000D02*
X42846000Y-43859000D01*
X42846000Y-43859000D02*
X43354000Y-43351000D01*
X43354000Y-43351000D02*
X49069000Y-43351000D01*
X49897000Y-42081000D02*
X49450000Y-42081000D01*
X49450000Y-42081000D02*
X49069000Y-42462000D01*
X49069000Y-44494000D02*
X49069000Y-43351000D01*
X49069000Y-43351000D02*
X49069000Y-42462000D01*
X50085000Y-41446000D02*
X50085000Y-39922000D01*
X49069000Y-42462000D02*
X50085000Y-41446000D01*
X50085000Y-37382000D02*
X50085000Y-39922000D01*
X73460000Y-44178000D02*
X75296000Y-44178000D01*
X75296000Y-44178000D02*
X75358000Y-44240000D01*
X76374000Y-73112000D02*
X76374000Y-72688000D01*
X76374000Y-72688000D02*
X76120000Y-72434000D01*
X76120000Y-72434000D02*
X75358000Y-72434000D01*
D28*
X91830000Y-117420000D02*
X89864000Y-117420000D01*
X41830000Y-117420000D02*
X39864000Y-117420000D01*
X91830000Y-67420000D02*
X89864000Y-67420000D01*
X89864000Y-117420000D02*
X89544000Y-117100000D01*
X39864000Y-117420000D02*
X39544000Y-117100000D01*
X89864000Y-67420000D02*
X89544000Y-67100000D01*
X89544000Y-117100000D02*
X89544000Y-114560000D01*
X39544000Y-117100000D02*
X39544000Y-114560000D01*
X89544000Y-67100000D02*
X89544000Y-64560000D01*
X41830000Y-67420000D02*
X39864000Y-67420000D01*
X39864000Y-67420000D02*
X39544000Y-67100000D01*
X39544000Y-67100000D02*
X39544000Y-64560000D01*
D27*
X114610000Y-100778000D02*
X114610000Y-100948000D01*
X64610000Y-100778000D02*
X64610000Y-100948000D01*
X114610000Y-50778000D02*
X114610000Y-50948000D01*
X114482000Y-100906000D02*
X114610000Y-100778000D01*
X64482000Y-100906000D02*
X64610000Y-100778000D01*
X114482000Y-50906000D02*
X114610000Y-50778000D01*
X114482000Y-101479000D02*
X114482000Y-100906000D01*
X64482000Y-101479000D02*
X64482000Y-100906000D01*
X114482000Y-51479000D02*
X114482000Y-50906000D01*
X116387000Y-100955000D02*
X116010000Y-100578000D01*
X66387000Y-100955000D02*
X66010000Y-100578000D01*
X116387000Y-50955000D02*
X116010000Y-50578000D01*
X116010000Y-100578000D02*
X116010000Y-97008000D01*
X66010000Y-100578000D02*
X66010000Y-97008000D01*
X116010000Y-50578000D02*
X116010000Y-47008000D01*
X119097000Y-101832000D02*
X119562000Y-101367000D01*
X69097000Y-101832000D02*
X69562000Y-101367000D01*
X119097000Y-51832000D02*
X119562000Y-51367000D01*
X116387000Y-101832000D02*
X116387000Y-100955000D01*
X66387000Y-101832000D02*
X66387000Y-100955000D01*
X116387000Y-51832000D02*
X116387000Y-50955000D01*
X116387000Y-101832000D02*
X119097000Y-101832000D01*
X66387000Y-101832000D02*
X69097000Y-101832000D01*
X116387000Y-51832000D02*
X119097000Y-51832000D01*
X116067000Y-102152000D02*
X116387000Y-101832000D01*
X66067000Y-102152000D02*
X66387000Y-101832000D01*
X116067000Y-52152000D02*
X116387000Y-51832000D01*
X116387000Y-101832000D02*
X116387000Y-101205000D01*
X66387000Y-101832000D02*
X66387000Y-101205000D01*
X116387000Y-51832000D02*
X116387000Y-51205000D01*
X110103000Y-127701000D02*
X111403000Y-127701000D01*
X60103000Y-127701000D02*
X61403000Y-127701000D01*
X110103000Y-77701000D02*
X111403000Y-77701000D01*
X111403000Y-127701000D02*
X112718000Y-127701000D01*
X61403000Y-127701000D02*
X62718000Y-127701000D01*
X111403000Y-77701000D02*
X112718000Y-77701000D01*
X112718000Y-127701000D02*
X112785000Y-127768000D01*
X62718000Y-127701000D02*
X62785000Y-127768000D01*
X112718000Y-77701000D02*
X112785000Y-77768000D01*
X117342000Y-122292000D02*
X116020000Y-122292000D01*
X67342000Y-122292000D02*
X66020000Y-122292000D01*
X117342000Y-72292000D02*
X116020000Y-72292000D01*
X117908000Y-122858000D02*
X117342000Y-122292000D01*
X67908000Y-122858000D02*
X67342000Y-122292000D01*
X117908000Y-72858000D02*
X117342000Y-72292000D01*
X117992000Y-122858000D02*
X117908000Y-122858000D01*
X67992000Y-122858000D02*
X67908000Y-122858000D01*
X117992000Y-72858000D02*
X117908000Y-72858000D01*
X116788000Y-121524000D02*
X116020000Y-122292000D01*
X66788000Y-121524000D02*
X66020000Y-122292000D01*
X116788000Y-71524000D02*
X116020000Y-72292000D01*
X116788000Y-121164000D02*
X116788000Y-121524000D01*
X66788000Y-121164000D02*
X66788000Y-121524000D01*
X116788000Y-71164000D02*
X116788000Y-71524000D01*
X113928000Y-119640000D02*
X115640000Y-119640000D01*
X63928000Y-119640000D02*
X65640000Y-119640000D01*
X113928000Y-69640000D02*
X115640000Y-69640000D01*
X116364000Y-119724000D02*
X115960000Y-119320000D01*
X66364000Y-119724000D02*
X65960000Y-119320000D01*
X116364000Y-69724000D02*
X115960000Y-69320000D01*
X116788000Y-121164000D02*
X116788000Y-120148000D01*
X66788000Y-121164000D02*
X66788000Y-120148000D01*
X116788000Y-71164000D02*
X116788000Y-70148000D01*
X116788000Y-120148000D02*
X115960000Y-119320000D01*
X66788000Y-120148000D02*
X65960000Y-119320000D01*
X116788000Y-70148000D02*
X115960000Y-69320000D01*
X115640000Y-119640000D02*
X115960000Y-119320000D01*
X65640000Y-119640000D02*
X65960000Y-119320000D01*
X115640000Y-69640000D02*
X115960000Y-69320000D01*
X117484000Y-119597000D02*
X116364000Y-119724000D01*
X67484000Y-119597000D02*
X66364000Y-119724000D01*
X117484000Y-69597000D02*
X116364000Y-69724000D01*
X119247000Y-99292000D02*
X119247000Y-101052000D01*
X69247000Y-99292000D02*
X69247000Y-101052000D01*
X119247000Y-49292000D02*
X119247000Y-51052000D01*
X119247000Y-101052000D02*
X119562000Y-101367000D01*
X69247000Y-101052000D02*
X69562000Y-101367000D01*
X119247000Y-51052000D02*
X119562000Y-51367000D01*
X114482000Y-102152000D02*
X116067000Y-102152000D01*
X64482000Y-102152000D02*
X66067000Y-102152000D01*
X114482000Y-52152000D02*
X116067000Y-52152000D01*
X114482000Y-101479000D02*
X109991000Y-101479000D01*
X64482000Y-101479000D02*
X59991000Y-101479000D01*
X114482000Y-51479000D02*
X109991000Y-51479000D01*
X108848000Y-102622000D02*
X109991000Y-101479000D01*
X58848000Y-102622000D02*
X59991000Y-101479000D01*
X108848000Y-52622000D02*
X109991000Y-51479000D01*
X114482000Y-102152000D02*
X114482000Y-101479000D01*
X64482000Y-102152000D02*
X64482000Y-101479000D01*
X114482000Y-52152000D02*
X114482000Y-51479000D01*
X85734000Y-119452000D02*
X85668000Y-119386000D01*
X35734000Y-119452000D02*
X35668000Y-119386000D01*
X85734000Y-69452000D02*
X85668000Y-69386000D01*
X85668000Y-119386000D02*
X86920000Y-119386000D01*
X35668000Y-119386000D02*
X36920000Y-119386000D01*
X85668000Y-69386000D02*
X86920000Y-69386000D01*
X86920000Y-119386000D02*
X87258000Y-119724000D01*
X36920000Y-119386000D02*
X37258000Y-119724000D01*
X86920000Y-69386000D02*
X87258000Y-69724000D01*
X85592000Y-127402000D02*
X85226000Y-127768000D01*
X35592000Y-127402000D02*
X35226000Y-127768000D01*
X85592000Y-77402000D02*
X85226000Y-77768000D01*
X85928000Y-127402000D02*
X85592000Y-127402000D01*
X35928000Y-127402000D02*
X35592000Y-127402000D01*
X85928000Y-77402000D02*
X85592000Y-77402000D01*
X87258000Y-119724000D02*
X89460000Y-119724000D01*
X37258000Y-119724000D02*
X39460000Y-119724000D01*
X87258000Y-69724000D02*
X89460000Y-69724000D01*
X89460000Y-119724000D02*
X89544000Y-119640000D01*
X39460000Y-119724000D02*
X39544000Y-119640000D01*
X89460000Y-69724000D02*
X89544000Y-69640000D01*
X89544000Y-119640000D02*
X91510000Y-119640000D01*
X39544000Y-119640000D02*
X41510000Y-119640000D01*
X89544000Y-69640000D02*
X91510000Y-69640000D01*
X85734000Y-121080000D02*
X85734000Y-119452000D01*
X35734000Y-121080000D02*
X35734000Y-119452000D01*
X85734000Y-71080000D02*
X85734000Y-69452000D01*
X91576000Y-111512000D02*
X94497000Y-108591000D01*
X41576000Y-111512000D02*
X44497000Y-108591000D01*
X91576000Y-61512000D02*
X94497000Y-58591000D01*
X91510000Y-119640000D02*
X91830000Y-119320000D01*
X41510000Y-119640000D02*
X41830000Y-119320000D01*
X91510000Y-69640000D02*
X91830000Y-69320000D01*
X89864000Y-102180000D02*
X89460000Y-101776000D01*
X39864000Y-102180000D02*
X39460000Y-101776000D01*
X89864000Y-52180000D02*
X89460000Y-51776000D01*
X89460000Y-101776000D02*
X88528000Y-101776000D01*
X39460000Y-101776000D02*
X38528000Y-101776000D01*
X89460000Y-51776000D02*
X88528000Y-51776000D01*
X90052000Y-102180000D02*
X89864000Y-102180000D01*
X40052000Y-102180000D02*
X39864000Y-102180000D01*
X90052000Y-52180000D02*
X89864000Y-52180000D01*
X88462000Y-101710000D02*
X88528000Y-101776000D01*
X38462000Y-101710000D02*
X38528000Y-101776000D01*
X88462000Y-51710000D02*
X88528000Y-51776000D01*
X90052000Y-102180000D02*
X91764000Y-102180000D01*
X40052000Y-102180000D02*
X41764000Y-102180000D01*
X90052000Y-52180000D02*
X91764000Y-52180000D01*
X94497000Y-108591000D02*
X94497000Y-102876000D01*
X44497000Y-108591000D02*
X44497000Y-102876000D01*
X94497000Y-58591000D02*
X94497000Y-52876000D01*
X88612000Y-98304000D02*
X89626000Y-98304000D01*
X38612000Y-98304000D02*
X39626000Y-98304000D01*
X88612000Y-48304000D02*
X89626000Y-48304000D01*
X88462000Y-98454000D02*
X88612000Y-98304000D01*
X38462000Y-98454000D02*
X38612000Y-98304000D01*
X88462000Y-48454000D02*
X88612000Y-48304000D01*
X88462000Y-100082000D02*
X88462000Y-98454000D01*
X38462000Y-100082000D02*
X38462000Y-98454000D01*
X88462000Y-50082000D02*
X88462000Y-48454000D01*
X89626000Y-98304000D02*
X89738000Y-98192000D01*
X39626000Y-98304000D02*
X39738000Y-98192000D01*
X89626000Y-48304000D02*
X89738000Y-48192000D01*
X91764000Y-102180000D02*
X92084000Y-101860000D01*
X41764000Y-102180000D02*
X42084000Y-101860000D01*
X91764000Y-52180000D02*
X92084000Y-51860000D01*
X93481000Y-101860000D02*
X93354000Y-101860000D01*
X43481000Y-101860000D02*
X43354000Y-101860000D01*
X93481000Y-51860000D02*
X93354000Y-51860000D01*
X88462000Y-100082000D02*
X88462000Y-101710000D01*
X38462000Y-100082000D02*
X38462000Y-101710000D01*
X88462000Y-50082000D02*
X88462000Y-51710000D01*
X92084000Y-101860000D02*
X93354000Y-101860000D01*
X42084000Y-101860000D02*
X43354000Y-101860000D01*
X92084000Y-51860000D02*
X93354000Y-51860000D01*
X94497000Y-102876000D02*
X93481000Y-101860000D01*
X44497000Y-102876000D02*
X43481000Y-101860000D01*
X94497000Y-52876000D02*
X93481000Y-51860000D01*
X93354000Y-101860000D02*
X94751000Y-101860000D01*
X43354000Y-101860000D02*
X44751000Y-101860000D01*
X93354000Y-51860000D02*
X94751000Y-51860000D01*
X94862183Y-101875817D02*
X94862183Y-101971183D01*
X44862183Y-101875817D02*
X44862183Y-101971183D01*
X94862183Y-51875817D02*
X94862183Y-51971183D01*
X95020817Y-101971183D02*
X94862183Y-101971183D01*
X45020817Y-101971183D02*
X44862183Y-101971183D01*
X95020817Y-51971183D02*
X94862183Y-51971183D01*
X97164000Y-98431000D02*
X97164000Y-99574000D01*
X47164000Y-98431000D02*
X47164000Y-99574000D01*
X97164000Y-48431000D02*
X97164000Y-49574000D01*
X97164000Y-99574000D02*
X94862183Y-101875817D01*
X47164000Y-99574000D02*
X44862183Y-101875817D01*
X97164000Y-49574000D02*
X94862183Y-51875817D01*
X94751000Y-101860000D02*
X94862183Y-101971183D01*
X44751000Y-101860000D02*
X44862183Y-101971183D01*
X94751000Y-51860000D02*
X94862183Y-51971183D01*
X61403000Y-77701000D02*
X62718000Y-77701000D01*
X62718000Y-77701000D02*
X62785000Y-77768000D01*
X60103000Y-77701000D02*
X61403000Y-77701000D01*
X58848000Y-52622000D02*
X59991000Y-51479000D01*
X64482000Y-51479000D02*
X59991000Y-51479000D01*
X47164000Y-49574000D02*
X44862183Y-51875817D01*
X47164000Y-48431000D02*
X47164000Y-49574000D01*
X44862183Y-51875817D02*
X44862183Y-51971183D01*
X45020817Y-51971183D02*
X44862183Y-51971183D01*
X43481000Y-51860000D02*
X43354000Y-51860000D01*
X44497000Y-52876000D02*
X43481000Y-51860000D01*
X44497000Y-58591000D02*
X44497000Y-52876000D01*
X41576000Y-61512000D02*
X44497000Y-58591000D01*
X42084000Y-51860000D02*
X43354000Y-51860000D01*
X43354000Y-51860000D02*
X44751000Y-51860000D01*
X44751000Y-51860000D02*
X44862183Y-51971183D01*
X39544000Y-69640000D02*
X41510000Y-69640000D01*
X41510000Y-69640000D02*
X41830000Y-69320000D01*
X37258000Y-69724000D02*
X39460000Y-69724000D01*
X39460000Y-69724000D02*
X39544000Y-69640000D01*
X35734000Y-71080000D02*
X35734000Y-69452000D01*
X35734000Y-69452000D02*
X35668000Y-69386000D01*
X35668000Y-69386000D02*
X36920000Y-69386000D01*
X36920000Y-69386000D02*
X37258000Y-69724000D01*
X35928000Y-77402000D02*
X35592000Y-77402000D01*
X35592000Y-77402000D02*
X35226000Y-77768000D01*
X38462000Y-50082000D02*
X38462000Y-48454000D01*
X38462000Y-48454000D02*
X38612000Y-48304000D01*
X38612000Y-48304000D02*
X39626000Y-48304000D01*
X39626000Y-48304000D02*
X39738000Y-48192000D01*
X38462000Y-50082000D02*
X38462000Y-51710000D01*
X38462000Y-51710000D02*
X38528000Y-51776000D01*
X40052000Y-52180000D02*
X39864000Y-52180000D01*
X39864000Y-52180000D02*
X39460000Y-51776000D01*
X39460000Y-51776000D02*
X38528000Y-51776000D01*
X40052000Y-52180000D02*
X41764000Y-52180000D01*
X41764000Y-52180000D02*
X42084000Y-51860000D01*
X63928000Y-69640000D02*
X65640000Y-69640000D01*
X65640000Y-69640000D02*
X65960000Y-69320000D01*
X66788000Y-71164000D02*
X66788000Y-71524000D01*
X66788000Y-71524000D02*
X66020000Y-72292000D01*
X67992000Y-72858000D02*
X67908000Y-72858000D01*
X67908000Y-72858000D02*
X67342000Y-72292000D01*
X67342000Y-72292000D02*
X66020000Y-72292000D01*
X66788000Y-71164000D02*
X66788000Y-70148000D01*
X66788000Y-70148000D02*
X65960000Y-69320000D01*
X67484000Y-69597000D02*
X66364000Y-69724000D01*
X66364000Y-69724000D02*
X65960000Y-69320000D01*
X64482000Y-52152000D02*
X64482000Y-51479000D01*
X64482000Y-51479000D02*
X64482000Y-50906000D01*
X64482000Y-50906000D02*
X64610000Y-50778000D01*
X66387000Y-51832000D02*
X66387000Y-50955000D01*
X66010000Y-50578000D02*
X66010000Y-47008000D01*
X66387000Y-50955000D02*
X66010000Y-50578000D01*
X66387000Y-51832000D02*
X66387000Y-51205000D01*
X69247000Y-51052000D02*
X69562000Y-51367000D01*
X64610000Y-50778000D02*
X64610000Y-50948000D01*
X64482000Y-52152000D02*
X66067000Y-52152000D01*
X66067000Y-52152000D02*
X66387000Y-51832000D01*
X66387000Y-51832000D02*
X69097000Y-51832000D01*
X69097000Y-51832000D02*
X69562000Y-51367000D01*
X69247000Y-49292000D02*
X69247000Y-51052000D01*
D28*
X91764000Y-104080000D02*
X92084000Y-104400000D01*
X41764000Y-104080000D02*
X42084000Y-104400000D01*
X91764000Y-54080000D02*
X92084000Y-54400000D01*
X90052000Y-104080000D02*
X91764000Y-104080000D01*
X40052000Y-104080000D02*
X41764000Y-104080000D01*
X90052000Y-54080000D02*
X91764000Y-54080000D01*
X92084000Y-104400000D02*
X92084000Y-106940000D01*
X42084000Y-104400000D02*
X42084000Y-106940000D01*
X92084000Y-54400000D02*
X92084000Y-56940000D01*
X42084000Y-54400000D02*
X42084000Y-56940000D01*
X40052000Y-54080000D02*
X41764000Y-54080000D01*
X41764000Y-54080000D02*
X42084000Y-54400000D01*
X79324000Y-121276000D02*
X79324000Y-122576000D01*
X29324000Y-121276000D02*
X29324000Y-122576000D01*
X79324000Y-71276000D02*
X79324000Y-72576000D01*
X79300000Y-124212000D02*
X79300000Y-122600000D01*
X29300000Y-124212000D02*
X29300000Y-122600000D01*
X79300000Y-74212000D02*
X79300000Y-72600000D01*
X79300000Y-122600000D02*
X79324000Y-122576000D01*
X29300000Y-122600000D02*
X29324000Y-122576000D01*
X79300000Y-72600000D02*
X79324000Y-72576000D01*
X80400000Y-115830000D02*
X81670000Y-114560000D01*
X30400000Y-115830000D02*
X31670000Y-114560000D01*
X80400000Y-65830000D02*
X81670000Y-64560000D01*
X84464000Y-114560000D02*
X81670000Y-114560000D01*
X34464000Y-114560000D02*
X31670000Y-114560000D01*
X84464000Y-64560000D02*
X81670000Y-64560000D01*
X84784000Y-116084000D02*
X80654000Y-116084000D01*
X34784000Y-116084000D02*
X30654000Y-116084000D01*
X84784000Y-66084000D02*
X80654000Y-66084000D01*
X81670000Y-114560000D02*
X80400000Y-113290000D01*
X31670000Y-114560000D02*
X30400000Y-113290000D01*
X81670000Y-64560000D02*
X80400000Y-63290000D01*
X80654000Y-116084000D02*
X80400000Y-115830000D01*
X30654000Y-116084000D02*
X30400000Y-115830000D01*
X80654000Y-66084000D02*
X80400000Y-65830000D01*
X79324000Y-120342000D02*
X78876000Y-119894000D01*
X29324000Y-120342000D02*
X28876000Y-119894000D01*
X79324000Y-70342000D02*
X78876000Y-69894000D01*
X78876000Y-119894000D02*
X78876000Y-117354000D01*
X28876000Y-119894000D02*
X28876000Y-117354000D01*
X78876000Y-69894000D02*
X78876000Y-67354000D01*
X78876000Y-117354000D02*
X80400000Y-115830000D01*
X28876000Y-117354000D02*
X30400000Y-115830000D01*
X78876000Y-67354000D02*
X80400000Y-65830000D01*
X79324000Y-121276000D02*
X79324000Y-120342000D01*
X29324000Y-121276000D02*
X29324000Y-120342000D01*
X79324000Y-71276000D02*
X79324000Y-70342000D01*
X34784000Y-66084000D02*
X30654000Y-66084000D01*
X30654000Y-66084000D02*
X30400000Y-65830000D01*
X29324000Y-71276000D02*
X29324000Y-70342000D01*
X28876000Y-67354000D02*
X30400000Y-65830000D01*
X28876000Y-69894000D02*
X28876000Y-67354000D01*
X29324000Y-70342000D02*
X28876000Y-69894000D01*
X29324000Y-71276000D02*
X29324000Y-72576000D01*
X29300000Y-74212000D02*
X29300000Y-72600000D01*
X29300000Y-72600000D02*
X29324000Y-72576000D01*
X30400000Y-65830000D02*
X31670000Y-64560000D01*
X34464000Y-64560000D02*
X31670000Y-64560000D01*
X31670000Y-64560000D02*
X30400000Y-63290000D01*
X87004000Y-115764000D02*
X86684000Y-116084000D01*
X37004000Y-115764000D02*
X36684000Y-116084000D01*
X87004000Y-65764000D02*
X86684000Y-66084000D01*
X86684000Y-116950000D02*
X87258000Y-117524000D01*
X36684000Y-116950000D02*
X37258000Y-117524000D01*
X86684000Y-66950000D02*
X87258000Y-67524000D01*
X86684000Y-116084000D02*
X86684000Y-116950000D01*
X36684000Y-116084000D02*
X36684000Y-116950000D01*
X86684000Y-66084000D02*
X86684000Y-66950000D01*
X87004000Y-114560000D02*
X87004000Y-115764000D01*
X37004000Y-114560000D02*
X37004000Y-115764000D01*
X87004000Y-64560000D02*
X87004000Y-65764000D01*
X82262000Y-117524000D02*
X87258000Y-117524000D01*
X32262000Y-117524000D02*
X37258000Y-117524000D01*
X82262000Y-67524000D02*
X87258000Y-67524000D01*
X81416000Y-118370000D02*
X82262000Y-117524000D01*
X31416000Y-118370000D02*
X32262000Y-117524000D01*
X81416000Y-68370000D02*
X82262000Y-67524000D01*
X80400000Y-118370000D02*
X81416000Y-118370000D01*
X30400000Y-118370000D02*
X31416000Y-118370000D01*
X80400000Y-68370000D02*
X81416000Y-68370000D01*
X30400000Y-68370000D02*
X31416000Y-68370000D01*
X32262000Y-67524000D02*
X37258000Y-67524000D01*
X31416000Y-68370000D02*
X32262000Y-67524000D01*
X36684000Y-66084000D02*
X36684000Y-66950000D01*
X36684000Y-66950000D02*
X37258000Y-67524000D01*
X37004000Y-64560000D02*
X37004000Y-65764000D01*
X37004000Y-65764000D02*
X36684000Y-66084000D01*
X87324000Y-104638000D02*
X86384000Y-103698000D01*
X37324000Y-104638000D02*
X36384000Y-103698000D01*
X87324000Y-54638000D02*
X86384000Y-53698000D01*
X87324000Y-105416000D02*
X87324000Y-104638000D01*
X37324000Y-105416000D02*
X37324000Y-104638000D01*
X87324000Y-55416000D02*
X87324000Y-54638000D01*
X86384000Y-103698000D02*
X85084000Y-103698000D01*
X36384000Y-103698000D02*
X35084000Y-103698000D01*
X86384000Y-53698000D02*
X85084000Y-53698000D01*
X87004000Y-106940000D02*
X87004000Y-105736000D01*
X37004000Y-106940000D02*
X37004000Y-105736000D01*
X87004000Y-56940000D02*
X87004000Y-55736000D01*
X87004000Y-105736000D02*
X87324000Y-105416000D01*
X37004000Y-105736000D02*
X37324000Y-105416000D01*
X87004000Y-55736000D02*
X87324000Y-55416000D01*
X83702000Y-104230000D02*
X84552000Y-104230000D01*
X33702000Y-104230000D02*
X34552000Y-104230000D01*
X83702000Y-54230000D02*
X84552000Y-54230000D01*
X84552000Y-104230000D02*
X85084000Y-103698000D01*
X34552000Y-104230000D02*
X35084000Y-103698000D01*
X84552000Y-54230000D02*
X85084000Y-53698000D01*
X80400000Y-105924000D02*
X82008000Y-105924000D01*
X30400000Y-105924000D02*
X32008000Y-105924000D01*
X80400000Y-55924000D02*
X82008000Y-55924000D01*
X80400000Y-105924000D02*
X80400000Y-103384000D01*
X30400000Y-105924000D02*
X30400000Y-103384000D01*
X80400000Y-55924000D02*
X80400000Y-53384000D01*
X82008000Y-105924000D02*
X83702000Y-104230000D01*
X32008000Y-105924000D02*
X33702000Y-104230000D01*
X82008000Y-55924000D02*
X83702000Y-54230000D01*
X37324000Y-55416000D02*
X37324000Y-54638000D01*
X37324000Y-54638000D02*
X36384000Y-53698000D01*
X36384000Y-53698000D02*
X35084000Y-53698000D01*
X33702000Y-54230000D02*
X34552000Y-54230000D01*
X34552000Y-54230000D02*
X35084000Y-53698000D01*
X30400000Y-55924000D02*
X32008000Y-55924000D01*
X32008000Y-55924000D02*
X33702000Y-54230000D01*
X30400000Y-55924000D02*
X30400000Y-53384000D01*
X37004000Y-56940000D02*
X37004000Y-55736000D01*
X37004000Y-55736000D02*
X37324000Y-55416000D01*
X89544000Y-105736000D02*
X89224000Y-105416000D01*
X39544000Y-105736000D02*
X39224000Y-105416000D01*
X89544000Y-55736000D02*
X89224000Y-55416000D01*
X88274000Y-108972000D02*
X89544000Y-107702000D01*
X38274000Y-108972000D02*
X39544000Y-107702000D01*
X88274000Y-58972000D02*
X89544000Y-57702000D01*
X89544000Y-107702000D02*
X89544000Y-106940000D01*
X39544000Y-107702000D02*
X39544000Y-106940000D01*
X89544000Y-57702000D02*
X89544000Y-56940000D01*
X89544000Y-106940000D02*
X89544000Y-105736000D01*
X39544000Y-106940000D02*
X39544000Y-105736000D01*
X89544000Y-56940000D02*
X89544000Y-55736000D01*
X89224000Y-105416000D02*
X89224000Y-105096000D01*
X39224000Y-105416000D02*
X39224000Y-105096000D01*
X89224000Y-55416000D02*
X89224000Y-55096000D01*
X88528000Y-104400000D02*
X88528000Y-103976000D01*
X38528000Y-104400000D02*
X38528000Y-103976000D01*
X88528000Y-54400000D02*
X88528000Y-53976000D01*
X89224000Y-105096000D02*
X88528000Y-104400000D01*
X39224000Y-105096000D02*
X38528000Y-104400000D01*
X89224000Y-55096000D02*
X88528000Y-54400000D01*
X81416000Y-108464000D02*
X81924000Y-108972000D01*
X31416000Y-108464000D02*
X31924000Y-108972000D01*
X81416000Y-58464000D02*
X81924000Y-58972000D01*
X80400000Y-108464000D02*
X81416000Y-108464000D01*
X30400000Y-108464000D02*
X31416000Y-108464000D01*
X80400000Y-58464000D02*
X81416000Y-58464000D01*
X81924000Y-108972000D02*
X88274000Y-108972000D01*
X31924000Y-108972000D02*
X38274000Y-108972000D01*
X81924000Y-58972000D02*
X88274000Y-58972000D01*
X39224000Y-55416000D02*
X39224000Y-55096000D01*
X39224000Y-55096000D02*
X38528000Y-54400000D01*
X38528000Y-54400000D02*
X38528000Y-53976000D01*
X30400000Y-58464000D02*
X31416000Y-58464000D01*
X38274000Y-58972000D02*
X39544000Y-57702000D01*
X31924000Y-58972000D02*
X38274000Y-58972000D01*
X31416000Y-58464000D02*
X31924000Y-58972000D01*
X39544000Y-57702000D02*
X39544000Y-56940000D01*
X39544000Y-56940000D02*
X39544000Y-55736000D01*
X39544000Y-55736000D02*
X39224000Y-55416000D01*
D27*
X101355000Y-103638000D02*
X102498000Y-104781000D01*
X51355000Y-103638000D02*
X52498000Y-104781000D01*
X101355000Y-53638000D02*
X102498000Y-54781000D01*
X102498000Y-97796000D02*
X102498000Y-104781000D01*
X52498000Y-97796000D02*
X52498000Y-104781000D01*
X102498000Y-47796000D02*
X102498000Y-54781000D01*
X101609000Y-96907000D02*
X102498000Y-97796000D01*
X51609000Y-96907000D02*
X52498000Y-97796000D01*
X101609000Y-46907000D02*
X102498000Y-47796000D01*
X101609000Y-94494000D02*
X101609000Y-96907000D01*
X51609000Y-94494000D02*
X51609000Y-96907000D01*
X101609000Y-44494000D02*
X101609000Y-46907000D01*
X103895000Y-106178000D02*
X106689000Y-106178000D01*
X53895000Y-106178000D02*
X56689000Y-106178000D01*
X103895000Y-56178000D02*
X106689000Y-56178000D01*
X102498000Y-111512000D02*
X102498000Y-104781000D01*
X52498000Y-111512000D02*
X52498000Y-104781000D01*
X102498000Y-61512000D02*
X102498000Y-54781000D01*
X102498000Y-104781000D02*
X103895000Y-106178000D01*
X52498000Y-104781000D02*
X53895000Y-106178000D01*
X102498000Y-54781000D02*
X103895000Y-56178000D01*
X102625000Y-89922000D02*
X102625000Y-91319000D01*
X52625000Y-89922000D02*
X52625000Y-91319000D01*
X102625000Y-39922000D02*
X102625000Y-41319000D01*
X102752000Y-91446000D02*
X102625000Y-91319000D01*
X52752000Y-91446000D02*
X52625000Y-91319000D01*
X102752000Y-41446000D02*
X102625000Y-41319000D01*
X105572000Y-92107000D02*
X103413000Y-92107000D01*
X55572000Y-92107000D02*
X53413000Y-92107000D01*
X105572000Y-42107000D02*
X103413000Y-42107000D01*
X101609000Y-92589000D02*
X101609000Y-94494000D01*
X51609000Y-92589000D02*
X51609000Y-94494000D01*
X101609000Y-42589000D02*
X101609000Y-44494000D01*
X108340000Y-92107000D02*
X105572000Y-92107000D01*
X58340000Y-92107000D02*
X55572000Y-92107000D01*
X108340000Y-42107000D02*
X105572000Y-42107000D01*
X106054000Y-92655000D02*
X106054000Y-92589000D01*
X56054000Y-92655000D02*
X56054000Y-92589000D01*
X106054000Y-42655000D02*
X106054000Y-42589000D01*
X107705000Y-91472000D02*
X108340000Y-92107000D01*
X57705000Y-91472000D02*
X58340000Y-92107000D01*
X107705000Y-41472000D02*
X108340000Y-42107000D01*
X107705000Y-89856000D02*
X107705000Y-91472000D01*
X57705000Y-89856000D02*
X57705000Y-91472000D01*
X107705000Y-39856000D02*
X107705000Y-41472000D01*
X106054000Y-92589000D02*
X105572000Y-92107000D01*
X56054000Y-92589000D02*
X55572000Y-92107000D01*
X106054000Y-42589000D02*
X105572000Y-42107000D01*
X102625000Y-91573000D02*
X101609000Y-92589000D01*
X52625000Y-91573000D02*
X51609000Y-92589000D01*
X102625000Y-41573000D02*
X101609000Y-42589000D01*
X102625000Y-91319000D02*
X102625000Y-91573000D01*
X52625000Y-91319000D02*
X52625000Y-91573000D01*
X102625000Y-41319000D02*
X102625000Y-41573000D01*
X103413000Y-92107000D02*
X102752000Y-91446000D01*
X53413000Y-92107000D02*
X52752000Y-91446000D01*
X103413000Y-42107000D02*
X102752000Y-41446000D01*
X102117000Y-92081000D02*
X102752000Y-91446000D01*
X52117000Y-92081000D02*
X52752000Y-91446000D01*
X102117000Y-42081000D02*
X102752000Y-41446000D01*
X101797000Y-92081000D02*
X102117000Y-92081000D01*
X51797000Y-92081000D02*
X52117000Y-92081000D01*
X101797000Y-42081000D02*
X102117000Y-42081000D01*
X102625000Y-87382000D02*
X102625000Y-89922000D01*
X52625000Y-87382000D02*
X52625000Y-89922000D01*
X102625000Y-37382000D02*
X102625000Y-39922000D01*
X100212000Y-113798000D02*
X102498000Y-111512000D01*
X50212000Y-113798000D02*
X52498000Y-111512000D01*
X100212000Y-63798000D02*
X102498000Y-61512000D01*
X99069000Y-113798000D02*
X100212000Y-113798000D01*
X49069000Y-113798000D02*
X50212000Y-113798000D01*
X99069000Y-63798000D02*
X100212000Y-63798000D01*
X96529000Y-103638000D02*
X96417817Y-103526817D01*
X46529000Y-103638000D02*
X46417817Y-103526817D01*
X96529000Y-53638000D02*
X96417817Y-53526817D01*
X99069000Y-103638000D02*
X101355000Y-103638000D01*
X49069000Y-103638000D02*
X51355000Y-103638000D01*
X99069000Y-53638000D02*
X101355000Y-53638000D01*
X99069000Y-103638000D02*
X96529000Y-103638000D01*
X49069000Y-103638000D02*
X46529000Y-103638000D01*
X99069000Y-53638000D02*
X96529000Y-53638000D01*
X49069000Y-63798000D02*
X50212000Y-63798000D01*
X52498000Y-61512000D02*
X52498000Y-54781000D01*
X50212000Y-63798000D02*
X52498000Y-61512000D01*
X49069000Y-53638000D02*
X46529000Y-53638000D01*
X46529000Y-53638000D02*
X46417817Y-53526817D01*
X51797000Y-42081000D02*
X52117000Y-42081000D01*
X52117000Y-42081000D02*
X52752000Y-41446000D01*
X57705000Y-39856000D02*
X57705000Y-41472000D01*
X57705000Y-41472000D02*
X58340000Y-42107000D01*
X56054000Y-42655000D02*
X56054000Y-42589000D01*
X56054000Y-42589000D02*
X55572000Y-42107000D01*
X58340000Y-42107000D02*
X55572000Y-42107000D01*
X55572000Y-42107000D02*
X53413000Y-42107000D01*
X53413000Y-42107000D02*
X52752000Y-41446000D01*
X52752000Y-41446000D02*
X52625000Y-41319000D01*
X51609000Y-44494000D02*
X51609000Y-46907000D01*
X52498000Y-47796000D02*
X52498000Y-54781000D01*
X51609000Y-46907000D02*
X52498000Y-47796000D01*
X52625000Y-39922000D02*
X52625000Y-41319000D01*
X52625000Y-41319000D02*
X52625000Y-41573000D01*
X51609000Y-42589000D02*
X51609000Y-44494000D01*
X52625000Y-41573000D02*
X51609000Y-42589000D01*
X49069000Y-53638000D02*
X51355000Y-53638000D01*
X51355000Y-53638000D02*
X52498000Y-54781000D01*
X53895000Y-56178000D02*
X56689000Y-56178000D01*
X52498000Y-54781000D02*
X53895000Y-56178000D01*
X52625000Y-37382000D02*
X52625000Y-39922000D01*
D28*
X83956000Y-121230000D02*
X83956000Y-120656000D01*
X33956000Y-121230000D02*
X33956000Y-120656000D01*
X83956000Y-71230000D02*
X83956000Y-70656000D01*
X87385000Y-121672000D02*
X87512000Y-121799000D01*
X37385000Y-121672000D02*
X37512000Y-121799000D01*
X87385000Y-71672000D02*
X87512000Y-71799000D01*
X87512000Y-121799000D02*
X90814000Y-121799000D01*
X37512000Y-121799000D02*
X40814000Y-121799000D01*
X87512000Y-71799000D02*
X90814000Y-71799000D01*
X90814000Y-121799000D02*
X91322000Y-121291000D01*
X40814000Y-121799000D02*
X41322000Y-121291000D01*
X90814000Y-71799000D02*
X91322000Y-71291000D01*
X82178000Y-121926000D02*
X82874000Y-121230000D01*
X32178000Y-121926000D02*
X32874000Y-121230000D01*
X82178000Y-71926000D02*
X82874000Y-71230000D01*
X82874000Y-121230000D02*
X83956000Y-121230000D01*
X32874000Y-121230000D02*
X33956000Y-121230000D01*
X82874000Y-71230000D02*
X83956000Y-71230000D01*
X81984000Y-121926000D02*
X82178000Y-121926000D01*
X31984000Y-121926000D02*
X32178000Y-121926000D01*
X81984000Y-71926000D02*
X82178000Y-71926000D01*
X81984000Y-121926000D02*
X81984000Y-120462000D01*
X31984000Y-121926000D02*
X31984000Y-120462000D01*
X81984000Y-71926000D02*
X81984000Y-70462000D01*
X83956000Y-120656000D02*
X83768000Y-120468000D01*
X33956000Y-120656000D02*
X33768000Y-120468000D01*
X83956000Y-70656000D02*
X83768000Y-70468000D01*
X83768000Y-120468000D02*
X83768000Y-119386000D01*
X33768000Y-120468000D02*
X33768000Y-119386000D01*
X83768000Y-70468000D02*
X83768000Y-69386000D01*
X81984000Y-120462000D02*
X81670000Y-120148000D01*
X31984000Y-120462000D02*
X31670000Y-120148000D01*
X81984000Y-70462000D02*
X81670000Y-70148000D01*
X97629000Y-122815000D02*
X99577000Y-122815000D01*
X47629000Y-122815000D02*
X49577000Y-122815000D01*
X97629000Y-72815000D02*
X99577000Y-72815000D01*
X97629000Y-124128000D02*
X97629000Y-122815000D01*
X47629000Y-124128000D02*
X47629000Y-122815000D01*
X97629000Y-74128000D02*
X97629000Y-72815000D01*
X97418000Y-124339000D02*
X97629000Y-124128000D01*
X47418000Y-124339000D02*
X47629000Y-124128000D01*
X97418000Y-74339000D02*
X97629000Y-74128000D01*
X31984000Y-70462000D02*
X31670000Y-70148000D01*
X31984000Y-71926000D02*
X31984000Y-70462000D01*
X47629000Y-74128000D02*
X47629000Y-72815000D01*
X47418000Y-74339000D02*
X47629000Y-74128000D01*
X40814000Y-71799000D02*
X41322000Y-71291000D01*
X37512000Y-71799000D02*
X40814000Y-71799000D01*
X37385000Y-71672000D02*
X37512000Y-71799000D01*
X47629000Y-72815000D02*
X49577000Y-72815000D01*
X31984000Y-71926000D02*
X32178000Y-71926000D01*
X32178000Y-71926000D02*
X32874000Y-71230000D01*
X32874000Y-71230000D02*
X33956000Y-71230000D01*
X33956000Y-71230000D02*
X33956000Y-70656000D01*
X33956000Y-70656000D02*
X33768000Y-70468000D01*
X33768000Y-70468000D02*
X33768000Y-69386000D01*
X96148000Y-116465000D02*
X97629000Y-117946000D01*
X46148000Y-116465000D02*
X47629000Y-117946000D01*
X96148000Y-66465000D02*
X97629000Y-67946000D01*
X99450000Y-120148000D02*
X99577000Y-120275000D01*
X49450000Y-120148000D02*
X49577000Y-120275000D01*
X99450000Y-70148000D02*
X99577000Y-70275000D01*
X97629000Y-120148000D02*
X99450000Y-120148000D01*
X47629000Y-120148000D02*
X49450000Y-120148000D01*
X97629000Y-70148000D02*
X99450000Y-70148000D01*
X97629000Y-117946000D02*
X97629000Y-120148000D01*
X47629000Y-117946000D02*
X47629000Y-120148000D01*
X97629000Y-67946000D02*
X97629000Y-70148000D01*
X84718000Y-98812000D02*
X84210000Y-99320000D01*
X34718000Y-98812000D02*
X34210000Y-99320000D01*
X84718000Y-48812000D02*
X84210000Y-49320000D01*
X84718000Y-98492000D02*
X84718000Y-98812000D01*
X34718000Y-98492000D02*
X34718000Y-98812000D01*
X84718000Y-48492000D02*
X84718000Y-48812000D01*
X85480000Y-100082000D02*
X84210000Y-100082000D01*
X35480000Y-100082000D02*
X34210000Y-100082000D01*
X85480000Y-50082000D02*
X84210000Y-50082000D01*
X86562000Y-100082000D02*
X85480000Y-100082000D01*
X36562000Y-100082000D02*
X35480000Y-100082000D01*
X86562000Y-50082000D02*
X85480000Y-50082000D01*
X85734000Y-100082000D02*
X85480000Y-100082000D01*
X35734000Y-100082000D02*
X35480000Y-100082000D01*
X85734000Y-50082000D02*
X85480000Y-50082000D01*
X85734000Y-101038000D02*
X85734000Y-100082000D01*
X35734000Y-101038000D02*
X35734000Y-100082000D01*
X85734000Y-51038000D02*
X85734000Y-50082000D01*
X84210000Y-99320000D02*
X84210000Y-100082000D01*
X34210000Y-99320000D02*
X34210000Y-100082000D01*
X84210000Y-49320000D02*
X84210000Y-50082000D01*
X47629000Y-67946000D02*
X47629000Y-70148000D01*
X46148000Y-66465000D02*
X47629000Y-67946000D01*
X47629000Y-70148000D02*
X49450000Y-70148000D01*
X49450000Y-70148000D02*
X49577000Y-70275000D01*
X34718000Y-48492000D02*
X34718000Y-48812000D01*
X34718000Y-48812000D02*
X34210000Y-49320000D01*
X34210000Y-49320000D02*
X34210000Y-50082000D01*
X35734000Y-51038000D02*
X35734000Y-50082000D01*
X35734000Y-50082000D02*
X35480000Y-50082000D01*
X36562000Y-50082000D02*
X35480000Y-50082000D01*
X35480000Y-50082000D02*
X34210000Y-50082000D01*
X83956000Y-124382000D02*
X83956000Y-123130000D01*
X33956000Y-124382000D02*
X33956000Y-123130000D01*
X83956000Y-74382000D02*
X83956000Y-73130000D01*
X33956000Y-74382000D02*
X33956000Y-73130000D01*
X85564000Y-94664000D02*
X86496000Y-94664000D01*
X35564000Y-94664000D02*
X36496000Y-94664000D01*
X85564000Y-44664000D02*
X86496000Y-44664000D01*
X84718000Y-96592000D02*
X84718000Y-95510000D01*
X34718000Y-96592000D02*
X34718000Y-95510000D01*
X84718000Y-46592000D02*
X84718000Y-45510000D01*
X84718000Y-95510000D02*
X85564000Y-94664000D01*
X34718000Y-95510000D02*
X35564000Y-94664000D01*
X84718000Y-45510000D02*
X85564000Y-44664000D01*
X34718000Y-46592000D02*
X34718000Y-45510000D01*
X35564000Y-44664000D02*
X36496000Y-44664000D01*
X34718000Y-45510000D02*
X35564000Y-44664000D01*
D27*
X106689000Y-98558000D02*
X106689000Y-97008000D01*
X56689000Y-98558000D02*
X56689000Y-97008000D01*
X106689000Y-48558000D02*
X106689000Y-47008000D01*
X106689000Y-97008000D02*
X108340000Y-95357000D01*
X56689000Y-97008000D02*
X58340000Y-95357000D01*
X106689000Y-47008000D02*
X108340000Y-45357000D01*
X106409000Y-95357000D02*
X108340000Y-95357000D01*
X56409000Y-95357000D02*
X58340000Y-95357000D01*
X106409000Y-45357000D02*
X108340000Y-45357000D01*
X105393000Y-95357000D02*
X106409000Y-95357000D01*
X55393000Y-95357000D02*
X56409000Y-95357000D01*
X105393000Y-45357000D02*
X106409000Y-45357000D01*
X104149000Y-94494000D02*
X104530000Y-94494000D01*
X54149000Y-94494000D02*
X54530000Y-94494000D01*
X104149000Y-44494000D02*
X104530000Y-44494000D01*
X104530000Y-94494000D02*
X105393000Y-95357000D01*
X54530000Y-94494000D02*
X55393000Y-95357000D01*
X104530000Y-44494000D02*
X105393000Y-45357000D01*
X106054000Y-95002000D02*
X106409000Y-95357000D01*
X56054000Y-95002000D02*
X56409000Y-95357000D01*
X106054000Y-45002000D02*
X106409000Y-45357000D01*
X106054000Y-94555000D02*
X106054000Y-95002000D01*
X56054000Y-94555000D02*
X56054000Y-95002000D01*
X106054000Y-44555000D02*
X106054000Y-45002000D01*
X56689000Y-48558000D02*
X56689000Y-47008000D01*
X56689000Y-47008000D02*
X58340000Y-45357000D01*
X56054000Y-44555000D02*
X56054000Y-45002000D01*
X56054000Y-45002000D02*
X56409000Y-45357000D01*
X54149000Y-44494000D02*
X54530000Y-44494000D01*
X54530000Y-44494000D02*
X55393000Y-45357000D01*
X55393000Y-45357000D02*
X56409000Y-45357000D01*
X56409000Y-45357000D02*
X58340000Y-45357000D01*
D28*
X116387000Y-106912000D02*
X116387000Y-104372000D01*
X66387000Y-106912000D02*
X66387000Y-104372000D01*
X116387000Y-56912000D02*
X116387000Y-54372000D01*
X116387000Y-105007000D02*
X116387000Y-104372000D01*
X66387000Y-105007000D02*
X66387000Y-104372000D01*
X116387000Y-55007000D02*
X116387000Y-54372000D01*
X114482000Y-105007000D02*
X115752000Y-105007000D01*
X64482000Y-105007000D02*
X65752000Y-105007000D01*
X114482000Y-55007000D02*
X115752000Y-55007000D01*
X115752000Y-105007000D02*
X116387000Y-105007000D01*
X65752000Y-105007000D02*
X66387000Y-105007000D01*
X115752000Y-55007000D02*
X116387000Y-55007000D01*
X114482000Y-104052000D02*
X114482000Y-105007000D01*
X64482000Y-104052000D02*
X64482000Y-105007000D01*
X114482000Y-54052000D02*
X114482000Y-55007000D01*
X64482000Y-54052000D02*
X64482000Y-55007000D01*
X65752000Y-55007000D02*
X66387000Y-55007000D01*
X64482000Y-55007000D02*
X65752000Y-55007000D01*
X66387000Y-55007000D02*
X66387000Y-54372000D01*
X66387000Y-56912000D02*
X66387000Y-54372000D01*
X113928000Y-117100000D02*
X113928000Y-114613000D01*
X63928000Y-117100000D02*
X63928000Y-114613000D01*
X113928000Y-67100000D02*
X113928000Y-64613000D01*
X114248000Y-117420000D02*
X113928000Y-117100000D01*
X64248000Y-117420000D02*
X63928000Y-117100000D01*
X114248000Y-67420000D02*
X113928000Y-67100000D01*
X115960000Y-117420000D02*
X114248000Y-117420000D01*
X65960000Y-117420000D02*
X64248000Y-117420000D01*
X115960000Y-67420000D02*
X114248000Y-67420000D01*
X113928000Y-114613000D02*
X113847000Y-114532000D01*
X63928000Y-114613000D02*
X63847000Y-114532000D01*
X113928000Y-64613000D02*
X113847000Y-64532000D01*
X63928000Y-67100000D02*
X63928000Y-64613000D01*
X63928000Y-64613000D02*
X63847000Y-64532000D01*
X65960000Y-67420000D02*
X64248000Y-67420000D01*
X64248000Y-67420000D02*
X63928000Y-67100000D01*
X125076000Y-106912000D02*
X125358000Y-107194000D01*
X75076000Y-106912000D02*
X75358000Y-107194000D01*
X125076000Y-56912000D02*
X125358000Y-57194000D01*
X125358000Y-107194000D02*
X125866000Y-107194000D01*
X75358000Y-107194000D02*
X75866000Y-107194000D01*
X125358000Y-57194000D02*
X125866000Y-57194000D01*
X126628000Y-106432000D02*
X126628000Y-102876000D01*
X76628000Y-106432000D02*
X76628000Y-102876000D01*
X126628000Y-56432000D02*
X126628000Y-52876000D01*
X125866000Y-107194000D02*
X126628000Y-106432000D01*
X75866000Y-107194000D02*
X76628000Y-106432000D01*
X125866000Y-57194000D02*
X126628000Y-56432000D01*
X122722000Y-101817000D02*
X122737000Y-101832000D01*
X72722000Y-101817000D02*
X72737000Y-101832000D01*
X122722000Y-51817000D02*
X122737000Y-51832000D01*
X122737000Y-101832000D02*
X124007000Y-101832000D01*
X72737000Y-101832000D02*
X74007000Y-101832000D01*
X122737000Y-51832000D02*
X124007000Y-51832000D01*
X124022000Y-101817000D02*
X124291000Y-102086000D01*
X74022000Y-101817000D02*
X74291000Y-102086000D01*
X124022000Y-51817000D02*
X124291000Y-52086000D01*
X124007000Y-101832000D02*
X124022000Y-101817000D01*
X74007000Y-101832000D02*
X74022000Y-101817000D01*
X124007000Y-51832000D02*
X124022000Y-51817000D01*
X124291000Y-102086000D02*
X125404000Y-102086000D01*
X74291000Y-102086000D02*
X75404000Y-102086000D01*
X124291000Y-52086000D02*
X125404000Y-52086000D01*
X126628000Y-102876000D02*
X125404000Y-101652000D01*
X76628000Y-102876000D02*
X75404000Y-101652000D01*
X126628000Y-52876000D02*
X125404000Y-51652000D01*
X121467000Y-106912000D02*
X125076000Y-106912000D01*
X71467000Y-106912000D02*
X75076000Y-106912000D01*
X121467000Y-56912000D02*
X125076000Y-56912000D01*
X121467000Y-106912000D02*
X121467000Y-105322000D01*
X71467000Y-106912000D02*
X71467000Y-105322000D01*
X121467000Y-56912000D02*
X121467000Y-55322000D01*
X125404000Y-101652000D02*
X125404000Y-101154000D01*
X75404000Y-101652000D02*
X75404000Y-101154000D01*
X125404000Y-51652000D02*
X125404000Y-51154000D01*
X122722000Y-100622000D02*
X122722000Y-101817000D01*
X72722000Y-100622000D02*
X72722000Y-101817000D01*
X122722000Y-50622000D02*
X122722000Y-51817000D01*
X124022000Y-100622000D02*
X124022000Y-101817000D01*
X74022000Y-100622000D02*
X74022000Y-101817000D01*
X124022000Y-50622000D02*
X124022000Y-51817000D01*
X125404000Y-101154000D02*
X125404000Y-102086000D01*
X75404000Y-101154000D02*
X75404000Y-102086000D01*
X125404000Y-51154000D02*
X125404000Y-52086000D01*
X125358000Y-109734000D02*
X125358000Y-107194000D01*
X75358000Y-109734000D02*
X75358000Y-107194000D01*
X125358000Y-59734000D02*
X125358000Y-57194000D01*
X75358000Y-57194000D02*
X75866000Y-57194000D01*
X75866000Y-57194000D02*
X76628000Y-56432000D01*
X76628000Y-52876000D02*
X75404000Y-51652000D01*
X76628000Y-56432000D02*
X76628000Y-52876000D01*
X75404000Y-51652000D02*
X75404000Y-51154000D01*
X75358000Y-59734000D02*
X75358000Y-57194000D01*
X71467000Y-56912000D02*
X75076000Y-56912000D01*
X75076000Y-56912000D02*
X75358000Y-57194000D01*
X71467000Y-56912000D02*
X71467000Y-55322000D01*
X75404000Y-51154000D02*
X75404000Y-52086000D01*
X74022000Y-50622000D02*
X74022000Y-51817000D01*
X74022000Y-51817000D02*
X74291000Y-52086000D01*
X74291000Y-52086000D02*
X75404000Y-52086000D01*
X72722000Y-50622000D02*
X72722000Y-51817000D01*
X74007000Y-51832000D02*
X74022000Y-51817000D01*
X72737000Y-51832000D02*
X74007000Y-51832000D01*
X72722000Y-51817000D02*
X72737000Y-51832000D01*
X125358000Y-104654000D02*
X125358000Y-104504000D01*
X75358000Y-104654000D02*
X75358000Y-104504000D01*
X125358000Y-54654000D02*
X125358000Y-54504000D01*
X118927000Y-105642000D02*
X119562000Y-105007000D01*
X68927000Y-105642000D02*
X69562000Y-105007000D01*
X118927000Y-55642000D02*
X119562000Y-55007000D01*
X119707000Y-103422000D02*
X119562000Y-103567000D01*
X69707000Y-103422000D02*
X69562000Y-103567000D01*
X119707000Y-53422000D02*
X119562000Y-53567000D01*
X119562000Y-105007000D02*
X119562000Y-103567000D01*
X69562000Y-105007000D02*
X69562000Y-103567000D01*
X119562000Y-55007000D02*
X119562000Y-53567000D01*
X118927000Y-106912000D02*
X118927000Y-105642000D01*
X68927000Y-106912000D02*
X68927000Y-105642000D01*
X118927000Y-56912000D02*
X118927000Y-55642000D01*
X121322000Y-103567000D02*
X121467000Y-103422000D01*
X71322000Y-103567000D02*
X71467000Y-103422000D01*
X121322000Y-53567000D02*
X121467000Y-53422000D01*
X119562000Y-103567000D02*
X121322000Y-103567000D01*
X69562000Y-103567000D02*
X71322000Y-103567000D01*
X119562000Y-53567000D02*
X121322000Y-53567000D01*
X124104000Y-103422000D02*
X121467000Y-103422000D01*
X74104000Y-103422000D02*
X71467000Y-103422000D01*
X124104000Y-53422000D02*
X121467000Y-53422000D01*
X125358000Y-104504000D02*
X124104000Y-103422000D01*
X75358000Y-104504000D02*
X74104000Y-103422000D01*
X125358000Y-54504000D02*
X124104000Y-53422000D01*
X75358000Y-54504000D02*
X74104000Y-53422000D01*
X75358000Y-54654000D02*
X75358000Y-54504000D01*
X74104000Y-53422000D02*
X71467000Y-53422000D01*
X69562000Y-53567000D02*
X71322000Y-53567000D01*
X71322000Y-53567000D02*
X71467000Y-53422000D01*
X69707000Y-53422000D02*
X69562000Y-53567000D01*
X69562000Y-55007000D02*
X69562000Y-53567000D01*
X68927000Y-56912000D02*
X68927000Y-55642000D01*
X68927000Y-55642000D02*
X69562000Y-55007000D01*
X125188000Y-117270000D02*
X125358000Y-117100000D01*
X75188000Y-117270000D02*
X75358000Y-117100000D01*
X125188000Y-67270000D02*
X125358000Y-67100000D01*
X121802000Y-117270000D02*
X125188000Y-117270000D01*
X71802000Y-117270000D02*
X75188000Y-117270000D01*
X121802000Y-67270000D02*
X125188000Y-67270000D01*
X121802000Y-117270000D02*
X121358000Y-117270000D01*
X71802000Y-117270000D02*
X71358000Y-117270000D01*
X121802000Y-67270000D02*
X121358000Y-67270000D01*
X125358000Y-117100000D02*
X125358000Y-119640000D01*
X75358000Y-117100000D02*
X75358000Y-119640000D01*
X125358000Y-67100000D02*
X125358000Y-69640000D01*
X118927000Y-114532000D02*
X118927000Y-115845000D01*
X68927000Y-114532000D02*
X68927000Y-115845000D01*
X118927000Y-64532000D02*
X118927000Y-65845000D01*
X118956000Y-118372000D02*
X118956000Y-116352000D01*
X68956000Y-118372000D02*
X68956000Y-116352000D01*
X118956000Y-68372000D02*
X118956000Y-66352000D01*
X120256000Y-118372000D02*
X118956000Y-118372000D01*
X70256000Y-118372000D02*
X68956000Y-118372000D01*
X120256000Y-68372000D02*
X118956000Y-68372000D01*
X118927000Y-115845000D02*
X118688000Y-116084000D01*
X68927000Y-115845000D02*
X68688000Y-116084000D01*
X118927000Y-65845000D02*
X118688000Y-66084000D01*
X121358000Y-117270000D02*
X120256000Y-118372000D01*
X71358000Y-117270000D02*
X70256000Y-118372000D01*
X121358000Y-67270000D02*
X120256000Y-68372000D01*
X118956000Y-116352000D02*
X118688000Y-116084000D01*
X68956000Y-116352000D02*
X68688000Y-116084000D01*
X118956000Y-66352000D02*
X118688000Y-66084000D01*
X75358000Y-67100000D02*
X75358000Y-69640000D01*
X71802000Y-67270000D02*
X71358000Y-67270000D01*
X71358000Y-67270000D02*
X70256000Y-68372000D01*
X71802000Y-67270000D02*
X75188000Y-67270000D01*
X75188000Y-67270000D02*
X75358000Y-67100000D01*
X68927000Y-64532000D02*
X68927000Y-65845000D01*
X68927000Y-65845000D02*
X68688000Y-66084000D01*
X68956000Y-68372000D02*
X68956000Y-66352000D01*
X68956000Y-66352000D02*
X68688000Y-66084000D01*
X70256000Y-68372000D02*
X68956000Y-68372000D01*
X123834000Y-112528000D02*
X118391000Y-112528000D01*
X73834000Y-112528000D02*
X68391000Y-112528000D01*
X123834000Y-62528000D02*
X118391000Y-62528000D01*
X125358000Y-114052000D02*
X123834000Y-112528000D01*
X75358000Y-114052000D02*
X73834000Y-112528000D01*
X125358000Y-64052000D02*
X123834000Y-62528000D01*
X125358000Y-114560000D02*
X125358000Y-114052000D01*
X75358000Y-114560000D02*
X75358000Y-114052000D01*
X125358000Y-64560000D02*
X125358000Y-64052000D01*
X118391000Y-112528000D02*
X116387000Y-114532000D01*
X68391000Y-112528000D02*
X66387000Y-114532000D01*
X118391000Y-62528000D02*
X116387000Y-64532000D01*
X117484000Y-116780000D02*
X116788000Y-116084000D01*
X67484000Y-116780000D02*
X66788000Y-116084000D01*
X117484000Y-66780000D02*
X116788000Y-66084000D01*
X116387000Y-115683000D02*
X116788000Y-116084000D01*
X66387000Y-115683000D02*
X66788000Y-116084000D01*
X116387000Y-65683000D02*
X116788000Y-66084000D01*
X116387000Y-114532000D02*
X116387000Y-115683000D01*
X66387000Y-114532000D02*
X66387000Y-115683000D01*
X116387000Y-64532000D02*
X116387000Y-65683000D01*
X117484000Y-117397000D02*
X117484000Y-116780000D01*
X67484000Y-117397000D02*
X67484000Y-116780000D01*
X117484000Y-67397000D02*
X117484000Y-66780000D01*
X75358000Y-64560000D02*
X75358000Y-64052000D01*
X75358000Y-64052000D02*
X73834000Y-62528000D01*
X73834000Y-62528000D02*
X68391000Y-62528000D01*
X68391000Y-62528000D02*
X66387000Y-64532000D01*
X66387000Y-64532000D02*
X66387000Y-65683000D01*
X66387000Y-65683000D02*
X66788000Y-66084000D01*
X67484000Y-67397000D02*
X67484000Y-66780000D01*
X67484000Y-66780000D02*
X66788000Y-66084000D01*
X107875000Y-119175000D02*
X108553000Y-118497000D01*
X57875000Y-119175000D02*
X58553000Y-118497000D01*
X107875000Y-69175000D02*
X108553000Y-68497000D01*
X107875000Y-120275000D02*
X105927000Y-120275000D01*
X57875000Y-120275000D02*
X55927000Y-120275000D01*
X107875000Y-70275000D02*
X105927000Y-70275000D01*
X107875000Y-120275000D02*
X107875000Y-119175000D01*
X57875000Y-120275000D02*
X57875000Y-119175000D01*
X107875000Y-70275000D02*
X107875000Y-69175000D01*
X108553000Y-118497000D02*
X110499000Y-118497000D01*
X58553000Y-118497000D02*
X60499000Y-118497000D01*
X108553000Y-68497000D02*
X110499000Y-68497000D01*
X121297000Y-99142000D02*
X121147000Y-99292000D01*
X71297000Y-99142000D02*
X71147000Y-99292000D01*
X121297000Y-49142000D02*
X121147000Y-49292000D01*
X121297000Y-97387000D02*
X121297000Y-99142000D01*
X71297000Y-97387000D02*
X71297000Y-99142000D01*
X121297000Y-47387000D02*
X121297000Y-49142000D01*
X121147000Y-99292000D02*
X121147000Y-99427000D01*
X71147000Y-99292000D02*
X71147000Y-99427000D01*
X121147000Y-49292000D02*
X121147000Y-49427000D01*
X123372000Y-97387000D02*
X123372000Y-97962000D01*
X73372000Y-97387000D02*
X73372000Y-97962000D01*
X123372000Y-47387000D02*
X123372000Y-47962000D01*
X123372000Y-96272000D02*
X123372000Y-97962000D01*
X73372000Y-96272000D02*
X73372000Y-97962000D01*
X123372000Y-46272000D02*
X123372000Y-47962000D01*
X124469000Y-96272000D02*
X123372000Y-96272000D01*
X74469000Y-96272000D02*
X73372000Y-96272000D01*
X124469000Y-46272000D02*
X123372000Y-46272000D01*
X121297000Y-97387000D02*
X123372000Y-97387000D01*
X71297000Y-97387000D02*
X73372000Y-97387000D01*
X121297000Y-47387000D02*
X123372000Y-47387000D01*
X123326000Y-96272000D02*
X123372000Y-96272000D01*
X73326000Y-96272000D02*
X73372000Y-96272000D01*
X123326000Y-46272000D02*
X123372000Y-46272000D01*
X123372000Y-96272000D02*
X123326000Y-96272000D01*
X73372000Y-96272000D02*
X73326000Y-96272000D01*
X123372000Y-46272000D02*
X123326000Y-46272000D01*
X121357000Y-97327000D02*
X121297000Y-97387000D01*
X71357000Y-97327000D02*
X71297000Y-97387000D01*
X121357000Y-47327000D02*
X121297000Y-47387000D01*
X124596000Y-111385000D02*
X124977000Y-111766000D01*
X74596000Y-111385000D02*
X74977000Y-111766000D01*
X124596000Y-61385000D02*
X124977000Y-61766000D01*
X116976000Y-111385000D02*
X124596000Y-111385000D01*
X66976000Y-111385000D02*
X74596000Y-111385000D01*
X116976000Y-61385000D02*
X124596000Y-61385000D01*
X115198000Y-113163000D02*
X116976000Y-111385000D01*
X65198000Y-113163000D02*
X66976000Y-111385000D01*
X115198000Y-63163000D02*
X116976000Y-61385000D01*
X57875000Y-70275000D02*
X57875000Y-69175000D01*
X74469000Y-46272000D02*
X73372000Y-46272000D01*
X74596000Y-61385000D02*
X74977000Y-61766000D01*
X66976000Y-61385000D02*
X74596000Y-61385000D01*
X65198000Y-63163000D02*
X66976000Y-61385000D01*
X58553000Y-68497000D02*
X60499000Y-68497000D01*
X57875000Y-69175000D02*
X58553000Y-68497000D01*
X73372000Y-46272000D02*
X73326000Y-46272000D01*
X73326000Y-46272000D02*
X73372000Y-46272000D01*
X57875000Y-70275000D02*
X55927000Y-70275000D01*
X71147000Y-49292000D02*
X71147000Y-49427000D01*
X73372000Y-46272000D02*
X73372000Y-47962000D01*
X71297000Y-47387000D02*
X73372000Y-47387000D01*
X73372000Y-47387000D02*
X73372000Y-47962000D01*
X71297000Y-47387000D02*
X71297000Y-49142000D01*
X71297000Y-49142000D02*
X71147000Y-49292000D01*
X71357000Y-47327000D02*
X71297000Y-47387000D01*
X107875000Y-124128000D02*
X107875000Y-122815000D01*
X57875000Y-124128000D02*
X57875000Y-122815000D01*
X107875000Y-74128000D02*
X107875000Y-72815000D01*
X107959000Y-124212000D02*
X107875000Y-124128000D01*
X57959000Y-124212000D02*
X57875000Y-124128000D01*
X107959000Y-74212000D02*
X107875000Y-74128000D01*
X107875000Y-122815000D02*
X105927000Y-122815000D01*
X57875000Y-122815000D02*
X55927000Y-122815000D01*
X107875000Y-72815000D02*
X105927000Y-72815000D01*
X119474000Y-121164000D02*
X119606000Y-120778000D01*
X69474000Y-121164000D02*
X69606000Y-120778000D01*
X119474000Y-71164000D02*
X119606000Y-70778000D01*
X118688000Y-121164000D02*
X119474000Y-121164000D01*
X68688000Y-121164000D02*
X69474000Y-121164000D01*
X118688000Y-71164000D02*
X119474000Y-71164000D01*
X120090000Y-121516000D02*
X119606000Y-121032000D01*
X70090000Y-121516000D02*
X69606000Y-121032000D01*
X120090000Y-71516000D02*
X119606000Y-71032000D01*
X120090000Y-122688000D02*
X120090000Y-121516000D01*
X70090000Y-122688000D02*
X70090000Y-121516000D01*
X120090000Y-72688000D02*
X120090000Y-71516000D01*
X120090000Y-122749000D02*
X119516000Y-123323000D01*
X70090000Y-122749000D02*
X69516000Y-123323000D01*
X120090000Y-72749000D02*
X119516000Y-73323000D01*
X120090000Y-122688000D02*
X120090000Y-122749000D01*
X70090000Y-122688000D02*
X70090000Y-122749000D01*
X120090000Y-72688000D02*
X120090000Y-72749000D01*
X119516000Y-121122000D02*
X119606000Y-121032000D01*
X69516000Y-121122000D02*
X69606000Y-121032000D01*
X119516000Y-71122000D02*
X119606000Y-71032000D01*
X119516000Y-123323000D02*
X119516000Y-123450000D01*
X69516000Y-123323000D02*
X69516000Y-123450000D01*
X119516000Y-73323000D02*
X119516000Y-73450000D01*
X70090000Y-72688000D02*
X70090000Y-72749000D01*
X70090000Y-72749000D02*
X69516000Y-73323000D01*
X57875000Y-74128000D02*
X57875000Y-72815000D01*
X57959000Y-74212000D02*
X57875000Y-74128000D01*
X69516000Y-73323000D02*
X69516000Y-73450000D01*
X57875000Y-72815000D02*
X55927000Y-72815000D01*
X70090000Y-72688000D02*
X70090000Y-71516000D01*
X70090000Y-71516000D02*
X69606000Y-71032000D01*
X69516000Y-71122000D02*
X69606000Y-71032000D01*
X68688000Y-71164000D02*
X69474000Y-71164000D01*
X69474000Y-71164000D02*
X69606000Y-70778000D01*
X117657000Y-96117000D02*
X117360000Y-96578000D01*
X67657000Y-96117000D02*
X67360000Y-96578000D01*
X117657000Y-46117000D02*
X117360000Y-46578000D01*
X117610000Y-96578000D02*
X118702000Y-96578000D01*
X67610000Y-96578000D02*
X68702000Y-96578000D01*
X117610000Y-46578000D02*
X118702000Y-46578000D01*
X118702000Y-96578000D02*
X119201000Y-97077000D01*
X68702000Y-96578000D02*
X69201000Y-97077000D01*
X118702000Y-46578000D02*
X119201000Y-47077000D01*
X119201000Y-97077000D02*
X119201000Y-97415000D01*
X69201000Y-97077000D02*
X69201000Y-97415000D01*
X119201000Y-47077000D02*
X119201000Y-47415000D01*
X119201000Y-97415000D02*
X119201000Y-97669000D01*
X69201000Y-97415000D02*
X69201000Y-97669000D01*
X119201000Y-47415000D02*
X119201000Y-47669000D01*
X67610000Y-46578000D02*
X68702000Y-46578000D01*
X68702000Y-46578000D02*
X69201000Y-47077000D01*
X69201000Y-47077000D02*
X69201000Y-47415000D01*
X67657000Y-46117000D02*
X67360000Y-46578000D01*
X69201000Y-47415000D02*
X69201000Y-47669000D01*
X121990000Y-123178000D02*
X121210000Y-123958000D01*
X71990000Y-123178000D02*
X71210000Y-123958000D01*
X121990000Y-73178000D02*
X121210000Y-73958000D01*
X121990000Y-122688000D02*
X121990000Y-123178000D01*
X71990000Y-122688000D02*
X71990000Y-123178000D01*
X121990000Y-72688000D02*
X121990000Y-73178000D01*
X71990000Y-72688000D02*
X71990000Y-73178000D01*
X71990000Y-73178000D02*
X71210000Y-73958000D01*
X81500000Y-124212000D02*
X81500000Y-124296000D01*
X31500000Y-124212000D02*
X31500000Y-124296000D01*
X81500000Y-74212000D02*
X81500000Y-74296000D01*
X81500000Y-124890000D02*
X81500000Y-124212000D01*
X31500000Y-124890000D02*
X31500000Y-124212000D01*
X81500000Y-74890000D02*
X81500000Y-74212000D01*
X80527000Y-125863000D02*
X81500000Y-124890000D01*
X30527000Y-125863000D02*
X31500000Y-124890000D01*
X80527000Y-75863000D02*
X81500000Y-74890000D01*
X79384000Y-125863000D02*
X80527000Y-125863000D01*
X29384000Y-125863000D02*
X30527000Y-125863000D01*
X79384000Y-75863000D02*
X80527000Y-75863000D01*
X79003000Y-126244000D02*
X79384000Y-125863000D01*
X29003000Y-126244000D02*
X29384000Y-125863000D01*
X79003000Y-76244000D02*
X79384000Y-75863000D01*
X29003000Y-76244000D02*
X29384000Y-75863000D01*
X29384000Y-75863000D02*
X30527000Y-75863000D01*
X30527000Y-75863000D02*
X31500000Y-74890000D01*
X31500000Y-74890000D02*
X31500000Y-74212000D01*
X31500000Y-74212000D02*
X31500000Y-74296000D01*
X83702000Y-101352000D02*
X82940000Y-100590000D01*
X33702000Y-101352000D02*
X32940000Y-100590000D01*
X83702000Y-51352000D02*
X82940000Y-50590000D01*
X83702000Y-101352000D02*
X83702000Y-102030000D01*
X33702000Y-101352000D02*
X33702000Y-102030000D01*
X83702000Y-51352000D02*
X83702000Y-52030000D01*
X82940000Y-100590000D02*
X82432000Y-100590000D01*
X32940000Y-100590000D02*
X32432000Y-100590000D01*
X82940000Y-50590000D02*
X82432000Y-50590000D01*
X33702000Y-51352000D02*
X33702000Y-52030000D01*
X32940000Y-50590000D02*
X32432000Y-50590000D01*
X33702000Y-51352000D02*
X32940000Y-50590000D01*
X99577000Y-125355000D02*
X99577000Y-124085000D01*
X49577000Y-125355000D02*
X49577000Y-124085000D01*
X99577000Y-75355000D02*
X99577000Y-74085000D01*
X99577000Y-125355000D02*
X99196000Y-125355000D01*
X49577000Y-125355000D02*
X49196000Y-125355000D01*
X99577000Y-75355000D02*
X99196000Y-75355000D01*
X98561000Y-125990000D02*
X99196000Y-125355000D01*
X48561000Y-125990000D02*
X49196000Y-125355000D01*
X98561000Y-75990000D02*
X99196000Y-75355000D01*
X48561000Y-75990000D02*
X49196000Y-75355000D01*
X49577000Y-75355000D02*
X49196000Y-75355000D01*
X49577000Y-75355000D02*
X49577000Y-74085000D01*
X93735000Y-121799000D02*
X93735000Y-122053000D01*
X43735000Y-121799000D02*
X43735000Y-122053000D01*
X93735000Y-71799000D02*
X93735000Y-72053000D01*
X94116000Y-119005000D02*
X94116000Y-121418000D01*
X44116000Y-119005000D02*
X44116000Y-121418000D01*
X94116000Y-69005000D02*
X94116000Y-71418000D01*
X94116000Y-121418000D02*
X93735000Y-121799000D01*
X44116000Y-121418000D02*
X43735000Y-121799000D01*
X94116000Y-71418000D02*
X93735000Y-71799000D01*
X95767000Y-114814000D02*
X94370000Y-116211000D01*
X45767000Y-114814000D02*
X44370000Y-116211000D01*
X95767000Y-64814000D02*
X94370000Y-66211000D01*
X96783000Y-114814000D02*
X99577000Y-117608000D01*
X46783000Y-114814000D02*
X49577000Y-117608000D01*
X96783000Y-64814000D02*
X99577000Y-67608000D01*
X96783000Y-114814000D02*
X95767000Y-114814000D01*
X46783000Y-114814000D02*
X45767000Y-114814000D01*
X96783000Y-64814000D02*
X95767000Y-64814000D01*
X99577000Y-117735000D02*
X99577000Y-117608000D01*
X49577000Y-117735000D02*
X49577000Y-117608000D01*
X99577000Y-67735000D02*
X99577000Y-67608000D01*
X94370000Y-116211000D02*
X94370000Y-118751000D01*
X44370000Y-116211000D02*
X44370000Y-118751000D01*
X94370000Y-66211000D02*
X94370000Y-68751000D01*
X94370000Y-118751000D02*
X94116000Y-119005000D01*
X44370000Y-118751000D02*
X44116000Y-119005000D01*
X94370000Y-68751000D02*
X94116000Y-69005000D01*
X99577000Y-119005000D02*
X99577000Y-117735000D01*
X49577000Y-119005000D02*
X49577000Y-117735000D01*
X99577000Y-69005000D02*
X99577000Y-67735000D01*
X46783000Y-64814000D02*
X45767000Y-64814000D01*
X45767000Y-64814000D02*
X44370000Y-66211000D01*
X44370000Y-66211000D02*
X44370000Y-68751000D01*
X44370000Y-68751000D02*
X44116000Y-69005000D01*
X44116000Y-69005000D02*
X44116000Y-71418000D01*
X44116000Y-71418000D02*
X43735000Y-71799000D01*
X43735000Y-71799000D02*
X43735000Y-72053000D01*
X46783000Y-64814000D02*
X49577000Y-67608000D01*
X49577000Y-67735000D02*
X49577000Y-67608000D01*
X49577000Y-69005000D02*
X49577000Y-67735000D01*
X92211000Y-89922000D02*
X91957000Y-89668000D01*
X42211000Y-89922000D02*
X41957000Y-89668000D01*
X92211000Y-39922000D02*
X91957000Y-39668000D01*
X87766000Y-88906000D02*
X87766000Y-87890000D01*
X37766000Y-88906000D02*
X37766000Y-87890000D01*
X87766000Y-38906000D02*
X87766000Y-37890000D01*
X91957000Y-89668000D02*
X88528000Y-89668000D01*
X41957000Y-89668000D02*
X38528000Y-89668000D01*
X91957000Y-39668000D02*
X88528000Y-39668000D01*
X88528000Y-89668000D02*
X87766000Y-88906000D01*
X38528000Y-89668000D02*
X37766000Y-88906000D01*
X88528000Y-39668000D02*
X87766000Y-38906000D01*
X37766000Y-38906000D02*
X37766000Y-37890000D01*
X38528000Y-39668000D02*
X37766000Y-38906000D01*
X41957000Y-39668000D02*
X38528000Y-39668000D01*
X42211000Y-39922000D02*
X41957000Y-39668000D01*
X125404000Y-97842000D02*
X125358000Y-97796000D01*
X75404000Y-97842000D02*
X75358000Y-97796000D01*
X125404000Y-47842000D02*
X125358000Y-47796000D01*
X125404000Y-98954000D02*
X125404000Y-97842000D01*
X75404000Y-98954000D02*
X75404000Y-97842000D01*
X125404000Y-48954000D02*
X125404000Y-47842000D01*
X75404000Y-48954000D02*
X75404000Y-47842000D01*
X75404000Y-47842000D02*
X75358000Y-47796000D01*
X121802000Y-119470000D02*
X121802000Y-120910000D01*
X71802000Y-119470000D02*
X71802000Y-120910000D01*
X121802000Y-69470000D02*
X121802000Y-70910000D01*
X71802000Y-69470000D02*
X71802000Y-70910000D01*
X102752000Y-122688000D02*
X102752000Y-117354000D01*
X52752000Y-122688000D02*
X52752000Y-117354000D01*
X102752000Y-72688000D02*
X102752000Y-67354000D01*
X104022000Y-116084000D02*
X105165000Y-116084000D01*
X54022000Y-116084000D02*
X55165000Y-116084000D01*
X104022000Y-66084000D02*
X105165000Y-66084000D01*
X102752000Y-117354000D02*
X103006000Y-117100000D01*
X52752000Y-117354000D02*
X53006000Y-117100000D01*
X102752000Y-67354000D02*
X103006000Y-67100000D01*
X103006000Y-117100000D02*
X104022000Y-116084000D01*
X53006000Y-117100000D02*
X54022000Y-116084000D01*
X103006000Y-67100000D02*
X104022000Y-66084000D01*
X105165000Y-116084000D02*
X105927000Y-116846000D01*
X55165000Y-116084000D02*
X55927000Y-116846000D01*
X105165000Y-66084000D02*
X105927000Y-66846000D01*
X102879000Y-122815000D02*
X102752000Y-122688000D01*
X52879000Y-122815000D02*
X52752000Y-122688000D01*
X102879000Y-72815000D02*
X102752000Y-72688000D01*
X105927000Y-119005000D02*
X105927000Y-117735000D01*
X55927000Y-119005000D02*
X55927000Y-117735000D01*
X105927000Y-69005000D02*
X105927000Y-67735000D01*
X105927000Y-116846000D02*
X105927000Y-117735000D01*
X55927000Y-116846000D02*
X55927000Y-117735000D01*
X105927000Y-66846000D02*
X105927000Y-67735000D01*
X53006000Y-67100000D02*
X54022000Y-66084000D01*
X52879000Y-72815000D02*
X52752000Y-72688000D01*
X52752000Y-72688000D02*
X52752000Y-67354000D01*
X52752000Y-67354000D02*
X53006000Y-67100000D01*
X55927000Y-66846000D02*
X55927000Y-67735000D01*
X55165000Y-66084000D02*
X55927000Y-66846000D01*
X54022000Y-66084000D02*
X55165000Y-66084000D01*
X55927000Y-69005000D02*
X55927000Y-67735000D01*
X105927000Y-126498000D02*
X105546000Y-126879000D01*
X55927000Y-126498000D02*
X55546000Y-126879000D01*
X105927000Y-76498000D02*
X105546000Y-76879000D01*
X105927000Y-125355000D02*
X105927000Y-126498000D01*
X55927000Y-125355000D02*
X55927000Y-126498000D01*
X105927000Y-75355000D02*
X105927000Y-76498000D01*
X105927000Y-124085000D02*
X105927000Y-125355000D01*
X55927000Y-124085000D02*
X55927000Y-125355000D01*
X105927000Y-74085000D02*
X105927000Y-75355000D01*
X55927000Y-75355000D02*
X55927000Y-76498000D01*
X55927000Y-76498000D02*
X55546000Y-76879000D01*
X55927000Y-74085000D02*
X55927000Y-75355000D01*
X91830000Y-91319000D02*
X92973000Y-91319000D01*
X41830000Y-91319000D02*
X42973000Y-91319000D01*
X91830000Y-41319000D02*
X92973000Y-41319000D01*
X92973000Y-91319000D02*
X93481000Y-90811000D01*
X42973000Y-91319000D02*
X43481000Y-90811000D01*
X92973000Y-41319000D02*
X93481000Y-40811000D01*
X93481000Y-90811000D02*
X93481000Y-89541000D01*
X43481000Y-90811000D02*
X43481000Y-89541000D01*
X93481000Y-40811000D02*
X93481000Y-39541000D01*
X93481000Y-89541000D02*
X92846000Y-88906000D01*
X43481000Y-89541000D02*
X42846000Y-88906000D01*
X93481000Y-39541000D02*
X92846000Y-38906000D01*
X91449000Y-90938000D02*
X91830000Y-91319000D01*
X41449000Y-90938000D02*
X41830000Y-91319000D01*
X91449000Y-40938000D02*
X91830000Y-41319000D01*
X92846000Y-88906000D02*
X92846000Y-87890000D01*
X42846000Y-88906000D02*
X42846000Y-87890000D01*
X92846000Y-38906000D02*
X92846000Y-37890000D01*
X90052000Y-90938000D02*
X91449000Y-90938000D01*
X40052000Y-90938000D02*
X41449000Y-90938000D01*
X90052000Y-40938000D02*
X91449000Y-40938000D01*
X40052000Y-40938000D02*
X41449000Y-40938000D01*
X42846000Y-38906000D02*
X42846000Y-37890000D01*
X43481000Y-39541000D02*
X42846000Y-38906000D01*
X43481000Y-40811000D02*
X43481000Y-39541000D01*
X42973000Y-41319000D02*
X43481000Y-40811000D01*
X41830000Y-41319000D02*
X42973000Y-41319000D01*
X41449000Y-40938000D02*
X41830000Y-41319000D01*
X110075000Y-123280000D02*
X110753000Y-123958000D01*
X60075000Y-123280000D02*
X60753000Y-123958000D01*
X110075000Y-73280000D02*
X110753000Y-73958000D01*
X110075000Y-122815000D02*
X110075000Y-123280000D01*
X60075000Y-122815000D02*
X60075000Y-123280000D01*
X110075000Y-72815000D02*
X110075000Y-73280000D01*
X110075000Y-121545000D02*
X110075000Y-122815000D01*
X60075000Y-121545000D02*
X60075000Y-122815000D01*
X110075000Y-71545000D02*
X110075000Y-72815000D01*
X108551000Y-126033000D02*
X109543000Y-125041000D01*
X58551000Y-126033000D02*
X59543000Y-125041000D01*
X108551000Y-76033000D02*
X109543000Y-75041000D01*
X107959000Y-126033000D02*
X108551000Y-126033000D01*
X57959000Y-126033000D02*
X58551000Y-126033000D01*
X107959000Y-76033000D02*
X108551000Y-76033000D01*
X110075000Y-120275000D02*
X110075000Y-121545000D01*
X60075000Y-120275000D02*
X60075000Y-121545000D01*
X110075000Y-70275000D02*
X110075000Y-71545000D01*
X110753000Y-123958000D02*
X110753000Y-125041000D01*
X60753000Y-123958000D02*
X60753000Y-125041000D01*
X110753000Y-73958000D02*
X110753000Y-75041000D01*
X109543000Y-125041000D02*
X110753000Y-125041000D01*
X59543000Y-125041000D02*
X60753000Y-125041000D01*
X109543000Y-75041000D02*
X110753000Y-75041000D01*
X95429000Y-121545000D02*
X95429000Y-122815000D01*
X45429000Y-121545000D02*
X45429000Y-122815000D01*
X95429000Y-71545000D02*
X95429000Y-72815000D01*
X95429000Y-121545000D02*
X95386000Y-121545000D01*
X45429000Y-121545000D02*
X45386000Y-121545000D01*
X95429000Y-71545000D02*
X95386000Y-71545000D01*
X95386000Y-121545000D02*
X95429000Y-121545000D01*
X45386000Y-121545000D02*
X45429000Y-121545000D01*
X95386000Y-71545000D02*
X95429000Y-71545000D01*
X95386000Y-121545000D02*
X95429000Y-121545000D01*
X45386000Y-121545000D02*
X45429000Y-121545000D01*
X95386000Y-71545000D02*
X95429000Y-71545000D01*
X95429000Y-120148000D02*
X95429000Y-121545000D01*
X45429000Y-120148000D02*
X45429000Y-121545000D01*
X95429000Y-70148000D02*
X95429000Y-71545000D01*
X57959000Y-76033000D02*
X58551000Y-76033000D01*
X59543000Y-75041000D02*
X60753000Y-75041000D01*
X58551000Y-76033000D02*
X59543000Y-75041000D01*
X60075000Y-72815000D02*
X60075000Y-73280000D01*
X60753000Y-73958000D02*
X60753000Y-75041000D01*
X60075000Y-73280000D02*
X60753000Y-73958000D01*
X45386000Y-71545000D02*
X45429000Y-71545000D01*
X45429000Y-71545000D02*
X45386000Y-71545000D01*
X45386000Y-71545000D02*
X45429000Y-71545000D01*
X60075000Y-70275000D02*
X60075000Y-71545000D01*
X60075000Y-71545000D02*
X60075000Y-72815000D01*
X45429000Y-70148000D02*
X45429000Y-71545000D01*
X45429000Y-71545000D02*
X45429000Y-72815000D01*
X85734000Y-123280000D02*
X85734000Y-124550000D01*
X35734000Y-123280000D02*
X35734000Y-124550000D01*
X85734000Y-73280000D02*
X85734000Y-74550000D01*
X84606000Y-126102000D02*
X85928000Y-126102000D01*
X34606000Y-126102000D02*
X35928000Y-126102000D01*
X84606000Y-76102000D02*
X85928000Y-76102000D01*
X85734000Y-124550000D02*
X85904000Y-124720000D01*
X35734000Y-124550000D02*
X35904000Y-124720000D01*
X85734000Y-74550000D02*
X85904000Y-74720000D01*
X85904000Y-124720000D02*
X85904000Y-126078000D01*
X35904000Y-124720000D02*
X35904000Y-126078000D01*
X85904000Y-74720000D02*
X85904000Y-76078000D01*
X84126000Y-126582000D02*
X84606000Y-126102000D01*
X34126000Y-126582000D02*
X34606000Y-126102000D01*
X84126000Y-76582000D02*
X84606000Y-76102000D01*
X85904000Y-126078000D02*
X85928000Y-126102000D01*
X35904000Y-126078000D02*
X35928000Y-126102000D01*
X85904000Y-76078000D02*
X85928000Y-76102000D01*
X83956000Y-126582000D02*
X84126000Y-126582000D01*
X33956000Y-126582000D02*
X34126000Y-126582000D01*
X83956000Y-76582000D02*
X84126000Y-76582000D01*
X35734000Y-73280000D02*
X35734000Y-74550000D01*
X35734000Y-74550000D02*
X35904000Y-74720000D01*
X35904000Y-74720000D02*
X35904000Y-76078000D01*
X35904000Y-76078000D02*
X35928000Y-76102000D01*
X33956000Y-76582000D02*
X34126000Y-76582000D01*
X34126000Y-76582000D02*
X34606000Y-76102000D01*
X34606000Y-76102000D02*
X35928000Y-76102000D01*
X86412000Y-96948000D02*
X86496000Y-96864000D01*
X36412000Y-96948000D02*
X36496000Y-96864000D01*
X86412000Y-46948000D02*
X86496000Y-46864000D01*
X86412000Y-98304000D02*
X86412000Y-96948000D01*
X36412000Y-98304000D02*
X36412000Y-96948000D01*
X86412000Y-48304000D02*
X86412000Y-46948000D01*
X89738000Y-96892000D02*
X86524000Y-96892000D01*
X39738000Y-96892000D02*
X36524000Y-96892000D01*
X89738000Y-46892000D02*
X86524000Y-46892000D01*
X88386000Y-96892000D02*
X88444000Y-96834000D01*
X38386000Y-96892000D02*
X38444000Y-96834000D01*
X88386000Y-46892000D02*
X88444000Y-46834000D01*
X89738000Y-96892000D02*
X88386000Y-96892000D01*
X39738000Y-96892000D02*
X38386000Y-96892000D01*
X89738000Y-46892000D02*
X88386000Y-46892000D01*
X86524000Y-96892000D02*
X86496000Y-96864000D01*
X36524000Y-96892000D02*
X36496000Y-96864000D01*
X86524000Y-46892000D02*
X86496000Y-46864000D01*
X88444000Y-96834000D02*
X88444000Y-95002000D01*
X38444000Y-96834000D02*
X38444000Y-95002000D01*
X88444000Y-46834000D02*
X88444000Y-45002000D01*
X39738000Y-46892000D02*
X38386000Y-46892000D01*
X38444000Y-46834000D02*
X38444000Y-45002000D01*
X38386000Y-46892000D02*
X38444000Y-46834000D01*
X39738000Y-46892000D02*
X36524000Y-46892000D01*
X36524000Y-46892000D02*
X36496000Y-46864000D01*
X36412000Y-48304000D02*
X36412000Y-46948000D01*
X36412000Y-46948000D02*
X36496000Y-46864000D01*
X88190000Y-124634000D02*
X88104000Y-124720000D01*
X38190000Y-124634000D02*
X38104000Y-124720000D01*
X88190000Y-74634000D02*
X88104000Y-74720000D01*
X88190000Y-123196000D02*
X88190000Y-124634000D01*
X38190000Y-123196000D02*
X38190000Y-124634000D01*
X88190000Y-73196000D02*
X88190000Y-74634000D01*
X88588000Y-125204000D02*
X88104000Y-124720000D01*
X38588000Y-125204000D02*
X38104000Y-124720000D01*
X88588000Y-75204000D02*
X88104000Y-74720000D01*
X88588000Y-126752000D02*
X88588000Y-125204000D01*
X38588000Y-126752000D02*
X38588000Y-125204000D01*
X88588000Y-76752000D02*
X88588000Y-75204000D01*
X89714000Y-124720000D02*
X88104000Y-124720000D01*
X39714000Y-124720000D02*
X38104000Y-124720000D01*
X89714000Y-74720000D02*
X88104000Y-74720000D01*
X38588000Y-76752000D02*
X38588000Y-75204000D01*
X38588000Y-75204000D02*
X38104000Y-74720000D01*
X38190000Y-73196000D02*
X38190000Y-74634000D01*
X38190000Y-74634000D02*
X38104000Y-74720000D01*
X39714000Y-74720000D02*
X38104000Y-74720000D01*
X92168000Y-96102000D02*
X92846000Y-96102000D01*
X42168000Y-96102000D02*
X42846000Y-96102000D01*
X92168000Y-46102000D02*
X92846000Y-46102000D01*
X91068000Y-95002000D02*
X92168000Y-96102000D01*
X41068000Y-95002000D02*
X42168000Y-96102000D01*
X91068000Y-45002000D02*
X92168000Y-46102000D01*
X92398000Y-97542000D02*
X92592000Y-97542000D01*
X42398000Y-97542000D02*
X42592000Y-97542000D01*
X92398000Y-47542000D02*
X92592000Y-47542000D01*
X92398000Y-97736000D02*
X92398000Y-97542000D01*
X42398000Y-97736000D02*
X42398000Y-97542000D01*
X92398000Y-47736000D02*
X92398000Y-47542000D01*
X90644000Y-95002000D02*
X91068000Y-95002000D01*
X40644000Y-95002000D02*
X41068000Y-95002000D01*
X90644000Y-45002000D02*
X91068000Y-45002000D01*
X92846000Y-97288000D02*
X92846000Y-96102000D01*
X42846000Y-97288000D02*
X42846000Y-96102000D01*
X92846000Y-47288000D02*
X92846000Y-46102000D01*
X92592000Y-97542000D02*
X92846000Y-97288000D01*
X42592000Y-97542000D02*
X42846000Y-97288000D01*
X92592000Y-47542000D02*
X92846000Y-47288000D01*
X90730000Y-99574000D02*
X90730000Y-99404000D01*
X40730000Y-99574000D02*
X40730000Y-99404000D01*
X90730000Y-49574000D02*
X90730000Y-49404000D01*
X90730000Y-99404000D02*
X92398000Y-97736000D01*
X40730000Y-99404000D02*
X42398000Y-97736000D01*
X90730000Y-49404000D02*
X92398000Y-47736000D01*
X40730000Y-49574000D02*
X40730000Y-49404000D01*
X40730000Y-49404000D02*
X42398000Y-47736000D01*
X42398000Y-47736000D02*
X42398000Y-47542000D01*
X42398000Y-47542000D02*
X42592000Y-47542000D01*
X42592000Y-47542000D02*
X42846000Y-47288000D01*
X42846000Y-47288000D02*
X42846000Y-46102000D01*
X40644000Y-45002000D02*
X41068000Y-45002000D01*
X41068000Y-45002000D02*
X42168000Y-46102000D01*
X42168000Y-46102000D02*
X42846000Y-46102000D01*
X90941000Y-123196000D02*
X93227000Y-120910000D01*
X40941000Y-123196000D02*
X43227000Y-120910000D01*
X90941000Y-73196000D02*
X93227000Y-70910000D01*
X90390000Y-123196000D02*
X90941000Y-123196000D01*
X40390000Y-123196000D02*
X40941000Y-123196000D01*
X90390000Y-73196000D02*
X90941000Y-73196000D01*
X93989000Y-110750000D02*
X96529000Y-108718000D01*
X43989000Y-110750000D02*
X46529000Y-108718000D01*
X93989000Y-60750000D02*
X96529000Y-58718000D01*
X93989000Y-115449000D02*
X93989000Y-110750000D01*
X43989000Y-115449000D02*
X43989000Y-110750000D01*
X93989000Y-65449000D02*
X93989000Y-60750000D01*
X93227000Y-116719000D02*
X93989000Y-115449000D01*
X43227000Y-116719000D02*
X43989000Y-115449000D01*
X93227000Y-66719000D02*
X93989000Y-65449000D01*
X93227000Y-120910000D02*
X93227000Y-116719000D01*
X43227000Y-120910000D02*
X43227000Y-116719000D01*
X93227000Y-70910000D02*
X93227000Y-66719000D01*
X96529000Y-108718000D02*
X99069000Y-108718000D01*
X46529000Y-108718000D02*
X49069000Y-108718000D01*
X96529000Y-58718000D02*
X99069000Y-58718000D01*
X40390000Y-73196000D02*
X40941000Y-73196000D01*
X40941000Y-73196000D02*
X43227000Y-70910000D01*
X43227000Y-70910000D02*
X43227000Y-66719000D01*
X43227000Y-66719000D02*
X43989000Y-65449000D01*
X43989000Y-65449000D02*
X43989000Y-60750000D01*
X43989000Y-60750000D02*
X46529000Y-58718000D01*
X46529000Y-58718000D02*
X49069000Y-58718000D01*
X92930000Y-98855000D02*
X92930000Y-99574000D01*
X42930000Y-98855000D02*
X42930000Y-99574000D01*
X92930000Y-48855000D02*
X92930000Y-49574000D01*
X99069000Y-97669000D02*
X98434000Y-97034000D01*
X49069000Y-97669000D02*
X48434000Y-97034000D01*
X99069000Y-47669000D02*
X98434000Y-47034000D01*
X98434000Y-97034000D02*
X94751000Y-97034000D01*
X48434000Y-97034000D02*
X44751000Y-97034000D01*
X98434000Y-47034000D02*
X94751000Y-47034000D01*
X94751000Y-97034000D02*
X92930000Y-98855000D01*
X44751000Y-97034000D02*
X42930000Y-98855000D01*
X94751000Y-47034000D02*
X92930000Y-48855000D01*
X99069000Y-98558000D02*
X99069000Y-97669000D01*
X49069000Y-98558000D02*
X49069000Y-97669000D01*
X99069000Y-48558000D02*
X99069000Y-47669000D01*
X49069000Y-48558000D02*
X49069000Y-47669000D01*
X42930000Y-48855000D02*
X42930000Y-49574000D01*
X44751000Y-47034000D02*
X42930000Y-48855000D01*
X48434000Y-47034000D02*
X44751000Y-47034000D01*
X49069000Y-47669000D02*
X48434000Y-47034000D01*
X113610000Y-98178000D02*
X113610000Y-96528000D01*
X63610000Y-98178000D02*
X63610000Y-96528000D01*
X113610000Y-48178000D02*
X113610000Y-46528000D01*
X114230000Y-96528000D02*
X114710000Y-97008000D01*
X64230000Y-96528000D02*
X64710000Y-97008000D01*
X114230000Y-46528000D02*
X114710000Y-47008000D01*
X113840000Y-96758000D02*
X113610000Y-96528000D01*
X63840000Y-96758000D02*
X63610000Y-96528000D01*
X113840000Y-46758000D02*
X113610000Y-46528000D01*
X113360000Y-96528000D02*
X114230000Y-96528000D01*
X63360000Y-96528000D02*
X64230000Y-96528000D01*
X113360000Y-46528000D02*
X114230000Y-46528000D01*
X114610000Y-97108000D02*
X114710000Y-97008000D01*
X64610000Y-97108000D02*
X64710000Y-97008000D01*
X114610000Y-47108000D02*
X114710000Y-47008000D01*
X114725000Y-97023000D02*
X114710000Y-97008000D01*
X64725000Y-97023000D02*
X64710000Y-97008000D01*
X114725000Y-47023000D02*
X114710000Y-47008000D01*
X117360000Y-98778000D02*
X117657000Y-99927000D01*
X67360000Y-98778000D02*
X67657000Y-99927000D01*
X117360000Y-48778000D02*
X117657000Y-49927000D01*
X114610000Y-98578000D02*
X114610000Y-97108000D01*
X64610000Y-98578000D02*
X64610000Y-97108000D01*
X114610000Y-48578000D02*
X114610000Y-47108000D01*
X63360000Y-46528000D02*
X64230000Y-46528000D01*
X64230000Y-46528000D02*
X64710000Y-47008000D01*
X64610000Y-48578000D02*
X64610000Y-47108000D01*
X64610000Y-47108000D02*
X64710000Y-47008000D01*
X63840000Y-46758000D02*
X63610000Y-46528000D01*
X64725000Y-47023000D02*
X64710000Y-47008000D01*
X67360000Y-48778000D02*
X67657000Y-49927000D01*
X63610000Y-48178000D02*
X63610000Y-46528000D01*
X123156000Y-124108000D02*
X123006000Y-123958000D01*
X73156000Y-124108000D02*
X73006000Y-123958000D01*
X123156000Y-74108000D02*
X123006000Y-73958000D01*
X123410000Y-124552000D02*
X122480000Y-125482000D01*
X73410000Y-124552000D02*
X72480000Y-125482000D01*
X123410000Y-74552000D02*
X122480000Y-75482000D01*
X120786000Y-125482000D02*
X120362000Y-125058000D01*
X70786000Y-125482000D02*
X70362000Y-125058000D01*
X120786000Y-75482000D02*
X120362000Y-75058000D01*
X122480000Y-125482000D02*
X120786000Y-125482000D01*
X72480000Y-125482000D02*
X70786000Y-125482000D01*
X122480000Y-75482000D02*
X120786000Y-75482000D01*
X123410000Y-123958000D02*
X123410000Y-124552000D01*
X73410000Y-123958000D02*
X73410000Y-124552000D01*
X123410000Y-73958000D02*
X123410000Y-74552000D01*
X117992000Y-124974000D02*
X117992000Y-125058000D01*
X67992000Y-124974000D02*
X67992000Y-125058000D01*
X117992000Y-74974000D02*
X117992000Y-75058000D01*
X116020000Y-123592000D02*
X116610000Y-123592000D01*
X66020000Y-123592000D02*
X66610000Y-123592000D01*
X116020000Y-73592000D02*
X116610000Y-73592000D01*
X116610000Y-123592000D02*
X117992000Y-124974000D01*
X66610000Y-123592000D02*
X67992000Y-124974000D01*
X116610000Y-73592000D02*
X117992000Y-74974000D01*
X120362000Y-125058000D02*
X117992000Y-125058000D01*
X70362000Y-125058000D02*
X67992000Y-125058000D01*
X120362000Y-75058000D02*
X117992000Y-75058000D01*
X72480000Y-75482000D02*
X70786000Y-75482000D01*
X70362000Y-75058000D02*
X67992000Y-75058000D01*
X70786000Y-75482000D02*
X70362000Y-75058000D01*
X73410000Y-73958000D02*
X73410000Y-74552000D01*
X73410000Y-74552000D02*
X72480000Y-75482000D01*
X73156000Y-74108000D02*
X73006000Y-73958000D01*
X66020000Y-73592000D02*
X66610000Y-73592000D01*
X66610000Y-73592000D02*
X67992000Y-74974000D01*
X67992000Y-74974000D02*
X67992000Y-75058000D01*
X117192000Y-94710000D02*
X117192000Y-94212000D01*
X67192000Y-94710000D02*
X67192000Y-94212000D01*
X117192000Y-44710000D02*
X117192000Y-44212000D01*
X115360000Y-94348000D02*
X117132000Y-94152000D01*
X65360000Y-94348000D02*
X67132000Y-94152000D01*
X115360000Y-44348000D02*
X117132000Y-44152000D01*
X117132000Y-94152000D02*
X117192000Y-94212000D01*
X67132000Y-94152000D02*
X67192000Y-94212000D01*
X117132000Y-44152000D02*
X117192000Y-44212000D01*
X117865000Y-95383000D02*
X117192000Y-94710000D01*
X67865000Y-95383000D02*
X67192000Y-94710000D01*
X117865000Y-45383000D02*
X117192000Y-44710000D01*
X115360000Y-93773000D02*
X115360000Y-94348000D01*
X65360000Y-93773000D02*
X65360000Y-94348000D01*
X115360000Y-43773000D02*
X115360000Y-44348000D01*
X113380000Y-94348000D02*
X113360000Y-94328000D01*
X63380000Y-94348000D02*
X63360000Y-94328000D01*
X113380000Y-44348000D02*
X113360000Y-44328000D01*
X115360000Y-94348000D02*
X113380000Y-94348000D01*
X65360000Y-94348000D02*
X63380000Y-94348000D01*
X115360000Y-44348000D02*
X113380000Y-44348000D01*
X120786000Y-95383000D02*
X117865000Y-95383000D01*
X70786000Y-95383000D02*
X67865000Y-95383000D01*
X120786000Y-45383000D02*
X117865000Y-45383000D01*
X121260000Y-94909000D02*
X120786000Y-95383000D01*
X71260000Y-94909000D02*
X70786000Y-95383000D01*
X121260000Y-44909000D02*
X120786000Y-45383000D01*
X121260000Y-94178000D02*
X121260000Y-94909000D01*
X71260000Y-94178000D02*
X71260000Y-94909000D01*
X121260000Y-44178000D02*
X121260000Y-44909000D01*
X71260000Y-44178000D02*
X71260000Y-44909000D01*
X67192000Y-44710000D02*
X67192000Y-44212000D01*
X67865000Y-45383000D02*
X67192000Y-44710000D01*
X70786000Y-45383000D02*
X67865000Y-45383000D01*
X71260000Y-44909000D02*
X70786000Y-45383000D01*
X65360000Y-44348000D02*
X63380000Y-44348000D01*
X63380000Y-44348000D02*
X63360000Y-44328000D01*
X65360000Y-44348000D02*
X67132000Y-44152000D01*
X67132000Y-44152000D02*
X67192000Y-44212000D01*
X65360000Y-43773000D02*
X65360000Y-44348000D01*
X113336000Y-126160000D02*
X113336000Y-124974000D01*
X63336000Y-126160000D02*
X63336000Y-124974000D01*
X113336000Y-76160000D02*
X113336000Y-74974000D01*
X113336000Y-124974000D02*
X113336000Y-122966000D01*
X63336000Y-124974000D02*
X63336000Y-122966000D01*
X113336000Y-74974000D02*
X113336000Y-72966000D01*
X113336000Y-122966000D02*
X113360000Y-122942000D01*
X63336000Y-122966000D02*
X63360000Y-122942000D01*
X113336000Y-72966000D02*
X113360000Y-72942000D01*
X113928000Y-126752000D02*
X113336000Y-126160000D01*
X63928000Y-126752000D02*
X63336000Y-126160000D01*
X113928000Y-76752000D02*
X113336000Y-76160000D01*
X126204000Y-125482000D02*
X126374000Y-125312000D01*
X76204000Y-125482000D02*
X76374000Y-125312000D01*
X126204000Y-75482000D02*
X126374000Y-75312000D01*
X124680000Y-125482000D02*
X124680000Y-126160000D01*
X74680000Y-125482000D02*
X74680000Y-126160000D01*
X124680000Y-75482000D02*
X124680000Y-76160000D01*
X124680000Y-126160000D02*
X124088000Y-126752000D01*
X74680000Y-126160000D02*
X74088000Y-126752000D01*
X124680000Y-76160000D02*
X124088000Y-76752000D01*
X124680000Y-125482000D02*
X126204000Y-125482000D01*
X74680000Y-125482000D02*
X76204000Y-125482000D01*
X124680000Y-75482000D02*
X126204000Y-75482000D01*
X124088000Y-126752000D02*
X113928000Y-126752000D01*
X74088000Y-126752000D02*
X63928000Y-126752000D01*
X124088000Y-76752000D02*
X113928000Y-76752000D01*
X74680000Y-75482000D02*
X74680000Y-76160000D01*
X63336000Y-76160000D02*
X63336000Y-74974000D01*
X63928000Y-76752000D02*
X63336000Y-76160000D01*
X74088000Y-76752000D02*
X63928000Y-76752000D01*
X74680000Y-76160000D02*
X74088000Y-76752000D01*
X74680000Y-75482000D02*
X76204000Y-75482000D01*
X76204000Y-75482000D02*
X76374000Y-75312000D01*
X63336000Y-74974000D02*
X63336000Y-72966000D01*
X63336000Y-72966000D02*
X63360000Y-72942000D01*
X112023000Y-97542000D02*
X112023000Y-93478000D01*
X62023000Y-97542000D02*
X62023000Y-93478000D01*
X112023000Y-47542000D02*
X112023000Y-43478000D01*
X112023000Y-93478000D02*
X112658000Y-92843000D01*
X62023000Y-93478000D02*
X62658000Y-92843000D01*
X112023000Y-43478000D02*
X112658000Y-42843000D01*
X112658000Y-92843000D02*
X119008000Y-92843000D01*
X62658000Y-92843000D02*
X69008000Y-92843000D01*
X112658000Y-42843000D02*
X119008000Y-42843000D01*
X119008000Y-92843000D02*
X119392000Y-93227000D01*
X69008000Y-92843000D02*
X69392000Y-93227000D01*
X119008000Y-42843000D02*
X119392000Y-43227000D01*
X119392000Y-93227000D02*
X119392000Y-94212000D01*
X69392000Y-93227000D02*
X69392000Y-94212000D01*
X119392000Y-43227000D02*
X119392000Y-44212000D01*
X108467000Y-101098000D02*
X112023000Y-97542000D01*
X58467000Y-101098000D02*
X62023000Y-97542000D01*
X108467000Y-51098000D02*
X112023000Y-47542000D01*
X106689000Y-101098000D02*
X108467000Y-101098000D01*
X56689000Y-101098000D02*
X58467000Y-101098000D01*
X106689000Y-51098000D02*
X108467000Y-51098000D01*
X56689000Y-51098000D02*
X58467000Y-51098000D01*
X69392000Y-43227000D02*
X69392000Y-44212000D01*
X69008000Y-42843000D02*
X69392000Y-43227000D01*
X62658000Y-42843000D02*
X69008000Y-42843000D01*
X62023000Y-43478000D02*
X62658000Y-42843000D01*
X62023000Y-47542000D02*
X62023000Y-43478000D01*
X58467000Y-51098000D02*
X62023000Y-47542000D01*
X112150000Y-121672000D02*
X111769000Y-121291000D01*
X62150000Y-121672000D02*
X61769000Y-121291000D01*
X112150000Y-71672000D02*
X111769000Y-71291000D01*
X111769000Y-121291000D02*
X111769000Y-115957000D01*
X61769000Y-121291000D02*
X61769000Y-115957000D01*
X111769000Y-71291000D02*
X111769000Y-65957000D01*
X115536000Y-124974000D02*
X116214000Y-124974000D01*
X65536000Y-124974000D02*
X66214000Y-124974000D01*
X115536000Y-74974000D02*
X116214000Y-74974000D01*
X111007000Y-112782000D02*
X109483000Y-111258000D01*
X61007000Y-112782000D02*
X59483000Y-111258000D01*
X111007000Y-62782000D02*
X109483000Y-61258000D01*
X109483000Y-111258000D02*
X106689000Y-111258000D01*
X59483000Y-111258000D02*
X56689000Y-111258000D01*
X109483000Y-61258000D02*
X106689000Y-61258000D01*
X111769000Y-115957000D02*
X111007000Y-115195000D01*
X61769000Y-115957000D02*
X61007000Y-115195000D01*
X111769000Y-65957000D02*
X111007000Y-65195000D01*
X111007000Y-115195000D02*
X111007000Y-112782000D01*
X61007000Y-115195000D02*
X61007000Y-112782000D01*
X111007000Y-65195000D02*
X111007000Y-62782000D01*
X65536000Y-74974000D02*
X66214000Y-74974000D01*
X59483000Y-61258000D02*
X56689000Y-61258000D01*
X61007000Y-62782000D02*
X59483000Y-61258000D01*
X61007000Y-65195000D02*
X61007000Y-62782000D01*
X61769000Y-65957000D02*
X61007000Y-65195000D01*
X61769000Y-71291000D02*
X61769000Y-65957000D01*
X62150000Y-71672000D02*
X61769000Y-71291000D01*
D27*
X104657000Y-121545000D02*
X104149000Y-121037000D01*
X54657000Y-121545000D02*
X54149000Y-121037000D01*
X104657000Y-71545000D02*
X104149000Y-71037000D01*
X104149000Y-121037000D02*
X104149000Y-122053000D01*
X54149000Y-121037000D02*
X54149000Y-122053000D01*
X104149000Y-71037000D02*
X104149000Y-72053000D01*
X104149000Y-121037000D02*
X104149000Y-117989000D01*
X54149000Y-121037000D02*
X54149000Y-117989000D01*
X104149000Y-71037000D02*
X104149000Y-67989000D01*
X105927000Y-121545000D02*
X104657000Y-121545000D01*
X55927000Y-121545000D02*
X54657000Y-121545000D01*
X105927000Y-71545000D02*
X104657000Y-71545000D01*
X104403000Y-122307000D02*
X104403000Y-123323000D01*
X54403000Y-122307000D02*
X54403000Y-123323000D01*
X104403000Y-72307000D02*
X104403000Y-73323000D01*
X104149000Y-122053000D02*
X104403000Y-122307000D01*
X54149000Y-122053000D02*
X54403000Y-122307000D01*
X104149000Y-72053000D02*
X104403000Y-72307000D01*
X104403000Y-123323000D02*
X103829000Y-123897000D01*
X54403000Y-123323000D02*
X53829000Y-123897000D01*
X104403000Y-73323000D02*
X103829000Y-73897000D01*
X103829000Y-123897000D02*
X103829000Y-127514000D01*
X53829000Y-123897000D02*
X53829000Y-127514000D01*
X103829000Y-73897000D02*
X103829000Y-77514000D01*
X112338000Y-105403000D02*
X113847000Y-106912000D01*
X62338000Y-105403000D02*
X63847000Y-106912000D01*
X112338000Y-55403000D02*
X113847000Y-56912000D01*
X112338000Y-104908000D02*
X112338000Y-105403000D01*
X62338000Y-104908000D02*
X62338000Y-105403000D01*
X112338000Y-54908000D02*
X112338000Y-55403000D01*
X105165000Y-87382000D02*
X105165000Y-89922000D01*
X55165000Y-87382000D02*
X55165000Y-89922000D01*
X105165000Y-37382000D02*
X105165000Y-39922000D01*
X107324000Y-87382000D02*
X107705000Y-87763000D01*
X57324000Y-87382000D02*
X57705000Y-87763000D01*
X107324000Y-37382000D02*
X107705000Y-37763000D01*
X105165000Y-87382000D02*
X107324000Y-87382000D01*
X55165000Y-87382000D02*
X57324000Y-87382000D01*
X105165000Y-37382000D02*
X107324000Y-37382000D01*
X107705000Y-87763000D02*
X107705000Y-87956000D01*
X57705000Y-87763000D02*
X57705000Y-87956000D01*
X107705000Y-37763000D02*
X107705000Y-37956000D01*
X103829000Y-127514000D02*
X103829000Y-127829000D01*
X53829000Y-127514000D02*
X53829000Y-127829000D01*
X103829000Y-77514000D02*
X103829000Y-77829000D01*
X104530000Y-128657000D02*
X107535000Y-128657000D01*
X54530000Y-128657000D02*
X57535000Y-128657000D01*
X104530000Y-78657000D02*
X107535000Y-78657000D01*
X103829000Y-127514000D02*
X103829000Y-127956000D01*
X53829000Y-127514000D02*
X53829000Y-127956000D01*
X103829000Y-77514000D02*
X103829000Y-77956000D01*
X103829000Y-127956000D02*
X104530000Y-128657000D01*
X53829000Y-127956000D02*
X54530000Y-128657000D01*
X103829000Y-77956000D02*
X104530000Y-78657000D01*
X107535000Y-128657000D02*
X107959000Y-128233000D01*
X57535000Y-128657000D02*
X57959000Y-128233000D01*
X107535000Y-78657000D02*
X107959000Y-78233000D01*
X53829000Y-77514000D02*
X53829000Y-77956000D01*
X54530000Y-78657000D02*
X57535000Y-78657000D01*
X53829000Y-77956000D02*
X54530000Y-78657000D01*
X57535000Y-78657000D02*
X57959000Y-78233000D01*
X53829000Y-77514000D02*
X53829000Y-77829000D01*
X54149000Y-71037000D02*
X54149000Y-72053000D01*
X53829000Y-73897000D02*
X53829000Y-77514000D01*
X54403000Y-73323000D02*
X53829000Y-73897000D01*
X54403000Y-72307000D02*
X54403000Y-73323000D01*
X54149000Y-72053000D02*
X54403000Y-72307000D01*
X62338000Y-54908000D02*
X62338000Y-55403000D01*
X62338000Y-55403000D02*
X63847000Y-56912000D01*
X55927000Y-71545000D02*
X54657000Y-71545000D01*
X54149000Y-71037000D02*
X54149000Y-67989000D01*
X54657000Y-71545000D02*
X54149000Y-71037000D01*
X55165000Y-37382000D02*
X57324000Y-37382000D01*
X57324000Y-37382000D02*
X57705000Y-37763000D01*
X57705000Y-37763000D02*
X57705000Y-37956000D01*
X55165000Y-37382000D02*
X55165000Y-39922000D01*
M02*
