M48
;DRILL file {KiCad 4.0.6} date 07/25/17 21:38:16
;FORMAT={-:-/ absolute / metric / decimal}
FMAT,2
METRIC,TZ
T1C0.600
T2C0.800
T3C1.000
%
G90
G05
M71
T1
X29.003Y-76.244
X29.003Y-126.244
X31.67Y-70.148
X31.67Y-120.148
X32.432Y-50.59
X32.432Y-100.59
X34.21Y-50.082
X34.21Y-100.082
X35.226Y-77.768
X35.226Y-127.768
X37.385Y-43.097
X37.385Y-71.672
X37.385Y-93.097
X37.385Y-121.672
X40.052Y-40.938
X40.052Y-90.938
X41.322Y-71.291
X41.322Y-121.291
X41.576Y-61.512
X41.576Y-111.512
X42.211Y-39.922
X42.211Y-89.922
X43.735Y-72.053
X43.735Y-122.053
X45.386Y-71.545
X45.386Y-121.545
X46.148Y-66.465
X46.148Y-116.465
X47.164Y-48.431
X47.164Y-98.431
X47.418Y-74.339
X47.418Y-124.339
X48.561Y-75.99
X48.561Y-125.99
X51.863Y-66.465
X51.863Y-116.465
X52.879Y-72.815
X52.879Y-122.815
X54.149Y-67.989
X54.149Y-117.989
X55.546Y-76.879
X55.546Y-126.879
X57.959Y-74.212
X57.959Y-124.212
X58.848Y-52.622
X58.848Y-102.622
X60.075Y-71.545
X60.075Y-121.545
X60.499Y-68.497
X60.499Y-118.497
X61.007Y-56.94
X61.007Y-106.94
X62.15Y-71.672
X62.15Y-121.672
X62.785Y-77.768
X62.785Y-127.768
X63.61Y-48.178
X63.61Y-98.178
X65.198Y-63.163
X65.198Y-113.163
X66.214Y-74.974
X66.214Y-124.974
X67.657Y-49.927
X67.657Y-99.927
X69.516Y-73.45
X69.516Y-123.45
X70.532Y-59.734
X70.532Y-109.734
X71.802Y-70.91
X71.802Y-120.91
X74.469Y-46.272
X74.469Y-96.272
X74.977Y-61.766
X74.977Y-111.766
X75.358Y-44.24
X75.358Y-47.796
X75.358Y-72.434
X75.358Y-94.24
X75.358Y-97.796
X75.358Y-122.434
X79.003Y-76.244
X79.003Y-126.244
X81.67Y-70.148
X81.67Y-120.148
X82.432Y-50.59
X82.432Y-100.59
X84.21Y-50.082
X84.21Y-100.082
X85.226Y-77.768
X85.226Y-127.768
X87.385Y-43.097
X87.385Y-71.672
X87.385Y-93.097
X87.385Y-121.672
X90.052Y-40.938
X90.052Y-90.938
X91.322Y-71.291
X91.322Y-121.291
X91.576Y-61.512
X91.576Y-111.512
X92.211Y-39.922
X92.211Y-89.922
X93.735Y-72.053
X93.735Y-122.053
X95.386Y-71.545
X95.386Y-121.545
X96.148Y-66.465
X96.148Y-116.465
X97.164Y-48.431
X97.164Y-98.431
X97.418Y-74.339
X97.418Y-124.339
X98.561Y-75.99
X98.561Y-125.99
X101.863Y-66.465
X101.863Y-116.465
X102.879Y-72.815
X102.879Y-122.815
X104.149Y-67.989
X104.149Y-117.989
X105.546Y-76.879
X105.546Y-126.879
X107.959Y-74.212
X107.959Y-124.212
X108.848Y-52.622
X108.848Y-102.622
X110.075Y-71.545
X110.075Y-121.545
X110.499Y-68.497
X110.499Y-118.497
X111.007Y-56.94
X111.007Y-106.94
X112.15Y-71.672
X112.15Y-121.672
X112.785Y-77.768
X112.785Y-127.768
X113.61Y-48.178
X113.61Y-98.178
X115.198Y-63.163
X115.198Y-113.163
X116.214Y-74.974
X116.214Y-124.974
X117.657Y-49.927
X117.657Y-99.927
X119.516Y-73.45
X119.516Y-123.45
X120.532Y-59.734
X120.532Y-109.734
X121.802Y-70.91
X121.802Y-120.91
X124.469Y-46.272
X124.469Y-96.272
X124.977Y-61.766
X124.977Y-111.766
X125.358Y-44.24
X125.358Y-47.796
X125.358Y-72.434
X125.358Y-94.24
X125.358Y-97.796
X125.358Y-122.434
T2
X30.4Y-53.384
X30.4Y-55.924
X30.4Y-58.464
X30.4Y-63.29
X30.4Y-65.83
X30.4Y-68.37
X30.4Y-103.384
X30.4Y-105.924
X30.4Y-108.464
X30.4Y-113.29
X30.4Y-115.83
X30.4Y-118.37
X34.464Y-56.94
X34.464Y-64.56
X34.464Y-106.94
X34.464Y-114.56
X37.004Y-56.94
X37.004Y-64.56
X37.004Y-106.94
X37.004Y-114.56
X39.544Y-56.94
X39.544Y-64.56
X39.544Y-106.94
X39.544Y-114.56
X42.084Y-56.94
X42.084Y-64.56
X42.084Y-106.94
X42.084Y-114.56
X49.069Y-44.494
X49.069Y-48.558
X49.069Y-51.098
X49.069Y-53.638
X49.069Y-56.178
X49.069Y-58.718
X49.069Y-61.258
X49.069Y-63.798
X49.069Y-94.494
X49.069Y-98.558
X49.069Y-101.098
X49.069Y-103.638
X49.069Y-106.178
X49.069Y-108.718
X49.069Y-111.258
X49.069Y-113.798
X51.609Y-44.494
X51.609Y-94.494
X54.149Y-44.494
X54.149Y-94.494
X56.689Y-48.558
X56.689Y-51.098
X56.689Y-53.638
X56.689Y-56.178
X56.689Y-58.718
X56.689Y-61.258
X56.689Y-63.798
X56.689Y-98.558
X56.689Y-101.098
X56.689Y-103.638
X56.689Y-106.178
X56.689Y-108.718
X56.689Y-111.258
X56.689Y-113.798
X63.847Y-56.912
X63.847Y-64.532
X63.847Y-106.912
X63.847Y-114.532
X66.387Y-56.912
X66.387Y-64.532
X66.387Y-106.912
X66.387Y-114.532
X68.927Y-56.912
X68.927Y-64.532
X68.927Y-106.912
X68.927Y-114.532
X71.467Y-56.912
X71.467Y-64.532
X71.467Y-106.912
X71.467Y-114.532
X75.358Y-54.654
X75.358Y-57.194
X75.358Y-59.734
X75.358Y-64.56
X75.358Y-67.1
X75.358Y-69.64
X75.358Y-104.654
X75.358Y-107.194
X75.358Y-109.734
X75.358Y-114.56
X75.358Y-117.1
X75.358Y-119.64
X80.4Y-53.384
X80.4Y-55.924
X80.4Y-58.464
X80.4Y-63.29
X80.4Y-65.83
X80.4Y-68.37
X80.4Y-103.384
X80.4Y-105.924
X80.4Y-108.464
X80.4Y-113.29
X80.4Y-115.83
X80.4Y-118.37
X84.464Y-56.94
X84.464Y-64.56
X84.464Y-106.94
X84.464Y-114.56
X87.004Y-56.94
X87.004Y-64.56
X87.004Y-106.94
X87.004Y-114.56
X89.544Y-56.94
X89.544Y-64.56
X89.544Y-106.94
X89.544Y-114.56
X92.084Y-56.94
X92.084Y-64.56
X92.084Y-106.94
X92.084Y-114.56
X99.069Y-44.494
X99.069Y-48.558
X99.069Y-51.098
X99.069Y-53.638
X99.069Y-56.178
X99.069Y-58.718
X99.069Y-61.258
X99.069Y-63.798
X99.069Y-94.494
X99.069Y-98.558
X99.069Y-101.098
X99.069Y-103.638
X99.069Y-106.178
X99.069Y-108.718
X99.069Y-111.258
X99.069Y-113.798
X101.609Y-44.494
X101.609Y-94.494
X104.149Y-44.494
X104.149Y-94.494
X106.689Y-48.558
X106.689Y-51.098
X106.689Y-53.638
X106.689Y-56.178
X106.689Y-58.718
X106.689Y-61.258
X106.689Y-63.798
X106.689Y-98.558
X106.689Y-101.098
X106.689Y-103.638
X106.689Y-106.178
X106.689Y-108.718
X106.689Y-111.258
X106.689Y-113.798
X113.847Y-56.912
X113.847Y-64.532
X113.847Y-106.912
X113.847Y-114.532
X116.387Y-56.912
X116.387Y-64.532
X116.387Y-106.912
X116.387Y-114.532
X118.927Y-56.912
X118.927Y-64.532
X118.927Y-106.912
X118.927Y-114.532
X121.467Y-56.912
X121.467Y-64.532
X121.467Y-106.912
X121.467Y-114.532
X125.358Y-54.654
X125.358Y-57.194
X125.358Y-59.734
X125.358Y-64.56
X125.358Y-67.1
X125.358Y-69.64
X125.358Y-104.654
X125.358Y-107.194
X125.358Y-109.734
X125.358Y-114.56
X125.358Y-117.1
X125.358Y-119.64
T3
X29.765Y-81.705
X29.765Y-131.705
X32.305Y-81.705
X32.305Y-131.705
X34.845Y-81.705
X34.845Y-131.705
X35.226Y-37.89
X35.226Y-87.89
X37.385Y-81.705
X37.385Y-131.705
X37.766Y-37.89
X37.766Y-87.89
X39.544Y-67.1
X39.544Y-69.64
X39.544Y-117.1
X39.544Y-119.64
X40.306Y-37.89
X40.306Y-87.89
X42.084Y-51.86
X42.084Y-54.4
X42.084Y-101.86
X42.084Y-104.4
X42.465Y-81.705
X42.465Y-131.705
X42.846Y-37.89
X42.846Y-87.89
X45.005Y-81.705
X45.005Y-131.705
X47.545Y-81.705
X47.545Y-131.705
X50.085Y-37.382
X50.085Y-39.922
X50.085Y-81.705
X50.085Y-87.382
X50.085Y-89.922
X50.085Y-131.705
X52.625Y-37.382
X52.625Y-39.922
X52.625Y-87.382
X52.625Y-89.922
X55.165Y-37.382
X55.165Y-39.922
X55.165Y-87.382
X55.165Y-89.922
X63.928Y-67.1
X63.928Y-69.64
X63.928Y-117.1
X63.928Y-119.64
X66.387Y-51.832
X66.387Y-54.372
X66.387Y-101.832
X66.387Y-104.372
X79.765Y-81.705
X79.765Y-131.705
X82.305Y-81.705
X82.305Y-131.705
X84.845Y-81.705
X84.845Y-131.705
X85.226Y-37.89
X85.226Y-87.89
X87.385Y-81.705
X87.385Y-131.705
X87.766Y-37.89
X87.766Y-87.89
X89.544Y-67.1
X89.544Y-69.64
X89.544Y-117.1
X89.544Y-119.64
X90.306Y-37.89
X90.306Y-87.89
X92.084Y-51.86
X92.084Y-54.4
X92.084Y-101.86
X92.084Y-104.4
X92.465Y-81.705
X92.465Y-131.705
X92.846Y-37.89
X92.846Y-87.89
X95.005Y-81.705
X95.005Y-131.705
X97.545Y-81.705
X97.545Y-131.705
X100.085Y-37.382
X100.085Y-39.922
X100.085Y-81.705
X100.085Y-87.382
X100.085Y-89.922
X100.085Y-131.705
X102.625Y-37.382
X102.625Y-39.922
X102.625Y-87.382
X102.625Y-89.922
X105.165Y-37.382
X105.165Y-39.922
X105.165Y-87.382
X105.165Y-89.922
X113.928Y-67.1
X113.928Y-69.64
X113.928Y-117.1
X113.928Y-119.64
X116.387Y-51.832
X116.387Y-54.372
X116.387Y-101.832
X116.387Y-104.372
T0
M30
