G04 #@! TF.FileFunction,Copper,L2,Bot,Signal*
%FSLAX46Y46*%
G04 Gerber Fmt 4.6, Leading zero omitted, Abs format (unit mm)*
G04 Created by KiCad (PCBNEW 4.0.6) date 07/25/17 21:38:10*
%MOMM*%
%LPD*%
G01*
G04 APERTURE LIST*
%ADD10C,0.100000*%
%ADD11R,1.200000X0.750000*%
%ADD12R,1.700000X1.700000*%
%ADD13O,1.700000X1.700000*%
%ADD14R,1.600000X1.600000*%
%ADD15O,1.600000X1.600000*%
%ADD16C,1.440000*%
%ADD17C,1.520000*%
%ADD18R,1.520000X1.520000*%
%ADD19C,1.000000*%
%ADD20C,0.800000*%
%ADD21C,0.300000*%
G04 APERTURE END LIST*
D10*
D11*
X104469000Y-116211000D03*
X106369000Y-116211000D03*
X54469000Y-116211000D03*
X56369000Y-116211000D03*
X104469000Y-66211000D03*
X106369000Y-66211000D03*
D12*
X116387000Y-101832000D03*
D13*
X116387000Y-104372000D03*
D12*
X66387000Y-101832000D03*
D13*
X66387000Y-104372000D03*
D12*
X116387000Y-51832000D03*
D13*
X116387000Y-54372000D03*
D14*
X121467000Y-106912000D03*
D15*
X113847000Y-114532000D03*
X118927000Y-106912000D03*
X116387000Y-114532000D03*
X116387000Y-106912000D03*
X118927000Y-114532000D03*
X113847000Y-106912000D03*
X121467000Y-114532000D03*
D14*
X71467000Y-106912000D03*
D15*
X63847000Y-114532000D03*
X68927000Y-106912000D03*
X66387000Y-114532000D03*
X66387000Y-106912000D03*
X68927000Y-114532000D03*
X63847000Y-106912000D03*
X71467000Y-114532000D03*
D14*
X121467000Y-56912000D03*
D15*
X113847000Y-64532000D03*
X118927000Y-56912000D03*
X116387000Y-64532000D03*
X116387000Y-56912000D03*
X118927000Y-64532000D03*
X113847000Y-56912000D03*
X121467000Y-64532000D03*
D16*
X125358000Y-104654000D03*
X125358000Y-107194000D03*
X125358000Y-109734000D03*
X75358000Y-104654000D03*
X75358000Y-107194000D03*
X75358000Y-109734000D03*
X125358000Y-54654000D03*
X125358000Y-57194000D03*
X125358000Y-59734000D03*
D12*
X113928000Y-119640000D03*
D13*
X113928000Y-117100000D03*
D12*
X63928000Y-119640000D03*
D13*
X63928000Y-117100000D03*
D12*
X113928000Y-69640000D03*
D13*
X113928000Y-67100000D03*
D16*
X125358000Y-114560000D03*
X125358000Y-117100000D03*
X125358000Y-119640000D03*
X75358000Y-114560000D03*
X75358000Y-117100000D03*
X75358000Y-119640000D03*
X125358000Y-64560000D03*
X125358000Y-67100000D03*
X125358000Y-69640000D03*
D14*
X99069000Y-98558000D03*
D15*
X106689000Y-113798000D03*
X99069000Y-101098000D03*
X106689000Y-111258000D03*
X99069000Y-103638000D03*
X106689000Y-108718000D03*
X99069000Y-106178000D03*
X106689000Y-106178000D03*
X99069000Y-108718000D03*
X106689000Y-103638000D03*
X99069000Y-111258000D03*
X106689000Y-101098000D03*
X99069000Y-113798000D03*
X106689000Y-98558000D03*
D14*
X49069000Y-98558000D03*
D15*
X56689000Y-113798000D03*
X49069000Y-101098000D03*
X56689000Y-111258000D03*
X49069000Y-103638000D03*
X56689000Y-108718000D03*
X49069000Y-106178000D03*
X56689000Y-106178000D03*
X49069000Y-108718000D03*
X56689000Y-103638000D03*
X49069000Y-111258000D03*
X56689000Y-101098000D03*
X49069000Y-113798000D03*
X56689000Y-98558000D03*
D14*
X99069000Y-48558000D03*
D15*
X106689000Y-63798000D03*
X99069000Y-51098000D03*
X106689000Y-61258000D03*
X99069000Y-53638000D03*
X106689000Y-58718000D03*
X99069000Y-56178000D03*
X106689000Y-56178000D03*
X99069000Y-58718000D03*
X106689000Y-53638000D03*
X99069000Y-61258000D03*
X106689000Y-51098000D03*
X99069000Y-63798000D03*
X106689000Y-48558000D03*
D12*
X92084000Y-101860000D03*
D13*
X92084000Y-104400000D03*
D12*
X42084000Y-101860000D03*
D13*
X42084000Y-104400000D03*
D12*
X92084000Y-51860000D03*
D13*
X92084000Y-54400000D03*
D14*
X84464000Y-114560000D03*
D15*
X92084000Y-106940000D03*
X87004000Y-114560000D03*
X89544000Y-106940000D03*
X89544000Y-114560000D03*
X87004000Y-106940000D03*
X92084000Y-114560000D03*
X84464000Y-106940000D03*
D14*
X34464000Y-114560000D03*
D15*
X42084000Y-106940000D03*
X37004000Y-114560000D03*
X39544000Y-106940000D03*
X39544000Y-114560000D03*
X37004000Y-106940000D03*
X42084000Y-114560000D03*
X34464000Y-106940000D03*
D14*
X84464000Y-64560000D03*
D15*
X92084000Y-56940000D03*
X87004000Y-64560000D03*
X89544000Y-56940000D03*
X89544000Y-64560000D03*
X87004000Y-56940000D03*
X92084000Y-64560000D03*
X84464000Y-56940000D03*
D16*
X80400000Y-108464000D03*
X80400000Y-105924000D03*
X80400000Y-103384000D03*
X30400000Y-108464000D03*
X30400000Y-105924000D03*
X30400000Y-103384000D03*
X80400000Y-58464000D03*
X80400000Y-55924000D03*
X80400000Y-53384000D03*
D12*
X85226000Y-87890000D03*
X35226000Y-87890000D03*
X85226000Y-37890000D03*
X90306000Y-87890000D03*
X40306000Y-87890000D03*
X90306000Y-37890000D03*
X92846000Y-87890000D03*
X42846000Y-87890000D03*
X92846000Y-37890000D03*
X87766000Y-87890000D03*
X37766000Y-87890000D03*
X87766000Y-37890000D03*
D17*
X101609000Y-94494000D03*
X99069000Y-94494000D03*
D18*
X104149000Y-94494000D03*
D17*
X51609000Y-94494000D03*
X49069000Y-94494000D03*
D18*
X54149000Y-94494000D03*
D17*
X101609000Y-44494000D03*
X99069000Y-44494000D03*
D18*
X104149000Y-44494000D03*
D12*
X100085000Y-89922000D03*
D13*
X102625000Y-89922000D03*
X105165000Y-89922000D03*
D12*
X50085000Y-89922000D03*
D13*
X52625000Y-89922000D03*
X55165000Y-89922000D03*
D12*
X100085000Y-39922000D03*
D13*
X102625000Y-39922000D03*
X105165000Y-39922000D03*
D12*
X100085000Y-87382000D03*
D13*
X102625000Y-87382000D03*
X105165000Y-87382000D03*
D12*
X50085000Y-87382000D03*
D13*
X52625000Y-87382000D03*
X55165000Y-87382000D03*
D12*
X100085000Y-37382000D03*
D13*
X102625000Y-37382000D03*
X105165000Y-37382000D03*
D12*
X95005000Y-131705000D03*
X45005000Y-131705000D03*
X95005000Y-81705000D03*
X97545000Y-131705000D03*
X47545000Y-131705000D03*
X97545000Y-81705000D03*
X100085000Y-131705000D03*
X50085000Y-131705000D03*
X100085000Y-81705000D03*
X79765000Y-131705000D03*
X29765000Y-131705000D03*
X79765000Y-81705000D03*
X82305000Y-131705000D03*
X32305000Y-131705000D03*
X82305000Y-81705000D03*
X84845000Y-131705000D03*
X34845000Y-131705000D03*
X84845000Y-81705000D03*
X92465000Y-131705000D03*
X42465000Y-131705000D03*
X92465000Y-81705000D03*
X87385000Y-131705000D03*
X37385000Y-131705000D03*
X87385000Y-81705000D03*
X89544000Y-119640000D03*
D13*
X89544000Y-117100000D03*
D12*
X39544000Y-119640000D03*
D13*
X39544000Y-117100000D03*
D12*
X89544000Y-69640000D03*
D13*
X89544000Y-67100000D03*
D16*
X80400000Y-118370000D03*
X80400000Y-115830000D03*
X80400000Y-113290000D03*
X30400000Y-118370000D03*
X30400000Y-115830000D03*
X30400000Y-113290000D03*
X80400000Y-68370000D03*
X80400000Y-65830000D03*
X80400000Y-63290000D03*
D11*
X54469000Y-66211000D03*
X56369000Y-66211000D03*
D12*
X50085000Y-39922000D03*
D13*
X52625000Y-39922000D03*
X55165000Y-39922000D03*
D12*
X50085000Y-37382000D03*
D13*
X52625000Y-37382000D03*
X55165000Y-37382000D03*
D14*
X71467000Y-56912000D03*
D15*
X63847000Y-64532000D03*
X68927000Y-56912000D03*
X66387000Y-64532000D03*
X66387000Y-56912000D03*
X68927000Y-64532000D03*
X63847000Y-56912000D03*
X71467000Y-64532000D03*
D14*
X34464000Y-64560000D03*
D15*
X42084000Y-56940000D03*
X37004000Y-64560000D03*
X39544000Y-56940000D03*
X39544000Y-64560000D03*
X37004000Y-56940000D03*
X42084000Y-64560000D03*
X34464000Y-56940000D03*
D16*
X75358000Y-64560000D03*
X75358000Y-67100000D03*
X75358000Y-69640000D03*
X75358000Y-54654000D03*
X75358000Y-57194000D03*
X75358000Y-59734000D03*
X30400000Y-58464000D03*
X30400000Y-55924000D03*
X30400000Y-53384000D03*
X30400000Y-68370000D03*
X30400000Y-65830000D03*
X30400000Y-63290000D03*
D12*
X63928000Y-69640000D03*
D13*
X63928000Y-67100000D03*
D12*
X66387000Y-51832000D03*
D13*
X66387000Y-54372000D03*
D12*
X42084000Y-51860000D03*
D13*
X42084000Y-54400000D03*
D12*
X39544000Y-69640000D03*
D13*
X39544000Y-67100000D03*
D12*
X42846000Y-37890000D03*
X40306000Y-37890000D03*
X50085000Y-81705000D03*
X47545000Y-81705000D03*
X37385000Y-81705000D03*
X34845000Y-81705000D03*
X37766000Y-37890000D03*
X35226000Y-37890000D03*
X45005000Y-81705000D03*
X42465000Y-81705000D03*
X32305000Y-81705000D03*
X29765000Y-81705000D03*
D14*
X49069000Y-48558000D03*
D15*
X56689000Y-63798000D03*
X49069000Y-51098000D03*
X56689000Y-61258000D03*
X49069000Y-53638000D03*
X56689000Y-58718000D03*
X49069000Y-56178000D03*
X56689000Y-56178000D03*
X49069000Y-58718000D03*
X56689000Y-53638000D03*
X49069000Y-61258000D03*
X56689000Y-51098000D03*
X49069000Y-63798000D03*
X56689000Y-48558000D03*
D17*
X51609000Y-44494000D03*
X49069000Y-44494000D03*
D18*
X54149000Y-44494000D03*
D19*
X125358000Y-122434000D03*
X75358000Y-122434000D03*
X125358000Y-72434000D03*
X101863000Y-116465000D03*
X51863000Y-116465000D03*
X101863000Y-66465000D03*
X111007000Y-106940000D03*
X61007000Y-106940000D03*
X111007000Y-56940000D03*
X120532000Y-109734000D03*
X70532000Y-109734000D03*
X120532000Y-59734000D03*
X125358000Y-94240000D03*
X75358000Y-94240000D03*
X125358000Y-44240000D03*
X87385000Y-93097000D03*
X37385000Y-93097000D03*
X87385000Y-43097000D03*
X37385000Y-43097000D03*
X70532000Y-59734000D03*
X51863000Y-66465000D03*
X61007000Y-56940000D03*
X75358000Y-44240000D03*
X75358000Y-72434000D03*
X85226000Y-127768000D03*
X35226000Y-127768000D03*
X85226000Y-77768000D03*
X112785000Y-127768000D03*
X62785000Y-127768000D03*
X112785000Y-77768000D03*
X91576000Y-111512000D03*
X41576000Y-111512000D03*
X91576000Y-61512000D03*
X108848000Y-102622000D03*
X58848000Y-102622000D03*
X108848000Y-52622000D03*
X97164000Y-98431000D03*
X47164000Y-98431000D03*
X97164000Y-48431000D03*
X62785000Y-77768000D03*
X58848000Y-52622000D03*
X47164000Y-48431000D03*
X41576000Y-61512000D03*
X35226000Y-77768000D03*
X81670000Y-120148000D03*
X31670000Y-120148000D03*
X81670000Y-70148000D03*
X87385000Y-121672000D03*
X37385000Y-121672000D03*
X87385000Y-71672000D03*
X97418000Y-124339000D03*
X47418000Y-124339000D03*
X97418000Y-74339000D03*
X91322000Y-121291000D03*
X41322000Y-121291000D03*
X91322000Y-71291000D03*
X31670000Y-70148000D03*
X47418000Y-74339000D03*
X41322000Y-71291000D03*
X37385000Y-71672000D03*
X96148000Y-116465000D03*
X46148000Y-116465000D03*
X96148000Y-66465000D03*
X84210000Y-100082000D03*
X34210000Y-100082000D03*
X84210000Y-50082000D03*
X34210000Y-50082000D03*
X46148000Y-66465000D03*
X124977000Y-111766000D03*
X74977000Y-111766000D03*
X124977000Y-61766000D03*
X110499000Y-118497000D03*
X60499000Y-118497000D03*
X110499000Y-68497000D03*
X115198000Y-113163000D03*
X65198000Y-113163000D03*
X115198000Y-63163000D03*
X124469000Y-96272000D03*
X74469000Y-96272000D03*
X124469000Y-46272000D03*
X74469000Y-46272000D03*
X74977000Y-61766000D03*
X65198000Y-63163000D03*
X60499000Y-68497000D03*
X119516000Y-123450000D03*
X69516000Y-123450000D03*
X119516000Y-73450000D03*
X107959000Y-124212000D03*
X57959000Y-124212000D03*
X107959000Y-74212000D03*
X57959000Y-74212000D03*
X69516000Y-73450000D03*
X79003000Y-126244000D03*
X29003000Y-126244000D03*
X79003000Y-76244000D03*
X29003000Y-76244000D03*
X82432000Y-100590000D03*
X32432000Y-100590000D03*
X82432000Y-50590000D03*
X32432000Y-50590000D03*
X98561000Y-125990000D03*
X48561000Y-125990000D03*
X98561000Y-75990000D03*
X48561000Y-75990000D03*
X93735000Y-122053000D03*
X43735000Y-122053000D03*
X93735000Y-72053000D03*
X43735000Y-72053000D03*
X92211000Y-89922000D03*
X42211000Y-89922000D03*
X92211000Y-39922000D03*
X42211000Y-39922000D03*
X125358000Y-97796000D03*
X75358000Y-97796000D03*
X125358000Y-47796000D03*
X75358000Y-47796000D03*
X121802000Y-120910000D03*
X71802000Y-120910000D03*
X121802000Y-70910000D03*
X71802000Y-70910000D03*
X102879000Y-122815000D03*
X52879000Y-122815000D03*
X102879000Y-72815000D03*
X52879000Y-72815000D03*
X105546000Y-126879000D03*
X55546000Y-126879000D03*
X105546000Y-76879000D03*
X55546000Y-76879000D03*
X90052000Y-90938000D03*
X40052000Y-90938000D03*
X90052000Y-40938000D03*
X40052000Y-40938000D03*
X110075000Y-121545000D03*
X60075000Y-121545000D03*
X110075000Y-71545000D03*
X95386000Y-121545000D03*
X45386000Y-121545000D03*
X95386000Y-71545000D03*
X60075000Y-71545000D03*
X45386000Y-71545000D03*
X117657000Y-99927000D03*
X67657000Y-99927000D03*
X117657000Y-49927000D03*
X113610000Y-98178000D03*
X63610000Y-98178000D03*
X113610000Y-48178000D03*
X63610000Y-48178000D03*
X67657000Y-49927000D03*
X112150000Y-121672000D03*
X62150000Y-121672000D03*
X112150000Y-71672000D03*
X116214000Y-124974000D03*
X66214000Y-124974000D03*
X116214000Y-74974000D03*
X66214000Y-74974000D03*
X62150000Y-71672000D03*
X104149000Y-117989000D03*
X54149000Y-117989000D03*
X104149000Y-67989000D03*
X54149000Y-67989000D03*
D20*
X102117000Y-116211000D02*
X101863000Y-116465000D01*
X52117000Y-116211000D02*
X51863000Y-116465000D01*
X102117000Y-66211000D02*
X101863000Y-66465000D01*
X104469000Y-116211000D02*
X102117000Y-116211000D01*
X54469000Y-116211000D02*
X52117000Y-116211000D01*
X104469000Y-66211000D02*
X102117000Y-66211000D01*
X123326000Y-112673000D02*
X121467000Y-114532000D01*
X73326000Y-112673000D02*
X71467000Y-114532000D01*
X123326000Y-62673000D02*
X121467000Y-64532000D01*
X121467000Y-112574000D02*
X121467000Y-114532000D01*
X71467000Y-112574000D02*
X71467000Y-114532000D01*
X121467000Y-62574000D02*
X121467000Y-64532000D01*
X121467000Y-112574000D02*
X120532000Y-111639000D01*
X71467000Y-112574000D02*
X70532000Y-111639000D01*
X121467000Y-62574000D02*
X120532000Y-61639000D01*
X122818000Y-95256000D02*
X122818000Y-103130000D01*
X72818000Y-95256000D02*
X72818000Y-103130000D01*
X122818000Y-45256000D02*
X122818000Y-53130000D01*
X123834000Y-94240000D02*
X122818000Y-95256000D01*
X73834000Y-94240000D02*
X72818000Y-95256000D01*
X123834000Y-44240000D02*
X122818000Y-45256000D01*
X125358000Y-94240000D02*
X123834000Y-94240000D01*
X75358000Y-94240000D02*
X73834000Y-94240000D01*
X125358000Y-44240000D02*
X123834000Y-44240000D01*
X123326000Y-103638000D02*
X123326000Y-112673000D01*
X73326000Y-103638000D02*
X73326000Y-112673000D01*
X123326000Y-53638000D02*
X123326000Y-62673000D01*
X122818000Y-103130000D02*
X123326000Y-103638000D01*
X72818000Y-103130000D02*
X73326000Y-103638000D01*
X122818000Y-53130000D02*
X123326000Y-53638000D01*
X120532000Y-109734000D02*
X120532000Y-111639000D01*
X70532000Y-109734000D02*
X70532000Y-111639000D01*
X120532000Y-59734000D02*
X120532000Y-61639000D01*
X123326000Y-118878000D02*
X121467000Y-117019000D01*
X73326000Y-118878000D02*
X71467000Y-117019000D01*
X123326000Y-68878000D02*
X121467000Y-67019000D01*
X121467000Y-117019000D02*
X121467000Y-114532000D01*
X71467000Y-117019000D02*
X71467000Y-114532000D01*
X121467000Y-67019000D02*
X121467000Y-64532000D01*
X125358000Y-122434000D02*
X123326000Y-121164000D01*
X75358000Y-122434000D02*
X73326000Y-121164000D01*
X125358000Y-72434000D02*
X123326000Y-71164000D01*
X123326000Y-121164000D02*
X123326000Y-118878000D01*
X73326000Y-121164000D02*
X73326000Y-118878000D01*
X123326000Y-71164000D02*
X123326000Y-68878000D01*
X92592000Y-108718000D02*
X96783000Y-112909000D01*
X42592000Y-108718000D02*
X46783000Y-112909000D01*
X92592000Y-58718000D02*
X96783000Y-62909000D01*
X85734000Y-108718000D02*
X92592000Y-108718000D01*
X35734000Y-108718000D02*
X42592000Y-108718000D01*
X85734000Y-58718000D02*
X92592000Y-58718000D01*
X84464000Y-107448000D02*
X85734000Y-108718000D01*
X34464000Y-107448000D02*
X35734000Y-108718000D01*
X84464000Y-57448000D02*
X85734000Y-58718000D01*
X96783000Y-112909000D02*
X96783000Y-115068000D01*
X46783000Y-112909000D02*
X46783000Y-115068000D01*
X96783000Y-62909000D02*
X96783000Y-65068000D01*
X96783000Y-115068000D02*
X98180000Y-116465000D01*
X46783000Y-115068000D02*
X48180000Y-116465000D01*
X96783000Y-65068000D02*
X98180000Y-66465000D01*
X98180000Y-116465000D02*
X101863000Y-116465000D01*
X48180000Y-116465000D02*
X51863000Y-116465000D01*
X98180000Y-66465000D02*
X101863000Y-66465000D01*
X84464000Y-103638000D02*
X87385000Y-100717000D01*
X34464000Y-103638000D02*
X37385000Y-100717000D01*
X84464000Y-53638000D02*
X87385000Y-50717000D01*
X87385000Y-95002000D02*
X87385000Y-93097000D01*
X37385000Y-95002000D02*
X37385000Y-93097000D01*
X87385000Y-45002000D02*
X87385000Y-43097000D01*
X87385000Y-100717000D02*
X87385000Y-95002000D01*
X37385000Y-100717000D02*
X37385000Y-95002000D01*
X87385000Y-50717000D02*
X87385000Y-45002000D01*
X84464000Y-106940000D02*
X84464000Y-107448000D01*
X34464000Y-106940000D02*
X34464000Y-107448000D01*
X84464000Y-56940000D02*
X84464000Y-57448000D01*
X84464000Y-103638000D02*
X84464000Y-106940000D01*
X34464000Y-103638000D02*
X34464000Y-106940000D01*
X84464000Y-53638000D02*
X84464000Y-56940000D01*
X107959000Y-92462000D02*
X101101000Y-92462000D01*
X57959000Y-92462000D02*
X51101000Y-92462000D01*
X107959000Y-42462000D02*
X101101000Y-42462000D01*
X101101000Y-92462000D02*
X100085000Y-91446000D01*
X51101000Y-92462000D02*
X50085000Y-91446000D01*
X101101000Y-42462000D02*
X100085000Y-41446000D01*
X100085000Y-91446000D02*
X100085000Y-89922000D01*
X50085000Y-91446000D02*
X50085000Y-89922000D01*
X100085000Y-41446000D02*
X100085000Y-39922000D01*
X110372000Y-94875000D02*
X107959000Y-92462000D01*
X60372000Y-94875000D02*
X57959000Y-92462000D01*
X110372000Y-44875000D02*
X107959000Y-42462000D01*
X111007000Y-106940000D02*
X110372000Y-106305000D01*
X61007000Y-106940000D02*
X60372000Y-106305000D01*
X111007000Y-56940000D02*
X110372000Y-56305000D01*
X110372000Y-106305000D02*
X110372000Y-94875000D01*
X60372000Y-106305000D02*
X60372000Y-94875000D01*
X110372000Y-56305000D02*
X110372000Y-44875000D01*
X54469000Y-66211000D02*
X52117000Y-66211000D01*
X52117000Y-66211000D02*
X51863000Y-66465000D01*
X37385000Y-45002000D02*
X37385000Y-43097000D01*
X34464000Y-53638000D02*
X37385000Y-50717000D01*
X37385000Y-50717000D02*
X37385000Y-45002000D01*
X34464000Y-53638000D02*
X34464000Y-56940000D01*
X71467000Y-62574000D02*
X70532000Y-61639000D01*
X71467000Y-62574000D02*
X71467000Y-64532000D01*
X70532000Y-59734000D02*
X70532000Y-61639000D01*
X34464000Y-56940000D02*
X34464000Y-57448000D01*
X34464000Y-57448000D02*
X35734000Y-58718000D01*
X48180000Y-66465000D02*
X51863000Y-66465000D01*
X46783000Y-65068000D02*
X48180000Y-66465000D01*
X46783000Y-62909000D02*
X46783000Y-65068000D01*
X42592000Y-58718000D02*
X46783000Y-62909000D01*
X35734000Y-58718000D02*
X42592000Y-58718000D01*
X50085000Y-41446000D02*
X50085000Y-39922000D01*
X51101000Y-42462000D02*
X50085000Y-41446000D01*
X57959000Y-42462000D02*
X51101000Y-42462000D01*
X60372000Y-44875000D02*
X57959000Y-42462000D01*
X60372000Y-56305000D02*
X60372000Y-44875000D01*
X61007000Y-56940000D02*
X60372000Y-56305000D01*
X75358000Y-44240000D02*
X73834000Y-44240000D01*
X73834000Y-44240000D02*
X72818000Y-45256000D01*
X72818000Y-45256000D02*
X72818000Y-53130000D01*
X72818000Y-53130000D02*
X73326000Y-53638000D01*
X73326000Y-53638000D02*
X73326000Y-62673000D01*
X73326000Y-62673000D02*
X71467000Y-64532000D01*
X71467000Y-67019000D02*
X71467000Y-64532000D01*
X73326000Y-68878000D02*
X71467000Y-67019000D01*
X73326000Y-71164000D02*
X73326000Y-68878000D01*
X75358000Y-72434000D02*
X73326000Y-71164000D01*
X96783000Y-120021000D02*
X111769000Y-120021000D01*
X46783000Y-120021000D02*
X61769000Y-120021000D01*
X96783000Y-70021000D02*
X111769000Y-70021000D01*
X112785000Y-127768000D02*
X113293000Y-127260000D01*
X62785000Y-127768000D02*
X63293000Y-127260000D01*
X112785000Y-77768000D02*
X113293000Y-77260000D01*
X121548000Y-124593000D02*
X121548000Y-123196000D01*
X71548000Y-124593000D02*
X71548000Y-123196000D01*
X121548000Y-74593000D02*
X121548000Y-73196000D01*
X118881000Y-127260000D02*
X121548000Y-124593000D01*
X68881000Y-127260000D02*
X71548000Y-124593000D01*
X118881000Y-77260000D02*
X121548000Y-74593000D01*
X113293000Y-127260000D02*
X118881000Y-127260000D01*
X63293000Y-127260000D02*
X68881000Y-127260000D01*
X113293000Y-77260000D02*
X118881000Y-77260000D01*
X121548000Y-123196000D02*
X117992000Y-119640000D01*
X71548000Y-123196000D02*
X67992000Y-119640000D01*
X121548000Y-73196000D02*
X117992000Y-69640000D01*
X111769000Y-120021000D02*
X112150000Y-119640000D01*
X61769000Y-120021000D02*
X62150000Y-119640000D01*
X111769000Y-70021000D02*
X112150000Y-69640000D01*
X112150000Y-119640000D02*
X113928000Y-119640000D01*
X62150000Y-119640000D02*
X63928000Y-119640000D01*
X112150000Y-69640000D02*
X113928000Y-69640000D01*
X117992000Y-119640000D02*
X113928000Y-119640000D01*
X67992000Y-119640000D02*
X63928000Y-119640000D01*
X117992000Y-69640000D02*
X113928000Y-69640000D01*
X88147000Y-119640000D02*
X85988000Y-117481000D01*
X38147000Y-119640000D02*
X35988000Y-117481000D01*
X88147000Y-69640000D02*
X85988000Y-67481000D01*
X85988000Y-117481000D02*
X83448000Y-117481000D01*
X35988000Y-117481000D02*
X33448000Y-117481000D01*
X85988000Y-67481000D02*
X83448000Y-67481000D01*
X83448000Y-117481000D02*
X82432000Y-116465000D01*
X33448000Y-117481000D02*
X32432000Y-116465000D01*
X83448000Y-67481000D02*
X82432000Y-66465000D01*
X85226000Y-127768000D02*
X89544000Y-123450000D01*
X35226000Y-127768000D02*
X39544000Y-123450000D01*
X85226000Y-77768000D02*
X89544000Y-73450000D01*
X83448000Y-111512000D02*
X91576000Y-111512000D01*
X33448000Y-111512000D02*
X41576000Y-111512000D01*
X83448000Y-61512000D02*
X91576000Y-61512000D01*
X89544000Y-119640000D02*
X88147000Y-119640000D01*
X39544000Y-119640000D02*
X38147000Y-119640000D01*
X89544000Y-69640000D02*
X88147000Y-69640000D01*
X96402000Y-119640000D02*
X96783000Y-120021000D01*
X46402000Y-119640000D02*
X46783000Y-120021000D01*
X96402000Y-69640000D02*
X96783000Y-70021000D01*
X89544000Y-123450000D02*
X89544000Y-119640000D01*
X39544000Y-123450000D02*
X39544000Y-119640000D01*
X89544000Y-73450000D02*
X89544000Y-69640000D01*
X89544000Y-119640000D02*
X96402000Y-119640000D01*
X39544000Y-119640000D02*
X46402000Y-119640000D01*
X89544000Y-69640000D02*
X96402000Y-69640000D01*
X82432000Y-116465000D02*
X82432000Y-112528000D01*
X32432000Y-116465000D02*
X32432000Y-112528000D01*
X82432000Y-66465000D02*
X82432000Y-62528000D01*
X82432000Y-112528000D02*
X83448000Y-111512000D01*
X32432000Y-112528000D02*
X33448000Y-111512000D01*
X82432000Y-62528000D02*
X83448000Y-61512000D01*
X97926000Y-96780000D02*
X97164000Y-97542000D01*
X47926000Y-96780000D02*
X47164000Y-97542000D01*
X97926000Y-46780000D02*
X97164000Y-47542000D01*
X97164000Y-97542000D02*
X97164000Y-98431000D01*
X47164000Y-97542000D02*
X47164000Y-98431000D01*
X97164000Y-47542000D02*
X97164000Y-48431000D01*
X106181000Y-96399000D02*
X107832000Y-96399000D01*
X56181000Y-96399000D02*
X57832000Y-96399000D01*
X106181000Y-46399000D02*
X107832000Y-46399000D01*
X105800000Y-96780000D02*
X106181000Y-96399000D01*
X55800000Y-96780000D02*
X56181000Y-96399000D01*
X105800000Y-46780000D02*
X106181000Y-46399000D01*
X97926000Y-96780000D02*
X105800000Y-96780000D01*
X47926000Y-96780000D02*
X55800000Y-96780000D01*
X97926000Y-46780000D02*
X105800000Y-46780000D01*
X107832000Y-96399000D02*
X108848000Y-97415000D01*
X57832000Y-96399000D02*
X58848000Y-97415000D01*
X107832000Y-46399000D02*
X108848000Y-47415000D01*
X108848000Y-97415000D02*
X108848000Y-102622000D01*
X58848000Y-97415000D02*
X58848000Y-102622000D01*
X108848000Y-47415000D02*
X108848000Y-52622000D01*
X67992000Y-69640000D02*
X63928000Y-69640000D01*
X71548000Y-73196000D02*
X67992000Y-69640000D01*
X71548000Y-74593000D02*
X71548000Y-73196000D01*
X68881000Y-77260000D02*
X71548000Y-74593000D01*
X63293000Y-77260000D02*
X68881000Y-77260000D01*
X62785000Y-77768000D02*
X63293000Y-77260000D01*
X47926000Y-46780000D02*
X47164000Y-47542000D01*
X47926000Y-46780000D02*
X55800000Y-46780000D01*
X55800000Y-46780000D02*
X56181000Y-46399000D01*
X56181000Y-46399000D02*
X57832000Y-46399000D01*
X57832000Y-46399000D02*
X58848000Y-47415000D01*
X58848000Y-47415000D02*
X58848000Y-52622000D01*
X47164000Y-47542000D02*
X47164000Y-48431000D01*
X39544000Y-69640000D02*
X38147000Y-69640000D01*
X33448000Y-61512000D02*
X41576000Y-61512000D01*
X32432000Y-62528000D02*
X33448000Y-61512000D01*
X32432000Y-66465000D02*
X32432000Y-62528000D01*
X33448000Y-67481000D02*
X32432000Y-66465000D01*
X35988000Y-67481000D02*
X33448000Y-67481000D01*
X38147000Y-69640000D02*
X35988000Y-67481000D01*
X39544000Y-69640000D02*
X46402000Y-69640000D01*
X46402000Y-69640000D02*
X46783000Y-70021000D01*
X46783000Y-70021000D02*
X61769000Y-70021000D01*
X61769000Y-70021000D02*
X62150000Y-69640000D01*
X62150000Y-69640000D02*
X63928000Y-69640000D01*
X35226000Y-77768000D02*
X39544000Y-73450000D01*
X39544000Y-73450000D02*
X39544000Y-69640000D01*
D21*
X85861000Y-120148000D02*
X87385000Y-121672000D01*
X35861000Y-120148000D02*
X37385000Y-121672000D01*
X85861000Y-70148000D02*
X87385000Y-71672000D01*
X81670000Y-120148000D02*
X85861000Y-120148000D01*
X31670000Y-120148000D02*
X35861000Y-120148000D01*
X81670000Y-70148000D02*
X85861000Y-70148000D01*
X91322000Y-121291000D02*
X94370000Y-124339000D01*
X41322000Y-121291000D02*
X44370000Y-124339000D01*
X91322000Y-71291000D02*
X94370000Y-74339000D01*
X94370000Y-124339000D02*
X97418000Y-124339000D01*
X44370000Y-124339000D02*
X47418000Y-124339000D01*
X94370000Y-74339000D02*
X97418000Y-74339000D01*
X31670000Y-70148000D02*
X35861000Y-70148000D01*
X44370000Y-74339000D02*
X47418000Y-74339000D01*
X41322000Y-71291000D02*
X44370000Y-74339000D01*
X35861000Y-70148000D02*
X37385000Y-71672000D01*
X95640000Y-113417000D02*
X92230536Y-110007536D01*
X45640000Y-113417000D02*
X42230536Y-110007536D01*
X95640000Y-63417000D02*
X92230536Y-60007536D01*
X85353000Y-109861000D02*
X83956000Y-108464000D01*
X35353000Y-109861000D02*
X33956000Y-108464000D01*
X85353000Y-59861000D02*
X83956000Y-58464000D01*
X85607000Y-109861000D02*
X85353000Y-109861000D01*
X35607000Y-109861000D02*
X35353000Y-109861000D01*
X85607000Y-59861000D02*
X85353000Y-59861000D01*
X92084000Y-109861000D02*
X89163000Y-109861000D01*
X42084000Y-109861000D02*
X39163000Y-109861000D01*
X92084000Y-59861000D02*
X89163000Y-59861000D01*
X89163000Y-109861000D02*
X85607000Y-109861000D01*
X39163000Y-109861000D02*
X35607000Y-109861000D01*
X89163000Y-59861000D02*
X85607000Y-59861000D01*
X92230536Y-110007536D02*
X92084000Y-109861000D01*
X42230536Y-110007536D02*
X42084000Y-109861000D01*
X92230536Y-60007536D02*
X92084000Y-59861000D01*
X83321000Y-108464000D02*
X82686000Y-107829000D01*
X33321000Y-108464000D02*
X32686000Y-107829000D01*
X83321000Y-58464000D02*
X82686000Y-57829000D01*
X83956000Y-108464000D02*
X83321000Y-108464000D01*
X33956000Y-108464000D02*
X33321000Y-108464000D01*
X83956000Y-58464000D02*
X83321000Y-58464000D01*
X96148000Y-116465000D02*
X96148000Y-116465000D01*
X46148000Y-116465000D02*
X46148000Y-116465000D01*
X96148000Y-66465000D02*
X96148000Y-66465000D01*
X95767000Y-115576000D02*
X95640000Y-115449000D01*
X45767000Y-115576000D02*
X45640000Y-115449000D01*
X95767000Y-65576000D02*
X95640000Y-65449000D01*
X95640000Y-115449000D02*
X95640000Y-113417000D01*
X45640000Y-115449000D02*
X45640000Y-113417000D01*
X95640000Y-65449000D02*
X95640000Y-63417000D01*
X96148000Y-116465000D02*
X95767000Y-115576000D01*
X46148000Y-116465000D02*
X45767000Y-115576000D01*
X96148000Y-66465000D02*
X95767000Y-65576000D01*
X83321000Y-103130000D02*
X84210000Y-102241000D01*
X33321000Y-103130000D02*
X34210000Y-102241000D01*
X83321000Y-53130000D02*
X84210000Y-52241000D01*
X84210000Y-102241000D02*
X84210000Y-100082000D01*
X34210000Y-102241000D02*
X34210000Y-100082000D01*
X84210000Y-52241000D02*
X84210000Y-50082000D01*
X82686000Y-107829000D02*
X82686000Y-105797000D01*
X32686000Y-107829000D02*
X32686000Y-105797000D01*
X82686000Y-57829000D02*
X82686000Y-55797000D01*
X82686000Y-105797000D02*
X83321000Y-105162000D01*
X32686000Y-105797000D02*
X33321000Y-105162000D01*
X82686000Y-55797000D02*
X83321000Y-55162000D01*
X83321000Y-105162000D02*
X83321000Y-103130000D01*
X33321000Y-105162000D02*
X33321000Y-103130000D01*
X83321000Y-55162000D02*
X83321000Y-53130000D01*
X46148000Y-66465000D02*
X45767000Y-65576000D01*
X34210000Y-52241000D02*
X34210000Y-50082000D01*
X33321000Y-53130000D02*
X34210000Y-52241000D01*
X33321000Y-55162000D02*
X33321000Y-53130000D01*
X32686000Y-55797000D02*
X33321000Y-55162000D01*
X32686000Y-57829000D02*
X32686000Y-55797000D01*
X33321000Y-58464000D02*
X32686000Y-57829000D01*
X33956000Y-58464000D02*
X33321000Y-58464000D01*
X35353000Y-59861000D02*
X33956000Y-58464000D01*
X35607000Y-59861000D02*
X35353000Y-59861000D01*
X39163000Y-59861000D02*
X35607000Y-59861000D01*
X42084000Y-59861000D02*
X39163000Y-59861000D01*
X42230536Y-60007536D02*
X42084000Y-59861000D01*
X45640000Y-63417000D02*
X42230536Y-60007536D01*
X45640000Y-65449000D02*
X45640000Y-63417000D01*
X45767000Y-65576000D02*
X45640000Y-65449000D01*
X46148000Y-66465000D02*
X46148000Y-66465000D01*
X124977000Y-111766000D02*
X125993000Y-110750000D01*
X74977000Y-111766000D02*
X75993000Y-110750000D01*
X124977000Y-61766000D02*
X125993000Y-60750000D01*
X125993000Y-110750000D02*
X126120000Y-110750000D01*
X75993000Y-110750000D02*
X76120000Y-110750000D01*
X125993000Y-60750000D02*
X126120000Y-60750000D01*
X126120000Y-110750000D02*
X126628000Y-110242000D01*
X76120000Y-110750000D02*
X76628000Y-110242000D01*
X126120000Y-60750000D02*
X126628000Y-60242000D01*
X124215000Y-96526000D02*
X124469000Y-96272000D01*
X74215000Y-96526000D02*
X74469000Y-96272000D01*
X124215000Y-46526000D02*
X124469000Y-46272000D01*
X124215000Y-99066000D02*
X124215000Y-96526000D01*
X74215000Y-99066000D02*
X74215000Y-96526000D01*
X124215000Y-49066000D02*
X124215000Y-46526000D01*
X126628000Y-101479000D02*
X124215000Y-99066000D01*
X76628000Y-101479000D02*
X74215000Y-99066000D01*
X126628000Y-51479000D02*
X124215000Y-49066000D01*
X126628000Y-110242000D02*
X126628000Y-101479000D01*
X76628000Y-110242000D02*
X76628000Y-101479000D01*
X126628000Y-60242000D02*
X126628000Y-51479000D01*
X112404000Y-116592000D02*
X112404000Y-113163000D01*
X62404000Y-116592000D02*
X62404000Y-113163000D01*
X112404000Y-66592000D02*
X112404000Y-63163000D01*
X110499000Y-118497000D02*
X112404000Y-116592000D01*
X60499000Y-118497000D02*
X62404000Y-116592000D01*
X110499000Y-68497000D02*
X112404000Y-66592000D01*
X112404000Y-113163000D02*
X115198000Y-113163000D01*
X62404000Y-113163000D02*
X65198000Y-113163000D01*
X112404000Y-63163000D02*
X115198000Y-63163000D01*
X74215000Y-46526000D02*
X74469000Y-46272000D01*
X74215000Y-49066000D02*
X74215000Y-46526000D01*
X76628000Y-51479000D02*
X74215000Y-49066000D01*
X76628000Y-60242000D02*
X76628000Y-51479000D01*
X76120000Y-60750000D02*
X76628000Y-60242000D01*
X75993000Y-60750000D02*
X76120000Y-60750000D01*
X74977000Y-61766000D02*
X75993000Y-60750000D01*
X62404000Y-63163000D02*
X65198000Y-63163000D01*
X62404000Y-66592000D02*
X62404000Y-63163000D01*
X60499000Y-68497000D02*
X62404000Y-66592000D01*
X119516000Y-123450000D02*
X116849000Y-126117000D01*
X69516000Y-123450000D02*
X66849000Y-126117000D01*
X119516000Y-73450000D02*
X116849000Y-76117000D01*
X116849000Y-126117000D02*
X114944000Y-126117000D01*
X66849000Y-126117000D02*
X64944000Y-126117000D01*
X116849000Y-76117000D02*
X114944000Y-76117000D01*
X113039000Y-124212000D02*
X107959000Y-124212000D01*
X63039000Y-124212000D02*
X57959000Y-124212000D01*
X113039000Y-74212000D02*
X107959000Y-74212000D01*
X114944000Y-126117000D02*
X113039000Y-124212000D01*
X64944000Y-126117000D02*
X63039000Y-124212000D01*
X114944000Y-76117000D02*
X113039000Y-74212000D01*
X63039000Y-74212000D02*
X57959000Y-74212000D01*
X64944000Y-76117000D02*
X63039000Y-74212000D01*
X66849000Y-76117000D02*
X64944000Y-76117000D01*
X69516000Y-73450000D02*
X66849000Y-76117000D01*
X79765000Y-127006000D02*
X79003000Y-126244000D01*
X29765000Y-127006000D02*
X29003000Y-126244000D01*
X79765000Y-77006000D02*
X79003000Y-76244000D01*
X79765000Y-131705000D02*
X79765000Y-127006000D01*
X29765000Y-131705000D02*
X29765000Y-127006000D01*
X79765000Y-81705000D02*
X79765000Y-77006000D01*
X29765000Y-81705000D02*
X29765000Y-77006000D01*
X29765000Y-77006000D02*
X29003000Y-76244000D01*
X78876000Y-123577000D02*
X82305000Y-127006000D01*
X28876000Y-123577000D02*
X32305000Y-127006000D01*
X78876000Y-73577000D02*
X82305000Y-77006000D01*
X82305000Y-131705000D02*
X82305000Y-127006000D01*
X32305000Y-131705000D02*
X32305000Y-127006000D01*
X82305000Y-81705000D02*
X82305000Y-77006000D01*
X78876000Y-102495000D02*
X78876000Y-123577000D01*
X28876000Y-102495000D02*
X28876000Y-123577000D01*
X78876000Y-52495000D02*
X78876000Y-73577000D01*
X82432000Y-100590000D02*
X80781000Y-100590000D01*
X32432000Y-100590000D02*
X30781000Y-100590000D01*
X82432000Y-50590000D02*
X80781000Y-50590000D01*
X80781000Y-100590000D02*
X78876000Y-102495000D01*
X30781000Y-100590000D02*
X28876000Y-102495000D01*
X80781000Y-50590000D02*
X78876000Y-52495000D01*
X32305000Y-81705000D02*
X32305000Y-77006000D01*
X30781000Y-50590000D02*
X28876000Y-52495000D01*
X28876000Y-52495000D02*
X28876000Y-73577000D01*
X28876000Y-73577000D02*
X32305000Y-77006000D01*
X32432000Y-50590000D02*
X30781000Y-50590000D01*
X92465000Y-130435000D02*
X96910000Y-125990000D01*
X42465000Y-130435000D02*
X46910000Y-125990000D01*
X92465000Y-80435000D02*
X96910000Y-75990000D01*
X92465000Y-131705000D02*
X92465000Y-130435000D01*
X42465000Y-131705000D02*
X42465000Y-130435000D01*
X92465000Y-81705000D02*
X92465000Y-80435000D01*
X96910000Y-125990000D02*
X98561000Y-125990000D01*
X46910000Y-125990000D02*
X48561000Y-125990000D01*
X96910000Y-75990000D02*
X98561000Y-75990000D01*
X42465000Y-81705000D02*
X42465000Y-80435000D01*
X46910000Y-75990000D02*
X48561000Y-75990000D01*
X42465000Y-80435000D02*
X46910000Y-75990000D01*
X95005000Y-131705000D02*
X95005000Y-130435000D01*
X45005000Y-131705000D02*
X45005000Y-130435000D01*
X95005000Y-81705000D02*
X95005000Y-80435000D01*
X93735000Y-122053000D02*
X94624000Y-122942000D01*
X43735000Y-122053000D02*
X44624000Y-122942000D01*
X93735000Y-72053000D02*
X94624000Y-72942000D01*
X94624000Y-122942000D02*
X98053000Y-122942000D01*
X44624000Y-122942000D02*
X48053000Y-122942000D01*
X94624000Y-72942000D02*
X98053000Y-72942000D01*
X97926000Y-128022000D02*
X97418000Y-128022000D01*
X47926000Y-128022000D02*
X47418000Y-128022000D01*
X97926000Y-78022000D02*
X97418000Y-78022000D01*
X97418000Y-128022000D02*
X95005000Y-130435000D01*
X47418000Y-128022000D02*
X45005000Y-130435000D01*
X97418000Y-78022000D02*
X95005000Y-80435000D01*
X99577000Y-126371000D02*
X97926000Y-128022000D01*
X49577000Y-126371000D02*
X47926000Y-128022000D01*
X99577000Y-76371000D02*
X97926000Y-78022000D01*
X99577000Y-125101000D02*
X99577000Y-126371000D01*
X49577000Y-125101000D02*
X49577000Y-126371000D01*
X99577000Y-75101000D02*
X99577000Y-76371000D01*
X98053000Y-122942000D02*
X98815000Y-123704000D01*
X48053000Y-122942000D02*
X48815000Y-123704000D01*
X98053000Y-72942000D02*
X98815000Y-73704000D01*
X98815000Y-123704000D02*
X98815000Y-124339000D01*
X48815000Y-123704000D02*
X48815000Y-124339000D01*
X98815000Y-73704000D02*
X98815000Y-74339000D01*
X98815000Y-124339000D02*
X99577000Y-125101000D01*
X48815000Y-124339000D02*
X49577000Y-125101000D01*
X98815000Y-74339000D02*
X99577000Y-75101000D01*
X45005000Y-81705000D02*
X45005000Y-80435000D01*
X43735000Y-72053000D02*
X44624000Y-72942000D01*
X44624000Y-72942000D02*
X48053000Y-72942000D01*
X48053000Y-72942000D02*
X48815000Y-73704000D01*
X48815000Y-73704000D02*
X48815000Y-74339000D01*
X48815000Y-74339000D02*
X49577000Y-75101000D01*
X49577000Y-75101000D02*
X49577000Y-76371000D01*
X49577000Y-76371000D02*
X47926000Y-78022000D01*
X47926000Y-78022000D02*
X47418000Y-78022000D01*
X47418000Y-78022000D02*
X45005000Y-80435000D01*
X96783000Y-111258000D02*
X93608000Y-108083000D01*
X46783000Y-111258000D02*
X43608000Y-108083000D01*
X96783000Y-61258000D02*
X93608000Y-58083000D01*
X96783000Y-111258000D02*
X99069000Y-111258000D01*
X46783000Y-111258000D02*
X49069000Y-111258000D01*
X96783000Y-61258000D02*
X99069000Y-61258000D01*
X88655000Y-92462000D02*
X88655000Y-95510000D01*
X38655000Y-92462000D02*
X38655000Y-95510000D01*
X88655000Y-42462000D02*
X88655000Y-45510000D01*
X93608000Y-108083000D02*
X93608000Y-101352000D01*
X43608000Y-108083000D02*
X43608000Y-101352000D01*
X93608000Y-58083000D02*
X93608000Y-51352000D01*
X88655000Y-95510000D02*
X92846000Y-99701000D01*
X38655000Y-95510000D02*
X42846000Y-99701000D01*
X88655000Y-45510000D02*
X92846000Y-49701000D01*
X93608000Y-100463000D02*
X92846000Y-99701000D01*
X43608000Y-100463000D02*
X42846000Y-99701000D01*
X93608000Y-50463000D02*
X92846000Y-49701000D01*
X93608000Y-101352000D02*
X93608000Y-100463000D01*
X43608000Y-101352000D02*
X43608000Y-100463000D01*
X93608000Y-51352000D02*
X93608000Y-50463000D01*
X85226000Y-89033000D02*
X88655000Y-92462000D01*
X35226000Y-89033000D02*
X38655000Y-92462000D01*
X85226000Y-39033000D02*
X88655000Y-42462000D01*
X85226000Y-87890000D02*
X85226000Y-89033000D01*
X35226000Y-87890000D02*
X35226000Y-89033000D01*
X85226000Y-37890000D02*
X85226000Y-39033000D01*
X35226000Y-37890000D02*
X35226000Y-39033000D01*
X43608000Y-50463000D02*
X42846000Y-49701000D01*
X46783000Y-61258000D02*
X49069000Y-61258000D01*
X43608000Y-58083000D02*
X43608000Y-51352000D01*
X46783000Y-61258000D02*
X43608000Y-58083000D01*
X43608000Y-51352000D02*
X43608000Y-50463000D01*
X38655000Y-45510000D02*
X42846000Y-49701000D01*
X38655000Y-42462000D02*
X38655000Y-45510000D01*
X35226000Y-39033000D02*
X38655000Y-42462000D01*
X91449000Y-95637000D02*
X91449000Y-92335000D01*
X41449000Y-95637000D02*
X41449000Y-92335000D01*
X91449000Y-45637000D02*
X91449000Y-42335000D01*
X94309295Y-98497295D02*
X91449000Y-95637000D01*
X44309295Y-98497295D02*
X41449000Y-95637000D01*
X94309295Y-48497295D02*
X91449000Y-45637000D01*
X94309295Y-98618705D02*
X94309295Y-98497295D01*
X44309295Y-98618705D02*
X44309295Y-98497295D01*
X94309295Y-48618705D02*
X94309295Y-48497295D01*
X91449000Y-92335000D02*
X92211000Y-91573000D01*
X41449000Y-92335000D02*
X42211000Y-91573000D01*
X91449000Y-42335000D02*
X92211000Y-41573000D01*
X92211000Y-91573000D02*
X92211000Y-89922000D01*
X42211000Y-91573000D02*
X42211000Y-89922000D01*
X92211000Y-41573000D02*
X92211000Y-39922000D01*
X99069000Y-101098000D02*
X96788590Y-101098000D01*
X49069000Y-101098000D02*
X46788590Y-101098000D01*
X99069000Y-51098000D02*
X96788590Y-51098000D01*
X96788590Y-101098000D02*
X94309295Y-98618705D01*
X46788590Y-101098000D02*
X44309295Y-98618705D01*
X96788590Y-51098000D02*
X94309295Y-48618705D01*
X44309295Y-48618705D02*
X44309295Y-48497295D01*
X46788590Y-51098000D02*
X44309295Y-48618705D01*
X49069000Y-51098000D02*
X46788590Y-51098000D01*
X42211000Y-41573000D02*
X42211000Y-39922000D01*
X41449000Y-42335000D02*
X42211000Y-41573000D01*
X41449000Y-45637000D02*
X41449000Y-42335000D01*
X44309295Y-48497295D02*
X41449000Y-45637000D01*
X126755000Y-111766000D02*
X126755000Y-128911000D01*
X76755000Y-111766000D02*
X76755000Y-128911000D01*
X126755000Y-61766000D02*
X126755000Y-78911000D01*
X84845000Y-133991000D02*
X84845000Y-131705000D01*
X34845000Y-133991000D02*
X34845000Y-131705000D01*
X84845000Y-83991000D02*
X84845000Y-81705000D01*
X85988000Y-135134000D02*
X84845000Y-133991000D01*
X35988000Y-135134000D02*
X34845000Y-133991000D01*
X85988000Y-85134000D02*
X84845000Y-83991000D01*
X124088000Y-135134000D02*
X85988000Y-135134000D01*
X74088000Y-135134000D02*
X35988000Y-135134000D01*
X124088000Y-85134000D02*
X85988000Y-85134000D01*
X126755000Y-128911000D02*
X126755000Y-132467000D01*
X76755000Y-128911000D02*
X76755000Y-132467000D01*
X126755000Y-78911000D02*
X126755000Y-82467000D01*
X126755000Y-132467000D02*
X124088000Y-135134000D01*
X76755000Y-132467000D02*
X74088000Y-135134000D01*
X126755000Y-82467000D02*
X124088000Y-85134000D01*
X125358000Y-97796000D02*
X125358000Y-99320000D01*
X75358000Y-97796000D02*
X75358000Y-99320000D01*
X125358000Y-47796000D02*
X125358000Y-49320000D01*
X125358000Y-99320000D02*
X127263000Y-101225000D01*
X75358000Y-99320000D02*
X77263000Y-101225000D01*
X125358000Y-49320000D02*
X127263000Y-51225000D01*
X127263000Y-111258000D02*
X126755000Y-111766000D01*
X77263000Y-111258000D02*
X76755000Y-111766000D01*
X127263000Y-61258000D02*
X126755000Y-61766000D01*
X127263000Y-101225000D02*
X127263000Y-111258000D01*
X77263000Y-101225000D02*
X77263000Y-111258000D01*
X127263000Y-51225000D02*
X127263000Y-61258000D01*
X76755000Y-78911000D02*
X76755000Y-82467000D01*
X75358000Y-49320000D02*
X77263000Y-51225000D01*
X77263000Y-51225000D02*
X77263000Y-61258000D01*
X77263000Y-61258000D02*
X76755000Y-61766000D01*
X76755000Y-61766000D02*
X76755000Y-78911000D01*
X75358000Y-47796000D02*
X75358000Y-49320000D01*
X34845000Y-83991000D02*
X34845000Y-81705000D01*
X35988000Y-85134000D02*
X34845000Y-83991000D01*
X74088000Y-85134000D02*
X35988000Y-85134000D01*
X76755000Y-82467000D02*
X74088000Y-85134000D01*
X124469000Y-124339000D02*
X125866000Y-125736000D01*
X74469000Y-124339000D02*
X75866000Y-125736000D01*
X124469000Y-74339000D02*
X125866000Y-75736000D01*
X123707000Y-134245000D02*
X88147000Y-134245000D01*
X73707000Y-134245000D02*
X38147000Y-134245000D01*
X123707000Y-84245000D02*
X88147000Y-84245000D01*
X88147000Y-134245000D02*
X87385000Y-133483000D01*
X38147000Y-134245000D02*
X37385000Y-133483000D01*
X88147000Y-84245000D02*
X87385000Y-83483000D01*
X87385000Y-133483000D02*
X87385000Y-131705000D01*
X37385000Y-133483000D02*
X37385000Y-131705000D01*
X87385000Y-83483000D02*
X87385000Y-81705000D01*
X125866000Y-125736000D02*
X125866000Y-132086000D01*
X75866000Y-125736000D02*
X75866000Y-132086000D01*
X125866000Y-75736000D02*
X125866000Y-82086000D01*
X125866000Y-132086000D02*
X123707000Y-134245000D01*
X75866000Y-132086000D02*
X73707000Y-134245000D01*
X125866000Y-82086000D02*
X123707000Y-84245000D01*
X121802000Y-121672000D02*
X124469000Y-124339000D01*
X71802000Y-121672000D02*
X74469000Y-124339000D01*
X121802000Y-71672000D02*
X124469000Y-74339000D01*
X121802000Y-120910000D02*
X121802000Y-121672000D01*
X71802000Y-120910000D02*
X71802000Y-121672000D01*
X121802000Y-70910000D02*
X121802000Y-71672000D01*
X71802000Y-70910000D02*
X71802000Y-71672000D01*
X37385000Y-83483000D02*
X37385000Y-81705000D01*
X38147000Y-84245000D02*
X37385000Y-83483000D01*
X73707000Y-84245000D02*
X38147000Y-84245000D01*
X75866000Y-82086000D02*
X73707000Y-84245000D01*
X75866000Y-75736000D02*
X75866000Y-82086000D01*
X74469000Y-74339000D02*
X75866000Y-75736000D01*
X71802000Y-71672000D02*
X74469000Y-74339000D01*
X97545000Y-131705000D02*
X97545000Y-130181000D01*
X47545000Y-131705000D02*
X47545000Y-130181000D01*
X97545000Y-81705000D02*
X97545000Y-80181000D01*
X97545000Y-130181000D02*
X102879000Y-124847000D01*
X47545000Y-130181000D02*
X52879000Y-124847000D01*
X97545000Y-80181000D02*
X102879000Y-74847000D01*
X102879000Y-124847000D02*
X102879000Y-122815000D01*
X52879000Y-124847000D02*
X52879000Y-122815000D01*
X102879000Y-74847000D02*
X102879000Y-72815000D01*
X47545000Y-80181000D02*
X52879000Y-74847000D01*
X52879000Y-74847000D02*
X52879000Y-72815000D01*
X47545000Y-81705000D02*
X47545000Y-80181000D01*
X103133000Y-126879000D02*
X100085000Y-129927000D01*
X53133000Y-126879000D02*
X50085000Y-129927000D01*
X103133000Y-76879000D02*
X100085000Y-79927000D01*
X100085000Y-129927000D02*
X100085000Y-131705000D01*
X50085000Y-129927000D02*
X50085000Y-131705000D01*
X100085000Y-79927000D02*
X100085000Y-81705000D01*
X105546000Y-126879000D02*
X103133000Y-126879000D01*
X55546000Y-126879000D02*
X53133000Y-126879000D01*
X105546000Y-76879000D02*
X103133000Y-76879000D01*
X50085000Y-79927000D02*
X50085000Y-81705000D01*
X53133000Y-76879000D02*
X50085000Y-79927000D01*
X55546000Y-76879000D02*
X53133000Y-76879000D01*
X90773530Y-95931470D02*
X90773530Y-91867470D01*
X40773530Y-95931470D02*
X40773530Y-91867470D01*
X90773530Y-45931470D02*
X90773530Y-41867470D01*
X90773530Y-91867470D02*
X91195000Y-91446000D01*
X40773530Y-91867470D02*
X41195000Y-91446000D01*
X90773530Y-41867470D02*
X91195000Y-41446000D01*
X94843002Y-103984002D02*
X94843002Y-105508002D01*
X44843002Y-103984002D02*
X44843002Y-105508002D01*
X94843002Y-53984002D02*
X94843002Y-55508002D01*
X94843002Y-101352000D02*
X94843002Y-103984002D01*
X44843002Y-101352000D02*
X44843002Y-103984002D01*
X94843002Y-51352000D02*
X94843002Y-53984002D01*
X93821530Y-98979470D02*
X90773530Y-95931470D01*
X43821530Y-98979470D02*
X40773530Y-95931470D01*
X93821530Y-48979470D02*
X90773530Y-45931470D01*
X94843002Y-100971000D02*
X94843002Y-100000942D01*
X44843002Y-100971000D02*
X44843002Y-100000942D01*
X94843002Y-50971000D02*
X94843002Y-50000942D01*
X94843002Y-100971000D02*
X94843002Y-101352000D01*
X44843002Y-100971000D02*
X44843002Y-101352000D01*
X94843002Y-50971000D02*
X94843002Y-51352000D01*
X94843002Y-100000942D02*
X93821530Y-98979470D01*
X44843002Y-100000942D02*
X43821530Y-98979470D01*
X94843002Y-50000942D02*
X93821530Y-48979470D01*
X91195000Y-91446000D02*
X91195000Y-90303000D01*
X41195000Y-91446000D02*
X41195000Y-90303000D01*
X91195000Y-41446000D02*
X91195000Y-40303000D01*
X91195000Y-90303000D02*
X90306000Y-89414000D01*
X41195000Y-90303000D02*
X40306000Y-89414000D01*
X91195000Y-40303000D02*
X90306000Y-39414000D01*
X90306000Y-89414000D02*
X90306000Y-87890000D01*
X40306000Y-89414000D02*
X40306000Y-87890000D01*
X90306000Y-39414000D02*
X90306000Y-37890000D01*
X95005000Y-105670000D02*
X94878000Y-105543000D01*
X45005000Y-105670000D02*
X44878000Y-105543000D01*
X95005000Y-55670000D02*
X94878000Y-55543000D01*
X94843002Y-105508002D02*
X94878000Y-105543000D01*
X44843002Y-105508002D02*
X44878000Y-105543000D01*
X94843002Y-55508002D02*
X94878000Y-55543000D01*
X100466000Y-107448000D02*
X96783000Y-107448000D01*
X50466000Y-107448000D02*
X46783000Y-107448000D01*
X100466000Y-57448000D02*
X96783000Y-57448000D01*
X96783000Y-107448000D02*
X96148000Y-106813000D01*
X46783000Y-107448000D02*
X46148000Y-106813000D01*
X96783000Y-57448000D02*
X96148000Y-56813000D01*
X104276000Y-103638000D02*
X100466000Y-107448000D01*
X54276000Y-103638000D02*
X50466000Y-107448000D01*
X104276000Y-53638000D02*
X100466000Y-57448000D01*
X96148000Y-106813000D02*
X95005000Y-105670000D01*
X46148000Y-106813000D02*
X45005000Y-105670000D01*
X96148000Y-56813000D02*
X95005000Y-55670000D01*
X106689000Y-103638000D02*
X104276000Y-103638000D01*
X56689000Y-103638000D02*
X54276000Y-103638000D01*
X106689000Y-53638000D02*
X104276000Y-53638000D01*
X43821530Y-48979470D02*
X40773530Y-45931470D01*
X44843002Y-50000942D02*
X43821530Y-48979470D01*
X44843002Y-50971000D02*
X44843002Y-51352000D01*
X44843002Y-55508002D02*
X44878000Y-55543000D01*
X46148000Y-56813000D02*
X45005000Y-55670000D01*
X54276000Y-53638000D02*
X50466000Y-57448000D01*
X50466000Y-57448000D02*
X46783000Y-57448000D01*
X46783000Y-57448000D02*
X46148000Y-56813000D01*
X56689000Y-53638000D02*
X54276000Y-53638000D01*
X44843002Y-51352000D02*
X44843002Y-53984002D01*
X45005000Y-55670000D02*
X44878000Y-55543000D01*
X44843002Y-53984002D02*
X44843002Y-55508002D01*
X44843002Y-50971000D02*
X44843002Y-50000942D01*
X40306000Y-39414000D02*
X40306000Y-37890000D01*
X41195000Y-40303000D02*
X40306000Y-39414000D01*
X41195000Y-41446000D02*
X41195000Y-40303000D01*
X40773530Y-41867470D02*
X41195000Y-41446000D01*
X40773530Y-45931470D02*
X40773530Y-41867470D01*
X104276000Y-113798000D02*
X100466000Y-109988000D01*
X54276000Y-113798000D02*
X50466000Y-109988000D01*
X104276000Y-63798000D02*
X100466000Y-59988000D01*
X100466000Y-109988000D02*
X96783000Y-109988000D01*
X50466000Y-109988000D02*
X46783000Y-109988000D01*
X100466000Y-59988000D02*
X96783000Y-59988000D01*
X96783000Y-109988000D02*
X96402000Y-109988000D01*
X46783000Y-109988000D02*
X46402000Y-109988000D01*
X96783000Y-59988000D02*
X96402000Y-59988000D01*
X96402000Y-109988000D02*
X94243000Y-107829000D01*
X46402000Y-109988000D02*
X44243000Y-107829000D01*
X96402000Y-59988000D02*
X94243000Y-57829000D01*
X106689000Y-113798000D02*
X104276000Y-113798000D01*
X56689000Y-113798000D02*
X54276000Y-113798000D01*
X106689000Y-63798000D02*
X104276000Y-63798000D01*
X90031765Y-96038235D02*
X90031765Y-90958235D01*
X40031765Y-96038235D02*
X40031765Y-90958235D01*
X90031765Y-46038235D02*
X90031765Y-40958235D01*
X94243000Y-101640998D02*
X94243000Y-101352000D01*
X44243000Y-101640998D02*
X44243000Y-101352000D01*
X94243000Y-51640998D02*
X94243000Y-51352000D01*
X94243000Y-107829000D02*
X94243000Y-101640998D01*
X44243000Y-107829000D02*
X44243000Y-101640998D01*
X94243000Y-57829000D02*
X94243000Y-51640998D01*
X93397265Y-99403735D02*
X90031765Y-96038235D01*
X43397265Y-99403735D02*
X40031765Y-96038235D01*
X93397265Y-49403735D02*
X90031765Y-46038235D01*
X94243000Y-100249470D02*
X93397265Y-99403735D01*
X44243000Y-100249470D02*
X43397265Y-99403735D01*
X94243000Y-50249470D02*
X93397265Y-49403735D01*
X94243000Y-101352000D02*
X94243000Y-100249470D01*
X44243000Y-101352000D02*
X44243000Y-100249470D01*
X94243000Y-51352000D02*
X94243000Y-50249470D01*
X90031765Y-90958235D02*
X90052000Y-90938000D01*
X40031765Y-90958235D02*
X40052000Y-90938000D01*
X90031765Y-40958235D02*
X90052000Y-40938000D01*
X40031765Y-46038235D02*
X40031765Y-40958235D01*
X40031765Y-40958235D02*
X40052000Y-40938000D01*
X44243000Y-51352000D02*
X44243000Y-50249470D01*
X46402000Y-59988000D02*
X44243000Y-57829000D01*
X44243000Y-57829000D02*
X44243000Y-51640998D01*
X44243000Y-51640998D02*
X44243000Y-51352000D01*
X56689000Y-63798000D02*
X54276000Y-63798000D01*
X50466000Y-59988000D02*
X46783000Y-59988000D01*
X54276000Y-63798000D02*
X50466000Y-59988000D01*
X46783000Y-59988000D02*
X46402000Y-59988000D01*
X44243000Y-50249470D02*
X43397265Y-49403735D01*
X43397265Y-49403735D02*
X40031765Y-46038235D01*
X110075000Y-121545000D02*
X95386000Y-121545000D01*
X60075000Y-121545000D02*
X45386000Y-121545000D01*
X110075000Y-71545000D02*
X95386000Y-71545000D01*
X60075000Y-71545000D02*
X45386000Y-71545000D01*
X117657000Y-99927000D02*
X113610000Y-99928000D01*
X67657000Y-99927000D02*
X63610000Y-99928000D01*
X117657000Y-49927000D02*
X113610000Y-49928000D01*
X113610000Y-99928000D02*
X113610000Y-98178000D01*
X63610000Y-99928000D02*
X63610000Y-98178000D01*
X113610000Y-49928000D02*
X113610000Y-48178000D01*
X63610000Y-49928000D02*
X63610000Y-48178000D01*
X67657000Y-49927000D02*
X63610000Y-49928000D01*
X116214000Y-123450000D02*
X114436000Y-121672000D01*
X66214000Y-123450000D02*
X64436000Y-121672000D01*
X116214000Y-73450000D02*
X114436000Y-71672000D01*
X116214000Y-124974000D02*
X116214000Y-123450000D01*
X66214000Y-124974000D02*
X66214000Y-123450000D01*
X116214000Y-74974000D02*
X116214000Y-73450000D01*
X114436000Y-121672000D02*
X112150000Y-121672000D01*
X64436000Y-121672000D02*
X62150000Y-121672000D01*
X114436000Y-71672000D02*
X112150000Y-71672000D01*
X66214000Y-74974000D02*
X66214000Y-73450000D01*
X64436000Y-71672000D02*
X62150000Y-71672000D01*
X66214000Y-73450000D02*
X64436000Y-71672000D01*
D20*
X111261000Y-115703000D02*
X111261000Y-109498000D01*
X61261000Y-115703000D02*
X61261000Y-109498000D01*
X111261000Y-65703000D02*
X111261000Y-59498000D01*
X106369000Y-116211000D02*
X108594000Y-116211000D01*
X56369000Y-116211000D02*
X58594000Y-116211000D01*
X106369000Y-66211000D02*
X108594000Y-66211000D01*
X104149000Y-117989000D02*
X108975000Y-117989000D01*
X54149000Y-117989000D02*
X58975000Y-117989000D01*
X104149000Y-67989000D02*
X108975000Y-67989000D01*
X112150000Y-105215000D02*
X113847000Y-106912000D01*
X62150000Y-105215000D02*
X63847000Y-106912000D01*
X112150000Y-55215000D02*
X113847000Y-56912000D01*
X111261000Y-109498000D02*
X113847000Y-106912000D01*
X61261000Y-109498000D02*
X63847000Y-106912000D01*
X111261000Y-59498000D02*
X113847000Y-56912000D01*
X109673500Y-117290500D02*
X111261000Y-115703000D01*
X59673500Y-117290500D02*
X61261000Y-115703000D01*
X109673500Y-67290500D02*
X111261000Y-65703000D01*
X108594000Y-116211000D02*
X109673500Y-117290500D01*
X58594000Y-116211000D02*
X59673500Y-117290500D01*
X108594000Y-66211000D02*
X109673500Y-67290500D01*
X108975000Y-117989000D02*
X109673500Y-117290500D01*
X58975000Y-117989000D02*
X59673500Y-117290500D01*
X108975000Y-67989000D02*
X109673500Y-67290500D01*
X92084000Y-115068000D02*
X95005000Y-117989000D01*
X42084000Y-115068000D02*
X45005000Y-117989000D01*
X92084000Y-65068000D02*
X95005000Y-67989000D01*
X92084000Y-114560000D02*
X92084000Y-115068000D01*
X42084000Y-114560000D02*
X42084000Y-115068000D01*
X92084000Y-64560000D02*
X92084000Y-65068000D01*
X95005000Y-117989000D02*
X104149000Y-117989000D01*
X45005000Y-117989000D02*
X54149000Y-117989000D01*
X95005000Y-67989000D02*
X104149000Y-67989000D01*
X108848000Y-87382000D02*
X112150000Y-90684000D01*
X58848000Y-87382000D02*
X62150000Y-90684000D01*
X108848000Y-37382000D02*
X112150000Y-40684000D01*
X105165000Y-87382000D02*
X108848000Y-87382000D01*
X55165000Y-87382000D02*
X58848000Y-87382000D01*
X105165000Y-37382000D02*
X108848000Y-37382000D01*
X112150000Y-90684000D02*
X112150000Y-105215000D01*
X62150000Y-90684000D02*
X62150000Y-105215000D01*
X112150000Y-40684000D02*
X112150000Y-55215000D01*
X56369000Y-66211000D02*
X58594000Y-66211000D01*
X58594000Y-66211000D02*
X59673500Y-67290500D01*
X42084000Y-64560000D02*
X42084000Y-65068000D01*
X42084000Y-65068000D02*
X45005000Y-67989000D01*
X45005000Y-67989000D02*
X54149000Y-67989000D01*
X54149000Y-67989000D02*
X58975000Y-67989000D01*
X58975000Y-67989000D02*
X59673500Y-67290500D01*
X59673500Y-67290500D02*
X61261000Y-65703000D01*
X61261000Y-65703000D02*
X61261000Y-59498000D01*
X61261000Y-59498000D02*
X63847000Y-56912000D01*
X55165000Y-37382000D02*
X58848000Y-37382000D01*
X62150000Y-55215000D02*
X63847000Y-56912000D01*
X62150000Y-40684000D02*
X62150000Y-55215000D01*
X58848000Y-37382000D02*
X62150000Y-40684000D01*
M02*
