G75*
%MOIN*%
%OFA0B0*%
%FSLAX25Y25*%
%IPPOS*%
%LPD*%
%AMOC8*
5,1,8,0,0,1.08239X$1,22.5*
%
%ADD10C,0.01200*%
%ADD11C,0.00600*%
%ADD12C,0.00400*%
D10*
X0076683Y0123650D02*
X0085891Y0123650D01*
X0076683Y0132858D01*
X0076683Y0135160D01*
X0078985Y0137462D01*
X0083589Y0137462D01*
X0085891Y0135160D01*
X0090495Y0132858D02*
X0095099Y0123650D01*
X0099703Y0132858D01*
X0104307Y0130556D02*
X0113515Y0130556D01*
X0118119Y0130556D02*
X0127326Y0130556D01*
X0127326Y0132858D02*
X0122722Y0137462D01*
X0118119Y0132858D01*
X0118119Y0123650D01*
X0127326Y0123650D02*
X0127326Y0132858D01*
X0131930Y0135160D02*
X0134232Y0137462D01*
X0138836Y0137462D01*
X0141138Y0135160D01*
X0141138Y0125952D01*
X0138836Y0123650D01*
X0134232Y0123650D01*
X0131930Y0125952D01*
X0145742Y0128254D02*
X0145742Y0137462D01*
X0154950Y0137462D02*
X0154950Y0128254D01*
X0150346Y0123650D01*
X0145742Y0128254D01*
D11*
X0034845Y0034892D02*
X0034845Y0032757D01*
X0034845Y0033825D02*
X0040182Y0033825D01*
X0041250Y0034892D01*
X0041250Y0035960D01*
X0040182Y0037027D01*
X0040182Y0030582D02*
X0036980Y0030582D01*
X0040182Y0030582D02*
X0041250Y0029514D01*
X0041250Y0026311D01*
X0036980Y0026311D01*
X0036980Y0024136D02*
X0036980Y0020934D01*
X0038047Y0019866D01*
X0041250Y0019866D01*
X0040182Y0017691D02*
X0038047Y0017691D01*
X0036980Y0016623D01*
X0036980Y0014488D01*
X0038047Y0013420D01*
X0039115Y0013420D01*
X0039115Y0017691D01*
X0040182Y0017691D02*
X0041250Y0016623D01*
X0041250Y0014488D01*
X0041250Y0024136D02*
X0036980Y0024136D01*
X0039115Y0045648D02*
X0038047Y0046716D01*
X0038047Y0049918D01*
X0040182Y0049918D01*
X0041250Y0048851D01*
X0041250Y0046716D01*
X0040182Y0045648D01*
X0039115Y0045648D01*
X0035912Y0047783D02*
X0038047Y0049918D01*
X0035912Y0047783D02*
X0034845Y0045648D01*
X0041250Y0052093D02*
X0041250Y0056364D01*
X0041250Y0054229D02*
X0034845Y0054229D01*
X0036980Y0056364D01*
X0035912Y0058539D02*
X0040182Y0062809D01*
X0041250Y0061742D01*
X0041250Y0059607D01*
X0040182Y0058539D01*
X0035912Y0058539D01*
X0034845Y0059607D01*
X0034845Y0061742D01*
X0035912Y0062809D01*
X0040182Y0062809D01*
X0041250Y0064984D02*
X0041250Y0069255D01*
X0036980Y0064984D01*
X0035912Y0064984D01*
X0034845Y0066052D01*
X0034845Y0068187D01*
X0035912Y0069255D01*
X0144845Y0082498D02*
X0145912Y0081430D01*
X0148047Y0081430D01*
X0149115Y0082498D01*
X0149115Y0085700D01*
X0149115Y0083565D02*
X0151250Y0081430D01*
X0150182Y0079255D02*
X0151250Y0078187D01*
X0151250Y0074984D01*
X0152318Y0074984D02*
X0153385Y0076052D01*
X0153385Y0077120D01*
X0152318Y0074984D02*
X0146980Y0074984D01*
X0150182Y0072809D02*
X0149115Y0071742D01*
X0149115Y0068539D01*
X0148047Y0068539D02*
X0151250Y0068539D01*
X0151250Y0071742D01*
X0150182Y0072809D01*
X0146980Y0071742D02*
X0146980Y0069607D01*
X0148047Y0068539D01*
X0146980Y0066364D02*
X0146980Y0063161D01*
X0148047Y0062093D01*
X0151250Y0062093D01*
X0151250Y0066364D02*
X0146980Y0066364D01*
X0146980Y0079255D02*
X0150182Y0079255D01*
X0144845Y0082498D02*
X0144845Y0085700D01*
X0151250Y0085700D01*
X0150182Y0053473D02*
X0151250Y0052405D01*
X0151250Y0051338D01*
X0150182Y0050270D01*
X0144845Y0050270D01*
X0144845Y0051338D02*
X0144845Y0049202D01*
X0148047Y0047027D02*
X0146980Y0045960D01*
X0146980Y0043825D01*
X0148047Y0042757D01*
X0149115Y0042757D01*
X0149115Y0047027D01*
X0150182Y0047027D02*
X0148047Y0047027D01*
X0150182Y0047027D02*
X0151250Y0045960D01*
X0151250Y0043825D01*
X0151250Y0040582D02*
X0146980Y0040582D01*
X0146980Y0037379D01*
X0148047Y0036312D01*
X0151250Y0036312D01*
X0151250Y0034136D02*
X0151250Y0030934D01*
X0150182Y0029866D01*
X0149115Y0030934D01*
X0149115Y0033069D01*
X0148047Y0034136D01*
X0146980Y0033069D01*
X0146980Y0029866D01*
X0148047Y0027691D02*
X0146980Y0026623D01*
X0146980Y0024488D01*
X0148047Y0023421D01*
X0149115Y0023421D01*
X0149115Y0027691D01*
X0150182Y0027691D02*
X0148047Y0027691D01*
X0150182Y0027691D02*
X0151250Y0026623D01*
X0151250Y0024488D01*
X0151250Y0021245D02*
X0146980Y0021245D01*
X0146980Y0018043D01*
X0148047Y0016975D01*
X0151250Y0016975D01*
D12*
X0124100Y0024302D02*
X0121031Y0024302D01*
X0119496Y0025069D02*
X0117961Y0026604D01*
X0117961Y0022000D01*
X0116427Y0022000D02*
X0119496Y0022000D01*
X0114892Y0022000D02*
X0111823Y0025069D01*
X0111823Y0025837D01*
X0112590Y0026604D01*
X0114125Y0026604D01*
X0114892Y0025837D01*
X0114892Y0022000D02*
X0111823Y0022000D01*
X0110288Y0023535D02*
X0108754Y0022000D01*
X0107219Y0023535D01*
X0107219Y0026604D01*
X0110288Y0026604D02*
X0110288Y0023535D01*
X0108337Y0045688D02*
X0105267Y0045688D01*
X0104500Y0046456D01*
X0104500Y0047990D01*
X0105267Y0048757D01*
X0106802Y0048757D01*
X0106802Y0047223D01*
X0108337Y0048757D02*
X0109104Y0047990D01*
X0109104Y0046456D01*
X0108337Y0045688D01*
X0109104Y0050292D02*
X0104500Y0050292D01*
X0104500Y0053361D02*
X0109104Y0053361D01*
X0109104Y0054896D02*
X0109104Y0057198D01*
X0108337Y0057965D01*
X0105267Y0057965D01*
X0104500Y0057198D01*
X0104500Y0054896D01*
X0109104Y0054896D01*
X0109104Y0050292D02*
X0104500Y0053361D01*
X0108754Y0077000D02*
X0107219Y0078535D01*
X0107219Y0081604D01*
X0110288Y0081604D02*
X0110288Y0078535D01*
X0108754Y0077000D01*
X0111823Y0077000D02*
X0114892Y0077000D01*
X0111823Y0080069D01*
X0111823Y0080837D01*
X0112590Y0081604D01*
X0114125Y0081604D01*
X0114892Y0080837D01*
X0117961Y0081604D02*
X0117961Y0077000D01*
X0116427Y0077000D02*
X0119496Y0077000D01*
X0121031Y0079302D02*
X0124100Y0079302D01*
X0122565Y0080837D02*
X0122565Y0077767D01*
X0119496Y0080069D02*
X0117961Y0081604D01*
M02*
