G75*
%MOIN*%
%OFA0B0*%
%FSLAX25Y25*%
%IPPOS*%
%LPD*%
%AMOC8*
5,1,8,0,0,1.08239X$1,22.5*
%
%ADD10R,0.28750X1.96250*%
%ADD11R,0.38750X1.96250*%
%ADD12OC8,0.06000*%
%ADD13R,0.05950X0.05950*%
%ADD14C,0.06000*%
%ADD15C,0.07400*%
%ADD16R,0.17500X0.07500*%
%ADD17R,0.17500X0.27500*%
%ADD18C,0.04800*%
%ADD19C,0.05600*%
D10*
X0016175Y0099925D03*
D11*
X0178675Y0099925D03*
D12*
X0088050Y0028050D03*
X0088050Y0018050D03*
X0069300Y0018050D03*
X0069300Y0028050D03*
X0061800Y0038050D03*
X0051800Y0038050D03*
X0081800Y0091800D03*
X0081800Y0101800D03*
X0061800Y0099300D03*
X0051800Y0099300D03*
X0056800Y0159300D03*
X0056800Y0169300D03*
D13*
X0051800Y0149300D03*
X0061800Y0149300D03*
X0071800Y0149300D03*
X0071800Y0081800D03*
X0061800Y0081800D03*
X0051800Y0081800D03*
X0051800Y0051800D03*
X0061800Y0051800D03*
X0071800Y0051800D03*
D14*
X0071800Y0064200D02*
X0071800Y0069400D01*
X0061800Y0069400D02*
X0061800Y0064200D01*
X0051800Y0064200D02*
X0051800Y0069400D01*
X0051800Y0114200D02*
X0051800Y0119400D01*
X0061800Y0119400D02*
X0061800Y0114200D01*
X0071800Y0114200D02*
X0071800Y0119400D01*
X0071800Y0132950D02*
X0071800Y0138150D01*
X0061800Y0138150D02*
X0061800Y0132950D01*
X0051800Y0132950D02*
X0051800Y0138150D01*
X0101700Y0161800D02*
X0106900Y0161800D01*
X0106900Y0171800D02*
X0101700Y0171800D01*
X0101700Y0181800D02*
X0106900Y0181800D01*
D15*
X0111800Y0071800D03*
X0111800Y0061800D03*
X0111800Y0051800D03*
X0111800Y0041800D03*
X0111800Y0031800D03*
X0121800Y0031800D03*
X0121800Y0041800D03*
X0121800Y0051800D03*
X0121800Y0061800D03*
X0121800Y0071800D03*
D16*
X0116800Y0071800D03*
X0116800Y0031800D03*
D17*
X0116800Y0051800D03*
D18*
X0130550Y0035550D03*
X0093050Y0076800D03*
X0108050Y0088050D03*
X0120550Y0106800D03*
X0136800Y0111800D03*
X0136800Y0133050D03*
X0149300Y0150550D03*
X0136800Y0159300D03*
X0114300Y0155550D03*
X0114300Y0136800D03*
X0091800Y0121800D03*
X0089300Y0109300D03*
X0086800Y0060550D03*
X0139300Y0084300D03*
X0076800Y0165550D03*
X0132646Y0181800D03*
D19*
X0006800Y0011800D03*
X0016800Y0021800D03*
X0006800Y0031800D03*
X0016800Y0041800D03*
X0006800Y0051800D03*
X0016800Y0061800D03*
X0006800Y0071800D03*
X0016800Y0081800D03*
X0006800Y0091800D03*
X0016800Y0101800D03*
X0006800Y0111800D03*
X0016800Y0121800D03*
X0006800Y0131800D03*
X0016800Y0141800D03*
X0006800Y0151800D03*
X0016800Y0161800D03*
X0006800Y0171800D03*
X0016800Y0181800D03*
X0006800Y0191800D03*
X0026800Y0191800D03*
X0026800Y0171800D03*
X0026800Y0151800D03*
X0026800Y0131800D03*
X0026800Y0111800D03*
X0026800Y0091800D03*
X0026800Y0071800D03*
X0026800Y0051800D03*
X0026800Y0031800D03*
X0026800Y0011800D03*
X0161800Y0011800D03*
X0171800Y0021800D03*
X0161800Y0031800D03*
X0171800Y0041800D03*
X0161800Y0051800D03*
X0171800Y0061800D03*
X0161800Y0071800D03*
X0171800Y0081800D03*
X0161800Y0091800D03*
X0171800Y0101800D03*
X0161800Y0111800D03*
X0171800Y0121800D03*
X0161800Y0131800D03*
X0171800Y0141800D03*
X0161800Y0151800D03*
X0171800Y0161800D03*
X0161800Y0171800D03*
X0171800Y0181800D03*
X0161800Y0191800D03*
X0181800Y0191800D03*
X0191800Y0181800D03*
X0181800Y0171800D03*
X0191800Y0161800D03*
X0181800Y0151800D03*
X0191800Y0141800D03*
X0181800Y0131800D03*
X0191800Y0121800D03*
X0181800Y0111800D03*
X0191800Y0101800D03*
X0181800Y0091800D03*
X0191800Y0081800D03*
X0181800Y0071800D03*
X0191800Y0061800D03*
X0181800Y0051800D03*
X0191800Y0041800D03*
X0181800Y0031800D03*
X0191800Y0021800D03*
X0181800Y0011800D03*
M02*
