G75*
%MOIN*%
%OFA0B0*%
%FSLAX25Y25*%
%IPPOS*%
%LPD*%
%AMOC8*
5,1,8,0,0,1.08239X$1,22.5*
%
%ADD10C,0.00400*%
D10*
X0104500Y0046456D02*
X0105267Y0045688D01*
X0108337Y0045688D01*
X0109104Y0046456D01*
X0109104Y0047990D01*
X0108337Y0048757D01*
X0106802Y0048757D02*
X0106802Y0047223D01*
X0106802Y0048757D02*
X0105267Y0048757D01*
X0104500Y0047990D01*
X0104500Y0046456D01*
X0104500Y0050292D02*
X0109104Y0050292D01*
X0104500Y0053361D01*
X0109104Y0053361D01*
X0109104Y0054896D02*
X0109104Y0057198D01*
X0108337Y0057965D01*
X0105267Y0057965D01*
X0104500Y0057198D01*
X0104500Y0054896D01*
X0109104Y0054896D01*
X0108754Y0077000D02*
X0107219Y0078535D01*
X0107219Y0081604D01*
X0110288Y0081604D02*
X0110288Y0078535D01*
X0108754Y0077000D01*
X0111823Y0077000D02*
X0114892Y0077000D01*
X0111823Y0080069D01*
X0111823Y0080837D01*
X0112590Y0081604D01*
X0114125Y0081604D01*
X0114892Y0080837D01*
X0117961Y0081604D02*
X0117961Y0077000D01*
X0116427Y0077000D02*
X0119496Y0077000D01*
X0121031Y0079302D02*
X0124100Y0079302D01*
X0122565Y0080837D02*
X0122565Y0077767D01*
X0119496Y0080069D02*
X0117961Y0081604D01*
X0117961Y0026604D02*
X0117961Y0022000D01*
X0116427Y0022000D02*
X0119496Y0022000D01*
X0121031Y0024302D02*
X0124100Y0024302D01*
X0119496Y0025069D02*
X0117961Y0026604D01*
X0114892Y0025837D02*
X0114125Y0026604D01*
X0112590Y0026604D01*
X0111823Y0025837D01*
X0111823Y0025069D01*
X0114892Y0022000D01*
X0111823Y0022000D01*
X0110288Y0023535D02*
X0108754Y0022000D01*
X0107219Y0023535D01*
X0107219Y0026604D01*
X0110288Y0026604D02*
X0110288Y0023535D01*
M02*
