%
M48
M72
T01C0.0240
T02C0.0315
T03C0.0320
%
T01
X8680Y6055
X9305Y7680
X10805Y8805
X12055Y10680
X13930Y10680
X13680Y12805
X11430Y13680
X11430Y15555
X13680Y15930
X14930Y15055
X13265Y18180
X7680Y16555
X9180Y12180
X8930Y10930
X13930Y8430
X13055Y3555
T02
X12180Y3180
X12180Y4180
X12180Y5180
X12180Y6180
X12180Y7180
X11180Y7180
X11180Y6180
X11180Y5180
X11180Y4180
X11180Y3180
X7180Y5180
X6180Y5180
X5180Y5180
X5180Y8180
X6180Y8180
X7180Y8180
X7180Y14930
X6180Y14930
X5180Y14930
T03
X680Y1180
X1680Y2180
X680Y3180
X1680Y4180
X680Y5180
X1680Y6180
X680Y7180
X1680Y8180
X680Y9180
X1680Y10180
X680Y11180
X1680Y12180
X680Y13180
X1680Y14180
X680Y15180
X1680Y16180
X680Y17180
X1680Y18180
X680Y19180
X2680Y19180
X2680Y17180
X2680Y15180
X2680Y13180
X2680Y11180
X2680Y9180
X2680Y7180
X2680Y5180
X2680Y3180
X2680Y1180
X5180Y3805
X6180Y3805
X6930Y2805
X6930Y1805
X8805Y1805
X8805Y2805
X7180Y6680
X6180Y6680
X5180Y6680
X8180Y9180
X8180Y10180
X7180Y11680
X6180Y11680
X5180Y11680
X5180Y9930
X6180Y9930
X6180Y13555
X5180Y13555
X7180Y13555
X5680Y15930
X5680Y16930
X10430Y17180
X10430Y16180
X10430Y18180
X16180Y17180
X17180Y16180
X16180Y15180
X17180Y14180
X16180Y13180
X17180Y12180
X16180Y11180
X17180Y10180
X16180Y9180
X17180Y8180
X16180Y7180
X17180Y6180
X16180Y5180
X17180Y4180
X16180Y3180
X17180Y2180
X16180Y1180
X18180Y1180
X19180Y2180
X18180Y3180
X19180Y4180
X18180Y5180
X19180Y6180
X18180Y7180
X19180Y8180
X18180Y9180
X19180Y10180
X18180Y11180
X19180Y12180
X18180Y13180
X19180Y14180
X18180Y15180
X19180Y16180
X18180Y17180
X17180Y18180
X16180Y19180
X18180Y19180
X19180Y18180
M30
