G75*
%MOIN*%
%OFA0B0*%
%FSLAX24Y24*%
%IPPOS*%
%LPD*%
%AMOC8*
5,1,8,0,0,1.08239X$1,22.5*
%
%ADD10C,0.0520*%
%ADD11OC8,0.0520*%
%ADD12OC8,0.0630*%
%ADD13R,0.0515X0.0515*%
%ADD14C,0.0515*%
%ADD15C,0.0240*%
%ADD16C,0.0160*%
%ADD17C,0.0320*%
%ADD18C,0.0080*%
%ADD19R,0.0396X0.0396*%
%ADD20C,0.0396*%
%ADD21R,0.0560X0.0560*%
D10*
X001140Y003755D02*
X001140Y004275D01*
X002140Y004275D02*
X002140Y003755D01*
X003140Y003755D02*
X003140Y004275D01*
X003140Y005505D02*
X003140Y006025D01*
X002140Y006025D02*
X002140Y005505D01*
X001140Y005505D02*
X001140Y006025D01*
X004640Y006005D02*
X004640Y006525D01*
X005640Y006525D02*
X005640Y006005D01*
X006640Y006005D02*
X006640Y006525D01*
X007640Y006525D02*
X007640Y006005D01*
X008640Y006005D02*
X008640Y006525D01*
X009640Y006525D02*
X009640Y006005D01*
X010640Y006005D02*
X010640Y006525D01*
X012890Y006525D02*
X012890Y006005D01*
X013890Y006005D02*
X013890Y006525D01*
X014890Y006525D02*
X014890Y006005D01*
X015890Y006005D02*
X015890Y006525D01*
X016890Y006525D02*
X016890Y006005D01*
X017890Y006005D02*
X017890Y006525D01*
X018890Y006525D02*
X018890Y006005D01*
X018890Y009005D02*
X018890Y009525D01*
X017890Y009525D02*
X017890Y009005D01*
X016890Y009005D02*
X016890Y009525D01*
X015890Y009525D02*
X015890Y009005D01*
X014890Y009005D02*
X014890Y009525D01*
X013890Y009525D02*
X013890Y009005D01*
X012890Y009005D02*
X012890Y009525D01*
X010640Y009525D02*
X010640Y009005D01*
X009640Y009005D02*
X009640Y009525D01*
X008640Y009525D02*
X008640Y009005D01*
X007640Y009005D02*
X007640Y009525D01*
X006640Y009525D02*
X006640Y009005D01*
X005640Y009005D02*
X005640Y009525D01*
X004640Y009525D02*
X004640Y009005D01*
X003140Y010505D02*
X003140Y011025D01*
X002140Y011025D02*
X002140Y010505D01*
X001140Y010505D02*
X001140Y011025D01*
X007140Y015880D02*
X007140Y016400D01*
X008140Y016400D02*
X008140Y015880D01*
X009140Y015880D02*
X009140Y016400D01*
X010140Y016400D02*
X010140Y015880D01*
X011140Y015880D02*
X011140Y016400D01*
X012140Y016400D02*
X012140Y015880D01*
X013140Y015880D02*
X013140Y016400D01*
X014140Y018505D02*
X014140Y019025D01*
X015140Y019025D02*
X015140Y018505D01*
X016140Y018505D02*
X016140Y019025D01*
X013140Y018880D02*
X013140Y019400D01*
X012140Y019400D02*
X012140Y018880D01*
X011140Y018880D02*
X011140Y019400D01*
X010140Y019400D02*
X010140Y018880D01*
X009140Y018880D02*
X009140Y019400D01*
X008140Y019400D02*
X008140Y018880D01*
X007140Y018880D02*
X007140Y019400D01*
X017140Y001400D02*
X017140Y000880D01*
X018140Y000880D02*
X018140Y001400D01*
X019140Y001400D02*
X019140Y000880D01*
D11*
X017140Y002890D03*
X017140Y003890D03*
X016140Y003765D03*
X016140Y000765D03*
X019140Y003015D03*
X019140Y004015D03*
X012890Y004515D03*
X012890Y005515D03*
X011640Y005140D03*
X010640Y005515D03*
X010640Y004515D03*
X011640Y008140D03*
X010640Y010140D03*
X010640Y010890D03*
X009640Y010890D03*
X009640Y010140D03*
X008640Y011140D03*
X007640Y011140D03*
X005640Y011140D03*
X005640Y010140D03*
X005515Y004515D03*
X005140Y003640D03*
X004515Y004515D03*
X004140Y003640D03*
X006140Y003015D03*
X007140Y003015D03*
X012015Y011140D03*
X013640Y012765D03*
X014640Y012765D03*
X016015Y012515D03*
X016015Y013515D03*
X017390Y014265D03*
X018140Y014265D03*
X018890Y014265D03*
X018890Y013265D03*
X018140Y013265D03*
X018890Y012140D03*
X018390Y011640D03*
X018890Y011140D03*
X017890Y011015D03*
X017390Y011640D03*
X016890Y011015D03*
X014390Y014265D03*
X013515Y014765D03*
X012515Y014765D03*
X012015Y014140D03*
X014140Y016640D03*
X014140Y017640D03*
X015140Y017640D03*
X015140Y016640D03*
X006140Y018640D03*
X005390Y018140D03*
X005390Y019140D03*
X003765Y019140D03*
X003765Y018140D03*
X004765Y017140D03*
X004765Y016140D03*
X005890Y016140D03*
X005890Y017140D03*
D12*
X008140Y015140D03*
X008140Y014140D03*
X009140Y015140D03*
X010140Y015140D03*
X008640Y012640D03*
X007640Y012640D03*
X012890Y010390D03*
X013890Y010390D03*
X017890Y005140D03*
X018890Y005140D03*
X015890Y004515D03*
X014890Y004515D03*
D13*
X003140Y007515D03*
X002140Y007515D03*
X001140Y007515D03*
X001140Y009015D03*
X002140Y009015D03*
X003140Y009015D03*
X003140Y012515D03*
X002140Y012515D03*
X001140Y012515D03*
D14*
X009640Y002390D03*
X009640Y001390D03*
X010640Y001390D03*
X010640Y002390D03*
X011640Y002390D03*
X011640Y001390D03*
X012640Y001390D03*
X012640Y002390D03*
X013640Y002390D03*
X013640Y001390D03*
D15*
X011640Y002390D02*
X010515Y003515D01*
X009140Y003515D01*
X008640Y003015D01*
X007140Y003015D01*
X002140Y007515D02*
X001140Y007515D01*
X001140Y005765D01*
X001140Y004015D01*
X001140Y012515D01*
X001140Y010765D02*
X001140Y009015D01*
X001140Y007515D01*
D16*
X002140Y008640D02*
X002640Y008140D01*
X003515Y008140D01*
X003640Y008015D01*
X008015Y008015D01*
X008640Y008640D01*
X008640Y009265D01*
X009640Y009265D02*
X009640Y010140D01*
X009640Y010890D01*
X009640Y011015D01*
X009140Y011515D01*
X006015Y011515D01*
X005640Y011140D01*
X005640Y010140D02*
X005640Y009265D01*
X004640Y009265D01*
X003890Y008890D02*
X004390Y008390D01*
X006390Y008390D01*
X006640Y008640D01*
X006640Y009265D01*
X006140Y007515D02*
X006640Y007015D01*
X006640Y006265D01*
X005640Y006265D02*
X004640Y006265D01*
X003640Y006265D01*
X003140Y005765D01*
X002765Y004890D02*
X003765Y004890D01*
X004140Y005265D01*
X008140Y005265D01*
X008640Y005765D01*
X008640Y006265D01*
X009640Y006265D02*
X009640Y006890D01*
X009015Y007515D01*
X007140Y007515D01*
X006140Y007515D02*
X003140Y007515D01*
X002140Y008640D02*
X002140Y009015D01*
X001140Y009015D01*
X002140Y010390D02*
X002640Y009890D01*
X003765Y009890D01*
X003890Y009765D01*
X003890Y008890D01*
X002140Y010390D02*
X002140Y010765D01*
X002140Y012515D02*
X003140Y012515D01*
X004015Y013390D01*
X013640Y013390D01*
X014390Y014265D01*
X014890Y014765D02*
X015140Y014515D01*
X015140Y011765D01*
X015515Y011390D01*
X015515Y011015D01*
X016390Y010140D01*
X016390Y008140D01*
X016890Y007640D01*
X018390Y007640D01*
X018890Y007140D01*
X018890Y006265D01*
X018890Y005140D02*
X018890Y004640D01*
X019140Y004390D01*
X019140Y004015D01*
X019140Y003015D02*
X019140Y001140D01*
X018140Y001140D02*
X018140Y004390D01*
X017890Y004640D01*
X017890Y005140D01*
X017140Y002890D02*
X017140Y001140D01*
X014265Y003890D02*
X014890Y004515D01*
X014265Y003890D02*
X013765Y003890D01*
X012640Y002765D01*
X012640Y002390D01*
X012640Y001390D01*
X011640Y001390D01*
X011640Y002390D01*
X010640Y002390D01*
X010640Y001390D01*
X010640Y004515D02*
X010265Y004515D01*
X009890Y004890D01*
X006140Y004890D01*
X005765Y004515D01*
X005515Y004515D01*
X007140Y003015D02*
X007140Y002140D01*
X006640Y001640D01*
X002640Y001640D01*
X001140Y003140D01*
X001140Y004015D01*
X002140Y005515D02*
X002765Y004890D01*
X002140Y005515D02*
X002140Y005765D01*
X001140Y012515D02*
X001140Y019140D01*
X003765Y019140D01*
X005390Y019140D01*
X005390Y018140D02*
X003765Y018140D01*
X004765Y017515D02*
X004765Y017140D01*
X004765Y017515D02*
X005390Y018140D01*
X005890Y017140D02*
X004890Y016140D01*
X004765Y016140D01*
X007140Y016140D02*
X007140Y016765D01*
X007515Y017140D01*
X013390Y017140D01*
X013890Y016640D01*
X014140Y016640D01*
X015765Y015890D02*
X016765Y014890D01*
X018265Y014890D01*
X018890Y014265D01*
X018140Y014265D02*
X017390Y014265D01*
X016640Y014390D02*
X016640Y011515D01*
X016890Y011265D01*
X016890Y011015D01*
X017390Y011640D02*
X017890Y011015D01*
X017890Y009265D01*
X016890Y009265D02*
X016890Y010140D01*
X016015Y011015D01*
X016015Y012515D01*
X014890Y011140D02*
X013640Y012390D01*
X013640Y012765D01*
X014890Y011140D02*
X014890Y009265D01*
X012890Y008140D02*
X011765Y009265D01*
X011765Y010515D01*
X011390Y010890D01*
X010640Y010890D01*
X012890Y008140D02*
X012890Y006265D01*
X012890Y005515D01*
X012890Y004515D02*
X013890Y005515D01*
X013890Y006265D01*
X012890Y004515D02*
X010640Y004515D01*
X010640Y005515D02*
X010640Y006265D01*
X009640Y006265D01*
X009390Y014140D02*
X012015Y014140D01*
X011640Y014765D02*
X012515Y014765D01*
X011890Y015265D02*
X015765Y015265D01*
X016640Y014390D01*
X015765Y015890D02*
X015765Y018015D01*
X015515Y018265D01*
X015515Y018390D01*
X015140Y018765D01*
X014140Y018765D02*
X014140Y018640D01*
X011140Y016140D02*
X011140Y016015D01*
X011890Y015265D01*
X011640Y014765D02*
X011265Y015140D01*
X010140Y015140D01*
X010140Y016140D01*
X008390Y015140D02*
X009390Y014140D01*
X008390Y015140D02*
X008140Y015140D01*
X008140Y016140D01*
X013515Y014765D02*
X014890Y014765D01*
X018390Y011640D02*
X018890Y011140D01*
X018890Y009265D01*
D17*
X016890Y006890D02*
X016515Y007265D01*
X015265Y007265D01*
X014890Y007640D01*
X014890Y009265D01*
X013890Y009265D02*
X013890Y010390D01*
X012890Y010390D02*
X012890Y009265D01*
X014890Y006890D02*
X014890Y006265D01*
X014890Y005015D01*
X014640Y004765D01*
X014890Y004515D01*
X015890Y004515D02*
X016140Y004765D01*
X016140Y004890D01*
X015890Y005140D01*
X015890Y006265D01*
X016890Y006265D02*
X016890Y006890D01*
X017890Y006265D02*
X017890Y005140D01*
X018890Y005140D02*
X018890Y006265D01*
X016140Y004765D02*
X016140Y003765D01*
X014890Y006890D02*
X015265Y007265D01*
D18*
X000580Y000580D02*
X000580Y019385D01*
X003444Y019385D01*
X003365Y019306D01*
X003365Y019180D01*
X003725Y019180D01*
X003725Y019100D01*
X003805Y019100D01*
X003805Y019180D01*
X004165Y019180D01*
X004165Y019306D01*
X004086Y019385D01*
X005069Y019385D01*
X004990Y019306D01*
X004990Y019180D01*
X005350Y019180D01*
X005350Y019100D01*
X005430Y019100D01*
X005751Y019100D01*
X005891Y019240D01*
X006389Y019240D01*
X006540Y019089D01*
X006540Y019385D01*
X005711Y019385D01*
X005790Y019306D01*
X005790Y019180D01*
X005430Y019180D01*
X005430Y019100D01*
X005430Y018740D01*
X005540Y018740D01*
X005540Y018740D01*
X005141Y018740D01*
X004961Y018560D01*
X004194Y018560D01*
X004014Y018740D01*
X003516Y018740D01*
X003165Y018389D01*
X003165Y017891D01*
X003516Y017540D01*
X004014Y017540D01*
X004194Y017720D01*
X004395Y017720D01*
X004345Y017599D01*
X004345Y017569D01*
X004165Y017389D01*
X004165Y016891D01*
X004416Y016640D01*
X004165Y016389D01*
X004165Y015891D01*
X004516Y015540D01*
X005014Y015540D01*
X005327Y015854D01*
X005641Y015540D01*
X006139Y015540D01*
X006490Y015891D01*
X006490Y016389D01*
X006239Y016640D01*
X006490Y016891D01*
X006490Y017389D01*
X006139Y017740D01*
X005839Y017740D01*
X005990Y017891D01*
X005990Y018040D01*
X006389Y018040D01*
X006740Y018391D01*
X006740Y018431D01*
X006741Y018431D01*
X006740Y018431D02*
X006800Y018371D01*
X007021Y018280D01*
X007259Y018280D01*
X007480Y018371D01*
X007640Y018531D01*
X007800Y018371D01*
X008021Y018280D01*
X008259Y018280D01*
X008480Y018371D01*
X008640Y018531D01*
X008800Y018371D01*
X009021Y018280D01*
X009259Y018280D01*
X009480Y018371D01*
X009640Y018531D01*
X009800Y018371D01*
X010021Y018280D01*
X010259Y018280D01*
X010480Y018371D01*
X010640Y018531D01*
X010800Y018371D01*
X011021Y018280D01*
X011259Y018280D01*
X011480Y018371D01*
X011640Y018531D01*
X011800Y018371D01*
X012021Y018280D01*
X012259Y018280D01*
X012480Y018371D01*
X012640Y018531D01*
X012800Y018371D01*
X013021Y018280D01*
X013259Y018280D01*
X013480Y018371D01*
X013540Y018431D01*
X013539Y018431D01*
X013540Y018431D02*
X013540Y018386D01*
X013631Y018165D01*
X013724Y018073D01*
X013540Y017889D01*
X013540Y017532D01*
X013474Y017560D01*
X007431Y017560D01*
X007277Y017496D01*
X007159Y017378D01*
X006784Y017003D01*
X006720Y016849D01*
X006720Y016829D01*
X006631Y016740D01*
X006540Y016519D01*
X006540Y015761D01*
X006631Y015540D01*
X006800Y015371D01*
X007021Y015280D01*
X007259Y015280D01*
X007480Y015371D01*
X007485Y015376D01*
X007485Y014869D01*
X007855Y014499D01*
X007685Y014328D01*
X007685Y014180D01*
X008100Y014180D01*
X008100Y014100D01*
X007685Y014100D01*
X007685Y013952D01*
X007827Y013810D01*
X003931Y013810D01*
X003777Y013746D01*
X003144Y013112D01*
X002815Y013112D01*
X002690Y013061D01*
X002640Y013011D01*
X002590Y013061D01*
X002465Y013112D01*
X001815Y013112D01*
X001690Y013061D01*
X001594Y012965D01*
X001543Y012840D01*
X001543Y012190D01*
X001594Y012065D01*
X001690Y011969D01*
X001815Y011918D01*
X002465Y011918D01*
X002590Y011969D01*
X002640Y012019D01*
X002690Y011969D01*
X002815Y011918D01*
X003465Y011918D01*
X003590Y011969D01*
X003686Y012065D01*
X003737Y012190D01*
X003737Y012519D01*
X004189Y012970D01*
X007044Y012970D01*
X006985Y012911D01*
X006985Y012369D01*
X007369Y011985D01*
X007911Y011985D01*
X008281Y012355D01*
X008452Y012185D01*
X008600Y012185D01*
X008600Y012600D01*
X008680Y012600D01*
X008680Y012680D01*
X009095Y012680D01*
X009095Y012828D01*
X008953Y012970D01*
X013279Y012970D01*
X013240Y012931D01*
X013240Y012805D01*
X013600Y012805D01*
X013600Y012725D01*
X013680Y012725D01*
X013680Y012805D01*
X014040Y012805D01*
X014040Y012931D01*
X013910Y013060D01*
X013948Y013104D01*
X013996Y013152D01*
X014002Y013167D01*
X014429Y013665D01*
X014639Y013665D01*
X014720Y013746D01*
X014720Y013365D01*
X014391Y013365D01*
X014040Y013014D01*
X014040Y012516D01*
X014391Y012165D01*
X014720Y012165D01*
X014720Y011681D01*
X014784Y011527D01*
X015095Y011216D01*
X015095Y010931D01*
X015159Y010777D01*
X015811Y010125D01*
X015771Y010125D01*
X015550Y010034D01*
X015381Y009865D01*
X015290Y009644D01*
X015290Y008886D01*
X015381Y008665D01*
X015550Y008496D01*
X015771Y008405D01*
X015970Y008405D01*
X015970Y008056D01*
X016034Y007902D01*
X016534Y007402D01*
X016652Y007284D01*
X016806Y007220D01*
X018216Y007220D01*
X018470Y006966D01*
X018470Y006954D01*
X018390Y006874D01*
X018230Y007034D01*
X018009Y007125D01*
X017771Y007125D01*
X017550Y007034D01*
X017381Y006865D01*
X017290Y006644D01*
X017290Y005886D01*
X017381Y005665D01*
X017390Y005656D01*
X017390Y005566D01*
X017235Y005411D01*
X017235Y004869D01*
X017470Y004634D01*
X017470Y004556D01*
X017534Y004402D01*
X017652Y004284D01*
X017720Y004216D01*
X017720Y004159D01*
X017389Y004490D01*
X016891Y004490D01*
X016640Y004239D01*
X016640Y004989D01*
X016564Y005173D01*
X016390Y005347D01*
X016390Y005656D01*
X016399Y005665D01*
X016490Y005886D01*
X016490Y006644D01*
X016399Y006865D01*
X016230Y007034D01*
X016009Y007125D01*
X015771Y007125D01*
X015550Y007034D01*
X015381Y006865D01*
X015290Y006644D01*
X015290Y005886D01*
X015381Y005665D01*
X015390Y005656D01*
X015390Y005041D01*
X015419Y004970D01*
X015249Y004800D01*
X015078Y004970D01*
X014930Y004970D01*
X014930Y004555D01*
X014850Y004555D01*
X014850Y004970D01*
X014702Y004970D01*
X014435Y004703D01*
X014435Y004555D01*
X014850Y004555D01*
X014850Y004475D01*
X014930Y004475D01*
X014930Y004060D01*
X015078Y004060D01*
X015249Y004230D01*
X015540Y003939D01*
X015540Y003516D01*
X015891Y003165D01*
X016389Y003165D01*
X016703Y003479D01*
X016791Y003390D01*
X016540Y003139D01*
X016540Y002641D01*
X016720Y002461D01*
X016720Y001829D01*
X016631Y001740D01*
X016540Y001519D01*
X016540Y001214D01*
X016389Y001365D01*
X015891Y001365D01*
X015540Y001014D01*
X015540Y000580D01*
X000580Y000580D01*
X000580Y000611D02*
X015540Y000611D01*
X015540Y000690D02*
X000580Y000690D01*
X000580Y000768D02*
X015540Y000768D01*
X015540Y000847D02*
X013889Y000847D01*
X013978Y000883D02*
X014147Y001052D01*
X014237Y001271D01*
X014237Y001509D01*
X014147Y001728D01*
X013985Y001890D01*
X014147Y002052D01*
X014237Y002271D01*
X014237Y002509D01*
X014147Y002728D01*
X013978Y002897D01*
X013759Y002987D01*
X013521Y002987D01*
X013302Y002897D01*
X013133Y002728D01*
X013043Y002509D01*
X013043Y002271D01*
X013133Y002052D01*
X013295Y001890D01*
X013133Y001728D01*
X013043Y001509D01*
X013043Y001271D01*
X013133Y001052D01*
X013302Y000883D01*
X013521Y000793D01*
X013759Y000793D01*
X013978Y000883D01*
X014020Y000925D02*
X015540Y000925D01*
X015540Y001004D02*
X014098Y001004D01*
X014159Y001082D02*
X015608Y001082D01*
X015687Y001161D02*
X014192Y001161D01*
X014224Y001239D02*
X015765Y001239D01*
X015844Y001318D02*
X014237Y001318D01*
X014237Y001396D02*
X016540Y001396D01*
X016540Y001318D02*
X016436Y001318D01*
X016515Y001239D02*
X016540Y001239D01*
X016540Y001475D02*
X014237Y001475D01*
X014219Y001553D02*
X016554Y001553D01*
X016586Y001632D02*
X014187Y001632D01*
X014154Y001710D02*
X016619Y001710D01*
X016680Y001789D02*
X014086Y001789D01*
X014008Y001867D02*
X016720Y001867D01*
X016720Y001946D02*
X014040Y001946D01*
X014119Y002024D02*
X016720Y002024D01*
X016720Y002103D02*
X014168Y002103D01*
X014200Y002181D02*
X016720Y002181D01*
X016720Y002260D02*
X014233Y002260D01*
X014237Y002338D02*
X016720Y002338D01*
X016720Y002417D02*
X014237Y002417D01*
X014237Y002495D02*
X016686Y002495D01*
X016608Y002574D02*
X014211Y002574D01*
X014178Y002652D02*
X016540Y002652D01*
X016540Y002731D02*
X014144Y002731D01*
X014066Y002809D02*
X016540Y002809D01*
X016540Y002888D02*
X013987Y002888D01*
X013811Y002966D02*
X016540Y002966D01*
X016540Y003045D02*
X007180Y003045D01*
X007180Y003055D02*
X007540Y003055D01*
X007540Y003181D01*
X007306Y003415D01*
X007180Y003415D01*
X007180Y003055D01*
X007180Y002975D01*
X007540Y002975D01*
X007540Y002849D01*
X007306Y002615D01*
X007180Y002615D01*
X007180Y002975D01*
X007100Y002975D01*
X007100Y002615D01*
X006974Y002615D01*
X006740Y002849D01*
X006740Y002975D01*
X007100Y002975D01*
X007100Y003055D01*
X007100Y003415D01*
X006974Y003415D01*
X006740Y003181D01*
X006740Y003055D01*
X007100Y003055D01*
X007180Y003055D01*
X007180Y003123D02*
X007100Y003123D01*
X007100Y003045D02*
X006740Y003045D01*
X006740Y003123D02*
X006740Y003123D01*
X006740Y003202D02*
X006761Y003202D01*
X006740Y003264D02*
X006389Y003615D01*
X005891Y003615D01*
X005740Y003464D01*
X005740Y003889D01*
X005714Y003915D01*
X005764Y003915D01*
X006115Y004266D01*
X006115Y004271D01*
X006314Y004470D01*
X009716Y004470D01*
X009909Y004277D01*
X010027Y004159D01*
X010181Y004095D01*
X010211Y004095D01*
X010391Y003915D01*
X010889Y003915D01*
X011069Y004095D01*
X012461Y004095D01*
X012641Y003915D01*
X013139Y003915D01*
X013490Y004266D01*
X013490Y004521D01*
X014128Y005159D01*
X014246Y005277D01*
X014310Y005431D01*
X014310Y005576D01*
X014399Y005665D01*
X014490Y005886D01*
X014490Y006644D01*
X014399Y006865D01*
X014230Y007034D01*
X014009Y007125D01*
X013771Y007125D01*
X013550Y007034D01*
X013390Y006874D01*
X013310Y006954D01*
X013310Y008224D01*
X013246Y008378D01*
X013158Y008466D01*
X013230Y008496D01*
X013390Y008656D01*
X013550Y008496D01*
X013771Y008405D01*
X014009Y008405D01*
X014230Y008496D01*
X014399Y008665D01*
X014490Y008886D01*
X014490Y009644D01*
X014399Y009865D01*
X014390Y009874D01*
X014692Y009874D01*
X014701Y009879D02*
X014635Y009836D01*
X014579Y009780D01*
X014536Y009714D01*
X014505Y009642D01*
X014490Y009564D01*
X014490Y009305D01*
X014850Y009305D01*
X014850Y009925D01*
X014773Y009910D01*
X014701Y009879D01*
X014595Y009796D02*
X014427Y009796D01*
X014460Y009717D02*
X014537Y009717D01*
X014505Y009639D02*
X014490Y009639D01*
X014490Y009560D02*
X014490Y009560D01*
X014490Y009482D02*
X014490Y009482D01*
X014490Y009403D02*
X014490Y009403D01*
X014490Y009325D02*
X014490Y009325D01*
X014490Y009246D02*
X014850Y009246D01*
X014850Y009225D02*
X014490Y009225D01*
X014490Y008966D01*
X014505Y008888D01*
X014536Y008816D01*
X014579Y008750D01*
X014635Y008694D01*
X014701Y008651D01*
X014773Y008620D01*
X014850Y008605D01*
X014850Y009225D01*
X014930Y009225D01*
X014930Y009305D01*
X015290Y009305D01*
X015290Y009564D01*
X015275Y009642D01*
X015244Y009714D01*
X015201Y009780D01*
X015145Y009836D01*
X015079Y009879D01*
X015007Y009910D01*
X014930Y009925D01*
X014930Y009305D01*
X014850Y009305D01*
X014850Y009225D01*
X014850Y009168D02*
X014930Y009168D01*
X014930Y009225D02*
X014930Y008605D01*
X015007Y008620D01*
X015079Y008651D01*
X015145Y008694D01*
X015201Y008750D01*
X015244Y008816D01*
X015275Y008888D01*
X015290Y008966D01*
X015290Y009225D01*
X014930Y009225D01*
X014930Y009246D02*
X015290Y009246D01*
X015290Y009168D02*
X015290Y009168D01*
X015290Y009089D02*
X015290Y009089D01*
X015290Y009011D02*
X015290Y009011D01*
X015283Y008932D02*
X015290Y008932D01*
X015303Y008854D02*
X015260Y008854D01*
X015217Y008775D02*
X015336Y008775D01*
X015368Y008697D02*
X015147Y008697D01*
X014995Y008618D02*
X015428Y008618D01*
X015507Y008540D02*
X014273Y008540D01*
X014352Y008618D02*
X014785Y008618D01*
X014850Y008618D02*
X014930Y008618D01*
X014930Y008697D02*
X014850Y008697D01*
X014850Y008775D02*
X014930Y008775D01*
X014930Y008854D02*
X014850Y008854D01*
X014850Y008932D02*
X014930Y008932D01*
X014930Y009011D02*
X014850Y009011D01*
X014850Y009089D02*
X014930Y009089D01*
X014930Y009325D02*
X014850Y009325D01*
X014850Y009403D02*
X014930Y009403D01*
X014930Y009482D02*
X014850Y009482D01*
X014850Y009560D02*
X014930Y009560D01*
X014930Y009639D02*
X014850Y009639D01*
X014850Y009717D02*
X014930Y009717D01*
X014930Y009796D02*
X014850Y009796D01*
X014850Y009874D02*
X014930Y009874D01*
X015088Y009874D02*
X015391Y009874D01*
X015353Y009796D02*
X015185Y009796D01*
X015243Y009717D02*
X015320Y009717D01*
X015290Y009639D02*
X015275Y009639D01*
X015290Y009560D02*
X015290Y009560D01*
X015290Y009482D02*
X015290Y009482D01*
X015290Y009403D02*
X015290Y009403D01*
X015290Y009325D02*
X015290Y009325D01*
X015469Y009953D02*
X014390Y009953D01*
X014390Y009964D02*
X014545Y010119D01*
X014545Y010661D01*
X014161Y011045D01*
X013619Y011045D01*
X013390Y010816D01*
X013161Y011045D01*
X012619Y011045D01*
X012615Y011041D01*
X012615Y011389D01*
X012264Y011740D01*
X011766Y011740D01*
X011415Y011389D01*
X011415Y011310D01*
X011069Y011310D01*
X010889Y011490D01*
X010391Y011490D01*
X010140Y011239D01*
X009889Y011490D01*
X009759Y011490D01*
X009496Y011753D01*
X009378Y011871D01*
X009224Y011935D01*
X005931Y011935D01*
X005777Y011871D01*
X005646Y011740D01*
X005391Y011740D01*
X005040Y011389D01*
X005040Y010891D01*
X005291Y010640D01*
X005040Y010389D01*
X005040Y009974D01*
X004980Y010034D01*
X004759Y010125D01*
X004521Y010125D01*
X004300Y010034D01*
X004253Y009986D01*
X004246Y010003D01*
X004128Y010121D01*
X004003Y010246D01*
X003849Y010310D01*
X003709Y010310D01*
X003740Y010386D01*
X003740Y011144D01*
X003649Y011365D01*
X003480Y011534D01*
X003259Y011625D01*
X003021Y011625D01*
X002800Y011534D01*
X002640Y011374D01*
X002480Y011534D01*
X002259Y011625D01*
X002021Y011625D01*
X001800Y011534D01*
X001631Y011365D01*
X001540Y011144D01*
X001540Y010386D01*
X001631Y010165D01*
X001800Y009996D01*
X002021Y009905D01*
X002031Y009905D01*
X002284Y009652D01*
X002402Y009534D01*
X002556Y009470D01*
X002599Y009470D01*
X002594Y009465D01*
X002543Y009340D01*
X002543Y008690D01*
X002594Y008565D01*
X002690Y008469D01*
X002815Y008418D01*
X003465Y008418D01*
X003590Y008469D01*
X003653Y008533D01*
X004034Y008152D01*
X004152Y008034D01*
X004306Y007970D01*
X006474Y007970D01*
X006628Y008034D01*
X006878Y008284D01*
X006996Y008402D01*
X007060Y008556D01*
X007060Y008576D01*
X007140Y008656D01*
X007300Y008496D01*
X007521Y008405D01*
X007759Y008405D01*
X007980Y008496D01*
X008149Y008665D01*
X008240Y008886D01*
X008240Y009644D01*
X008149Y009865D01*
X007980Y010034D01*
X007759Y010125D01*
X007521Y010125D01*
X007300Y010034D01*
X007140Y009874D01*
X006980Y010034D01*
X006759Y010125D01*
X006521Y010125D01*
X006300Y010034D01*
X006240Y009974D01*
X006240Y010389D01*
X005989Y010640D01*
X006240Y010891D01*
X006240Y011095D01*
X007040Y011095D01*
X007040Y010891D01*
X007391Y010540D01*
X007889Y010540D01*
X008240Y010891D01*
X008240Y011095D01*
X008240Y010974D01*
X008474Y010740D01*
X008600Y010740D01*
X008600Y011095D01*
X008680Y011095D01*
X008680Y010740D01*
X008806Y010740D01*
X009040Y010974D01*
X009040Y011021D01*
X009040Y010641D01*
X009166Y010515D01*
X009040Y010389D01*
X009040Y009891D01*
X009112Y009819D01*
X009040Y009644D01*
X009040Y008886D01*
X009131Y008665D01*
X009300Y008496D01*
X009521Y008405D01*
X009759Y008405D01*
X009980Y008496D01*
X010140Y008656D01*
X010300Y008496D01*
X010521Y008405D01*
X010759Y008405D01*
X010980Y008496D01*
X011149Y008665D01*
X011240Y008886D01*
X011240Y009644D01*
X011168Y009819D01*
X011240Y009891D01*
X011240Y010389D01*
X011159Y010470D01*
X011216Y010470D01*
X011345Y010341D01*
X011345Y009181D01*
X011409Y009027D01*
X011527Y008909D01*
X011696Y008740D01*
X011391Y008740D01*
X011040Y008389D01*
X011040Y007891D01*
X011391Y007540D01*
X011889Y007540D01*
X012240Y007891D01*
X012240Y008196D01*
X012470Y007966D01*
X012470Y006954D01*
X012381Y006865D01*
X012290Y006644D01*
X012290Y005886D01*
X012326Y005799D01*
X012290Y005764D01*
X012290Y005266D01*
X012541Y005015D01*
X012461Y004935D01*
X012240Y004935D01*
X012240Y005389D01*
X011889Y005740D01*
X011391Y005740D01*
X011240Y005589D01*
X011240Y005764D01*
X011204Y005799D01*
X011240Y005886D01*
X011240Y006644D01*
X011149Y006865D01*
X010980Y007034D01*
X010759Y007125D01*
X010521Y007125D01*
X010300Y007034D01*
X010140Y006874D01*
X010060Y006954D01*
X010060Y006974D01*
X009996Y007128D01*
X009371Y007753D01*
X009253Y007871D01*
X009099Y007935D01*
X007481Y007935D01*
X007445Y007971D01*
X007247Y008053D01*
X007033Y008053D01*
X006835Y007971D01*
X006684Y007820D01*
X006609Y007640D01*
X006378Y007871D01*
X006224Y007935D01*
X003698Y007935D01*
X003686Y007965D01*
X003590Y008061D01*
X003465Y008112D01*
X002815Y008112D01*
X002690Y008061D01*
X002594Y007965D01*
X002543Y007840D01*
X002543Y007190D01*
X002594Y007065D01*
X002690Y006969D01*
X002815Y006918D01*
X003465Y006918D01*
X003590Y006969D01*
X003686Y007065D01*
X003698Y007095D01*
X004448Y007095D01*
X004300Y007034D01*
X004131Y006865D01*
X004057Y006685D01*
X003556Y006685D01*
X003402Y006621D01*
X003363Y006582D01*
X003259Y006625D01*
X003021Y006625D01*
X002800Y006534D01*
X002640Y006374D01*
X002480Y006534D01*
X002259Y006625D01*
X002021Y006625D01*
X001800Y006534D01*
X001631Y006365D01*
X001540Y006144D01*
X001540Y005386D01*
X001631Y005165D01*
X001800Y004996D01*
X002021Y004905D01*
X002156Y004905D01*
X002186Y004875D01*
X002021Y004875D01*
X001800Y004784D01*
X001631Y004615D01*
X001540Y004394D01*
X001540Y003636D01*
X001631Y003415D01*
X001800Y003246D01*
X002021Y003155D01*
X002259Y003155D01*
X002480Y003246D01*
X002640Y003406D01*
X002800Y003246D01*
X003021Y003155D01*
X003259Y003155D01*
X003480Y003246D01*
X003583Y003349D01*
X003891Y003040D01*
X004389Y003040D01*
X004640Y003291D01*
X004891Y003040D01*
X005389Y003040D01*
X005540Y003191D01*
X005540Y002766D01*
X005891Y002415D01*
X006389Y002415D01*
X006740Y002766D01*
X006740Y003264D01*
X006724Y003280D02*
X006839Y003280D01*
X006918Y003359D02*
X006645Y003359D01*
X006567Y003437D02*
X015619Y003437D01*
X015541Y003516D02*
X006488Y003516D01*
X006410Y003594D02*
X015540Y003594D01*
X015540Y003673D02*
X005740Y003673D01*
X005740Y003751D02*
X015540Y003751D01*
X015540Y003830D02*
X005740Y003830D01*
X005721Y003908D02*
X015540Y003908D01*
X015492Y003987D02*
X013210Y003987D01*
X013289Y004065D02*
X014697Y004065D01*
X014702Y004060D02*
X014850Y004060D01*
X014850Y004475D01*
X014435Y004475D01*
X014435Y004327D01*
X014702Y004060D01*
X014618Y004144D02*
X013367Y004144D01*
X013446Y004222D02*
X014540Y004222D01*
X014461Y004301D02*
X013490Y004301D01*
X013490Y004379D02*
X014435Y004379D01*
X014435Y004458D02*
X013490Y004458D01*
X013505Y004536D02*
X014850Y004536D01*
X014850Y004458D02*
X014930Y004458D01*
X014930Y004379D02*
X014850Y004379D01*
X014850Y004301D02*
X014930Y004301D01*
X014930Y004222D02*
X014850Y004222D01*
X014850Y004144D02*
X014930Y004144D01*
X014930Y004065D02*
X014850Y004065D01*
X015083Y004065D02*
X015414Y004065D01*
X015335Y004144D02*
X015162Y004144D01*
X015240Y004222D02*
X015257Y004222D01*
X014930Y004615D02*
X014850Y004615D01*
X014850Y004693D02*
X014930Y004693D01*
X014930Y004772D02*
X014850Y004772D01*
X014850Y004850D02*
X014930Y004850D01*
X014930Y004929D02*
X014850Y004929D01*
X014660Y004929D02*
X013897Y004929D01*
X013976Y005007D02*
X015404Y005007D01*
X015390Y005086D02*
X014054Y005086D01*
X014128Y005159D02*
X014128Y005159D01*
X014133Y005164D02*
X015390Y005164D01*
X015390Y005243D02*
X014211Y005243D01*
X014264Y005321D02*
X015390Y005321D01*
X015390Y005400D02*
X014297Y005400D01*
X014310Y005478D02*
X015390Y005478D01*
X015390Y005557D02*
X014310Y005557D01*
X014369Y005635D02*
X014738Y005635D01*
X014773Y005620D02*
X014850Y005605D01*
X014850Y006225D01*
X014930Y006225D01*
X014930Y006305D01*
X015290Y006305D01*
X015290Y006564D01*
X015275Y006642D01*
X015244Y006714D01*
X015201Y006780D01*
X015145Y006836D01*
X015079Y006879D01*
X015007Y006910D01*
X014930Y006925D01*
X014930Y006305D01*
X014850Y006305D01*
X014850Y006925D01*
X014773Y006910D01*
X014701Y006879D01*
X014635Y006836D01*
X014579Y006780D01*
X014536Y006714D01*
X014505Y006642D01*
X014490Y006564D01*
X014490Y006305D01*
X014850Y006305D01*
X014850Y006225D01*
X014490Y006225D01*
X014490Y005966D01*
X014505Y005888D01*
X014536Y005816D01*
X014579Y005750D01*
X014635Y005694D01*
X014701Y005651D01*
X014773Y005620D01*
X014850Y005635D02*
X014930Y005635D01*
X014930Y005605D02*
X015007Y005620D01*
X015079Y005651D01*
X015145Y005694D01*
X015201Y005750D01*
X015244Y005816D01*
X015275Y005888D01*
X015290Y005966D01*
X015290Y006225D01*
X014930Y006225D01*
X014930Y005605D01*
X014930Y005714D02*
X014850Y005714D01*
X014850Y005792D02*
X014930Y005792D01*
X014930Y005871D02*
X014850Y005871D01*
X014850Y005949D02*
X014930Y005949D01*
X014930Y006028D02*
X014850Y006028D01*
X014850Y006106D02*
X014930Y006106D01*
X014930Y006185D02*
X014850Y006185D01*
X014850Y006263D02*
X014490Y006263D01*
X014490Y006185D02*
X014490Y006185D01*
X014490Y006106D02*
X014490Y006106D01*
X014490Y006028D02*
X014490Y006028D01*
X014490Y005949D02*
X014493Y005949D01*
X014484Y005871D02*
X014513Y005871D01*
X014551Y005792D02*
X014451Y005792D01*
X014419Y005714D02*
X014616Y005714D01*
X015042Y005635D02*
X015390Y005635D01*
X015361Y005714D02*
X015164Y005714D01*
X015229Y005792D02*
X015329Y005792D01*
X015296Y005871D02*
X015267Y005871D01*
X015287Y005949D02*
X015290Y005949D01*
X015290Y006028D02*
X015290Y006028D01*
X015290Y006106D02*
X015290Y006106D01*
X015290Y006185D02*
X015290Y006185D01*
X015290Y006263D02*
X014930Y006263D01*
X014930Y006342D02*
X014850Y006342D01*
X014850Y006420D02*
X014930Y006420D01*
X014930Y006499D02*
X014850Y006499D01*
X014850Y006577D02*
X014930Y006577D01*
X014930Y006656D02*
X014850Y006656D01*
X014850Y006734D02*
X014930Y006734D01*
X014930Y006813D02*
X014850Y006813D01*
X014850Y006891D02*
X014930Y006891D01*
X015052Y006891D02*
X015407Y006891D01*
X015360Y006813D02*
X015168Y006813D01*
X015231Y006734D02*
X015327Y006734D01*
X015295Y006656D02*
X015269Y006656D01*
X015287Y006577D02*
X015290Y006577D01*
X015290Y006499D02*
X015290Y006499D01*
X015290Y006420D02*
X015290Y006420D01*
X015290Y006342D02*
X015290Y006342D01*
X015486Y006970D02*
X014294Y006970D01*
X014373Y006891D02*
X014728Y006891D01*
X014612Y006813D02*
X014420Y006813D01*
X014453Y006734D02*
X014549Y006734D01*
X014511Y006656D02*
X014485Y006656D01*
X014490Y006577D02*
X014493Y006577D01*
X014490Y006499D02*
X014490Y006499D01*
X014490Y006420D02*
X014490Y006420D01*
X014490Y006342D02*
X014490Y006342D01*
X014195Y007048D02*
X015585Y007048D01*
X016195Y007048D02*
X017585Y007048D01*
X017486Y006970D02*
X016294Y006970D01*
X016373Y006891D02*
X016728Y006891D01*
X016701Y006879D02*
X016635Y006836D01*
X016579Y006780D01*
X016536Y006714D01*
X016505Y006642D01*
X016490Y006564D01*
X016490Y006305D01*
X016850Y006305D01*
X016850Y006925D01*
X016773Y006910D01*
X016701Y006879D01*
X016612Y006813D02*
X016420Y006813D01*
X016453Y006734D02*
X016549Y006734D01*
X016511Y006656D02*
X016485Y006656D01*
X016490Y006577D02*
X016493Y006577D01*
X016490Y006499D02*
X016490Y006499D01*
X016490Y006420D02*
X016490Y006420D01*
X016490Y006342D02*
X016490Y006342D01*
X016490Y006263D02*
X016850Y006263D01*
X016850Y006225D02*
X016490Y006225D01*
X016490Y005966D01*
X016505Y005888D01*
X016536Y005816D01*
X016579Y005750D01*
X016635Y005694D01*
X016701Y005651D01*
X016773Y005620D01*
X016850Y005605D01*
X016850Y006225D01*
X016930Y006225D01*
X016930Y006305D01*
X017290Y006305D01*
X017290Y006564D01*
X017275Y006642D01*
X017244Y006714D01*
X017201Y006780D01*
X017145Y006836D01*
X017079Y006879D01*
X017007Y006910D01*
X016930Y006925D01*
X016930Y006305D01*
X016850Y006305D01*
X016850Y006225D01*
X016850Y006185D02*
X016930Y006185D01*
X016930Y006225D02*
X016930Y005605D01*
X017007Y005620D01*
X017079Y005651D01*
X017145Y005694D01*
X017201Y005750D01*
X017244Y005816D01*
X017275Y005888D01*
X017290Y005966D01*
X017290Y006225D01*
X016930Y006225D01*
X016930Y006263D02*
X017290Y006263D01*
X017290Y006185D02*
X017290Y006185D01*
X017290Y006106D02*
X017290Y006106D01*
X017290Y006028D02*
X017290Y006028D01*
X017287Y005949D02*
X017290Y005949D01*
X017296Y005871D02*
X017267Y005871D01*
X017229Y005792D02*
X017329Y005792D01*
X017361Y005714D02*
X017164Y005714D01*
X017042Y005635D02*
X017390Y005635D01*
X017380Y005557D02*
X016390Y005557D01*
X016390Y005635D02*
X016738Y005635D01*
X016850Y005635D02*
X016930Y005635D01*
X016930Y005714D02*
X016850Y005714D01*
X016850Y005792D02*
X016930Y005792D01*
X016930Y005871D02*
X016850Y005871D01*
X016850Y005949D02*
X016930Y005949D01*
X016930Y006028D02*
X016850Y006028D01*
X016850Y006106D02*
X016930Y006106D01*
X016930Y006342D02*
X016850Y006342D01*
X016850Y006420D02*
X016930Y006420D01*
X016930Y006499D02*
X016850Y006499D01*
X016850Y006577D02*
X016930Y006577D01*
X016930Y006656D02*
X016850Y006656D01*
X016850Y006734D02*
X016930Y006734D01*
X016930Y006813D02*
X016850Y006813D01*
X016850Y006891D02*
X016930Y006891D01*
X017052Y006891D02*
X017407Y006891D01*
X017360Y006813D02*
X017168Y006813D01*
X017231Y006734D02*
X017327Y006734D01*
X017295Y006656D02*
X017269Y006656D01*
X017287Y006577D02*
X017290Y006577D01*
X017290Y006499D02*
X017290Y006499D01*
X017290Y006420D02*
X017290Y006420D01*
X017290Y006342D02*
X017290Y006342D01*
X016490Y006185D02*
X016490Y006185D01*
X016490Y006106D02*
X016490Y006106D01*
X016490Y006028D02*
X016490Y006028D01*
X016490Y005949D02*
X016493Y005949D01*
X016484Y005871D02*
X016513Y005871D01*
X016551Y005792D02*
X016451Y005792D01*
X016419Y005714D02*
X016616Y005714D01*
X016390Y005478D02*
X017302Y005478D01*
X017235Y005400D02*
X016390Y005400D01*
X016416Y005321D02*
X017235Y005321D01*
X017235Y005243D02*
X016495Y005243D01*
X016568Y005164D02*
X017235Y005164D01*
X017235Y005086D02*
X016600Y005086D01*
X016633Y005007D02*
X017235Y005007D01*
X017235Y004929D02*
X016640Y004929D01*
X016640Y004850D02*
X017254Y004850D01*
X017332Y004772D02*
X016640Y004772D01*
X016640Y004693D02*
X017411Y004693D01*
X017470Y004615D02*
X016640Y004615D01*
X016640Y004536D02*
X017478Y004536D01*
X017511Y004458D02*
X017421Y004458D01*
X017500Y004379D02*
X017557Y004379D01*
X017578Y004301D02*
X017636Y004301D01*
X017657Y004222D02*
X017714Y004222D01*
X016859Y004458D02*
X016640Y004458D01*
X016640Y004379D02*
X016780Y004379D01*
X016702Y004301D02*
X016640Y004301D01*
X016661Y003437D02*
X016744Y003437D01*
X016760Y003359D02*
X016582Y003359D01*
X016504Y003280D02*
X016681Y003280D01*
X016603Y003202D02*
X016425Y003202D01*
X016540Y003123D02*
X007540Y003123D01*
X007519Y003202D02*
X015855Y003202D01*
X015776Y003280D02*
X007441Y003280D01*
X007362Y003359D02*
X015698Y003359D01*
X014435Y004615D02*
X013583Y004615D01*
X013662Y004693D02*
X014435Y004693D01*
X014503Y004772D02*
X013740Y004772D01*
X013819Y004850D02*
X014582Y004850D01*
X015120Y004929D02*
X015377Y004929D01*
X015299Y004850D02*
X015198Y004850D01*
X013469Y002966D02*
X009811Y002966D01*
X009759Y002987D02*
X009521Y002987D01*
X009302Y002897D01*
X009133Y002728D01*
X009043Y002509D01*
X009043Y002271D01*
X009133Y002052D01*
X009295Y001890D01*
X009133Y001728D01*
X009043Y001509D01*
X009043Y001271D01*
X009133Y001052D01*
X009302Y000883D01*
X009521Y000793D01*
X009759Y000793D01*
X009978Y000883D01*
X010147Y001052D01*
X010237Y001271D01*
X010237Y001509D01*
X010147Y001728D01*
X009985Y001890D01*
X010147Y002052D01*
X010237Y002271D01*
X010237Y002509D01*
X010147Y002728D01*
X009978Y002897D01*
X009759Y002987D01*
X009987Y002888D02*
X013293Y002888D01*
X013214Y002809D02*
X010066Y002809D01*
X010144Y002731D02*
X010434Y002731D01*
X010452Y002742D02*
X010387Y002699D01*
X010331Y002643D01*
X010288Y002578D01*
X010258Y002506D01*
X010243Y002429D01*
X010243Y002429D01*
X010601Y002429D01*
X010601Y002787D01*
X010524Y002772D01*
X010452Y002742D01*
X010340Y002652D02*
X010178Y002652D01*
X010211Y002574D02*
X010286Y002574D01*
X010256Y002495D02*
X010237Y002495D01*
X010237Y002417D02*
X010601Y002417D01*
X010601Y002429D02*
X010601Y002351D01*
X010243Y002351D01*
X010258Y002274D01*
X010288Y002202D01*
X010331Y002137D01*
X010387Y002081D01*
X010452Y002038D01*
X010524Y002008D01*
X010601Y001993D01*
X010601Y001993D01*
X010601Y002351D01*
X010679Y002351D01*
X010679Y002429D01*
X010601Y002429D01*
X010601Y002495D02*
X010679Y002495D01*
X010679Y002429D02*
X010679Y002787D01*
X010679Y002787D01*
X010756Y002772D01*
X010828Y002742D01*
X010893Y002699D01*
X010949Y002643D01*
X010992Y002578D01*
X011022Y002506D01*
X011037Y002429D01*
X011037Y002429D01*
X010679Y002429D01*
X010679Y002417D02*
X011601Y002417D01*
X011601Y002429D02*
X011601Y002351D01*
X011243Y002351D01*
X011258Y002274D01*
X011288Y002202D01*
X011331Y002137D01*
X011387Y002081D01*
X011452Y002038D01*
X011524Y002008D01*
X011601Y001993D01*
X011601Y001993D01*
X011601Y002351D01*
X011679Y002351D01*
X011679Y002429D01*
X011601Y002429D01*
X011601Y002787D01*
X011524Y002772D01*
X011452Y002742D01*
X011387Y002699D01*
X011331Y002643D01*
X011288Y002578D01*
X011258Y002506D01*
X011243Y002429D01*
X011243Y002429D01*
X011601Y002429D01*
X011601Y002495D02*
X011679Y002495D01*
X011679Y002429D02*
X011679Y002787D01*
X011679Y002787D01*
X011756Y002772D01*
X011828Y002742D01*
X011893Y002699D01*
X011949Y002643D01*
X011992Y002578D01*
X012022Y002506D01*
X012037Y002429D01*
X012037Y002429D01*
X011679Y002429D01*
X011679Y002417D02*
X012601Y002417D01*
X012601Y002429D02*
X012601Y002351D01*
X012243Y002351D01*
X012258Y002274D01*
X012288Y002202D01*
X012331Y002137D01*
X012387Y002081D01*
X012452Y002038D01*
X012524Y002008D01*
X012601Y001993D01*
X012601Y001993D01*
X012601Y002351D01*
X012679Y002351D01*
X012679Y002429D01*
X012601Y002429D01*
X012601Y002787D01*
X012524Y002772D01*
X012452Y002742D01*
X012387Y002699D01*
X012331Y002643D01*
X012288Y002578D01*
X012258Y002506D01*
X012243Y002429D01*
X012243Y002429D01*
X012601Y002429D01*
X012601Y002495D02*
X012679Y002495D01*
X012679Y002429D02*
X012679Y002787D01*
X012679Y002787D01*
X012756Y002772D01*
X012828Y002742D01*
X012893Y002699D01*
X012949Y002643D01*
X012992Y002578D01*
X013022Y002506D01*
X013037Y002429D01*
X013037Y002429D01*
X012679Y002429D01*
X012679Y002417D02*
X013043Y002417D01*
X013037Y002351D02*
X012679Y002351D01*
X012679Y001993D01*
X012756Y002008D01*
X012828Y002038D01*
X012893Y002081D01*
X012949Y002137D01*
X012992Y002202D01*
X013022Y002274D01*
X013037Y002351D01*
X013037Y002351D01*
X013035Y002338D02*
X013043Y002338D01*
X013047Y002260D02*
X013016Y002260D01*
X012978Y002181D02*
X013080Y002181D01*
X013112Y002103D02*
X012915Y002103D01*
X012795Y002024D02*
X013161Y002024D01*
X013240Y001946D02*
X010040Y001946D01*
X010008Y001867D02*
X013272Y001867D01*
X013194Y001789D02*
X010086Y001789D01*
X010154Y001710D02*
X010403Y001710D01*
X010387Y001699D02*
X010331Y001643D01*
X010288Y001578D01*
X010258Y001506D01*
X010243Y001429D01*
X010243Y001429D01*
X010601Y001429D01*
X010601Y001787D01*
X010524Y001772D01*
X010452Y001742D01*
X010387Y001699D01*
X010323Y001632D02*
X010187Y001632D01*
X010219Y001553D02*
X010277Y001553D01*
X010252Y001475D02*
X010237Y001475D01*
X010237Y001396D02*
X010601Y001396D01*
X010601Y001429D02*
X010601Y001351D01*
X010243Y001351D01*
X010258Y001274D01*
X010288Y001202D01*
X010331Y001137D01*
X010387Y001081D01*
X010452Y001038D01*
X010524Y001008D01*
X010601Y000993D01*
X010601Y000993D01*
X010601Y001351D01*
X010679Y001351D01*
X010679Y001429D01*
X010601Y001429D01*
X010601Y001475D02*
X010679Y001475D01*
X010679Y001429D02*
X010679Y001787D01*
X010679Y001787D01*
X010756Y001772D01*
X010828Y001742D01*
X010893Y001699D01*
X010949Y001643D01*
X010992Y001578D01*
X011022Y001506D01*
X011037Y001429D01*
X011037Y001429D01*
X010679Y001429D01*
X010679Y001396D02*
X011601Y001396D01*
X011601Y001429D02*
X011601Y001351D01*
X011243Y001351D01*
X011258Y001274D01*
X011288Y001202D01*
X011331Y001137D01*
X011387Y001081D01*
X011452Y001038D01*
X011524Y001008D01*
X011601Y000993D01*
X011601Y000993D01*
X011601Y001351D01*
X011679Y001351D01*
X011679Y001429D01*
X011601Y001429D01*
X011601Y001787D01*
X011524Y001772D01*
X011452Y001742D01*
X011387Y001699D01*
X011331Y001643D01*
X011288Y001578D01*
X011258Y001506D01*
X011243Y001429D01*
X011243Y001429D01*
X011601Y001429D01*
X011601Y001475D02*
X011679Y001475D01*
X011679Y001429D02*
X011679Y001787D01*
X011679Y001787D01*
X011756Y001772D01*
X011828Y001742D01*
X011893Y001699D01*
X011949Y001643D01*
X011992Y001578D01*
X012022Y001506D01*
X012037Y001429D01*
X012037Y001429D01*
X011679Y001429D01*
X011679Y001396D02*
X012601Y001396D01*
X012601Y001429D02*
X012601Y001351D01*
X012243Y001351D01*
X012258Y001274D01*
X012288Y001202D01*
X012331Y001137D01*
X012387Y001081D01*
X012452Y001038D01*
X012524Y001008D01*
X012601Y000993D01*
X012601Y000993D01*
X012601Y001351D01*
X012679Y001351D01*
X012679Y001429D01*
X012601Y001429D01*
X012601Y001787D01*
X012524Y001772D01*
X012452Y001742D01*
X012387Y001699D01*
X012331Y001643D01*
X012288Y001578D01*
X012258Y001506D01*
X012243Y001429D01*
X012243Y001429D01*
X012601Y001429D01*
X012601Y001475D02*
X012679Y001475D01*
X012679Y001429D02*
X012679Y001787D01*
X012679Y001787D01*
X012756Y001772D01*
X012828Y001742D01*
X012893Y001699D01*
X012949Y001643D01*
X012992Y001578D01*
X013022Y001506D01*
X013037Y001429D01*
X013037Y001429D01*
X012679Y001429D01*
X012679Y001396D02*
X013043Y001396D01*
X013037Y001351D02*
X012679Y001351D01*
X012679Y000993D01*
X012756Y001008D01*
X012828Y001038D01*
X012893Y001081D01*
X012949Y001137D01*
X012992Y001202D01*
X013022Y001274D01*
X013037Y001351D01*
X013037Y001351D01*
X013031Y001318D02*
X013043Y001318D01*
X013056Y001239D02*
X013008Y001239D01*
X012965Y001161D02*
X013088Y001161D01*
X013121Y001082D02*
X012894Y001082D01*
X012734Y001004D02*
X013182Y001004D01*
X013260Y000925D02*
X010020Y000925D01*
X010098Y001004D02*
X010546Y001004D01*
X010601Y001004D02*
X010679Y001004D01*
X010679Y000993D02*
X010756Y001008D01*
X010828Y001038D01*
X010893Y001081D01*
X010949Y001137D01*
X010992Y001202D01*
X011022Y001274D01*
X011037Y001351D01*
X011037Y001351D01*
X010679Y001351D01*
X010679Y000993D01*
X010679Y000993D01*
X010734Y001004D02*
X011546Y001004D01*
X011601Y001004D02*
X011679Y001004D01*
X011679Y000993D02*
X011756Y001008D01*
X011828Y001038D01*
X011893Y001081D01*
X011949Y001137D01*
X011992Y001202D01*
X012022Y001274D01*
X012037Y001351D01*
X012037Y001351D01*
X011679Y001351D01*
X011679Y000993D01*
X011679Y000993D01*
X011734Y001004D02*
X012546Y001004D01*
X012601Y001004D02*
X012679Y001004D01*
X012679Y000993D02*
X012679Y000993D01*
X012679Y001082D02*
X012601Y001082D01*
X012601Y001161D02*
X012679Y001161D01*
X012679Y001239D02*
X012601Y001239D01*
X012601Y001318D02*
X012679Y001318D01*
X012679Y001553D02*
X012601Y001553D01*
X012601Y001632D02*
X012679Y001632D01*
X012679Y001710D02*
X012601Y001710D01*
X012601Y001787D02*
X012601Y001787D01*
X012403Y001710D02*
X011877Y001710D01*
X011957Y001632D02*
X012323Y001632D01*
X012277Y001553D02*
X012003Y001553D01*
X012028Y001475D02*
X012252Y001475D01*
X012243Y001351D02*
X012243Y001351D01*
X012249Y001318D02*
X012031Y001318D01*
X012008Y001239D02*
X012272Y001239D01*
X012315Y001161D02*
X011965Y001161D01*
X011894Y001082D02*
X012386Y001082D01*
X011679Y001082D02*
X011601Y001082D01*
X011601Y001161D02*
X011679Y001161D01*
X011679Y001239D02*
X011601Y001239D01*
X011601Y001318D02*
X011679Y001318D01*
X011679Y001553D02*
X011601Y001553D01*
X011601Y001632D02*
X011679Y001632D01*
X011679Y001710D02*
X011601Y001710D01*
X011601Y001787D02*
X011601Y001787D01*
X011403Y001710D02*
X010877Y001710D01*
X010957Y001632D02*
X011323Y001632D01*
X011277Y001553D02*
X011003Y001553D01*
X011028Y001475D02*
X011252Y001475D01*
X011243Y001351D02*
X011243Y001351D01*
X011249Y001318D02*
X011031Y001318D01*
X011008Y001239D02*
X011272Y001239D01*
X011315Y001161D02*
X010965Y001161D01*
X010894Y001082D02*
X011386Y001082D01*
X010679Y001082D02*
X010601Y001082D01*
X010601Y001161D02*
X010679Y001161D01*
X010679Y001239D02*
X010601Y001239D01*
X010601Y001318D02*
X010679Y001318D01*
X010679Y001553D02*
X010601Y001553D01*
X010601Y001632D02*
X010679Y001632D01*
X010679Y001710D02*
X010601Y001710D01*
X010601Y001787D02*
X010601Y001787D01*
X010679Y001993D02*
X010679Y001993D01*
X010756Y002008D01*
X010828Y002038D01*
X010893Y002081D01*
X010949Y002137D01*
X010992Y002202D01*
X011022Y002274D01*
X011037Y002351D01*
X011037Y002351D01*
X010679Y002351D01*
X010679Y001993D01*
X010679Y002024D02*
X010601Y002024D01*
X010601Y002103D02*
X010679Y002103D01*
X010679Y002181D02*
X010601Y002181D01*
X010601Y002260D02*
X010679Y002260D01*
X010679Y002338D02*
X010601Y002338D01*
X010601Y002574D02*
X010679Y002574D01*
X010679Y002652D02*
X010601Y002652D01*
X010601Y002731D02*
X010679Y002731D01*
X010601Y002787D02*
X010601Y002787D01*
X010846Y002731D02*
X011434Y002731D01*
X011340Y002652D02*
X010940Y002652D01*
X010994Y002574D02*
X011286Y002574D01*
X011256Y002495D02*
X011024Y002495D01*
X011035Y002338D02*
X011245Y002338D01*
X011243Y002351D02*
X011243Y002351D01*
X011264Y002260D02*
X011016Y002260D01*
X010978Y002181D02*
X011302Y002181D01*
X011365Y002103D02*
X010915Y002103D01*
X010795Y002024D02*
X011485Y002024D01*
X011601Y002024D02*
X011679Y002024D01*
X011679Y001993D02*
X011756Y002008D01*
X011828Y002038D01*
X011893Y002081D01*
X011949Y002137D01*
X011992Y002202D01*
X012022Y002274D01*
X012037Y002351D01*
X012037Y002351D01*
X011679Y002351D01*
X011679Y001993D01*
X011679Y001993D01*
X011679Y002103D02*
X011601Y002103D01*
X011601Y002181D02*
X011679Y002181D01*
X011679Y002260D02*
X011601Y002260D01*
X011601Y002338D02*
X011679Y002338D01*
X011679Y002574D02*
X011601Y002574D01*
X011601Y002652D02*
X011679Y002652D01*
X011679Y002731D02*
X011601Y002731D01*
X011601Y002787D02*
X011601Y002787D01*
X011846Y002731D02*
X012434Y002731D01*
X012340Y002652D02*
X011940Y002652D01*
X011994Y002574D02*
X012286Y002574D01*
X012256Y002495D02*
X012024Y002495D01*
X012035Y002338D02*
X012245Y002338D01*
X012243Y002351D02*
X012243Y002351D01*
X012264Y002260D02*
X012016Y002260D01*
X011978Y002181D02*
X012302Y002181D01*
X012365Y002103D02*
X011915Y002103D01*
X011795Y002024D02*
X012485Y002024D01*
X012601Y002024D02*
X012679Y002024D01*
X012679Y001993D02*
X012679Y001993D01*
X012679Y002103D02*
X012601Y002103D01*
X012601Y002181D02*
X012679Y002181D01*
X012679Y002260D02*
X012601Y002260D01*
X012601Y002338D02*
X012679Y002338D01*
X012679Y002574D02*
X012601Y002574D01*
X012601Y002652D02*
X012679Y002652D01*
X012679Y002731D02*
X012601Y002731D01*
X012601Y002787D02*
X012601Y002787D01*
X012846Y002731D02*
X013136Y002731D01*
X013102Y002652D02*
X012940Y002652D01*
X012994Y002574D02*
X013069Y002574D01*
X013043Y002495D02*
X013024Y002495D01*
X013126Y001710D02*
X012877Y001710D01*
X012957Y001632D02*
X013093Y001632D01*
X013061Y001553D02*
X013003Y001553D01*
X013028Y001475D02*
X013043Y001475D01*
X013391Y000847D02*
X009889Y000847D01*
X010159Y001082D02*
X010386Y001082D01*
X010315Y001161D02*
X010192Y001161D01*
X010224Y001239D02*
X010272Y001239D01*
X010249Y001318D02*
X010237Y001318D01*
X010243Y001351D02*
X010243Y001351D01*
X010119Y002024D02*
X010485Y002024D01*
X010365Y002103D02*
X010168Y002103D01*
X010200Y002181D02*
X010302Y002181D01*
X010264Y002260D02*
X010233Y002260D01*
X010237Y002338D02*
X010245Y002338D01*
X010243Y002351D02*
X010243Y002351D01*
X009469Y002966D02*
X007540Y002966D01*
X007540Y002888D02*
X009293Y002888D01*
X009214Y002809D02*
X007500Y002809D01*
X007421Y002731D02*
X009136Y002731D01*
X009102Y002652D02*
X007343Y002652D01*
X007180Y002652D02*
X007100Y002652D01*
X007100Y002731D02*
X007180Y002731D01*
X007180Y002809D02*
X007100Y002809D01*
X007100Y002888D02*
X007180Y002888D01*
X007180Y002966D02*
X007100Y002966D01*
X007100Y003202D02*
X007180Y003202D01*
X007180Y003280D02*
X007100Y003280D01*
X007100Y003359D02*
X007180Y003359D01*
X006740Y002966D02*
X006740Y002966D01*
X006740Y002888D02*
X006740Y002888D01*
X006740Y002809D02*
X006780Y002809D01*
X006704Y002731D02*
X006859Y002731D01*
X006937Y002652D02*
X006626Y002652D01*
X006547Y002574D02*
X009069Y002574D01*
X009043Y002495D02*
X006469Y002495D01*
X006390Y002417D02*
X009043Y002417D01*
X009043Y002338D02*
X000580Y002338D01*
X000580Y002260D02*
X009047Y002260D01*
X009080Y002181D02*
X000580Y002181D01*
X000580Y002103D02*
X009112Y002103D01*
X009161Y002024D02*
X000580Y002024D01*
X000580Y001946D02*
X009240Y001946D01*
X009272Y001867D02*
X000580Y001867D01*
X000580Y001789D02*
X009194Y001789D01*
X009126Y001710D02*
X000580Y001710D01*
X000580Y001632D02*
X009093Y001632D01*
X009061Y001553D02*
X000580Y001553D01*
X000580Y001475D02*
X009043Y001475D01*
X009043Y001396D02*
X000580Y001396D01*
X000580Y001318D02*
X009043Y001318D01*
X009056Y001239D02*
X000580Y001239D01*
X000580Y001161D02*
X009088Y001161D01*
X009121Y001082D02*
X000580Y001082D01*
X000580Y001004D02*
X009182Y001004D01*
X009260Y000925D02*
X000580Y000925D01*
X000580Y000847D02*
X009391Y000847D01*
X010320Y003987D02*
X005835Y003987D01*
X005914Y004065D02*
X010241Y004065D01*
X010064Y004144D02*
X005992Y004144D01*
X006071Y004222D02*
X009964Y004222D01*
X009886Y004301D02*
X006144Y004301D01*
X006223Y004379D02*
X009807Y004379D01*
X009729Y004458D02*
X006301Y004458D01*
X005870Y003594D02*
X005740Y003594D01*
X005740Y003516D02*
X005792Y003516D01*
X005540Y003123D02*
X005472Y003123D01*
X005540Y003045D02*
X005393Y003045D01*
X005540Y002966D02*
X000580Y002966D01*
X000580Y002888D02*
X005540Y002888D01*
X005540Y002809D02*
X000580Y002809D01*
X000580Y002731D02*
X005576Y002731D01*
X005654Y002652D02*
X000580Y002652D01*
X000580Y002574D02*
X005733Y002574D01*
X005811Y002495D02*
X000580Y002495D01*
X000580Y002417D02*
X005890Y002417D01*
X004887Y003045D02*
X004393Y003045D01*
X004472Y003123D02*
X004808Y003123D01*
X004730Y003202D02*
X004550Y003202D01*
X004629Y003280D02*
X004651Y003280D01*
X003887Y003045D02*
X000580Y003045D01*
X000580Y003123D02*
X003808Y003123D01*
X003730Y003202D02*
X003372Y003202D01*
X003514Y003280D02*
X003651Y003280D01*
X002908Y003202D02*
X002372Y003202D01*
X002514Y003280D02*
X002766Y003280D01*
X002688Y003359D02*
X002592Y003359D01*
X001908Y003202D02*
X000580Y003202D01*
X000580Y003280D02*
X001766Y003280D01*
X001688Y003359D02*
X001197Y003359D01*
X001180Y003359D02*
X001100Y003359D01*
X001100Y003355D02*
X001100Y003975D01*
X000740Y003975D01*
X000740Y003716D01*
X000755Y003638D01*
X000786Y003566D01*
X000829Y003500D01*
X000885Y003444D01*
X000951Y003401D01*
X001023Y003370D01*
X001100Y003355D01*
X001083Y003359D02*
X000580Y003359D01*
X000580Y003437D02*
X000896Y003437D01*
X000819Y003516D02*
X000580Y003516D01*
X000580Y003594D02*
X000774Y003594D01*
X000749Y003673D02*
X000580Y003673D01*
X000580Y003751D02*
X000740Y003751D01*
X000740Y003830D02*
X000580Y003830D01*
X000580Y003908D02*
X000740Y003908D01*
X000740Y004055D02*
X001100Y004055D01*
X001100Y004675D01*
X001023Y004660D01*
X000951Y004629D01*
X000885Y004586D01*
X000829Y004530D01*
X000786Y004464D01*
X000755Y004392D01*
X000740Y004314D01*
X000740Y004055D01*
X000740Y004065D02*
X000580Y004065D01*
X000580Y003987D02*
X001100Y003987D01*
X001100Y003975D02*
X001100Y004055D01*
X001180Y004055D01*
X001180Y004675D01*
X001257Y004660D01*
X001329Y004629D01*
X001395Y004586D01*
X001451Y004530D01*
X001494Y004464D01*
X001525Y004392D01*
X001540Y004314D01*
X001540Y004055D01*
X001180Y004055D01*
X001180Y003975D01*
X001540Y003975D01*
X001540Y003716D01*
X001525Y003638D01*
X001494Y003566D01*
X001451Y003500D01*
X001395Y003444D01*
X001329Y003401D01*
X001257Y003370D01*
X001180Y003355D01*
X001180Y003975D01*
X001100Y003975D01*
X001100Y003908D02*
X001180Y003908D01*
X001180Y003830D02*
X001100Y003830D01*
X001100Y003751D02*
X001180Y003751D01*
X001180Y003673D02*
X001100Y003673D01*
X001100Y003594D02*
X001180Y003594D01*
X001180Y003516D02*
X001100Y003516D01*
X001100Y003437D02*
X001180Y003437D01*
X001384Y003437D02*
X001622Y003437D01*
X001590Y003516D02*
X001461Y003516D01*
X001506Y003594D02*
X001557Y003594D01*
X001540Y003673D02*
X001531Y003673D01*
X001540Y003751D02*
X001540Y003751D01*
X001540Y003830D02*
X001540Y003830D01*
X001540Y003908D02*
X001540Y003908D01*
X001540Y003987D02*
X001180Y003987D01*
X001180Y004065D02*
X001100Y004065D01*
X001100Y004144D02*
X001180Y004144D01*
X001180Y004222D02*
X001100Y004222D01*
X001100Y004301D02*
X001180Y004301D01*
X001180Y004379D02*
X001100Y004379D01*
X001100Y004458D02*
X001180Y004458D01*
X001180Y004536D02*
X001100Y004536D01*
X001100Y004615D02*
X001180Y004615D01*
X001352Y004615D02*
X001631Y004615D01*
X001599Y004536D02*
X001445Y004536D01*
X001497Y004458D02*
X001566Y004458D01*
X001540Y004379D02*
X001527Y004379D01*
X001540Y004301D02*
X001540Y004301D01*
X001540Y004222D02*
X001540Y004222D01*
X001540Y004144D02*
X001540Y004144D01*
X001540Y004065D02*
X001540Y004065D01*
X001709Y004693D02*
X000580Y004693D01*
X000580Y004615D02*
X000928Y004615D01*
X000835Y004536D02*
X000580Y004536D01*
X000580Y004458D02*
X000783Y004458D01*
X000753Y004379D02*
X000580Y004379D01*
X000580Y004301D02*
X000740Y004301D01*
X000740Y004222D02*
X000580Y004222D01*
X000580Y004144D02*
X000740Y004144D01*
X000580Y004772D02*
X001788Y004772D01*
X001960Y004850D02*
X000580Y004850D01*
X000580Y004929D02*
X001964Y004929D01*
X001789Y005007D02*
X000580Y005007D01*
X000580Y005086D02*
X001711Y005086D01*
X001632Y005164D02*
X001350Y005164D01*
X001329Y005151D02*
X001395Y005194D01*
X001451Y005250D01*
X001494Y005316D01*
X001525Y005388D01*
X001540Y005466D01*
X001540Y005725D01*
X001180Y005725D01*
X001180Y005805D01*
X001100Y005805D01*
X001100Y006425D01*
X001023Y006410D01*
X000951Y006379D01*
X000885Y006336D01*
X000829Y006280D01*
X000786Y006214D01*
X000755Y006142D01*
X000740Y006064D01*
X000740Y005805D01*
X001100Y005805D01*
X001100Y005725D01*
X000740Y005725D01*
X000740Y005466D01*
X000755Y005388D01*
X000786Y005316D01*
X000829Y005250D01*
X000885Y005194D01*
X000951Y005151D01*
X001023Y005120D01*
X001100Y005105D01*
X001100Y005725D01*
X001180Y005725D01*
X001180Y005105D01*
X001257Y005120D01*
X001329Y005151D01*
X001443Y005243D02*
X001599Y005243D01*
X001567Y005321D02*
X001497Y005321D01*
X001527Y005400D02*
X001540Y005400D01*
X001540Y005478D02*
X001540Y005478D01*
X001540Y005557D02*
X001540Y005557D01*
X001540Y005635D02*
X001540Y005635D01*
X001540Y005714D02*
X001540Y005714D01*
X001540Y005792D02*
X001180Y005792D01*
X001180Y005805D02*
X001540Y005805D01*
X001540Y006064D01*
X001525Y006142D01*
X001494Y006214D01*
X001451Y006280D01*
X001395Y006336D01*
X001329Y006379D01*
X001257Y006410D01*
X001180Y006425D01*
X001180Y005805D01*
X001180Y005871D02*
X001100Y005871D01*
X001100Y005949D02*
X001180Y005949D01*
X001180Y006028D02*
X001100Y006028D01*
X001100Y006106D02*
X001180Y006106D01*
X001180Y006185D02*
X001100Y006185D01*
X001100Y006263D02*
X001180Y006263D01*
X001180Y006342D02*
X001100Y006342D01*
X001100Y006420D02*
X001180Y006420D01*
X001204Y006420D02*
X001686Y006420D01*
X001622Y006342D02*
X001386Y006342D01*
X001462Y006263D02*
X001589Y006263D01*
X001557Y006185D02*
X001507Y006185D01*
X001532Y006106D02*
X001540Y006106D01*
X001540Y006028D02*
X001540Y006028D01*
X001540Y005949D02*
X001540Y005949D01*
X001540Y005871D02*
X001540Y005871D01*
X001180Y005714D02*
X001100Y005714D01*
X001100Y005792D02*
X000580Y005792D01*
X000580Y005714D02*
X000740Y005714D01*
X000740Y005635D02*
X000580Y005635D01*
X000580Y005557D02*
X000740Y005557D01*
X000740Y005478D02*
X000580Y005478D01*
X000580Y005400D02*
X000753Y005400D01*
X000783Y005321D02*
X000580Y005321D01*
X000580Y005243D02*
X000837Y005243D01*
X000930Y005164D02*
X000580Y005164D01*
X001100Y005164D02*
X001180Y005164D01*
X001180Y005243D02*
X001100Y005243D01*
X001100Y005321D02*
X001180Y005321D01*
X001180Y005400D02*
X001100Y005400D01*
X001100Y005478D02*
X001180Y005478D01*
X001180Y005557D02*
X001100Y005557D01*
X001100Y005635D02*
X001180Y005635D01*
X000740Y005871D02*
X000580Y005871D01*
X000580Y005949D02*
X000740Y005949D01*
X000740Y006028D02*
X000580Y006028D01*
X000580Y006106D02*
X000748Y006106D01*
X000773Y006185D02*
X000580Y006185D01*
X000580Y006263D02*
X000818Y006263D01*
X000894Y006342D02*
X000580Y006342D01*
X000580Y006420D02*
X001076Y006420D01*
X000580Y006499D02*
X001765Y006499D01*
X001905Y006577D02*
X000580Y006577D01*
X000580Y006656D02*
X003485Y006656D01*
X003590Y006970D02*
X004236Y006970D01*
X004157Y006891D02*
X000580Y006891D01*
X000580Y006813D02*
X004110Y006813D01*
X004077Y006734D02*
X000580Y006734D01*
X000580Y006970D02*
X002690Y006970D01*
X002611Y007048D02*
X000580Y007048D01*
X000580Y007127D02*
X000830Y007127D01*
X000828Y007127D02*
X000864Y007118D01*
X001101Y007118D01*
X001101Y007476D01*
X000743Y007476D01*
X000743Y007239D01*
X000752Y007203D01*
X000770Y007172D01*
X000797Y007145D01*
X000828Y007127D01*
X000752Y007205D02*
X000580Y007205D01*
X000580Y007284D02*
X000743Y007284D01*
X000743Y007362D02*
X000580Y007362D01*
X000580Y007441D02*
X000743Y007441D01*
X000743Y007554D02*
X001101Y007554D01*
X001101Y007912D01*
X001179Y007912D01*
X001179Y007554D01*
X001101Y007554D01*
X001101Y007476D01*
X001179Y007476D01*
X001179Y007554D01*
X001537Y007554D01*
X001537Y007791D01*
X001528Y007827D01*
X001510Y007858D01*
X001483Y007885D01*
X001452Y007903D01*
X001416Y007912D01*
X001179Y007912D01*
X001101Y007912D02*
X000864Y007912D01*
X000828Y007903D01*
X000797Y007885D01*
X000770Y007858D01*
X000752Y007827D01*
X000743Y007791D01*
X000743Y007554D01*
X000743Y007598D02*
X000580Y007598D01*
X000580Y007676D02*
X000743Y007676D01*
X000743Y007755D02*
X000580Y007755D01*
X000580Y007833D02*
X000756Y007833D01*
X000861Y007912D02*
X000580Y007912D01*
X000580Y007990D02*
X002619Y007990D01*
X002572Y007912D02*
X002419Y007912D01*
X002416Y007912D02*
X002179Y007912D01*
X002101Y007912D01*
X001864Y007912D01*
X001828Y007903D01*
X001797Y007885D01*
X001770Y007858D01*
X001752Y007827D01*
X001743Y007791D01*
X001743Y007554D01*
X002101Y007554D01*
X002101Y007912D01*
X002179Y007912D02*
X002179Y007554D01*
X002101Y007554D01*
X002101Y007476D01*
X001743Y007476D01*
X001743Y007239D01*
X001752Y007203D01*
X001770Y007172D01*
X001797Y007145D01*
X001828Y007127D01*
X001864Y007118D01*
X002101Y007118D01*
X002101Y007476D01*
X002179Y007476D01*
X002179Y007554D01*
X002537Y007554D01*
X002537Y007791D01*
X002528Y007827D01*
X002510Y007858D01*
X002483Y007885D01*
X002452Y007903D01*
X002416Y007912D01*
X002524Y007833D02*
X002543Y007833D01*
X002537Y007755D02*
X002543Y007755D01*
X002537Y007676D02*
X002543Y007676D01*
X002537Y007598D02*
X002543Y007598D01*
X002543Y007519D02*
X002179Y007519D01*
X002179Y007476D02*
X002537Y007476D01*
X002537Y007239D01*
X002528Y007203D01*
X002510Y007172D01*
X002483Y007145D01*
X002452Y007127D01*
X002416Y007118D01*
X002179Y007118D01*
X002179Y007476D01*
X002179Y007441D02*
X002101Y007441D01*
X002101Y007519D02*
X001179Y007519D01*
X001179Y007476D02*
X001537Y007476D01*
X001537Y007239D01*
X001528Y007203D01*
X001510Y007172D01*
X001483Y007145D01*
X001452Y007127D01*
X001416Y007118D01*
X001179Y007118D01*
X001179Y007476D01*
X001179Y007441D02*
X001101Y007441D01*
X001101Y007519D02*
X000580Y007519D01*
X001101Y007598D02*
X001179Y007598D01*
X001179Y007676D02*
X001101Y007676D01*
X001101Y007755D02*
X001179Y007755D01*
X001179Y007833D02*
X001101Y007833D01*
X001419Y007912D02*
X001861Y007912D01*
X001756Y007833D02*
X001524Y007833D01*
X001537Y007755D02*
X001743Y007755D01*
X001743Y007676D02*
X001537Y007676D01*
X001537Y007598D02*
X001743Y007598D01*
X001743Y007441D02*
X001537Y007441D01*
X001537Y007362D02*
X001743Y007362D01*
X001743Y007284D02*
X001537Y007284D01*
X001528Y007205D02*
X001752Y007205D01*
X001830Y007127D02*
X001450Y007127D01*
X001179Y007127D02*
X001101Y007127D01*
X001101Y007205D02*
X001179Y007205D01*
X001179Y007284D02*
X001101Y007284D01*
X001101Y007362D02*
X001179Y007362D01*
X000580Y008069D02*
X002709Y008069D01*
X002710Y008461D02*
X000580Y008461D01*
X000580Y008383D02*
X003804Y008383D01*
X003882Y008304D02*
X000580Y008304D01*
X000580Y008226D02*
X003961Y008226D01*
X004039Y008147D02*
X000580Y008147D01*
X000580Y008540D02*
X002620Y008540D01*
X002572Y008618D02*
X002418Y008618D01*
X002416Y008618D02*
X002452Y008627D01*
X002483Y008645D01*
X002510Y008672D01*
X002528Y008703D01*
X002537Y008739D01*
X002537Y008976D01*
X002179Y008976D01*
X002179Y009054D01*
X002101Y009054D01*
X002101Y009412D01*
X001864Y009412D01*
X001828Y009403D01*
X001797Y009385D01*
X001770Y009358D01*
X001752Y009327D01*
X001743Y009291D01*
X001743Y009054D01*
X002101Y009054D01*
X002101Y008976D01*
X001743Y008976D01*
X001743Y008739D01*
X001752Y008703D01*
X001770Y008672D01*
X001797Y008645D01*
X001828Y008627D01*
X001864Y008618D01*
X002101Y008618D01*
X002179Y008618D01*
X002416Y008618D01*
X002524Y008697D02*
X002543Y008697D01*
X002537Y008775D02*
X002543Y008775D01*
X002537Y008854D02*
X002543Y008854D01*
X002537Y008932D02*
X002543Y008932D01*
X002543Y009011D02*
X002179Y009011D01*
X002179Y008976D02*
X002179Y008618D01*
X002101Y008618D02*
X002101Y008976D01*
X002179Y008976D01*
X002179Y008932D02*
X002101Y008932D01*
X002101Y008854D02*
X002179Y008854D01*
X002179Y008775D02*
X002101Y008775D01*
X002101Y008697D02*
X002179Y008697D01*
X002101Y009011D02*
X001179Y009011D01*
X001179Y008976D02*
X001179Y009054D01*
X001101Y009054D01*
X001101Y009412D01*
X000864Y009412D01*
X000828Y009403D01*
X000797Y009385D01*
X000770Y009358D01*
X000752Y009327D01*
X000743Y009291D01*
X000743Y009054D01*
X001101Y009054D01*
X001101Y008976D01*
X000743Y008976D01*
X000743Y008739D01*
X000752Y008703D01*
X000770Y008672D01*
X000797Y008645D01*
X000828Y008627D01*
X000864Y008618D01*
X001101Y008618D01*
X001179Y008618D01*
X001416Y008618D01*
X001452Y008627D01*
X001483Y008645D01*
X001510Y008672D01*
X001528Y008703D01*
X001537Y008739D01*
X001537Y008976D01*
X001179Y008976D01*
X001179Y008618D01*
X001101Y008618D02*
X001101Y008976D01*
X001179Y008976D01*
X001179Y008932D02*
X001101Y008932D01*
X001101Y008854D02*
X001179Y008854D01*
X001179Y008775D02*
X001101Y008775D01*
X001101Y008697D02*
X001179Y008697D01*
X001101Y009011D02*
X000580Y009011D01*
X000580Y009089D02*
X000743Y009089D01*
X000743Y009168D02*
X000580Y009168D01*
X000580Y009246D02*
X000743Y009246D01*
X000752Y009325D02*
X000580Y009325D01*
X000580Y009403D02*
X000829Y009403D01*
X001101Y009403D02*
X001179Y009403D01*
X001179Y009412D02*
X001179Y009054D01*
X001537Y009054D01*
X001537Y009291D01*
X001528Y009327D01*
X001510Y009358D01*
X001483Y009385D01*
X001452Y009403D01*
X001416Y009412D01*
X001179Y009412D01*
X001179Y009325D02*
X001101Y009325D01*
X001101Y009246D02*
X001179Y009246D01*
X001179Y009168D02*
X001101Y009168D01*
X001101Y009089D02*
X001179Y009089D01*
X001537Y009089D02*
X001743Y009089D01*
X001743Y009168D02*
X001537Y009168D01*
X001537Y009246D02*
X001743Y009246D01*
X001752Y009325D02*
X001528Y009325D01*
X001451Y009403D02*
X001829Y009403D01*
X002101Y009403D02*
X002179Y009403D01*
X002179Y009412D02*
X002179Y009054D01*
X002537Y009054D01*
X002537Y009291D01*
X002528Y009327D01*
X002510Y009358D01*
X002483Y009385D01*
X002452Y009403D01*
X002416Y009412D01*
X002179Y009412D01*
X002179Y009325D02*
X002101Y009325D01*
X002101Y009246D02*
X002179Y009246D01*
X002179Y009168D02*
X002101Y009168D01*
X002101Y009089D02*
X002179Y009089D01*
X002537Y009089D02*
X002543Y009089D01*
X002537Y009168D02*
X002543Y009168D01*
X002537Y009246D02*
X002543Y009246D01*
X002543Y009325D02*
X002528Y009325D01*
X002569Y009403D02*
X002451Y009403D01*
X002529Y009482D02*
X000580Y009482D01*
X000580Y009560D02*
X002376Y009560D01*
X002298Y009639D02*
X000580Y009639D01*
X000580Y009717D02*
X002219Y009717D01*
X002140Y009796D02*
X000580Y009796D01*
X000580Y009874D02*
X002062Y009874D01*
X001906Y009953D02*
X000580Y009953D01*
X000580Y010031D02*
X001765Y010031D01*
X001687Y010110D02*
X001202Y010110D01*
X001180Y010110D02*
X001100Y010110D01*
X001100Y010105D02*
X001100Y010725D01*
X000740Y010725D01*
X000740Y010466D01*
X000755Y010388D01*
X000786Y010316D01*
X000829Y010250D01*
X000885Y010194D01*
X000951Y010151D01*
X001023Y010120D01*
X001100Y010105D01*
X001078Y010110D02*
X000580Y010110D01*
X000580Y010188D02*
X000894Y010188D01*
X000818Y010267D02*
X000580Y010267D01*
X000580Y010345D02*
X000773Y010345D01*
X000748Y010424D02*
X000580Y010424D01*
X000580Y010502D02*
X000740Y010502D01*
X000740Y010581D02*
X000580Y010581D01*
X000580Y010659D02*
X000740Y010659D01*
X000740Y010805D02*
X001100Y010805D01*
X001100Y011425D01*
X001023Y011410D01*
X000951Y011379D01*
X000885Y011336D01*
X000829Y011280D01*
X000786Y011214D01*
X000755Y011142D01*
X000740Y011064D01*
X000740Y010805D01*
X000740Y010816D02*
X000580Y010816D01*
X000580Y010738D02*
X001100Y010738D01*
X001100Y010725D02*
X001100Y010805D01*
X001180Y010805D01*
X001180Y011425D01*
X001257Y011410D01*
X001329Y011379D01*
X001395Y011336D01*
X001451Y011280D01*
X001494Y011214D01*
X001525Y011142D01*
X001540Y011064D01*
X001540Y010805D01*
X001180Y010805D01*
X001180Y010725D01*
X001540Y010725D01*
X001540Y010466D01*
X001525Y010388D01*
X001494Y010316D01*
X001451Y010250D01*
X001395Y010194D01*
X001329Y010151D01*
X001257Y010120D01*
X001180Y010105D01*
X001180Y010725D01*
X001100Y010725D01*
X001100Y010659D02*
X001180Y010659D01*
X001180Y010581D02*
X001100Y010581D01*
X001100Y010502D02*
X001180Y010502D01*
X001180Y010424D02*
X001100Y010424D01*
X001100Y010345D02*
X001180Y010345D01*
X001180Y010267D02*
X001100Y010267D01*
X001100Y010188D02*
X001180Y010188D01*
X001386Y010188D02*
X001622Y010188D01*
X001589Y010267D02*
X001462Y010267D01*
X001507Y010345D02*
X001557Y010345D01*
X001540Y010424D02*
X001532Y010424D01*
X001540Y010502D02*
X001540Y010502D01*
X001540Y010581D02*
X001540Y010581D01*
X001540Y010659D02*
X001540Y010659D01*
X001540Y010738D02*
X001180Y010738D01*
X001180Y010816D02*
X001100Y010816D01*
X001100Y010895D02*
X001180Y010895D01*
X001180Y010973D02*
X001100Y010973D01*
X001100Y011052D02*
X001180Y011052D01*
X001180Y011130D02*
X001100Y011130D01*
X001100Y011209D02*
X001180Y011209D01*
X001180Y011287D02*
X001100Y011287D01*
X001100Y011366D02*
X001180Y011366D01*
X001350Y011366D02*
X001632Y011366D01*
X001599Y011287D02*
X001444Y011287D01*
X001497Y011209D02*
X001567Y011209D01*
X001540Y011130D02*
X001527Y011130D01*
X001540Y011052D02*
X001540Y011052D01*
X001540Y010973D02*
X001540Y010973D01*
X001540Y010895D02*
X001540Y010895D01*
X001540Y010816D02*
X001540Y010816D01*
X000930Y011366D02*
X000580Y011366D01*
X000580Y011444D02*
X001711Y011444D01*
X001789Y011523D02*
X000580Y011523D01*
X000580Y011601D02*
X001963Y011601D01*
X002317Y011601D02*
X002963Y011601D01*
X002789Y011523D02*
X002491Y011523D01*
X002569Y011444D02*
X002711Y011444D01*
X002666Y011994D02*
X002614Y011994D01*
X003317Y011601D02*
X005253Y011601D01*
X005331Y011680D02*
X000580Y011680D01*
X000580Y011758D02*
X005664Y011758D01*
X005743Y011837D02*
X000580Y011837D01*
X000580Y011915D02*
X005883Y011915D01*
X005174Y011523D02*
X003491Y011523D01*
X003569Y011444D02*
X005096Y011444D01*
X005040Y011366D02*
X003648Y011366D01*
X003681Y011287D02*
X005040Y011287D01*
X005040Y011209D02*
X003713Y011209D01*
X003740Y011130D02*
X005040Y011130D01*
X005040Y011052D02*
X003740Y011052D01*
X003740Y010973D02*
X005040Y010973D01*
X005040Y010895D02*
X003740Y010895D01*
X003740Y010816D02*
X005115Y010816D01*
X005194Y010738D02*
X003740Y010738D01*
X003740Y010659D02*
X005272Y010659D01*
X005232Y010581D02*
X003740Y010581D01*
X003740Y010502D02*
X005154Y010502D01*
X005075Y010424D02*
X003740Y010424D01*
X003723Y010345D02*
X005040Y010345D01*
X005040Y010267D02*
X003953Y010267D01*
X004061Y010188D02*
X005040Y010188D01*
X005040Y010110D02*
X004797Y010110D01*
X004982Y010031D02*
X005040Y010031D01*
X004483Y010110D02*
X004139Y010110D01*
X004218Y010031D02*
X004298Y010031D01*
X003725Y008461D02*
X003570Y008461D01*
X003571Y008069D02*
X004118Y008069D01*
X004258Y007990D02*
X003661Y007990D01*
X003669Y007048D02*
X004335Y007048D01*
X002905Y006577D02*
X002375Y006577D01*
X002515Y006499D02*
X002765Y006499D01*
X002686Y006420D02*
X002594Y006420D01*
X002569Y007127D02*
X002450Y007127D01*
X002528Y007205D02*
X002543Y007205D01*
X002537Y007284D02*
X002543Y007284D01*
X002537Y007362D02*
X002543Y007362D01*
X002537Y007441D02*
X002543Y007441D01*
X002179Y007362D02*
X002101Y007362D01*
X002101Y007284D02*
X002179Y007284D01*
X002179Y007205D02*
X002101Y007205D01*
X002101Y007127D02*
X002179Y007127D01*
X002179Y007598D02*
X002101Y007598D01*
X002101Y007676D02*
X002179Y007676D01*
X002179Y007755D02*
X002101Y007755D01*
X002101Y007833D02*
X002179Y007833D01*
X001862Y008618D02*
X001418Y008618D01*
X001524Y008697D02*
X001756Y008697D01*
X001743Y008775D02*
X001537Y008775D01*
X001537Y008854D02*
X001743Y008854D01*
X001743Y008932D02*
X001537Y008932D01*
X000862Y008618D02*
X000580Y008618D01*
X000580Y008697D02*
X000756Y008697D01*
X000743Y008775D02*
X000580Y008775D01*
X000580Y008854D02*
X000743Y008854D01*
X000743Y008932D02*
X000580Y008932D01*
X000580Y010895D02*
X000740Y010895D01*
X000740Y010973D02*
X000580Y010973D01*
X000580Y011052D02*
X000740Y011052D01*
X000753Y011130D02*
X000580Y011130D01*
X000580Y011209D02*
X000783Y011209D01*
X000836Y011287D02*
X000580Y011287D01*
X000580Y011994D02*
X001666Y011994D01*
X001591Y012072D02*
X000580Y012072D01*
X000580Y012151D02*
X000792Y012151D01*
X000797Y012145D02*
X000828Y012127D01*
X000864Y012118D01*
X001101Y012118D01*
X001101Y012476D01*
X000743Y012476D01*
X000743Y012239D01*
X000752Y012203D01*
X000770Y012172D01*
X000797Y012145D01*
X000745Y012229D02*
X000580Y012229D01*
X000580Y012308D02*
X000743Y012308D01*
X000743Y012386D02*
X000580Y012386D01*
X000580Y012465D02*
X000743Y012465D01*
X000743Y012554D02*
X001101Y012554D01*
X001101Y012912D01*
X000864Y012912D01*
X000828Y012903D01*
X000797Y012885D01*
X000770Y012858D01*
X000752Y012827D01*
X000743Y012791D01*
X000743Y012554D01*
X000743Y012622D02*
X000580Y012622D01*
X000580Y012700D02*
X000743Y012700D01*
X000743Y012779D02*
X000580Y012779D01*
X000580Y012857D02*
X000770Y012857D01*
X000580Y012936D02*
X001582Y012936D01*
X001550Y012857D02*
X001510Y012857D01*
X001510Y012858D02*
X001483Y012885D01*
X001452Y012903D01*
X001416Y012912D01*
X001179Y012912D01*
X001179Y012554D01*
X001101Y012554D01*
X001101Y012476D01*
X001179Y012476D01*
X001179Y012554D01*
X001537Y012554D01*
X001537Y012791D01*
X001528Y012827D01*
X001510Y012858D01*
X001537Y012779D02*
X001543Y012779D01*
X001537Y012700D02*
X001543Y012700D01*
X001537Y012622D02*
X001543Y012622D01*
X001543Y012543D02*
X001179Y012543D01*
X001179Y012476D02*
X001537Y012476D01*
X001537Y012239D01*
X001528Y012203D01*
X001510Y012172D01*
X001483Y012145D01*
X001452Y012127D01*
X001416Y012118D01*
X001179Y012118D01*
X001179Y012476D01*
X001179Y012465D02*
X001101Y012465D01*
X001101Y012543D02*
X000580Y012543D01*
X000580Y013014D02*
X001643Y013014D01*
X001767Y013093D02*
X000580Y013093D01*
X000580Y013171D02*
X003202Y013171D01*
X003281Y013250D02*
X000580Y013250D01*
X000580Y013328D02*
X003359Y013328D01*
X003438Y013407D02*
X000580Y013407D01*
X000580Y013485D02*
X003516Y013485D01*
X003595Y013564D02*
X000580Y013564D01*
X000580Y013642D02*
X003673Y013642D01*
X003752Y013721D02*
X000580Y013721D01*
X000580Y013799D02*
X003905Y013799D01*
X004155Y012936D02*
X007009Y012936D01*
X006985Y012857D02*
X004076Y012857D01*
X003998Y012779D02*
X006985Y012779D01*
X006985Y012700D02*
X003919Y012700D01*
X003841Y012622D02*
X006985Y012622D01*
X006985Y012543D02*
X003762Y012543D01*
X003737Y012465D02*
X006985Y012465D01*
X006985Y012386D02*
X003737Y012386D01*
X003737Y012308D02*
X007046Y012308D01*
X007125Y012229D02*
X003737Y012229D01*
X003721Y012151D02*
X007203Y012151D01*
X007282Y012072D02*
X003689Y012072D01*
X003614Y011994D02*
X007360Y011994D01*
X007920Y011994D02*
X014720Y011994D01*
X014720Y012072D02*
X007998Y012072D01*
X008077Y012151D02*
X014720Y012151D01*
X014720Y011915D02*
X009272Y011915D01*
X009412Y011837D02*
X014720Y011837D01*
X014720Y011758D02*
X009491Y011758D01*
X009569Y011680D02*
X011706Y011680D01*
X011628Y011601D02*
X009648Y011601D01*
X009726Y011523D02*
X011549Y011523D01*
X011471Y011444D02*
X010934Y011444D01*
X011013Y011366D02*
X011415Y011366D01*
X011262Y010424D02*
X011205Y010424D01*
X011240Y010345D02*
X011341Y010345D01*
X011345Y010267D02*
X011240Y010267D01*
X011240Y010188D02*
X011345Y010188D01*
X011345Y010110D02*
X011240Y010110D01*
X011240Y010031D02*
X011345Y010031D01*
X011345Y009953D02*
X011240Y009953D01*
X011223Y009874D02*
X011345Y009874D01*
X011345Y009796D02*
X011177Y009796D01*
X011210Y009717D02*
X011345Y009717D01*
X011345Y009639D02*
X011240Y009639D01*
X011240Y009560D02*
X011345Y009560D01*
X011345Y009482D02*
X011240Y009482D01*
X011240Y009403D02*
X011345Y009403D01*
X011345Y009325D02*
X011240Y009325D01*
X011240Y009246D02*
X011345Y009246D01*
X011351Y009168D02*
X011240Y009168D01*
X011240Y009089D02*
X011383Y009089D01*
X011426Y009011D02*
X011240Y009011D01*
X011240Y008932D02*
X011504Y008932D01*
X011583Y008854D02*
X011227Y008854D01*
X011194Y008775D02*
X011661Y008775D01*
X011348Y008697D02*
X011162Y008697D01*
X011102Y008618D02*
X011269Y008618D01*
X011191Y008540D02*
X011023Y008540D01*
X011112Y008461D02*
X010895Y008461D01*
X011040Y008383D02*
X006976Y008383D01*
X007020Y008461D02*
X007385Y008461D01*
X007257Y008540D02*
X007053Y008540D01*
X007102Y008618D02*
X007178Y008618D01*
X006898Y008304D02*
X011040Y008304D01*
X011040Y008226D02*
X006819Y008226D01*
X006741Y008147D02*
X011040Y008147D01*
X011040Y008069D02*
X006662Y008069D01*
X006522Y007990D02*
X006881Y007990D01*
X006776Y007912D02*
X006280Y007912D01*
X006416Y007833D02*
X006697Y007833D01*
X006657Y007755D02*
X006494Y007755D01*
X006573Y007676D02*
X006624Y007676D01*
X007399Y007990D02*
X011040Y007990D01*
X011040Y007912D02*
X009155Y007912D01*
X009291Y007833D02*
X011098Y007833D01*
X011177Y007755D02*
X009369Y007755D01*
X009448Y007676D02*
X011255Y007676D01*
X011334Y007598D02*
X009526Y007598D01*
X009605Y007519D02*
X012470Y007519D01*
X012470Y007441D02*
X009683Y007441D01*
X009762Y007362D02*
X012470Y007362D01*
X012470Y007284D02*
X009840Y007284D01*
X009919Y007205D02*
X012470Y007205D01*
X012470Y007127D02*
X009997Y007127D01*
X010029Y007048D02*
X010335Y007048D01*
X010236Y006970D02*
X010060Y006970D01*
X010123Y006891D02*
X010157Y006891D01*
X010945Y007048D02*
X012470Y007048D01*
X012470Y006970D02*
X011044Y006970D01*
X011123Y006891D02*
X012407Y006891D01*
X012360Y006813D02*
X011170Y006813D01*
X011203Y006734D02*
X012327Y006734D01*
X012295Y006656D02*
X011235Y006656D01*
X011240Y006577D02*
X012290Y006577D01*
X012290Y006499D02*
X011240Y006499D01*
X011240Y006420D02*
X012290Y006420D01*
X012290Y006342D02*
X011240Y006342D01*
X011240Y006263D02*
X012290Y006263D01*
X012290Y006185D02*
X011240Y006185D01*
X011240Y006106D02*
X012290Y006106D01*
X012290Y006028D02*
X011240Y006028D01*
X011240Y005949D02*
X012290Y005949D01*
X012296Y005871D02*
X011234Y005871D01*
X011212Y005792D02*
X012318Y005792D01*
X012290Y005714D02*
X011915Y005714D01*
X011994Y005635D02*
X012290Y005635D01*
X012290Y005557D02*
X012072Y005557D01*
X012151Y005478D02*
X012290Y005478D01*
X012290Y005400D02*
X012229Y005400D01*
X012240Y005321D02*
X012290Y005321D01*
X012314Y005243D02*
X012240Y005243D01*
X012240Y005164D02*
X012392Y005164D01*
X012471Y005086D02*
X012240Y005086D01*
X012240Y005007D02*
X012533Y005007D01*
X012491Y004065D02*
X011039Y004065D01*
X010960Y003987D02*
X012570Y003987D01*
X011286Y005635D02*
X011240Y005635D01*
X011240Y005714D02*
X011365Y005714D01*
X011946Y007598D02*
X012470Y007598D01*
X012470Y007676D02*
X012025Y007676D01*
X012103Y007755D02*
X012470Y007755D01*
X012470Y007833D02*
X012182Y007833D01*
X012240Y007912D02*
X012470Y007912D01*
X012446Y007990D02*
X012240Y007990D01*
X012240Y008069D02*
X012368Y008069D01*
X012289Y008147D02*
X012240Y008147D01*
X013163Y008461D02*
X013635Y008461D01*
X013507Y008540D02*
X013273Y008540D01*
X013352Y008618D02*
X013428Y008618D01*
X013241Y008383D02*
X015970Y008383D01*
X015970Y008304D02*
X013277Y008304D01*
X013309Y008226D02*
X015970Y008226D01*
X015970Y008147D02*
X013310Y008147D01*
X013310Y008069D02*
X015970Y008069D01*
X015998Y007990D02*
X013310Y007990D01*
X013310Y007912D02*
X016030Y007912D01*
X016103Y007833D02*
X013310Y007833D01*
X013310Y007755D02*
X016182Y007755D01*
X016260Y007676D02*
X013310Y007676D01*
X013310Y007598D02*
X016339Y007598D01*
X016417Y007519D02*
X013310Y007519D01*
X013310Y007441D02*
X016496Y007441D01*
X016574Y007362D02*
X013310Y007362D01*
X013310Y007284D02*
X016653Y007284D01*
X015635Y008461D02*
X014145Y008461D01*
X014412Y008697D02*
X014633Y008697D01*
X014563Y008775D02*
X014444Y008775D01*
X014477Y008854D02*
X014520Y008854D01*
X014497Y008932D02*
X014490Y008932D01*
X014490Y009011D02*
X014490Y009011D01*
X014490Y009089D02*
X014490Y009089D01*
X014490Y009168D02*
X014490Y009168D01*
X014390Y009874D02*
X014390Y009964D01*
X014457Y010031D02*
X015548Y010031D01*
X015733Y010110D02*
X014536Y010110D01*
X014545Y010188D02*
X015748Y010188D01*
X015669Y010267D02*
X014545Y010267D01*
X014545Y010345D02*
X015591Y010345D01*
X015512Y010424D02*
X014545Y010424D01*
X014545Y010502D02*
X015434Y010502D01*
X015355Y010581D02*
X014545Y010581D01*
X014545Y010659D02*
X015277Y010659D01*
X015198Y010738D02*
X014469Y010738D01*
X014390Y010816D02*
X015143Y010816D01*
X015110Y010895D02*
X014312Y010895D01*
X014233Y010973D02*
X015095Y010973D01*
X015095Y011052D02*
X012615Y011052D01*
X012615Y011130D02*
X015095Y011130D01*
X015095Y011209D02*
X012615Y011209D01*
X012615Y011287D02*
X015024Y011287D01*
X014945Y011366D02*
X012615Y011366D01*
X012559Y011444D02*
X014867Y011444D01*
X014788Y011523D02*
X012481Y011523D01*
X012402Y011601D02*
X014753Y011601D01*
X014721Y011680D02*
X012324Y011680D01*
X013233Y010973D02*
X013547Y010973D01*
X013468Y010895D02*
X013312Y010895D01*
X014327Y012229D02*
X008873Y012229D01*
X008828Y012185D02*
X009095Y012452D01*
X009095Y012600D01*
X008680Y012600D01*
X008680Y012185D01*
X008828Y012185D01*
X008680Y012229D02*
X008600Y012229D01*
X008600Y012308D02*
X008680Y012308D01*
X008680Y012386D02*
X008600Y012386D01*
X008600Y012465D02*
X008680Y012465D01*
X008680Y012543D02*
X008600Y012543D01*
X008680Y012622D02*
X013240Y012622D01*
X013240Y012599D02*
X013474Y012365D01*
X013600Y012365D01*
X013600Y012725D01*
X013240Y012725D01*
X013240Y012599D01*
X013296Y012543D02*
X009095Y012543D01*
X009095Y012465D02*
X013375Y012465D01*
X013453Y012386D02*
X009030Y012386D01*
X008951Y012308D02*
X014249Y012308D01*
X014170Y012386D02*
X013827Y012386D01*
X013806Y012365D02*
X014040Y012599D01*
X014040Y012725D01*
X013680Y012725D01*
X013680Y012365D01*
X013806Y012365D01*
X013680Y012386D02*
X013600Y012386D01*
X013600Y012465D02*
X013680Y012465D01*
X013680Y012543D02*
X013600Y012543D01*
X013600Y012622D02*
X013680Y012622D01*
X013680Y012700D02*
X013600Y012700D01*
X013600Y012779D02*
X009095Y012779D01*
X009095Y012700D02*
X013240Y012700D01*
X013240Y012857D02*
X009066Y012857D01*
X008988Y012936D02*
X013245Y012936D01*
X013680Y012779D02*
X014040Y012779D01*
X014040Y012857D02*
X014040Y012857D01*
X014035Y012936D02*
X014040Y012936D01*
X014041Y013014D02*
X013957Y013014D01*
X013938Y013093D02*
X014119Y013093D01*
X014198Y013171D02*
X014005Y013171D01*
X014073Y013250D02*
X014276Y013250D01*
X014355Y013328D02*
X014140Y013328D01*
X014207Y013407D02*
X014720Y013407D01*
X014720Y013485D02*
X014275Y013485D01*
X014342Y013564D02*
X014720Y013564D01*
X014720Y013642D02*
X014409Y013642D01*
X014694Y013721D02*
X014720Y013721D01*
X014040Y012700D02*
X014040Y012700D01*
X014040Y012622D02*
X014040Y012622D01*
X014040Y012543D02*
X013984Y012543D01*
X013905Y012465D02*
X014092Y012465D01*
X010346Y011444D02*
X009934Y011444D01*
X010013Y011366D02*
X010267Y011366D01*
X010189Y011287D02*
X010091Y011287D01*
X009040Y011021D02*
X009040Y011021D01*
X009039Y010973D02*
X009040Y010973D01*
X009040Y010895D02*
X008960Y010895D01*
X008882Y010816D02*
X009040Y010816D01*
X009040Y010738D02*
X008086Y010738D01*
X008165Y010816D02*
X008398Y010816D01*
X008320Y010895D02*
X008240Y010895D01*
X008240Y010973D02*
X008241Y010973D01*
X008240Y011052D02*
X008240Y011052D01*
X008240Y011095D02*
X008240Y011095D01*
X008600Y011052D02*
X008680Y011052D01*
X008680Y010973D02*
X008600Y010973D01*
X008600Y010895D02*
X008680Y010895D01*
X008680Y010816D02*
X008600Y010816D01*
X009040Y010659D02*
X008008Y010659D01*
X007929Y010581D02*
X009101Y010581D01*
X009154Y010502D02*
X006126Y010502D01*
X006048Y010581D02*
X007351Y010581D01*
X007272Y010659D02*
X006008Y010659D01*
X006086Y010738D02*
X007194Y010738D01*
X007115Y010816D02*
X006165Y010816D01*
X006240Y010895D02*
X007040Y010895D01*
X007040Y010973D02*
X006240Y010973D01*
X006240Y011052D02*
X007040Y011052D01*
X006240Y010345D02*
X009040Y010345D01*
X009040Y010267D02*
X006240Y010267D01*
X006240Y010188D02*
X009040Y010188D01*
X009040Y010110D02*
X007797Y010110D01*
X007982Y010031D02*
X009040Y010031D01*
X009040Y009953D02*
X008061Y009953D01*
X008139Y009874D02*
X008442Y009874D01*
X008451Y009879D02*
X008385Y009836D01*
X008329Y009780D01*
X008286Y009714D01*
X008255Y009642D01*
X008240Y009564D01*
X008240Y009305D01*
X008600Y009305D01*
X008600Y009925D01*
X008523Y009910D01*
X008451Y009879D01*
X008345Y009796D02*
X008177Y009796D01*
X008210Y009717D02*
X008287Y009717D01*
X008255Y009639D02*
X008240Y009639D01*
X008240Y009560D02*
X008240Y009560D01*
X008240Y009482D02*
X008240Y009482D01*
X008240Y009403D02*
X008240Y009403D01*
X008240Y009325D02*
X008240Y009325D01*
X008240Y009246D02*
X008600Y009246D01*
X008600Y009225D02*
X008240Y009225D01*
X008240Y008966D01*
X008255Y008888D01*
X008286Y008816D01*
X008329Y008750D01*
X008385Y008694D01*
X008451Y008651D01*
X008523Y008620D01*
X008600Y008605D01*
X008600Y009225D01*
X008680Y009225D01*
X008680Y009305D01*
X009040Y009305D01*
X009040Y009564D01*
X009025Y009642D01*
X008994Y009714D01*
X008951Y009780D01*
X008895Y009836D01*
X008829Y009879D01*
X008757Y009910D01*
X008680Y009925D01*
X008680Y009305D01*
X008600Y009305D01*
X008600Y009225D01*
X008600Y009168D02*
X008680Y009168D01*
X008680Y009225D02*
X008680Y008605D01*
X008757Y008620D01*
X008829Y008651D01*
X008895Y008694D01*
X008951Y008750D01*
X008994Y008816D01*
X009025Y008888D01*
X009040Y008966D01*
X009040Y009225D01*
X008680Y009225D01*
X008680Y009246D02*
X009040Y009246D01*
X009040Y009168D02*
X009040Y009168D01*
X009040Y009089D02*
X009040Y009089D01*
X009040Y009011D02*
X009040Y009011D01*
X009033Y008932D02*
X009040Y008932D01*
X009053Y008854D02*
X009010Y008854D01*
X008967Y008775D02*
X009086Y008775D01*
X009118Y008697D02*
X008897Y008697D01*
X008745Y008618D02*
X009178Y008618D01*
X009257Y008540D02*
X008023Y008540D01*
X008102Y008618D02*
X008535Y008618D01*
X008600Y008618D02*
X008680Y008618D01*
X008680Y008697D02*
X008600Y008697D01*
X008600Y008775D02*
X008680Y008775D01*
X008680Y008854D02*
X008600Y008854D01*
X008600Y008932D02*
X008680Y008932D01*
X008680Y009011D02*
X008600Y009011D01*
X008600Y009089D02*
X008680Y009089D01*
X008680Y009325D02*
X008600Y009325D01*
X008600Y009403D02*
X008680Y009403D01*
X008680Y009482D02*
X008600Y009482D01*
X008600Y009560D02*
X008680Y009560D01*
X008680Y009639D02*
X008600Y009639D01*
X008600Y009717D02*
X008680Y009717D01*
X008680Y009796D02*
X008600Y009796D01*
X008600Y009874D02*
X008680Y009874D01*
X008838Y009874D02*
X009057Y009874D01*
X009103Y009796D02*
X008935Y009796D01*
X008993Y009717D02*
X009070Y009717D01*
X009040Y009639D02*
X009025Y009639D01*
X009040Y009560D02*
X009040Y009560D01*
X009040Y009482D02*
X009040Y009482D01*
X009040Y009403D02*
X009040Y009403D01*
X009040Y009325D02*
X009040Y009325D01*
X008240Y009168D02*
X008240Y009168D01*
X008240Y009089D02*
X008240Y009089D01*
X008240Y009011D02*
X008240Y009011D01*
X008240Y008932D02*
X008247Y008932D01*
X008227Y008854D02*
X008270Y008854D01*
X008313Y008775D02*
X008194Y008775D01*
X008162Y008697D02*
X008383Y008697D01*
X007895Y008461D02*
X009385Y008461D01*
X009895Y008461D02*
X010385Y008461D01*
X010257Y008540D02*
X010023Y008540D01*
X010102Y008618D02*
X010178Y008618D01*
X009075Y010424D02*
X006205Y010424D01*
X006240Y010110D02*
X006483Y010110D01*
X006298Y010031D02*
X006240Y010031D01*
X006797Y010110D02*
X007483Y010110D01*
X007298Y010031D02*
X006982Y010031D01*
X007061Y009953D02*
X007219Y009953D01*
X007141Y009874D02*
X007139Y009874D01*
X008155Y012229D02*
X008407Y012229D01*
X008329Y012308D02*
X008234Y012308D01*
X008453Y013810D02*
X008595Y013952D01*
X008595Y014100D01*
X008180Y014100D01*
X008180Y014180D01*
X008595Y014180D01*
X008595Y014328D01*
X008425Y014499D01*
X008431Y014505D01*
X009034Y013902D01*
X009126Y013810D01*
X008453Y013810D01*
X008521Y013878D02*
X009058Y013878D01*
X008980Y013956D02*
X008595Y013956D01*
X008595Y014035D02*
X008901Y014035D01*
X008823Y014113D02*
X008180Y014113D01*
X008100Y014113D02*
X000580Y014113D01*
X000580Y014035D02*
X007685Y014035D01*
X007685Y013956D02*
X000580Y013956D01*
X000580Y013878D02*
X007759Y013878D01*
X007685Y014192D02*
X000580Y014192D01*
X000580Y014270D02*
X007685Y014270D01*
X007705Y014349D02*
X000580Y014349D01*
X000580Y014427D02*
X007784Y014427D01*
X007848Y014506D02*
X000580Y014506D01*
X000580Y014584D02*
X007770Y014584D01*
X007691Y014663D02*
X000580Y014663D01*
X000580Y014741D02*
X007613Y014741D01*
X007534Y014820D02*
X000580Y014820D01*
X000580Y014898D02*
X007485Y014898D01*
X007485Y014977D02*
X000580Y014977D01*
X000580Y015055D02*
X007485Y015055D01*
X007485Y015134D02*
X000580Y015134D01*
X000580Y015212D02*
X007485Y015212D01*
X007485Y015291D02*
X007285Y015291D01*
X007474Y015369D02*
X007485Y015369D01*
X006995Y015291D02*
X000580Y015291D01*
X000580Y015369D02*
X006806Y015369D01*
X006724Y015448D02*
X000580Y015448D01*
X000580Y015526D02*
X006645Y015526D01*
X006605Y015605D02*
X006203Y015605D01*
X006282Y015683D02*
X006572Y015683D01*
X006540Y015762D02*
X006360Y015762D01*
X006439Y015840D02*
X006540Y015840D01*
X006540Y015919D02*
X006490Y015919D01*
X006490Y015997D02*
X006540Y015997D01*
X006540Y016076D02*
X006490Y016076D01*
X006490Y016154D02*
X006540Y016154D01*
X006540Y016233D02*
X006490Y016233D01*
X006490Y016311D02*
X006540Y016311D01*
X006540Y016390D02*
X006489Y016390D01*
X006540Y016468D02*
X006410Y016468D01*
X006332Y016547D02*
X006551Y016547D01*
X006584Y016625D02*
X006253Y016625D01*
X006302Y016704D02*
X006616Y016704D01*
X006674Y016782D02*
X006381Y016782D01*
X006459Y016861D02*
X006725Y016861D01*
X006757Y016939D02*
X006490Y016939D01*
X006490Y017018D02*
X006799Y017018D01*
X006877Y017096D02*
X006490Y017096D01*
X006490Y017175D02*
X006956Y017175D01*
X007034Y017253D02*
X006490Y017253D01*
X006490Y017332D02*
X007113Y017332D01*
X007191Y017410D02*
X006468Y017410D01*
X006390Y017489D02*
X007270Y017489D01*
X007433Y018352D02*
X007847Y018352D01*
X007741Y018431D02*
X007539Y018431D01*
X007618Y018509D02*
X007662Y018509D01*
X008433Y018352D02*
X008847Y018352D01*
X008741Y018431D02*
X008539Y018431D01*
X008618Y018509D02*
X008662Y018509D01*
X009433Y018352D02*
X009847Y018352D01*
X009741Y018431D02*
X009539Y018431D01*
X009618Y018509D02*
X009662Y018509D01*
X010433Y018352D02*
X010847Y018352D01*
X010741Y018431D02*
X010539Y018431D01*
X010618Y018509D02*
X010662Y018509D01*
X011433Y018352D02*
X011847Y018352D01*
X011741Y018431D02*
X011539Y018431D01*
X011618Y018509D02*
X011662Y018509D01*
X012433Y018352D02*
X012847Y018352D01*
X012741Y018431D02*
X012539Y018431D01*
X012618Y018509D02*
X012662Y018509D01*
X013433Y018352D02*
X013554Y018352D01*
X013586Y018274D02*
X006622Y018274D01*
X006701Y018352D02*
X006847Y018352D01*
X006544Y018195D02*
X013619Y018195D01*
X013680Y018117D02*
X006465Y018117D01*
X006154Y017724D02*
X013540Y017724D01*
X013540Y017646D02*
X006233Y017646D01*
X006311Y017567D02*
X013540Y017567D01*
X013540Y017803D02*
X005901Y017803D01*
X005980Y017881D02*
X013540Y017881D01*
X013611Y017960D02*
X005990Y017960D01*
X005990Y018038D02*
X013690Y018038D01*
X009623Y016720D02*
X009540Y016519D01*
X009540Y015761D01*
X009626Y015553D01*
X009499Y015425D01*
X009371Y015553D01*
X009395Y015569D01*
X009451Y015625D01*
X009494Y015691D01*
X009525Y015763D01*
X009540Y015841D01*
X009540Y016100D01*
X009180Y016100D01*
X009180Y016180D01*
X009540Y016180D01*
X009540Y016439D01*
X009525Y016517D01*
X009494Y016589D01*
X009451Y016655D01*
X009395Y016711D01*
X009381Y016720D01*
X009623Y016720D01*
X009616Y016704D02*
X009402Y016704D01*
X009471Y016625D02*
X009584Y016625D01*
X009551Y016547D02*
X009512Y016547D01*
X009534Y016468D02*
X009540Y016468D01*
X009540Y016390D02*
X009540Y016390D01*
X009540Y016311D02*
X009540Y016311D01*
X009540Y016233D02*
X009540Y016233D01*
X009540Y016154D02*
X009180Y016154D01*
X009180Y016100D02*
X009180Y015180D01*
X009100Y015180D01*
X009100Y015480D01*
X009100Y016100D01*
X008740Y016100D01*
X008740Y015841D01*
X008755Y015763D01*
X008786Y015691D01*
X008829Y015625D01*
X008885Y015569D01*
X008909Y015553D01*
X008781Y015425D01*
X008654Y015553D01*
X008740Y015761D01*
X008740Y016519D01*
X008657Y016720D01*
X008899Y016720D01*
X008885Y016711D01*
X008829Y016655D01*
X008786Y016589D01*
X008755Y016517D01*
X008740Y016439D01*
X008740Y016180D01*
X009100Y016180D01*
X009100Y016100D01*
X009180Y016100D01*
X009180Y016076D02*
X009100Y016076D01*
X009100Y016154D02*
X008740Y016154D01*
X008740Y016076D02*
X008740Y016076D01*
X008740Y015997D02*
X008740Y015997D01*
X008740Y015919D02*
X008740Y015919D01*
X008740Y015840D02*
X008740Y015840D01*
X008740Y015762D02*
X008756Y015762D01*
X008791Y015683D02*
X008708Y015683D01*
X008675Y015605D02*
X008850Y015605D01*
X008883Y015526D02*
X008680Y015526D01*
X008759Y015448D02*
X008804Y015448D01*
X009100Y015448D02*
X009180Y015448D01*
X009180Y015526D02*
X009100Y015526D01*
X009100Y015605D02*
X009180Y015605D01*
X009180Y015683D02*
X009100Y015683D01*
X009100Y015762D02*
X009180Y015762D01*
X009180Y015840D02*
X009100Y015840D01*
X009100Y015919D02*
X009180Y015919D01*
X009180Y015997D02*
X009100Y015997D01*
X008740Y016233D02*
X008740Y016233D01*
X008740Y016311D02*
X008740Y016311D01*
X008740Y016390D02*
X008740Y016390D01*
X008740Y016468D02*
X008746Y016468D01*
X008729Y016547D02*
X008768Y016547D01*
X008809Y016625D02*
X008696Y016625D01*
X008664Y016704D02*
X008878Y016704D01*
X009540Y016076D02*
X009540Y016076D01*
X009540Y015997D02*
X009540Y015997D01*
X009540Y015919D02*
X009540Y015919D01*
X009540Y015840D02*
X009540Y015840D01*
X009540Y015762D02*
X009524Y015762D01*
X009489Y015683D02*
X009572Y015683D01*
X009605Y015605D02*
X009430Y015605D01*
X009397Y015526D02*
X009600Y015526D01*
X009521Y015448D02*
X009476Y015448D01*
X009180Y015369D02*
X009100Y015369D01*
X009100Y015291D02*
X009180Y015291D01*
X009180Y015212D02*
X009100Y015212D01*
X008509Y014427D02*
X008496Y014427D01*
X008575Y014349D02*
X008587Y014349D01*
X008595Y014270D02*
X008666Y014270D01*
X008595Y014192D02*
X008744Y014192D01*
X005577Y015605D02*
X005078Y015605D01*
X005157Y015683D02*
X005498Y015683D01*
X005420Y015762D02*
X005235Y015762D01*
X005314Y015840D02*
X005341Y015840D01*
X004452Y015605D02*
X000580Y015605D01*
X000580Y015683D02*
X004373Y015683D01*
X004295Y015762D02*
X000580Y015762D01*
X000580Y015840D02*
X004216Y015840D01*
X004165Y015919D02*
X000580Y015919D01*
X000580Y015997D02*
X004165Y015997D01*
X004165Y016076D02*
X000580Y016076D01*
X000580Y016154D02*
X004165Y016154D01*
X004165Y016233D02*
X000580Y016233D01*
X000580Y016311D02*
X004165Y016311D01*
X004166Y016390D02*
X000580Y016390D01*
X000580Y016468D02*
X004245Y016468D01*
X004323Y016547D02*
X000580Y016547D01*
X000580Y016625D02*
X004402Y016625D01*
X004353Y016704D02*
X000580Y016704D01*
X000580Y016782D02*
X004274Y016782D01*
X004196Y016861D02*
X000580Y016861D01*
X000580Y016939D02*
X004165Y016939D01*
X004165Y017018D02*
X000580Y017018D01*
X000580Y017096D02*
X004165Y017096D01*
X004165Y017175D02*
X000580Y017175D01*
X000580Y017253D02*
X004165Y017253D01*
X004165Y017332D02*
X000580Y017332D01*
X000580Y017410D02*
X004187Y017410D01*
X004265Y017489D02*
X000580Y017489D01*
X000580Y017567D02*
X003489Y017567D01*
X003411Y017646D02*
X000580Y017646D01*
X000580Y017724D02*
X003332Y017724D01*
X003254Y017803D02*
X000580Y017803D01*
X000580Y017881D02*
X003175Y017881D01*
X003165Y017960D02*
X000580Y017960D01*
X000580Y018038D02*
X003165Y018038D01*
X003165Y018117D02*
X000580Y018117D01*
X000580Y018195D02*
X003165Y018195D01*
X003165Y018274D02*
X000580Y018274D01*
X000580Y018352D02*
X003165Y018352D01*
X003207Y018431D02*
X000580Y018431D01*
X000580Y018509D02*
X003286Y018509D01*
X003364Y018588D02*
X000580Y018588D01*
X000580Y018666D02*
X003443Y018666D01*
X003595Y018745D02*
X000580Y018745D01*
X000580Y018823D02*
X003516Y018823D01*
X003438Y018902D02*
X000580Y018902D01*
X000580Y018980D02*
X003365Y018980D01*
X003365Y018974D02*
X003599Y018740D01*
X003725Y018740D01*
X003725Y019100D01*
X003365Y019100D01*
X003365Y018974D01*
X003365Y019059D02*
X000580Y019059D01*
X000580Y019137D02*
X003725Y019137D01*
X003725Y019059D02*
X003805Y019059D01*
X003805Y019100D02*
X003805Y018740D01*
X003931Y018740D01*
X004165Y018974D01*
X004165Y019100D01*
X003805Y019100D01*
X003805Y019137D02*
X005350Y019137D01*
X005350Y019100D02*
X004990Y019100D01*
X004990Y018974D01*
X005224Y018740D01*
X005350Y018740D01*
X005350Y019100D01*
X005350Y019059D02*
X005430Y019059D01*
X005430Y019137D02*
X005789Y019137D01*
X005790Y019216D02*
X005867Y019216D01*
X005790Y019294D02*
X006540Y019294D01*
X006540Y019216D02*
X006413Y019216D01*
X006491Y019137D02*
X006540Y019137D01*
X006540Y019373D02*
X005723Y019373D01*
X005430Y018980D02*
X005350Y018980D01*
X005350Y018902D02*
X005430Y018902D01*
X005430Y018823D02*
X005350Y018823D01*
X005350Y018745D02*
X005430Y018745D01*
X005220Y018745D02*
X003935Y018745D01*
X004014Y018823D02*
X005141Y018823D01*
X005063Y018902D02*
X004092Y018902D01*
X004165Y018980D02*
X004990Y018980D01*
X004990Y019059D02*
X004165Y019059D01*
X004165Y019216D02*
X004990Y019216D01*
X004990Y019294D02*
X004165Y019294D01*
X004098Y019373D02*
X005057Y019373D01*
X005068Y018666D02*
X004087Y018666D01*
X004166Y018588D02*
X004989Y018588D01*
X004364Y017646D02*
X004119Y017646D01*
X004041Y017567D02*
X004344Y017567D01*
X003805Y018745D02*
X003725Y018745D01*
X003725Y018823D02*
X003805Y018823D01*
X003805Y018902D02*
X003725Y018902D01*
X003725Y018980D02*
X003805Y018980D01*
X003365Y019216D02*
X000580Y019216D01*
X000580Y019294D02*
X003365Y019294D01*
X003432Y019373D02*
X000580Y019373D01*
X002513Y013093D02*
X002767Y013093D01*
X002643Y013014D02*
X002637Y013014D01*
X001543Y012465D02*
X001537Y012465D01*
X001537Y012386D02*
X001543Y012386D01*
X001537Y012308D02*
X001543Y012308D01*
X001535Y012229D02*
X001543Y012229D01*
X001559Y012151D02*
X001488Y012151D01*
X001179Y012151D02*
X001101Y012151D01*
X001101Y012229D02*
X001179Y012229D01*
X001179Y012308D02*
X001101Y012308D01*
X001101Y012386D02*
X001179Y012386D01*
X001179Y012622D02*
X001101Y012622D01*
X001101Y012700D02*
X001179Y012700D01*
X001179Y012779D02*
X001101Y012779D01*
X001101Y012857D02*
X001179Y012857D01*
X013310Y007205D02*
X018231Y007205D01*
X018310Y007127D02*
X013310Y007127D01*
X013310Y007048D02*
X013585Y007048D01*
X013486Y006970D02*
X013310Y006970D01*
X013373Y006891D02*
X013407Y006891D01*
X018195Y007048D02*
X018388Y007048D01*
X018467Y006970D02*
X018294Y006970D01*
X018373Y006891D02*
X018407Y006891D01*
D19*
X014140Y018640D03*
D20*
X007140Y007515D03*
D21*
X017140Y018140D03*
X017140Y019140D03*
X018140Y019140D03*
X018140Y018140D03*
X019140Y018140D03*
X019140Y019140D03*
M02*
