G75*
%MOIN*%
%OFA0B0*%
%FSLAX24Y24*%
%IPPOS*%
%LPD*%
%AMOC8*
5,1,8,0,0,1.08239X$1,22.5*
%
%ADD10C,0.0600*%
%ADD11OC8,0.0600*%
%ADD12OC8,0.0710*%
%ADD13R,0.0595X0.0595*%
%ADD14C,0.0595*%
D10*
X001390Y003130D02*
X001390Y003650D01*
X002390Y003650D02*
X002390Y003130D01*
X003390Y003130D02*
X003390Y003650D01*
X003390Y005505D02*
X003390Y006025D01*
X002390Y006025D02*
X002390Y005505D01*
X001390Y005505D02*
X001390Y006025D01*
X004890Y006005D02*
X004890Y006525D01*
X005890Y006525D02*
X005890Y006005D01*
X006890Y006005D02*
X006890Y006525D01*
X007890Y006525D02*
X007890Y006005D01*
X008890Y006005D02*
X008890Y006525D01*
X009890Y006525D02*
X009890Y006005D01*
X010890Y006005D02*
X010890Y006525D01*
X013140Y006525D02*
X013140Y006005D01*
X014140Y006005D02*
X014140Y006525D01*
X015140Y006525D02*
X015140Y006005D01*
X016140Y006005D02*
X016140Y006525D01*
X017140Y006525D02*
X017140Y006005D01*
X018140Y006005D02*
X018140Y006525D01*
X019140Y006525D02*
X019140Y006005D01*
X019140Y009005D02*
X019140Y009525D01*
X018140Y009525D02*
X018140Y009005D01*
X017140Y009005D02*
X017140Y009525D01*
X016140Y009525D02*
X016140Y009005D01*
X015140Y009005D02*
X015140Y009525D01*
X014140Y009525D02*
X014140Y009005D01*
X013140Y009005D02*
X013140Y009525D01*
X010890Y009525D02*
X010890Y009005D01*
X009890Y009005D02*
X009890Y009525D01*
X008890Y009525D02*
X008890Y009005D01*
X007890Y009005D02*
X007890Y009525D01*
X006890Y009525D02*
X006890Y009005D01*
X005890Y009005D02*
X005890Y009525D01*
X004890Y009525D02*
X004890Y009005D01*
X003390Y010505D02*
X003390Y011025D01*
X002390Y011025D02*
X002390Y010505D01*
X001390Y010505D02*
X001390Y011025D01*
X007390Y015880D02*
X007390Y016400D01*
X008390Y016400D02*
X008390Y015880D01*
X009390Y015880D02*
X009390Y016400D01*
X010390Y016400D02*
X010390Y015880D01*
X011390Y015880D02*
X011390Y016400D01*
X012390Y016400D02*
X012390Y015880D01*
X013390Y015880D02*
X013390Y016400D01*
X013390Y018880D02*
X013390Y019400D01*
X012390Y019400D02*
X012390Y018880D01*
X011390Y018880D02*
X011390Y019400D01*
X010390Y019400D02*
X010390Y018880D01*
X009390Y018880D02*
X009390Y019400D01*
X008390Y019400D02*
X008390Y018880D01*
X007390Y018880D02*
X007390Y019400D01*
X017130Y017140D02*
X017650Y017140D01*
X017650Y016140D02*
X017130Y016140D01*
X017130Y015140D02*
X017650Y015140D01*
X017390Y001400D02*
X017390Y000880D01*
X018390Y000880D02*
X018390Y001400D01*
X019390Y001400D02*
X019390Y000880D01*
D11*
X017390Y002890D03*
X017390Y003890D03*
X016390Y003765D03*
X016390Y000765D03*
X019390Y003015D03*
X019390Y004015D03*
X013140Y004515D03*
X013140Y005515D03*
X011890Y005140D03*
X010890Y005515D03*
X010890Y004515D03*
X011890Y008140D03*
X010890Y010140D03*
X010890Y010890D03*
X009890Y010890D03*
X009890Y010140D03*
X008890Y011890D03*
X007890Y011890D03*
X005890Y011140D03*
X005890Y010140D03*
X010390Y015015D03*
X011390Y015015D03*
X012265Y014140D03*
X013890Y012765D03*
X014890Y012765D03*
X016265Y012515D03*
X016265Y013515D03*
X017640Y014265D03*
X018390Y014265D03*
X018390Y013265D03*
X019140Y012140D03*
X018640Y011640D03*
X019140Y011140D03*
X018140Y011015D03*
X017640Y011640D03*
X017140Y011015D03*
X014640Y014265D03*
X014390Y016640D03*
X014390Y017640D03*
X015390Y017640D03*
X016140Y018140D03*
X016140Y017140D03*
X015390Y016640D03*
X018015Y018140D03*
X018015Y019140D03*
X012265Y011140D03*
X005765Y004515D03*
X004765Y004515D03*
D12*
X013140Y010390D03*
X014140Y010390D03*
X008880Y014004D03*
X007880Y014004D03*
X015140Y004515D03*
X016140Y004515D03*
X018140Y005140D03*
X019140Y005140D03*
D13*
X003390Y007515D03*
X002390Y007515D03*
X001390Y007515D03*
X001390Y009015D03*
X002390Y009015D03*
X003390Y009015D03*
X003390Y012515D03*
X002390Y012515D03*
X001390Y012515D03*
D14*
X009890Y002390D03*
X009890Y001390D03*
X010890Y001390D03*
X010890Y002390D03*
X011890Y002390D03*
X011890Y001390D03*
X012890Y001390D03*
X012890Y002390D03*
X013890Y002390D03*
X013890Y001390D03*
M02*
