G75*
%MOIN*%
%OFA0B0*%
%FSLAX24Y24*%
%IPPOS*%
%LPD*%
%AMOC8*
5,1,8,0,0,1.08239X$1,22.5*
%
%ADD10C,0.0600*%
%ADD11OC8,0.0600*%
%ADD12OC8,0.0710*%
%ADD13R,0.0595X0.0595*%
%ADD14C,0.0595*%
D10*
X001140Y003130D02*
X001140Y003650D01*
X002140Y003650D02*
X002140Y003130D01*
X003140Y003130D02*
X003140Y003650D01*
X003140Y005505D02*
X003140Y006025D01*
X002140Y006025D02*
X002140Y005505D01*
X001140Y005505D02*
X001140Y006025D01*
X004640Y006005D02*
X004640Y006525D01*
X005640Y006525D02*
X005640Y006005D01*
X006640Y006005D02*
X006640Y006525D01*
X007640Y006525D02*
X007640Y006005D01*
X008640Y006005D02*
X008640Y006525D01*
X009640Y006525D02*
X009640Y006005D01*
X010640Y006005D02*
X010640Y006525D01*
X012890Y006525D02*
X012890Y006005D01*
X013890Y006005D02*
X013890Y006525D01*
X014890Y006525D02*
X014890Y006005D01*
X015890Y006005D02*
X015890Y006525D01*
X016890Y006525D02*
X016890Y006005D01*
X017890Y006005D02*
X017890Y006525D01*
X018890Y006525D02*
X018890Y006005D01*
X018890Y009005D02*
X018890Y009525D01*
X017890Y009525D02*
X017890Y009005D01*
X016890Y009005D02*
X016890Y009525D01*
X015890Y009525D02*
X015890Y009005D01*
X014890Y009005D02*
X014890Y009525D01*
X013890Y009525D02*
X013890Y009005D01*
X012890Y009005D02*
X012890Y009525D01*
X010640Y009525D02*
X010640Y009005D01*
X009640Y009005D02*
X009640Y009525D01*
X008640Y009525D02*
X008640Y009005D01*
X007640Y009005D02*
X007640Y009525D01*
X006640Y009525D02*
X006640Y009005D01*
X005640Y009005D02*
X005640Y009525D01*
X004640Y009525D02*
X004640Y009005D01*
X003140Y010505D02*
X003140Y011025D01*
X002140Y011025D02*
X002140Y010505D01*
X001140Y010505D02*
X001140Y011025D01*
X007140Y015880D02*
X007140Y016400D01*
X008140Y016400D02*
X008140Y015880D01*
X009140Y015880D02*
X009140Y016400D01*
X010140Y016400D02*
X010140Y015880D01*
X011140Y015880D02*
X011140Y016400D01*
X012140Y016400D02*
X012140Y015880D01*
X013140Y015880D02*
X013140Y016400D01*
X014140Y018505D02*
X014140Y019025D01*
X015140Y019025D02*
X015140Y018505D01*
X016140Y018505D02*
X016140Y019025D01*
X013140Y018880D02*
X013140Y019400D01*
X012140Y019400D02*
X012140Y018880D01*
X011140Y018880D02*
X011140Y019400D01*
X010140Y019400D02*
X010140Y018880D01*
X009140Y018880D02*
X009140Y019400D01*
X008140Y019400D02*
X008140Y018880D01*
X007140Y018880D02*
X007140Y019400D01*
X017140Y001400D02*
X017140Y000880D01*
X018140Y000880D02*
X018140Y001400D01*
X019140Y001400D02*
X019140Y000880D01*
D11*
X017140Y002890D03*
X017140Y003890D03*
X016140Y003765D03*
X016140Y000765D03*
X019140Y003015D03*
X019140Y004015D03*
X012890Y004515D03*
X012890Y005515D03*
X011640Y005140D03*
X010640Y005515D03*
X010640Y004515D03*
X011640Y008140D03*
X010640Y010140D03*
X010640Y010890D03*
X009640Y010890D03*
X009640Y010140D03*
X008640Y010765D03*
X007640Y010765D03*
X005640Y011140D03*
X005640Y010140D03*
X005515Y004515D03*
X004515Y004515D03*
X006140Y003015D03*
X007140Y003015D03*
X012015Y011140D03*
X013640Y012765D03*
X014640Y012765D03*
X016015Y012515D03*
X016015Y013515D03*
X017390Y014265D03*
X018140Y014265D03*
X018890Y014265D03*
X018890Y013265D03*
X018140Y013265D03*
X018890Y012140D03*
X018390Y011640D03*
X018890Y011140D03*
X017890Y011015D03*
X017390Y011640D03*
X016890Y011015D03*
X014390Y014265D03*
X013515Y014765D03*
X012515Y014765D03*
X012015Y014140D03*
X014140Y016640D03*
X014140Y017640D03*
X015140Y017640D03*
X015140Y016640D03*
D12*
X010640Y015140D03*
X009640Y015140D03*
X007890Y015140D03*
X007890Y014140D03*
X007630Y012379D03*
X008630Y012379D03*
X012890Y010390D03*
X013890Y010390D03*
X017890Y005140D03*
X018890Y005140D03*
X015890Y004515D03*
X014890Y004515D03*
D13*
X003140Y007515D03*
X002140Y007515D03*
X001140Y007515D03*
X001140Y009015D03*
X002140Y009015D03*
X003140Y009015D03*
X003140Y012515D03*
X002140Y012515D03*
X001140Y012515D03*
D14*
X009640Y002390D03*
X009640Y001390D03*
X010640Y001390D03*
X010640Y002390D03*
X011640Y002390D03*
X011640Y001390D03*
X012640Y001390D03*
X012640Y002390D03*
X013640Y002390D03*
X013640Y001390D03*
M02*
