%
M48
M72
T01C0.0315
T02C0.0320
%
T01
X1355Y7480
X2355Y7480
X3355Y7480
X3355Y8980
X2355Y8980
X1355Y8980
X1355Y12480
X2355Y12480
X3355Y12480
X9855Y2355
X9855Y1355
X10855Y1355
X10855Y2355
X11855Y2355
X11855Y1355
X12855Y1355
X12855Y2355
X13855Y2355
X13855Y1355
T02
X1355Y3355
X2355Y3355
X3355Y3355
X4730Y4480
X5730Y4480
X5855Y6230
X4855Y6230
X3355Y5730
X2355Y5730
X1355Y5730
X4855Y9230
X5855Y9230
X5855Y10105
X5855Y11105
X6855Y9230
X7855Y9230
X8855Y9230
X9855Y9230
X9855Y10105
X9855Y10855
X10855Y10855
X10855Y10105
X10855Y9230
X11855Y8105
X13105Y9230
X14105Y9230
X15105Y9230
X16105Y9230
X17105Y9230
X18105Y9230
X19105Y9230
X18105Y10980
X17605Y11605
X17105Y10980
X18605Y11605
X19105Y12105
X19105Y11105
X18355Y13230
X18355Y14230
X17605Y14230
X17355Y15105
X17355Y16105
X17355Y17105
X17980Y18105
X17980Y19105
X16105Y18105
X15355Y17605
X16105Y17105
X15355Y16605
X14355Y16605
X14355Y17605
X13355Y16105
X12355Y16105
X11355Y16105
X10355Y16105
X9355Y16105
X8355Y16105
X7355Y16105
X7845Y13969
X8845Y13969
X10355Y14980
X11355Y14980
X12230Y14105
X13855Y12730
X14855Y12730
X16230Y12480
X16230Y13480
X14605Y14230
X12230Y11105
X13105Y10355
X14105Y10355
X14105Y6230
X13105Y6230
X13105Y5480
X13105Y4480
X11855Y5105
X10855Y5480
X10855Y6230
X9855Y6230
X8855Y6230
X7855Y6230
X6855Y6230
X10855Y4480
X15105Y4480
X16105Y4480
X16355Y3730
X17355Y3855
X17355Y2855
X17355Y1105
X18355Y1105
X19355Y1105
X19355Y2980
X19355Y3980
X19105Y5105
X18105Y5105
X18105Y6230
X19105Y6230
X17105Y6230
X16105Y6230
X15105Y6230
X16355Y730
X8855Y11855
X7855Y11855
X3355Y10730
X2355Y10730
X1355Y10730
X7355Y19105
X8355Y19105
X9355Y19105
X10355Y19105
X11355Y19105
X12355Y19105
X13355Y19105
M30
