%
M48
M72
T01C0.0315
T02C0.0320
%
T01
X1140Y7515
X2140Y7515
X3140Y7515
X3140Y9015
X2140Y9015
X1140Y9015
X1140Y12515
X2140Y12515
X3140Y12515
X9640Y2390
X9640Y1390
X10640Y1390
X10640Y2390
X11640Y2390
X11640Y1390
X12640Y1390
X12640Y2390
X13640Y2390
X13640Y1390
T02
X1140Y3390
X2140Y3390
X3140Y3390
X4515Y4515
X5515Y4515
X6140Y3015
X7140Y3015
X6640Y6265
X5640Y6265
X4640Y6265
X3140Y5765
X2140Y5765
X1140Y5765
X4640Y9265
X5640Y9265
X5640Y10140
X5640Y11140
X6640Y9265
X7640Y9265
X8640Y9265
X9640Y9265
X9640Y10140
X9640Y10890
X10640Y10890
X10640Y10140
X10640Y9265
X11640Y8140
X12890Y9265
X13890Y9265
X14890Y9265
X15890Y9265
X16890Y9265
X17890Y9265
X18890Y9265
X17890Y11015
X17390Y11640
X16890Y11015
X18390Y11640
X18890Y12140
X18890Y11140
X18890Y13265
X18140Y13265
X18140Y14265
X18890Y14265
X17390Y14265
X16015Y13515
X16015Y12515
X14640Y12765
X13640Y12765
X14390Y14265
X13515Y14765
X12515Y14765
X12015Y14140
X10640Y15140
X9640Y15140
X9140Y16140
X8140Y16140
X7140Y16140
X7890Y15140
X7890Y14140
X7630Y12379
X8630Y12379
X8640Y10765
X7640Y10765
X12015Y11140
X12890Y10390
X13890Y10390
X13890Y6265
X12890Y6265
X12890Y5515
X12890Y4515
X11640Y5140
X10640Y5515
X10640Y6265
X9640Y6265
X8640Y6265
X7640Y6265
X10640Y4515
X14890Y4515
X15890Y4515
X16140Y3765
X17140Y3890
X17140Y2890
X17140Y1140
X18140Y1140
X19140Y1140
X19140Y3015
X19140Y4015
X18890Y5140
X17890Y5140
X17890Y6265
X16890Y6265
X15890Y6265
X14890Y6265
X18890Y6265
X16140Y765
X3140Y10765
X2140Y10765
X1140Y10765
X7140Y19140
X8140Y19140
X9140Y19140
X10140Y19140
X11140Y19140
X12140Y19140
X13140Y19140
X14140Y18765
X15140Y18765
X16140Y18765
X15140Y17640
X15140Y16640
X14140Y16640
X14140Y17640
X13140Y16140
X12140Y16140
X11140Y16140
X10140Y16140
M30
