G75*
%MOIN*%
%OFA0B0*%
%FSLAX24Y24*%
%IPPOS*%
%LPD*%
%AMOC8*
5,1,8,0,0,1.08239X$1,22.5*
%
%ADD10C,0.0000*%
%ADD11C,0.0520*%
%ADD12OC8,0.0520*%
%ADD13OC8,0.0630*%
%ADD14R,0.0515X0.0515*%
%ADD15C,0.0515*%
%ADD16C,0.0080*%
%ADD17C,0.0160*%
%ADD18C,0.0240*%
%ADD19R,0.0396X0.0396*%
%ADD20C,0.0396*%
%ADD21C,0.0320*%
%ADD22R,0.0560X0.0560*%
D10*
X000140Y000140D02*
X000140Y019825D01*
X019825Y019825D01*
X019825Y000140D01*
X000140Y000140D01*
D11*
X001140Y003755D02*
X001140Y004275D01*
X002140Y004275D02*
X002140Y003755D01*
X003140Y003755D02*
X003140Y004275D01*
X003140Y005505D02*
X003140Y006025D01*
X002140Y006025D02*
X002140Y005505D01*
X001140Y005505D02*
X001140Y006025D01*
X004640Y006005D02*
X004640Y006525D01*
X005640Y006525D02*
X005640Y006005D01*
X006640Y006005D02*
X006640Y006525D01*
X007640Y006525D02*
X007640Y006005D01*
X008640Y006005D02*
X008640Y006525D01*
X009640Y006525D02*
X009640Y006005D01*
X010640Y006005D02*
X010640Y006525D01*
X012890Y006525D02*
X012890Y006005D01*
X013890Y006005D02*
X013890Y006525D01*
X014890Y006525D02*
X014890Y006005D01*
X015890Y006005D02*
X015890Y006525D01*
X016890Y006525D02*
X016890Y006005D01*
X017890Y006005D02*
X017890Y006525D01*
X018890Y006525D02*
X018890Y006005D01*
X018890Y009005D02*
X018890Y009525D01*
X017890Y009525D02*
X017890Y009005D01*
X016890Y009005D02*
X016890Y009525D01*
X015890Y009525D02*
X015890Y009005D01*
X014890Y009005D02*
X014890Y009525D01*
X013890Y009525D02*
X013890Y009005D01*
X012890Y009005D02*
X012890Y009525D01*
X010640Y009525D02*
X010640Y009005D01*
X009640Y009005D02*
X009640Y009525D01*
X008640Y009525D02*
X008640Y009005D01*
X007640Y009005D02*
X007640Y009525D01*
X006640Y009525D02*
X006640Y009005D01*
X005640Y009005D02*
X005640Y009525D01*
X004640Y009525D02*
X004640Y009005D01*
X003140Y010505D02*
X003140Y011025D01*
X002140Y011025D02*
X002140Y010505D01*
X001140Y010505D02*
X001140Y011025D01*
X007140Y015880D02*
X007140Y016400D01*
X008140Y016400D02*
X008140Y015880D01*
X009140Y015880D02*
X009140Y016400D01*
X010140Y016400D02*
X010140Y015880D01*
X011140Y015880D02*
X011140Y016400D01*
X012140Y016400D02*
X012140Y015880D01*
X013140Y015880D02*
X013140Y016400D01*
X014140Y018505D02*
X014140Y019025D01*
X015140Y019025D02*
X015140Y018505D01*
X016140Y018505D02*
X016140Y019025D01*
X013140Y018880D02*
X013140Y019400D01*
X012140Y019400D02*
X012140Y018880D01*
X011140Y018880D02*
X011140Y019400D01*
X010140Y019400D02*
X010140Y018880D01*
X009140Y018880D02*
X009140Y019400D01*
X008140Y019400D02*
X008140Y018880D01*
X007140Y018880D02*
X007140Y019400D01*
X017140Y001400D02*
X017140Y000880D01*
X018140Y000880D02*
X018140Y001400D01*
X019140Y001400D02*
X019140Y000880D01*
D12*
X017140Y002890D03*
X017140Y003890D03*
X016140Y003765D03*
X016140Y000765D03*
X019140Y003015D03*
X019140Y004015D03*
X012890Y004515D03*
X012890Y005515D03*
X011640Y005140D03*
X010640Y005515D03*
X010640Y004515D03*
X011640Y008140D03*
X010640Y010140D03*
X010640Y010890D03*
X009640Y010890D03*
X009640Y010140D03*
X008640Y011140D03*
X007640Y011140D03*
X005640Y011140D03*
X005640Y010140D03*
X005515Y004515D03*
X005140Y003640D03*
X004515Y004515D03*
X004140Y003640D03*
X006140Y003015D03*
X007140Y003015D03*
X012015Y011140D03*
X013640Y012765D03*
X014640Y012765D03*
X016015Y012515D03*
X016015Y013515D03*
X017390Y014265D03*
X018140Y014265D03*
X018890Y014265D03*
X018890Y013265D03*
X018140Y013265D03*
X018890Y012140D03*
X018390Y011640D03*
X018890Y011140D03*
X017890Y011015D03*
X017390Y011640D03*
X016890Y011015D03*
X014390Y014265D03*
X013515Y014765D03*
X012515Y014765D03*
X012015Y014140D03*
X014140Y016640D03*
X014140Y017640D03*
X015140Y017640D03*
X015140Y016640D03*
X006140Y018640D03*
X005390Y018140D03*
X005390Y019140D03*
X003765Y019140D03*
X003765Y018140D03*
X004765Y017140D03*
X004765Y016140D03*
X005890Y016140D03*
X005890Y017140D03*
D13*
X008140Y015140D03*
X008140Y014140D03*
X009140Y015140D03*
X010140Y015140D03*
X008640Y012640D03*
X007640Y012640D03*
X012890Y010390D03*
X013890Y010390D03*
X017890Y005140D03*
X018890Y005140D03*
X015890Y004515D03*
X014890Y004515D03*
D14*
X003140Y007515D03*
X002140Y007515D03*
X001140Y007515D03*
X001140Y009015D03*
X002140Y009015D03*
X003140Y009015D03*
X003140Y012515D03*
X002140Y012515D03*
X001140Y012515D03*
D15*
X009640Y002390D03*
X009640Y001390D03*
X010640Y001390D03*
X010640Y002390D03*
X011640Y002390D03*
X011640Y001390D03*
X012640Y001390D03*
X012640Y002390D03*
X013640Y002390D03*
X013640Y001390D03*
D16*
X013889Y000847D02*
X014476Y000847D01*
X014433Y000890D02*
X014743Y000580D01*
X000580Y000580D01*
X000580Y019385D01*
X003444Y019385D01*
X003365Y019306D01*
X003365Y019180D01*
X003725Y019180D01*
X003725Y019100D01*
X003805Y019100D01*
X003805Y019180D01*
X004165Y019180D01*
X004165Y019306D01*
X004086Y019385D01*
X005069Y019385D01*
X004990Y019306D01*
X004990Y019180D01*
X005350Y019180D01*
X005350Y019100D01*
X005430Y019100D01*
X005751Y019100D01*
X005891Y019240D01*
X006389Y019240D01*
X006540Y019089D01*
X006540Y019385D01*
X005711Y019385D01*
X005790Y019306D01*
X005790Y019180D01*
X005430Y019180D01*
X005430Y019100D01*
X005430Y018740D01*
X005540Y018740D01*
X005540Y018740D01*
X005141Y018740D01*
X004790Y018389D01*
X004790Y017891D01*
X004941Y017740D01*
X004516Y017740D01*
X004165Y017389D01*
X004165Y016891D01*
X004416Y016640D01*
X004165Y016389D01*
X004165Y015891D01*
X004516Y015540D01*
X005014Y015540D01*
X005327Y015854D01*
X005470Y015711D01*
X005470Y012935D01*
X004556Y012935D01*
X004402Y012871D01*
X004284Y012753D01*
X003737Y012206D01*
X003737Y012840D01*
X003686Y012965D01*
X003590Y013061D01*
X003465Y013112D01*
X002815Y013112D01*
X002690Y013061D01*
X002640Y013011D01*
X002590Y013061D01*
X002465Y013112D01*
X001815Y013112D01*
X001690Y013061D01*
X001594Y012965D01*
X001543Y012840D01*
X001543Y012190D01*
X001594Y012065D01*
X001690Y011969D01*
X001815Y011918D01*
X002465Y011918D01*
X002590Y011969D01*
X002640Y012019D01*
X002690Y011969D01*
X002815Y011918D01*
X003465Y011918D01*
X003590Y011969D01*
X003595Y011975D01*
X003595Y011974D01*
X003595Y011419D01*
X003480Y011534D01*
X003259Y011625D01*
X003021Y011625D01*
X002800Y011534D01*
X002640Y011374D01*
X002480Y011534D01*
X002259Y011625D01*
X002021Y011625D01*
X001800Y011534D01*
X001631Y011365D01*
X001540Y011144D01*
X001540Y010386D01*
X001631Y010165D01*
X001800Y009996D01*
X002021Y009905D01*
X002259Y009905D01*
X002480Y009996D01*
X002640Y010156D01*
X002720Y010076D01*
X002720Y009573D01*
X002690Y009561D01*
X002594Y009465D01*
X002543Y009340D01*
X002543Y008690D01*
X002594Y008565D01*
X002690Y008469D01*
X002815Y008418D01*
X003465Y008418D01*
X003590Y008469D01*
X003595Y008474D01*
X003595Y008056D01*
X003595Y008055D01*
X003590Y008061D01*
X003465Y008112D01*
X002815Y008112D01*
X002690Y008061D01*
X002594Y007965D01*
X002543Y007840D01*
X002543Y007190D01*
X002594Y007065D01*
X002690Y006969D01*
X002815Y006918D01*
X003465Y006918D01*
X003590Y006969D01*
X003686Y007065D01*
X003737Y007190D01*
X003737Y007824D01*
X003777Y007784D01*
X004402Y007159D01*
X004502Y007117D01*
X004300Y007034D01*
X004131Y006865D01*
X004040Y006644D01*
X004040Y005886D01*
X004131Y005665D01*
X004300Y005496D01*
X004521Y005405D01*
X004759Y005405D01*
X004980Y005496D01*
X005140Y005656D01*
X005300Y005496D01*
X005521Y005405D01*
X005759Y005405D01*
X005980Y005496D01*
X006140Y005656D01*
X006300Y005496D01*
X006521Y005405D01*
X006759Y005405D01*
X006964Y005490D01*
X006115Y004641D01*
X006115Y004764D01*
X005764Y005115D01*
X005266Y005115D01*
X005015Y004864D01*
X004764Y005115D01*
X004266Y005115D01*
X004200Y005049D01*
X004003Y005246D01*
X003849Y005310D01*
X003709Y005310D01*
X003740Y005386D01*
X003740Y006144D01*
X003649Y006365D01*
X003480Y006534D01*
X003259Y006625D01*
X003021Y006625D01*
X002800Y006534D01*
X002640Y006374D01*
X002480Y006534D01*
X002259Y006625D01*
X002021Y006625D01*
X001800Y006534D01*
X001631Y006365D01*
X001540Y006144D01*
X001540Y005386D01*
X001631Y005165D01*
X001800Y004996D01*
X002021Y004905D01*
X002186Y004905D01*
X002156Y004875D01*
X002021Y004875D01*
X001800Y004784D01*
X001631Y004615D01*
X001540Y004394D01*
X001540Y003636D01*
X001631Y003415D01*
X001800Y003246D01*
X002021Y003155D01*
X002259Y003155D01*
X002480Y003246D01*
X002640Y003406D01*
X002800Y003246D01*
X003021Y003155D01*
X003259Y003155D01*
X003480Y003246D01*
X003583Y003349D01*
X003891Y003040D01*
X004389Y003040D01*
X004640Y003291D01*
X004891Y003040D01*
X005389Y003040D01*
X005540Y003191D01*
X005540Y002766D01*
X005891Y002415D01*
X006389Y002415D01*
X006740Y002766D01*
X006740Y003264D01*
X006600Y003404D01*
X006600Y003824D01*
X007901Y005125D01*
X008030Y005254D01*
X008100Y005423D01*
X008100Y005616D01*
X008140Y005656D01*
X008300Y005496D01*
X008521Y005405D01*
X008759Y005405D01*
X008980Y005496D01*
X009140Y005656D01*
X009300Y005496D01*
X009521Y005405D01*
X009759Y005405D01*
X009980Y005496D01*
X010040Y005556D01*
X010040Y005266D01*
X010291Y005015D01*
X010040Y004764D01*
X010040Y004266D01*
X010391Y003915D01*
X010889Y003915D01*
X011140Y004166D01*
X011140Y003972D01*
X011058Y003890D01*
X010041Y003890D01*
X009857Y003814D01*
X009716Y003673D01*
X009216Y003173D01*
X009140Y002989D01*
X009140Y002735D01*
X009133Y002728D01*
X009043Y002509D01*
X009043Y002271D01*
X009133Y002052D01*
X009140Y002045D01*
X009140Y001735D01*
X009133Y001728D01*
X009043Y001509D01*
X009043Y001271D01*
X009133Y001052D01*
X009302Y000883D01*
X009521Y000793D01*
X009759Y000793D01*
X009978Y000883D01*
X010147Y001052D01*
X010237Y001271D01*
X010237Y001509D01*
X010147Y001728D01*
X010140Y001735D01*
X010140Y002045D01*
X010147Y002052D01*
X010237Y002271D01*
X010237Y002509D01*
X010158Y002701D01*
X010347Y002890D01*
X011364Y002890D01*
X011548Y002966D01*
X013469Y002966D01*
X013521Y002987D02*
X013302Y002897D01*
X013133Y002728D01*
X013043Y002509D01*
X013043Y002271D01*
X013133Y002052D01*
X013140Y002045D01*
X013140Y001735D01*
X013133Y001728D01*
X013043Y001509D01*
X013043Y001271D01*
X013133Y001052D01*
X013302Y000883D01*
X013521Y000793D01*
X013759Y000793D01*
X013978Y000883D01*
X013985Y000890D01*
X014433Y000890D01*
X014555Y000768D02*
X000580Y000768D01*
X000580Y000690D02*
X014633Y000690D01*
X014712Y000611D02*
X000580Y000611D01*
X000580Y000847D02*
X009391Y000847D01*
X009260Y000925D02*
X000580Y000925D01*
X000580Y001004D02*
X009182Y001004D01*
X009121Y001082D02*
X000580Y001082D01*
X000580Y001161D02*
X009088Y001161D01*
X009056Y001239D02*
X000580Y001239D01*
X000580Y001318D02*
X009043Y001318D01*
X009043Y001396D02*
X000580Y001396D01*
X000580Y001475D02*
X009043Y001475D01*
X009061Y001553D02*
X000580Y001553D01*
X000580Y001632D02*
X009093Y001632D01*
X009126Y001710D02*
X000580Y001710D01*
X000580Y001789D02*
X009140Y001789D01*
X009140Y001867D02*
X000580Y001867D01*
X000580Y001946D02*
X009140Y001946D01*
X009140Y002024D02*
X000580Y002024D01*
X000580Y002103D02*
X009112Y002103D01*
X009080Y002181D02*
X000580Y002181D01*
X000580Y002260D02*
X009047Y002260D01*
X009043Y002338D02*
X000580Y002338D01*
X000580Y002417D02*
X005890Y002417D01*
X005811Y002495D02*
X000580Y002495D01*
X000580Y002574D02*
X005733Y002574D01*
X005654Y002652D02*
X000580Y002652D01*
X000580Y002731D02*
X005576Y002731D01*
X005540Y002809D02*
X000580Y002809D01*
X000580Y002888D02*
X005540Y002888D01*
X005540Y002966D02*
X000580Y002966D01*
X000580Y003045D02*
X003887Y003045D01*
X003808Y003123D02*
X000580Y003123D01*
X000580Y003202D02*
X001908Y003202D01*
X001766Y003280D02*
X000580Y003280D01*
X000580Y003359D02*
X001083Y003359D01*
X001100Y003359D02*
X001180Y003359D01*
X001180Y003355D02*
X001257Y003370D01*
X001329Y003401D01*
X001395Y003444D01*
X001451Y003500D01*
X001494Y003566D01*
X001525Y003638D01*
X001540Y003716D01*
X001540Y003975D01*
X001180Y003975D01*
X001180Y004055D01*
X001100Y004055D01*
X001100Y004675D01*
X001023Y004660D01*
X000951Y004629D01*
X000885Y004586D01*
X000829Y004530D01*
X000786Y004464D01*
X000755Y004392D01*
X000740Y004314D01*
X000740Y004055D01*
X001100Y004055D01*
X001100Y003975D01*
X000740Y003975D01*
X000740Y003716D01*
X000755Y003638D01*
X000786Y003566D01*
X000829Y003500D01*
X000885Y003444D01*
X000951Y003401D01*
X001023Y003370D01*
X001100Y003355D01*
X001100Y003975D01*
X001180Y003975D01*
X001180Y003355D01*
X001197Y003359D02*
X001688Y003359D01*
X001622Y003437D02*
X001384Y003437D01*
X001461Y003516D02*
X001590Y003516D01*
X001557Y003594D02*
X001506Y003594D01*
X001531Y003673D02*
X001540Y003673D01*
X001540Y003751D02*
X001540Y003751D01*
X001540Y003830D02*
X001540Y003830D01*
X001540Y003908D02*
X001540Y003908D01*
X001540Y003987D02*
X001180Y003987D01*
X001180Y004055D02*
X001540Y004055D01*
X001540Y004314D01*
X001525Y004392D01*
X001494Y004464D01*
X001451Y004530D01*
X001395Y004586D01*
X001329Y004629D01*
X001257Y004660D01*
X001180Y004675D01*
X001180Y004055D01*
X001180Y004065D02*
X001100Y004065D01*
X001100Y003987D02*
X000580Y003987D01*
X000580Y004065D02*
X000740Y004065D01*
X000740Y004144D02*
X000580Y004144D01*
X000580Y004222D02*
X000740Y004222D01*
X000740Y004301D02*
X000580Y004301D01*
X000580Y004379D02*
X000753Y004379D01*
X000783Y004458D02*
X000580Y004458D01*
X000580Y004536D02*
X000835Y004536D01*
X000928Y004615D02*
X000580Y004615D01*
X000580Y004693D02*
X001709Y004693D01*
X001631Y004615D02*
X001352Y004615D01*
X001445Y004536D02*
X001599Y004536D01*
X001566Y004458D02*
X001497Y004458D01*
X001527Y004379D02*
X001540Y004379D01*
X001540Y004301D02*
X001540Y004301D01*
X001540Y004222D02*
X001540Y004222D01*
X001540Y004144D02*
X001540Y004144D01*
X001540Y004065D02*
X001540Y004065D01*
X001180Y004144D02*
X001100Y004144D01*
X001100Y004222D02*
X001180Y004222D01*
X001180Y004301D02*
X001100Y004301D01*
X001100Y004379D02*
X001180Y004379D01*
X001180Y004458D02*
X001100Y004458D01*
X001100Y004536D02*
X001180Y004536D01*
X001180Y004615D02*
X001100Y004615D01*
X001100Y005105D02*
X001100Y005725D01*
X000740Y005725D01*
X000740Y005466D01*
X000755Y005388D01*
X000786Y005316D01*
X000829Y005250D01*
X000885Y005194D01*
X000951Y005151D01*
X001023Y005120D01*
X001100Y005105D01*
X001100Y005164D02*
X001180Y005164D01*
X001180Y005105D02*
X001257Y005120D01*
X001329Y005151D01*
X001395Y005194D01*
X001451Y005250D01*
X001494Y005316D01*
X001525Y005388D01*
X001540Y005466D01*
X001540Y005725D01*
X001180Y005725D01*
X001180Y005805D01*
X001100Y005805D01*
X001100Y006425D01*
X001023Y006410D01*
X000951Y006379D01*
X000885Y006336D01*
X000829Y006280D01*
X000786Y006214D01*
X000755Y006142D01*
X000740Y006064D01*
X000740Y005805D01*
X001100Y005805D01*
X001100Y005725D01*
X001180Y005725D01*
X001180Y005105D01*
X001180Y005243D02*
X001100Y005243D01*
X001100Y005321D02*
X001180Y005321D01*
X001180Y005400D02*
X001100Y005400D01*
X001100Y005478D02*
X001180Y005478D01*
X001180Y005557D02*
X001100Y005557D01*
X001100Y005635D02*
X001180Y005635D01*
X001180Y005714D02*
X001100Y005714D01*
X001100Y005792D02*
X000580Y005792D01*
X000580Y005714D02*
X000740Y005714D01*
X000740Y005635D02*
X000580Y005635D01*
X000580Y005557D02*
X000740Y005557D01*
X000740Y005478D02*
X000580Y005478D01*
X000580Y005400D02*
X000753Y005400D01*
X000783Y005321D02*
X000580Y005321D01*
X000580Y005243D02*
X000837Y005243D01*
X000930Y005164D02*
X000580Y005164D01*
X000580Y005086D02*
X001711Y005086D01*
X001632Y005164D02*
X001350Y005164D01*
X001443Y005243D02*
X001599Y005243D01*
X001567Y005321D02*
X001497Y005321D01*
X001527Y005400D02*
X001540Y005400D01*
X001540Y005478D02*
X001540Y005478D01*
X001540Y005557D02*
X001540Y005557D01*
X001540Y005635D02*
X001540Y005635D01*
X001540Y005714D02*
X001540Y005714D01*
X001540Y005792D02*
X001180Y005792D01*
X001180Y005805D02*
X001540Y005805D01*
X001540Y006064D01*
X001525Y006142D01*
X001494Y006214D01*
X001451Y006280D01*
X001395Y006336D01*
X001329Y006379D01*
X001257Y006410D01*
X001180Y006425D01*
X001180Y005805D01*
X001180Y005871D02*
X001100Y005871D01*
X001100Y005949D02*
X001180Y005949D01*
X001180Y006028D02*
X001100Y006028D01*
X001100Y006106D02*
X001180Y006106D01*
X001180Y006185D02*
X001100Y006185D01*
X001100Y006263D02*
X001180Y006263D01*
X001180Y006342D02*
X001100Y006342D01*
X001100Y006420D02*
X001180Y006420D01*
X001204Y006420D02*
X001686Y006420D01*
X001622Y006342D02*
X001386Y006342D01*
X001462Y006263D02*
X001589Y006263D01*
X001557Y006185D02*
X001507Y006185D01*
X001532Y006106D02*
X001540Y006106D01*
X001540Y006028D02*
X001540Y006028D01*
X001540Y005949D02*
X001540Y005949D01*
X001540Y005871D02*
X001540Y005871D01*
X001765Y006499D02*
X000580Y006499D01*
X000580Y006577D02*
X001905Y006577D01*
X002375Y006577D02*
X002905Y006577D01*
X002765Y006499D02*
X002515Y006499D01*
X002594Y006420D02*
X002686Y006420D01*
X002690Y006970D02*
X000580Y006970D01*
X000580Y007048D02*
X002611Y007048D01*
X002569Y007127D02*
X002450Y007127D01*
X002452Y007127D02*
X002483Y007145D01*
X002510Y007172D01*
X002528Y007203D01*
X002537Y007239D01*
X002537Y007476D01*
X002179Y007476D01*
X002179Y007554D01*
X002101Y007554D01*
X002101Y007912D01*
X002179Y007912D01*
X002179Y007554D01*
X002537Y007554D01*
X002537Y007791D01*
X002528Y007827D01*
X002510Y007858D01*
X002483Y007885D01*
X002452Y007903D01*
X002416Y007912D01*
X002179Y007912D01*
X002101Y007912D02*
X001864Y007912D01*
X001828Y007903D01*
X001797Y007885D01*
X001770Y007858D01*
X001752Y007827D01*
X001743Y007791D01*
X001743Y007554D01*
X002101Y007554D01*
X002101Y007476D01*
X001743Y007476D01*
X001743Y007239D01*
X001752Y007203D01*
X001770Y007172D01*
X001797Y007145D01*
X001828Y007127D01*
X001864Y007118D01*
X002101Y007118D01*
X002101Y007476D01*
X002179Y007476D01*
X002179Y007118D01*
X002416Y007118D01*
X002452Y007127D01*
X002528Y007205D02*
X002543Y007205D01*
X002537Y007284D02*
X002543Y007284D01*
X002537Y007362D02*
X002543Y007362D01*
X002537Y007441D02*
X002543Y007441D01*
X002543Y007519D02*
X002179Y007519D01*
X002101Y007519D02*
X001179Y007519D01*
X001179Y007554D02*
X001537Y007554D01*
X001537Y007791D01*
X001528Y007827D01*
X001510Y007858D01*
X001483Y007885D01*
X001452Y007903D01*
X001416Y007912D01*
X001179Y007912D01*
X001101Y007912D01*
X000864Y007912D01*
X000828Y007903D01*
X000797Y007885D01*
X000770Y007858D01*
X000752Y007827D01*
X000743Y007791D01*
X000743Y007554D01*
X001101Y007554D01*
X001101Y007912D01*
X001179Y007912D02*
X001179Y007554D01*
X001101Y007554D01*
X001101Y007476D01*
X000743Y007476D01*
X000743Y007239D01*
X000752Y007203D01*
X000770Y007172D01*
X000797Y007145D01*
X000828Y007127D01*
X000864Y007118D01*
X001101Y007118D01*
X001101Y007476D01*
X001179Y007476D01*
X001179Y007554D01*
X001179Y007598D02*
X001101Y007598D01*
X001101Y007676D02*
X001179Y007676D01*
X001179Y007755D02*
X001101Y007755D01*
X001101Y007833D02*
X001179Y007833D01*
X000861Y007912D02*
X000580Y007912D01*
X000580Y007990D02*
X002619Y007990D01*
X002572Y007912D02*
X002419Y007912D01*
X002524Y007833D02*
X002543Y007833D01*
X002537Y007755D02*
X002543Y007755D01*
X002537Y007676D02*
X002543Y007676D01*
X002537Y007598D02*
X002543Y007598D01*
X002179Y007598D02*
X002101Y007598D01*
X002101Y007676D02*
X002179Y007676D01*
X002179Y007755D02*
X002101Y007755D01*
X002101Y007833D02*
X002179Y007833D01*
X001861Y007912D02*
X001419Y007912D01*
X001524Y007833D02*
X001756Y007833D01*
X001743Y007755D02*
X001537Y007755D01*
X001537Y007676D02*
X001743Y007676D01*
X001743Y007598D02*
X001537Y007598D01*
X001537Y007476D02*
X001179Y007476D01*
X001179Y007118D01*
X001416Y007118D01*
X001452Y007127D01*
X001483Y007145D01*
X001510Y007172D01*
X001528Y007203D01*
X001537Y007239D01*
X001537Y007476D01*
X001537Y007441D02*
X001743Y007441D01*
X001743Y007362D02*
X001537Y007362D01*
X001537Y007284D02*
X001743Y007284D01*
X001752Y007205D02*
X001528Y007205D01*
X001450Y007127D02*
X001830Y007127D01*
X002101Y007127D02*
X002179Y007127D01*
X002179Y007205D02*
X002101Y007205D01*
X002101Y007284D02*
X002179Y007284D01*
X002179Y007362D02*
X002101Y007362D01*
X002101Y007441D02*
X002179Y007441D01*
X002709Y008069D02*
X000580Y008069D01*
X000580Y008147D02*
X003595Y008147D01*
X003595Y008069D02*
X003571Y008069D01*
X003595Y008226D02*
X000580Y008226D01*
X000580Y008304D02*
X003595Y008304D01*
X003595Y008383D02*
X000580Y008383D01*
X000580Y008461D02*
X002710Y008461D01*
X002620Y008540D02*
X000580Y008540D01*
X000580Y008618D02*
X000862Y008618D01*
X000864Y008618D02*
X001101Y008618D01*
X001179Y008618D01*
X001416Y008618D01*
X001452Y008627D01*
X001483Y008645D01*
X001510Y008672D01*
X001528Y008703D01*
X001537Y008739D01*
X001537Y008976D01*
X001179Y008976D01*
X001179Y009054D01*
X001101Y009054D01*
X001101Y009412D01*
X000864Y009412D01*
X000828Y009403D01*
X000797Y009385D01*
X000770Y009358D01*
X000752Y009327D01*
X000743Y009291D01*
X000743Y009054D01*
X001101Y009054D01*
X001101Y008976D01*
X000743Y008976D01*
X000743Y008739D01*
X000752Y008703D01*
X000770Y008672D01*
X000797Y008645D01*
X000828Y008627D01*
X000864Y008618D01*
X000756Y008697D02*
X000580Y008697D01*
X000580Y008775D02*
X000743Y008775D01*
X000743Y008854D02*
X000580Y008854D01*
X000580Y008932D02*
X000743Y008932D01*
X000743Y009089D02*
X000580Y009089D01*
X000580Y009011D02*
X001101Y009011D01*
X001101Y008976D02*
X001179Y008976D01*
X001179Y008618D01*
X001101Y008618D02*
X001101Y008976D01*
X001101Y008932D02*
X001179Y008932D01*
X001179Y008854D02*
X001101Y008854D01*
X001101Y008775D02*
X001179Y008775D01*
X001179Y008697D02*
X001101Y008697D01*
X001179Y009011D02*
X002101Y009011D01*
X002101Y008976D02*
X001743Y008976D01*
X001743Y008739D01*
X001752Y008703D01*
X001770Y008672D01*
X001797Y008645D01*
X001828Y008627D01*
X001864Y008618D01*
X002101Y008618D01*
X002179Y008618D01*
X002416Y008618D01*
X002452Y008627D01*
X002483Y008645D01*
X002510Y008672D01*
X002528Y008703D01*
X002537Y008739D01*
X002537Y008976D01*
X002179Y008976D01*
X002179Y009054D01*
X002101Y009054D01*
X002101Y009412D01*
X001864Y009412D01*
X001828Y009403D01*
X001797Y009385D01*
X001770Y009358D01*
X001752Y009327D01*
X001743Y009291D01*
X001743Y009054D01*
X002101Y009054D01*
X002101Y008976D01*
X002179Y008976D01*
X002179Y008618D01*
X002101Y008618D02*
X002101Y008976D01*
X002101Y008932D02*
X002179Y008932D01*
X002179Y008854D02*
X002101Y008854D01*
X002101Y008775D02*
X002179Y008775D01*
X002179Y008697D02*
X002101Y008697D01*
X001862Y008618D02*
X001418Y008618D01*
X001524Y008697D02*
X001756Y008697D01*
X001743Y008775D02*
X001537Y008775D01*
X001537Y008854D02*
X001743Y008854D01*
X001743Y008932D02*
X001537Y008932D01*
X001537Y009054D02*
X001537Y009291D01*
X001528Y009327D01*
X001510Y009358D01*
X001483Y009385D01*
X001452Y009403D01*
X001416Y009412D01*
X001179Y009412D01*
X001179Y009054D01*
X001537Y009054D01*
X001537Y009089D02*
X001743Y009089D01*
X001743Y009168D02*
X001537Y009168D01*
X001537Y009246D02*
X001743Y009246D01*
X001752Y009325D02*
X001528Y009325D01*
X001451Y009403D02*
X001829Y009403D01*
X002101Y009403D02*
X002179Y009403D01*
X002179Y009412D02*
X002179Y009054D01*
X002537Y009054D01*
X002537Y009291D01*
X002528Y009327D01*
X002510Y009358D01*
X002483Y009385D01*
X002452Y009403D01*
X002416Y009412D01*
X002179Y009412D01*
X002179Y009325D02*
X002101Y009325D01*
X002101Y009246D02*
X002179Y009246D01*
X002179Y009168D02*
X002101Y009168D01*
X002101Y009089D02*
X002179Y009089D01*
X002179Y009011D02*
X002543Y009011D01*
X002537Y009089D02*
X002543Y009089D01*
X002537Y009168D02*
X002543Y009168D01*
X002537Y009246D02*
X002543Y009246D01*
X002543Y009325D02*
X002528Y009325D01*
X002569Y009403D02*
X002451Y009403D01*
X002611Y009482D02*
X000580Y009482D01*
X000580Y009560D02*
X002689Y009560D01*
X002720Y009639D02*
X000580Y009639D01*
X000580Y009717D02*
X002720Y009717D01*
X002720Y009796D02*
X000580Y009796D01*
X000580Y009874D02*
X002720Y009874D01*
X002720Y009953D02*
X002374Y009953D01*
X002515Y010031D02*
X002720Y010031D01*
X002687Y010110D02*
X002593Y010110D01*
X001906Y009953D02*
X000580Y009953D01*
X000580Y010031D02*
X001765Y010031D01*
X001687Y010110D02*
X001202Y010110D01*
X001180Y010110D02*
X001100Y010110D01*
X001100Y010105D02*
X001100Y010725D01*
X000740Y010725D01*
X000740Y010466D01*
X000755Y010388D01*
X000786Y010316D01*
X000829Y010250D01*
X000885Y010194D01*
X000951Y010151D01*
X001023Y010120D01*
X001100Y010105D01*
X001078Y010110D02*
X000580Y010110D01*
X000580Y010188D02*
X000894Y010188D01*
X000818Y010267D02*
X000580Y010267D01*
X000580Y010345D02*
X000773Y010345D01*
X000748Y010424D02*
X000580Y010424D01*
X000580Y010502D02*
X000740Y010502D01*
X000740Y010581D02*
X000580Y010581D01*
X000580Y010659D02*
X000740Y010659D01*
X000740Y010805D02*
X001100Y010805D01*
X001100Y011425D01*
X001023Y011410D01*
X000951Y011379D01*
X000885Y011336D01*
X000829Y011280D01*
X000786Y011214D01*
X000755Y011142D01*
X000740Y011064D01*
X000740Y010805D01*
X000740Y010816D02*
X000580Y010816D01*
X000580Y010738D02*
X001100Y010738D01*
X001100Y010725D02*
X001100Y010805D01*
X001180Y010805D01*
X001180Y011425D01*
X001257Y011410D01*
X001329Y011379D01*
X001395Y011336D01*
X001451Y011280D01*
X001494Y011214D01*
X001525Y011142D01*
X001540Y011064D01*
X001540Y010805D01*
X001180Y010805D01*
X001180Y010725D01*
X001540Y010725D01*
X001540Y010466D01*
X001525Y010388D01*
X001494Y010316D01*
X001451Y010250D01*
X001395Y010194D01*
X001329Y010151D01*
X001257Y010120D01*
X001180Y010105D01*
X001180Y010725D01*
X001100Y010725D01*
X001100Y010659D02*
X001180Y010659D01*
X001180Y010581D02*
X001100Y010581D01*
X001100Y010502D02*
X001180Y010502D01*
X001180Y010424D02*
X001100Y010424D01*
X001100Y010345D02*
X001180Y010345D01*
X001180Y010267D02*
X001100Y010267D01*
X001100Y010188D02*
X001180Y010188D01*
X001386Y010188D02*
X001622Y010188D01*
X001589Y010267D02*
X001462Y010267D01*
X001507Y010345D02*
X001557Y010345D01*
X001540Y010424D02*
X001532Y010424D01*
X001540Y010502D02*
X001540Y010502D01*
X001540Y010581D02*
X001540Y010581D01*
X001540Y010659D02*
X001540Y010659D01*
X001540Y010738D02*
X001180Y010738D01*
X001180Y010816D02*
X001100Y010816D01*
X001100Y010895D02*
X001180Y010895D01*
X001180Y010973D02*
X001100Y010973D01*
X001100Y011052D02*
X001180Y011052D01*
X001180Y011130D02*
X001100Y011130D01*
X001100Y011209D02*
X001180Y011209D01*
X001180Y011287D02*
X001100Y011287D01*
X001100Y011366D02*
X001180Y011366D01*
X001350Y011366D02*
X001632Y011366D01*
X001599Y011287D02*
X001444Y011287D01*
X001497Y011209D02*
X001567Y011209D01*
X001540Y011130D02*
X001527Y011130D01*
X001540Y011052D02*
X001540Y011052D01*
X001540Y010973D02*
X001540Y010973D01*
X001540Y010895D02*
X001540Y010895D01*
X001540Y010816D02*
X001540Y010816D01*
X000930Y011366D02*
X000580Y011366D01*
X000580Y011444D02*
X001711Y011444D01*
X001789Y011523D02*
X000580Y011523D01*
X000580Y011601D02*
X001963Y011601D01*
X002317Y011601D02*
X002963Y011601D01*
X002789Y011523D02*
X002491Y011523D01*
X002569Y011444D02*
X002711Y011444D01*
X002666Y011994D02*
X002614Y011994D01*
X003317Y011601D02*
X003595Y011601D01*
X003595Y011523D02*
X003491Y011523D01*
X003569Y011444D02*
X003595Y011444D01*
X003595Y011680D02*
X000580Y011680D01*
X000580Y011758D02*
X003595Y011758D01*
X003595Y011837D02*
X000580Y011837D01*
X000580Y011915D02*
X003595Y011915D01*
X003737Y012229D02*
X003760Y012229D01*
X003737Y012308D02*
X003839Y012308D01*
X003917Y012386D02*
X003737Y012386D01*
X003737Y012465D02*
X003996Y012465D01*
X004074Y012543D02*
X003737Y012543D01*
X003737Y012622D02*
X004153Y012622D01*
X004231Y012700D02*
X003737Y012700D01*
X003737Y012779D02*
X004310Y012779D01*
X004388Y012857D02*
X003730Y012857D01*
X003698Y012936D02*
X005470Y012936D01*
X005470Y013014D02*
X003637Y013014D01*
X003513Y013093D02*
X005470Y013093D01*
X005470Y013171D02*
X000580Y013171D01*
X000580Y013093D02*
X001767Y013093D01*
X001643Y013014D02*
X000580Y013014D01*
X000580Y012936D02*
X001582Y012936D01*
X001550Y012857D02*
X001510Y012857D01*
X001510Y012858D02*
X001483Y012885D01*
X001452Y012903D01*
X001416Y012912D01*
X001179Y012912D01*
X001179Y012554D01*
X001101Y012554D01*
X001101Y012912D01*
X000864Y012912D01*
X000828Y012903D01*
X000797Y012885D01*
X000770Y012858D01*
X000752Y012827D01*
X000743Y012791D01*
X000743Y012554D01*
X001101Y012554D01*
X001101Y012476D01*
X000743Y012476D01*
X000743Y012239D01*
X000752Y012203D01*
X000770Y012172D01*
X000797Y012145D01*
X000828Y012127D01*
X000864Y012118D01*
X001101Y012118D01*
X001101Y012476D01*
X001179Y012476D01*
X001179Y012554D01*
X001537Y012554D01*
X001537Y012791D01*
X001528Y012827D01*
X001510Y012858D01*
X001537Y012779D02*
X001543Y012779D01*
X001537Y012700D02*
X001543Y012700D01*
X001537Y012622D02*
X001543Y012622D01*
X001543Y012543D02*
X001179Y012543D01*
X001179Y012476D02*
X001537Y012476D01*
X001537Y012239D01*
X001528Y012203D01*
X001510Y012172D01*
X001483Y012145D01*
X001452Y012127D01*
X001416Y012118D01*
X001179Y012118D01*
X001179Y012476D01*
X001179Y012465D02*
X001101Y012465D01*
X001101Y012543D02*
X000580Y012543D01*
X000580Y012465D02*
X000743Y012465D01*
X000743Y012386D02*
X000580Y012386D01*
X000580Y012308D02*
X000743Y012308D01*
X000745Y012229D02*
X000580Y012229D01*
X000580Y012151D02*
X000792Y012151D01*
X000580Y012072D02*
X001591Y012072D01*
X001559Y012151D02*
X001488Y012151D01*
X001535Y012229D02*
X001543Y012229D01*
X001537Y012308D02*
X001543Y012308D01*
X001537Y012386D02*
X001543Y012386D01*
X001537Y012465D02*
X001543Y012465D01*
X001179Y012386D02*
X001101Y012386D01*
X001101Y012308D02*
X001179Y012308D01*
X001179Y012229D02*
X001101Y012229D01*
X001101Y012151D02*
X001179Y012151D01*
X001179Y012622D02*
X001101Y012622D01*
X001101Y012700D02*
X001179Y012700D01*
X001179Y012779D02*
X001101Y012779D01*
X001101Y012857D02*
X001179Y012857D01*
X000770Y012857D02*
X000580Y012857D01*
X000580Y012779D02*
X000743Y012779D01*
X000743Y012700D02*
X000580Y012700D01*
X000580Y012622D02*
X000743Y012622D01*
X000580Y011994D02*
X001666Y011994D01*
X000836Y011287D02*
X000580Y011287D01*
X000580Y011209D02*
X000783Y011209D01*
X000753Y011130D02*
X000580Y011130D01*
X000580Y011052D02*
X000740Y011052D01*
X000740Y010973D02*
X000580Y010973D01*
X000580Y010895D02*
X000740Y010895D01*
X000829Y009403D02*
X000580Y009403D01*
X000580Y009325D02*
X000752Y009325D01*
X000743Y009246D02*
X000580Y009246D01*
X000580Y009168D02*
X000743Y009168D01*
X001101Y009168D02*
X001179Y009168D01*
X001179Y009246D02*
X001101Y009246D01*
X001101Y009325D02*
X001179Y009325D01*
X001179Y009403D02*
X001101Y009403D01*
X001101Y009089D02*
X001179Y009089D01*
X000756Y007833D02*
X000580Y007833D01*
X000580Y007755D02*
X000743Y007755D01*
X000743Y007676D02*
X000580Y007676D01*
X000580Y007598D02*
X000743Y007598D01*
X000743Y007441D02*
X000580Y007441D01*
X000580Y007519D02*
X001101Y007519D01*
X001101Y007441D02*
X001179Y007441D01*
X001179Y007362D02*
X001101Y007362D01*
X001101Y007284D02*
X001179Y007284D01*
X001179Y007205D02*
X001101Y007205D01*
X001101Y007127D02*
X001179Y007127D01*
X000830Y007127D02*
X000580Y007127D01*
X000580Y007205D02*
X000752Y007205D01*
X000743Y007284D02*
X000580Y007284D01*
X000580Y007362D02*
X000743Y007362D01*
X000580Y006891D02*
X004157Y006891D01*
X004110Y006813D02*
X000580Y006813D01*
X000580Y006734D02*
X004077Y006734D01*
X004045Y006656D02*
X000580Y006656D01*
X000580Y006420D02*
X001076Y006420D01*
X000894Y006342D02*
X000580Y006342D01*
X000580Y006263D02*
X000818Y006263D01*
X000773Y006185D02*
X000580Y006185D01*
X000580Y006106D02*
X000748Y006106D01*
X000740Y006028D02*
X000580Y006028D01*
X000580Y005949D02*
X000740Y005949D01*
X000740Y005871D02*
X000580Y005871D01*
X000580Y005007D02*
X001789Y005007D01*
X001964Y004929D02*
X000580Y004929D01*
X000580Y004850D02*
X001960Y004850D01*
X001788Y004772D02*
X000580Y004772D01*
X000580Y003908D02*
X000740Y003908D01*
X000740Y003830D02*
X000580Y003830D01*
X000580Y003751D02*
X000740Y003751D01*
X000749Y003673D02*
X000580Y003673D01*
X000580Y003594D02*
X000774Y003594D01*
X000819Y003516D02*
X000580Y003516D01*
X000580Y003437D02*
X000896Y003437D01*
X001100Y003437D02*
X001180Y003437D01*
X001180Y003516D02*
X001100Y003516D01*
X001100Y003594D02*
X001180Y003594D01*
X001180Y003673D02*
X001100Y003673D01*
X001100Y003751D02*
X001180Y003751D01*
X001180Y003830D02*
X001100Y003830D01*
X001100Y003908D02*
X001180Y003908D01*
X002372Y003202D02*
X002908Y003202D01*
X002766Y003280D02*
X002514Y003280D01*
X002592Y003359D02*
X002688Y003359D01*
X003372Y003202D02*
X003730Y003202D01*
X003651Y003280D02*
X003514Y003280D01*
X004393Y003045D02*
X004887Y003045D01*
X004808Y003123D02*
X004472Y003123D01*
X004550Y003202D02*
X004730Y003202D01*
X004651Y003280D02*
X004629Y003280D01*
X005393Y003045D02*
X005540Y003045D01*
X005540Y003123D02*
X005472Y003123D01*
X006390Y002417D02*
X009043Y002417D01*
X009043Y002495D02*
X006469Y002495D01*
X006547Y002574D02*
X009069Y002574D01*
X009102Y002652D02*
X007343Y002652D01*
X007306Y002615D02*
X007540Y002849D01*
X007540Y002975D01*
X007180Y002975D01*
X007180Y003055D01*
X007540Y003055D01*
X007540Y003181D01*
X007306Y003415D01*
X007180Y003415D01*
X007180Y003055D01*
X007100Y003055D01*
X007100Y003415D01*
X006974Y003415D01*
X006740Y003181D01*
X006740Y003055D01*
X007100Y003055D01*
X007100Y002975D01*
X007180Y002975D01*
X007180Y002615D01*
X007306Y002615D01*
X007180Y002652D02*
X007100Y002652D01*
X007100Y002615D02*
X007100Y002975D01*
X006740Y002975D01*
X006740Y002849D01*
X006974Y002615D01*
X007100Y002615D01*
X007100Y002731D02*
X007180Y002731D01*
X007180Y002809D02*
X007100Y002809D01*
X007100Y002888D02*
X007180Y002888D01*
X007180Y002966D02*
X007100Y002966D01*
X007100Y003045D02*
X006740Y003045D01*
X006740Y003123D02*
X006740Y003123D01*
X006740Y003202D02*
X006761Y003202D01*
X006724Y003280D02*
X006839Y003280D01*
X006918Y003359D02*
X006645Y003359D01*
X006600Y003437D02*
X009480Y003437D01*
X009558Y003516D02*
X006600Y003516D01*
X006600Y003594D02*
X009637Y003594D01*
X009715Y003673D02*
X006600Y003673D01*
X006600Y003751D02*
X009794Y003751D01*
X009895Y003830D02*
X006605Y003830D01*
X006684Y003908D02*
X011076Y003908D01*
X011140Y003987D02*
X010960Y003987D01*
X011039Y004065D02*
X011140Y004065D01*
X011140Y004144D02*
X011117Y004144D01*
X010320Y003987D02*
X006762Y003987D01*
X006841Y004065D02*
X010241Y004065D01*
X010163Y004144D02*
X006919Y004144D01*
X006998Y004222D02*
X010084Y004222D01*
X010040Y004301D02*
X007076Y004301D01*
X007155Y004379D02*
X010040Y004379D01*
X010040Y004458D02*
X007233Y004458D01*
X007312Y004536D02*
X010040Y004536D01*
X010040Y004615D02*
X007390Y004615D01*
X007469Y004693D02*
X010040Y004693D01*
X010048Y004772D02*
X007547Y004772D01*
X007626Y004850D02*
X010126Y004850D01*
X010205Y004929D02*
X007704Y004929D01*
X007783Y005007D02*
X010283Y005007D01*
X010221Y005086D02*
X007861Y005086D01*
X007940Y005164D02*
X010142Y005164D01*
X010064Y005243D02*
X008018Y005243D01*
X008058Y005321D02*
X010040Y005321D01*
X010040Y005400D02*
X008090Y005400D01*
X008100Y005478D02*
X008344Y005478D01*
X008240Y005557D02*
X008100Y005557D01*
X008119Y005635D02*
X008161Y005635D01*
X008936Y005478D02*
X009344Y005478D01*
X009240Y005557D02*
X009040Y005557D01*
X009119Y005635D02*
X009161Y005635D01*
X009936Y005478D02*
X010040Y005478D01*
X011204Y005799D02*
X011240Y005886D01*
X011240Y006644D01*
X011149Y006865D01*
X011084Y006930D01*
X012446Y006930D01*
X012381Y006865D01*
X012290Y006644D01*
X012290Y005886D01*
X012326Y005799D01*
X012290Y005764D01*
X012290Y005266D01*
X012541Y005015D01*
X012290Y004764D01*
X012290Y004266D01*
X012641Y003915D01*
X013139Y003915D01*
X013490Y004266D01*
X013490Y004764D01*
X013284Y004970D01*
X015419Y004970D01*
X015249Y004800D01*
X015078Y004970D01*
X014930Y004970D01*
X014930Y004555D01*
X014850Y004555D01*
X014850Y004970D01*
X014702Y004970D01*
X014435Y004703D01*
X014435Y004555D01*
X014850Y004555D01*
X014850Y004475D01*
X014930Y004475D01*
X014930Y004060D01*
X015078Y004060D01*
X015249Y004230D01*
X015540Y003939D01*
X015540Y003516D01*
X015891Y003165D01*
X016389Y003165D01*
X016703Y003479D01*
X016791Y003390D01*
X016540Y003139D01*
X016540Y002641D01*
X016891Y002290D01*
X017389Y002290D01*
X017740Y002641D01*
X017740Y003139D01*
X017489Y003390D01*
X017740Y003641D01*
X017740Y004139D01*
X017560Y004319D01*
X017560Y004474D01*
X017510Y004593D01*
X017619Y004485D01*
X018161Y004485D01*
X018390Y004714D01*
X018619Y004485D01*
X018761Y004485D01*
X018540Y004264D01*
X018540Y003766D01*
X018791Y003515D01*
X018540Y003264D01*
X018540Y002766D01*
X018891Y002415D01*
X019385Y002415D01*
X019385Y001948D01*
X019259Y002000D01*
X019021Y002000D01*
X018800Y001909D01*
X018640Y001749D01*
X018480Y001909D01*
X018259Y002000D01*
X018021Y002000D01*
X017800Y001909D01*
X017640Y001749D01*
X017480Y001909D01*
X017259Y002000D01*
X017021Y002000D01*
X016800Y001909D01*
X016631Y001740D01*
X016540Y001519D01*
X016540Y001214D01*
X016389Y001365D01*
X015891Y001365D01*
X015791Y001265D01*
X015472Y001265D01*
X014923Y001814D01*
X014739Y001890D01*
X014140Y001890D01*
X014140Y002045D01*
X014147Y002052D01*
X014237Y002271D01*
X014237Y002509D01*
X014147Y002728D01*
X013978Y002897D01*
X013759Y002987D01*
X013521Y002987D01*
X013293Y002888D02*
X010345Y002888D01*
X010266Y002809D02*
X013214Y002809D01*
X013136Y002731D02*
X012846Y002731D01*
X012828Y002742D02*
X012756Y002772D01*
X012679Y002787D01*
X012679Y002787D01*
X012679Y002429D01*
X012601Y002429D01*
X012601Y002787D01*
X012524Y002772D01*
X012452Y002742D01*
X012387Y002699D01*
X012331Y002643D01*
X012288Y002578D01*
X012258Y002506D01*
X012243Y002429D01*
X012243Y002429D01*
X012601Y002429D01*
X012601Y002351D01*
X012243Y002351D01*
X012258Y002274D01*
X012288Y002202D01*
X012331Y002137D01*
X012387Y002081D01*
X012452Y002038D01*
X012524Y002008D01*
X012601Y001993D01*
X012601Y001993D01*
X012601Y002351D01*
X012679Y002351D01*
X012679Y002429D01*
X013037Y002429D01*
X013022Y002506D01*
X012992Y002578D01*
X012949Y002643D01*
X012893Y002699D01*
X012828Y002742D01*
X012940Y002652D02*
X013102Y002652D01*
X013069Y002574D02*
X012994Y002574D01*
X013024Y002495D02*
X013043Y002495D01*
X013037Y002429D02*
X013037Y002429D01*
X013043Y002417D02*
X012679Y002417D01*
X012679Y002351D02*
X013037Y002351D01*
X013037Y002351D01*
X013022Y002274D01*
X012992Y002202D01*
X012949Y002137D01*
X012893Y002081D01*
X012828Y002038D01*
X012756Y002008D01*
X012679Y001993D01*
X012679Y001993D01*
X012679Y002351D01*
X012679Y002338D02*
X012601Y002338D01*
X012601Y002260D02*
X012679Y002260D01*
X012679Y002181D02*
X012601Y002181D01*
X012601Y002103D02*
X012679Y002103D01*
X012679Y002024D02*
X012601Y002024D01*
X012485Y002024D02*
X011795Y002024D01*
X011828Y002038D02*
X011756Y002008D01*
X011679Y001993D01*
X011679Y001993D01*
X011679Y002351D01*
X011679Y002429D01*
X011601Y002429D01*
X011601Y002787D01*
X011524Y002772D01*
X011452Y002742D01*
X011387Y002699D01*
X011331Y002643D01*
X011288Y002578D01*
X011258Y002506D01*
X011243Y002429D01*
X011243Y002429D01*
X011601Y002429D01*
X011601Y002351D01*
X011243Y002351D01*
X011258Y002274D01*
X011288Y002202D01*
X011331Y002137D01*
X011387Y002081D01*
X011452Y002038D01*
X011524Y002008D01*
X011601Y001993D01*
X011601Y001993D01*
X011601Y002351D01*
X011679Y002351D01*
X012037Y002351D01*
X012037Y002351D01*
X012022Y002274D01*
X011992Y002202D01*
X011949Y002137D01*
X011893Y002081D01*
X011828Y002038D01*
X011915Y002103D02*
X012365Y002103D01*
X012302Y002181D02*
X011978Y002181D01*
X012016Y002260D02*
X012264Y002260D01*
X012245Y002338D02*
X012035Y002338D01*
X012037Y002429D02*
X012037Y002429D01*
X012022Y002506D01*
X011992Y002578D01*
X011949Y002643D01*
X011893Y002699D01*
X011828Y002742D01*
X011756Y002772D01*
X011679Y002787D01*
X011679Y002787D01*
X011679Y002429D01*
X012037Y002429D01*
X012024Y002495D02*
X012256Y002495D01*
X012286Y002574D02*
X011994Y002574D01*
X011940Y002652D02*
X012340Y002652D01*
X012434Y002731D02*
X011846Y002731D01*
X011679Y002731D02*
X011601Y002731D01*
X011601Y002787D02*
X011601Y002787D01*
X011601Y002652D02*
X011679Y002652D01*
X011679Y002574D02*
X011601Y002574D01*
X011601Y002495D02*
X011679Y002495D01*
X011679Y002417D02*
X012601Y002417D01*
X012601Y002495D02*
X012679Y002495D01*
X012679Y002574D02*
X012601Y002574D01*
X012601Y002652D02*
X012679Y002652D01*
X012679Y002731D02*
X012601Y002731D01*
X012601Y002787D02*
X012601Y002787D01*
X012243Y002351D02*
X012243Y002351D01*
X012795Y002024D02*
X013140Y002024D01*
X013140Y001946D02*
X010140Y001946D01*
X010140Y002024D02*
X010485Y002024D01*
X010452Y002038D02*
X010524Y002008D01*
X010601Y001993D01*
X010601Y001993D01*
X010601Y002351D01*
X010243Y002351D01*
X010258Y002274D01*
X010288Y002202D01*
X010331Y002137D01*
X010387Y002081D01*
X010452Y002038D01*
X010365Y002103D02*
X010168Y002103D01*
X010200Y002181D02*
X010302Y002181D01*
X010264Y002260D02*
X010233Y002260D01*
X010237Y002338D02*
X010245Y002338D01*
X010243Y002351D02*
X010243Y002351D01*
X010237Y002417D02*
X010601Y002417D01*
X010601Y002429D02*
X010601Y002351D01*
X010679Y002351D01*
X010679Y002429D01*
X010601Y002429D01*
X010601Y002787D01*
X010524Y002772D01*
X010452Y002742D01*
X010387Y002699D01*
X010331Y002643D01*
X010288Y002578D01*
X010258Y002506D01*
X010243Y002429D01*
X010243Y002429D01*
X010601Y002429D01*
X010601Y002495D02*
X010679Y002495D01*
X010679Y002429D02*
X010679Y002787D01*
X010679Y002787D01*
X010756Y002772D01*
X010828Y002742D01*
X010893Y002699D01*
X010949Y002643D01*
X010992Y002578D01*
X011022Y002506D01*
X011037Y002429D01*
X011037Y002429D01*
X010679Y002429D01*
X010679Y002417D02*
X011601Y002417D01*
X011601Y002338D02*
X011679Y002338D01*
X011679Y002260D02*
X011601Y002260D01*
X011601Y002181D02*
X011679Y002181D01*
X011679Y002103D02*
X011601Y002103D01*
X011601Y002024D02*
X011679Y002024D01*
X011485Y002024D02*
X010795Y002024D01*
X010828Y002038D02*
X010756Y002008D01*
X010679Y001993D01*
X010679Y001993D01*
X010679Y002351D01*
X011037Y002351D01*
X011037Y002351D01*
X011022Y002274D01*
X010992Y002202D01*
X010949Y002137D01*
X010893Y002081D01*
X010828Y002038D01*
X010915Y002103D02*
X011365Y002103D01*
X011302Y002181D02*
X010978Y002181D01*
X011016Y002260D02*
X011264Y002260D01*
X011245Y002338D02*
X011035Y002338D01*
X011024Y002495D02*
X011256Y002495D01*
X011286Y002574D02*
X010994Y002574D01*
X010940Y002652D02*
X011340Y002652D01*
X011434Y002731D02*
X010846Y002731D01*
X010679Y002731D02*
X010601Y002731D01*
X010601Y002787D02*
X010601Y002787D01*
X010601Y002652D02*
X010679Y002652D01*
X010679Y002574D02*
X010601Y002574D01*
X010434Y002731D02*
X010188Y002731D01*
X010178Y002652D02*
X010340Y002652D01*
X010286Y002574D02*
X010211Y002574D01*
X010237Y002495D02*
X010256Y002495D01*
X010601Y002338D02*
X010679Y002338D01*
X010679Y002260D02*
X010601Y002260D01*
X010601Y002181D02*
X010679Y002181D01*
X010679Y002103D02*
X010601Y002103D01*
X010601Y002024D02*
X010679Y002024D01*
X010679Y001787D02*
X010679Y001429D01*
X010601Y001429D01*
X010601Y001787D01*
X010524Y001772D01*
X010452Y001742D01*
X010387Y001699D01*
X010331Y001643D01*
X010288Y001578D01*
X010258Y001506D01*
X010243Y001429D01*
X010243Y001429D01*
X010601Y001429D01*
X010601Y001351D01*
X010243Y001351D01*
X010258Y001274D01*
X010288Y001202D01*
X010331Y001137D01*
X010387Y001081D01*
X010452Y001038D01*
X010524Y001008D01*
X010601Y000993D01*
X010601Y000993D01*
X010601Y001351D01*
X010679Y001351D01*
X010679Y001429D01*
X011037Y001429D01*
X011022Y001506D01*
X010992Y001578D01*
X010949Y001643D01*
X010893Y001699D01*
X010828Y001742D01*
X010756Y001772D01*
X010679Y001787D01*
X010679Y001787D01*
X010679Y001710D02*
X010601Y001710D01*
X010601Y001787D02*
X010601Y001787D01*
X010601Y001632D02*
X010679Y001632D01*
X010679Y001553D02*
X010601Y001553D01*
X010601Y001475D02*
X010679Y001475D01*
X010679Y001396D02*
X011601Y001396D01*
X011601Y001429D02*
X011601Y001351D01*
X011243Y001351D01*
X011258Y001274D01*
X011288Y001202D01*
X011331Y001137D01*
X011387Y001081D01*
X011452Y001038D01*
X011524Y001008D01*
X011601Y000993D01*
X011601Y000993D01*
X011601Y001351D01*
X011679Y001351D01*
X011679Y001429D01*
X011601Y001429D01*
X011601Y001787D01*
X011524Y001772D01*
X011452Y001742D01*
X011387Y001699D01*
X011331Y001643D01*
X011288Y001578D01*
X011258Y001506D01*
X011243Y001429D01*
X011243Y001429D01*
X011601Y001429D01*
X011601Y001475D02*
X011679Y001475D01*
X011679Y001429D02*
X011679Y001787D01*
X011679Y001787D01*
X011756Y001772D01*
X011828Y001742D01*
X011893Y001699D01*
X011949Y001643D01*
X011992Y001578D01*
X012022Y001506D01*
X012037Y001429D01*
X012037Y001429D01*
X011679Y001429D01*
X011679Y001396D02*
X012601Y001396D01*
X012601Y001429D02*
X012601Y001351D01*
X012243Y001351D01*
X012258Y001274D01*
X012288Y001202D01*
X012331Y001137D01*
X012387Y001081D01*
X012452Y001038D01*
X012524Y001008D01*
X012601Y000993D01*
X012601Y000993D01*
X012601Y001351D01*
X012679Y001351D01*
X012679Y001429D01*
X012601Y001429D01*
X012601Y001787D01*
X012524Y001772D01*
X012452Y001742D01*
X012387Y001699D01*
X012331Y001643D01*
X012288Y001578D01*
X012258Y001506D01*
X012243Y001429D01*
X012243Y001429D01*
X012601Y001429D01*
X012601Y001475D02*
X012679Y001475D01*
X012679Y001429D02*
X012679Y001787D01*
X012679Y001787D01*
X012756Y001772D01*
X012828Y001742D01*
X012893Y001699D01*
X012949Y001643D01*
X012992Y001578D01*
X013022Y001506D01*
X013037Y001429D01*
X013037Y001429D01*
X012679Y001429D01*
X012679Y001396D02*
X013043Y001396D01*
X013037Y001351D02*
X012679Y001351D01*
X012679Y000993D01*
X012756Y001008D01*
X012828Y001038D01*
X012893Y001081D01*
X012949Y001137D01*
X012992Y001202D01*
X013022Y001274D01*
X013037Y001351D01*
X013037Y001351D01*
X013031Y001318D02*
X013043Y001318D01*
X013056Y001239D02*
X013008Y001239D01*
X012965Y001161D02*
X013088Y001161D01*
X013121Y001082D02*
X012894Y001082D01*
X012734Y001004D02*
X013182Y001004D01*
X013260Y000925D02*
X010020Y000925D01*
X010098Y001004D02*
X010546Y001004D01*
X010601Y001004D02*
X010679Y001004D01*
X010679Y000993D02*
X010756Y001008D01*
X010828Y001038D01*
X010893Y001081D01*
X010949Y001137D01*
X010992Y001202D01*
X011022Y001274D01*
X011037Y001351D01*
X011037Y001351D01*
X010679Y001351D01*
X010679Y000993D01*
X010679Y000993D01*
X010734Y001004D02*
X011546Y001004D01*
X011601Y001004D02*
X011679Y001004D01*
X011679Y000993D02*
X011756Y001008D01*
X011828Y001038D01*
X011893Y001081D01*
X011949Y001137D01*
X011992Y001202D01*
X012022Y001274D01*
X012037Y001351D01*
X012037Y001351D01*
X011679Y001351D01*
X011679Y000993D01*
X011679Y000993D01*
X011734Y001004D02*
X012546Y001004D01*
X012601Y001004D02*
X012679Y001004D01*
X012679Y000993D02*
X012679Y000993D01*
X012679Y001082D02*
X012601Y001082D01*
X012601Y001161D02*
X012679Y001161D01*
X012679Y001239D02*
X012601Y001239D01*
X012601Y001318D02*
X012679Y001318D01*
X012679Y001553D02*
X012601Y001553D01*
X012601Y001632D02*
X012679Y001632D01*
X012679Y001710D02*
X012601Y001710D01*
X012601Y001787D02*
X012601Y001787D01*
X012403Y001710D02*
X011877Y001710D01*
X011957Y001632D02*
X012323Y001632D01*
X012277Y001553D02*
X012003Y001553D01*
X012028Y001475D02*
X012252Y001475D01*
X012243Y001351D02*
X012243Y001351D01*
X012249Y001318D02*
X012031Y001318D01*
X012008Y001239D02*
X012272Y001239D01*
X012315Y001161D02*
X011965Y001161D01*
X011894Y001082D02*
X012386Y001082D01*
X011679Y001082D02*
X011601Y001082D01*
X011601Y001161D02*
X011679Y001161D01*
X011679Y001239D02*
X011601Y001239D01*
X011601Y001318D02*
X011679Y001318D01*
X011679Y001553D02*
X011601Y001553D01*
X011601Y001632D02*
X011679Y001632D01*
X011679Y001710D02*
X011601Y001710D01*
X011601Y001787D02*
X011601Y001787D01*
X011403Y001710D02*
X010877Y001710D01*
X010957Y001632D02*
X011323Y001632D01*
X011277Y001553D02*
X011003Y001553D01*
X011028Y001475D02*
X011252Y001475D01*
X011243Y001351D02*
X011243Y001351D01*
X011249Y001318D02*
X011031Y001318D01*
X011008Y001239D02*
X011272Y001239D01*
X011315Y001161D02*
X010965Y001161D01*
X010894Y001082D02*
X011386Y001082D01*
X011037Y001429D02*
X011037Y001429D01*
X010679Y001318D02*
X010601Y001318D01*
X010601Y001396D02*
X010237Y001396D01*
X010243Y001351D02*
X010243Y001351D01*
X010237Y001318D02*
X010249Y001318D01*
X010224Y001239D02*
X010272Y001239D01*
X010315Y001161D02*
X010192Y001161D01*
X010159Y001082D02*
X010386Y001082D01*
X010601Y001082D02*
X010679Y001082D01*
X010679Y001161D02*
X010601Y001161D01*
X010601Y001239D02*
X010679Y001239D01*
X010252Y001475D02*
X010237Y001475D01*
X010219Y001553D02*
X010277Y001553D01*
X010323Y001632D02*
X010187Y001632D01*
X010154Y001710D02*
X010403Y001710D01*
X010140Y001789D02*
X013140Y001789D01*
X013140Y001867D02*
X010140Y001867D01*
X009889Y000847D02*
X013391Y000847D01*
X013043Y001475D02*
X013028Y001475D01*
X013003Y001553D02*
X013061Y001553D01*
X013093Y001632D02*
X012957Y001632D01*
X012877Y001710D02*
X013126Y001710D01*
X013112Y002103D02*
X012915Y002103D01*
X012978Y002181D02*
X013080Y002181D01*
X013047Y002260D02*
X013016Y002260D01*
X013035Y002338D02*
X013043Y002338D01*
X013811Y002966D02*
X016540Y002966D01*
X016540Y002888D02*
X013987Y002888D01*
X014066Y002809D02*
X016540Y002809D01*
X016540Y002731D02*
X014144Y002731D01*
X014178Y002652D02*
X016540Y002652D01*
X016608Y002574D02*
X014211Y002574D01*
X014237Y002495D02*
X016686Y002495D01*
X016765Y002417D02*
X014237Y002417D01*
X014237Y002338D02*
X016843Y002338D01*
X016889Y001946D02*
X014140Y001946D01*
X014140Y002024D02*
X019385Y002024D01*
X019385Y002103D02*
X014168Y002103D01*
X014200Y002181D02*
X019385Y002181D01*
X019385Y002260D02*
X014233Y002260D01*
X014795Y001867D02*
X016758Y001867D01*
X016680Y001789D02*
X014949Y001789D01*
X015027Y001710D02*
X016619Y001710D01*
X016586Y001632D02*
X015106Y001632D01*
X015184Y001553D02*
X016554Y001553D01*
X016540Y001475D02*
X015263Y001475D01*
X015341Y001396D02*
X016540Y001396D01*
X016540Y001318D02*
X016436Y001318D01*
X016515Y001239D02*
X016540Y001239D01*
X015844Y001318D02*
X015420Y001318D01*
X015855Y003202D02*
X011784Y003202D01*
X011862Y003280D02*
X015776Y003280D01*
X015698Y003359D02*
X011941Y003359D01*
X011923Y003341D02*
X012064Y003482D01*
X012140Y003666D01*
X012140Y004791D01*
X012240Y004891D01*
X012240Y005389D01*
X011889Y005740D01*
X011391Y005740D01*
X011240Y005589D01*
X011240Y005764D01*
X011204Y005799D01*
X011212Y005792D02*
X012318Y005792D01*
X012296Y005871D02*
X011234Y005871D01*
X011240Y005949D02*
X012290Y005949D01*
X012290Y006028D02*
X011240Y006028D01*
X011240Y006106D02*
X012290Y006106D01*
X012290Y006185D02*
X011240Y006185D01*
X011240Y006263D02*
X012290Y006263D01*
X012290Y006342D02*
X011240Y006342D01*
X011240Y006420D02*
X012290Y006420D01*
X012290Y006499D02*
X011240Y006499D01*
X011240Y006577D02*
X012290Y006577D01*
X012295Y006656D02*
X011235Y006656D01*
X011203Y006734D02*
X012327Y006734D01*
X012360Y006813D02*
X011170Y006813D01*
X011123Y006891D02*
X012407Y006891D01*
X012290Y005714D02*
X011915Y005714D01*
X011994Y005635D02*
X012290Y005635D01*
X012290Y005557D02*
X012072Y005557D01*
X012151Y005478D02*
X012290Y005478D01*
X012290Y005400D02*
X012229Y005400D01*
X012240Y005321D02*
X012290Y005321D01*
X012314Y005243D02*
X012240Y005243D01*
X012240Y005164D02*
X012392Y005164D01*
X012471Y005086D02*
X012240Y005086D01*
X012240Y005007D02*
X012533Y005007D01*
X012455Y004929D02*
X012240Y004929D01*
X012199Y004850D02*
X012376Y004850D01*
X012298Y004772D02*
X012140Y004772D01*
X012140Y004693D02*
X012290Y004693D01*
X012290Y004615D02*
X012140Y004615D01*
X012140Y004536D02*
X012290Y004536D01*
X012290Y004458D02*
X012140Y004458D01*
X012140Y004379D02*
X012290Y004379D01*
X012290Y004301D02*
X012140Y004301D01*
X012140Y004222D02*
X012334Y004222D01*
X012413Y004144D02*
X012140Y004144D01*
X012140Y004065D02*
X012491Y004065D01*
X012570Y003987D02*
X012140Y003987D01*
X012140Y003908D02*
X015540Y003908D01*
X015540Y003830D02*
X012140Y003830D01*
X012140Y003751D02*
X015540Y003751D01*
X015540Y003673D02*
X012140Y003673D01*
X012110Y003594D02*
X015540Y003594D01*
X015541Y003516D02*
X012078Y003516D01*
X012019Y003437D02*
X015619Y003437D01*
X015492Y003987D02*
X013210Y003987D01*
X013289Y004065D02*
X014697Y004065D01*
X014702Y004060D02*
X014850Y004060D01*
X014850Y004475D01*
X014435Y004475D01*
X014435Y004327D01*
X014702Y004060D01*
X014618Y004144D02*
X013367Y004144D01*
X013446Y004222D02*
X014540Y004222D01*
X014461Y004301D02*
X013490Y004301D01*
X013490Y004379D02*
X014435Y004379D01*
X014435Y004458D02*
X013490Y004458D01*
X013490Y004536D02*
X014850Y004536D01*
X014850Y004458D02*
X014930Y004458D01*
X014930Y004379D02*
X014850Y004379D01*
X014850Y004301D02*
X014930Y004301D01*
X014930Y004222D02*
X014850Y004222D01*
X014850Y004144D02*
X014930Y004144D01*
X014930Y004065D02*
X014850Y004065D01*
X015083Y004065D02*
X015414Y004065D01*
X015335Y004144D02*
X015162Y004144D01*
X015240Y004222D02*
X015257Y004222D01*
X014930Y004615D02*
X014850Y004615D01*
X014850Y004693D02*
X014930Y004693D01*
X014930Y004772D02*
X014850Y004772D01*
X014850Y004850D02*
X014930Y004850D01*
X014930Y004929D02*
X014850Y004929D01*
X014660Y004929D02*
X013325Y004929D01*
X013404Y004850D02*
X014582Y004850D01*
X014503Y004772D02*
X013482Y004772D01*
X013490Y004693D02*
X014435Y004693D01*
X014435Y004615D02*
X013490Y004615D01*
X014459Y005810D02*
X014490Y005886D01*
X014490Y006644D01*
X014399Y006865D01*
X014334Y006930D01*
X015199Y006930D01*
X015347Y006782D01*
X015290Y006644D01*
X015290Y005886D01*
X015321Y005810D01*
X015241Y005810D01*
X015244Y005816D01*
X015275Y005888D01*
X015290Y005966D01*
X015290Y006225D01*
X014930Y006225D01*
X014930Y006305D01*
X015290Y006305D01*
X015290Y006564D01*
X015275Y006642D01*
X015244Y006714D01*
X015201Y006780D01*
X015145Y006836D01*
X015079Y006879D01*
X015007Y006910D01*
X014930Y006925D01*
X014930Y006305D01*
X014850Y006305D01*
X014850Y006925D01*
X014773Y006910D01*
X014701Y006879D01*
X014635Y006836D01*
X014579Y006780D01*
X014536Y006714D01*
X014505Y006642D01*
X014490Y006564D01*
X014490Y006305D01*
X014850Y006305D01*
X014850Y006225D01*
X014490Y006225D01*
X014490Y005966D01*
X014505Y005888D01*
X014536Y005816D01*
X014539Y005810D01*
X014459Y005810D01*
X014484Y005871D02*
X014513Y005871D01*
X014493Y005949D02*
X014490Y005949D01*
X014490Y006028D02*
X014490Y006028D01*
X014490Y006106D02*
X014490Y006106D01*
X014490Y006185D02*
X014490Y006185D01*
X014490Y006263D02*
X014850Y006263D01*
X014850Y006342D02*
X014930Y006342D01*
X014930Y006420D02*
X014850Y006420D01*
X014850Y006499D02*
X014930Y006499D01*
X014930Y006577D02*
X014850Y006577D01*
X014850Y006656D02*
X014930Y006656D01*
X014930Y006734D02*
X014850Y006734D01*
X014850Y006813D02*
X014930Y006813D01*
X014930Y006891D02*
X014850Y006891D01*
X014728Y006891D02*
X014373Y006891D01*
X014420Y006813D02*
X014612Y006813D01*
X014549Y006734D02*
X014453Y006734D01*
X014485Y006656D02*
X014511Y006656D01*
X014490Y006577D02*
X014493Y006577D01*
X014490Y006499D02*
X014490Y006499D01*
X014490Y006420D02*
X014490Y006420D01*
X014490Y006342D02*
X014490Y006342D01*
X014930Y006263D02*
X015290Y006263D01*
X015290Y006185D02*
X015290Y006185D01*
X015290Y006106D02*
X015290Y006106D01*
X015290Y006028D02*
X015290Y006028D01*
X015287Y005949D02*
X015290Y005949D01*
X015296Y005871D02*
X015267Y005871D01*
X015290Y006342D02*
X015290Y006342D01*
X015290Y006420D02*
X015290Y006420D01*
X015290Y006499D02*
X015290Y006499D01*
X015287Y006577D02*
X015290Y006577D01*
X015295Y006656D02*
X015269Y006656D01*
X015231Y006734D02*
X015327Y006734D01*
X015317Y006813D02*
X015168Y006813D01*
X015238Y006891D02*
X015052Y006891D01*
X016350Y006914D02*
X016350Y006970D01*
X017486Y006970D01*
X017381Y006865D01*
X017290Y006644D01*
X017290Y005886D01*
X017381Y005665D01*
X017435Y005611D01*
X017235Y005411D01*
X017235Y004889D01*
X016496Y005628D01*
X016416Y005708D01*
X016490Y005886D01*
X016490Y006644D01*
X016399Y006865D01*
X016350Y006914D01*
X016373Y006891D02*
X016728Y006891D01*
X016701Y006879D02*
X016635Y006836D01*
X016579Y006780D01*
X016536Y006714D01*
X016505Y006642D01*
X016490Y006564D01*
X016490Y006305D01*
X016850Y006305D01*
X016850Y006925D01*
X016773Y006910D01*
X016701Y006879D01*
X016612Y006813D02*
X016420Y006813D01*
X016453Y006734D02*
X016549Y006734D01*
X016511Y006656D02*
X016485Y006656D01*
X016490Y006577D02*
X016493Y006577D01*
X016490Y006499D02*
X016490Y006499D01*
X016490Y006420D02*
X016490Y006420D01*
X016490Y006342D02*
X016490Y006342D01*
X016490Y006263D02*
X016850Y006263D01*
X016850Y006225D02*
X016490Y006225D01*
X016490Y005966D01*
X016505Y005888D01*
X016536Y005816D01*
X016579Y005750D01*
X016635Y005694D01*
X016701Y005651D01*
X016773Y005620D01*
X016850Y005605D01*
X016850Y006225D01*
X016930Y006225D01*
X016930Y006305D01*
X017290Y006305D01*
X017290Y006564D01*
X017275Y006642D01*
X017244Y006714D01*
X017201Y006780D01*
X017145Y006836D01*
X017079Y006879D01*
X017007Y006910D01*
X016930Y006925D01*
X016930Y006305D01*
X016850Y006305D01*
X016850Y006225D01*
X016850Y006185D02*
X016930Y006185D01*
X016930Y006225D02*
X016930Y005605D01*
X017007Y005620D01*
X017079Y005651D01*
X017145Y005694D01*
X017201Y005750D01*
X017244Y005816D01*
X017275Y005888D01*
X017290Y005966D01*
X017290Y006225D01*
X016930Y006225D01*
X016930Y006263D02*
X017290Y006263D01*
X017290Y006185D02*
X017290Y006185D01*
X017290Y006106D02*
X017290Y006106D01*
X017290Y006028D02*
X017290Y006028D01*
X017287Y005949D02*
X017290Y005949D01*
X017296Y005871D02*
X017267Y005871D01*
X017229Y005792D02*
X017329Y005792D01*
X017361Y005714D02*
X017164Y005714D01*
X017042Y005635D02*
X017411Y005635D01*
X017380Y005557D02*
X016567Y005557D01*
X016489Y005635D02*
X016738Y005635D01*
X016850Y005635D02*
X016930Y005635D01*
X016930Y005714D02*
X016850Y005714D01*
X016850Y005792D02*
X016930Y005792D01*
X016930Y005871D02*
X016850Y005871D01*
X016850Y005949D02*
X016930Y005949D01*
X016930Y006028D02*
X016850Y006028D01*
X016850Y006106D02*
X016930Y006106D01*
X016930Y006342D02*
X016850Y006342D01*
X016850Y006420D02*
X016930Y006420D01*
X016930Y006499D02*
X016850Y006499D01*
X016850Y006577D02*
X016930Y006577D01*
X016930Y006656D02*
X016850Y006656D01*
X016850Y006734D02*
X016930Y006734D01*
X016930Y006813D02*
X016850Y006813D01*
X016850Y006891D02*
X016930Y006891D01*
X017052Y006891D02*
X017407Y006891D01*
X017360Y006813D02*
X017168Y006813D01*
X017231Y006734D02*
X017327Y006734D01*
X017295Y006656D02*
X017269Y006656D01*
X017287Y006577D02*
X017290Y006577D01*
X017290Y006499D02*
X017290Y006499D01*
X017290Y006420D02*
X017290Y006420D01*
X017290Y006342D02*
X017290Y006342D01*
X017486Y006970D02*
X016350Y006970D01*
X016490Y006185D02*
X016490Y006185D01*
X016490Y006106D02*
X016490Y006106D01*
X016490Y006028D02*
X016490Y006028D01*
X016490Y005949D02*
X016493Y005949D01*
X016484Y005871D02*
X016513Y005871D01*
X016551Y005792D02*
X016451Y005792D01*
X016419Y005714D02*
X016616Y005714D01*
X016646Y005478D02*
X017302Y005478D01*
X017235Y005400D02*
X016724Y005400D01*
X016803Y005321D02*
X017235Y005321D01*
X017235Y005243D02*
X016881Y005243D01*
X016960Y005164D02*
X017235Y005164D01*
X017235Y005086D02*
X017038Y005086D01*
X017117Y005007D02*
X017235Y005007D01*
X017235Y004929D02*
X017195Y004929D01*
X017534Y004536D02*
X017568Y004536D01*
X017560Y004458D02*
X018734Y004458D01*
X018655Y004379D02*
X017560Y004379D01*
X017578Y004301D02*
X018577Y004301D01*
X018540Y004222D02*
X017657Y004222D01*
X017735Y004144D02*
X018540Y004144D01*
X018540Y004065D02*
X017740Y004065D01*
X017740Y003987D02*
X018540Y003987D01*
X018540Y003908D02*
X017740Y003908D01*
X017740Y003830D02*
X018540Y003830D01*
X018555Y003751D02*
X017740Y003751D01*
X017740Y003673D02*
X018634Y003673D01*
X018712Y003594D02*
X017693Y003594D01*
X017614Y003516D02*
X018791Y003516D01*
X018713Y003437D02*
X017536Y003437D01*
X017520Y003359D02*
X018635Y003359D01*
X018556Y003280D02*
X017599Y003280D01*
X017677Y003202D02*
X018540Y003202D01*
X018540Y003123D02*
X017740Y003123D01*
X017740Y003045D02*
X018540Y003045D01*
X018540Y002966D02*
X017740Y002966D01*
X017740Y002888D02*
X018540Y002888D01*
X018540Y002809D02*
X017740Y002809D01*
X017740Y002731D02*
X018576Y002731D01*
X018654Y002652D02*
X017740Y002652D01*
X017672Y002574D02*
X018733Y002574D01*
X018811Y002495D02*
X017594Y002495D01*
X017515Y002417D02*
X018890Y002417D01*
X019385Y002338D02*
X017437Y002338D01*
X017391Y001946D02*
X017889Y001946D01*
X017758Y001867D02*
X017522Y001867D01*
X017600Y001789D02*
X017680Y001789D01*
X018391Y001946D02*
X018889Y001946D01*
X018758Y001867D02*
X018522Y001867D01*
X018600Y001789D02*
X018680Y001789D01*
X016760Y003359D02*
X016582Y003359D01*
X016661Y003437D02*
X016744Y003437D01*
X016681Y003280D02*
X016504Y003280D01*
X016425Y003202D02*
X016603Y003202D01*
X016540Y003123D02*
X011705Y003123D01*
X011627Y003045D02*
X016540Y003045D01*
X018212Y004536D02*
X018568Y004536D01*
X018489Y004615D02*
X018291Y004615D01*
X018369Y004693D02*
X018411Y004693D01*
X015377Y004929D02*
X015120Y004929D01*
X015198Y004850D02*
X015299Y004850D01*
X011923Y003341D02*
X011548Y002966D01*
X011243Y002351D02*
X011243Y002351D01*
X009401Y003359D02*
X007362Y003359D01*
X007441Y003280D02*
X009323Y003280D01*
X009244Y003202D02*
X007519Y003202D01*
X007540Y003123D02*
X009195Y003123D01*
X009163Y003045D02*
X007180Y003045D01*
X007180Y003123D02*
X007100Y003123D01*
X007100Y003202D02*
X007180Y003202D01*
X007180Y003280D02*
X007100Y003280D01*
X007100Y003359D02*
X007180Y003359D01*
X007540Y002966D02*
X009140Y002966D01*
X009140Y002888D02*
X007540Y002888D01*
X007500Y002809D02*
X009140Y002809D01*
X009136Y002731D02*
X007421Y002731D01*
X006937Y002652D02*
X006626Y002652D01*
X006704Y002731D02*
X006859Y002731D01*
X006780Y002809D02*
X006740Y002809D01*
X006740Y002888D02*
X006740Y002888D01*
X006740Y002966D02*
X006740Y002966D01*
X006167Y004693D02*
X006115Y004693D01*
X006107Y004772D02*
X006246Y004772D01*
X006324Y004850D02*
X006029Y004850D01*
X005950Y004929D02*
X006403Y004929D01*
X006481Y005007D02*
X005872Y005007D01*
X005793Y005086D02*
X006560Y005086D01*
X006638Y005164D02*
X004085Y005164D01*
X004163Y005086D02*
X004237Y005086D01*
X004006Y005243D02*
X006717Y005243D01*
X006795Y005321D02*
X003713Y005321D01*
X003740Y005400D02*
X006874Y005400D01*
X006936Y005478D02*
X006952Y005478D01*
X006344Y005478D02*
X005936Y005478D01*
X006040Y005557D02*
X006240Y005557D01*
X006161Y005635D02*
X006119Y005635D01*
X005344Y005478D02*
X004936Y005478D01*
X005040Y005557D02*
X005240Y005557D01*
X005161Y005635D02*
X005119Y005635D01*
X005237Y005086D02*
X004793Y005086D01*
X004872Y005007D02*
X005158Y005007D01*
X005080Y004929D02*
X004950Y004929D01*
X004344Y005478D02*
X003740Y005478D01*
X003740Y005557D02*
X004240Y005557D01*
X004161Y005635D02*
X003740Y005635D01*
X003740Y005714D02*
X004111Y005714D01*
X004079Y005792D02*
X003740Y005792D01*
X003740Y005871D02*
X004046Y005871D01*
X004040Y005949D02*
X003740Y005949D01*
X003740Y006028D02*
X004040Y006028D01*
X004040Y006106D02*
X003740Y006106D01*
X003723Y006185D02*
X004040Y006185D01*
X004040Y006263D02*
X003691Y006263D01*
X003658Y006342D02*
X004040Y006342D01*
X004040Y006420D02*
X003594Y006420D01*
X003515Y006499D02*
X004040Y006499D01*
X004040Y006577D02*
X003375Y006577D01*
X003590Y006970D02*
X004236Y006970D01*
X004335Y007048D02*
X003669Y007048D01*
X003711Y007127D02*
X004480Y007127D01*
X004356Y007205D02*
X003737Y007205D01*
X003737Y007284D02*
X004278Y007284D01*
X004199Y007362D02*
X003737Y007362D01*
X003737Y007441D02*
X004121Y007441D01*
X004042Y007519D02*
X003737Y007519D01*
X003737Y007598D02*
X003964Y007598D01*
X003885Y007676D02*
X003737Y007676D01*
X003737Y007755D02*
X003807Y007755D01*
X003595Y008461D02*
X003570Y008461D01*
X002572Y008618D02*
X002418Y008618D01*
X002524Y008697D02*
X002543Y008697D01*
X002537Y008775D02*
X002543Y008775D01*
X002537Y008854D02*
X002543Y008854D01*
X002537Y008932D02*
X002543Y008932D01*
X002637Y013014D02*
X002643Y013014D01*
X002767Y013093D02*
X002513Y013093D01*
X000580Y013250D02*
X005470Y013250D01*
X005470Y013328D02*
X000580Y013328D01*
X000580Y013407D02*
X005470Y013407D01*
X005470Y013485D02*
X000580Y013485D01*
X000580Y013564D02*
X005470Y013564D01*
X005470Y013642D02*
X000580Y013642D01*
X000580Y013721D02*
X005470Y013721D01*
X005470Y013799D02*
X000580Y013799D01*
X000580Y013878D02*
X005470Y013878D01*
X005470Y013956D02*
X000580Y013956D01*
X000580Y014035D02*
X005470Y014035D01*
X005470Y014113D02*
X000580Y014113D01*
X000580Y014192D02*
X005470Y014192D01*
X005470Y014270D02*
X000580Y014270D01*
X000580Y014349D02*
X005470Y014349D01*
X005470Y014427D02*
X000580Y014427D01*
X000580Y014506D02*
X005470Y014506D01*
X005470Y014584D02*
X000580Y014584D01*
X000580Y014663D02*
X005470Y014663D01*
X005470Y014741D02*
X000580Y014741D01*
X000580Y014820D02*
X005470Y014820D01*
X005470Y014898D02*
X000580Y014898D01*
X000580Y014977D02*
X005470Y014977D01*
X005470Y015055D02*
X000580Y015055D01*
X000580Y015134D02*
X005470Y015134D01*
X005470Y015212D02*
X000580Y015212D01*
X000580Y015291D02*
X005470Y015291D01*
X005470Y015369D02*
X000580Y015369D01*
X000580Y015448D02*
X005470Y015448D01*
X005470Y015526D02*
X000580Y015526D01*
X000580Y015605D02*
X004452Y015605D01*
X004373Y015683D02*
X000580Y015683D01*
X000580Y015762D02*
X004295Y015762D01*
X004216Y015840D02*
X000580Y015840D01*
X000580Y015919D02*
X004165Y015919D01*
X004165Y015997D02*
X000580Y015997D01*
X000580Y016076D02*
X004165Y016076D01*
X004165Y016154D02*
X000580Y016154D01*
X000580Y016233D02*
X004165Y016233D01*
X004165Y016311D02*
X000580Y016311D01*
X000580Y016390D02*
X004166Y016390D01*
X004245Y016468D02*
X000580Y016468D01*
X000580Y016547D02*
X004323Y016547D01*
X004402Y016625D02*
X000580Y016625D01*
X000580Y016704D02*
X004353Y016704D01*
X004274Y016782D02*
X000580Y016782D01*
X000580Y016861D02*
X004196Y016861D01*
X004165Y016939D02*
X000580Y016939D01*
X000580Y017018D02*
X004165Y017018D01*
X004165Y017096D02*
X000580Y017096D01*
X000580Y017175D02*
X004165Y017175D01*
X004165Y017253D02*
X000580Y017253D01*
X000580Y017332D02*
X004165Y017332D01*
X004187Y017410D02*
X000580Y017410D01*
X000580Y017489D02*
X004265Y017489D01*
X004344Y017567D02*
X004041Y017567D01*
X004014Y017540D02*
X004365Y017891D01*
X004365Y018389D01*
X004014Y018740D01*
X003516Y018740D01*
X003165Y018389D01*
X003165Y017891D01*
X003516Y017540D01*
X004014Y017540D01*
X004119Y017646D02*
X004422Y017646D01*
X004501Y017724D02*
X004198Y017724D01*
X004276Y017803D02*
X004879Y017803D01*
X004800Y017881D02*
X004355Y017881D01*
X004365Y017960D02*
X004790Y017960D01*
X004790Y018038D02*
X004365Y018038D01*
X004365Y018117D02*
X004790Y018117D01*
X004790Y018195D02*
X004365Y018195D01*
X004365Y018274D02*
X004790Y018274D01*
X004790Y018352D02*
X004365Y018352D01*
X004323Y018431D02*
X004832Y018431D01*
X004911Y018509D02*
X004244Y018509D01*
X004166Y018588D02*
X004989Y018588D01*
X005068Y018666D02*
X004087Y018666D01*
X003935Y018745D02*
X005220Y018745D01*
X005224Y018740D02*
X005350Y018740D01*
X005350Y019100D01*
X004990Y019100D01*
X004990Y018974D01*
X005224Y018740D01*
X005141Y018823D02*
X004014Y018823D01*
X004092Y018902D02*
X005063Y018902D01*
X004990Y018980D02*
X004165Y018980D01*
X004165Y018974D02*
X004165Y019100D01*
X003805Y019100D01*
X003805Y018740D01*
X003931Y018740D01*
X004165Y018974D01*
X004165Y019059D02*
X004990Y019059D01*
X004990Y019216D02*
X004165Y019216D01*
X004165Y019294D02*
X004990Y019294D01*
X005057Y019373D02*
X004098Y019373D01*
X003805Y019137D02*
X005350Y019137D01*
X005350Y019059D02*
X005430Y019059D01*
X005430Y019137D02*
X005789Y019137D01*
X005790Y019216D02*
X005867Y019216D01*
X005790Y019294D02*
X006540Y019294D01*
X006540Y019216D02*
X006413Y019216D01*
X006491Y019137D02*
X006540Y019137D01*
X006540Y019373D02*
X005723Y019373D01*
X005430Y018980D02*
X005350Y018980D01*
X005350Y018902D02*
X005430Y018902D01*
X005430Y018823D02*
X005350Y018823D01*
X005350Y018745D02*
X005430Y018745D01*
X007188Y017175D02*
X010751Y017175D01*
X010720Y017099D02*
X010720Y016829D01*
X010640Y016749D01*
X010480Y016909D01*
X010259Y017000D01*
X010021Y017000D01*
X009800Y016909D01*
X009631Y016740D01*
X009540Y016519D01*
X009540Y015761D01*
X009626Y015553D01*
X009499Y015425D01*
X009371Y015553D01*
X009395Y015569D01*
X009451Y015625D01*
X009494Y015691D01*
X009525Y015763D01*
X009540Y015841D01*
X009540Y016100D01*
X009180Y016100D01*
X009180Y016180D01*
X009100Y016180D01*
X009100Y016800D01*
X009023Y016785D01*
X008951Y016754D01*
X008885Y016711D01*
X008829Y016655D01*
X008786Y016589D01*
X008755Y016517D01*
X008740Y016439D01*
X008740Y016180D01*
X009100Y016180D01*
X009100Y016100D01*
X009180Y016100D01*
X009180Y015180D01*
X009100Y015180D01*
X009100Y015480D01*
X009100Y016100D01*
X008740Y016100D01*
X008740Y015841D01*
X008755Y015763D01*
X008786Y015691D01*
X008829Y015625D01*
X008885Y015569D01*
X008909Y015553D01*
X008781Y015425D01*
X008654Y015553D01*
X008740Y015761D01*
X008740Y016519D01*
X008649Y016740D01*
X008480Y016909D01*
X008259Y017000D01*
X008021Y017000D01*
X007800Y016909D01*
X007640Y016749D01*
X007480Y016909D01*
X007259Y017000D01*
X007045Y017000D01*
X007389Y017420D01*
X007434Y017465D01*
X007439Y017470D01*
X007724Y017470D01*
X007878Y017534D01*
X007996Y017652D01*
X008140Y017796D01*
X008152Y017784D01*
X008306Y017720D01*
X011251Y017720D01*
X010784Y017253D01*
X007252Y017253D01*
X007317Y017332D02*
X010863Y017332D01*
X010941Y017410D02*
X007381Y017410D01*
X007434Y017465D02*
X007434Y017465D01*
X007768Y017489D02*
X011020Y017489D01*
X011098Y017567D02*
X007911Y017567D01*
X007990Y017646D02*
X011177Y017646D01*
X010784Y017253D02*
X010720Y017099D01*
X010720Y017096D02*
X007124Y017096D01*
X007060Y017018D02*
X010720Y017018D01*
X010720Y016939D02*
X010406Y016939D01*
X010528Y016861D02*
X010720Y016861D01*
X010674Y016782D02*
X010606Y016782D01*
X009874Y016939D02*
X008406Y016939D01*
X008528Y016861D02*
X009752Y016861D01*
X009674Y016782D02*
X009263Y016782D01*
X009257Y016785D02*
X009180Y016800D01*
X009180Y016180D01*
X009540Y016180D01*
X009540Y016439D01*
X009525Y016517D01*
X009494Y016589D01*
X009451Y016655D01*
X009395Y016711D01*
X009329Y016754D01*
X009257Y016785D01*
X009180Y016782D02*
X009100Y016782D01*
X009100Y016704D02*
X009180Y016704D01*
X009180Y016625D02*
X009100Y016625D01*
X009100Y016547D02*
X009180Y016547D01*
X009180Y016468D02*
X009100Y016468D01*
X009100Y016390D02*
X009180Y016390D01*
X009180Y016311D02*
X009100Y016311D01*
X009100Y016233D02*
X009180Y016233D01*
X009180Y016154D02*
X009540Y016154D01*
X009540Y016076D02*
X009540Y016076D01*
X009540Y015997D02*
X009540Y015997D01*
X009540Y015919D02*
X009540Y015919D01*
X009540Y015840D02*
X009540Y015840D01*
X009540Y015762D02*
X009524Y015762D01*
X009489Y015683D02*
X009572Y015683D01*
X009605Y015605D02*
X009430Y015605D01*
X009397Y015526D02*
X009600Y015526D01*
X009521Y015448D02*
X009476Y015448D01*
X009180Y015448D02*
X009100Y015448D01*
X009100Y015526D02*
X009180Y015526D01*
X009180Y015605D02*
X009100Y015605D01*
X009100Y015683D02*
X009180Y015683D01*
X009180Y015762D02*
X009100Y015762D01*
X009100Y015840D02*
X009180Y015840D01*
X009180Y015919D02*
X009100Y015919D01*
X009100Y015997D02*
X009180Y015997D01*
X009180Y016076D02*
X009100Y016076D01*
X009100Y016154D02*
X008740Y016154D01*
X008740Y016076D02*
X008740Y016076D01*
X008740Y015997D02*
X008740Y015997D01*
X008740Y015919D02*
X008740Y015919D01*
X008740Y015840D02*
X008740Y015840D01*
X008740Y015762D02*
X008756Y015762D01*
X008791Y015683D02*
X008708Y015683D01*
X008675Y015605D02*
X008850Y015605D01*
X008883Y015526D02*
X008680Y015526D01*
X008759Y015448D02*
X008804Y015448D01*
X009100Y015369D02*
X009180Y015369D01*
X009180Y015291D02*
X009100Y015291D01*
X009100Y015212D02*
X009180Y015212D01*
X009180Y015100D02*
X009180Y014685D01*
X009328Y014685D01*
X009499Y014855D01*
X009869Y014485D01*
X010411Y014485D01*
X010795Y014869D01*
X010795Y015376D01*
X010800Y015371D01*
X011021Y015280D01*
X011259Y015280D01*
X011480Y015371D01*
X011640Y015531D01*
X011800Y015371D01*
X012021Y015280D01*
X012181Y015280D01*
X011915Y015014D01*
X011915Y014740D01*
X011766Y014740D01*
X011415Y014389D01*
X011415Y013891D01*
X011766Y013540D01*
X012264Y013540D01*
X012615Y013891D01*
X012615Y014165D01*
X012764Y014165D01*
X013015Y014416D01*
X013266Y014165D01*
X013764Y014165D01*
X013790Y014191D01*
X013790Y014016D01*
X014141Y013665D01*
X014639Y013665D01*
X014990Y014016D01*
X014990Y014514D01*
X014639Y014865D01*
X014141Y014865D01*
X014115Y014839D01*
X014115Y015014D01*
X013764Y015365D01*
X013465Y015365D01*
X013480Y015371D01*
X013649Y015540D01*
X013740Y015761D01*
X013740Y016191D01*
X013891Y016040D01*
X013896Y016040D01*
X014284Y015652D01*
X014402Y015534D01*
X014556Y015470D01*
X015341Y015470D01*
X015595Y015216D01*
X015595Y013944D01*
X015415Y013764D01*
X015415Y013266D01*
X015513Y013169D01*
X015474Y013185D01*
X015069Y013185D01*
X014889Y013365D01*
X014391Y013365D01*
X014040Y013014D01*
X014040Y012516D01*
X014391Y012165D01*
X014889Y012165D01*
X015069Y012345D01*
X015216Y012345D01*
X015284Y012277D01*
X015402Y012159D01*
X015556Y012095D01*
X015586Y012095D01*
X015621Y012060D01*
X013806Y012060D01*
X013652Y011996D01*
X012701Y011045D01*
X012619Y011045D01*
X012615Y011041D01*
X012615Y011389D01*
X012264Y011740D01*
X011766Y011740D01*
X011415Y011389D01*
X011415Y011009D01*
X011240Y010834D01*
X011240Y011139D01*
X010889Y011490D01*
X010391Y011490D01*
X010140Y011239D01*
X009889Y011490D01*
X009391Y011490D01*
X009040Y011139D01*
X009040Y010641D01*
X009166Y010515D01*
X009040Y010389D01*
X009040Y009891D01*
X009112Y009819D01*
X009040Y009644D01*
X009040Y008886D01*
X009131Y008665D01*
X009196Y008600D01*
X008331Y008600D01*
X008183Y008748D01*
X008240Y008886D01*
X008240Y009644D01*
X008149Y009865D01*
X008060Y009954D01*
X008060Y010711D01*
X008240Y010891D01*
X008240Y011389D01*
X008060Y011569D01*
X008060Y012134D01*
X008281Y012355D01*
X008452Y012185D01*
X008600Y012185D01*
X008600Y012600D01*
X008680Y012600D01*
X008680Y012680D01*
X008600Y012680D01*
X008600Y013095D01*
X008452Y013095D01*
X008281Y012925D01*
X008026Y013180D01*
X007996Y013253D01*
X007878Y013371D01*
X006935Y014314D01*
X006935Y015315D01*
X007021Y015280D01*
X007259Y015280D01*
X007480Y015371D01*
X007485Y015376D01*
X007485Y014869D01*
X007855Y014499D01*
X007685Y014328D01*
X007685Y014180D01*
X008100Y014180D01*
X008100Y014100D01*
X008180Y014100D01*
X008180Y014180D01*
X008595Y014180D01*
X008595Y014328D01*
X008425Y014499D01*
X008781Y014855D01*
X008952Y014685D01*
X009100Y014685D01*
X009100Y015100D01*
X009180Y015100D01*
X009180Y015055D02*
X009100Y015055D01*
X009100Y014977D02*
X009180Y014977D01*
X009180Y014898D02*
X009100Y014898D01*
X009100Y014820D02*
X009180Y014820D01*
X009180Y014741D02*
X009100Y014741D01*
X008895Y014741D02*
X008667Y014741D01*
X008589Y014663D02*
X009691Y014663D01*
X009613Y014741D02*
X009385Y014741D01*
X009463Y014820D02*
X009534Y014820D01*
X009770Y014584D02*
X008510Y014584D01*
X008432Y014506D02*
X009848Y014506D01*
X010432Y014506D02*
X011532Y014506D01*
X011611Y014584D02*
X010510Y014584D01*
X010589Y014663D02*
X011689Y014663D01*
X011915Y014741D02*
X010667Y014741D01*
X010746Y014820D02*
X011915Y014820D01*
X011915Y014898D02*
X010795Y014898D01*
X010795Y014977D02*
X011915Y014977D01*
X011957Y015055D02*
X010795Y015055D01*
X010795Y015134D02*
X012035Y015134D01*
X012114Y015212D02*
X010795Y015212D01*
X010795Y015291D02*
X010995Y015291D01*
X010806Y015369D02*
X010795Y015369D01*
X011285Y015291D02*
X011995Y015291D01*
X011806Y015369D02*
X011474Y015369D01*
X011556Y015448D02*
X011724Y015448D01*
X011645Y015526D02*
X011635Y015526D01*
X011454Y014427D02*
X008496Y014427D01*
X008575Y014349D02*
X011415Y014349D01*
X011415Y014270D02*
X008595Y014270D01*
X008595Y014192D02*
X011415Y014192D01*
X011415Y014113D02*
X008180Y014113D01*
X008180Y014100D02*
X008595Y014100D01*
X008595Y013952D01*
X008328Y013685D01*
X008180Y013685D01*
X008180Y014100D01*
X008180Y014035D02*
X008100Y014035D01*
X008100Y014100D02*
X008100Y013685D01*
X007952Y013685D01*
X007685Y013952D01*
X007685Y014100D01*
X008100Y014100D01*
X008100Y014113D02*
X007136Y014113D01*
X007214Y014035D02*
X007685Y014035D01*
X007685Y013956D02*
X007293Y013956D01*
X007371Y013878D02*
X007759Y013878D01*
X007837Y013799D02*
X007450Y013799D01*
X007528Y013721D02*
X007916Y013721D01*
X008100Y013721D02*
X008180Y013721D01*
X008180Y013799D02*
X008100Y013799D01*
X008100Y013878D02*
X008180Y013878D01*
X008180Y013956D02*
X008100Y013956D01*
X008364Y013721D02*
X011586Y013721D01*
X011507Y013799D02*
X008443Y013799D01*
X008521Y013878D02*
X011429Y013878D01*
X011415Y013956D02*
X008595Y013956D01*
X008595Y014035D02*
X011415Y014035D01*
X011664Y013642D02*
X007607Y013642D01*
X007685Y013564D02*
X011743Y013564D01*
X012287Y013564D02*
X015415Y013564D01*
X015415Y013642D02*
X012366Y013642D01*
X012444Y013721D02*
X014086Y013721D01*
X014007Y013799D02*
X012523Y013799D01*
X012601Y013878D02*
X013929Y013878D01*
X013850Y013956D02*
X012615Y013956D01*
X012615Y014035D02*
X013790Y014035D01*
X013790Y014113D02*
X012615Y014113D01*
X012790Y014192D02*
X013240Y014192D01*
X013161Y014270D02*
X012869Y014270D01*
X012947Y014349D02*
X013083Y014349D01*
X013916Y015212D02*
X015595Y015212D01*
X015595Y015134D02*
X013995Y015134D01*
X014073Y015055D02*
X015595Y015055D01*
X015595Y014977D02*
X014115Y014977D01*
X014115Y014898D02*
X015595Y014898D01*
X015595Y014820D02*
X014684Y014820D01*
X014762Y014741D02*
X015595Y014741D01*
X015595Y014663D02*
X014841Y014663D01*
X014919Y014584D02*
X015595Y014584D01*
X015595Y014506D02*
X014990Y014506D01*
X014990Y014427D02*
X015595Y014427D01*
X015595Y014349D02*
X014990Y014349D01*
X014990Y014270D02*
X015595Y014270D01*
X015595Y014192D02*
X014990Y014192D01*
X014990Y014113D02*
X015595Y014113D01*
X015595Y014035D02*
X014990Y014035D01*
X014930Y013956D02*
X015595Y013956D01*
X015529Y013878D02*
X014851Y013878D01*
X014773Y013799D02*
X015451Y013799D01*
X015415Y013721D02*
X014694Y013721D01*
X014925Y013328D02*
X015415Y013328D01*
X015415Y013407D02*
X007842Y013407D01*
X007764Y013485D02*
X015415Y013485D01*
X015432Y013250D02*
X015004Y013250D01*
X015507Y013171D02*
X015510Y013171D01*
X015253Y012308D02*
X015031Y012308D01*
X014953Y012229D02*
X015332Y012229D01*
X015422Y012151D02*
X008077Y012151D01*
X008060Y012072D02*
X015609Y012072D01*
X014327Y012229D02*
X008873Y012229D01*
X008828Y012185D02*
X009095Y012452D01*
X009095Y012600D01*
X008680Y012600D01*
X008680Y012185D01*
X008828Y012185D01*
X008680Y012229D02*
X008600Y012229D01*
X008600Y012308D02*
X008680Y012308D01*
X008680Y012386D02*
X008600Y012386D01*
X008600Y012465D02*
X008680Y012465D01*
X008680Y012543D02*
X008600Y012543D01*
X008680Y012622D02*
X013240Y012622D01*
X013240Y012599D02*
X013474Y012365D01*
X013600Y012365D01*
X013600Y012725D01*
X013680Y012725D01*
X013680Y012805D01*
X014040Y012805D01*
X014040Y012931D01*
X013806Y013165D01*
X013680Y013165D01*
X013680Y012805D01*
X013600Y012805D01*
X013600Y013165D01*
X013474Y013165D01*
X013240Y012931D01*
X013240Y012805D01*
X013600Y012805D01*
X013600Y012725D01*
X013240Y012725D01*
X013240Y012599D01*
X013296Y012543D02*
X009095Y012543D01*
X009095Y012465D02*
X013375Y012465D01*
X013453Y012386D02*
X009030Y012386D01*
X008951Y012308D02*
X014249Y012308D01*
X014170Y012386D02*
X013827Y012386D01*
X013806Y012365D02*
X014040Y012599D01*
X014040Y012725D01*
X013680Y012725D01*
X013680Y012365D01*
X013806Y012365D01*
X013680Y012386D02*
X013600Y012386D01*
X013600Y012465D02*
X013680Y012465D01*
X013680Y012543D02*
X013600Y012543D01*
X013600Y012622D02*
X013680Y012622D01*
X013680Y012700D02*
X013600Y012700D01*
X013600Y012779D02*
X009095Y012779D01*
X009095Y012828D02*
X008828Y013095D01*
X008680Y013095D01*
X008680Y012680D01*
X009095Y012680D01*
X009095Y012828D01*
X009066Y012857D02*
X013240Y012857D01*
X013245Y012936D02*
X008988Y012936D01*
X008909Y013014D02*
X013323Y013014D01*
X013402Y013093D02*
X008831Y013093D01*
X008680Y013093D02*
X008600Y013093D01*
X008600Y013014D02*
X008680Y013014D01*
X008680Y012936D02*
X008600Y012936D01*
X008600Y012857D02*
X008680Y012857D01*
X008680Y012779D02*
X008600Y012779D01*
X008600Y012700D02*
X008680Y012700D01*
X009095Y012700D02*
X013240Y012700D01*
X013600Y012857D02*
X013680Y012857D01*
X013680Y012779D02*
X014040Y012779D01*
X014040Y012857D02*
X014040Y012857D01*
X014035Y012936D02*
X014040Y012936D01*
X014041Y013014D02*
X013957Y013014D01*
X013878Y013093D02*
X014119Y013093D01*
X014198Y013171D02*
X008035Y013171D01*
X007997Y013250D02*
X014276Y013250D01*
X014355Y013328D02*
X007921Y013328D01*
X008114Y013093D02*
X008449Y013093D01*
X008371Y013014D02*
X008192Y013014D01*
X008271Y012936D02*
X008292Y012936D01*
X008329Y012308D02*
X008234Y012308D01*
X008155Y012229D02*
X008407Y012229D01*
X008060Y011994D02*
X013650Y011994D01*
X013571Y011915D02*
X008060Y011915D01*
X008060Y011837D02*
X013493Y011837D01*
X013414Y011758D02*
X008060Y011758D01*
X008060Y011680D02*
X011706Y011680D01*
X011628Y011601D02*
X008060Y011601D01*
X008106Y011523D02*
X008457Y011523D01*
X008474Y011540D02*
X008240Y011306D01*
X008240Y011180D01*
X008600Y011180D01*
X008600Y011540D01*
X008474Y011540D01*
X008600Y011523D02*
X008680Y011523D01*
X008680Y011540D02*
X008806Y011540D01*
X009040Y011306D01*
X009040Y011180D01*
X008680Y011180D01*
X008680Y011100D01*
X009040Y011100D01*
X009040Y010974D01*
X008806Y010740D01*
X008680Y010740D01*
X008680Y011100D01*
X008600Y011100D01*
X008600Y010740D01*
X008474Y010740D01*
X008240Y010974D01*
X008240Y011100D01*
X008600Y011100D01*
X008600Y011180D01*
X008680Y011180D01*
X008680Y011540D01*
X008680Y011444D02*
X008600Y011444D01*
X008600Y011366D02*
X008680Y011366D01*
X008680Y011287D02*
X008600Y011287D01*
X008600Y011209D02*
X008680Y011209D01*
X008680Y011130D02*
X009040Y011130D01*
X009040Y011052D02*
X009040Y011052D01*
X009039Y010973D02*
X009040Y010973D01*
X009040Y010895D02*
X008960Y010895D01*
X008882Y010816D02*
X009040Y010816D01*
X009040Y010738D02*
X008086Y010738D01*
X008060Y010659D02*
X009040Y010659D01*
X009101Y010581D02*
X008060Y010581D01*
X008060Y010502D02*
X009154Y010502D01*
X009075Y010424D02*
X008060Y010424D01*
X008060Y010345D02*
X009040Y010345D01*
X009040Y010267D02*
X008060Y010267D01*
X008060Y010188D02*
X009040Y010188D01*
X009040Y010110D02*
X008060Y010110D01*
X008060Y010031D02*
X009040Y010031D01*
X009040Y009953D02*
X008061Y009953D01*
X008139Y009874D02*
X008442Y009874D01*
X008451Y009879D02*
X008385Y009836D01*
X008329Y009780D01*
X008286Y009714D01*
X008255Y009642D01*
X008240Y009564D01*
X008240Y009305D01*
X008600Y009305D01*
X008600Y009925D01*
X008523Y009910D01*
X008451Y009879D01*
X008345Y009796D02*
X008177Y009796D01*
X008210Y009717D02*
X008287Y009717D01*
X008255Y009639D02*
X008240Y009639D01*
X008240Y009560D02*
X008240Y009560D01*
X008240Y009482D02*
X008240Y009482D01*
X008240Y009403D02*
X008240Y009403D01*
X008240Y009325D02*
X008240Y009325D01*
X008240Y009246D02*
X008600Y009246D01*
X008600Y009225D02*
X008240Y009225D01*
X008240Y008966D01*
X008255Y008888D01*
X008286Y008816D01*
X008329Y008750D01*
X008385Y008694D01*
X008451Y008651D01*
X008523Y008620D01*
X008600Y008605D01*
X008600Y009225D01*
X008680Y009225D01*
X008680Y009305D01*
X009040Y009305D01*
X009040Y009564D01*
X009025Y009642D01*
X008994Y009714D01*
X008951Y009780D01*
X008895Y009836D01*
X008829Y009879D01*
X008757Y009910D01*
X008680Y009925D01*
X008680Y009305D01*
X008600Y009305D01*
X008600Y009225D01*
X008600Y009168D02*
X008680Y009168D01*
X008680Y009225D02*
X008680Y008605D01*
X008757Y008620D01*
X008829Y008651D01*
X008895Y008694D01*
X008951Y008750D01*
X008994Y008816D01*
X009025Y008888D01*
X009040Y008966D01*
X009040Y009225D01*
X008680Y009225D01*
X008680Y009246D02*
X009040Y009246D01*
X009040Y009168D02*
X009040Y009168D01*
X009040Y009089D02*
X009040Y009089D01*
X009040Y009011D02*
X009040Y009011D01*
X009033Y008932D02*
X009040Y008932D01*
X009053Y008854D02*
X009010Y008854D01*
X008967Y008775D02*
X009086Y008775D01*
X009118Y008697D02*
X008897Y008697D01*
X008745Y008618D02*
X009178Y008618D01*
X008680Y008618D02*
X008600Y008618D01*
X008535Y008618D02*
X008313Y008618D01*
X008383Y008697D02*
X008234Y008697D01*
X008194Y008775D02*
X008313Y008775D01*
X008270Y008854D02*
X008227Y008854D01*
X008240Y008932D02*
X008247Y008932D01*
X008240Y009011D02*
X008240Y009011D01*
X008240Y009089D02*
X008240Y009089D01*
X008240Y009168D02*
X008240Y009168D01*
X008600Y009089D02*
X008680Y009089D01*
X008680Y009011D02*
X008600Y009011D01*
X008600Y008932D02*
X008680Y008932D01*
X008680Y008854D02*
X008600Y008854D01*
X008600Y008775D02*
X008680Y008775D01*
X008680Y008697D02*
X008600Y008697D01*
X008600Y009325D02*
X008680Y009325D01*
X008680Y009403D02*
X008600Y009403D01*
X008600Y009482D02*
X008680Y009482D01*
X008680Y009560D02*
X008600Y009560D01*
X008600Y009639D02*
X008680Y009639D01*
X008680Y009717D02*
X008600Y009717D01*
X008600Y009796D02*
X008680Y009796D01*
X008680Y009874D02*
X008600Y009874D01*
X008838Y009874D02*
X009057Y009874D01*
X009103Y009796D02*
X008935Y009796D01*
X008993Y009717D02*
X009070Y009717D01*
X009040Y009639D02*
X009025Y009639D01*
X009040Y009560D02*
X009040Y009560D01*
X009040Y009482D02*
X009040Y009482D01*
X009040Y009403D02*
X009040Y009403D01*
X009040Y009325D02*
X009040Y009325D01*
X008680Y010816D02*
X008600Y010816D01*
X008600Y010895D02*
X008680Y010895D01*
X008680Y010973D02*
X008600Y010973D01*
X008600Y011052D02*
X008680Y011052D01*
X008600Y011130D02*
X008240Y011130D01*
X008240Y011052D02*
X008240Y011052D01*
X008240Y010973D02*
X008241Y010973D01*
X008240Y010895D02*
X008320Y010895D01*
X008398Y010816D02*
X008165Y010816D01*
X008240Y011209D02*
X008240Y011209D01*
X008240Y011287D02*
X008240Y011287D01*
X008240Y011366D02*
X008300Y011366D01*
X008378Y011444D02*
X008184Y011444D01*
X008823Y011523D02*
X011549Y011523D01*
X011471Y011444D02*
X010934Y011444D01*
X011013Y011366D02*
X011415Y011366D01*
X011415Y011287D02*
X011091Y011287D01*
X011170Y011209D02*
X011415Y011209D01*
X011415Y011130D02*
X011240Y011130D01*
X011240Y011052D02*
X011415Y011052D01*
X011379Y010973D02*
X011240Y010973D01*
X011240Y010895D02*
X011301Y010895D01*
X010346Y011444D02*
X009934Y011444D01*
X010013Y011366D02*
X010267Y011366D01*
X010189Y011287D02*
X010091Y011287D01*
X009346Y011444D02*
X008902Y011444D01*
X008980Y011366D02*
X009267Y011366D01*
X009189Y011287D02*
X009040Y011287D01*
X009040Y011209D02*
X009110Y011209D01*
X007685Y014192D02*
X007057Y014192D01*
X006979Y014270D02*
X007685Y014270D01*
X007705Y014349D02*
X006935Y014349D01*
X006935Y014427D02*
X007784Y014427D01*
X007848Y014506D02*
X006935Y014506D01*
X006935Y014584D02*
X007770Y014584D01*
X007691Y014663D02*
X006935Y014663D01*
X006935Y014741D02*
X007613Y014741D01*
X007534Y014820D02*
X006935Y014820D01*
X006935Y014898D02*
X007485Y014898D01*
X007485Y014977D02*
X006935Y014977D01*
X006935Y015055D02*
X007485Y015055D01*
X007485Y015134D02*
X006935Y015134D01*
X006935Y015212D02*
X007485Y015212D01*
X007485Y015291D02*
X007285Y015291D01*
X007474Y015369D02*
X007485Y015369D01*
X006995Y015291D02*
X006935Y015291D01*
X005470Y015605D02*
X005078Y015605D01*
X005157Y015683D02*
X005470Y015683D01*
X005420Y015762D02*
X005235Y015762D01*
X005314Y015840D02*
X005341Y015840D01*
X003489Y017567D02*
X000580Y017567D01*
X000580Y017646D02*
X003411Y017646D01*
X003332Y017724D02*
X000580Y017724D01*
X000580Y017803D02*
X003254Y017803D01*
X003175Y017881D02*
X000580Y017881D01*
X000580Y017960D02*
X003165Y017960D01*
X003165Y018038D02*
X000580Y018038D01*
X000580Y018117D02*
X003165Y018117D01*
X003165Y018195D02*
X000580Y018195D01*
X000580Y018274D02*
X003165Y018274D01*
X003165Y018352D02*
X000580Y018352D01*
X000580Y018431D02*
X003207Y018431D01*
X003286Y018509D02*
X000580Y018509D01*
X000580Y018588D02*
X003364Y018588D01*
X003443Y018666D02*
X000580Y018666D01*
X000580Y018745D02*
X003595Y018745D01*
X003599Y018740D02*
X003725Y018740D01*
X003725Y019100D01*
X003365Y019100D01*
X003365Y018974D01*
X003599Y018740D01*
X003516Y018823D02*
X000580Y018823D01*
X000580Y018902D02*
X003438Y018902D01*
X003365Y018980D02*
X000580Y018980D01*
X000580Y019059D02*
X003365Y019059D01*
X003365Y019216D02*
X000580Y019216D01*
X000580Y019294D02*
X003365Y019294D01*
X003432Y019373D02*
X000580Y019373D01*
X000580Y019137D02*
X003725Y019137D01*
X003725Y019059D02*
X003805Y019059D01*
X003805Y018980D02*
X003725Y018980D01*
X003725Y018902D02*
X003805Y018902D01*
X003805Y018823D02*
X003725Y018823D01*
X003725Y018745D02*
X003805Y018745D01*
X007406Y016939D02*
X007874Y016939D01*
X007752Y016861D02*
X007528Y016861D01*
X007606Y016782D02*
X007674Y016782D01*
X008606Y016782D02*
X009017Y016782D01*
X008878Y016704D02*
X008664Y016704D01*
X008696Y016625D02*
X008809Y016625D01*
X008768Y016547D02*
X008729Y016547D01*
X008740Y016468D02*
X008746Y016468D01*
X008740Y016390D02*
X008740Y016390D01*
X008740Y016311D02*
X008740Y016311D01*
X008740Y016233D02*
X008740Y016233D01*
X009402Y016704D02*
X009616Y016704D01*
X009584Y016625D02*
X009471Y016625D01*
X009512Y016547D02*
X009551Y016547D01*
X009540Y016468D02*
X009534Y016468D01*
X009540Y016390D02*
X009540Y016390D01*
X009540Y016311D02*
X009540Y016311D01*
X009540Y016233D02*
X009540Y016233D01*
X008817Y014820D02*
X008746Y014820D01*
X008297Y017724D02*
X008068Y017724D01*
X013474Y015369D02*
X015442Y015369D01*
X015520Y015291D02*
X013838Y015291D01*
X013635Y015526D02*
X014421Y015526D01*
X014331Y015605D02*
X013675Y015605D01*
X013708Y015683D02*
X014253Y015683D01*
X014174Y015762D02*
X013740Y015762D01*
X013740Y015840D02*
X014096Y015840D01*
X014017Y015919D02*
X013740Y015919D01*
X013740Y015997D02*
X013939Y015997D01*
X013856Y016076D02*
X013740Y016076D01*
X013740Y016154D02*
X013777Y016154D01*
X013556Y015448D02*
X015363Y015448D01*
X013680Y013093D02*
X013600Y013093D01*
X013600Y013014D02*
X013680Y013014D01*
X013680Y012936D02*
X013600Y012936D01*
X013984Y012543D02*
X014040Y012543D01*
X014040Y012622D02*
X014040Y012622D01*
X014040Y012700D02*
X014040Y012700D01*
X014092Y012465D02*
X013905Y012465D01*
X013336Y011680D02*
X012324Y011680D01*
X012402Y011601D02*
X013257Y011601D01*
X013179Y011523D02*
X012481Y011523D01*
X012559Y011444D02*
X013100Y011444D01*
X013022Y011366D02*
X012615Y011366D01*
X012615Y011287D02*
X012943Y011287D01*
X012865Y011209D02*
X012615Y011209D01*
X012615Y011130D02*
X012786Y011130D01*
X012708Y011052D02*
X012615Y011052D01*
X014400Y010806D02*
X014439Y010845D01*
X016099Y010845D01*
X016253Y010909D01*
X016290Y010946D01*
X016290Y010766D01*
X016641Y010415D01*
X017139Y010415D01*
X017390Y010666D01*
X017641Y010415D01*
X018139Y010415D01*
X018453Y010729D01*
X018641Y010540D01*
X019095Y010540D01*
X019095Y010090D01*
X019009Y010125D01*
X018771Y010125D01*
X018550Y010034D01*
X018390Y009874D01*
X018230Y010034D01*
X018009Y010125D01*
X017771Y010125D01*
X017550Y010034D01*
X017390Y009874D01*
X017230Y010034D01*
X017009Y010125D01*
X016771Y010125D01*
X016550Y010034D01*
X016390Y009874D01*
X016230Y010034D01*
X016009Y010125D01*
X015771Y010125D01*
X015550Y010034D01*
X015381Y009865D01*
X015290Y009644D01*
X015290Y008886D01*
X015347Y008748D01*
X015199Y008600D01*
X014334Y008600D01*
X014399Y008665D01*
X014490Y008886D01*
X014490Y009644D01*
X014399Y009865D01*
X014345Y009919D01*
X014545Y010119D01*
X014545Y010661D01*
X014400Y010806D01*
X014410Y010816D02*
X016290Y010816D01*
X016290Y010895D02*
X016218Y010895D01*
X016319Y010738D02*
X014469Y010738D01*
X014545Y010659D02*
X016397Y010659D01*
X016476Y010581D02*
X014545Y010581D01*
X014545Y010502D02*
X016554Y010502D01*
X016633Y010424D02*
X014545Y010424D01*
X014545Y010345D02*
X019095Y010345D01*
X019095Y010267D02*
X014545Y010267D01*
X014545Y010188D02*
X019095Y010188D01*
X019095Y010110D02*
X019047Y010110D01*
X019095Y010424D02*
X018147Y010424D01*
X018226Y010502D02*
X019095Y010502D01*
X018733Y010110D02*
X018047Y010110D01*
X018232Y010031D02*
X018548Y010031D01*
X018469Y009953D02*
X018311Y009953D01*
X018389Y009874D02*
X018391Y009874D01*
X017733Y010110D02*
X017047Y010110D01*
X017232Y010031D02*
X017548Y010031D01*
X017469Y009953D02*
X017311Y009953D01*
X017389Y009874D02*
X017391Y009874D01*
X017633Y010424D02*
X017147Y010424D01*
X017226Y010502D02*
X017554Y010502D01*
X017476Y010581D02*
X017304Y010581D01*
X017383Y010659D02*
X017397Y010659D01*
X016733Y010110D02*
X016047Y010110D01*
X016232Y010031D02*
X016548Y010031D01*
X016469Y009953D02*
X016311Y009953D01*
X016389Y009874D02*
X016391Y009874D01*
X015733Y010110D02*
X014536Y010110D01*
X014457Y010031D02*
X015548Y010031D01*
X015469Y009953D02*
X014379Y009953D01*
X014389Y009874D02*
X014692Y009874D01*
X014701Y009879D02*
X014635Y009836D01*
X014579Y009780D01*
X014536Y009714D01*
X014505Y009642D01*
X014490Y009564D01*
X014490Y009305D01*
X014850Y009305D01*
X014850Y009925D01*
X014773Y009910D01*
X014701Y009879D01*
X014595Y009796D02*
X014427Y009796D01*
X014460Y009717D02*
X014537Y009717D01*
X014505Y009639D02*
X014490Y009639D01*
X014490Y009560D02*
X014490Y009560D01*
X014490Y009482D02*
X014490Y009482D01*
X014490Y009403D02*
X014490Y009403D01*
X014490Y009325D02*
X014490Y009325D01*
X014490Y009246D02*
X014850Y009246D01*
X014850Y009225D02*
X014490Y009225D01*
X014490Y008966D01*
X014505Y008888D01*
X014536Y008816D01*
X014579Y008750D01*
X014635Y008694D01*
X014701Y008651D01*
X014773Y008620D01*
X014850Y008605D01*
X014850Y009225D01*
X014930Y009225D01*
X014930Y009305D01*
X015290Y009305D01*
X015290Y009564D01*
X015275Y009642D01*
X015244Y009714D01*
X015201Y009780D01*
X015145Y009836D01*
X015079Y009879D01*
X015007Y009910D01*
X014930Y009925D01*
X014930Y009305D01*
X014850Y009305D01*
X014850Y009225D01*
X014850Y009168D02*
X014930Y009168D01*
X014930Y009225D02*
X014930Y008605D01*
X015007Y008620D01*
X015079Y008651D01*
X015145Y008694D01*
X015201Y008750D01*
X015244Y008816D01*
X015275Y008888D01*
X015290Y008966D01*
X015290Y009225D01*
X014930Y009225D01*
X014930Y009246D02*
X015290Y009246D01*
X015290Y009168D02*
X015290Y009168D01*
X015290Y009089D02*
X015290Y009089D01*
X015290Y009011D02*
X015290Y009011D01*
X015283Y008932D02*
X015290Y008932D01*
X015303Y008854D02*
X015260Y008854D01*
X015217Y008775D02*
X015336Y008775D01*
X015296Y008697D02*
X015147Y008697D01*
X015217Y008618D02*
X014995Y008618D01*
X014930Y008618D02*
X014850Y008618D01*
X014785Y008618D02*
X014352Y008618D01*
X014412Y008697D02*
X014633Y008697D01*
X014563Y008775D02*
X014444Y008775D01*
X014477Y008854D02*
X014520Y008854D01*
X014497Y008932D02*
X014490Y008932D01*
X014490Y009011D02*
X014490Y009011D01*
X014490Y009089D02*
X014490Y009089D01*
X014490Y009168D02*
X014490Y009168D01*
X014850Y009089D02*
X014930Y009089D01*
X014930Y009011D02*
X014850Y009011D01*
X014850Y008932D02*
X014930Y008932D01*
X014930Y008854D02*
X014850Y008854D01*
X014850Y008775D02*
X014930Y008775D01*
X014930Y008697D02*
X014850Y008697D01*
X014850Y009325D02*
X014930Y009325D01*
X014930Y009403D02*
X014850Y009403D01*
X014850Y009482D02*
X014930Y009482D01*
X014930Y009560D02*
X014850Y009560D01*
X014850Y009639D02*
X014930Y009639D01*
X014930Y009717D02*
X014850Y009717D01*
X014850Y009796D02*
X014930Y009796D01*
X014930Y009874D02*
X014850Y009874D01*
X015088Y009874D02*
X015391Y009874D01*
X015353Y009796D02*
X015185Y009796D01*
X015243Y009717D02*
X015320Y009717D01*
X015290Y009639D02*
X015275Y009639D01*
X015290Y009560D02*
X015290Y009560D01*
X015290Y009482D02*
X015290Y009482D01*
X015290Y009403D02*
X015290Y009403D01*
X015290Y009325D02*
X015290Y009325D01*
X018304Y010581D02*
X018601Y010581D01*
X018522Y010659D02*
X018383Y010659D01*
X011365Y005714D02*
X011240Y005714D01*
X011240Y005635D02*
X011286Y005635D01*
D17*
X012890Y005515D02*
X013015Y005390D01*
X016140Y005390D01*
X017140Y004390D01*
X017140Y003890D01*
X015390Y007390D02*
X019015Y007390D01*
X019515Y007890D01*
X019515Y014515D01*
X019140Y014890D01*
X017140Y014890D01*
X015640Y016390D01*
X015390Y016390D01*
X015140Y016640D01*
X015140Y017640D01*
X015640Y017640D01*
X016140Y018140D01*
X016140Y018765D01*
X014140Y018640D02*
X013640Y018140D01*
X008390Y018140D01*
X008140Y018390D01*
X007640Y017890D01*
X007265Y017890D01*
X007078Y017703D01*
X006140Y018640D01*
X007078Y017703D02*
X006515Y017015D01*
X006515Y014140D01*
X007640Y013015D01*
X007640Y012640D01*
X007640Y011140D01*
X007640Y009265D01*
X008640Y009265D02*
X008640Y011140D01*
X008640Y012640D01*
X008640Y012369D01*
X008640Y012640D02*
X008640Y014140D01*
X009140Y014640D01*
X009140Y015140D01*
X009140Y016140D01*
X011140Y016140D02*
X011140Y017015D01*
X011765Y017640D01*
X014140Y017640D01*
X014140Y016640D02*
X014140Y016390D01*
X014640Y015890D01*
X015515Y015890D01*
X016015Y015390D01*
X016015Y013515D01*
X015390Y012765D02*
X015640Y012515D01*
X016015Y012515D01*
X015390Y012765D02*
X014640Y012765D01*
X013890Y011640D02*
X012890Y010640D01*
X012890Y010390D01*
X013890Y010390D02*
X013890Y010890D01*
X014265Y011265D01*
X016015Y011265D01*
X018015Y013265D01*
X018140Y013265D01*
X018890Y013265D01*
X018890Y012140D01*
X017390Y013140D02*
X015890Y011640D01*
X013890Y011640D01*
X012015Y011140D02*
X012015Y011015D01*
X011140Y010140D01*
X010640Y010140D01*
X010640Y009265D01*
X007140Y007515D02*
X004640Y007515D01*
X004015Y008140D01*
X004015Y011890D01*
X004640Y012515D01*
X005890Y012515D01*
X005890Y016140D01*
X008140Y014140D02*
X008640Y014140D01*
X008140Y018390D02*
X008140Y019140D01*
X003140Y010765D02*
X003140Y009015D01*
X002765Y004890D02*
X003765Y004890D01*
X004140Y004515D01*
X004515Y004515D01*
X003765Y004015D02*
X004140Y003640D01*
X003765Y004015D02*
X003140Y004015D01*
X002765Y004890D02*
X002140Y004265D01*
X002140Y004015D01*
X005140Y003640D02*
X006140Y003640D01*
X017390Y013140D02*
X017390Y014265D01*
D18*
X015890Y009265D02*
X015890Y008640D01*
X015390Y008140D01*
X011640Y008140D01*
X008140Y008140D01*
X007640Y008640D01*
X007640Y009265D01*
X008140Y007390D02*
X015390Y007390D01*
X015890Y006890D01*
X015890Y006265D01*
X008140Y007390D02*
X007640Y006890D01*
X007640Y006265D01*
X007640Y005515D01*
X006140Y004015D01*
X006140Y003640D01*
X006140Y003015D01*
D19*
X014140Y018640D03*
D20*
X007140Y007515D03*
D21*
X010140Y003390D02*
X011265Y003390D01*
X011640Y003765D01*
X011640Y005140D01*
X010140Y003390D02*
X009640Y002890D01*
X009640Y002390D01*
X009640Y001390D01*
X013640Y001390D02*
X014640Y001390D01*
X015265Y000765D01*
X016140Y000765D01*
X013640Y001390D02*
X013640Y002390D01*
D22*
X017140Y018140D03*
X017140Y019140D03*
X018140Y019140D03*
X018140Y018140D03*
X019140Y018140D03*
X019140Y019140D03*
M02*
