G75*
%MOIN*%
%OFA0B0*%
%FSLAX24Y24*%
%IPPOS*%
%LPD*%
%AMOC8*
5,1,8,0,0,1.08239X$1,22.5*
%
%ADD10C,0.0520*%
%ADD11OC8,0.0520*%
%ADD12OC8,0.0630*%
%ADD13R,0.0515X0.0515*%
%ADD14C,0.0515*%
%ADD15C,0.0240*%
%ADD16C,0.0160*%
%ADD17C,0.0320*%
%ADD18C,0.0080*%
D10*
X001140Y003130D02*
X001140Y003650D01*
X002140Y003650D02*
X002140Y003130D01*
X003140Y003130D02*
X003140Y003650D01*
X003140Y005505D02*
X003140Y006025D01*
X002140Y006025D02*
X002140Y005505D01*
X001140Y005505D02*
X001140Y006025D01*
X004640Y006005D02*
X004640Y006525D01*
X005640Y006525D02*
X005640Y006005D01*
X006640Y006005D02*
X006640Y006525D01*
X007640Y006525D02*
X007640Y006005D01*
X008640Y006005D02*
X008640Y006525D01*
X009640Y006525D02*
X009640Y006005D01*
X010640Y006005D02*
X010640Y006525D01*
X012890Y006525D02*
X012890Y006005D01*
X013890Y006005D02*
X013890Y006525D01*
X014890Y006525D02*
X014890Y006005D01*
X015890Y006005D02*
X015890Y006525D01*
X016890Y006525D02*
X016890Y006005D01*
X017890Y006005D02*
X017890Y006525D01*
X018890Y006525D02*
X018890Y006005D01*
X018890Y009005D02*
X018890Y009525D01*
X017890Y009525D02*
X017890Y009005D01*
X016890Y009005D02*
X016890Y009525D01*
X015890Y009525D02*
X015890Y009005D01*
X014890Y009005D02*
X014890Y009525D01*
X013890Y009525D02*
X013890Y009005D01*
X012890Y009005D02*
X012890Y009525D01*
X010640Y009525D02*
X010640Y009005D01*
X009640Y009005D02*
X009640Y009525D01*
X008640Y009525D02*
X008640Y009005D01*
X007640Y009005D02*
X007640Y009525D01*
X006640Y009525D02*
X006640Y009005D01*
X005640Y009005D02*
X005640Y009525D01*
X004640Y009525D02*
X004640Y009005D01*
X003140Y010505D02*
X003140Y011025D01*
X002140Y011025D02*
X002140Y010505D01*
X001140Y010505D02*
X001140Y011025D01*
X007140Y015880D02*
X007140Y016400D01*
X008140Y016400D02*
X008140Y015880D01*
X009140Y015880D02*
X009140Y016400D01*
X010140Y016400D02*
X010140Y015880D01*
X011140Y015880D02*
X011140Y016400D01*
X012140Y016400D02*
X012140Y015880D01*
X013140Y015880D02*
X013140Y016400D01*
X014140Y018505D02*
X014140Y019025D01*
X015140Y019025D02*
X015140Y018505D01*
X016140Y018505D02*
X016140Y019025D01*
X013140Y018880D02*
X013140Y019400D01*
X012140Y019400D02*
X012140Y018880D01*
X011140Y018880D02*
X011140Y019400D01*
X010140Y019400D02*
X010140Y018880D01*
X009140Y018880D02*
X009140Y019400D01*
X008140Y019400D02*
X008140Y018880D01*
X007140Y018880D02*
X007140Y019400D01*
X017140Y001400D02*
X017140Y000880D01*
X018140Y000880D02*
X018140Y001400D01*
X019140Y001400D02*
X019140Y000880D01*
D11*
X017140Y002890D03*
X017140Y003890D03*
X016140Y003765D03*
X016140Y000765D03*
X019140Y003015D03*
X019140Y004015D03*
X012890Y004515D03*
X012890Y005515D03*
X011640Y005140D03*
X010640Y005515D03*
X010640Y004515D03*
X011640Y008140D03*
X010640Y010140D03*
X010640Y010890D03*
X009640Y010890D03*
X009640Y010140D03*
X008640Y010765D03*
X007640Y010765D03*
X005640Y011140D03*
X005640Y010140D03*
X005515Y004515D03*
X004515Y004515D03*
X006140Y003015D03*
X007140Y003015D03*
X012015Y011140D03*
X013640Y012765D03*
X014640Y012765D03*
X016015Y012515D03*
X016015Y013515D03*
X017390Y014265D03*
X018140Y014265D03*
X018890Y014265D03*
X018890Y013265D03*
X018140Y013265D03*
X018890Y012140D03*
X018390Y011640D03*
X018890Y011140D03*
X017890Y011015D03*
X017390Y011640D03*
X016890Y011015D03*
X014390Y014265D03*
X013515Y014765D03*
X012515Y014765D03*
X012015Y014140D03*
X014140Y016640D03*
X014140Y017640D03*
X015140Y017640D03*
X015140Y016640D03*
D12*
X010640Y015140D03*
X009640Y015140D03*
X007890Y015140D03*
X007890Y014140D03*
X007630Y012379D03*
X008630Y012379D03*
X012890Y010390D03*
X013890Y010390D03*
X017890Y005140D03*
X018890Y005140D03*
X015890Y004515D03*
X014890Y004515D03*
D13*
X003140Y007515D03*
X002140Y007515D03*
X001140Y007515D03*
X001140Y009015D03*
X002140Y009015D03*
X003140Y009015D03*
X003140Y012515D03*
X002140Y012515D03*
X001140Y012515D03*
D14*
X009640Y002390D03*
X009640Y001390D03*
X010640Y001390D03*
X010640Y002390D03*
X011640Y002390D03*
X011640Y001390D03*
X012640Y001390D03*
X012640Y002390D03*
X013640Y002390D03*
X013640Y001390D03*
D15*
X011640Y002390D02*
X010515Y003515D01*
X009140Y003515D01*
X008640Y003015D01*
X007140Y003015D01*
X002140Y007515D02*
X001140Y007515D01*
X001140Y005765D01*
X001140Y003390D01*
X001140Y012515D01*
X001140Y010765D02*
X001140Y009015D01*
X001140Y007515D01*
D16*
X002140Y008640D02*
X002640Y008140D01*
X008140Y008140D01*
X008640Y008640D01*
X008640Y009265D01*
X008640Y010765D01*
X008640Y012765D01*
X008640Y013140D01*
X009140Y013640D01*
X009140Y014140D01*
X009140Y015140D01*
X009640Y015140D01*
X009140Y015140D02*
X009140Y016140D01*
X008140Y016140D02*
X008140Y015640D01*
X007890Y015390D01*
X007890Y015140D01*
X007890Y014140D02*
X009140Y014140D01*
X008640Y012765D02*
X008630Y012755D01*
X008630Y012379D01*
X008640Y012765D02*
X013640Y012765D01*
X013640Y012390D01*
X014890Y011140D01*
X014890Y009265D01*
X016390Y010140D02*
X015515Y011015D01*
X015515Y011390D01*
X015140Y011765D01*
X015140Y014515D01*
X014890Y014765D01*
X013515Y014765D01*
X012515Y014765D02*
X011640Y014765D01*
X011265Y015140D01*
X010640Y015140D01*
X010515Y015265D01*
X010515Y015390D01*
X010140Y015765D01*
X010140Y016140D01*
X011140Y016140D02*
X011140Y016015D01*
X011890Y015265D01*
X015765Y015265D01*
X016640Y014390D01*
X016640Y011515D01*
X016890Y011265D01*
X016890Y011015D01*
X017390Y011640D02*
X017890Y011015D01*
X017890Y009265D01*
X016890Y009265D02*
X016890Y010140D01*
X016015Y011015D01*
X016015Y012515D01*
X017390Y014265D02*
X018140Y014265D01*
X018265Y014890D02*
X018890Y014265D01*
X018265Y014890D02*
X016765Y014890D01*
X015765Y015890D01*
X015765Y018015D01*
X015515Y018265D01*
X015515Y018390D01*
X015140Y018765D01*
X014140Y018765D02*
X014140Y018640D01*
X013640Y018140D01*
X008390Y018140D01*
X008140Y018390D01*
X007640Y017890D01*
X007265Y017890D01*
X006390Y017015D01*
X006390Y014265D01*
X007640Y013015D01*
X007640Y012389D01*
X007630Y012379D01*
X007640Y012379D01*
X007640Y010765D01*
X007640Y009265D01*
X006640Y009265D02*
X006640Y011265D01*
X006140Y011765D01*
X002640Y011765D01*
X002140Y011265D01*
X002140Y010765D01*
X003140Y010765D02*
X003140Y009015D01*
X002140Y009015D02*
X002140Y008640D01*
X002140Y009015D02*
X001140Y009015D01*
X003140Y007515D02*
X006140Y007515D01*
X006640Y007015D01*
X006640Y006265D01*
X005640Y006265D02*
X004640Y006265D01*
X003640Y006265D01*
X003140Y005765D01*
X002140Y005765D02*
X002140Y005515D01*
X002890Y004765D01*
X003640Y004765D01*
X004140Y005265D01*
X008140Y005265D01*
X008640Y005765D01*
X008640Y006265D01*
X009640Y006265D02*
X010640Y006265D01*
X010640Y005515D01*
X010640Y004515D02*
X005515Y004515D01*
X004515Y004515D02*
X004265Y004515D01*
X004015Y004265D01*
X002515Y004265D01*
X002140Y003890D01*
X002140Y003390D01*
X004640Y009265D02*
X005640Y009265D01*
X005640Y010140D01*
X009640Y010140D02*
X009640Y009265D01*
X009640Y010140D02*
X009640Y010890D01*
X010640Y010890D02*
X011390Y010890D01*
X011765Y010515D01*
X011765Y009265D01*
X012890Y008140D01*
X012890Y006265D01*
X012890Y005515D01*
X012890Y004515D02*
X013890Y005515D01*
X013890Y006265D01*
X012890Y004515D02*
X010640Y004515D01*
X012640Y002765D02*
X013765Y003890D01*
X014265Y003890D01*
X014890Y004515D01*
X012640Y002765D02*
X012640Y002390D01*
X012640Y001390D01*
X011640Y001390D01*
X011640Y002390D01*
X010640Y002390D01*
X010640Y001390D01*
X016890Y007640D02*
X018390Y007640D01*
X018890Y007140D01*
X018890Y006265D01*
X018890Y005140D02*
X018890Y004640D01*
X019140Y004390D01*
X019140Y004015D01*
X019140Y003015D02*
X019140Y001140D01*
X018140Y001140D02*
X018140Y004390D01*
X017890Y004640D01*
X017890Y005140D01*
X017140Y002890D02*
X017140Y001140D01*
X016890Y007640D02*
X016390Y008140D01*
X016390Y010140D01*
X018390Y011640D02*
X018890Y011140D01*
X018890Y009265D01*
X014140Y016640D02*
X013890Y016640D01*
X013390Y017140D01*
X007515Y017140D01*
X007140Y016765D01*
X007140Y016140D01*
X008140Y018390D02*
X008140Y019140D01*
D17*
X012890Y010390D02*
X012890Y009265D01*
X013890Y009265D02*
X013890Y010390D01*
X014890Y009265D02*
X014890Y007640D01*
X015265Y007265D01*
X014890Y006890D01*
X014890Y006265D01*
X014890Y005015D01*
X014640Y004765D01*
X014890Y004515D01*
X015890Y004515D02*
X016140Y004765D01*
X016140Y004890D01*
X015890Y005140D01*
X015890Y006265D01*
X016890Y006265D02*
X016890Y006890D01*
X016515Y007265D01*
X015265Y007265D01*
X016140Y004765D02*
X016140Y003765D01*
X017890Y005140D02*
X017890Y006265D01*
X018890Y006265D02*
X018890Y005140D01*
D18*
X000580Y000580D02*
X000580Y019385D01*
X006540Y019385D01*
X006540Y018761D01*
X006631Y018540D01*
X006800Y018371D01*
X007021Y018280D01*
X007109Y018280D01*
X007027Y018246D01*
X006034Y017253D01*
X000580Y017253D01*
X000580Y017175D02*
X006001Y017175D01*
X005970Y017099D02*
X006034Y017253D01*
X006113Y017332D02*
X000580Y017332D01*
X000580Y017410D02*
X006191Y017410D01*
X006270Y017489D02*
X000580Y017489D01*
X000580Y017567D02*
X006348Y017567D01*
X006427Y017646D02*
X000580Y017646D01*
X000580Y017724D02*
X006505Y017724D01*
X006584Y017803D02*
X000580Y017803D01*
X000580Y017881D02*
X006662Y017881D01*
X006741Y017960D02*
X000580Y017960D01*
X000580Y018038D02*
X006819Y018038D01*
X006898Y018117D02*
X000580Y018117D01*
X000580Y018195D02*
X006976Y018195D01*
X007093Y018274D02*
X000580Y018274D01*
X000580Y018352D02*
X006847Y018352D01*
X006741Y018431D02*
X000580Y018431D01*
X000580Y018509D02*
X006662Y018509D01*
X006612Y018588D02*
X000580Y018588D01*
X000580Y018666D02*
X006579Y018666D01*
X006547Y018745D02*
X000580Y018745D01*
X000580Y018823D02*
X006540Y018823D01*
X006540Y018902D02*
X000580Y018902D01*
X000580Y018980D02*
X006540Y018980D01*
X006540Y019059D02*
X000580Y019059D01*
X000580Y019137D02*
X006540Y019137D01*
X006540Y019216D02*
X000580Y019216D01*
X000580Y019294D02*
X006540Y019294D01*
X006540Y019373D02*
X000580Y019373D01*
X000580Y017096D02*
X005970Y017096D01*
X005970Y017099D02*
X005970Y014181D01*
X006034Y014027D01*
X007193Y012868D01*
X006975Y012650D01*
X006975Y012108D01*
X007220Y011863D01*
X007220Y011194D01*
X007060Y011034D01*
X007060Y011349D01*
X006996Y011503D01*
X006878Y011621D01*
X006378Y012121D01*
X006224Y012185D01*
X003735Y012185D01*
X003737Y012190D01*
X003737Y012840D01*
X003686Y012965D01*
X003590Y013061D01*
X003465Y013112D01*
X002815Y013112D01*
X002690Y013061D01*
X002640Y013011D01*
X002590Y013061D01*
X002465Y013112D01*
X001815Y013112D01*
X001690Y013061D01*
X001594Y012965D01*
X001543Y012840D01*
X001543Y012190D01*
X001594Y012065D01*
X001690Y011969D01*
X001815Y011918D01*
X002199Y011918D01*
X001825Y011544D01*
X001800Y011534D01*
X001631Y011365D01*
X001540Y011144D01*
X001540Y010386D01*
X001631Y010165D01*
X001800Y009996D01*
X002021Y009905D01*
X002259Y009905D01*
X002480Y009996D01*
X002640Y010156D01*
X002720Y010076D01*
X002720Y009573D01*
X002690Y009561D01*
X002594Y009465D01*
X002543Y009340D01*
X002543Y008690D01*
X002594Y008565D01*
X002690Y008469D01*
X002815Y008418D01*
X003465Y008418D01*
X003590Y008469D01*
X003686Y008565D01*
X003737Y008690D01*
X003737Y009340D01*
X003686Y009465D01*
X003590Y009561D01*
X003560Y009573D01*
X003560Y010076D01*
X003649Y010165D01*
X003740Y010386D01*
X003740Y011144D01*
X003657Y011345D01*
X005040Y011345D01*
X005040Y010891D01*
X005291Y010640D01*
X005040Y010389D01*
X005040Y009974D01*
X004980Y010034D01*
X004759Y010125D01*
X004521Y010125D01*
X004300Y010034D01*
X004131Y009865D01*
X004040Y009644D01*
X004040Y008886D01*
X004131Y008665D01*
X004300Y008496D01*
X004521Y008405D01*
X004759Y008405D01*
X004980Y008496D01*
X005140Y008656D01*
X005300Y008496D01*
X005521Y008405D01*
X005759Y008405D01*
X005980Y008496D01*
X006140Y008656D01*
X006300Y008496D01*
X006521Y008405D01*
X006759Y008405D01*
X006980Y008496D01*
X007140Y008656D01*
X007300Y008496D01*
X007521Y008405D01*
X007759Y008405D01*
X007980Y008496D01*
X008149Y008665D01*
X008240Y008886D01*
X008240Y009644D01*
X008149Y009865D01*
X008060Y009954D01*
X008060Y010336D01*
X008240Y010516D01*
X008240Y011014D01*
X008060Y011194D01*
X008060Y011883D01*
X008272Y012094D01*
X008442Y011924D01*
X008590Y011924D01*
X008590Y012339D01*
X008670Y012339D01*
X008670Y011924D01*
X008819Y011924D01*
X009085Y012191D01*
X009085Y012339D01*
X008670Y012339D01*
X008670Y012419D01*
X009085Y012419D01*
X009085Y012568D01*
X008819Y012834D01*
X008670Y012834D01*
X008670Y012419D01*
X008590Y012419D01*
X008590Y012834D01*
X008442Y012834D01*
X008272Y012664D01*
X008060Y012876D01*
X008060Y013099D01*
X007996Y013253D01*
X007878Y013371D01*
X006810Y014439D01*
X006810Y015367D01*
X007021Y015280D01*
X007235Y015280D01*
X007235Y014869D01*
X007605Y014499D01*
X007435Y014328D01*
X007435Y014180D01*
X007850Y014180D01*
X007850Y014100D01*
X007930Y014100D01*
X007930Y014180D01*
X008345Y014180D01*
X008345Y014328D01*
X008175Y014499D01*
X008545Y014869D01*
X008545Y015411D01*
X008532Y015424D01*
X008649Y015540D01*
X008740Y015761D01*
X008740Y016519D01*
X008657Y016720D01*
X008899Y016720D01*
X008885Y016711D01*
X008829Y016655D01*
X008786Y016589D01*
X008755Y016517D01*
X008740Y016439D01*
X008740Y016180D01*
X009100Y016180D01*
X009100Y016100D01*
X009180Y016100D01*
X009180Y016180D01*
X009540Y016180D01*
X009540Y016439D01*
X009525Y016517D01*
X009494Y016589D01*
X009451Y016655D01*
X009395Y016711D01*
X009381Y016720D01*
X009623Y016720D01*
X009540Y016519D01*
X009540Y015761D01*
X009631Y015540D01*
X009680Y015491D01*
X009680Y015180D01*
X009600Y015180D01*
X009600Y015595D01*
X009452Y015595D01*
X009185Y015328D01*
X009185Y015180D01*
X009600Y015180D01*
X009600Y015100D01*
X009680Y015100D01*
X009680Y014685D01*
X009828Y014685D01*
X009999Y014855D01*
X010369Y014485D01*
X010911Y014485D01*
X011119Y014692D01*
X011284Y014527D01*
X011402Y014409D01*
X011426Y014399D01*
X011415Y014389D01*
X011415Y013891D01*
X011766Y013540D01*
X012264Y013540D01*
X012615Y013891D01*
X012615Y014165D01*
X012764Y014165D01*
X013015Y014416D01*
X013266Y014165D01*
X013764Y014165D01*
X013790Y014191D01*
X013790Y014016D01*
X014141Y013665D01*
X014639Y013665D01*
X014720Y013746D01*
X014720Y013365D01*
X014391Y013365D01*
X014040Y013014D01*
X014040Y012516D01*
X014391Y012165D01*
X014720Y012165D01*
X014720Y011681D01*
X014784Y011527D01*
X015095Y011216D01*
X015095Y010931D01*
X015159Y010777D01*
X015811Y010125D01*
X015771Y010125D01*
X015550Y010034D01*
X015381Y009865D01*
X015290Y009644D01*
X015290Y008886D01*
X015381Y008665D01*
X015550Y008496D01*
X015771Y008405D01*
X015970Y008405D01*
X015970Y008056D01*
X016034Y007902D01*
X016534Y007402D01*
X016652Y007284D01*
X016806Y007220D01*
X018216Y007220D01*
X018470Y006966D01*
X018470Y006954D01*
X018390Y006874D01*
X018230Y007034D01*
X018009Y007125D01*
X017771Y007125D01*
X017550Y007034D01*
X017381Y006865D01*
X017290Y006644D01*
X017290Y005886D01*
X017381Y005665D01*
X017390Y005656D01*
X017390Y005566D01*
X017235Y005411D01*
X017235Y004869D01*
X017470Y004634D01*
X017470Y004556D01*
X017534Y004402D01*
X017652Y004284D01*
X017720Y004216D01*
X017720Y004159D01*
X017389Y004490D01*
X016891Y004490D01*
X016640Y004239D01*
X016640Y004989D01*
X016564Y005173D01*
X016390Y005347D01*
X016390Y005656D01*
X016399Y005665D01*
X016490Y005886D01*
X016490Y006644D01*
X016399Y006865D01*
X016230Y007034D01*
X016009Y007125D01*
X015771Y007125D01*
X015550Y007034D01*
X015381Y006865D01*
X015290Y006644D01*
X015290Y005886D01*
X015381Y005665D01*
X015390Y005656D01*
X015390Y005041D01*
X015419Y004970D01*
X015249Y004800D01*
X015078Y004970D01*
X014930Y004970D01*
X014930Y004555D01*
X014850Y004555D01*
X014850Y004970D01*
X014702Y004970D01*
X014435Y004703D01*
X014435Y004555D01*
X014850Y004555D01*
X014850Y004475D01*
X014930Y004475D01*
X014930Y004060D01*
X015078Y004060D01*
X015249Y004230D01*
X015540Y003939D01*
X015540Y003516D01*
X015891Y003165D01*
X016389Y003165D01*
X016703Y003479D01*
X016791Y003390D01*
X016540Y003139D01*
X016540Y002641D01*
X016720Y002461D01*
X016720Y001829D01*
X016631Y001740D01*
X016540Y001519D01*
X016540Y001214D01*
X016389Y001365D01*
X015891Y001365D01*
X015540Y001014D01*
X015540Y000580D01*
X000580Y000580D01*
X000580Y000611D02*
X015540Y000611D01*
X015540Y000690D02*
X000580Y000690D01*
X000580Y000768D02*
X015540Y000768D01*
X015540Y000847D02*
X013889Y000847D01*
X013978Y000883D02*
X013759Y000793D01*
X013521Y000793D01*
X013302Y000883D01*
X013133Y001052D01*
X013043Y001271D01*
X013043Y001509D01*
X013133Y001728D01*
X013295Y001890D01*
X013133Y002052D01*
X013043Y002271D01*
X013043Y002509D01*
X013133Y002728D01*
X013302Y002897D01*
X013521Y002987D01*
X013759Y002987D01*
X013978Y002897D01*
X014147Y002728D01*
X014237Y002509D01*
X014237Y002271D01*
X014147Y002052D01*
X013985Y001890D01*
X014147Y001728D01*
X014237Y001509D01*
X014237Y001271D01*
X014147Y001052D01*
X013978Y000883D01*
X014020Y000925D02*
X015540Y000925D01*
X015540Y001004D02*
X014098Y001004D01*
X014159Y001082D02*
X015608Y001082D01*
X015687Y001161D02*
X014192Y001161D01*
X014224Y001239D02*
X015765Y001239D01*
X015844Y001318D02*
X014237Y001318D01*
X014237Y001396D02*
X016540Y001396D01*
X016540Y001318D02*
X016436Y001318D01*
X016515Y001239D02*
X016540Y001239D01*
X016540Y001475D02*
X014237Y001475D01*
X014219Y001553D02*
X016554Y001553D01*
X016586Y001632D02*
X014187Y001632D01*
X014154Y001710D02*
X016619Y001710D01*
X016680Y001789D02*
X014086Y001789D01*
X014008Y001867D02*
X016720Y001867D01*
X016720Y001946D02*
X014040Y001946D01*
X014119Y002024D02*
X016720Y002024D01*
X016720Y002103D02*
X014168Y002103D01*
X014200Y002181D02*
X016720Y002181D01*
X016720Y002260D02*
X014233Y002260D01*
X014237Y002338D02*
X016720Y002338D01*
X016720Y002417D02*
X014237Y002417D01*
X014237Y002495D02*
X016686Y002495D01*
X016608Y002574D02*
X014211Y002574D01*
X014178Y002652D02*
X016540Y002652D01*
X016540Y002731D02*
X014144Y002731D01*
X014066Y002809D02*
X016540Y002809D01*
X016540Y002888D02*
X013987Y002888D01*
X013811Y002966D02*
X016540Y002966D01*
X016540Y003045D02*
X007180Y003045D01*
X007180Y003055D02*
X007540Y003055D01*
X007540Y003181D01*
X007306Y003415D01*
X007180Y003415D01*
X007180Y003055D01*
X007180Y002975D01*
X007540Y002975D01*
X007540Y002849D01*
X007306Y002615D01*
X007180Y002615D01*
X007180Y002975D01*
X007100Y002975D01*
X007100Y002615D01*
X006974Y002615D01*
X006740Y002849D01*
X006740Y002975D01*
X007100Y002975D01*
X007100Y003055D01*
X007100Y003415D01*
X006974Y003415D01*
X006740Y003181D01*
X006740Y003055D01*
X007100Y003055D01*
X007180Y003055D01*
X007180Y003123D02*
X007100Y003123D01*
X007100Y003045D02*
X006740Y003045D01*
X006740Y003123D02*
X006740Y003123D01*
X006740Y003202D02*
X006761Y003202D01*
X006740Y003264D02*
X006389Y003615D01*
X005891Y003615D01*
X005540Y003264D01*
X005540Y002766D01*
X005891Y002415D01*
X006389Y002415D01*
X006740Y002766D01*
X006740Y003264D01*
X006724Y003280D02*
X006839Y003280D01*
X006918Y003359D02*
X006645Y003359D01*
X006567Y003437D02*
X015619Y003437D01*
X015541Y003516D02*
X006488Y003516D01*
X006410Y003594D02*
X015540Y003594D01*
X015540Y003673D02*
X003740Y003673D01*
X003740Y003751D02*
X015540Y003751D01*
X015540Y003830D02*
X003715Y003830D01*
X003709Y003845D02*
X004099Y003845D01*
X004253Y003909D01*
X004263Y003919D01*
X004266Y003915D01*
X004764Y003915D01*
X005015Y004166D01*
X005266Y003915D01*
X005764Y003915D01*
X005944Y004095D01*
X010211Y004095D01*
X010391Y003915D01*
X010889Y003915D01*
X011069Y004095D01*
X012461Y004095D01*
X012641Y003915D01*
X013139Y003915D01*
X013490Y004266D01*
X013490Y004521D01*
X014128Y005159D01*
X014246Y005277D01*
X014310Y005431D01*
X014310Y005576D01*
X014399Y005665D01*
X014490Y005886D01*
X014490Y006644D01*
X014399Y006865D01*
X014230Y007034D01*
X014009Y007125D01*
X013771Y007125D01*
X013550Y007034D01*
X013390Y006874D01*
X013310Y006954D01*
X013310Y008224D01*
X013246Y008378D01*
X013158Y008466D01*
X013230Y008496D01*
X013390Y008656D01*
X013550Y008496D01*
X013771Y008405D01*
X014009Y008405D01*
X014230Y008496D01*
X014399Y008665D01*
X014490Y008886D01*
X014490Y009644D01*
X014399Y009865D01*
X014390Y009874D01*
X014692Y009874D01*
X014701Y009879D02*
X014635Y009836D01*
X014579Y009780D01*
X014536Y009714D01*
X014505Y009642D01*
X014490Y009564D01*
X014490Y009305D01*
X014850Y009305D01*
X014850Y009925D01*
X014773Y009910D01*
X014701Y009879D01*
X014595Y009796D02*
X014427Y009796D01*
X014460Y009717D02*
X014537Y009717D01*
X014505Y009639D02*
X014490Y009639D01*
X014490Y009560D02*
X014490Y009560D01*
X014490Y009482D02*
X014490Y009482D01*
X014490Y009403D02*
X014490Y009403D01*
X014490Y009325D02*
X014490Y009325D01*
X014490Y009246D02*
X014850Y009246D01*
X014850Y009225D02*
X014490Y009225D01*
X014490Y008966D01*
X014505Y008888D01*
X014536Y008816D01*
X014579Y008750D01*
X014635Y008694D01*
X014701Y008651D01*
X014773Y008620D01*
X014850Y008605D01*
X014850Y009225D01*
X014930Y009225D01*
X014930Y009305D01*
X015290Y009305D01*
X015290Y009564D01*
X015275Y009642D01*
X015244Y009714D01*
X015201Y009780D01*
X015145Y009836D01*
X015079Y009879D01*
X015007Y009910D01*
X014930Y009925D01*
X014930Y009305D01*
X014850Y009305D01*
X014850Y009225D01*
X014850Y009168D02*
X014930Y009168D01*
X014930Y009225D02*
X014930Y008605D01*
X015007Y008620D01*
X015079Y008651D01*
X015145Y008694D01*
X015201Y008750D01*
X015244Y008816D01*
X015275Y008888D01*
X015290Y008966D01*
X015290Y009225D01*
X014930Y009225D01*
X014930Y009246D02*
X015290Y009246D01*
X015290Y009168D02*
X015290Y009168D01*
X015290Y009089D02*
X015290Y009089D01*
X015290Y009011D02*
X015290Y009011D01*
X015283Y008932D02*
X015290Y008932D01*
X015303Y008854D02*
X015260Y008854D01*
X015217Y008775D02*
X015336Y008775D01*
X015368Y008697D02*
X015147Y008697D01*
X014995Y008618D02*
X015428Y008618D01*
X015507Y008540D02*
X014273Y008540D01*
X014352Y008618D02*
X014785Y008618D01*
X014850Y008618D02*
X014930Y008618D01*
X014930Y008697D02*
X014850Y008697D01*
X014850Y008775D02*
X014930Y008775D01*
X014930Y008854D02*
X014850Y008854D01*
X014850Y008932D02*
X014930Y008932D01*
X014930Y009011D02*
X014850Y009011D01*
X014850Y009089D02*
X014930Y009089D01*
X014930Y009325D02*
X014850Y009325D01*
X014850Y009403D02*
X014930Y009403D01*
X014930Y009482D02*
X014850Y009482D01*
X014850Y009560D02*
X014930Y009560D01*
X014930Y009639D02*
X014850Y009639D01*
X014850Y009717D02*
X014930Y009717D01*
X014930Y009796D02*
X014850Y009796D01*
X014850Y009874D02*
X014930Y009874D01*
X015088Y009874D02*
X015391Y009874D01*
X015353Y009796D02*
X015185Y009796D01*
X015243Y009717D02*
X015320Y009717D01*
X015290Y009639D02*
X015275Y009639D01*
X015290Y009560D02*
X015290Y009560D01*
X015290Y009482D02*
X015290Y009482D01*
X015290Y009403D02*
X015290Y009403D01*
X015290Y009325D02*
X015290Y009325D01*
X015469Y009953D02*
X014390Y009953D01*
X014390Y009964D02*
X014545Y010119D01*
X014545Y010661D01*
X014161Y011045D01*
X013619Y011045D01*
X013390Y010816D01*
X013161Y011045D01*
X012619Y011045D01*
X012615Y011041D01*
X012615Y011389D01*
X012264Y011740D01*
X011766Y011740D01*
X011415Y011389D01*
X011415Y011310D01*
X011069Y011310D01*
X010889Y011490D01*
X010391Y011490D01*
X010140Y011239D01*
X009889Y011490D01*
X009391Y011490D01*
X009040Y011139D01*
X009040Y010641D01*
X009166Y010515D01*
X009040Y010389D01*
X009040Y009891D01*
X009112Y009819D01*
X009040Y009644D01*
X009040Y008886D01*
X009131Y008665D01*
X009300Y008496D01*
X009521Y008405D01*
X009759Y008405D01*
X009980Y008496D01*
X010140Y008656D01*
X010300Y008496D01*
X010521Y008405D01*
X010759Y008405D01*
X010980Y008496D01*
X011149Y008665D01*
X011240Y008886D01*
X011240Y009644D01*
X011168Y009819D01*
X011240Y009891D01*
X011240Y010389D01*
X011159Y010470D01*
X011216Y010470D01*
X011345Y010341D01*
X011345Y009181D01*
X011409Y009027D01*
X011527Y008909D01*
X011527Y008909D01*
X011696Y008740D01*
X011391Y008740D01*
X011040Y008389D01*
X011040Y007891D01*
X011391Y007540D01*
X011889Y007540D01*
X012240Y007891D01*
X012240Y008196D01*
X012470Y007966D01*
X012470Y006954D01*
X012381Y006865D01*
X012290Y006644D01*
X012290Y005886D01*
X012326Y005799D01*
X012290Y005764D01*
X012290Y005266D01*
X012541Y005015D01*
X012461Y004935D01*
X012240Y004935D01*
X012240Y005389D01*
X011889Y005740D01*
X011391Y005740D01*
X011240Y005589D01*
X011240Y005764D01*
X011204Y005799D01*
X011240Y005886D01*
X011240Y006644D01*
X011149Y006865D01*
X010980Y007034D01*
X010759Y007125D01*
X010521Y007125D01*
X010300Y007034D01*
X010140Y006874D01*
X009980Y007034D01*
X009759Y007125D01*
X009521Y007125D01*
X009300Y007034D01*
X009140Y006874D01*
X008980Y007034D01*
X008759Y007125D01*
X008521Y007125D01*
X008300Y007034D01*
X008140Y006874D01*
X007980Y007034D01*
X007759Y007125D01*
X007521Y007125D01*
X007300Y007034D01*
X007140Y006874D01*
X007060Y006954D01*
X007060Y007099D01*
X006996Y007253D01*
X006878Y007371D01*
X006378Y007871D01*
X006224Y007935D01*
X003698Y007935D01*
X003686Y007965D01*
X003590Y008061D01*
X003465Y008112D01*
X002815Y008112D01*
X002690Y008061D01*
X002594Y007965D01*
X002543Y007840D01*
X002543Y007190D01*
X002594Y007065D01*
X002690Y006969D01*
X002815Y006918D01*
X003465Y006918D01*
X003590Y006969D01*
X003686Y007065D01*
X003698Y007095D01*
X004448Y007095D01*
X004300Y007034D01*
X004131Y006865D01*
X004057Y006685D01*
X003556Y006685D01*
X003402Y006621D01*
X003363Y006582D01*
X003259Y006625D01*
X003021Y006625D01*
X002800Y006534D01*
X002640Y006374D01*
X002480Y006534D01*
X002259Y006625D01*
X002021Y006625D01*
X001800Y006534D01*
X001631Y006365D01*
X001540Y006144D01*
X001540Y005386D01*
X001631Y005165D01*
X001800Y004996D01*
X002021Y004905D01*
X002156Y004905D01*
X002392Y004669D01*
X002277Y004621D01*
X002159Y004503D01*
X001825Y004169D01*
X001800Y004159D01*
X001631Y003990D01*
X001540Y003769D01*
X001540Y003011D01*
X001631Y002790D01*
X001800Y002621D01*
X002021Y002530D01*
X002259Y002530D01*
X002480Y002621D01*
X002640Y002781D01*
X002800Y002621D01*
X003021Y002530D01*
X003259Y002530D01*
X003480Y002621D01*
X003649Y002790D01*
X003740Y003011D01*
X003740Y003769D01*
X003709Y003845D01*
X003740Y003594D02*
X005870Y003594D01*
X005792Y003516D02*
X003740Y003516D01*
X003740Y003437D02*
X005713Y003437D01*
X005635Y003359D02*
X003740Y003359D01*
X003740Y003280D02*
X005556Y003280D01*
X005540Y003202D02*
X003740Y003202D01*
X003740Y003123D02*
X005540Y003123D01*
X005540Y003045D02*
X003740Y003045D01*
X003722Y002966D02*
X005540Y002966D01*
X005540Y002888D02*
X003689Y002888D01*
X003656Y002809D02*
X005540Y002809D01*
X005576Y002731D02*
X003589Y002731D01*
X003511Y002652D02*
X005654Y002652D01*
X005733Y002574D02*
X003364Y002574D01*
X002916Y002574D02*
X002364Y002574D01*
X002511Y002652D02*
X002769Y002652D01*
X002691Y002731D02*
X002589Y002731D01*
X001916Y002574D02*
X000580Y002574D01*
X000580Y002652D02*
X001769Y002652D01*
X001691Y002731D02*
X001182Y002731D01*
X001180Y002731D02*
X001100Y002731D01*
X001100Y002730D02*
X001100Y003350D01*
X000740Y003350D01*
X000740Y003091D01*
X000755Y003013D01*
X000786Y002941D01*
X000829Y002875D01*
X000885Y002819D01*
X000951Y002776D01*
X001023Y002745D01*
X001100Y002730D01*
X001098Y002731D02*
X000580Y002731D01*
X000580Y002809D02*
X000900Y002809D01*
X000821Y002888D02*
X000580Y002888D01*
X000580Y002966D02*
X000775Y002966D01*
X000749Y003045D02*
X000580Y003045D01*
X000580Y003123D02*
X000740Y003123D01*
X000740Y003202D02*
X000580Y003202D01*
X000580Y003280D02*
X000740Y003280D01*
X000740Y003430D02*
X001100Y003430D01*
X001100Y004050D01*
X001023Y004035D01*
X000951Y004004D01*
X000885Y003961D01*
X000829Y003905D01*
X000786Y003839D01*
X000755Y003767D01*
X000740Y003689D01*
X000740Y003430D01*
X000740Y003437D02*
X000580Y003437D01*
X000580Y003359D02*
X001100Y003359D01*
X001100Y003350D02*
X001100Y003430D01*
X001180Y003430D01*
X001180Y004050D01*
X001257Y004035D01*
X001329Y004004D01*
X001395Y003961D01*
X001451Y003905D01*
X001494Y003839D01*
X001525Y003767D01*
X001540Y003689D01*
X001540Y003430D01*
X001180Y003430D01*
X001180Y003350D01*
X001540Y003350D01*
X001540Y003091D01*
X001525Y003013D01*
X001494Y002941D01*
X001451Y002875D01*
X001395Y002819D01*
X001329Y002776D01*
X001257Y002745D01*
X001180Y002730D01*
X001180Y003350D01*
X001100Y003350D01*
X001100Y003280D02*
X001180Y003280D01*
X001180Y003202D02*
X001100Y003202D01*
X001100Y003123D02*
X001180Y003123D01*
X001180Y003045D02*
X001100Y003045D01*
X001100Y002966D02*
X001180Y002966D01*
X001180Y002888D02*
X001100Y002888D01*
X001100Y002809D02*
X001180Y002809D01*
X001380Y002809D02*
X001624Y002809D01*
X001591Y002888D02*
X001459Y002888D01*
X001505Y002966D02*
X001558Y002966D01*
X001540Y003045D02*
X001531Y003045D01*
X001540Y003123D02*
X001540Y003123D01*
X001540Y003202D02*
X001540Y003202D01*
X001540Y003280D02*
X001540Y003280D01*
X001540Y003359D02*
X001180Y003359D01*
X001180Y003437D02*
X001100Y003437D01*
X001100Y003516D02*
X001180Y003516D01*
X001180Y003594D02*
X001100Y003594D01*
X001100Y003673D02*
X001180Y003673D01*
X001180Y003751D02*
X001100Y003751D01*
X001100Y003830D02*
X001180Y003830D01*
X001180Y003908D02*
X001100Y003908D01*
X001100Y003987D02*
X001180Y003987D01*
X001356Y003987D02*
X001630Y003987D01*
X001597Y003908D02*
X001448Y003908D01*
X001499Y003830D02*
X001565Y003830D01*
X001540Y003751D02*
X001528Y003751D01*
X001540Y003673D02*
X001540Y003673D01*
X001540Y003594D02*
X001540Y003594D01*
X001540Y003516D02*
X001540Y003516D01*
X001540Y003437D02*
X001540Y003437D01*
X001706Y004065D02*
X000580Y004065D01*
X000580Y003987D02*
X000924Y003987D01*
X000832Y003908D02*
X000580Y003908D01*
X000580Y003830D02*
X000781Y003830D01*
X000752Y003751D02*
X000580Y003751D01*
X000580Y003673D02*
X000740Y003673D01*
X000740Y003594D02*
X000580Y003594D01*
X000580Y003516D02*
X000740Y003516D01*
X000580Y004144D02*
X001785Y004144D01*
X001878Y004222D02*
X000580Y004222D01*
X000580Y004301D02*
X001957Y004301D01*
X002035Y004379D02*
X000580Y004379D01*
X000580Y004458D02*
X002114Y004458D01*
X002192Y004536D02*
X000580Y004536D01*
X000580Y004615D02*
X002271Y004615D01*
X002368Y004693D02*
X000580Y004693D01*
X000580Y004772D02*
X002290Y004772D01*
X002211Y004850D02*
X000580Y004850D01*
X000580Y004929D02*
X001964Y004929D01*
X001789Y005007D02*
X000580Y005007D01*
X000580Y005086D02*
X001711Y005086D01*
X001632Y005164D02*
X001350Y005164D01*
X001329Y005151D02*
X001395Y005194D01*
X001451Y005250D01*
X001494Y005316D01*
X001525Y005388D01*
X001540Y005466D01*
X001540Y005725D01*
X001180Y005725D01*
X001180Y005805D01*
X001100Y005805D01*
X001100Y006425D01*
X001023Y006410D01*
X000951Y006379D01*
X000885Y006336D01*
X000829Y006280D01*
X000786Y006214D01*
X000755Y006142D01*
X000740Y006064D01*
X000740Y005805D01*
X001100Y005805D01*
X001100Y005725D01*
X000740Y005725D01*
X000740Y005466D01*
X000755Y005388D01*
X000786Y005316D01*
X000829Y005250D01*
X000885Y005194D01*
X000951Y005151D01*
X001023Y005120D01*
X001100Y005105D01*
X001100Y005725D01*
X001180Y005725D01*
X001180Y005105D01*
X001257Y005120D01*
X001329Y005151D01*
X001443Y005243D02*
X001599Y005243D01*
X001567Y005321D02*
X001497Y005321D01*
X001527Y005400D02*
X001540Y005400D01*
X001540Y005478D02*
X001540Y005478D01*
X001540Y005557D02*
X001540Y005557D01*
X001540Y005635D02*
X001540Y005635D01*
X001540Y005714D02*
X001540Y005714D01*
X001540Y005792D02*
X001180Y005792D01*
X001180Y005805D02*
X001540Y005805D01*
X001540Y006064D01*
X001525Y006142D01*
X001494Y006214D01*
X001451Y006280D01*
X001395Y006336D01*
X001329Y006379D01*
X001257Y006410D01*
X001180Y006425D01*
X001180Y005805D01*
X001180Y005871D02*
X001100Y005871D01*
X001100Y005949D02*
X001180Y005949D01*
X001180Y006028D02*
X001100Y006028D01*
X001100Y006106D02*
X001180Y006106D01*
X001180Y006185D02*
X001100Y006185D01*
X001100Y006263D02*
X001180Y006263D01*
X001180Y006342D02*
X001100Y006342D01*
X001100Y006420D02*
X001180Y006420D01*
X001204Y006420D02*
X001686Y006420D01*
X001622Y006342D02*
X001386Y006342D01*
X001462Y006263D02*
X001589Y006263D01*
X001557Y006185D02*
X001507Y006185D01*
X001532Y006106D02*
X001540Y006106D01*
X001540Y006028D02*
X001540Y006028D01*
X001540Y005949D02*
X001540Y005949D01*
X001540Y005871D02*
X001540Y005871D01*
X001180Y005714D02*
X001100Y005714D01*
X001100Y005792D02*
X000580Y005792D01*
X000580Y005714D02*
X000740Y005714D01*
X000740Y005635D02*
X000580Y005635D01*
X000580Y005557D02*
X000740Y005557D01*
X000740Y005478D02*
X000580Y005478D01*
X000580Y005400D02*
X000753Y005400D01*
X000783Y005321D02*
X000580Y005321D01*
X000580Y005243D02*
X000837Y005243D01*
X000930Y005164D02*
X000580Y005164D01*
X001100Y005164D02*
X001180Y005164D01*
X001180Y005243D02*
X001100Y005243D01*
X001100Y005321D02*
X001180Y005321D01*
X001180Y005400D02*
X001100Y005400D01*
X001100Y005478D02*
X001180Y005478D01*
X001180Y005557D02*
X001100Y005557D01*
X001100Y005635D02*
X001180Y005635D01*
X000740Y005871D02*
X000580Y005871D01*
X000580Y005949D02*
X000740Y005949D01*
X000740Y006028D02*
X000580Y006028D01*
X000580Y006106D02*
X000748Y006106D01*
X000773Y006185D02*
X000580Y006185D01*
X000580Y006263D02*
X000818Y006263D01*
X000894Y006342D02*
X000580Y006342D01*
X000580Y006420D02*
X001076Y006420D01*
X000580Y006499D02*
X001765Y006499D01*
X001905Y006577D02*
X000580Y006577D01*
X000580Y006656D02*
X003485Y006656D01*
X003590Y006970D02*
X004236Y006970D01*
X004157Y006891D02*
X000580Y006891D01*
X000580Y006813D02*
X004110Y006813D01*
X004077Y006734D02*
X000580Y006734D01*
X000580Y006970D02*
X002690Y006970D01*
X002611Y007048D02*
X000580Y007048D01*
X000580Y007127D02*
X000830Y007127D01*
X000828Y007127D02*
X000864Y007118D01*
X001101Y007118D01*
X001101Y007476D01*
X000743Y007476D01*
X000743Y007239D01*
X000752Y007203D01*
X000770Y007172D01*
X000797Y007145D01*
X000828Y007127D01*
X000752Y007205D02*
X000580Y007205D01*
X000580Y007284D02*
X000743Y007284D01*
X000743Y007362D02*
X000580Y007362D01*
X000580Y007441D02*
X000743Y007441D01*
X000743Y007554D02*
X001101Y007554D01*
X001101Y007912D01*
X001179Y007912D01*
X001179Y007554D01*
X001101Y007554D01*
X001101Y007476D01*
X001179Y007476D01*
X001179Y007554D01*
X001537Y007554D01*
X001537Y007791D01*
X001528Y007827D01*
X001510Y007858D01*
X001483Y007885D01*
X001452Y007903D01*
X001416Y007912D01*
X001179Y007912D01*
X001101Y007912D02*
X000864Y007912D01*
X000828Y007903D01*
X000797Y007885D01*
X000770Y007858D01*
X000752Y007827D01*
X000743Y007791D01*
X000743Y007554D01*
X000743Y007598D02*
X000580Y007598D01*
X000580Y007676D02*
X000743Y007676D01*
X000743Y007755D02*
X000580Y007755D01*
X000580Y007833D02*
X000756Y007833D01*
X000861Y007912D02*
X000580Y007912D01*
X000580Y007990D02*
X002619Y007990D01*
X002572Y007912D02*
X002419Y007912D01*
X002416Y007912D02*
X002179Y007912D01*
X002101Y007912D01*
X001864Y007912D01*
X001828Y007903D01*
X001797Y007885D01*
X001770Y007858D01*
X001752Y007827D01*
X001743Y007791D01*
X001743Y007554D01*
X002101Y007554D01*
X002101Y007912D01*
X002179Y007912D02*
X002179Y007554D01*
X002101Y007554D01*
X002101Y007476D01*
X001743Y007476D01*
X001743Y007239D01*
X001752Y007203D01*
X001770Y007172D01*
X001797Y007145D01*
X001828Y007127D01*
X001864Y007118D01*
X002101Y007118D01*
X002101Y007476D01*
X002179Y007476D01*
X002179Y007554D01*
X002537Y007554D01*
X002537Y007791D01*
X002528Y007827D01*
X002510Y007858D01*
X002483Y007885D01*
X002452Y007903D01*
X002416Y007912D01*
X002524Y007833D02*
X002543Y007833D01*
X002537Y007755D02*
X002543Y007755D01*
X002537Y007676D02*
X002543Y007676D01*
X002537Y007598D02*
X002543Y007598D01*
X002543Y007519D02*
X002179Y007519D01*
X002179Y007476D02*
X002537Y007476D01*
X002537Y007239D01*
X002528Y007203D01*
X002510Y007172D01*
X002483Y007145D01*
X002452Y007127D01*
X002416Y007118D01*
X002179Y007118D01*
X002179Y007476D01*
X002179Y007441D02*
X002101Y007441D01*
X002101Y007519D02*
X001179Y007519D01*
X001179Y007476D02*
X001537Y007476D01*
X001537Y007239D01*
X001528Y007203D01*
X001510Y007172D01*
X001483Y007145D01*
X001452Y007127D01*
X001416Y007118D01*
X001179Y007118D01*
X001179Y007476D01*
X001179Y007441D02*
X001101Y007441D01*
X001101Y007519D02*
X000580Y007519D01*
X001101Y007598D02*
X001179Y007598D01*
X001179Y007676D02*
X001101Y007676D01*
X001101Y007755D02*
X001179Y007755D01*
X001179Y007833D02*
X001101Y007833D01*
X001419Y007912D02*
X001861Y007912D01*
X001756Y007833D02*
X001524Y007833D01*
X001537Y007755D02*
X001743Y007755D01*
X001743Y007676D02*
X001537Y007676D01*
X001537Y007598D02*
X001743Y007598D01*
X001743Y007441D02*
X001537Y007441D01*
X001537Y007362D02*
X001743Y007362D01*
X001743Y007284D02*
X001537Y007284D01*
X001528Y007205D02*
X001752Y007205D01*
X001830Y007127D02*
X001450Y007127D01*
X001179Y007127D02*
X001101Y007127D01*
X001101Y007205D02*
X001179Y007205D01*
X001179Y007284D02*
X001101Y007284D01*
X001101Y007362D02*
X001179Y007362D01*
X000580Y008069D02*
X002709Y008069D01*
X002710Y008461D02*
X000580Y008461D01*
X000580Y008383D02*
X011040Y008383D01*
X011040Y008304D02*
X000580Y008304D01*
X000580Y008226D02*
X011040Y008226D01*
X011040Y008147D02*
X000580Y008147D01*
X000580Y008540D02*
X002620Y008540D01*
X002572Y008618D02*
X002418Y008618D01*
X002416Y008618D02*
X002452Y008627D01*
X002483Y008645D01*
X002510Y008672D01*
X002528Y008703D01*
X002537Y008739D01*
X002537Y008976D01*
X002179Y008976D01*
X002179Y009054D01*
X002101Y009054D01*
X002101Y009412D01*
X001864Y009412D01*
X001828Y009403D01*
X001797Y009385D01*
X001770Y009358D01*
X001752Y009327D01*
X001743Y009291D01*
X001743Y009054D01*
X002101Y009054D01*
X002101Y008976D01*
X001743Y008976D01*
X001743Y008739D01*
X001752Y008703D01*
X001770Y008672D01*
X001797Y008645D01*
X001828Y008627D01*
X001864Y008618D01*
X002101Y008618D01*
X002179Y008618D01*
X002416Y008618D01*
X002524Y008697D02*
X002543Y008697D01*
X002537Y008775D02*
X002543Y008775D01*
X002537Y008854D02*
X002543Y008854D01*
X002537Y008932D02*
X002543Y008932D01*
X002543Y009011D02*
X002179Y009011D01*
X002179Y008976D02*
X002179Y008618D01*
X002101Y008618D02*
X002101Y008976D01*
X002179Y008976D01*
X002179Y008932D02*
X002101Y008932D01*
X002101Y008854D02*
X002179Y008854D01*
X002179Y008775D02*
X002101Y008775D01*
X002101Y008697D02*
X002179Y008697D01*
X002101Y009011D02*
X001179Y009011D01*
X001179Y008976D02*
X001179Y009054D01*
X001101Y009054D01*
X001101Y009412D01*
X000864Y009412D01*
X000828Y009403D01*
X000797Y009385D01*
X000770Y009358D01*
X000752Y009327D01*
X000743Y009291D01*
X000743Y009054D01*
X001101Y009054D01*
X001101Y008976D01*
X000743Y008976D01*
X000743Y008739D01*
X000752Y008703D01*
X000770Y008672D01*
X000797Y008645D01*
X000828Y008627D01*
X000864Y008618D01*
X001101Y008618D01*
X001179Y008618D01*
X001416Y008618D01*
X001452Y008627D01*
X001483Y008645D01*
X001510Y008672D01*
X001528Y008703D01*
X001537Y008739D01*
X001537Y008976D01*
X001179Y008976D01*
X001179Y008618D01*
X001101Y008618D02*
X001101Y008976D01*
X001179Y008976D01*
X001179Y008932D02*
X001101Y008932D01*
X001101Y008854D02*
X001179Y008854D01*
X001179Y008775D02*
X001101Y008775D01*
X001101Y008697D02*
X001179Y008697D01*
X001101Y009011D02*
X000580Y009011D01*
X000580Y009089D02*
X000743Y009089D01*
X000743Y009168D02*
X000580Y009168D01*
X000580Y009246D02*
X000743Y009246D01*
X000752Y009325D02*
X000580Y009325D01*
X000580Y009403D02*
X000829Y009403D01*
X001101Y009403D02*
X001179Y009403D01*
X001179Y009412D02*
X001179Y009054D01*
X001537Y009054D01*
X001537Y009291D01*
X001528Y009327D01*
X001510Y009358D01*
X001483Y009385D01*
X001452Y009403D01*
X001416Y009412D01*
X001179Y009412D01*
X001179Y009325D02*
X001101Y009325D01*
X001101Y009246D02*
X001179Y009246D01*
X001179Y009168D02*
X001101Y009168D01*
X001101Y009089D02*
X001179Y009089D01*
X001537Y009089D02*
X001743Y009089D01*
X001743Y009168D02*
X001537Y009168D01*
X001537Y009246D02*
X001743Y009246D01*
X001752Y009325D02*
X001528Y009325D01*
X001451Y009403D02*
X001829Y009403D01*
X002101Y009403D02*
X002179Y009403D01*
X002179Y009412D02*
X002179Y009054D01*
X002537Y009054D01*
X002537Y009291D01*
X002528Y009327D01*
X002510Y009358D01*
X002483Y009385D01*
X002452Y009403D01*
X002416Y009412D01*
X002179Y009412D01*
X002179Y009325D02*
X002101Y009325D01*
X002101Y009246D02*
X002179Y009246D01*
X002179Y009168D02*
X002101Y009168D01*
X002101Y009089D02*
X002179Y009089D01*
X002537Y009089D02*
X002543Y009089D01*
X002537Y009168D02*
X002543Y009168D01*
X002537Y009246D02*
X002543Y009246D01*
X002543Y009325D02*
X002528Y009325D01*
X002569Y009403D02*
X002451Y009403D01*
X002611Y009482D02*
X000580Y009482D01*
X000580Y009560D02*
X002689Y009560D01*
X002720Y009639D02*
X000580Y009639D01*
X000580Y009717D02*
X002720Y009717D01*
X002720Y009796D02*
X000580Y009796D01*
X000580Y009874D02*
X002720Y009874D01*
X002720Y009953D02*
X002374Y009953D01*
X002515Y010031D02*
X002720Y010031D01*
X002687Y010110D02*
X002593Y010110D01*
X001906Y009953D02*
X000580Y009953D01*
X000580Y010031D02*
X001765Y010031D01*
X001687Y010110D02*
X001202Y010110D01*
X001180Y010110D02*
X001100Y010110D01*
X001100Y010105D02*
X001100Y010725D01*
X000740Y010725D01*
X000740Y010466D01*
X000755Y010388D01*
X000786Y010316D01*
X000829Y010250D01*
X000885Y010194D01*
X000951Y010151D01*
X001023Y010120D01*
X001100Y010105D01*
X001078Y010110D02*
X000580Y010110D01*
X000580Y010188D02*
X000894Y010188D01*
X000818Y010267D02*
X000580Y010267D01*
X000580Y010345D02*
X000773Y010345D01*
X000748Y010424D02*
X000580Y010424D01*
X000580Y010502D02*
X000740Y010502D01*
X000740Y010581D02*
X000580Y010581D01*
X000580Y010659D02*
X000740Y010659D01*
X000740Y010805D02*
X001100Y010805D01*
X001100Y011425D01*
X001023Y011410D01*
X000951Y011379D01*
X000885Y011336D01*
X000829Y011280D01*
X000786Y011214D01*
X000755Y011142D01*
X000740Y011064D01*
X000740Y010805D01*
X000740Y010816D02*
X000580Y010816D01*
X000580Y010738D02*
X001100Y010738D01*
X001100Y010725D02*
X001100Y010805D01*
X001180Y010805D01*
X001180Y011425D01*
X001257Y011410D01*
X001329Y011379D01*
X001395Y011336D01*
X001451Y011280D01*
X001494Y011214D01*
X001525Y011142D01*
X001540Y011064D01*
X001540Y010805D01*
X001180Y010805D01*
X001180Y010725D01*
X001540Y010725D01*
X001540Y010466D01*
X001525Y010388D01*
X001494Y010316D01*
X001451Y010250D01*
X001395Y010194D01*
X001329Y010151D01*
X001257Y010120D01*
X001180Y010105D01*
X001180Y010725D01*
X001100Y010725D01*
X001100Y010659D02*
X001180Y010659D01*
X001180Y010581D02*
X001100Y010581D01*
X001100Y010502D02*
X001180Y010502D01*
X001180Y010424D02*
X001100Y010424D01*
X001100Y010345D02*
X001180Y010345D01*
X001180Y010267D02*
X001100Y010267D01*
X001100Y010188D02*
X001180Y010188D01*
X001386Y010188D02*
X001622Y010188D01*
X001589Y010267D02*
X001462Y010267D01*
X001507Y010345D02*
X001557Y010345D01*
X001540Y010424D02*
X001532Y010424D01*
X001540Y010502D02*
X001540Y010502D01*
X001540Y010581D02*
X001540Y010581D01*
X001540Y010659D02*
X001540Y010659D01*
X001540Y010738D02*
X001180Y010738D01*
X001180Y010816D02*
X001100Y010816D01*
X001100Y010895D02*
X001180Y010895D01*
X001180Y010973D02*
X001100Y010973D01*
X001100Y011052D02*
X001180Y011052D01*
X001180Y011130D02*
X001100Y011130D01*
X001100Y011209D02*
X001180Y011209D01*
X001180Y011287D02*
X001100Y011287D01*
X001100Y011366D02*
X001180Y011366D01*
X001350Y011366D02*
X001632Y011366D01*
X001599Y011287D02*
X001444Y011287D01*
X001497Y011209D02*
X001567Y011209D01*
X001540Y011130D02*
X001527Y011130D01*
X001540Y011052D02*
X001540Y011052D01*
X001540Y010973D02*
X001540Y010973D01*
X001540Y010895D02*
X001540Y010895D01*
X001540Y010816D02*
X001540Y010816D01*
X000930Y011366D02*
X000580Y011366D01*
X000580Y011444D02*
X001711Y011444D01*
X001789Y011523D02*
X000580Y011523D01*
X000580Y011601D02*
X001882Y011601D01*
X001961Y011680D02*
X000580Y011680D01*
X000580Y011758D02*
X002039Y011758D01*
X002118Y011837D02*
X000580Y011837D01*
X000580Y011915D02*
X002196Y011915D01*
X001666Y011994D02*
X000580Y011994D01*
X000580Y012072D02*
X001591Y012072D01*
X001559Y012151D02*
X001488Y012151D01*
X001483Y012145D02*
X001510Y012172D01*
X001528Y012203D01*
X001537Y012239D01*
X001537Y012476D01*
X001179Y012476D01*
X001179Y012554D01*
X001101Y012554D01*
X001101Y012912D01*
X000864Y012912D01*
X000828Y012903D01*
X000797Y012885D01*
X000770Y012858D01*
X000752Y012827D01*
X000743Y012791D01*
X000743Y012554D01*
X001101Y012554D01*
X001101Y012476D01*
X000743Y012476D01*
X000743Y012239D01*
X000752Y012203D01*
X000770Y012172D01*
X000797Y012145D01*
X000828Y012127D01*
X000864Y012118D01*
X001101Y012118D01*
X001101Y012476D01*
X001179Y012476D01*
X001179Y012118D01*
X001416Y012118D01*
X001452Y012127D01*
X001483Y012145D01*
X001535Y012229D02*
X001543Y012229D01*
X001537Y012308D02*
X001543Y012308D01*
X001537Y012386D02*
X001543Y012386D01*
X001537Y012465D02*
X001543Y012465D01*
X001543Y012543D02*
X001179Y012543D01*
X001179Y012554D02*
X001537Y012554D01*
X001537Y012791D01*
X001528Y012827D01*
X001510Y012858D01*
X001483Y012885D01*
X001452Y012903D01*
X001416Y012912D01*
X001179Y012912D01*
X001179Y012554D01*
X001179Y012622D02*
X001101Y012622D01*
X001101Y012700D02*
X001179Y012700D01*
X001179Y012779D02*
X001101Y012779D01*
X001101Y012857D02*
X001179Y012857D01*
X001101Y012543D02*
X000580Y012543D01*
X000580Y012465D02*
X000743Y012465D01*
X000743Y012386D02*
X000580Y012386D01*
X000580Y012308D02*
X000743Y012308D01*
X000745Y012229D02*
X000580Y012229D01*
X000580Y012151D02*
X000792Y012151D01*
X001101Y012151D02*
X001179Y012151D01*
X001179Y012229D02*
X001101Y012229D01*
X001101Y012308D02*
X001179Y012308D01*
X001179Y012386D02*
X001101Y012386D01*
X001101Y012465D02*
X001179Y012465D01*
X001537Y012622D02*
X001543Y012622D01*
X001537Y012700D02*
X001543Y012700D01*
X001537Y012779D02*
X001543Y012779D01*
X001550Y012857D02*
X001510Y012857D01*
X001582Y012936D02*
X000580Y012936D01*
X000580Y013014D02*
X001643Y013014D01*
X001767Y013093D02*
X000580Y013093D01*
X000580Y013171D02*
X006890Y013171D01*
X006968Y013093D02*
X003513Y013093D01*
X003637Y013014D02*
X007047Y013014D01*
X007125Y012936D02*
X003698Y012936D01*
X003730Y012857D02*
X007182Y012857D01*
X007103Y012779D02*
X003737Y012779D01*
X003737Y012700D02*
X007025Y012700D01*
X006975Y012622D02*
X003737Y012622D01*
X003737Y012543D02*
X006975Y012543D01*
X006975Y012465D02*
X003737Y012465D01*
X003737Y012386D02*
X006975Y012386D01*
X006975Y012308D02*
X003737Y012308D01*
X003737Y012229D02*
X006975Y012229D01*
X006975Y012151D02*
X006307Y012151D01*
X006427Y012072D02*
X007011Y012072D01*
X007089Y011994D02*
X006505Y011994D01*
X006584Y011915D02*
X007168Y011915D01*
X007220Y011837D02*
X006662Y011837D01*
X006741Y011758D02*
X007220Y011758D01*
X007220Y011680D02*
X006819Y011680D01*
X006898Y011601D02*
X007220Y011601D01*
X007220Y011523D02*
X006976Y011523D01*
X007020Y011444D02*
X007220Y011444D01*
X007220Y011366D02*
X007053Y011366D01*
X007060Y011287D02*
X007220Y011287D01*
X007220Y011209D02*
X007060Y011209D01*
X007060Y011130D02*
X007157Y011130D01*
X007078Y011052D02*
X007060Y011052D01*
X008060Y011209D02*
X009110Y011209D01*
X009040Y011130D02*
X008841Y011130D01*
X008806Y011165D02*
X008680Y011165D01*
X008680Y010805D01*
X009040Y010805D01*
X009040Y010931D01*
X008806Y011165D01*
X008680Y011130D02*
X008600Y011130D01*
X008600Y011165D02*
X008474Y011165D01*
X008240Y010931D01*
X008240Y010805D01*
X008600Y010805D01*
X008600Y011165D01*
X008600Y011052D02*
X008680Y011052D01*
X008680Y010973D02*
X008600Y010973D01*
X008600Y010895D02*
X008680Y010895D01*
X008680Y010816D02*
X008600Y010816D01*
X008600Y010805D02*
X008680Y010805D01*
X008680Y010725D01*
X009040Y010725D01*
X009040Y010599D01*
X008806Y010365D01*
X008680Y010365D01*
X008680Y010725D01*
X008600Y010725D01*
X008600Y010365D01*
X008474Y010365D01*
X008240Y010599D01*
X008240Y010725D01*
X008600Y010725D01*
X008600Y010805D01*
X008600Y010738D02*
X008240Y010738D01*
X008240Y010816D02*
X008240Y010816D01*
X008240Y010895D02*
X008240Y010895D01*
X008240Y010973D02*
X008282Y010973D01*
X008361Y011052D02*
X008202Y011052D01*
X008123Y011130D02*
X008439Y011130D01*
X008060Y011287D02*
X009189Y011287D01*
X009267Y011366D02*
X008060Y011366D01*
X008060Y011444D02*
X009346Y011444D01*
X009040Y011052D02*
X008919Y011052D01*
X008998Y010973D02*
X009040Y010973D01*
X009040Y010895D02*
X009040Y010895D01*
X009040Y010816D02*
X009040Y010816D01*
X009040Y010738D02*
X008680Y010738D01*
X008680Y010659D02*
X008600Y010659D01*
X008600Y010581D02*
X008680Y010581D01*
X008680Y010502D02*
X008600Y010502D01*
X008600Y010424D02*
X008680Y010424D01*
X008864Y010424D02*
X009075Y010424D01*
X009040Y010345D02*
X008069Y010345D01*
X008060Y010267D02*
X009040Y010267D01*
X009040Y010188D02*
X008060Y010188D01*
X008060Y010110D02*
X009040Y010110D01*
X009040Y010031D02*
X008060Y010031D01*
X008061Y009953D02*
X009040Y009953D01*
X009057Y009874D02*
X008838Y009874D01*
X008829Y009879D02*
X008757Y009910D01*
X008680Y009925D01*
X008680Y009305D01*
X009040Y009305D01*
X009040Y009564D01*
X009025Y009642D01*
X008994Y009714D01*
X008951Y009780D01*
X008895Y009836D01*
X008829Y009879D01*
X008935Y009796D02*
X009103Y009796D01*
X009070Y009717D02*
X008993Y009717D01*
X009025Y009639D02*
X009040Y009639D01*
X009040Y009560D02*
X009040Y009560D01*
X009040Y009482D02*
X009040Y009482D01*
X009040Y009403D02*
X009040Y009403D01*
X009040Y009325D02*
X009040Y009325D01*
X009040Y009246D02*
X008680Y009246D01*
X008680Y009225D02*
X008680Y009305D01*
X008600Y009305D01*
X008600Y009925D01*
X008523Y009910D01*
X008451Y009879D01*
X008385Y009836D01*
X008329Y009780D01*
X008286Y009714D01*
X008255Y009642D01*
X008240Y009564D01*
X008240Y009305D01*
X008600Y009305D01*
X008600Y009225D01*
X008680Y009225D01*
X009040Y009225D01*
X009040Y008966D01*
X009025Y008888D01*
X008994Y008816D01*
X008951Y008750D01*
X008895Y008694D01*
X008829Y008651D01*
X008757Y008620D01*
X008680Y008605D01*
X008680Y009225D01*
X008680Y009168D02*
X008600Y009168D01*
X008600Y009225D02*
X008600Y008605D01*
X008523Y008620D01*
X008451Y008651D01*
X008385Y008694D01*
X008329Y008750D01*
X008286Y008816D01*
X008255Y008888D01*
X008240Y008966D01*
X008240Y009225D01*
X008600Y009225D01*
X008600Y009246D02*
X008240Y009246D01*
X008240Y009168D02*
X008240Y009168D01*
X008240Y009089D02*
X008240Y009089D01*
X008240Y009011D02*
X008240Y009011D01*
X008240Y008932D02*
X008247Y008932D01*
X008227Y008854D02*
X008270Y008854D01*
X008313Y008775D02*
X008194Y008775D01*
X008162Y008697D02*
X008383Y008697D01*
X008535Y008618D02*
X008102Y008618D01*
X008023Y008540D02*
X009257Y008540D01*
X009178Y008618D02*
X008745Y008618D01*
X008680Y008618D02*
X008600Y008618D01*
X008600Y008697D02*
X008680Y008697D01*
X008680Y008775D02*
X008600Y008775D01*
X008600Y008854D02*
X008680Y008854D01*
X008680Y008932D02*
X008600Y008932D01*
X008600Y009011D02*
X008680Y009011D01*
X008680Y009089D02*
X008600Y009089D01*
X008600Y009325D02*
X008680Y009325D01*
X008680Y009403D02*
X008600Y009403D01*
X008600Y009482D02*
X008680Y009482D01*
X008680Y009560D02*
X008600Y009560D01*
X008600Y009639D02*
X008680Y009639D01*
X008680Y009717D02*
X008600Y009717D01*
X008600Y009796D02*
X008680Y009796D01*
X008680Y009874D02*
X008600Y009874D01*
X008442Y009874D02*
X008139Y009874D01*
X008177Y009796D02*
X008345Y009796D01*
X008287Y009717D02*
X008210Y009717D01*
X008240Y009639D02*
X008255Y009639D01*
X008240Y009560D02*
X008240Y009560D01*
X008240Y009482D02*
X008240Y009482D01*
X008240Y009403D02*
X008240Y009403D01*
X008240Y009325D02*
X008240Y009325D01*
X008897Y008697D02*
X009118Y008697D01*
X009086Y008775D02*
X008967Y008775D01*
X009010Y008854D02*
X009053Y008854D01*
X009040Y008932D02*
X009033Y008932D01*
X009040Y009011D02*
X009040Y009011D01*
X009040Y009089D02*
X009040Y009089D01*
X009040Y009168D02*
X009040Y009168D01*
X009385Y008461D02*
X007895Y008461D01*
X007385Y008461D02*
X006895Y008461D01*
X007023Y008540D02*
X007257Y008540D01*
X007178Y008618D02*
X007102Y008618D01*
X006385Y008461D02*
X005895Y008461D01*
X006023Y008540D02*
X006257Y008540D01*
X006178Y008618D02*
X006102Y008618D01*
X006280Y007912D02*
X011040Y007912D01*
X011040Y007990D02*
X003661Y007990D01*
X003571Y008069D02*
X011040Y008069D01*
X011098Y007833D02*
X006416Y007833D01*
X006494Y007755D02*
X011177Y007755D01*
X011255Y007676D02*
X006573Y007676D01*
X006651Y007598D02*
X011334Y007598D01*
X010945Y007048D02*
X012470Y007048D01*
X012470Y006970D02*
X011044Y006970D01*
X011123Y006891D02*
X012407Y006891D01*
X012360Y006813D02*
X011170Y006813D01*
X011203Y006734D02*
X012327Y006734D01*
X012295Y006656D02*
X011235Y006656D01*
X011240Y006577D02*
X012290Y006577D01*
X012290Y006499D02*
X011240Y006499D01*
X011240Y006420D02*
X012290Y006420D01*
X012290Y006342D02*
X011240Y006342D01*
X011240Y006263D02*
X012290Y006263D01*
X012290Y006185D02*
X011240Y006185D01*
X011240Y006106D02*
X012290Y006106D01*
X012290Y006028D02*
X011240Y006028D01*
X011240Y005949D02*
X012290Y005949D01*
X012296Y005871D02*
X011234Y005871D01*
X011212Y005792D02*
X012318Y005792D01*
X012290Y005714D02*
X011915Y005714D01*
X011994Y005635D02*
X012290Y005635D01*
X012290Y005557D02*
X012072Y005557D01*
X012151Y005478D02*
X012290Y005478D01*
X012290Y005400D02*
X012229Y005400D01*
X012240Y005321D02*
X012290Y005321D01*
X012314Y005243D02*
X012240Y005243D01*
X012240Y005164D02*
X012392Y005164D01*
X012471Y005086D02*
X012240Y005086D01*
X012240Y005007D02*
X012533Y005007D01*
X012491Y004065D02*
X011039Y004065D01*
X010960Y003987D02*
X012570Y003987D01*
X013210Y003987D02*
X015492Y003987D01*
X015540Y003908D02*
X004251Y003908D01*
X004835Y003987D02*
X005195Y003987D01*
X005116Y004065D02*
X004914Y004065D01*
X004992Y004144D02*
X005038Y004144D01*
X005835Y003987D02*
X010320Y003987D01*
X010241Y004065D02*
X005914Y004065D01*
X006740Y002966D02*
X006740Y002966D01*
X006740Y002888D02*
X006740Y002888D01*
X006740Y002809D02*
X006780Y002809D01*
X006704Y002731D02*
X006859Y002731D01*
X006937Y002652D02*
X006626Y002652D01*
X006547Y002574D02*
X009069Y002574D01*
X009043Y002509D02*
X009043Y002271D01*
X009133Y002052D01*
X009295Y001890D01*
X009133Y001728D01*
X009043Y001509D01*
X009043Y001271D01*
X009133Y001052D01*
X009302Y000883D01*
X009521Y000793D01*
X009759Y000793D01*
X009978Y000883D01*
X010147Y001052D01*
X010237Y001271D01*
X010237Y001509D01*
X010147Y001728D01*
X009985Y001890D01*
X010147Y002052D01*
X010237Y002271D01*
X010237Y002509D01*
X010147Y002728D01*
X009978Y002897D01*
X009759Y002987D01*
X009521Y002987D01*
X009302Y002897D01*
X009133Y002728D01*
X009043Y002509D01*
X009043Y002495D02*
X006469Y002495D01*
X006390Y002417D02*
X009043Y002417D01*
X009043Y002338D02*
X000580Y002338D01*
X000580Y002260D02*
X009047Y002260D01*
X009080Y002181D02*
X000580Y002181D01*
X000580Y002103D02*
X009112Y002103D01*
X009161Y002024D02*
X000580Y002024D01*
X000580Y001946D02*
X009240Y001946D01*
X009272Y001867D02*
X000580Y001867D01*
X000580Y001789D02*
X009194Y001789D01*
X009126Y001710D02*
X000580Y001710D01*
X000580Y001632D02*
X009093Y001632D01*
X009061Y001553D02*
X000580Y001553D01*
X000580Y001475D02*
X009043Y001475D01*
X009043Y001396D02*
X000580Y001396D01*
X000580Y001318D02*
X009043Y001318D01*
X009056Y001239D02*
X000580Y001239D01*
X000580Y001161D02*
X009088Y001161D01*
X009121Y001082D02*
X000580Y001082D01*
X000580Y001004D02*
X009182Y001004D01*
X009260Y000925D02*
X000580Y000925D01*
X000580Y000847D02*
X009391Y000847D01*
X009889Y000847D02*
X013391Y000847D01*
X013260Y000925D02*
X010020Y000925D01*
X010098Y001004D02*
X010546Y001004D01*
X010524Y001008D02*
X010601Y000993D01*
X010601Y000993D01*
X010601Y001351D01*
X010243Y001351D01*
X010258Y001274D01*
X010288Y001202D01*
X010331Y001137D01*
X010387Y001081D01*
X010452Y001038D01*
X010524Y001008D01*
X010601Y001004D02*
X010679Y001004D01*
X010679Y000993D02*
X010756Y001008D01*
X010828Y001038D01*
X010893Y001081D01*
X010949Y001137D01*
X010992Y001202D01*
X011022Y001274D01*
X011037Y001351D01*
X011037Y001351D01*
X010679Y001351D01*
X010679Y001429D01*
X010601Y001429D01*
X010601Y001787D01*
X010524Y001772D01*
X010452Y001742D01*
X010387Y001699D01*
X010331Y001643D01*
X010288Y001578D01*
X010258Y001506D01*
X010243Y001429D01*
X010243Y001429D01*
X010601Y001429D01*
X010601Y001351D01*
X010679Y001351D01*
X010679Y000993D01*
X010679Y000993D01*
X010734Y001004D02*
X011546Y001004D01*
X011524Y001008D02*
X011601Y000993D01*
X011601Y000993D01*
X011601Y001351D01*
X011243Y001351D01*
X011258Y001274D01*
X011288Y001202D01*
X011331Y001137D01*
X011387Y001081D01*
X011452Y001038D01*
X011524Y001008D01*
X011601Y001004D02*
X011679Y001004D01*
X011679Y000993D02*
X011756Y001008D01*
X011828Y001038D01*
X011893Y001081D01*
X011949Y001137D01*
X011992Y001202D01*
X012022Y001274D01*
X012037Y001351D01*
X012037Y001351D01*
X011679Y001351D01*
X011679Y001429D01*
X011601Y001429D01*
X011601Y001787D01*
X011524Y001772D01*
X011452Y001742D01*
X011387Y001699D01*
X011331Y001643D01*
X011288Y001578D01*
X011258Y001506D01*
X011243Y001429D01*
X011243Y001429D01*
X011601Y001429D01*
X011601Y001351D01*
X011679Y001351D01*
X011679Y000993D01*
X011679Y000993D01*
X011734Y001004D02*
X012546Y001004D01*
X012524Y001008D02*
X012601Y000993D01*
X012601Y000993D01*
X012601Y001351D01*
X012243Y001351D01*
X012258Y001274D01*
X012288Y001202D01*
X012331Y001137D01*
X012387Y001081D01*
X012452Y001038D01*
X012524Y001008D01*
X012601Y001004D02*
X012679Y001004D01*
X012679Y000993D02*
X012756Y001008D01*
X012828Y001038D01*
X012893Y001081D01*
X012949Y001137D01*
X012992Y001202D01*
X013022Y001274D01*
X013037Y001351D01*
X013037Y001351D01*
X012679Y001351D01*
X012679Y001429D01*
X012601Y001429D01*
X012601Y001787D01*
X012524Y001772D01*
X012452Y001742D01*
X012387Y001699D01*
X012331Y001643D01*
X012288Y001578D01*
X012258Y001506D01*
X012243Y001429D01*
X012243Y001429D01*
X012601Y001429D01*
X012601Y001351D01*
X012679Y001351D01*
X012679Y000993D01*
X012679Y000993D01*
X012734Y001004D02*
X013182Y001004D01*
X013121Y001082D02*
X012894Y001082D01*
X012965Y001161D02*
X013088Y001161D01*
X013056Y001239D02*
X013008Y001239D01*
X013031Y001318D02*
X013043Y001318D01*
X013043Y001396D02*
X012679Y001396D01*
X012679Y001429D02*
X013037Y001429D01*
X013022Y001506D01*
X012992Y001578D01*
X012949Y001643D01*
X012893Y001699D01*
X012828Y001742D01*
X012756Y001772D01*
X012679Y001787D01*
X012679Y001787D01*
X012679Y001429D01*
X012679Y001475D02*
X012601Y001475D01*
X012601Y001553D02*
X012679Y001553D01*
X012679Y001632D02*
X012601Y001632D01*
X012601Y001710D02*
X012679Y001710D01*
X012601Y001787D02*
X012601Y001787D01*
X012601Y001993D02*
X012524Y002008D01*
X012452Y002038D01*
X012387Y002081D01*
X012331Y002137D01*
X012288Y002202D01*
X012258Y002274D01*
X012243Y002351D01*
X012243Y002351D01*
X012601Y002351D01*
X012601Y002429D01*
X012601Y002787D01*
X012524Y002772D01*
X012452Y002742D01*
X012387Y002699D01*
X012331Y002643D01*
X012288Y002578D01*
X012258Y002506D01*
X012243Y002429D01*
X012243Y002429D01*
X012601Y002429D01*
X012679Y002429D01*
X012679Y002787D01*
X012679Y002787D01*
X012756Y002772D01*
X012828Y002742D01*
X012893Y002699D01*
X012949Y002643D01*
X012992Y002578D01*
X013022Y002506D01*
X013037Y002429D01*
X013037Y002429D01*
X012679Y002429D01*
X012679Y002351D01*
X013037Y002351D01*
X013037Y002351D01*
X013022Y002274D01*
X012992Y002202D01*
X012949Y002137D01*
X012893Y002081D01*
X012828Y002038D01*
X012756Y002008D01*
X012679Y001993D01*
X012679Y001993D01*
X012679Y002351D01*
X012601Y002351D01*
X012601Y001993D01*
X012601Y001993D01*
X012601Y002024D02*
X012679Y002024D01*
X012679Y002103D02*
X012601Y002103D01*
X012601Y002181D02*
X012679Y002181D01*
X012679Y002260D02*
X012601Y002260D01*
X012601Y002338D02*
X012679Y002338D01*
X012679Y002417D02*
X013043Y002417D01*
X013043Y002495D02*
X013024Y002495D01*
X012994Y002574D02*
X013069Y002574D01*
X013102Y002652D02*
X012940Y002652D01*
X012846Y002731D02*
X013136Y002731D01*
X013214Y002809D02*
X010066Y002809D01*
X010144Y002731D02*
X010434Y002731D01*
X010452Y002742D02*
X010387Y002699D01*
X010331Y002643D01*
X010288Y002578D01*
X010258Y002506D01*
X010243Y002429D01*
X010243Y002429D01*
X010601Y002429D01*
X010601Y002787D01*
X010524Y002772D01*
X010452Y002742D01*
X010340Y002652D02*
X010178Y002652D01*
X010211Y002574D02*
X010286Y002574D01*
X010256Y002495D02*
X010237Y002495D01*
X010237Y002417D02*
X010601Y002417D01*
X010601Y002429D02*
X010601Y002351D01*
X010243Y002351D01*
X010258Y002274D01*
X010288Y002202D01*
X010331Y002137D01*
X010387Y002081D01*
X010452Y002038D01*
X010524Y002008D01*
X010601Y001993D01*
X010601Y001993D01*
X010601Y002351D01*
X010679Y002351D01*
X010679Y002429D01*
X010601Y002429D01*
X010601Y002495D02*
X010679Y002495D01*
X010679Y002429D02*
X010679Y002787D01*
X010679Y002787D01*
X010756Y002772D01*
X010828Y002742D01*
X010893Y002699D01*
X010949Y002643D01*
X010992Y002578D01*
X011022Y002506D01*
X011037Y002429D01*
X011037Y002429D01*
X010679Y002429D01*
X010679Y002417D02*
X011601Y002417D01*
X011601Y002429D02*
X011601Y002351D01*
X011243Y002351D01*
X011258Y002274D01*
X011288Y002202D01*
X011331Y002137D01*
X011387Y002081D01*
X011452Y002038D01*
X011524Y002008D01*
X011601Y001993D01*
X011601Y001993D01*
X011601Y002351D01*
X011679Y002351D01*
X011679Y002429D01*
X011601Y002429D01*
X011601Y002787D01*
X011524Y002772D01*
X011452Y002742D01*
X011387Y002699D01*
X011331Y002643D01*
X011288Y002578D01*
X011258Y002506D01*
X011243Y002429D01*
X011243Y002429D01*
X011601Y002429D01*
X011601Y002495D02*
X011679Y002495D01*
X011679Y002429D02*
X011679Y002787D01*
X011679Y002787D01*
X011756Y002772D01*
X011828Y002742D01*
X011893Y002699D01*
X011949Y002643D01*
X011992Y002578D01*
X012022Y002506D01*
X012037Y002429D01*
X012037Y002429D01*
X011679Y002429D01*
X011679Y002417D02*
X012601Y002417D01*
X012601Y002495D02*
X012679Y002495D01*
X012679Y002574D02*
X012601Y002574D01*
X012601Y002652D02*
X012679Y002652D01*
X012679Y002731D02*
X012601Y002731D01*
X012601Y002787D02*
X012601Y002787D01*
X012434Y002731D02*
X011846Y002731D01*
X011940Y002652D02*
X012340Y002652D01*
X012286Y002574D02*
X011994Y002574D01*
X012024Y002495D02*
X012256Y002495D01*
X012245Y002338D02*
X012035Y002338D01*
X012037Y002351D02*
X012037Y002351D01*
X012022Y002274D01*
X011992Y002202D01*
X011949Y002137D01*
X011893Y002081D01*
X011828Y002038D01*
X011756Y002008D01*
X011679Y001993D01*
X011679Y001993D01*
X011679Y002351D01*
X012037Y002351D01*
X012016Y002260D02*
X012264Y002260D01*
X012302Y002181D02*
X011978Y002181D01*
X011915Y002103D02*
X012365Y002103D01*
X012485Y002024D02*
X011795Y002024D01*
X011679Y002024D02*
X011601Y002024D01*
X011601Y002103D02*
X011679Y002103D01*
X011679Y002181D02*
X011601Y002181D01*
X011601Y002260D02*
X011679Y002260D01*
X011679Y002338D02*
X011601Y002338D01*
X011601Y002574D02*
X011679Y002574D01*
X011679Y002652D02*
X011601Y002652D01*
X011601Y002731D02*
X011679Y002731D01*
X011601Y002787D02*
X011601Y002787D01*
X011434Y002731D02*
X010846Y002731D01*
X010940Y002652D02*
X011340Y002652D01*
X011286Y002574D02*
X010994Y002574D01*
X011024Y002495D02*
X011256Y002495D01*
X011243Y002351D02*
X011243Y002351D01*
X011245Y002338D02*
X011035Y002338D01*
X011037Y002351D02*
X011037Y002351D01*
X011022Y002274D01*
X010992Y002202D01*
X010949Y002137D01*
X010893Y002081D01*
X010828Y002038D01*
X010756Y002008D01*
X010679Y001993D01*
X010679Y001993D01*
X010679Y002351D01*
X011037Y002351D01*
X011016Y002260D02*
X011264Y002260D01*
X011302Y002181D02*
X010978Y002181D01*
X010915Y002103D02*
X011365Y002103D01*
X011485Y002024D02*
X010795Y002024D01*
X010679Y002024D02*
X010601Y002024D01*
X010601Y002103D02*
X010679Y002103D01*
X010679Y002181D02*
X010601Y002181D01*
X010601Y002260D02*
X010679Y002260D01*
X010679Y002338D02*
X010601Y002338D01*
X010601Y002574D02*
X010679Y002574D01*
X010679Y002652D02*
X010601Y002652D01*
X010601Y002731D02*
X010679Y002731D01*
X010601Y002787D02*
X010601Y002787D01*
X010243Y002351D02*
X010243Y002351D01*
X010245Y002338D02*
X010237Y002338D01*
X010233Y002260D02*
X010264Y002260D01*
X010302Y002181D02*
X010200Y002181D01*
X010168Y002103D02*
X010365Y002103D01*
X010485Y002024D02*
X010119Y002024D01*
X010040Y001946D02*
X013240Y001946D01*
X013272Y001867D02*
X010008Y001867D01*
X010086Y001789D02*
X013194Y001789D01*
X013126Y001710D02*
X012877Y001710D01*
X012957Y001632D02*
X013093Y001632D01*
X013061Y001553D02*
X013003Y001553D01*
X013028Y001475D02*
X013043Y001475D01*
X013037Y001429D02*
X013037Y001429D01*
X012679Y001318D02*
X012601Y001318D01*
X012601Y001396D02*
X011679Y001396D01*
X011679Y001429D02*
X012037Y001429D01*
X012022Y001506D01*
X011992Y001578D01*
X011949Y001643D01*
X011893Y001699D01*
X011828Y001742D01*
X011756Y001772D01*
X011679Y001787D01*
X011679Y001787D01*
X011679Y001429D01*
X011679Y001475D02*
X011601Y001475D01*
X011601Y001553D02*
X011679Y001553D01*
X011679Y001632D02*
X011601Y001632D01*
X011601Y001710D02*
X011679Y001710D01*
X011601Y001787D02*
X011601Y001787D01*
X011403Y001710D02*
X010877Y001710D01*
X010893Y001699D02*
X010828Y001742D01*
X010756Y001772D01*
X010679Y001787D01*
X010679Y001787D01*
X010679Y001429D01*
X011037Y001429D01*
X011022Y001506D01*
X010992Y001578D01*
X010949Y001643D01*
X010893Y001699D01*
X010957Y001632D02*
X011323Y001632D01*
X011277Y001553D02*
X011003Y001553D01*
X011028Y001475D02*
X011252Y001475D01*
X011243Y001351D02*
X011243Y001351D01*
X011249Y001318D02*
X011031Y001318D01*
X011008Y001239D02*
X011272Y001239D01*
X011315Y001161D02*
X010965Y001161D01*
X010894Y001082D02*
X011386Y001082D01*
X011601Y001082D02*
X011679Y001082D01*
X011679Y001161D02*
X011601Y001161D01*
X011601Y001239D02*
X011679Y001239D01*
X011679Y001318D02*
X011601Y001318D01*
X011601Y001396D02*
X010679Y001396D01*
X010601Y001396D02*
X010237Y001396D01*
X010243Y001351D02*
X010243Y001351D01*
X010237Y001318D02*
X010249Y001318D01*
X010224Y001239D02*
X010272Y001239D01*
X010315Y001161D02*
X010192Y001161D01*
X010159Y001082D02*
X010386Y001082D01*
X010601Y001082D02*
X010679Y001082D01*
X010679Y001161D02*
X010601Y001161D01*
X010601Y001239D02*
X010679Y001239D01*
X010679Y001318D02*
X010601Y001318D01*
X010601Y001475D02*
X010679Y001475D01*
X010679Y001553D02*
X010601Y001553D01*
X010601Y001632D02*
X010679Y001632D01*
X010679Y001710D02*
X010601Y001710D01*
X010601Y001787D02*
X010601Y001787D01*
X010403Y001710D02*
X010154Y001710D01*
X010187Y001632D02*
X010323Y001632D01*
X010277Y001553D02*
X010219Y001553D01*
X010237Y001475D02*
X010252Y001475D01*
X011037Y001429D02*
X011037Y001429D01*
X011877Y001710D02*
X012403Y001710D01*
X012323Y001632D02*
X011957Y001632D01*
X012003Y001553D02*
X012277Y001553D01*
X012252Y001475D02*
X012028Y001475D01*
X012037Y001429D02*
X012037Y001429D01*
X012031Y001318D02*
X012249Y001318D01*
X012243Y001351D02*
X012243Y001351D01*
X012272Y001239D02*
X012008Y001239D01*
X011965Y001161D02*
X012315Y001161D01*
X012386Y001082D02*
X011894Y001082D01*
X012601Y001082D02*
X012679Y001082D01*
X012679Y001161D02*
X012601Y001161D01*
X012601Y001239D02*
X012679Y001239D01*
X012795Y002024D02*
X013161Y002024D01*
X013112Y002103D02*
X012915Y002103D01*
X012978Y002181D02*
X013080Y002181D01*
X013047Y002260D02*
X013016Y002260D01*
X013035Y002338D02*
X013043Y002338D01*
X013293Y002888D02*
X009987Y002888D01*
X009811Y002966D02*
X013469Y002966D01*
X013289Y004065D02*
X014697Y004065D01*
X014702Y004060D02*
X014850Y004060D01*
X014850Y004475D01*
X014435Y004475D01*
X014435Y004327D01*
X014702Y004060D01*
X014618Y004144D02*
X013367Y004144D01*
X013446Y004222D02*
X014540Y004222D01*
X014461Y004301D02*
X013490Y004301D01*
X013490Y004379D02*
X014435Y004379D01*
X014435Y004458D02*
X013490Y004458D01*
X013505Y004536D02*
X014850Y004536D01*
X014850Y004458D02*
X014930Y004458D01*
X014930Y004379D02*
X014850Y004379D01*
X014850Y004301D02*
X014930Y004301D01*
X014930Y004222D02*
X014850Y004222D01*
X014850Y004144D02*
X014930Y004144D01*
X014930Y004065D02*
X014850Y004065D01*
X015083Y004065D02*
X015414Y004065D01*
X015335Y004144D02*
X015162Y004144D01*
X015240Y004222D02*
X015257Y004222D01*
X014930Y004615D02*
X014850Y004615D01*
X014850Y004693D02*
X014930Y004693D01*
X014930Y004772D02*
X014850Y004772D01*
X014850Y004850D02*
X014930Y004850D01*
X014930Y004929D02*
X014850Y004929D01*
X014660Y004929D02*
X013897Y004929D01*
X013976Y005007D02*
X015404Y005007D01*
X015390Y005086D02*
X014054Y005086D01*
X014133Y005164D02*
X015390Y005164D01*
X015390Y005243D02*
X014211Y005243D01*
X014264Y005321D02*
X015390Y005321D01*
X015390Y005400D02*
X014297Y005400D01*
X014310Y005478D02*
X015390Y005478D01*
X015390Y005557D02*
X014310Y005557D01*
X014369Y005635D02*
X014738Y005635D01*
X014773Y005620D02*
X014701Y005651D01*
X014635Y005694D01*
X014579Y005750D01*
X014536Y005816D01*
X014505Y005888D01*
X014490Y005966D01*
X014490Y006225D01*
X014850Y006225D01*
X014930Y006225D01*
X014930Y006305D01*
X015290Y006305D01*
X015290Y006564D01*
X015275Y006642D01*
X015244Y006714D01*
X015201Y006780D01*
X015145Y006836D01*
X015079Y006879D01*
X015007Y006910D01*
X014930Y006925D01*
X014930Y006305D01*
X014850Y006305D01*
X014850Y006925D01*
X014773Y006910D01*
X014701Y006879D01*
X014635Y006836D01*
X014579Y006780D01*
X014536Y006714D01*
X014505Y006642D01*
X014490Y006564D01*
X014490Y006305D01*
X014850Y006305D01*
X014850Y006225D01*
X014850Y005605D01*
X014773Y005620D01*
X014850Y005635D02*
X014930Y005635D01*
X014930Y005605D02*
X015007Y005620D01*
X015079Y005651D01*
X015145Y005694D01*
X015201Y005750D01*
X015244Y005816D01*
X015275Y005888D01*
X015290Y005966D01*
X015290Y006225D01*
X014930Y006225D01*
X014930Y005605D01*
X014930Y005714D02*
X014850Y005714D01*
X014850Y005792D02*
X014930Y005792D01*
X014930Y005871D02*
X014850Y005871D01*
X014850Y005949D02*
X014930Y005949D01*
X014930Y006028D02*
X014850Y006028D01*
X014850Y006106D02*
X014930Y006106D01*
X014930Y006185D02*
X014850Y006185D01*
X014850Y006263D02*
X014490Y006263D01*
X014490Y006185D02*
X014490Y006185D01*
X014490Y006106D02*
X014490Y006106D01*
X014490Y006028D02*
X014490Y006028D01*
X014490Y005949D02*
X014493Y005949D01*
X014484Y005871D02*
X014513Y005871D01*
X014551Y005792D02*
X014451Y005792D01*
X014419Y005714D02*
X014616Y005714D01*
X015042Y005635D02*
X015390Y005635D01*
X015361Y005714D02*
X015164Y005714D01*
X015229Y005792D02*
X015329Y005792D01*
X015296Y005871D02*
X015267Y005871D01*
X015287Y005949D02*
X015290Y005949D01*
X015290Y006028D02*
X015290Y006028D01*
X015290Y006106D02*
X015290Y006106D01*
X015290Y006185D02*
X015290Y006185D01*
X015290Y006263D02*
X014930Y006263D01*
X014930Y006342D02*
X014850Y006342D01*
X014850Y006420D02*
X014930Y006420D01*
X014930Y006499D02*
X014850Y006499D01*
X014850Y006577D02*
X014930Y006577D01*
X014930Y006656D02*
X014850Y006656D01*
X014850Y006734D02*
X014930Y006734D01*
X014930Y006813D02*
X014850Y006813D01*
X014850Y006891D02*
X014930Y006891D01*
X015052Y006891D02*
X015407Y006891D01*
X015360Y006813D02*
X015168Y006813D01*
X015231Y006734D02*
X015327Y006734D01*
X015295Y006656D02*
X015269Y006656D01*
X015287Y006577D02*
X015290Y006577D01*
X015290Y006499D02*
X015290Y006499D01*
X015290Y006420D02*
X015290Y006420D01*
X015290Y006342D02*
X015290Y006342D01*
X015486Y006970D02*
X014294Y006970D01*
X014373Y006891D02*
X014728Y006891D01*
X014612Y006813D02*
X014420Y006813D01*
X014453Y006734D02*
X014549Y006734D01*
X014511Y006656D02*
X014485Y006656D01*
X014490Y006577D02*
X014493Y006577D01*
X014490Y006499D02*
X014490Y006499D01*
X014490Y006420D02*
X014490Y006420D01*
X014490Y006342D02*
X014490Y006342D01*
X014195Y007048D02*
X015585Y007048D01*
X016195Y007048D02*
X017585Y007048D01*
X017486Y006970D02*
X016294Y006970D01*
X016373Y006891D02*
X016728Y006891D01*
X016701Y006879D02*
X016635Y006836D01*
X016579Y006780D01*
X016536Y006714D01*
X016505Y006642D01*
X016490Y006564D01*
X016490Y006305D01*
X016850Y006305D01*
X016850Y006925D01*
X016773Y006910D01*
X016701Y006879D01*
X016612Y006813D02*
X016420Y006813D01*
X016453Y006734D02*
X016549Y006734D01*
X016511Y006656D02*
X016485Y006656D01*
X016490Y006577D02*
X016493Y006577D01*
X016490Y006499D02*
X016490Y006499D01*
X016490Y006420D02*
X016490Y006420D01*
X016490Y006342D02*
X016490Y006342D01*
X016490Y006263D02*
X016850Y006263D01*
X016850Y006225D02*
X016490Y006225D01*
X016490Y005966D01*
X016505Y005888D01*
X016536Y005816D01*
X016579Y005750D01*
X016635Y005694D01*
X016701Y005651D01*
X016773Y005620D01*
X016850Y005605D01*
X016850Y006225D01*
X016930Y006225D01*
X016930Y006305D01*
X017290Y006305D01*
X017290Y006564D01*
X017275Y006642D01*
X017244Y006714D01*
X017201Y006780D01*
X017145Y006836D01*
X017079Y006879D01*
X017007Y006910D01*
X016930Y006925D01*
X016930Y006305D01*
X016850Y006305D01*
X016850Y006225D01*
X016850Y006185D02*
X016930Y006185D01*
X016930Y006225D02*
X016930Y005605D01*
X017007Y005620D01*
X017079Y005651D01*
X017145Y005694D01*
X017201Y005750D01*
X017244Y005816D01*
X017275Y005888D01*
X017290Y005966D01*
X017290Y006225D01*
X016930Y006225D01*
X016930Y006263D02*
X017290Y006263D01*
X017290Y006185D02*
X017290Y006185D01*
X017290Y006106D02*
X017290Y006106D01*
X017290Y006028D02*
X017290Y006028D01*
X017287Y005949D02*
X017290Y005949D01*
X017296Y005871D02*
X017267Y005871D01*
X017229Y005792D02*
X017329Y005792D01*
X017361Y005714D02*
X017164Y005714D01*
X017042Y005635D02*
X017390Y005635D01*
X017380Y005557D02*
X016390Y005557D01*
X016390Y005635D02*
X016738Y005635D01*
X016850Y005635D02*
X016930Y005635D01*
X016930Y005714D02*
X016850Y005714D01*
X016850Y005792D02*
X016930Y005792D01*
X016930Y005871D02*
X016850Y005871D01*
X016850Y005949D02*
X016930Y005949D01*
X016930Y006028D02*
X016850Y006028D01*
X016850Y006106D02*
X016930Y006106D01*
X016930Y006342D02*
X016850Y006342D01*
X016850Y006420D02*
X016930Y006420D01*
X016930Y006499D02*
X016850Y006499D01*
X016850Y006577D02*
X016930Y006577D01*
X016930Y006656D02*
X016850Y006656D01*
X016850Y006734D02*
X016930Y006734D01*
X016930Y006813D02*
X016850Y006813D01*
X016850Y006891D02*
X016930Y006891D01*
X017052Y006891D02*
X017407Y006891D01*
X017360Y006813D02*
X017168Y006813D01*
X017231Y006734D02*
X017327Y006734D01*
X017295Y006656D02*
X017269Y006656D01*
X017287Y006577D02*
X017290Y006577D01*
X017290Y006499D02*
X017290Y006499D01*
X017290Y006420D02*
X017290Y006420D01*
X017290Y006342D02*
X017290Y006342D01*
X016551Y005792D02*
X016451Y005792D01*
X016419Y005714D02*
X016616Y005714D01*
X016513Y005871D02*
X016484Y005871D01*
X016490Y005949D02*
X016493Y005949D01*
X016490Y006028D02*
X016490Y006028D01*
X016490Y006106D02*
X016490Y006106D01*
X016490Y006185D02*
X016490Y006185D01*
X016390Y005478D02*
X017302Y005478D01*
X017235Y005400D02*
X016390Y005400D01*
X016416Y005321D02*
X017235Y005321D01*
X017235Y005243D02*
X016495Y005243D01*
X016568Y005164D02*
X017235Y005164D01*
X017235Y005086D02*
X016600Y005086D01*
X016633Y005007D02*
X017235Y005007D01*
X017235Y004929D02*
X016640Y004929D01*
X016640Y004850D02*
X017254Y004850D01*
X017332Y004772D02*
X016640Y004772D01*
X016640Y004693D02*
X017411Y004693D01*
X017470Y004615D02*
X016640Y004615D01*
X016640Y004536D02*
X017478Y004536D01*
X017511Y004458D02*
X017421Y004458D01*
X017500Y004379D02*
X017557Y004379D01*
X017578Y004301D02*
X017636Y004301D01*
X017657Y004222D02*
X017714Y004222D01*
X016859Y004458D02*
X016640Y004458D01*
X016640Y004379D02*
X016780Y004379D01*
X016702Y004301D02*
X016640Y004301D01*
X016661Y003437D02*
X016744Y003437D01*
X016760Y003359D02*
X016582Y003359D01*
X016504Y003280D02*
X016681Y003280D01*
X016603Y003202D02*
X016425Y003202D01*
X016540Y003123D02*
X007540Y003123D01*
X007519Y003202D02*
X015855Y003202D01*
X015776Y003280D02*
X007441Y003280D01*
X007362Y003359D02*
X015698Y003359D01*
X014435Y004615D02*
X013583Y004615D01*
X013662Y004693D02*
X014435Y004693D01*
X014503Y004772D02*
X013740Y004772D01*
X013819Y004850D02*
X014582Y004850D01*
X015120Y004929D02*
X015377Y004929D01*
X015299Y004850D02*
X015198Y004850D01*
X013407Y006891D02*
X013373Y006891D01*
X013310Y006970D02*
X013486Y006970D01*
X013585Y007048D02*
X013310Y007048D01*
X013310Y007127D02*
X018310Y007127D01*
X018388Y007048D02*
X018195Y007048D01*
X018294Y006970D02*
X018467Y006970D01*
X018407Y006891D02*
X018373Y006891D01*
X018231Y007205D02*
X013310Y007205D01*
X013310Y007284D02*
X016653Y007284D01*
X016574Y007362D02*
X013310Y007362D01*
X013310Y007441D02*
X016496Y007441D01*
X016417Y007519D02*
X013310Y007519D01*
X013310Y007598D02*
X016339Y007598D01*
X016260Y007676D02*
X013310Y007676D01*
X013310Y007755D02*
X016182Y007755D01*
X016103Y007833D02*
X013310Y007833D01*
X013310Y007912D02*
X016030Y007912D01*
X015998Y007990D02*
X013310Y007990D01*
X013310Y008069D02*
X015970Y008069D01*
X015970Y008147D02*
X013310Y008147D01*
X013309Y008226D02*
X015970Y008226D01*
X015970Y008304D02*
X013277Y008304D01*
X013241Y008383D02*
X015970Y008383D01*
X015635Y008461D02*
X014145Y008461D01*
X014412Y008697D02*
X014633Y008697D01*
X014563Y008775D02*
X014444Y008775D01*
X014477Y008854D02*
X014520Y008854D01*
X014497Y008932D02*
X014490Y008932D01*
X014490Y009011D02*
X014490Y009011D01*
X014490Y009089D02*
X014490Y009089D01*
X014490Y009168D02*
X014490Y009168D01*
X014390Y009874D02*
X014390Y009964D01*
X014457Y010031D02*
X015548Y010031D01*
X015733Y010110D02*
X014536Y010110D01*
X014545Y010188D02*
X015748Y010188D01*
X015669Y010267D02*
X014545Y010267D01*
X014545Y010345D02*
X015591Y010345D01*
X015512Y010424D02*
X014545Y010424D01*
X014545Y010502D02*
X015434Y010502D01*
X015355Y010581D02*
X014545Y010581D01*
X014545Y010659D02*
X015277Y010659D01*
X015198Y010738D02*
X014469Y010738D01*
X014390Y010816D02*
X015143Y010816D01*
X015110Y010895D02*
X014312Y010895D01*
X014233Y010973D02*
X015095Y010973D01*
X015095Y011052D02*
X012615Y011052D01*
X012615Y011130D02*
X015095Y011130D01*
X015095Y011209D02*
X012615Y011209D01*
X012615Y011287D02*
X015024Y011287D01*
X014945Y011366D02*
X012615Y011366D01*
X012559Y011444D02*
X014867Y011444D01*
X014788Y011523D02*
X012481Y011523D01*
X012402Y011601D02*
X014753Y011601D01*
X014721Y011680D02*
X012324Y011680D01*
X011706Y011680D02*
X008060Y011680D01*
X008060Y011758D02*
X014720Y011758D01*
X014720Y011837D02*
X008060Y011837D01*
X008092Y011915D02*
X014720Y011915D01*
X014720Y011994D02*
X008888Y011994D01*
X008966Y012072D02*
X014720Y012072D01*
X014720Y012151D02*
X009045Y012151D01*
X009085Y012229D02*
X014327Y012229D01*
X014249Y012308D02*
X009085Y012308D01*
X009085Y012465D02*
X013375Y012465D01*
X013296Y012543D02*
X009085Y012543D01*
X009031Y012622D02*
X013240Y012622D01*
X013240Y012599D02*
X013474Y012365D01*
X013600Y012365D01*
X013600Y012725D01*
X013680Y012725D01*
X013680Y012805D01*
X014040Y012805D01*
X014040Y012931D01*
X013806Y013165D01*
X013680Y013165D01*
X013680Y012805D01*
X013600Y012805D01*
X013600Y013165D01*
X013474Y013165D01*
X013240Y012931D01*
X013240Y012805D01*
X013600Y012805D01*
X013600Y012725D01*
X013240Y012725D01*
X013240Y012599D01*
X013240Y012700D02*
X008953Y012700D01*
X008874Y012779D02*
X013600Y012779D01*
X013600Y012857D02*
X013680Y012857D01*
X013680Y012779D02*
X014040Y012779D01*
X014040Y012725D02*
X013680Y012725D01*
X013680Y012365D01*
X013806Y012365D01*
X014040Y012599D01*
X014040Y012725D01*
X014040Y012700D02*
X014040Y012700D01*
X014040Y012622D02*
X014040Y012622D01*
X014040Y012543D02*
X013984Y012543D01*
X013905Y012465D02*
X014092Y012465D01*
X014170Y012386D02*
X013827Y012386D01*
X013680Y012386D02*
X013600Y012386D01*
X013600Y012465D02*
X013680Y012465D01*
X013680Y012543D02*
X013600Y012543D01*
X013600Y012622D02*
X013680Y012622D01*
X013680Y012700D02*
X013600Y012700D01*
X013600Y012936D02*
X013680Y012936D01*
X013680Y013014D02*
X013600Y013014D01*
X013600Y013093D02*
X013680Y013093D01*
X013878Y013093D02*
X014119Y013093D01*
X014198Y013171D02*
X008030Y013171D01*
X008060Y013093D02*
X013402Y013093D01*
X013323Y013014D02*
X008060Y013014D01*
X008060Y012936D02*
X013245Y012936D01*
X013240Y012857D02*
X008079Y012857D01*
X008157Y012779D02*
X008386Y012779D01*
X008308Y012700D02*
X008236Y012700D01*
X008590Y012700D02*
X008670Y012700D01*
X008670Y012622D02*
X008590Y012622D01*
X008590Y012543D02*
X008670Y012543D01*
X008670Y012465D02*
X008590Y012465D01*
X008670Y012386D02*
X013453Y012386D01*
X014040Y012857D02*
X014040Y012857D01*
X014035Y012936D02*
X014040Y012936D01*
X014041Y013014D02*
X013957Y013014D01*
X014276Y013250D02*
X007997Y013250D01*
X007921Y013328D02*
X014355Y013328D01*
X014720Y013407D02*
X007842Y013407D01*
X007764Y013485D02*
X014720Y013485D01*
X014720Y013564D02*
X012287Y013564D01*
X012366Y013642D02*
X014720Y013642D01*
X014720Y013721D02*
X014694Y013721D01*
X014086Y013721D02*
X012444Y013721D01*
X012523Y013799D02*
X014007Y013799D01*
X013929Y013878D02*
X012601Y013878D01*
X012615Y013956D02*
X013850Y013956D01*
X013790Y014035D02*
X012615Y014035D01*
X012615Y014113D02*
X013790Y014113D01*
X013240Y014192D02*
X012790Y014192D01*
X012869Y014270D02*
X013161Y014270D01*
X013083Y014349D02*
X012947Y014349D01*
X011743Y013564D02*
X007685Y013564D01*
X007607Y013642D02*
X011664Y013642D01*
X011586Y013721D02*
X008114Y013721D01*
X008078Y013685D02*
X008345Y013952D01*
X008345Y014100D01*
X007930Y014100D01*
X007930Y013685D01*
X008078Y013685D01*
X007930Y013721D02*
X007850Y013721D01*
X007850Y013685D02*
X007850Y014100D01*
X007435Y014100D01*
X007435Y013952D01*
X007702Y013685D01*
X007850Y013685D01*
X007850Y013799D02*
X007930Y013799D01*
X007930Y013878D02*
X007850Y013878D01*
X007850Y013956D02*
X007930Y013956D01*
X007930Y014035D02*
X007850Y014035D01*
X007850Y014113D02*
X007136Y014113D01*
X007214Y014035D02*
X007435Y014035D01*
X007435Y013956D02*
X007293Y013956D01*
X007371Y013878D02*
X007509Y013878D01*
X007450Y013799D02*
X007587Y013799D01*
X007528Y013721D02*
X007666Y013721D01*
X007930Y014113D02*
X011415Y014113D01*
X011415Y014035D02*
X008345Y014035D01*
X008345Y013956D02*
X011415Y013956D01*
X011429Y013878D02*
X008271Y013878D01*
X008193Y013799D02*
X011507Y013799D01*
X011415Y014192D02*
X008345Y014192D01*
X008345Y014270D02*
X011415Y014270D01*
X011415Y014349D02*
X008325Y014349D01*
X008246Y014427D02*
X011384Y014427D01*
X011305Y014506D02*
X010932Y014506D01*
X011010Y014584D02*
X011227Y014584D01*
X011148Y014663D02*
X011089Y014663D01*
X010348Y014506D02*
X008182Y014506D01*
X008260Y014584D02*
X010270Y014584D01*
X010191Y014663D02*
X008339Y014663D01*
X008417Y014741D02*
X009395Y014741D01*
X009452Y014685D02*
X009600Y014685D01*
X009600Y015100D01*
X009185Y015100D01*
X009185Y014952D01*
X009452Y014685D01*
X009600Y014741D02*
X009680Y014741D01*
X009680Y014820D02*
X009600Y014820D01*
X009600Y014898D02*
X009680Y014898D01*
X009680Y014977D02*
X009600Y014977D01*
X009600Y015055D02*
X009680Y015055D01*
X009600Y015134D02*
X008545Y015134D01*
X008545Y015212D02*
X009185Y015212D01*
X009185Y015291D02*
X008545Y015291D01*
X008545Y015369D02*
X009226Y015369D01*
X009304Y015448D02*
X008556Y015448D01*
X008635Y015526D02*
X008950Y015526D01*
X008951Y015526D02*
X009023Y015495D01*
X009100Y015480D01*
X009100Y016100D01*
X008740Y016100D01*
X008740Y015841D01*
X008755Y015763D01*
X008786Y015691D01*
X008829Y015625D01*
X008885Y015569D01*
X008951Y015526D01*
X008850Y015605D02*
X008675Y015605D01*
X008708Y015683D02*
X008791Y015683D01*
X008756Y015762D02*
X008740Y015762D01*
X008740Y015840D02*
X008740Y015840D01*
X008740Y015919D02*
X008740Y015919D01*
X008740Y015997D02*
X008740Y015997D01*
X008740Y016076D02*
X008740Y016076D01*
X008740Y016154D02*
X009100Y016154D01*
X009100Y016076D02*
X009180Y016076D01*
X009180Y016100D02*
X009180Y015480D01*
X009257Y015495D01*
X009329Y015526D01*
X009395Y015569D01*
X009451Y015625D01*
X009494Y015691D01*
X009525Y015763D01*
X009540Y015841D01*
X009540Y016100D01*
X009180Y016100D01*
X009180Y016154D02*
X009540Y016154D01*
X009540Y016076D02*
X009540Y016076D01*
X009540Y015997D02*
X009540Y015997D01*
X009540Y015919D02*
X009540Y015919D01*
X009540Y015840D02*
X009540Y015840D01*
X009540Y015762D02*
X009524Y015762D01*
X009489Y015683D02*
X009572Y015683D01*
X009605Y015605D02*
X009430Y015605D01*
X009383Y015526D02*
X009330Y015526D01*
X009180Y015526D02*
X009100Y015526D01*
X009100Y015605D02*
X009180Y015605D01*
X009180Y015683D02*
X009100Y015683D01*
X009100Y015762D02*
X009180Y015762D01*
X009180Y015840D02*
X009100Y015840D01*
X009100Y015919D02*
X009180Y015919D01*
X009180Y015997D02*
X009100Y015997D01*
X008740Y016233D02*
X008740Y016233D01*
X008740Y016311D02*
X008740Y016311D01*
X008740Y016390D02*
X008740Y016390D01*
X008740Y016468D02*
X008746Y016468D01*
X008729Y016547D02*
X008768Y016547D01*
X008809Y016625D02*
X008696Y016625D01*
X008664Y016704D02*
X008878Y016704D01*
X009402Y016704D02*
X009616Y016704D01*
X009584Y016625D02*
X009471Y016625D01*
X009512Y016547D02*
X009551Y016547D01*
X009540Y016468D02*
X009534Y016468D01*
X009540Y016390D02*
X009540Y016390D01*
X009540Y016311D02*
X009540Y016311D01*
X009540Y016233D02*
X009540Y016233D01*
X009600Y015526D02*
X009645Y015526D01*
X009680Y015448D02*
X009600Y015448D01*
X009600Y015369D02*
X009680Y015369D01*
X009680Y015291D02*
X009600Y015291D01*
X009600Y015212D02*
X009680Y015212D01*
X009963Y014820D02*
X010034Y014820D01*
X010113Y014741D02*
X009885Y014741D01*
X009317Y014820D02*
X008496Y014820D01*
X008545Y014898D02*
X009238Y014898D01*
X009185Y014977D02*
X008545Y014977D01*
X008545Y015055D02*
X009185Y015055D01*
X007598Y014506D02*
X006810Y014506D01*
X006810Y014584D02*
X007520Y014584D01*
X007441Y014663D02*
X006810Y014663D01*
X006810Y014741D02*
X007363Y014741D01*
X007284Y014820D02*
X006810Y014820D01*
X006810Y014898D02*
X007235Y014898D01*
X007235Y014977D02*
X006810Y014977D01*
X006810Y015055D02*
X007235Y015055D01*
X007235Y015134D02*
X006810Y015134D01*
X006810Y015212D02*
X007235Y015212D01*
X006995Y015291D02*
X006810Y015291D01*
X005970Y015291D02*
X000580Y015291D01*
X000580Y015369D02*
X005970Y015369D01*
X005970Y015448D02*
X000580Y015448D01*
X000580Y015526D02*
X005970Y015526D01*
X005970Y015605D02*
X000580Y015605D01*
X000580Y015683D02*
X005970Y015683D01*
X005970Y015762D02*
X000580Y015762D01*
X000580Y015840D02*
X005970Y015840D01*
X005970Y015919D02*
X000580Y015919D01*
X000580Y015997D02*
X005970Y015997D01*
X005970Y016076D02*
X000580Y016076D01*
X000580Y016154D02*
X005970Y016154D01*
X005970Y016233D02*
X000580Y016233D01*
X000580Y016311D02*
X005970Y016311D01*
X005970Y016390D02*
X000580Y016390D01*
X000580Y016468D02*
X005970Y016468D01*
X005970Y016547D02*
X000580Y016547D01*
X000580Y016625D02*
X005970Y016625D01*
X005970Y016704D02*
X000580Y016704D01*
X000580Y016782D02*
X005970Y016782D01*
X005970Y016861D02*
X000580Y016861D01*
X000580Y016939D02*
X005970Y016939D01*
X005970Y017018D02*
X000580Y017018D01*
X000580Y015212D02*
X005970Y015212D01*
X005970Y015134D02*
X000580Y015134D01*
X000580Y015055D02*
X005970Y015055D01*
X005970Y014977D02*
X000580Y014977D01*
X000580Y014898D02*
X005970Y014898D01*
X005970Y014820D02*
X000580Y014820D01*
X000580Y014741D02*
X005970Y014741D01*
X005970Y014663D02*
X000580Y014663D01*
X000580Y014584D02*
X005970Y014584D01*
X005970Y014506D02*
X000580Y014506D01*
X000580Y014427D02*
X005970Y014427D01*
X005970Y014349D02*
X000580Y014349D01*
X000580Y014270D02*
X005970Y014270D01*
X005970Y014192D02*
X000580Y014192D01*
X000580Y014113D02*
X005998Y014113D01*
X006031Y014035D02*
X000580Y014035D01*
X000580Y013956D02*
X006105Y013956D01*
X006183Y013878D02*
X000580Y013878D01*
X000580Y013799D02*
X006262Y013799D01*
X006340Y013721D02*
X000580Y013721D01*
X000580Y013642D02*
X006419Y013642D01*
X006497Y013564D02*
X000580Y013564D01*
X000580Y013485D02*
X006576Y013485D01*
X006654Y013407D02*
X000580Y013407D01*
X000580Y013328D02*
X006733Y013328D01*
X006811Y013250D02*
X000580Y013250D01*
X000580Y012857D02*
X000770Y012857D01*
X000743Y012779D02*
X000580Y012779D01*
X000580Y012700D02*
X000743Y012700D01*
X000743Y012622D02*
X000580Y012622D01*
X000580Y011287D02*
X000836Y011287D01*
X000783Y011209D02*
X000580Y011209D01*
X000580Y011130D02*
X000753Y011130D01*
X000740Y011052D02*
X000580Y011052D01*
X000580Y010973D02*
X000740Y010973D01*
X000740Y010895D02*
X000580Y010895D01*
X000580Y008932D02*
X000743Y008932D01*
X000743Y008854D02*
X000580Y008854D01*
X000580Y008775D02*
X000743Y008775D01*
X000756Y008697D02*
X000580Y008697D01*
X000580Y008618D02*
X000862Y008618D01*
X001418Y008618D02*
X001862Y008618D01*
X001756Y008697D02*
X001524Y008697D01*
X001537Y008775D02*
X001743Y008775D01*
X001743Y008854D02*
X001537Y008854D01*
X001537Y008932D02*
X001743Y008932D01*
X002101Y007833D02*
X002179Y007833D01*
X002179Y007755D02*
X002101Y007755D01*
X002101Y007676D02*
X002179Y007676D01*
X002179Y007598D02*
X002101Y007598D01*
X002101Y007362D02*
X002179Y007362D01*
X002179Y007284D02*
X002101Y007284D01*
X002101Y007205D02*
X002179Y007205D01*
X002179Y007127D02*
X002101Y007127D01*
X002450Y007127D02*
X002569Y007127D01*
X002543Y007205D02*
X002528Y007205D01*
X002537Y007284D02*
X002543Y007284D01*
X002537Y007362D02*
X002543Y007362D01*
X002537Y007441D02*
X002543Y007441D01*
X002375Y006577D02*
X002905Y006577D01*
X002765Y006499D02*
X002515Y006499D01*
X002594Y006420D02*
X002686Y006420D01*
X003669Y007048D02*
X004335Y007048D01*
X004385Y008461D02*
X003570Y008461D01*
X003660Y008540D02*
X004257Y008540D01*
X004178Y008618D02*
X003708Y008618D01*
X003737Y008697D02*
X004118Y008697D01*
X004086Y008775D02*
X003737Y008775D01*
X003737Y008854D02*
X004053Y008854D01*
X004040Y008932D02*
X003737Y008932D01*
X003737Y009011D02*
X004040Y009011D01*
X004040Y009089D02*
X003737Y009089D01*
X003737Y009168D02*
X004040Y009168D01*
X004040Y009246D02*
X003737Y009246D01*
X003737Y009325D02*
X004040Y009325D01*
X004040Y009403D02*
X003711Y009403D01*
X003669Y009482D02*
X004040Y009482D01*
X004040Y009560D02*
X003591Y009560D01*
X003560Y009639D02*
X004040Y009639D01*
X004070Y009717D02*
X003560Y009717D01*
X003560Y009796D02*
X004103Y009796D01*
X004141Y009874D02*
X003560Y009874D01*
X003560Y009953D02*
X004219Y009953D01*
X004298Y010031D02*
X003560Y010031D01*
X003593Y010110D02*
X004483Y010110D01*
X004797Y010110D02*
X005040Y010110D01*
X005040Y010188D02*
X003658Y010188D01*
X003691Y010267D02*
X005040Y010267D01*
X005040Y010345D02*
X003723Y010345D01*
X003740Y010424D02*
X005075Y010424D01*
X005154Y010502D02*
X003740Y010502D01*
X003740Y010581D02*
X005232Y010581D01*
X005272Y010659D02*
X003740Y010659D01*
X003740Y010738D02*
X005194Y010738D01*
X005115Y010816D02*
X003740Y010816D01*
X003740Y010895D02*
X005040Y010895D01*
X005040Y010973D02*
X003740Y010973D01*
X003740Y011052D02*
X005040Y011052D01*
X005040Y011130D02*
X003740Y011130D01*
X003713Y011209D02*
X005040Y011209D01*
X005040Y011287D02*
X003681Y011287D01*
X004982Y010031D02*
X005040Y010031D01*
X005102Y008618D02*
X005178Y008618D01*
X005257Y008540D02*
X005023Y008540D01*
X004895Y008461D02*
X005385Y008461D01*
X006730Y007519D02*
X012470Y007519D01*
X012470Y007441D02*
X006808Y007441D01*
X006887Y007362D02*
X012470Y007362D01*
X012470Y007284D02*
X006965Y007284D01*
X007016Y007205D02*
X012470Y007205D01*
X012470Y007127D02*
X007048Y007127D01*
X007060Y007048D02*
X007335Y007048D01*
X007236Y006970D02*
X007060Y006970D01*
X007123Y006891D02*
X007157Y006891D01*
X007945Y007048D02*
X008335Y007048D01*
X008236Y006970D02*
X008044Y006970D01*
X008123Y006891D02*
X008157Y006891D01*
X008945Y007048D02*
X009335Y007048D01*
X009236Y006970D02*
X009044Y006970D01*
X009123Y006891D02*
X009157Y006891D01*
X009945Y007048D02*
X010335Y007048D01*
X010236Y006970D02*
X010044Y006970D01*
X010123Y006891D02*
X010157Y006891D01*
X011240Y005714D02*
X011365Y005714D01*
X011286Y005635D02*
X011240Y005635D01*
X011946Y007598D02*
X012470Y007598D01*
X012470Y007676D02*
X012025Y007676D01*
X012103Y007755D02*
X012470Y007755D01*
X012470Y007833D02*
X012182Y007833D01*
X012240Y007912D02*
X012470Y007912D01*
X012446Y007990D02*
X012240Y007990D01*
X012240Y008069D02*
X012368Y008069D01*
X012289Y008147D02*
X012240Y008147D01*
X011661Y008775D02*
X011194Y008775D01*
X011162Y008697D02*
X011348Y008697D01*
X011269Y008618D02*
X011102Y008618D01*
X011023Y008540D02*
X011191Y008540D01*
X011112Y008461D02*
X010895Y008461D01*
X010385Y008461D02*
X009895Y008461D01*
X010023Y008540D02*
X010257Y008540D01*
X010178Y008618D02*
X010102Y008618D01*
X011227Y008854D02*
X011583Y008854D01*
X011504Y008932D02*
X011240Y008932D01*
X011240Y009011D02*
X011426Y009011D01*
X011383Y009089D02*
X011240Y009089D01*
X011240Y009168D02*
X011351Y009168D01*
X011345Y009246D02*
X011240Y009246D01*
X011240Y009325D02*
X011345Y009325D01*
X011345Y009403D02*
X011240Y009403D01*
X011240Y009482D02*
X011345Y009482D01*
X011345Y009560D02*
X011240Y009560D01*
X011240Y009639D02*
X011345Y009639D01*
X011345Y009717D02*
X011210Y009717D01*
X011177Y009796D02*
X011345Y009796D01*
X011345Y009874D02*
X011223Y009874D01*
X011240Y009953D02*
X011345Y009953D01*
X011345Y010031D02*
X011240Y010031D01*
X011240Y010110D02*
X011345Y010110D01*
X011345Y010188D02*
X011240Y010188D01*
X011240Y010267D02*
X011345Y010267D01*
X011341Y010345D02*
X011240Y010345D01*
X011262Y010424D02*
X011205Y010424D01*
X011013Y011366D02*
X011415Y011366D01*
X011471Y011444D02*
X010934Y011444D01*
X010346Y011444D02*
X009934Y011444D01*
X010013Y011366D02*
X010267Y011366D01*
X010189Y011287D02*
X010091Y011287D01*
X009101Y010581D02*
X009021Y010581D01*
X009040Y010659D02*
X009040Y010659D01*
X008943Y010502D02*
X009154Y010502D01*
X008416Y010424D02*
X008147Y010424D01*
X008226Y010502D02*
X008337Y010502D01*
X008259Y010581D02*
X008240Y010581D01*
X008240Y010659D02*
X008240Y010659D01*
X008060Y011523D02*
X011549Y011523D01*
X011628Y011601D02*
X008060Y011601D01*
X008171Y011994D02*
X008372Y011994D01*
X008294Y012072D02*
X008249Y012072D01*
X008590Y012072D02*
X008670Y012072D01*
X008670Y011994D02*
X008590Y011994D01*
X008590Y012151D02*
X008670Y012151D01*
X008670Y012229D02*
X008590Y012229D01*
X008590Y012308D02*
X008670Y012308D01*
X008670Y012779D02*
X008590Y012779D01*
X007435Y014192D02*
X007057Y014192D01*
X006979Y014270D02*
X007435Y014270D01*
X007455Y014349D02*
X006900Y014349D01*
X006822Y014427D02*
X007534Y014427D01*
X002767Y013093D02*
X002513Y013093D01*
X002637Y013014D02*
X002643Y013014D01*
X007100Y003359D02*
X007180Y003359D01*
X007180Y003280D02*
X007100Y003280D01*
X007100Y003202D02*
X007180Y003202D01*
X007180Y002966D02*
X007100Y002966D01*
X007100Y002888D02*
X007180Y002888D01*
X007180Y002809D02*
X007100Y002809D01*
X007100Y002731D02*
X007180Y002731D01*
X007180Y002652D02*
X007100Y002652D01*
X007343Y002652D02*
X009102Y002652D01*
X009136Y002731D02*
X007421Y002731D01*
X007500Y002809D02*
X009214Y002809D01*
X009293Y002888D02*
X007540Y002888D01*
X007540Y002966D02*
X009469Y002966D01*
X005890Y002417D02*
X000580Y002417D01*
X000580Y002495D02*
X005811Y002495D01*
X013163Y008461D02*
X013635Y008461D01*
X013507Y008540D02*
X013273Y008540D01*
X013352Y008618D02*
X013428Y008618D01*
X013468Y010895D02*
X013312Y010895D01*
X013233Y010973D02*
X013547Y010973D01*
M02*
