G75*
%MOIN*%
%OFA0B0*%
%FSLAX24Y24*%
%IPPOS*%
%LPD*%
%AMOC8*
5,1,8,0,0,1.08239X$1,22.5*
%
%ADD10C,0.0000*%
%ADD11C,0.0520*%
%ADD12OC8,0.0520*%
%ADD13OC8,0.0630*%
%ADD14R,0.0515X0.0515*%
%ADD15R,0.2500X0.1500*%
%ADD16R,0.0500X0.1500*%
%ADD17C,0.0515*%
%ADD18C,0.0320*%
%ADD19C,0.0160*%
%ADD20C,0.0240*%
D10*
X000105Y000105D02*
X000105Y019790D01*
X019790Y019790D01*
X019790Y000105D01*
X000105Y000105D01*
D11*
X001355Y003095D02*
X001355Y003615D01*
X002355Y003615D02*
X002355Y003095D01*
X003355Y003095D02*
X003355Y003615D01*
X003355Y005470D02*
X003355Y005990D01*
X002355Y005990D02*
X002355Y005470D01*
X001355Y005470D02*
X001355Y005990D01*
X004855Y005970D02*
X004855Y006490D01*
X005855Y006490D02*
X005855Y005970D01*
X006855Y005970D02*
X006855Y006490D01*
X007855Y006490D02*
X007855Y005970D01*
X008855Y005970D02*
X008855Y006490D01*
X009855Y006490D02*
X009855Y005970D01*
X010855Y005970D02*
X010855Y006490D01*
X013105Y006490D02*
X013105Y005970D01*
X014105Y005970D02*
X014105Y006490D01*
X015105Y006490D02*
X015105Y005970D01*
X016105Y005970D02*
X016105Y006490D01*
X017105Y006490D02*
X017105Y005970D01*
X018105Y005970D02*
X018105Y006490D01*
X019105Y006490D02*
X019105Y005970D01*
X019105Y008970D02*
X019105Y009490D01*
X018105Y009490D02*
X018105Y008970D01*
X017105Y008970D02*
X017105Y009490D01*
X016105Y009490D02*
X016105Y008970D01*
X015105Y008970D02*
X015105Y009490D01*
X014105Y009490D02*
X014105Y008970D01*
X013105Y008970D02*
X013105Y009490D01*
X010855Y009490D02*
X010855Y008970D01*
X009855Y008970D02*
X009855Y009490D01*
X008855Y009490D02*
X008855Y008970D01*
X007855Y008970D02*
X007855Y009490D01*
X006855Y009490D02*
X006855Y008970D01*
X005855Y008970D02*
X005855Y009490D01*
X004855Y009490D02*
X004855Y008970D01*
X003355Y010470D02*
X003355Y010990D01*
X002355Y010990D02*
X002355Y010470D01*
X001355Y010470D02*
X001355Y010990D01*
X007355Y015845D02*
X007355Y016365D01*
X008355Y016365D02*
X008355Y015845D01*
X009355Y015845D02*
X009355Y016365D01*
X010355Y016365D02*
X010355Y015845D01*
X011355Y015845D02*
X011355Y016365D01*
X012355Y016365D02*
X012355Y015845D01*
X013355Y015845D02*
X013355Y016365D01*
X013355Y018845D02*
X013355Y019365D01*
X012355Y019365D02*
X012355Y018845D01*
X011355Y018845D02*
X011355Y019365D01*
X010355Y019365D02*
X010355Y018845D01*
X009355Y018845D02*
X009355Y019365D01*
X008355Y019365D02*
X008355Y018845D01*
X007355Y018845D02*
X007355Y019365D01*
X017095Y017105D02*
X017615Y017105D01*
X017615Y016105D02*
X017095Y016105D01*
X017095Y015105D02*
X017615Y015105D01*
X017355Y001365D02*
X017355Y000845D01*
X018355Y000845D02*
X018355Y001365D01*
X019355Y001365D02*
X019355Y000845D01*
D12*
X019355Y002980D03*
X019355Y003980D03*
X017355Y003855D03*
X017355Y002855D03*
X016355Y003730D03*
X016355Y000730D03*
X013105Y004480D03*
X013105Y005480D03*
X011855Y005105D03*
X010855Y005480D03*
X010855Y004480D03*
X011855Y008105D03*
X010855Y010105D03*
X010855Y010855D03*
X009855Y010855D03*
X009855Y010105D03*
X008855Y011855D03*
X007855Y011855D03*
X005855Y011105D03*
X005855Y010105D03*
X010355Y014980D03*
X011355Y014980D03*
X012230Y014105D03*
X013855Y012730D03*
X014855Y012730D03*
X016230Y012480D03*
X016230Y013480D03*
X017605Y014230D03*
X018355Y014230D03*
X018355Y013230D03*
X019105Y012105D03*
X018605Y011605D03*
X019105Y011105D03*
X018105Y010980D03*
X017605Y011605D03*
X017105Y010980D03*
X014605Y014230D03*
X014355Y016605D03*
X014355Y017605D03*
X015355Y017605D03*
X016105Y018105D03*
X016105Y017105D03*
X015355Y016605D03*
X017980Y018105D03*
X017980Y019105D03*
X012230Y011105D03*
X005730Y004480D03*
X004730Y004480D03*
D13*
X013105Y010355D03*
X014105Y010355D03*
X008845Y013969D03*
X007845Y013969D03*
X015105Y004480D03*
X016105Y004480D03*
X018105Y005105D03*
X019105Y005105D03*
D14*
X003355Y007480D03*
X002355Y007480D03*
X001355Y007480D03*
X001355Y008980D03*
X002355Y008980D03*
X003355Y008980D03*
X003355Y012480D03*
X002355Y012480D03*
X001355Y012480D03*
D15*
X011855Y001855D03*
D16*
X009855Y001855D03*
X013855Y001855D03*
D17*
X013855Y002355D03*
X013855Y001355D03*
X012855Y001355D03*
X012855Y002355D03*
X011855Y002355D03*
X011855Y001355D03*
X010855Y001355D03*
X010855Y002355D03*
X009855Y002355D03*
X009855Y001355D03*
D18*
X009855Y002355D01*
X009855Y002855D01*
X010355Y003355D01*
X011480Y003355D01*
X011855Y003730D01*
X011855Y005105D01*
X011855Y002355D02*
X012855Y002355D01*
X012855Y001355D01*
X011855Y001355D01*
X010855Y001355D01*
X010855Y002355D01*
X013855Y002355D02*
X013855Y001355D01*
X014855Y001355D01*
X015480Y000730D01*
X016355Y000730D01*
D19*
X017355Y003855D02*
X017355Y004355D01*
X016355Y005355D01*
X013230Y005355D01*
X013105Y005480D01*
X015605Y007355D02*
X019230Y007355D01*
X019605Y007730D01*
X019605Y017605D01*
X019105Y018105D01*
X017980Y018105D01*
X016105Y018105D01*
X015355Y017605D01*
X015355Y016605D01*
X015730Y015855D02*
X014855Y015855D01*
X014355Y016355D01*
X014355Y016605D01*
X014355Y017605D02*
X011980Y017605D01*
X011355Y016980D01*
X011355Y016105D01*
X010355Y016105D02*
X010355Y014980D01*
X010105Y014105D02*
X012230Y014105D01*
X012730Y013355D02*
X004230Y013355D01*
X003355Y012480D01*
X002355Y012480D01*
X002855Y011730D02*
X006355Y011730D01*
X006855Y011230D01*
X006855Y009230D01*
X005855Y011105D02*
X009605Y011105D01*
X009855Y010855D01*
X010855Y010105D02*
X011355Y010105D01*
X011605Y010355D01*
X012230Y011105D01*
X013105Y010605D02*
X013105Y010355D01*
X013105Y010605D02*
X014105Y011605D01*
X016105Y011605D01*
X017605Y013105D01*
X017605Y014230D01*
X017355Y015105D02*
X017355Y016105D01*
X018605Y016105D01*
X019105Y015605D01*
X019105Y013230D01*
X019105Y012105D01*
X019105Y013230D02*
X018355Y013230D01*
X018230Y013230D01*
X016230Y011230D01*
X014480Y011230D01*
X014105Y010855D01*
X014105Y010355D01*
X015855Y012480D02*
X016230Y012480D01*
X015855Y012480D02*
X015605Y012730D01*
X014855Y012730D01*
X016230Y013480D02*
X016230Y015355D01*
X015730Y015855D01*
X016105Y017105D02*
X017355Y017105D01*
X017980Y019105D02*
X014605Y019105D01*
X013605Y018105D01*
X010730Y018105D01*
X009355Y016730D01*
X009355Y016105D01*
X008980Y015230D02*
X010105Y014105D01*
X008980Y015230D02*
X008355Y015230D01*
X008355Y016105D01*
X012730Y013355D02*
X013605Y014230D01*
X014605Y014230D01*
X010855Y010105D02*
X010855Y009230D01*
X002855Y011730D02*
X002355Y011230D01*
X002355Y010730D01*
D20*
X007855Y009230D02*
X007855Y008605D01*
X008355Y008105D01*
X011980Y008105D01*
X011855Y008230D01*
X011855Y008105D01*
X011980Y008105D02*
X015605Y008105D01*
X016105Y008605D01*
X016105Y009230D01*
X015605Y007355D02*
X016105Y006855D01*
X016105Y006230D01*
X015605Y007355D02*
X008355Y007355D01*
X007855Y006855D01*
X007855Y006230D01*
M02*
