%
M48
M72
T01C0.0315
T02C0.0320
%
T01
X1390Y7515
X2390Y7515
X3390Y7515
X3390Y9015
X2390Y9015
X1390Y9015
X1390Y12515
X2390Y12515
X3390Y12515
X9890Y2390
X9890Y1390
X10890Y1390
X10890Y2390
X11890Y2390
X11890Y1390
X12890Y1390
X12890Y2390
X13890Y2390
X13890Y1390
T02
X1390Y3390
X2390Y3390
X3390Y3390
X4765Y4515
X5765Y4515
X5890Y6265
X4890Y6265
X3390Y5765
X2390Y5765
X1390Y5765
X4890Y9265
X5890Y9265
X5890Y10140
X5890Y11140
X6890Y9265
X7890Y9265
X8890Y9265
X9890Y9265
X9890Y10140
X9890Y10890
X10890Y10890
X10890Y10140
X10890Y9265
X11890Y8140
X13140Y9265
X14140Y9265
X15140Y9265
X16140Y9265
X17140Y9265
X18140Y9265
X19140Y9265
X18140Y11015
X17640Y11640
X17140Y11015
X18640Y11640
X19140Y12140
X19140Y11140
X18390Y13265
X18390Y14265
X17640Y14265
X17390Y15140
X17390Y16140
X17390Y17140
X18015Y18140
X18015Y19140
X16140Y18140
X15390Y17640
X16140Y17140
X15390Y16640
X14390Y16640
X14390Y17640
X13390Y16140
X12390Y16140
X11390Y16140
X10390Y16140
X9390Y16140
X8390Y16140
X7390Y16140
X7880Y14004
X8880Y14004
X10390Y15015
X11390Y15015
X12265Y14140
X13890Y12765
X14890Y12765
X16265Y12515
X16265Y13515
X14640Y14265
X12265Y11140
X13140Y10390
X14140Y10390
X14140Y6265
X13140Y6265
X13140Y5515
X13140Y4515
X11890Y5140
X10890Y5515
X10890Y6265
X9890Y6265
X8890Y6265
X7890Y6265
X6890Y6265
X10890Y4515
X15140Y4515
X16140Y4515
X16390Y3765
X17390Y3890
X17390Y2890
X17390Y1140
X18390Y1140
X19390Y1140
X19390Y3015
X19390Y4015
X19140Y5140
X18140Y5140
X18140Y6265
X17140Y6265
X16140Y6265
X15140Y6265
X19140Y6265
X16390Y765
X8890Y11890
X7890Y11890
X3390Y10765
X2390Y10765
X1390Y10765
X7390Y19140
X8390Y19140
X9390Y19140
X10390Y19140
X11390Y19140
X12390Y19140
X13390Y19140
M30
