G75*
%MOIN*%
%OFA0B0*%
%FSLAX24Y24*%
%IPPOS*%
%LPD*%
%AMOC8*
5,1,8,0,0,1.08239X$1,22.5*
%
%ADD10C,0.0160*%
%ADD11C,0.0060*%
%ADD12C,0.0020*%
%ADD13C,0.0050*%
%ADD14C,0.0070*%
%ADD15R,0.0200X0.0150*%
%ADD16C,0.0100*%
%ADD17C,0.0200*%
%ADD18R,0.0150X0.0200*%
%ADD19R,0.1990X0.0450*%
D10*
X006015Y002515D02*
X006265Y002515D01*
X006140Y002640D02*
X006140Y002390D01*
X007015Y002515D02*
X007265Y002515D01*
X008640Y010140D02*
X008640Y010390D01*
X008515Y010265D02*
X008765Y010265D01*
X007765Y010265D02*
X007515Y010265D01*
D11*
X007190Y009965D02*
X007192Y009948D01*
X007196Y009931D01*
X007203Y009915D01*
X007213Y009901D01*
X007226Y009888D01*
X007240Y009878D01*
X007256Y009871D01*
X007273Y009867D01*
X007290Y009865D01*
X008990Y009865D01*
X009007Y009867D01*
X009024Y009871D01*
X009040Y009878D01*
X009054Y009888D01*
X009067Y009901D01*
X009077Y009915D01*
X009084Y009931D01*
X009088Y009948D01*
X009090Y009965D01*
X009090Y011565D01*
X009088Y011582D01*
X009084Y011599D01*
X009077Y011615D01*
X009067Y011629D01*
X009054Y011642D01*
X009040Y011652D01*
X009024Y011659D01*
X009007Y011663D01*
X008990Y011665D01*
X007290Y011665D01*
X007273Y011663D01*
X007256Y011659D01*
X007240Y011652D01*
X007226Y011642D01*
X007213Y011629D01*
X007203Y011615D01*
X007196Y011599D01*
X007192Y011582D01*
X007190Y011565D01*
X007190Y009965D01*
X007990Y010765D02*
X008040Y010765D01*
X008240Y010765D02*
X008290Y010765D01*
X008980Y011879D02*
X007280Y011879D01*
X007263Y011881D01*
X007246Y011885D01*
X007230Y011892D01*
X007216Y011902D01*
X007203Y011915D01*
X007193Y011929D01*
X007186Y011945D01*
X007182Y011962D01*
X007180Y011979D01*
X007180Y012779D01*
X007182Y012796D01*
X007186Y012813D01*
X007193Y012829D01*
X007203Y012843D01*
X007216Y012856D01*
X007230Y012866D01*
X007246Y012873D01*
X007263Y012877D01*
X007280Y012879D01*
X008980Y012879D01*
X008997Y012877D01*
X009014Y012873D01*
X009030Y012866D01*
X009044Y012856D01*
X009057Y012843D01*
X009067Y012829D01*
X009074Y012813D01*
X009078Y012796D01*
X009080Y012779D01*
X009080Y011979D01*
X009078Y011962D01*
X009074Y011945D01*
X009067Y011929D01*
X009057Y011915D01*
X009044Y011902D01*
X009030Y011892D01*
X009014Y011885D01*
X008997Y011881D01*
X008980Y011879D01*
X008280Y012379D02*
X008230Y012379D01*
X008030Y012379D02*
X007980Y012379D01*
X008290Y013690D02*
X007490Y013690D01*
X007473Y013692D01*
X007456Y013696D01*
X007440Y013703D01*
X007426Y013713D01*
X007413Y013726D01*
X007403Y013740D01*
X007396Y013756D01*
X007392Y013773D01*
X007390Y013790D01*
X007390Y015490D01*
X007392Y015507D01*
X007396Y015524D01*
X007403Y015540D01*
X007413Y015554D01*
X007426Y015567D01*
X007440Y015577D01*
X007456Y015584D01*
X007473Y015588D01*
X007490Y015590D01*
X008290Y015590D01*
X008307Y015588D01*
X008324Y015584D01*
X008340Y015577D01*
X008354Y015567D01*
X008367Y015554D01*
X008377Y015540D01*
X008384Y015524D01*
X008388Y015507D01*
X008390Y015490D01*
X008390Y013790D01*
X008388Y013773D01*
X008384Y013756D01*
X008377Y013740D01*
X008367Y013726D01*
X008354Y013713D01*
X008340Y013703D01*
X008324Y013696D01*
X008307Y013692D01*
X008290Y013690D01*
X007890Y014490D02*
X007890Y014540D01*
X007890Y014740D02*
X007890Y014790D01*
X009190Y014740D02*
X009190Y015540D01*
X009192Y015557D01*
X009196Y015574D01*
X009203Y015590D01*
X009213Y015604D01*
X009226Y015617D01*
X009240Y015627D01*
X009256Y015634D01*
X009273Y015638D01*
X009290Y015640D01*
X010990Y015640D01*
X011007Y015638D01*
X011024Y015634D01*
X011040Y015627D01*
X011054Y015617D01*
X011067Y015604D01*
X011077Y015590D01*
X011084Y015574D01*
X011088Y015557D01*
X011090Y015540D01*
X011090Y014740D01*
X011088Y014723D01*
X011084Y014706D01*
X011077Y014690D01*
X011067Y014676D01*
X011054Y014663D01*
X011040Y014653D01*
X011024Y014646D01*
X011007Y014642D01*
X010990Y014640D01*
X009290Y014640D01*
X009273Y014642D01*
X009256Y014646D01*
X009240Y014653D01*
X009226Y014663D01*
X009213Y014676D01*
X009203Y014690D01*
X009196Y014706D01*
X009192Y014723D01*
X009190Y014740D01*
X009990Y015140D02*
X010040Y015140D01*
X010240Y015140D02*
X010290Y015140D01*
X011715Y013640D02*
X012315Y013640D01*
X012332Y013638D01*
X012349Y013634D01*
X012365Y013627D01*
X012379Y013617D01*
X012392Y013604D01*
X012402Y013590D01*
X012409Y013574D01*
X012413Y013557D01*
X012415Y013540D01*
X012415Y013390D01*
X012365Y013340D01*
X012365Y011940D01*
X012415Y011890D01*
X012415Y011740D01*
X012413Y011723D01*
X012409Y011706D01*
X012402Y011690D01*
X012392Y011676D01*
X012379Y011663D01*
X012365Y011653D01*
X012349Y011646D01*
X012332Y011642D01*
X012315Y011640D01*
X011715Y011640D01*
X011698Y011642D01*
X011681Y011646D01*
X011665Y011653D01*
X011651Y011663D01*
X011638Y011676D01*
X011628Y011690D01*
X011621Y011706D01*
X011617Y011723D01*
X011615Y011740D01*
X011615Y011890D01*
X011665Y011940D01*
X011665Y013340D01*
X011615Y013390D01*
X011615Y013540D01*
X011617Y013557D01*
X011621Y013574D01*
X011628Y013590D01*
X011638Y013604D01*
X011651Y013617D01*
X011665Y013627D01*
X011681Y013634D01*
X011698Y013638D01*
X011715Y013640D01*
X012540Y010890D02*
X014240Y010890D01*
X014257Y010888D01*
X014274Y010884D01*
X014290Y010877D01*
X014304Y010867D01*
X014317Y010854D01*
X014327Y010840D01*
X014334Y010824D01*
X014338Y010807D01*
X014340Y010790D01*
X014340Y009990D01*
X014338Y009973D01*
X014334Y009956D01*
X014327Y009940D01*
X014317Y009926D01*
X014304Y009913D01*
X014290Y009903D01*
X014274Y009896D01*
X014257Y009892D01*
X014240Y009890D01*
X012540Y009890D01*
X012523Y009892D01*
X012506Y009896D01*
X012490Y009903D01*
X012476Y009913D01*
X012463Y009926D01*
X012453Y009940D01*
X012446Y009956D01*
X012442Y009973D01*
X012440Y009990D01*
X012440Y010790D01*
X012442Y010807D01*
X012446Y010824D01*
X012453Y010840D01*
X012463Y010854D01*
X012476Y010867D01*
X012490Y010877D01*
X012506Y010884D01*
X012523Y010888D01*
X012540Y010890D01*
X013240Y010390D02*
X013290Y010390D01*
X013490Y010390D02*
X013540Y010390D01*
X012390Y008915D02*
X012390Y008165D01*
X012429Y008163D01*
X012468Y008157D01*
X012506Y008148D01*
X012543Y008135D01*
X012579Y008118D01*
X012612Y008098D01*
X012644Y008074D01*
X012673Y008048D01*
X012699Y008019D01*
X012723Y007987D01*
X012743Y007954D01*
X012760Y007918D01*
X012773Y007881D01*
X012782Y007843D01*
X012788Y007804D01*
X012790Y007765D01*
X012788Y007726D01*
X012782Y007687D01*
X012773Y007649D01*
X012760Y007612D01*
X012743Y007576D01*
X012723Y007543D01*
X012699Y007511D01*
X012673Y007482D01*
X012644Y007456D01*
X012612Y007432D01*
X012579Y007412D01*
X012543Y007395D01*
X012506Y007382D01*
X012468Y007373D01*
X012429Y007367D01*
X012390Y007365D01*
X012390Y006615D01*
X019390Y006615D01*
X019390Y008915D01*
X012390Y008915D01*
X011940Y007640D02*
X011340Y007640D01*
X011323Y007638D01*
X011306Y007634D01*
X011290Y007627D01*
X011276Y007617D01*
X011263Y007604D01*
X011253Y007590D01*
X011246Y007574D01*
X011242Y007557D01*
X011240Y007540D01*
X011240Y007390D01*
X011290Y007340D01*
X011290Y005940D01*
X011240Y005890D01*
X011240Y005740D01*
X011242Y005723D01*
X011246Y005706D01*
X011253Y005690D01*
X011263Y005676D01*
X011276Y005663D01*
X011290Y005653D01*
X011306Y005646D01*
X011323Y005642D01*
X011340Y005640D01*
X011940Y005640D01*
X011957Y005642D01*
X011974Y005646D01*
X011990Y005653D01*
X012004Y005663D01*
X012017Y005676D01*
X012027Y005690D01*
X012034Y005706D01*
X012038Y005723D01*
X012040Y005740D01*
X012040Y005890D01*
X011990Y005940D01*
X011990Y007340D01*
X012040Y007390D01*
X012040Y007540D01*
X012038Y007557D01*
X012034Y007574D01*
X012027Y007590D01*
X012017Y007604D01*
X012004Y007617D01*
X011990Y007627D01*
X011974Y007634D01*
X011957Y007638D01*
X011940Y007640D01*
X011140Y006615D02*
X011140Y008915D01*
X004140Y008915D01*
X004140Y008165D01*
X004179Y008163D01*
X004218Y008157D01*
X004256Y008148D01*
X004293Y008135D01*
X004329Y008118D01*
X004362Y008098D01*
X004394Y008074D01*
X004423Y008048D01*
X004449Y008019D01*
X004473Y007987D01*
X004493Y007954D01*
X004510Y007918D01*
X004523Y007881D01*
X004532Y007843D01*
X004538Y007804D01*
X004540Y007765D01*
X004538Y007726D01*
X004532Y007687D01*
X004523Y007649D01*
X004510Y007612D01*
X004493Y007576D01*
X004473Y007543D01*
X004449Y007511D01*
X004423Y007482D01*
X004394Y007456D01*
X004362Y007432D01*
X004329Y007412D01*
X004293Y007395D01*
X004256Y007382D01*
X004218Y007373D01*
X004179Y007367D01*
X004140Y007365D01*
X004140Y006615D01*
X011140Y006615D01*
X014440Y004915D02*
X014440Y004115D01*
X014442Y004098D01*
X014446Y004081D01*
X014453Y004065D01*
X014463Y004051D01*
X014476Y004038D01*
X014490Y004028D01*
X014506Y004021D01*
X014523Y004017D01*
X014540Y004015D01*
X016240Y004015D01*
X016257Y004017D01*
X016274Y004021D01*
X016290Y004028D01*
X016304Y004038D01*
X016317Y004051D01*
X016327Y004065D01*
X016334Y004081D01*
X016338Y004098D01*
X016340Y004115D01*
X016340Y004915D01*
X016338Y004932D01*
X016334Y004949D01*
X016327Y004965D01*
X016317Y004979D01*
X016304Y004992D01*
X016290Y005002D01*
X016274Y005009D01*
X016257Y005013D01*
X016240Y005015D01*
X014540Y005015D01*
X014523Y005013D01*
X014506Y005009D01*
X014490Y005002D01*
X014476Y004992D01*
X014463Y004979D01*
X014453Y004965D01*
X014446Y004949D01*
X014442Y004932D01*
X014440Y004915D01*
X015240Y004515D02*
X015290Y004515D01*
X015490Y004515D02*
X015540Y004515D01*
X015840Y003265D02*
X016440Y003265D01*
X016457Y003263D01*
X016474Y003259D01*
X016490Y003252D01*
X016504Y003242D01*
X016517Y003229D01*
X016527Y003215D01*
X016534Y003199D01*
X016538Y003182D01*
X016540Y003165D01*
X016540Y003015D01*
X016490Y002965D01*
X016490Y001565D01*
X016540Y001515D01*
X016540Y001365D01*
X016538Y001348D01*
X016534Y001331D01*
X016527Y001315D01*
X016517Y001301D01*
X016504Y001288D01*
X016490Y001278D01*
X016474Y001271D01*
X016457Y001267D01*
X016440Y001265D01*
X015840Y001265D01*
X015823Y001267D01*
X015806Y001271D01*
X015790Y001278D01*
X015776Y001288D01*
X015763Y001301D01*
X015753Y001315D01*
X015746Y001331D01*
X015742Y001348D01*
X015740Y001365D01*
X015740Y001515D01*
X015790Y001565D01*
X015790Y002965D01*
X015740Y003015D01*
X015740Y003165D01*
X015742Y003182D01*
X015746Y003199D01*
X015753Y003215D01*
X015763Y003229D01*
X015776Y003242D01*
X015790Y003252D01*
X015806Y003259D01*
X015823Y003263D01*
X015840Y003265D01*
X016890Y001940D02*
X016890Y001690D01*
X016890Y001940D02*
X019390Y001940D01*
X019390Y001690D01*
X019390Y000590D02*
X019390Y000270D01*
X016890Y000270D01*
X016890Y000590D01*
X017040Y000590D02*
X017640Y000590D01*
X017640Y000440D01*
X017590Y000390D01*
X017590Y000790D01*
X017640Y000740D01*
X017640Y000590D01*
X017790Y000590D01*
X017740Y000640D01*
X017690Y000690D01*
X017640Y000740D01*
X017690Y000690D02*
X017690Y000490D01*
X017740Y000540D01*
X017740Y000640D01*
X017790Y000590D02*
X017740Y000540D01*
X017690Y000490D02*
X017640Y000440D01*
X017540Y004640D02*
X019240Y004640D01*
X019257Y004642D01*
X019274Y004646D01*
X019290Y004653D01*
X019304Y004663D01*
X019317Y004676D01*
X019327Y004690D01*
X019334Y004706D01*
X019338Y004723D01*
X019340Y004740D01*
X019340Y005540D01*
X019338Y005557D01*
X019334Y005574D01*
X019327Y005590D01*
X019317Y005604D01*
X019304Y005617D01*
X019290Y005627D01*
X019274Y005634D01*
X019257Y005638D01*
X019240Y005640D01*
X017540Y005640D01*
X017523Y005638D01*
X017506Y005634D01*
X017490Y005627D01*
X017476Y005617D01*
X017463Y005604D01*
X017453Y005590D01*
X017446Y005574D01*
X017442Y005557D01*
X017440Y005540D01*
X017440Y004740D01*
X017442Y004723D01*
X017446Y004706D01*
X017453Y004690D01*
X017463Y004676D01*
X017476Y004663D01*
X017490Y004653D01*
X017506Y004646D01*
X017523Y004642D01*
X017540Y004640D01*
X018240Y005140D02*
X018290Y005140D01*
X018490Y005140D02*
X018540Y005140D01*
X016790Y013865D02*
X016640Y013865D01*
X016590Y013915D01*
X015190Y013915D01*
X015140Y013865D01*
X014990Y013865D01*
X014973Y013867D01*
X014956Y013871D01*
X014940Y013878D01*
X014926Y013888D01*
X014913Y013901D01*
X014903Y013915D01*
X014896Y013931D01*
X014892Y013948D01*
X014890Y013965D01*
X014890Y014565D01*
X014892Y014582D01*
X014896Y014599D01*
X014903Y014615D01*
X014913Y014629D01*
X014926Y014642D01*
X014940Y014652D01*
X014956Y014659D01*
X014973Y014663D01*
X014990Y014665D01*
X015140Y014665D01*
X015190Y014615D01*
X016590Y014615D01*
X016640Y014665D01*
X016790Y014665D01*
X016807Y014663D01*
X016824Y014659D01*
X016840Y014652D01*
X016854Y014642D01*
X016867Y014629D01*
X016877Y014615D01*
X016884Y014599D01*
X016888Y014582D01*
X016890Y014565D01*
X016890Y013965D01*
X016888Y013948D01*
X016884Y013931D01*
X016877Y013915D01*
X016867Y013901D01*
X016854Y013888D01*
X016840Y013878D01*
X016824Y013871D01*
X016807Y013867D01*
X016790Y013865D01*
X013590Y016540D02*
X013590Y018740D01*
X006690Y018740D01*
X006690Y017890D01*
X006720Y017888D01*
X006750Y017883D01*
X006779Y017874D01*
X006806Y017861D01*
X006832Y017846D01*
X006856Y017827D01*
X006877Y017806D01*
X006896Y017782D01*
X006911Y017756D01*
X006924Y017729D01*
X006933Y017700D01*
X006938Y017670D01*
X006940Y017640D01*
X006938Y017610D01*
X006933Y017580D01*
X006924Y017551D01*
X006911Y017524D01*
X006896Y017498D01*
X006877Y017474D01*
X006856Y017453D01*
X006832Y017434D01*
X006806Y017419D01*
X006779Y017406D01*
X006750Y017397D01*
X006720Y017392D01*
X006690Y017390D01*
X006690Y016540D01*
X013590Y016540D01*
X013890Y017965D02*
X013890Y018215D01*
X013890Y017965D02*
X016390Y017965D01*
X016390Y018215D01*
X015690Y019115D02*
X015690Y019515D01*
X015640Y019465D01*
X015640Y019315D01*
X015640Y019165D01*
X015690Y019115D01*
X015640Y019165D02*
X015590Y019215D01*
X015540Y019265D01*
X015540Y019365D01*
X015590Y019415D01*
X015640Y019465D01*
X015590Y019415D02*
X015590Y019215D01*
X015540Y019265D02*
X015490Y019315D01*
X015640Y019315D01*
X016240Y019315D01*
X016390Y019315D02*
X016390Y019635D01*
X013890Y019635D01*
X013890Y019315D01*
X015490Y019315D02*
X015540Y019365D01*
X003390Y011635D02*
X003390Y011315D01*
X003240Y011315D02*
X002640Y011315D01*
X002640Y011465D01*
X002690Y011515D01*
X002690Y011115D01*
X002640Y011165D01*
X002640Y011315D01*
X002490Y011315D01*
X002540Y011265D01*
X002590Y011215D01*
X002640Y011165D01*
X002590Y011215D02*
X002590Y011415D01*
X002540Y011365D01*
X002540Y011265D01*
X002490Y011315D02*
X002540Y011365D01*
X002590Y011415D02*
X002640Y011465D01*
X003390Y011635D02*
X000890Y011635D01*
X000890Y011315D01*
X000890Y010215D02*
X000890Y009965D01*
X003390Y009965D01*
X003390Y010215D01*
X003390Y006635D02*
X000890Y006635D01*
X000890Y006315D01*
X000890Y005215D02*
X000890Y004965D01*
X003390Y004965D01*
X003390Y005215D01*
X002690Y006115D02*
X002690Y006515D01*
X002640Y006465D01*
X002640Y006315D01*
X002640Y006165D01*
X002690Y006115D01*
X002640Y006165D02*
X002590Y006215D01*
X002540Y006265D01*
X002540Y006365D01*
X002590Y006415D01*
X002640Y006465D01*
X002590Y006415D02*
X002590Y006215D01*
X002540Y006265D02*
X002490Y006315D01*
X002640Y006315D01*
X003240Y006315D01*
X003390Y006315D02*
X003390Y006635D01*
X002540Y006365D02*
X002490Y006315D01*
X003390Y004260D02*
X000890Y004260D01*
X000890Y003940D01*
X000890Y002840D02*
X000890Y002590D01*
X003390Y002590D01*
X003390Y002840D01*
X002690Y003740D02*
X002690Y004140D01*
X002640Y004090D01*
X002640Y003940D01*
X002640Y003790D01*
X002690Y003740D01*
X002640Y003790D02*
X002590Y003840D01*
X002540Y003890D01*
X002540Y003990D01*
X002590Y004040D01*
X002640Y004090D01*
X002590Y004040D02*
X002590Y003840D01*
X002540Y003890D02*
X002490Y003940D01*
X002640Y003940D01*
X003240Y003940D01*
X003390Y003940D02*
X003390Y004260D01*
X002540Y003990D02*
X002490Y003940D01*
X005690Y003815D02*
X005690Y002215D01*
X005692Y002198D01*
X005696Y002181D01*
X005703Y002165D01*
X005713Y002151D01*
X005726Y002138D01*
X005740Y002128D01*
X005756Y002121D01*
X005773Y002117D01*
X005790Y002115D01*
X007490Y002115D01*
X007507Y002117D01*
X007524Y002121D01*
X007540Y002128D01*
X007554Y002138D01*
X007567Y002151D01*
X007577Y002165D01*
X007584Y002181D01*
X007588Y002198D01*
X007590Y002215D01*
X007590Y003815D01*
X007588Y003832D01*
X007584Y003849D01*
X007577Y003865D01*
X007567Y003879D01*
X007554Y003892D01*
X007540Y003902D01*
X007524Y003909D01*
X007507Y003913D01*
X007490Y003915D01*
X005790Y003915D01*
X005773Y003913D01*
X005756Y003909D01*
X005740Y003902D01*
X005726Y003892D01*
X005713Y003879D01*
X005703Y003865D01*
X005696Y003849D01*
X005692Y003832D01*
X005690Y003815D01*
X006490Y003015D02*
X006540Y003015D01*
X006740Y003015D02*
X006790Y003015D01*
D12*
X002110Y001980D02*
X001964Y001980D01*
X002037Y001980D02*
X002037Y002200D01*
X001964Y002127D01*
X002111Y002280D02*
X002184Y002280D01*
X002221Y002317D01*
X002221Y002463D01*
X002184Y002500D01*
X002111Y002500D01*
X002074Y002463D01*
X002074Y002317D01*
X002111Y002280D01*
X002221Y002200D02*
X002185Y002163D01*
X002185Y002017D01*
X002331Y002163D01*
X002331Y002017D01*
X002295Y001980D01*
X002221Y001980D01*
X002185Y002017D01*
X002221Y002200D02*
X002295Y002200D01*
X002331Y002163D01*
X002406Y002200D02*
X002406Y001980D01*
X002406Y002053D02*
X002516Y001980D01*
X002406Y002053D02*
X002516Y002127D01*
X002516Y002280D02*
X002516Y002500D01*
X002663Y002500D01*
X002737Y002463D02*
X002737Y002427D01*
X002774Y002390D01*
X002847Y002390D01*
X002884Y002353D01*
X002884Y002317D01*
X002847Y002280D01*
X002774Y002280D01*
X002737Y002317D01*
X002811Y002200D02*
X002811Y001980D01*
X002957Y001980D01*
X003032Y001980D02*
X003105Y001980D01*
X003068Y001980D02*
X003068Y002127D01*
X003032Y002127D01*
X003068Y002200D02*
X003068Y002237D01*
X003105Y002280D02*
X002958Y002280D01*
X002958Y002500D01*
X003105Y002500D01*
X003179Y002500D02*
X003326Y002500D01*
X003252Y002500D02*
X003252Y002280D01*
X003289Y002127D02*
X003179Y002127D01*
X003179Y001980D01*
X003326Y001980D02*
X003326Y002090D01*
X003289Y002127D01*
X003031Y002390D02*
X002958Y002390D01*
X002884Y002463D02*
X002847Y002500D01*
X002774Y002500D01*
X002737Y002463D01*
X002589Y002390D02*
X002516Y002390D01*
X002442Y002500D02*
X002295Y002500D01*
X002295Y002280D01*
X002295Y002390D02*
X002368Y002390D01*
X002000Y002390D02*
X001853Y002390D01*
X001779Y002390D02*
X001779Y002463D01*
X001742Y002500D01*
X001632Y002500D01*
X001632Y002280D01*
X001632Y002353D02*
X001742Y002353D01*
X001779Y002390D01*
X001705Y002353D02*
X001779Y002280D01*
X001816Y004355D02*
X001669Y004355D01*
X001742Y004355D02*
X001742Y004575D01*
X001669Y004502D01*
X001890Y004538D02*
X001890Y004392D01*
X002037Y004538D01*
X002037Y004392D01*
X002000Y004355D01*
X001927Y004355D01*
X001890Y004392D01*
X001890Y004538D02*
X001927Y004575D01*
X002000Y004575D01*
X002037Y004538D01*
X002111Y004538D02*
X002148Y004575D01*
X002221Y004575D01*
X002258Y004538D01*
X002111Y004392D01*
X002148Y004355D01*
X002221Y004355D01*
X002258Y004392D01*
X002258Y004538D01*
X002332Y004575D02*
X002332Y004355D01*
X002332Y004428D02*
X002442Y004502D01*
X002332Y004428D02*
X002442Y004355D01*
X002737Y004355D02*
X002737Y004575D01*
X002810Y004655D02*
X002737Y004728D01*
X002737Y004875D01*
X002663Y004838D02*
X002626Y004875D01*
X002553Y004875D01*
X002516Y004838D01*
X002516Y004692D01*
X002553Y004655D01*
X002626Y004655D01*
X002663Y004692D01*
X002810Y004655D02*
X002884Y004728D01*
X002884Y004875D01*
X002958Y004765D02*
X003105Y004765D01*
X003179Y004765D02*
X003326Y004765D01*
X003326Y004802D02*
X003326Y004655D01*
X003326Y004802D02*
X003252Y004875D01*
X003179Y004802D01*
X003179Y004655D01*
X003216Y004502D02*
X003179Y004465D01*
X003179Y004392D01*
X003216Y004355D01*
X003326Y004355D01*
X003326Y004318D02*
X003326Y004502D01*
X003216Y004502D01*
X003105Y004465D02*
X003105Y004392D01*
X003068Y004355D01*
X002995Y004355D01*
X002958Y004392D01*
X002958Y004465D01*
X002995Y004502D01*
X003068Y004502D01*
X003105Y004465D01*
X003252Y004282D02*
X003289Y004282D01*
X003326Y004318D01*
X002884Y004355D02*
X002737Y004355D01*
X002442Y004765D02*
X002295Y004765D01*
X002221Y004765D02*
X002184Y004728D01*
X002074Y004728D01*
X002074Y004655D02*
X002074Y004875D01*
X002184Y004875D01*
X002221Y004838D01*
X002221Y004765D01*
X002147Y004728D02*
X002221Y004655D01*
X002111Y004538D02*
X002111Y004392D01*
X004688Y004862D02*
X004835Y004862D01*
X004761Y004862D02*
X004761Y005082D01*
X004688Y005009D01*
X004909Y005046D02*
X004946Y005082D01*
X005019Y005082D01*
X005056Y005046D01*
X004909Y004899D01*
X004946Y004862D01*
X005019Y004862D01*
X005056Y004899D01*
X005056Y005046D01*
X005130Y005046D02*
X005167Y005082D01*
X005240Y005082D01*
X005277Y005046D01*
X005130Y004899D01*
X005167Y004862D01*
X005240Y004862D01*
X005277Y004899D01*
X005277Y005046D01*
X005351Y005082D02*
X005351Y004862D01*
X005351Y004936D02*
X005461Y005009D01*
X005351Y004936D02*
X005461Y004862D01*
X005130Y004899D02*
X005130Y005046D01*
X005159Y005241D02*
X005159Y005461D01*
X005086Y005387D01*
X005012Y005351D02*
X004975Y005314D01*
X004865Y005314D01*
X004938Y005314D02*
X005012Y005241D01*
X005086Y005241D02*
X005233Y005241D01*
X005012Y005351D02*
X005012Y005424D01*
X004975Y005461D01*
X004865Y005461D01*
X004865Y005241D01*
X004909Y005046D02*
X004909Y004899D01*
X006048Y004499D02*
X006048Y004352D01*
X006085Y004315D01*
X006158Y004315D01*
X006195Y004352D01*
X006269Y004315D02*
X006416Y004462D01*
X006416Y004499D01*
X006379Y004535D01*
X006306Y004535D01*
X006269Y004499D01*
X006195Y004499D02*
X006158Y004535D01*
X006085Y004535D01*
X006048Y004499D01*
X006269Y004315D02*
X006416Y004315D01*
X006472Y004209D02*
X006545Y004209D01*
X006582Y004172D01*
X006435Y004025D01*
X006472Y003989D01*
X006545Y003989D01*
X006582Y004025D01*
X006582Y004172D01*
X006472Y004209D02*
X006435Y004172D01*
X006435Y004025D01*
X006361Y004025D02*
X006324Y003989D01*
X006251Y003989D01*
X006214Y004025D01*
X006361Y004172D01*
X006361Y004025D01*
X006214Y004025D02*
X006214Y004172D01*
X006251Y004209D01*
X006324Y004209D01*
X006361Y004172D01*
X006140Y003989D02*
X005993Y003989D01*
X006066Y003989D02*
X006066Y004209D01*
X005993Y004135D01*
X006656Y003915D02*
X006693Y003952D01*
X006693Y004025D01*
X006729Y003989D01*
X006766Y003989D01*
X006803Y004025D01*
X006803Y004099D01*
X006693Y004099D02*
X006693Y004025D01*
X009829Y004800D02*
X009829Y004910D01*
X009865Y004947D01*
X009939Y004947D01*
X009975Y004910D01*
X009975Y004800D01*
X009975Y004873D02*
X010049Y004947D01*
X010012Y005021D02*
X010049Y005058D01*
X010049Y005131D01*
X010012Y005168D01*
X009939Y005168D01*
X009902Y005131D01*
X009902Y005094D01*
X009939Y005021D01*
X009829Y005021D01*
X009829Y005168D01*
X010137Y005173D02*
X010357Y005173D01*
X010283Y005173D02*
X010210Y005283D01*
X010283Y005173D02*
X010357Y005283D01*
X010320Y005099D02*
X010357Y005062D01*
X010357Y004989D01*
X010320Y004952D01*
X010173Y005099D01*
X010320Y005099D01*
X010173Y005099D02*
X010137Y005062D01*
X010137Y004989D01*
X010173Y004952D01*
X010320Y004952D01*
X010320Y004878D02*
X010357Y004841D01*
X010357Y004768D01*
X010320Y004731D01*
X010173Y004878D01*
X010320Y004878D01*
X010173Y004878D02*
X010137Y004841D01*
X010137Y004768D01*
X010173Y004731D01*
X010320Y004731D01*
X010357Y004657D02*
X010357Y004510D01*
X010357Y004583D02*
X010137Y004583D01*
X010210Y004510D01*
X010049Y004800D02*
X009829Y004800D01*
X011517Y005857D02*
X011517Y005967D01*
X011554Y006004D01*
X011627Y006004D01*
X011664Y005967D01*
X011664Y005857D01*
X011664Y005931D02*
X011738Y006004D01*
X011701Y006078D02*
X011738Y006115D01*
X011738Y006188D01*
X011701Y006225D01*
X011664Y006225D01*
X011627Y006188D01*
X011627Y006078D01*
X011701Y006078D01*
X011627Y006078D02*
X011554Y006152D01*
X011517Y006225D01*
X011517Y005857D02*
X011738Y005857D01*
X012196Y005127D02*
X012159Y005091D01*
X012159Y005017D01*
X012196Y004980D01*
X012233Y004980D01*
X012269Y005017D01*
X012269Y005127D01*
X012196Y005127D02*
X012343Y005127D01*
X012380Y005091D01*
X012380Y005017D01*
X012343Y004980D01*
X012380Y004906D02*
X012306Y004833D01*
X012306Y004870D02*
X012306Y004759D01*
X012380Y004759D02*
X012159Y004759D01*
X012159Y004870D01*
X012196Y004906D01*
X012269Y004906D01*
X012306Y004870D01*
X012467Y004908D02*
X012467Y004981D01*
X012503Y005018D01*
X012540Y005018D01*
X012577Y004981D01*
X012613Y005018D01*
X012650Y005018D01*
X012687Y004981D01*
X012687Y004908D01*
X012650Y004871D01*
X012650Y004797D02*
X012687Y004760D01*
X012687Y004687D01*
X012650Y004650D01*
X012577Y004724D02*
X012577Y004760D01*
X012613Y004797D01*
X012650Y004797D01*
X012577Y004760D02*
X012540Y004797D01*
X012503Y004797D01*
X012467Y004760D01*
X012467Y004687D01*
X012503Y004650D01*
X012503Y004871D02*
X012467Y004908D01*
X012577Y004945D02*
X012577Y004981D01*
X012613Y005092D02*
X012540Y005202D01*
X012467Y005092D02*
X012687Y005092D01*
X012613Y005092D02*
X012687Y005202D01*
X013367Y004353D02*
X013331Y004317D01*
X013331Y004170D01*
X013477Y004317D01*
X013477Y004170D01*
X013441Y004133D01*
X013367Y004133D01*
X013331Y004170D01*
X013367Y004353D02*
X013441Y004353D01*
X013477Y004317D01*
X013552Y004170D02*
X013588Y004170D01*
X013588Y004133D01*
X013552Y004133D01*
X013552Y004170D01*
X013662Y004170D02*
X013809Y004317D01*
X013809Y004170D01*
X013772Y004133D01*
X013699Y004133D01*
X013662Y004170D01*
X013662Y004317D01*
X013699Y004353D01*
X013772Y004353D01*
X013809Y004317D01*
X013883Y004280D02*
X013957Y004353D01*
X013957Y004133D01*
X014030Y004133D02*
X013883Y004133D01*
X014104Y004060D02*
X014141Y004096D01*
X014141Y004170D01*
X014178Y004133D01*
X014214Y004133D01*
X014251Y004170D01*
X014251Y004243D01*
X014141Y004243D02*
X014141Y004170D01*
X014131Y004526D02*
X014204Y004526D01*
X014241Y004563D01*
X014241Y004599D01*
X014204Y004636D01*
X014094Y004636D01*
X014094Y004563D01*
X014131Y004526D01*
X014094Y004636D02*
X014168Y004710D01*
X014241Y004746D01*
X014020Y004710D02*
X013983Y004746D01*
X013910Y004746D01*
X013873Y004710D01*
X013873Y004563D01*
X013910Y004526D01*
X013983Y004526D01*
X014020Y004563D01*
X016150Y002893D02*
X016150Y002746D01*
X016187Y002672D02*
X016260Y002672D01*
X016297Y002635D01*
X016297Y002525D01*
X016370Y002525D02*
X016150Y002525D01*
X016150Y002635D01*
X016187Y002672D01*
X016297Y002598D02*
X016370Y002672D01*
X016370Y002746D02*
X016333Y002746D01*
X016187Y002893D01*
X016150Y002893D01*
X016900Y002477D02*
X016973Y002550D01*
X016973Y002330D01*
X016900Y002330D02*
X017047Y002330D01*
X017121Y002367D02*
X017268Y002513D01*
X017268Y002367D01*
X017231Y002330D01*
X017158Y002330D01*
X017121Y002367D01*
X017121Y002513D01*
X017158Y002550D01*
X017231Y002550D01*
X017268Y002513D01*
X017342Y002550D02*
X017342Y002330D01*
X017342Y002403D02*
X017452Y002477D01*
X017342Y002403D02*
X017452Y002330D01*
X017452Y002250D02*
X017489Y002213D01*
X017489Y002177D01*
X017452Y002140D01*
X017342Y002140D01*
X017268Y002140D02*
X017121Y002140D01*
X017047Y002140D02*
X017010Y002103D01*
X016900Y002103D01*
X016900Y002030D02*
X016900Y002250D01*
X017010Y002250D01*
X017047Y002213D01*
X017047Y002140D01*
X016973Y002103D02*
X017047Y002030D01*
X017342Y002030D02*
X017452Y002030D01*
X017489Y002067D01*
X017489Y002103D01*
X017452Y002140D01*
X017452Y002250D02*
X017342Y002250D01*
X017342Y002030D01*
X017563Y002030D02*
X017563Y002177D01*
X017636Y002250D01*
X017710Y002177D01*
X017710Y002030D01*
X017784Y002030D02*
X017784Y002250D01*
X017821Y002330D02*
X017821Y002550D01*
X017894Y002550D02*
X017747Y002550D01*
X017968Y002477D02*
X017968Y002330D01*
X017968Y002403D02*
X018042Y002477D01*
X018078Y002477D01*
X018152Y002477D02*
X018189Y002477D01*
X018189Y002330D01*
X018152Y002330D02*
X018226Y002330D01*
X018300Y002330D02*
X018300Y002477D01*
X018336Y002477D01*
X018373Y002440D01*
X018410Y002477D01*
X018446Y002440D01*
X018446Y002330D01*
X018373Y002330D02*
X018373Y002440D01*
X018373Y002250D02*
X018373Y002030D01*
X018226Y002250D01*
X018226Y002030D01*
X018152Y002030D02*
X018152Y002177D01*
X018078Y002250D01*
X018005Y002177D01*
X018005Y002030D01*
X017931Y002030D02*
X017784Y002030D01*
X017710Y002140D02*
X017563Y002140D01*
X018005Y002140D02*
X018152Y002140D01*
X018447Y002213D02*
X018447Y002067D01*
X018484Y002030D01*
X018557Y002030D01*
X018594Y002067D01*
X018668Y002030D02*
X018815Y002030D01*
X018741Y002140D02*
X018668Y002140D01*
X018594Y002213D02*
X018557Y002250D01*
X018484Y002250D01*
X018447Y002213D01*
X018668Y002250D02*
X018668Y002030D01*
X018668Y002250D02*
X018815Y002250D01*
X018189Y002550D02*
X018189Y002587D01*
X017888Y003014D02*
X017888Y003161D01*
X017888Y003088D02*
X017668Y003088D01*
X017741Y003014D01*
X017705Y003235D02*
X017668Y003272D01*
X017668Y003346D01*
X017705Y003382D01*
X017851Y003235D01*
X017888Y003272D01*
X017888Y003346D01*
X017851Y003382D01*
X017705Y003382D01*
X017705Y003456D02*
X017668Y003493D01*
X017668Y003567D01*
X017705Y003603D01*
X017851Y003456D01*
X017888Y003493D01*
X017888Y003567D01*
X017851Y003603D01*
X017705Y003603D01*
X017668Y003677D02*
X017888Y003677D01*
X017815Y003677D02*
X017741Y003788D01*
X017815Y003677D02*
X017888Y003788D01*
X017851Y003456D02*
X017705Y003456D01*
X017573Y003399D02*
X017573Y003546D01*
X017573Y003399D02*
X017426Y003546D01*
X017390Y003546D01*
X017353Y003509D01*
X017353Y003436D01*
X017390Y003399D01*
X017390Y003325D02*
X017463Y003325D01*
X017500Y003288D01*
X017500Y003178D01*
X017573Y003178D02*
X017353Y003178D01*
X017353Y003288D01*
X017390Y003325D01*
X017500Y003251D02*
X017573Y003325D01*
X017705Y003235D02*
X017851Y003235D01*
X018322Y003249D02*
X018322Y003359D01*
X018359Y003396D01*
X018432Y003396D01*
X018469Y003359D01*
X018469Y003249D01*
X018542Y003249D02*
X018322Y003249D01*
X018469Y003323D02*
X018542Y003396D01*
X018506Y003470D02*
X018542Y003507D01*
X018542Y003580D01*
X018506Y003617D01*
X018469Y003617D01*
X018432Y003580D01*
X018432Y003544D01*
X018432Y003580D02*
X018395Y003617D01*
X018359Y003617D01*
X018322Y003580D01*
X018322Y003507D01*
X018359Y003470D01*
X018633Y003449D02*
X018633Y003376D01*
X018670Y003339D01*
X018817Y003339D01*
X018670Y003486D01*
X018817Y003486D01*
X018853Y003449D01*
X018853Y003376D01*
X018817Y003339D01*
X018853Y003265D02*
X018853Y003118D01*
X018853Y003191D02*
X018633Y003191D01*
X018706Y003118D01*
X018633Y003449D02*
X018670Y003486D01*
X018670Y003560D02*
X018633Y003597D01*
X018633Y003670D01*
X018670Y003707D01*
X018817Y003560D01*
X018853Y003597D01*
X018853Y003670D01*
X018817Y003707D01*
X018670Y003707D01*
X018633Y003781D02*
X018853Y003781D01*
X018780Y003781D02*
X018706Y003891D01*
X018780Y003781D02*
X018853Y003891D01*
X018817Y003560D02*
X018670Y003560D01*
X017273Y004944D02*
X017163Y004944D01*
X017163Y004870D02*
X017163Y005090D01*
X017273Y005090D01*
X017310Y005054D01*
X017310Y004980D01*
X017273Y004944D01*
X017089Y004980D02*
X017089Y005127D01*
X016942Y004980D01*
X016979Y004944D01*
X017052Y004944D01*
X017089Y004980D01*
X016942Y004980D02*
X016942Y005127D01*
X016979Y005164D01*
X017052Y005164D01*
X017089Y005127D01*
X017032Y005299D02*
X017069Y005335D01*
X017032Y005299D02*
X016959Y005299D01*
X016922Y005335D01*
X016922Y005482D01*
X016959Y005519D01*
X017032Y005519D01*
X017069Y005482D01*
X017143Y005482D02*
X017143Y005445D01*
X017180Y005409D01*
X017253Y005409D01*
X017290Y005372D01*
X017290Y005335D01*
X017253Y005299D01*
X017180Y005299D01*
X017143Y005335D01*
X017143Y005372D01*
X017180Y005409D01*
X017253Y005409D02*
X017290Y005445D01*
X017290Y005482D01*
X017253Y005519D01*
X017180Y005519D01*
X017143Y005482D01*
X016868Y005164D02*
X016868Y005127D01*
X016721Y004980D01*
X016721Y004944D01*
X016610Y004944D02*
X016610Y005164D01*
X016500Y005054D01*
X016647Y005054D01*
X016721Y005164D02*
X016868Y005164D01*
X016283Y001863D02*
X016320Y001827D01*
X016320Y001753D01*
X016283Y001716D01*
X016210Y001716D02*
X016173Y001790D01*
X016173Y001827D01*
X016210Y001863D01*
X016283Y001863D01*
X016210Y001716D02*
X016100Y001716D01*
X016100Y001863D01*
X016283Y001643D02*
X016320Y001643D01*
X016320Y001606D01*
X016283Y001606D01*
X016283Y001643D01*
X016137Y001532D02*
X016283Y001385D01*
X016320Y001385D01*
X016100Y001385D02*
X016100Y001532D01*
X016137Y001532D01*
X011754Y006860D02*
X011717Y006860D01*
X011570Y007007D01*
X011534Y007007D01*
X011534Y006860D01*
X011717Y007081D02*
X011717Y007117D01*
X011754Y007117D01*
X011754Y007081D01*
X011717Y007081D01*
X011717Y007191D02*
X011754Y007228D01*
X011754Y007301D01*
X011717Y007338D01*
X011644Y007338D01*
X011607Y007301D01*
X011607Y007265D01*
X011644Y007191D01*
X011534Y007191D01*
X011534Y007338D01*
X012366Y007526D02*
X012366Y007600D01*
X012366Y007563D02*
X012586Y007563D01*
X012586Y007526D02*
X012586Y007600D01*
X012549Y007674D02*
X012586Y007711D01*
X012586Y007784D01*
X012549Y007821D01*
X012549Y007895D02*
X012586Y007931D01*
X012586Y008005D01*
X012549Y008042D01*
X012512Y008042D01*
X012476Y008005D01*
X012476Y007968D01*
X012476Y008005D02*
X012439Y008042D01*
X012402Y008042D01*
X012366Y008005D01*
X012366Y007931D01*
X012402Y007895D01*
X012402Y007821D02*
X012366Y007784D01*
X012366Y007711D01*
X012402Y007674D01*
X012549Y007674D01*
X011487Y009985D02*
X011414Y009985D01*
X011377Y010022D01*
X011303Y009985D02*
X011156Y009985D01*
X011229Y009985D02*
X011229Y010205D01*
X011156Y010132D01*
X011082Y010168D02*
X011082Y010095D01*
X011045Y010058D01*
X010935Y010058D01*
X010935Y009985D02*
X010935Y010205D01*
X011045Y010205D01*
X011082Y010168D01*
X011008Y010058D02*
X011082Y009985D01*
X011377Y010168D02*
X011414Y010205D01*
X011487Y010205D01*
X011524Y010168D01*
X011524Y010132D01*
X011487Y010095D01*
X011524Y010058D01*
X011524Y010022D01*
X011487Y009985D01*
X011487Y010095D02*
X011450Y010095D01*
X011266Y010365D02*
X011156Y010438D01*
X011266Y010512D01*
X011156Y010585D02*
X011156Y010365D01*
X011082Y010365D02*
X010935Y010365D01*
X011008Y010365D02*
X011008Y010585D01*
X010935Y010512D01*
X010452Y011160D02*
X010452Y011380D01*
X010342Y011270D01*
X010489Y011270D01*
X010341Y011460D02*
X010231Y011533D01*
X010341Y011607D01*
X010231Y011680D02*
X010231Y011460D01*
X010157Y011460D02*
X010010Y011460D01*
X010083Y011460D02*
X010083Y011680D01*
X010010Y011607D01*
X010010Y011380D02*
X009900Y011380D01*
X009900Y011160D01*
X009900Y011233D02*
X010010Y011233D01*
X010047Y011270D01*
X010047Y011343D01*
X010010Y011380D01*
X010121Y011307D02*
X010194Y011380D01*
X010194Y011160D01*
X010121Y011160D02*
X010268Y011160D01*
X010047Y011160D02*
X009973Y011233D01*
X011918Y011713D02*
X011918Y011823D01*
X011954Y011860D01*
X012028Y011860D01*
X012064Y011823D01*
X012064Y011713D01*
X012064Y011787D02*
X012138Y011860D01*
X012138Y011934D02*
X012138Y012081D01*
X012138Y012008D02*
X011918Y012008D01*
X011991Y011934D01*
X011991Y012155D02*
X011954Y012155D01*
X011918Y012192D01*
X011918Y012265D01*
X011954Y012302D01*
X011991Y012302D01*
X012028Y012265D01*
X012028Y012192D01*
X011991Y012155D01*
X012028Y012192D02*
X012064Y012155D01*
X012101Y012155D01*
X012138Y012192D01*
X012138Y012265D01*
X012101Y012302D01*
X012064Y012302D01*
X012028Y012265D01*
X012138Y011713D02*
X011918Y011713D01*
X011994Y012853D02*
X011921Y012926D01*
X012141Y012926D01*
X012141Y012853D02*
X012141Y012999D01*
X012104Y013074D02*
X011958Y013220D01*
X012104Y013220D01*
X012141Y013184D01*
X012141Y013110D01*
X012104Y013074D01*
X011958Y013074D01*
X011921Y013110D01*
X011921Y013184D01*
X011958Y013220D01*
X011921Y013295D02*
X012141Y013295D01*
X012068Y013295D02*
X011994Y013405D01*
X012068Y013295D02*
X012141Y013405D01*
X012774Y014034D02*
X012920Y014034D01*
X012847Y014034D02*
X012847Y014254D01*
X012774Y014180D01*
X012745Y014326D02*
X012745Y014546D01*
X012855Y014546D01*
X012891Y014509D01*
X012891Y014436D01*
X012855Y014399D01*
X012745Y014399D01*
X012818Y014399D02*
X012891Y014326D01*
X012965Y014326D02*
X013112Y014326D01*
X013105Y014254D02*
X013141Y014217D01*
X012995Y014070D01*
X013031Y014034D01*
X013105Y014034D01*
X013141Y014070D01*
X013141Y014217D01*
X013105Y014254D02*
X013031Y014254D01*
X012995Y014217D01*
X012995Y014070D01*
X013216Y014034D02*
X013216Y014254D01*
X013186Y014326D02*
X013186Y014362D01*
X013333Y014509D01*
X013333Y014546D01*
X013186Y014546D01*
X013039Y014546D02*
X013039Y014326D01*
X012965Y014472D02*
X013039Y014546D01*
X013326Y014180D02*
X013216Y014107D01*
X013326Y014034D01*
X013852Y012513D02*
X013962Y012513D01*
X013998Y012476D01*
X013998Y012403D01*
X013962Y012366D01*
X013852Y012366D01*
X013925Y012366D02*
X013998Y012292D01*
X014073Y012292D02*
X014219Y012439D01*
X014219Y012476D01*
X014183Y012513D01*
X014109Y012513D01*
X014073Y012476D01*
X014073Y012292D02*
X014219Y012292D01*
X014294Y012329D02*
X014440Y012476D01*
X014440Y012329D01*
X014404Y012292D01*
X014330Y012292D01*
X014294Y012329D01*
X014294Y012476D01*
X014330Y012513D01*
X014404Y012513D01*
X014440Y012476D01*
X014457Y012171D02*
X014457Y011951D01*
X014457Y012024D02*
X014567Y012098D01*
X014457Y012024D02*
X014567Y011951D01*
X014383Y011988D02*
X014383Y012134D01*
X014236Y011988D01*
X014272Y011951D01*
X014346Y011951D01*
X014383Y011988D01*
X014383Y012134D02*
X014346Y012171D01*
X014272Y012171D01*
X014236Y012134D01*
X014236Y011988D01*
X014162Y011988D02*
X014125Y011951D01*
X014051Y011951D01*
X014015Y011988D01*
X014162Y012134D01*
X014162Y011988D01*
X014162Y012134D02*
X014125Y012171D01*
X014051Y012171D01*
X014015Y012134D01*
X014015Y011988D01*
X013941Y011951D02*
X013794Y011951D01*
X013867Y011951D02*
X013867Y012171D01*
X013794Y012098D01*
X013852Y012292D02*
X013852Y012513D01*
X015117Y014143D02*
X015264Y014143D01*
X015191Y014143D02*
X015191Y014363D01*
X015117Y014289D01*
X015338Y014216D02*
X015448Y014289D01*
X015338Y014216D02*
X015448Y014143D01*
X015338Y014143D02*
X015338Y014363D01*
X016029Y014372D02*
X016029Y014152D01*
X016029Y014225D02*
X016139Y014225D01*
X016175Y014262D01*
X016175Y014335D01*
X016139Y014372D01*
X016029Y014372D01*
X016102Y014225D02*
X016175Y014152D01*
X016250Y014152D02*
X016396Y014298D01*
X016396Y014335D01*
X016360Y014372D01*
X016286Y014372D01*
X016250Y014335D01*
X016250Y014152D02*
X016396Y014152D01*
X016471Y014188D02*
X016507Y014152D01*
X016581Y014152D01*
X016617Y014188D01*
X016617Y014262D01*
X016581Y014298D01*
X016544Y014298D01*
X016471Y014262D01*
X016471Y014372D01*
X016617Y014372D01*
X017368Y013746D02*
X017404Y013782D01*
X017441Y013782D01*
X017478Y013746D01*
X017478Y013672D01*
X017441Y013636D01*
X017404Y013636D01*
X017368Y013672D01*
X017368Y013746D01*
X017478Y013746D02*
X017515Y013782D01*
X017551Y013782D01*
X017588Y013746D01*
X017588Y013672D01*
X017551Y013636D01*
X017515Y013636D01*
X017478Y013672D01*
X017478Y013561D02*
X017515Y013525D01*
X017515Y013415D01*
X017588Y013415D02*
X017368Y013415D01*
X017368Y013525D01*
X017404Y013561D01*
X017478Y013561D01*
X017515Y013488D02*
X017588Y013561D01*
X017704Y013630D02*
X017704Y013703D01*
X017740Y013740D01*
X017887Y013593D01*
X017924Y013630D01*
X017924Y013703D01*
X017887Y013740D01*
X017740Y013740D01*
X017704Y013814D02*
X017924Y013814D01*
X017850Y013814D02*
X017777Y013924D01*
X017850Y013814D02*
X017924Y013924D01*
X017887Y013593D02*
X017740Y013593D01*
X017704Y013630D01*
X017704Y013445D02*
X017924Y013445D01*
X017924Y013372D02*
X017924Y013519D01*
X017777Y013372D02*
X017704Y013445D01*
X016892Y013336D02*
X016819Y013226D01*
X016745Y013336D01*
X016672Y013226D02*
X016892Y013226D01*
X016855Y013151D02*
X016892Y013115D01*
X016892Y013041D01*
X016855Y013005D01*
X016709Y013151D01*
X016855Y013151D01*
X016855Y013005D02*
X016709Y013005D01*
X016672Y013041D01*
X016672Y013115D01*
X016709Y013151D01*
X016580Y013144D02*
X016580Y013291D01*
X016580Y013217D02*
X016360Y013217D01*
X016433Y013144D01*
X016433Y013070D02*
X016397Y013070D01*
X016360Y013033D01*
X016360Y012960D01*
X016397Y012923D01*
X016397Y012849D02*
X016470Y012849D01*
X016507Y012812D01*
X016507Y012702D01*
X016580Y012702D02*
X016360Y012702D01*
X016360Y012812D01*
X016397Y012849D01*
X016507Y012775D02*
X016580Y012849D01*
X016580Y012923D02*
X016433Y013070D01*
X016580Y013070D02*
X016580Y012923D01*
X016672Y012894D02*
X016709Y012930D01*
X016855Y012784D01*
X016892Y012820D01*
X016892Y012894D01*
X016855Y012930D01*
X016709Y012930D01*
X016672Y012894D02*
X016672Y012820D01*
X016709Y012784D01*
X016855Y012784D01*
X016892Y012709D02*
X016892Y012563D01*
X016892Y012636D02*
X016672Y012636D01*
X016745Y012563D01*
X017492Y012030D02*
X017565Y012104D01*
X017565Y011883D01*
X017492Y011883D02*
X017639Y011883D01*
X017713Y011920D02*
X017860Y012067D01*
X017860Y011920D01*
X017823Y011883D01*
X017750Y011883D01*
X017713Y011920D01*
X017713Y012067D01*
X017750Y012104D01*
X017823Y012104D01*
X017860Y012067D01*
X017934Y012067D02*
X017934Y011920D01*
X018081Y012067D01*
X018081Y011920D01*
X018044Y011883D01*
X017971Y011883D01*
X017934Y011920D01*
X017934Y012067D02*
X017971Y012104D01*
X018044Y012104D01*
X018081Y012067D01*
X018155Y012104D02*
X018155Y011883D01*
X018155Y011957D02*
X018265Y012030D01*
X018155Y011957D02*
X018265Y011883D01*
X018140Y012186D02*
X018066Y012186D01*
X018030Y012223D01*
X017956Y012186D02*
X017809Y012186D01*
X017956Y012333D01*
X017956Y012369D01*
X017919Y012406D01*
X017845Y012406D01*
X017809Y012369D01*
X017735Y012369D02*
X017735Y012296D01*
X017698Y012259D01*
X017588Y012259D01*
X017588Y012186D02*
X017588Y012406D01*
X017698Y012406D01*
X017735Y012369D01*
X017661Y012259D02*
X017735Y012186D01*
X018030Y012369D02*
X018066Y012406D01*
X018140Y012406D01*
X018177Y012369D01*
X018177Y012333D01*
X018140Y012296D01*
X018177Y012259D01*
X018177Y012223D01*
X018140Y012186D01*
X018140Y012296D02*
X018103Y012296D01*
X019095Y013411D02*
X019242Y013411D01*
X019168Y013411D02*
X019168Y013631D01*
X019095Y013558D01*
X019316Y013595D02*
X019353Y013631D01*
X019426Y013631D01*
X019463Y013595D01*
X019316Y013448D01*
X019353Y013411D01*
X019426Y013411D01*
X019463Y013448D01*
X019463Y013595D01*
X019537Y013631D02*
X019537Y013411D01*
X019537Y013485D02*
X019647Y013411D01*
X019537Y013485D02*
X019647Y013558D01*
X019640Y013825D02*
X019567Y013825D01*
X019530Y013862D01*
X019677Y014009D01*
X019677Y013862D01*
X019640Y013825D01*
X019530Y013862D02*
X019530Y014009D01*
X019567Y014046D01*
X019640Y014046D01*
X019677Y014009D01*
X019456Y013825D02*
X019309Y013825D01*
X019383Y013825D02*
X019383Y014046D01*
X019309Y013972D01*
X019235Y013936D02*
X019198Y013899D01*
X019088Y013899D01*
X019088Y013825D02*
X019088Y014046D01*
X019198Y014046D01*
X019235Y014009D01*
X019235Y013936D01*
X019162Y013899D02*
X019235Y013825D01*
X019316Y013595D02*
X019316Y013448D01*
X019352Y012015D02*
X019352Y011795D01*
X019352Y011869D02*
X019462Y011795D01*
X019352Y011869D02*
X019462Y011942D01*
X019277Y011795D02*
X019131Y011795D01*
X019204Y011795D02*
X019204Y012015D01*
X019131Y011942D01*
X019136Y011574D02*
X019246Y011574D01*
X019283Y011538D01*
X019283Y011464D01*
X019246Y011428D01*
X019136Y011428D01*
X019136Y011354D02*
X019136Y011574D01*
X019210Y011428D02*
X019283Y011354D01*
X019357Y011464D02*
X019504Y011464D01*
X019467Y011354D02*
X019467Y011574D01*
X019357Y011464D01*
X017827Y010427D02*
X017717Y010353D01*
X017827Y010280D01*
X017717Y010280D02*
X017717Y010500D01*
X017708Y010566D02*
X017562Y010566D01*
X017708Y010713D01*
X017708Y010750D01*
X017672Y010787D01*
X017598Y010787D01*
X017562Y010750D01*
X017487Y010750D02*
X017451Y010787D01*
X017377Y010787D01*
X017341Y010750D01*
X017266Y010750D02*
X017266Y010677D01*
X017230Y010640D01*
X017120Y010640D01*
X017193Y010640D02*
X017266Y010566D01*
X017341Y010566D02*
X017487Y010713D01*
X017487Y010750D01*
X017487Y010566D02*
X017341Y010566D01*
X017312Y010500D02*
X017385Y010500D01*
X017422Y010463D01*
X017275Y010317D01*
X017312Y010280D01*
X017385Y010280D01*
X017422Y010317D01*
X017422Y010463D01*
X017496Y010463D02*
X017533Y010500D01*
X017606Y010500D01*
X017643Y010463D01*
X017496Y010317D01*
X017533Y010280D01*
X017606Y010280D01*
X017643Y010317D01*
X017643Y010463D01*
X017496Y010463D02*
X017496Y010317D01*
X017275Y010317D02*
X017275Y010463D01*
X017312Y010500D01*
X017128Y010500D02*
X017128Y010280D01*
X017201Y010280D02*
X017054Y010280D01*
X017054Y010427D02*
X017128Y010500D01*
X017120Y010566D02*
X017120Y010787D01*
X017230Y010787D01*
X017266Y010750D01*
X015290Y010192D02*
X015290Y010119D01*
X015253Y010082D01*
X015143Y010082D01*
X015143Y010008D02*
X015143Y010229D01*
X015253Y010229D01*
X015290Y010192D01*
X015069Y010265D02*
X014922Y010119D01*
X014959Y010082D01*
X015032Y010082D01*
X015069Y010119D01*
X015069Y010265D01*
X015032Y010302D01*
X014959Y010302D01*
X014922Y010265D01*
X014922Y010119D01*
X014848Y010265D02*
X014701Y010119D01*
X014701Y010082D01*
X014590Y010082D02*
X014590Y010302D01*
X014480Y010192D01*
X014627Y010192D01*
X014701Y010302D02*
X014848Y010302D01*
X014848Y010265D01*
X014867Y010469D02*
X014720Y010469D01*
X014794Y010469D02*
X014794Y010689D01*
X014720Y010616D01*
X014646Y010652D02*
X014609Y010689D01*
X014536Y010689D01*
X014499Y010652D01*
X014499Y010506D01*
X014536Y010469D01*
X014609Y010469D01*
X014646Y010506D01*
X011581Y015000D02*
X011581Y015220D01*
X011471Y015110D01*
X011618Y015110D01*
X011581Y015300D02*
X011508Y015300D01*
X011471Y015337D01*
X011397Y015337D02*
X011360Y015300D01*
X011287Y015300D01*
X011250Y015337D01*
X011323Y015410D02*
X011360Y015410D01*
X011397Y015373D01*
X011397Y015337D01*
X011360Y015410D02*
X011397Y015447D01*
X011397Y015483D01*
X011360Y015520D01*
X011287Y015520D01*
X011250Y015483D01*
X011471Y015483D02*
X011471Y015447D01*
X011508Y015410D01*
X011618Y015410D01*
X011618Y015337D02*
X011618Y015483D01*
X011581Y015520D01*
X011508Y015520D01*
X011471Y015483D01*
X011618Y015337D02*
X011581Y015300D01*
X011692Y015337D02*
X011839Y015483D01*
X011839Y015337D01*
X011802Y015300D01*
X011729Y015300D01*
X011692Y015337D01*
X011692Y015483D01*
X011729Y015520D01*
X011802Y015520D01*
X011839Y015483D01*
X011913Y015447D02*
X012023Y015447D01*
X012060Y015410D01*
X012060Y015337D01*
X012023Y015300D01*
X011913Y015300D01*
X011913Y015227D02*
X011913Y015447D01*
X011397Y015183D02*
X011360Y015220D01*
X011287Y015220D01*
X011250Y015183D01*
X011250Y015037D01*
X011287Y015000D01*
X011360Y015000D01*
X011397Y015037D01*
X009310Y014160D02*
X009310Y014087D01*
X009273Y014050D01*
X009163Y014050D01*
X009163Y013977D02*
X009163Y014197D01*
X009273Y014197D01*
X009310Y014160D01*
X009089Y014087D02*
X009052Y014050D01*
X008979Y014050D01*
X008942Y014087D01*
X009089Y014233D01*
X009089Y014087D01*
X009089Y014233D02*
X009052Y014270D01*
X008979Y014270D01*
X008942Y014233D01*
X008942Y014087D01*
X008868Y014087D02*
X008868Y014233D01*
X008831Y014270D01*
X008758Y014270D01*
X008721Y014233D01*
X008721Y014197D01*
X008758Y014160D01*
X008868Y014160D01*
X008868Y014087D02*
X008831Y014050D01*
X008758Y014050D01*
X008721Y014087D01*
X008647Y014087D02*
X008610Y014050D01*
X008537Y014050D01*
X008500Y014087D01*
X008573Y014160D02*
X008610Y014160D01*
X008647Y014123D01*
X008647Y014087D01*
X008610Y014160D02*
X008647Y014197D01*
X008647Y014233D01*
X008610Y014270D01*
X008537Y014270D01*
X008500Y014233D01*
X008537Y013970D02*
X008500Y013933D01*
X008500Y013787D01*
X008537Y013750D01*
X008610Y013750D01*
X008647Y013787D01*
X008721Y013787D02*
X008758Y013750D01*
X008831Y013750D01*
X008868Y013787D01*
X008868Y013860D01*
X008831Y013897D01*
X008794Y013897D01*
X008721Y013860D01*
X008721Y013970D01*
X008868Y013970D01*
X008647Y013933D02*
X008610Y013970D01*
X008537Y013970D01*
X006966Y012644D02*
X006966Y012608D01*
X006819Y012461D01*
X006819Y012424D01*
X006745Y012461D02*
X006708Y012424D01*
X006635Y012424D01*
X006598Y012461D01*
X006598Y012608D01*
X006635Y012644D01*
X006708Y012644D01*
X006745Y012608D01*
X006819Y012644D02*
X006966Y012644D01*
X006672Y012219D02*
X006672Y011999D01*
X006745Y011999D02*
X006598Y011999D01*
X006524Y012036D02*
X006487Y011999D01*
X006414Y011999D01*
X006377Y012036D01*
X006524Y012183D01*
X006524Y012036D01*
X006598Y012146D02*
X006672Y012219D01*
X006524Y012183D02*
X006487Y012219D01*
X006414Y012219D01*
X006377Y012183D01*
X006377Y012036D01*
X006303Y012036D02*
X006303Y011999D01*
X006267Y011999D01*
X006267Y012036D01*
X006303Y012036D01*
X006193Y012036D02*
X006156Y011999D01*
X006082Y011999D01*
X006046Y012036D01*
X006193Y012183D01*
X006193Y012036D01*
X006193Y012183D02*
X006156Y012219D01*
X006082Y012219D01*
X006046Y012183D01*
X006046Y012036D01*
X005473Y011629D02*
X005473Y011409D01*
X005326Y011629D01*
X005326Y011409D01*
X005252Y011409D02*
X005179Y011409D01*
X005216Y011409D02*
X005216Y011629D01*
X005252Y011629D02*
X005179Y011629D01*
X005105Y011519D02*
X004958Y011519D01*
X004884Y011446D02*
X004884Y011592D01*
X004847Y011629D01*
X004774Y011629D01*
X004737Y011592D01*
X004737Y011446D01*
X004774Y011409D01*
X004847Y011409D01*
X004884Y011446D01*
X004663Y011409D02*
X004590Y011409D01*
X004626Y011409D02*
X004626Y011629D01*
X004590Y011629D02*
X004663Y011629D01*
X004515Y011592D02*
X004479Y011629D01*
X004369Y011629D01*
X004369Y011409D01*
X004479Y011409D01*
X004515Y011446D01*
X004515Y011592D01*
X004294Y011629D02*
X004294Y011446D01*
X004258Y011409D01*
X004184Y011409D01*
X004148Y011446D01*
X004148Y011629D01*
X004073Y011556D02*
X004000Y011629D01*
X003927Y011556D01*
X003927Y011409D01*
X003927Y011519D02*
X004073Y011519D01*
X004073Y011556D02*
X004073Y011409D01*
X004029Y011288D02*
X004065Y011251D01*
X003919Y011105D01*
X003955Y011068D01*
X004029Y011068D01*
X004065Y011105D01*
X004065Y011251D01*
X004029Y011288D02*
X003955Y011288D01*
X003919Y011251D01*
X003919Y011105D01*
X003844Y011105D02*
X003808Y011068D01*
X003734Y011068D01*
X003698Y011105D01*
X003844Y011251D01*
X003844Y011105D01*
X003844Y011251D02*
X003808Y011288D01*
X003734Y011288D01*
X003698Y011251D01*
X003698Y011105D01*
X003623Y011068D02*
X003477Y011068D01*
X003550Y011068D02*
X003550Y011288D01*
X003477Y011215D01*
X003485Y011409D02*
X003485Y011629D01*
X003595Y011629D01*
X003631Y011592D01*
X003631Y011519D01*
X003595Y011482D01*
X003485Y011482D01*
X003558Y011482D02*
X003631Y011409D01*
X003706Y011519D02*
X003852Y011519D01*
X004140Y011288D02*
X004140Y011068D01*
X004140Y011141D02*
X004250Y011215D01*
X004140Y011141D02*
X004250Y011068D01*
X004545Y011068D02*
X004545Y011288D01*
X004545Y011068D02*
X004691Y011068D01*
X004766Y011105D02*
X004802Y011068D01*
X004876Y011068D01*
X004912Y011105D01*
X004912Y011178D01*
X004876Y011215D01*
X004802Y011215D01*
X004766Y011178D01*
X004766Y011105D01*
X004987Y011105D02*
X005023Y011068D01*
X005133Y011068D01*
X005133Y011031D02*
X005133Y011215D01*
X005023Y011215D01*
X004987Y011178D01*
X004987Y011105D01*
X005060Y010994D02*
X005097Y010994D01*
X005133Y011031D01*
X005081Y010655D02*
X005081Y010435D01*
X005154Y010435D02*
X005007Y010435D01*
X004933Y010435D02*
X004860Y010508D01*
X004896Y010508D02*
X004786Y010508D01*
X004786Y010435D02*
X004786Y010655D01*
X004896Y010655D01*
X004933Y010619D01*
X004933Y010545D01*
X004896Y010508D01*
X005007Y010582D02*
X005081Y010655D01*
X005228Y010619D02*
X005265Y010655D01*
X005338Y010655D01*
X005375Y010619D01*
X005375Y010582D01*
X005228Y010435D01*
X005375Y010435D01*
X005303Y010359D02*
X005303Y010138D01*
X005303Y010212D02*
X005413Y010285D01*
X005303Y010212D02*
X005413Y010138D01*
X005229Y010175D02*
X005229Y010322D01*
X005082Y010175D01*
X005119Y010138D01*
X005192Y010138D01*
X005229Y010175D01*
X005229Y010322D02*
X005192Y010359D01*
X005119Y010359D01*
X005082Y010322D01*
X005082Y010175D01*
X005008Y010175D02*
X004971Y010138D01*
X004898Y010138D01*
X004861Y010175D01*
X005008Y010322D01*
X005008Y010175D01*
X005008Y010322D02*
X004971Y010359D01*
X004898Y010359D01*
X004861Y010322D01*
X004861Y010175D01*
X004787Y010138D02*
X004640Y010138D01*
X004713Y010138D02*
X004713Y010359D01*
X004640Y010285D01*
X003066Y009815D02*
X003066Y009595D01*
X002920Y009815D01*
X002920Y009595D01*
X002846Y009595D02*
X002772Y009595D01*
X002809Y009595D02*
X002809Y009815D01*
X002772Y009815D02*
X002846Y009815D01*
X002698Y009705D02*
X002551Y009705D01*
X002477Y009632D02*
X002477Y009778D01*
X002440Y009815D01*
X002367Y009815D01*
X002330Y009778D01*
X002330Y009632D01*
X002367Y009595D01*
X002440Y009595D01*
X002477Y009632D01*
X002256Y009595D02*
X002183Y009595D01*
X002220Y009595D02*
X002220Y009815D01*
X002256Y009815D02*
X002183Y009815D01*
X002109Y009778D02*
X002072Y009815D01*
X001962Y009815D01*
X001962Y009595D01*
X002072Y009595D01*
X002109Y009632D01*
X002109Y009778D01*
X001888Y009815D02*
X001888Y009632D01*
X001851Y009595D01*
X001778Y009595D01*
X001741Y009632D01*
X001741Y009815D01*
X001667Y009742D02*
X001667Y009595D01*
X001667Y009705D02*
X001520Y009705D01*
X001520Y009742D02*
X001593Y009815D01*
X001667Y009742D01*
X001520Y009742D02*
X001520Y009595D01*
X001557Y008315D02*
X001520Y008278D01*
X001520Y008132D01*
X001557Y008095D01*
X001630Y008095D01*
X001667Y008132D01*
X001741Y008168D02*
X001814Y008095D01*
X001888Y008168D01*
X001888Y008315D01*
X001962Y008205D02*
X002109Y008205D01*
X002183Y008205D02*
X002330Y008205D01*
X002330Y008242D02*
X002330Y008095D01*
X002330Y008242D02*
X002256Y008315D01*
X002183Y008242D01*
X002183Y008095D01*
X001741Y008168D02*
X001741Y008315D01*
X001667Y008278D02*
X001630Y008315D01*
X001557Y008315D01*
X004034Y008011D02*
X004034Y007937D01*
X004070Y007901D01*
X004070Y007827D02*
X004034Y007790D01*
X004034Y007716D01*
X004070Y007680D01*
X004217Y007680D01*
X004254Y007716D01*
X004254Y007790D01*
X004217Y007827D01*
X004254Y007901D02*
X004107Y008048D01*
X004070Y008048D01*
X004034Y008011D01*
X004254Y008048D02*
X004254Y007901D01*
X004254Y007606D02*
X004254Y007532D01*
X004254Y007569D02*
X004034Y007569D01*
X004034Y007532D02*
X004034Y007606D01*
X006222Y010936D02*
X006369Y010936D01*
X006295Y010936D02*
X006295Y011156D01*
X006222Y011083D01*
X006443Y011119D02*
X006443Y010973D01*
X006590Y011119D01*
X006590Y010973D01*
X006553Y010936D01*
X006480Y010936D01*
X006443Y010973D01*
X006443Y011119D02*
X006480Y011156D01*
X006553Y011156D01*
X006590Y011119D01*
X006664Y011119D02*
X006701Y011156D01*
X006774Y011156D01*
X006811Y011119D01*
X006664Y010973D01*
X006701Y010936D01*
X006774Y010936D01*
X006811Y010973D01*
X006811Y011119D01*
X006774Y011246D02*
X006811Y011282D01*
X006774Y011246D02*
X006701Y011246D01*
X006664Y011282D01*
X006664Y011429D01*
X006701Y011466D01*
X006774Y011466D01*
X006811Y011429D01*
X006885Y011429D02*
X006922Y011466D01*
X006995Y011466D01*
X007032Y011429D01*
X007032Y011392D01*
X006995Y011356D01*
X007032Y011319D01*
X007032Y011282D01*
X006995Y011246D01*
X006922Y011246D01*
X006885Y011282D01*
X006958Y011356D02*
X006995Y011356D01*
X007032Y011046D02*
X007032Y010973D01*
X006995Y010936D01*
X006958Y010936D01*
X006922Y010973D01*
X006922Y010899D01*
X006885Y010863D01*
X006922Y010973D02*
X006922Y011046D01*
X006664Y010973D02*
X006664Y011119D01*
X006819Y011926D02*
X006856Y011962D01*
X006856Y012036D01*
X006893Y011999D01*
X006929Y011999D01*
X006966Y012036D01*
X006966Y012109D01*
X006856Y012109D02*
X006856Y012036D01*
X003361Y013315D02*
X003214Y013315D01*
X003288Y013315D02*
X003288Y013095D01*
X003140Y013132D02*
X003140Y013315D01*
X002993Y013315D02*
X002993Y013132D01*
X003030Y013095D01*
X003103Y013095D01*
X003140Y013132D01*
X002919Y013132D02*
X002919Y013278D01*
X002882Y013315D01*
X002809Y013315D01*
X002772Y013278D01*
X002772Y013132D01*
X002809Y013095D01*
X002882Y013095D01*
X002919Y013132D01*
X002698Y013205D02*
X002551Y013205D01*
X002477Y013132D02*
X002477Y013278D01*
X002440Y013315D01*
X002367Y013315D01*
X002330Y013278D01*
X002330Y013132D01*
X002367Y013095D01*
X002440Y013095D01*
X002477Y013132D01*
X002256Y013095D02*
X002183Y013095D01*
X002220Y013095D02*
X002220Y013315D01*
X002256Y013315D02*
X002183Y013315D01*
X002109Y013278D02*
X002072Y013315D01*
X001962Y013315D01*
X001962Y013095D01*
X002072Y013095D01*
X002109Y013132D01*
X002109Y013278D01*
X001888Y013315D02*
X001888Y013132D01*
X001851Y013095D01*
X001778Y013095D01*
X001741Y013132D01*
X001741Y013315D01*
X001667Y013242D02*
X001667Y013095D01*
X001667Y013205D02*
X001520Y013205D01*
X001520Y013242D02*
X001520Y013095D01*
X001520Y013242D02*
X001593Y013315D01*
X001667Y013242D01*
X006402Y017403D02*
X006402Y017476D01*
X006402Y017439D02*
X006622Y017439D01*
X006622Y017403D02*
X006622Y017476D01*
X006585Y017550D02*
X006622Y017587D01*
X006622Y017660D01*
X006585Y017697D01*
X006512Y017771D02*
X006512Y017918D01*
X006622Y017881D02*
X006402Y017881D01*
X006512Y017771D01*
X006438Y017697D02*
X006402Y017660D01*
X006402Y017587D01*
X006438Y017550D01*
X006585Y017550D01*
X014365Y017460D02*
X014365Y017240D01*
X014365Y017313D02*
X014475Y017313D01*
X014512Y017350D01*
X014512Y017423D01*
X014475Y017460D01*
X014365Y017460D01*
X014439Y017313D02*
X014512Y017240D01*
X014586Y017240D02*
X014733Y017240D01*
X014660Y017240D02*
X014660Y017460D01*
X014586Y017387D01*
X014558Y017355D02*
X014705Y017355D01*
X014632Y017355D02*
X014632Y017575D01*
X014558Y017502D01*
X014779Y017538D02*
X014779Y017392D01*
X014926Y017538D01*
X014926Y017392D01*
X014890Y017355D01*
X014816Y017355D01*
X014779Y017392D01*
X014807Y017350D02*
X014917Y017350D01*
X014954Y017313D01*
X014954Y017277D01*
X014917Y017240D01*
X014844Y017240D01*
X014807Y017277D01*
X014807Y017350D01*
X014881Y017423D01*
X014954Y017460D01*
X015000Y017392D02*
X015000Y017538D01*
X015037Y017575D01*
X015110Y017575D01*
X015147Y017538D01*
X015000Y017392D01*
X015037Y017355D01*
X015110Y017355D01*
X015147Y017392D01*
X015147Y017538D01*
X015221Y017575D02*
X015221Y017355D01*
X015221Y017428D02*
X015331Y017502D01*
X015221Y017428D02*
X015331Y017355D01*
X014978Y017044D02*
X014868Y016971D01*
X014978Y016897D01*
X014868Y016897D02*
X014868Y017118D01*
X014794Y017081D02*
X014647Y016934D01*
X014684Y016897D01*
X014757Y016897D01*
X014794Y016934D01*
X014794Y017081D01*
X014757Y017118D01*
X014684Y017118D01*
X014647Y017081D01*
X014647Y016934D01*
X014573Y016897D02*
X014426Y016897D01*
X014499Y016897D02*
X014499Y017118D01*
X014426Y017044D01*
X014779Y017538D02*
X014816Y017575D01*
X014890Y017575D01*
X014926Y017538D01*
X015148Y017655D02*
X015148Y017875D01*
X015258Y017875D01*
X015295Y017838D01*
X015295Y017765D01*
X015258Y017728D01*
X015148Y017728D01*
X015221Y017728D02*
X015295Y017655D01*
X015369Y017765D02*
X015516Y017765D01*
X015590Y017765D02*
X015700Y017765D01*
X015736Y017728D01*
X015736Y017692D01*
X015700Y017655D01*
X015590Y017655D01*
X015590Y017875D01*
X015700Y017875D01*
X015736Y017838D01*
X015736Y017802D01*
X015700Y017765D01*
X015811Y017655D02*
X015884Y017655D01*
X015847Y017655D02*
X015847Y017875D01*
X015811Y017875D02*
X015884Y017875D01*
X015958Y017802D02*
X016031Y017875D01*
X016105Y017802D01*
X016105Y017655D01*
X016068Y017612D02*
X016068Y017575D01*
X016068Y017502D02*
X016068Y017355D01*
X016032Y017355D02*
X016105Y017355D01*
X016179Y017355D02*
X016179Y017502D01*
X016216Y017502D01*
X016252Y017465D01*
X016289Y017502D01*
X016326Y017465D01*
X016326Y017355D01*
X016252Y017355D02*
X016252Y017465D01*
X016068Y017502D02*
X016032Y017502D01*
X015958Y017502D02*
X015921Y017502D01*
X015848Y017428D01*
X015848Y017355D02*
X015848Y017502D01*
X015773Y017575D02*
X015627Y017575D01*
X015700Y017575D02*
X015700Y017355D01*
X015958Y017655D02*
X015958Y017802D01*
X015958Y017765D02*
X016105Y017765D01*
X016179Y017802D02*
X016216Y017765D01*
X016289Y017765D01*
X016326Y017728D01*
X016326Y017692D01*
X016289Y017655D01*
X016216Y017655D01*
X016179Y017692D01*
X016179Y017802D02*
X016179Y017838D01*
X016216Y017875D01*
X016289Y017875D01*
X016326Y017838D01*
X014912Y016449D02*
X014948Y016412D01*
X014948Y016265D01*
X014912Y016229D01*
X014838Y016229D01*
X014802Y016265D01*
X014838Y016339D02*
X014948Y016339D01*
X014838Y016339D02*
X014802Y016375D01*
X014802Y016412D01*
X014838Y016449D01*
X014912Y016449D01*
X014654Y016449D02*
X014581Y016375D01*
X014507Y016339D02*
X014470Y016302D01*
X014360Y016302D01*
X014433Y016302D02*
X014507Y016229D01*
X014581Y016229D02*
X014728Y016229D01*
X014654Y016229D02*
X014654Y016449D01*
X014507Y016412D02*
X014507Y016339D01*
X014507Y016412D02*
X014470Y016449D01*
X014360Y016449D01*
X014360Y016229D01*
X014505Y016134D02*
X014505Y015914D01*
X014578Y015914D02*
X014431Y015914D01*
X014431Y016061D02*
X014505Y016134D01*
X014652Y016098D02*
X014652Y015951D01*
X014799Y016098D01*
X014799Y015951D01*
X014763Y015914D01*
X014689Y015914D01*
X014652Y015951D01*
X014652Y016098D02*
X014689Y016134D01*
X014763Y016134D01*
X014799Y016098D01*
X014873Y016134D02*
X014873Y015914D01*
X014873Y015988D02*
X014984Y016061D01*
X014873Y015988D02*
X014984Y015914D01*
D13*
X015123Y008407D02*
X014898Y008182D01*
X015198Y008182D01*
X015359Y008107D02*
X015584Y008107D01*
X015659Y008182D01*
X015659Y008332D01*
X015584Y008407D01*
X015359Y008407D01*
X015359Y007957D01*
X015123Y007957D02*
X015123Y008407D01*
X014738Y008332D02*
X014738Y008257D01*
X014663Y008182D01*
X014513Y008182D01*
X014438Y008257D01*
X014438Y008332D01*
X014513Y008407D01*
X014663Y008407D01*
X014738Y008332D01*
X014663Y008182D02*
X014738Y008107D01*
X014738Y008032D01*
X014663Y007957D01*
X014513Y007957D01*
X014438Y008032D01*
X014438Y008107D01*
X014513Y008182D01*
X014278Y008032D02*
X014203Y007957D01*
X014052Y007957D01*
X013977Y008032D01*
X014278Y008332D01*
X014278Y008032D01*
X014278Y008332D02*
X014203Y008407D01*
X014052Y008407D01*
X013977Y008332D01*
X013977Y008032D01*
X013817Y007957D02*
X013517Y007957D01*
X013517Y008407D01*
X013357Y008407D02*
X013057Y008407D01*
X013207Y008407D02*
X013207Y007957D01*
X015546Y003609D02*
X015546Y000171D01*
X007734Y000171D01*
X007734Y003609D01*
X015546Y003609D01*
X015390Y003390D02*
X015390Y000390D01*
X012640Y000390D01*
X010640Y000390D01*
X007890Y000390D01*
X007890Y003390D01*
X015390Y003390D01*
X012640Y000640D02*
X012640Y000390D01*
X012640Y000180D01*
X012390Y000180D02*
X012390Y000640D01*
X012640Y000640D01*
X012390Y000640D02*
X012140Y000640D01*
X012140Y000180D01*
X011890Y000180D02*
X011890Y000640D01*
X012140Y000640D01*
X011890Y000640D02*
X011640Y000640D01*
X011640Y000180D01*
X011390Y000180D02*
X011390Y000640D01*
X011640Y000640D01*
X011390Y000640D02*
X011140Y000640D01*
X011140Y000180D01*
X010890Y000180D02*
X010890Y000640D01*
X011140Y000640D01*
X010890Y000640D02*
X010640Y000640D01*
X010640Y000390D01*
X010640Y000180D01*
X003640Y007015D02*
X003640Y008015D01*
X000640Y008015D01*
X000640Y007015D01*
X003640Y007015D01*
X002728Y007515D02*
X002730Y007555D01*
X002736Y007595D01*
X002746Y007635D01*
X002759Y007673D01*
X002777Y007709D01*
X002797Y007744D01*
X002822Y007776D01*
X002849Y007806D01*
X002879Y007833D01*
X002911Y007858D01*
X002946Y007878D01*
X002982Y007896D01*
X003020Y007909D01*
X003060Y007919D01*
X003100Y007925D01*
X003140Y007927D01*
X003180Y007925D01*
X003220Y007919D01*
X003260Y007909D01*
X003298Y007896D01*
X003334Y007878D01*
X003369Y007858D01*
X003401Y007833D01*
X003431Y007806D01*
X003458Y007776D01*
X003483Y007744D01*
X003503Y007709D01*
X003521Y007673D01*
X003534Y007635D01*
X003544Y007595D01*
X003550Y007555D01*
X003552Y007515D01*
X003550Y007475D01*
X003544Y007435D01*
X003534Y007395D01*
X003521Y007357D01*
X003503Y007321D01*
X003483Y007286D01*
X003458Y007254D01*
X003431Y007224D01*
X003401Y007197D01*
X003369Y007172D01*
X003334Y007152D01*
X003298Y007134D01*
X003260Y007121D01*
X003220Y007111D01*
X003180Y007105D01*
X003140Y007103D01*
X003100Y007105D01*
X003060Y007111D01*
X003020Y007121D01*
X002982Y007134D01*
X002946Y007152D01*
X002911Y007172D01*
X002879Y007197D01*
X002849Y007224D01*
X002822Y007254D01*
X002797Y007286D01*
X002777Y007321D01*
X002759Y007357D01*
X002746Y007395D01*
X002736Y007435D01*
X002730Y007475D01*
X002728Y007515D01*
X002690Y007515D02*
X002640Y007515D01*
X002550Y007585D01*
X002550Y007655D01*
X002690Y007515D01*
X002550Y007375D01*
X002550Y007435D01*
X002640Y007515D01*
X002400Y007515D01*
X002550Y007585D02*
X002550Y007435D01*
X001490Y007165D02*
X001490Y007865D01*
X000790Y007865D01*
X000790Y007165D01*
X001140Y007165D01*
X001140Y006840D01*
X001215Y006715D01*
X001340Y006715D02*
X001265Y006840D01*
X001140Y006840D01*
X001015Y006840D01*
X001090Y006715D01*
X001140Y007165D02*
X001490Y007165D01*
X001340Y008215D02*
X001265Y008340D01*
X001140Y008340D01*
X001215Y008215D01*
X001090Y008215D02*
X001015Y008340D01*
X001140Y008340D01*
X001140Y008665D01*
X001490Y008665D01*
X001490Y009365D01*
X000790Y009365D01*
X000790Y008665D01*
X001140Y008665D01*
X000640Y008515D02*
X003640Y008515D01*
X003640Y009515D01*
X000640Y009515D01*
X000640Y008515D01*
X002400Y009015D02*
X002640Y009015D01*
X002550Y009085D01*
X002550Y009155D01*
X002690Y009015D01*
X002640Y009015D01*
X002550Y008935D01*
X002550Y009085D01*
X002550Y008935D02*
X002550Y008875D01*
X002690Y009015D01*
X002728Y009015D02*
X002730Y009055D01*
X002736Y009095D01*
X002746Y009135D01*
X002759Y009173D01*
X002777Y009209D01*
X002797Y009244D01*
X002822Y009276D01*
X002849Y009306D01*
X002879Y009333D01*
X002911Y009358D01*
X002946Y009378D01*
X002982Y009396D01*
X003020Y009409D01*
X003060Y009419D01*
X003100Y009425D01*
X003140Y009427D01*
X003180Y009425D01*
X003220Y009419D01*
X003260Y009409D01*
X003298Y009396D01*
X003334Y009378D01*
X003369Y009358D01*
X003401Y009333D01*
X003431Y009306D01*
X003458Y009276D01*
X003483Y009244D01*
X003503Y009209D01*
X003521Y009173D01*
X003534Y009135D01*
X003544Y009095D01*
X003550Y009055D01*
X003552Y009015D01*
X003550Y008975D01*
X003544Y008935D01*
X003534Y008895D01*
X003521Y008857D01*
X003503Y008821D01*
X003483Y008786D01*
X003458Y008754D01*
X003431Y008724D01*
X003401Y008697D01*
X003369Y008672D01*
X003334Y008652D01*
X003298Y008634D01*
X003260Y008621D01*
X003220Y008611D01*
X003180Y008605D01*
X003140Y008603D01*
X003100Y008605D01*
X003060Y008611D01*
X003020Y008621D01*
X002982Y008634D01*
X002946Y008652D01*
X002911Y008672D01*
X002879Y008697D01*
X002849Y008724D01*
X002822Y008754D01*
X002797Y008786D01*
X002777Y008821D01*
X002759Y008857D01*
X002746Y008895D01*
X002736Y008935D01*
X002730Y008975D01*
X002728Y009015D01*
X004749Y008370D02*
X005049Y008370D01*
X004899Y008370D02*
X004899Y007919D01*
X005209Y007919D02*
X005209Y008370D01*
X005209Y007919D02*
X005509Y007919D01*
X005669Y007994D02*
X005970Y008295D01*
X005970Y007994D01*
X005895Y007919D01*
X005744Y007919D01*
X005669Y007994D01*
X005669Y008295D01*
X005744Y008370D01*
X005895Y008370D01*
X005970Y008295D01*
X006130Y008295D02*
X006130Y008219D01*
X006205Y008144D01*
X006355Y008144D01*
X006430Y008069D01*
X006430Y007994D01*
X006355Y007919D01*
X006205Y007919D01*
X006130Y007994D01*
X006130Y008069D01*
X006205Y008144D01*
X006355Y008144D02*
X006430Y008219D01*
X006430Y008295D01*
X006355Y008370D01*
X006205Y008370D01*
X006130Y008295D01*
X006590Y008144D02*
X006890Y008144D01*
X007051Y008069D02*
X007276Y008069D01*
X007351Y008144D01*
X007351Y008295D01*
X007276Y008370D01*
X007051Y008370D01*
X007051Y007919D01*
X006815Y007919D02*
X006815Y008370D01*
X006590Y008144D01*
X003640Y012015D02*
X003640Y013015D01*
X000640Y013015D01*
X000640Y012015D01*
X003640Y012015D01*
X002728Y012515D02*
X002730Y012555D01*
X002736Y012595D01*
X002746Y012635D01*
X002759Y012673D01*
X002777Y012709D01*
X002797Y012744D01*
X002822Y012776D01*
X002849Y012806D01*
X002879Y012833D01*
X002911Y012858D01*
X002946Y012878D01*
X002982Y012896D01*
X003020Y012909D01*
X003060Y012919D01*
X003100Y012925D01*
X003140Y012927D01*
X003180Y012925D01*
X003220Y012919D01*
X003260Y012909D01*
X003298Y012896D01*
X003334Y012878D01*
X003369Y012858D01*
X003401Y012833D01*
X003431Y012806D01*
X003458Y012776D01*
X003483Y012744D01*
X003503Y012709D01*
X003521Y012673D01*
X003534Y012635D01*
X003544Y012595D01*
X003550Y012555D01*
X003552Y012515D01*
X003550Y012475D01*
X003544Y012435D01*
X003534Y012395D01*
X003521Y012357D01*
X003503Y012321D01*
X003483Y012286D01*
X003458Y012254D01*
X003431Y012224D01*
X003401Y012197D01*
X003369Y012172D01*
X003334Y012152D01*
X003298Y012134D01*
X003260Y012121D01*
X003220Y012111D01*
X003180Y012105D01*
X003140Y012103D01*
X003100Y012105D01*
X003060Y012111D01*
X003020Y012121D01*
X002982Y012134D01*
X002946Y012152D01*
X002911Y012172D01*
X002879Y012197D01*
X002849Y012224D01*
X002822Y012254D01*
X002797Y012286D01*
X002777Y012321D01*
X002759Y012357D01*
X002746Y012395D01*
X002736Y012435D01*
X002730Y012475D01*
X002728Y012515D01*
X002690Y012515D02*
X002640Y012515D01*
X002550Y012585D01*
X002550Y012655D01*
X002690Y012515D01*
X002550Y012375D01*
X002550Y012435D01*
X002640Y012515D01*
X002400Y012515D01*
X002550Y012585D02*
X002550Y012435D01*
X001490Y012165D02*
X001490Y012865D01*
X000790Y012865D01*
X000790Y012165D01*
X001140Y012165D01*
X001140Y011840D01*
X001215Y011715D01*
X001340Y011715D02*
X001265Y011840D01*
X001140Y011840D01*
X001015Y011840D01*
X001090Y011715D01*
X001140Y012165D02*
X001490Y012165D01*
D14*
X007151Y017884D02*
X007256Y017779D01*
X007466Y017779D01*
X007571Y017884D01*
X007795Y017779D02*
X007795Y018199D01*
X008006Y018410D01*
X008216Y018199D01*
X008216Y017779D01*
X008440Y017884D02*
X008545Y017779D01*
X008755Y017779D01*
X008860Y017884D01*
X008860Y017989D01*
X008755Y018094D01*
X008650Y018094D01*
X008755Y018094D02*
X008860Y018199D01*
X008860Y018305D01*
X008755Y018410D01*
X008545Y018410D01*
X008440Y018305D01*
X008216Y018094D02*
X007795Y018094D01*
X007571Y018305D02*
X007466Y018410D01*
X007256Y018410D01*
X007151Y018305D01*
X007151Y017884D01*
X009084Y017884D02*
X009505Y018305D01*
X009505Y017884D01*
X009400Y017779D01*
X009190Y017779D01*
X009084Y017884D01*
X009084Y018305D01*
X009190Y018410D01*
X009400Y018410D01*
X009505Y018305D01*
X009729Y018094D02*
X010149Y018094D01*
X010044Y017779D02*
X010044Y018410D01*
X009729Y018094D01*
X010374Y018094D02*
X010374Y017884D01*
X010479Y017779D01*
X010689Y017779D01*
X010794Y017884D01*
X010794Y017989D01*
X010689Y018094D01*
X010374Y018094D01*
X010584Y018305D01*
X010794Y018410D01*
D15*
X012015Y013715D03*
X012015Y011565D03*
X011640Y007715D03*
X011640Y005565D03*
X016140Y003340D03*
X016140Y001190D03*
D16*
X015490Y004215D02*
X015490Y004515D01*
X015490Y004815D01*
X015290Y004815D02*
X015290Y004515D01*
X015290Y004215D01*
X018290Y004840D02*
X018290Y005140D01*
X018290Y005440D01*
X018490Y005440D02*
X018490Y005140D01*
X018490Y004840D01*
X013490Y010090D02*
X013490Y010390D01*
X013490Y010690D01*
X013290Y010690D02*
X013290Y010390D01*
X013290Y010090D01*
X010240Y014840D02*
X010240Y015140D01*
X010240Y015440D01*
X010040Y015440D02*
X010040Y015140D01*
X010040Y014840D01*
X008190Y014740D02*
X007890Y014740D01*
X007590Y014740D01*
X007590Y014540D02*
X007890Y014540D01*
X008190Y014540D01*
X008230Y012679D02*
X008230Y012379D01*
X008230Y012079D01*
X008030Y012079D02*
X008030Y012379D01*
X008030Y012679D01*
X008040Y011065D02*
X008040Y010765D01*
X008040Y010465D01*
X008240Y010465D02*
X008240Y010765D01*
X008240Y011065D01*
X006740Y003315D02*
X006740Y003015D01*
X006740Y002715D01*
X006540Y002715D02*
X006540Y003015D01*
X006540Y003315D01*
D17*
X005065Y004515D02*
X004965Y004515D01*
X010090Y010140D02*
X010190Y010140D01*
X010190Y010890D02*
X010090Y010890D01*
X012965Y014765D02*
X013065Y014765D01*
X014590Y016640D02*
X014690Y016640D01*
X014690Y017640D02*
X014590Y017640D01*
X018140Y013815D02*
X018140Y013715D01*
X018890Y013715D02*
X018890Y013815D01*
X018890Y011690D02*
X018890Y011590D01*
X017940Y011640D02*
X017840Y011640D01*
X017440Y011015D02*
X017340Y011015D01*
X016015Y012965D02*
X016015Y013065D01*
X014190Y012765D02*
X014090Y012765D01*
X012890Y005065D02*
X012890Y004965D01*
X010640Y004965D02*
X010640Y005065D01*
X005640Y010590D02*
X005640Y010690D01*
X017140Y003440D02*
X017140Y003340D01*
X019140Y003465D02*
X019140Y003565D01*
D18*
X016965Y014265D03*
X014815Y014265D03*
D19*
X011645Y000405D03*
M02*
