G75*
%MOIN*%
%OFA0B0*%
%FSLAX24Y24*%
%IPPOS*%
%LPD*%
%AMOC8*
5,1,8,0,0,1.08239X$1,22.5*
%
%ADD10C,0.0060*%
%ADD11C,0.0050*%
%ADD12C,0.0070*%
%ADD13R,0.0200X0.0150*%
%ADD14C,0.0040*%
%ADD15C,0.0100*%
%ADD16C,0.0020*%
%ADD17C,0.0200*%
%ADD18R,0.0150X0.0200*%
%ADD19C,0.0030*%
%ADD20R,0.1990X0.0450*%
D10*
X001105Y002555D02*
X001105Y002805D01*
X001105Y002555D02*
X003605Y002555D01*
X003605Y002805D01*
X002905Y003705D02*
X002905Y004105D01*
X002855Y004055D01*
X002855Y003905D01*
X002855Y003755D01*
X002905Y003705D01*
X002855Y003755D02*
X002805Y003805D01*
X002755Y003855D01*
X002755Y003955D01*
X002805Y004005D01*
X002855Y004055D01*
X002805Y004005D02*
X002805Y003805D01*
X002755Y003855D02*
X002705Y003905D01*
X002855Y003905D01*
X003455Y003905D01*
X003605Y003905D02*
X003605Y004225D01*
X001105Y004225D01*
X001105Y003905D01*
X001105Y004930D02*
X001105Y005180D01*
X001105Y004930D02*
X003605Y004930D01*
X003605Y005180D01*
X002905Y006080D02*
X002905Y006480D01*
X002855Y006430D01*
X002855Y006280D01*
X002855Y006130D01*
X002905Y006080D01*
X002855Y006130D02*
X002805Y006180D01*
X002755Y006230D01*
X002755Y006330D01*
X002805Y006380D01*
X002855Y006430D01*
X002805Y006380D02*
X002805Y006180D01*
X002755Y006230D02*
X002705Y006280D01*
X002855Y006280D01*
X003455Y006280D01*
X003605Y006280D02*
X003605Y006600D01*
X001105Y006600D01*
X001105Y006280D01*
X002705Y006280D02*
X002755Y006330D01*
X004355Y006580D02*
X004355Y007330D01*
X004394Y007332D01*
X004433Y007338D01*
X004471Y007347D01*
X004508Y007360D01*
X004544Y007377D01*
X004577Y007397D01*
X004609Y007421D01*
X004638Y007447D01*
X004664Y007476D01*
X004688Y007508D01*
X004708Y007541D01*
X004725Y007577D01*
X004738Y007614D01*
X004747Y007652D01*
X004753Y007691D01*
X004755Y007730D01*
X004753Y007769D01*
X004747Y007808D01*
X004738Y007846D01*
X004725Y007883D01*
X004708Y007919D01*
X004688Y007952D01*
X004664Y007984D01*
X004638Y008013D01*
X004609Y008039D01*
X004577Y008063D01*
X004544Y008083D01*
X004508Y008100D01*
X004471Y008113D01*
X004433Y008122D01*
X004394Y008128D01*
X004355Y008130D01*
X004355Y008880D01*
X011355Y008880D01*
X011355Y006580D01*
X004355Y006580D01*
X002755Y003955D02*
X002705Y003905D01*
X003605Y009930D02*
X001105Y009930D01*
X001105Y010180D01*
X001105Y011280D02*
X001105Y011600D01*
X003605Y011600D01*
X003605Y011280D01*
X003455Y011280D02*
X002855Y011280D01*
X002855Y011430D01*
X002905Y011480D01*
X002905Y011080D01*
X002855Y011130D01*
X002855Y011280D01*
X002705Y011280D01*
X002755Y011230D01*
X002805Y011180D01*
X002855Y011130D01*
X002805Y011180D02*
X002805Y011380D01*
X002755Y011330D01*
X002755Y011230D01*
X002705Y011280D02*
X002755Y011330D01*
X002805Y011380D02*
X002855Y011430D01*
X003605Y010180D02*
X003605Y009930D01*
X007405Y011055D02*
X007405Y012655D01*
X007407Y012672D01*
X007411Y012689D01*
X007418Y012705D01*
X007428Y012719D01*
X007441Y012732D01*
X007455Y012742D01*
X007471Y012749D01*
X007488Y012753D01*
X007505Y012755D01*
X009205Y012755D01*
X009222Y012753D01*
X009239Y012749D01*
X009255Y012742D01*
X009269Y012732D01*
X009282Y012719D01*
X009292Y012705D01*
X009299Y012689D01*
X009303Y012672D01*
X009305Y012655D01*
X009305Y011055D01*
X009303Y011038D01*
X009299Y011021D01*
X009292Y011005D01*
X009282Y010991D01*
X009269Y010978D01*
X009255Y010968D01*
X009239Y010961D01*
X009222Y010957D01*
X009205Y010955D01*
X007505Y010955D01*
X007488Y010957D01*
X007471Y010961D01*
X007455Y010968D01*
X007441Y010978D01*
X007428Y010991D01*
X007418Y011005D01*
X007411Y011021D01*
X007407Y011038D01*
X007405Y011055D01*
X008205Y011855D02*
X008255Y011855D01*
X008455Y011855D02*
X008505Y011855D01*
X009195Y013469D02*
X007495Y013469D01*
X007478Y013471D01*
X007461Y013475D01*
X007445Y013482D01*
X007431Y013492D01*
X007418Y013505D01*
X007408Y013519D01*
X007401Y013535D01*
X007397Y013552D01*
X007395Y013569D01*
X007395Y014369D01*
X007397Y014386D01*
X007401Y014403D01*
X007408Y014419D01*
X007418Y014433D01*
X007431Y014446D01*
X007445Y014456D01*
X007461Y014463D01*
X007478Y014467D01*
X007495Y014469D01*
X009195Y014469D01*
X009212Y014467D01*
X009229Y014463D01*
X009245Y014456D01*
X009259Y014446D01*
X009272Y014433D01*
X009282Y014419D01*
X009289Y014403D01*
X009293Y014386D01*
X009295Y014369D01*
X009295Y013569D01*
X009293Y013552D01*
X009289Y013535D01*
X009282Y013519D01*
X009272Y013505D01*
X009259Y013492D01*
X009245Y013482D01*
X009229Y013475D01*
X009212Y013471D01*
X009195Y013469D01*
X008495Y013969D02*
X008445Y013969D01*
X008245Y013969D02*
X008195Y013969D01*
X006905Y016505D02*
X013805Y016505D01*
X013805Y018705D01*
X006905Y018705D01*
X006905Y017855D01*
X006935Y017853D01*
X006965Y017848D01*
X006994Y017839D01*
X007021Y017826D01*
X007047Y017811D01*
X007071Y017792D01*
X007092Y017771D01*
X007111Y017747D01*
X007126Y017721D01*
X007139Y017694D01*
X007148Y017665D01*
X007153Y017635D01*
X007155Y017605D01*
X007153Y017575D01*
X007148Y017545D01*
X007139Y017516D01*
X007126Y017489D01*
X007111Y017463D01*
X007092Y017439D01*
X007071Y017418D01*
X007047Y017399D01*
X007021Y017384D01*
X006994Y017371D01*
X006965Y017362D01*
X006935Y017357D01*
X006905Y017355D01*
X006905Y016505D01*
X011830Y013505D02*
X011830Y013355D01*
X011880Y013305D01*
X011880Y011905D01*
X011830Y011855D01*
X011830Y011705D01*
X011832Y011688D01*
X011836Y011671D01*
X011843Y011655D01*
X011853Y011641D01*
X011866Y011628D01*
X011880Y011618D01*
X011896Y011611D01*
X011913Y011607D01*
X011930Y011605D01*
X012530Y011605D01*
X012547Y011607D01*
X012564Y011611D01*
X012580Y011618D01*
X012594Y011628D01*
X012607Y011641D01*
X012617Y011655D01*
X012624Y011671D01*
X012628Y011688D01*
X012630Y011705D01*
X012630Y011855D01*
X012580Y011905D01*
X012580Y013305D01*
X012630Y013355D01*
X012630Y013505D01*
X012628Y013522D01*
X012624Y013539D01*
X012617Y013555D01*
X012607Y013569D01*
X012594Y013582D01*
X012580Y013592D01*
X012564Y013599D01*
X012547Y013603D01*
X012530Y013605D01*
X011930Y013605D01*
X011913Y013603D01*
X011896Y013599D01*
X011880Y013592D01*
X011866Y013582D01*
X011853Y013569D01*
X011843Y013555D01*
X011836Y013539D01*
X011832Y013522D01*
X011830Y013505D01*
X012755Y010855D02*
X014455Y010855D01*
X014472Y010853D01*
X014489Y010849D01*
X014505Y010842D01*
X014519Y010832D01*
X014532Y010819D01*
X014542Y010805D01*
X014549Y010789D01*
X014553Y010772D01*
X014555Y010755D01*
X014555Y009955D01*
X014553Y009938D01*
X014549Y009921D01*
X014542Y009905D01*
X014532Y009891D01*
X014519Y009878D01*
X014505Y009868D01*
X014489Y009861D01*
X014472Y009857D01*
X014455Y009855D01*
X012755Y009855D01*
X012738Y009857D01*
X012721Y009861D01*
X012705Y009868D01*
X012691Y009878D01*
X012678Y009891D01*
X012668Y009905D01*
X012661Y009921D01*
X012657Y009938D01*
X012655Y009955D01*
X012655Y010755D01*
X012657Y010772D01*
X012661Y010789D01*
X012668Y010805D01*
X012678Y010819D01*
X012691Y010832D01*
X012705Y010842D01*
X012721Y010849D01*
X012738Y010853D01*
X012755Y010855D01*
X013455Y010355D02*
X013505Y010355D01*
X013705Y010355D02*
X013755Y010355D01*
X012605Y008880D02*
X012605Y008130D01*
X012644Y008128D01*
X012683Y008122D01*
X012721Y008113D01*
X012758Y008100D01*
X012794Y008083D01*
X012827Y008063D01*
X012859Y008039D01*
X012888Y008013D01*
X012914Y007984D01*
X012938Y007952D01*
X012958Y007919D01*
X012975Y007883D01*
X012988Y007846D01*
X012997Y007808D01*
X013003Y007769D01*
X013005Y007730D01*
X013003Y007691D01*
X012997Y007652D01*
X012988Y007614D01*
X012975Y007577D01*
X012958Y007541D01*
X012938Y007508D01*
X012914Y007476D01*
X012888Y007447D01*
X012859Y007421D01*
X012827Y007397D01*
X012794Y007377D01*
X012758Y007360D01*
X012721Y007347D01*
X012683Y007338D01*
X012644Y007332D01*
X012605Y007330D01*
X012605Y006580D01*
X019605Y006580D01*
X019605Y008880D01*
X012605Y008880D01*
X012155Y007605D02*
X011555Y007605D01*
X011538Y007603D01*
X011521Y007599D01*
X011505Y007592D01*
X011491Y007582D01*
X011478Y007569D01*
X011468Y007555D01*
X011461Y007539D01*
X011457Y007522D01*
X011455Y007505D01*
X011455Y007355D01*
X011505Y007305D01*
X011505Y005905D01*
X011455Y005855D01*
X011455Y005705D01*
X011457Y005688D01*
X011461Y005671D01*
X011468Y005655D01*
X011478Y005641D01*
X011491Y005628D01*
X011505Y005618D01*
X011521Y005611D01*
X011538Y005607D01*
X011555Y005605D01*
X012155Y005605D01*
X012172Y005607D01*
X012189Y005611D01*
X012205Y005618D01*
X012219Y005628D01*
X012232Y005641D01*
X012242Y005655D01*
X012249Y005671D01*
X012253Y005688D01*
X012255Y005705D01*
X012255Y005855D01*
X012205Y005905D01*
X012205Y007305D01*
X012255Y007355D01*
X012255Y007505D01*
X012253Y007522D01*
X012249Y007539D01*
X012242Y007555D01*
X012232Y007569D01*
X012219Y007582D01*
X012205Y007592D01*
X012189Y007599D01*
X012172Y007603D01*
X012155Y007605D01*
X014755Y004980D02*
X016455Y004980D01*
X016472Y004978D01*
X016489Y004974D01*
X016505Y004967D01*
X016519Y004957D01*
X016532Y004944D01*
X016542Y004930D01*
X016549Y004914D01*
X016553Y004897D01*
X016555Y004880D01*
X016555Y004080D01*
X016553Y004063D01*
X016549Y004046D01*
X016542Y004030D01*
X016532Y004016D01*
X016519Y004003D01*
X016505Y003993D01*
X016489Y003986D01*
X016472Y003982D01*
X016455Y003980D01*
X014755Y003980D01*
X014738Y003982D01*
X014721Y003986D01*
X014705Y003993D01*
X014691Y004003D01*
X014678Y004016D01*
X014668Y004030D01*
X014661Y004046D01*
X014657Y004063D01*
X014655Y004080D01*
X014655Y004880D01*
X014657Y004897D01*
X014661Y004914D01*
X014668Y004930D01*
X014678Y004944D01*
X014691Y004957D01*
X014705Y004967D01*
X014721Y004974D01*
X014738Y004978D01*
X014755Y004980D01*
X015455Y004480D02*
X015505Y004480D01*
X015705Y004480D02*
X015755Y004480D01*
X016055Y003230D02*
X016655Y003230D01*
X016672Y003228D01*
X016689Y003224D01*
X016705Y003217D01*
X016719Y003207D01*
X016732Y003194D01*
X016742Y003180D01*
X016749Y003164D01*
X016753Y003147D01*
X016755Y003130D01*
X016755Y002980D01*
X016705Y002930D01*
X016705Y001530D01*
X016755Y001480D01*
X016755Y001330D01*
X016753Y001313D01*
X016749Y001296D01*
X016742Y001280D01*
X016732Y001266D01*
X016719Y001253D01*
X016705Y001243D01*
X016689Y001236D01*
X016672Y001232D01*
X016655Y001230D01*
X016055Y001230D01*
X016038Y001232D01*
X016021Y001236D01*
X016005Y001243D01*
X015991Y001253D01*
X015978Y001266D01*
X015968Y001280D01*
X015961Y001296D01*
X015957Y001313D01*
X015955Y001330D01*
X015955Y001480D01*
X016005Y001530D01*
X016005Y002930D01*
X015955Y002980D01*
X015955Y003130D01*
X015957Y003147D01*
X015961Y003164D01*
X015968Y003180D01*
X015978Y003194D01*
X015991Y003207D01*
X016005Y003217D01*
X016021Y003224D01*
X016038Y003228D01*
X016055Y003230D01*
X017105Y001905D02*
X017105Y001655D01*
X017105Y001905D02*
X019605Y001905D01*
X019605Y001655D01*
X019605Y000555D02*
X019605Y000235D01*
X017105Y000235D01*
X017105Y000555D01*
X017255Y000555D02*
X017855Y000555D01*
X017855Y000405D01*
X017805Y000355D01*
X017805Y000755D01*
X017855Y000705D01*
X017855Y000555D01*
X018005Y000555D01*
X017955Y000605D01*
X017905Y000655D01*
X017855Y000705D01*
X017905Y000655D02*
X017905Y000455D01*
X017955Y000505D01*
X017955Y000605D01*
X018005Y000555D02*
X017955Y000505D01*
X017905Y000455D02*
X017855Y000405D01*
X017755Y004605D02*
X019455Y004605D01*
X019472Y004607D01*
X019489Y004611D01*
X019505Y004618D01*
X019519Y004628D01*
X019532Y004641D01*
X019542Y004655D01*
X019549Y004671D01*
X019553Y004688D01*
X019555Y004705D01*
X019555Y005505D01*
X019553Y005522D01*
X019549Y005539D01*
X019542Y005555D01*
X019532Y005569D01*
X019519Y005582D01*
X019505Y005592D01*
X019489Y005599D01*
X019472Y005603D01*
X019455Y005605D01*
X017755Y005605D01*
X017738Y005603D01*
X017721Y005599D01*
X017705Y005592D01*
X017691Y005582D01*
X017678Y005569D01*
X017668Y005555D01*
X017661Y005539D01*
X017657Y005522D01*
X017655Y005505D01*
X017655Y004705D01*
X017657Y004688D01*
X017661Y004671D01*
X017668Y004655D01*
X017678Y004641D01*
X017691Y004628D01*
X017705Y004618D01*
X017721Y004611D01*
X017738Y004607D01*
X017755Y004605D01*
X018455Y005105D02*
X018505Y005105D01*
X018705Y005105D02*
X018755Y005105D01*
X017005Y013830D02*
X016855Y013830D01*
X016805Y013880D01*
X015405Y013880D01*
X015355Y013830D01*
X015205Y013830D01*
X015188Y013832D01*
X015171Y013836D01*
X015155Y013843D01*
X015141Y013853D01*
X015128Y013866D01*
X015118Y013880D01*
X015111Y013896D01*
X015107Y013913D01*
X015105Y013930D01*
X015105Y014530D01*
X015107Y014547D01*
X015111Y014564D01*
X015118Y014580D01*
X015128Y014594D01*
X015141Y014607D01*
X015155Y014617D01*
X015171Y014624D01*
X015188Y014628D01*
X015205Y014630D01*
X015355Y014630D01*
X015405Y014580D01*
X016805Y014580D01*
X016855Y014630D01*
X017005Y014630D01*
X017022Y014628D01*
X017039Y014624D01*
X017055Y014617D01*
X017069Y014607D01*
X017082Y014594D01*
X017092Y014580D01*
X017099Y014564D01*
X017103Y014547D01*
X017105Y014530D01*
X017105Y013930D01*
X017103Y013913D01*
X017099Y013896D01*
X017092Y013880D01*
X017082Y013866D01*
X017069Y013853D01*
X017055Y013843D01*
X017039Y013836D01*
X017022Y013832D01*
X017005Y013830D01*
X016805Y014855D02*
X016555Y014855D01*
X016555Y017355D01*
X016805Y017355D01*
X017180Y017655D02*
X018780Y017655D01*
X018797Y017657D01*
X018814Y017661D01*
X018830Y017668D01*
X018844Y017678D01*
X018857Y017691D01*
X018867Y017705D01*
X018874Y017721D01*
X018878Y017738D01*
X018880Y017755D01*
X018880Y019455D01*
X018878Y019472D01*
X018874Y019489D01*
X018867Y019505D01*
X018857Y019519D01*
X018844Y019532D01*
X018830Y019542D01*
X018814Y019549D01*
X018797Y019553D01*
X018780Y019555D01*
X017180Y019555D01*
X017163Y019553D01*
X017146Y019549D01*
X017130Y019542D01*
X017116Y019532D01*
X017103Y019519D01*
X017093Y019505D01*
X017086Y019489D01*
X017082Y019472D01*
X017080Y019455D01*
X017080Y017755D01*
X017082Y017738D01*
X017086Y017721D01*
X017093Y017705D01*
X017103Y017691D01*
X017116Y017678D01*
X017130Y017668D01*
X017146Y017661D01*
X017163Y017657D01*
X017180Y017655D01*
X017905Y017355D02*
X018225Y017355D01*
X018225Y014855D01*
X017905Y014855D01*
X017905Y015005D02*
X017905Y015605D01*
X018055Y015605D01*
X018105Y015555D01*
X017705Y015555D01*
X017755Y015605D01*
X017905Y015605D01*
X017905Y015755D01*
X017855Y015705D01*
X017805Y015655D01*
X017755Y015605D01*
X017805Y015655D02*
X018005Y015655D01*
X017955Y015705D01*
X017855Y015705D01*
X017905Y015755D02*
X017955Y015705D01*
X018005Y015655D02*
X018055Y015605D01*
X017980Y018455D02*
X017980Y018505D01*
X017980Y018705D02*
X017980Y018755D01*
D11*
X019005Y018726D02*
X019005Y018876D01*
X019080Y018951D01*
X019380Y018651D01*
X019455Y018726D01*
X019455Y018876D01*
X019380Y018951D01*
X019080Y018951D01*
X019005Y018726D02*
X019080Y018651D01*
X019380Y018651D01*
X019380Y018491D02*
X019455Y018416D01*
X019455Y018265D01*
X019380Y018190D01*
X019080Y018491D01*
X019380Y018491D01*
X019080Y018491D02*
X019005Y018416D01*
X019005Y018265D01*
X019080Y018190D01*
X019380Y018190D01*
X019455Y018030D02*
X019455Y017730D01*
X019455Y017880D02*
X019005Y017880D01*
X019155Y017730D01*
X019605Y019111D02*
X019530Y019186D01*
X019380Y019186D01*
X019455Y019261D01*
X019455Y019336D01*
X019380Y019411D01*
X019230Y019411D01*
X019230Y019186D02*
X019380Y019186D01*
X016007Y007955D02*
X015782Y007955D01*
X015782Y007505D01*
X015782Y007655D02*
X016007Y007655D01*
X016082Y007730D01*
X016082Y007880D01*
X016007Y007955D01*
X015622Y007730D02*
X015322Y007730D01*
X015547Y007955D01*
X015547Y007505D01*
X015161Y007580D02*
X015086Y007505D01*
X014936Y007505D01*
X014861Y007580D01*
X014861Y007655D01*
X014936Y007730D01*
X015086Y007730D01*
X015161Y007655D01*
X015161Y007580D01*
X015086Y007730D02*
X015161Y007805D01*
X015161Y007880D01*
X015086Y007955D01*
X014936Y007955D01*
X014861Y007880D01*
X014861Y007805D01*
X014936Y007730D01*
X014701Y007580D02*
X014626Y007505D01*
X014476Y007505D01*
X014401Y007580D01*
X014701Y007880D01*
X014701Y007580D01*
X014401Y007580D02*
X014401Y007880D01*
X014476Y007955D01*
X014626Y007955D01*
X014701Y007880D01*
X014241Y007505D02*
X013940Y007505D01*
X013940Y007955D01*
X013780Y007955D02*
X013480Y007955D01*
X013630Y007955D02*
X013630Y007505D01*
X013620Y004937D02*
X013770Y004711D01*
X013920Y004937D01*
X013920Y004711D02*
X013470Y004711D01*
X013545Y004551D02*
X013470Y004476D01*
X013470Y004326D01*
X013545Y004251D01*
X013545Y004091D02*
X013470Y004016D01*
X013470Y003866D01*
X013545Y003791D01*
X013695Y003941D02*
X013695Y004016D01*
X013770Y004091D01*
X013845Y004091D01*
X013920Y004016D01*
X013920Y003866D01*
X013845Y003791D01*
X013695Y004016D02*
X013620Y004091D01*
X013545Y004091D01*
X013845Y004251D02*
X013920Y004326D01*
X013920Y004476D01*
X013845Y004551D01*
X013770Y004551D01*
X013695Y004476D01*
X013695Y004401D01*
X013695Y004476D02*
X013620Y004551D01*
X013545Y004551D01*
X015605Y003355D02*
X015605Y000355D01*
X012855Y000355D01*
X010855Y000355D01*
X008105Y000355D01*
X008105Y003355D01*
X015605Y003355D01*
X015761Y003574D02*
X015761Y000136D01*
X007949Y000136D01*
X007949Y003574D01*
X015761Y003574D01*
X012855Y000605D02*
X012855Y000355D01*
X012855Y000145D01*
X012605Y000145D02*
X012605Y000605D01*
X012855Y000605D01*
X012605Y000605D02*
X012355Y000605D01*
X012355Y000145D01*
X012105Y000145D02*
X012105Y000605D01*
X012355Y000605D01*
X012105Y000605D02*
X011855Y000605D01*
X011855Y000145D01*
X011605Y000145D02*
X011605Y000605D01*
X011855Y000605D01*
X011605Y000605D02*
X011355Y000605D01*
X011355Y000145D01*
X011105Y000145D02*
X011105Y000605D01*
X011355Y000605D01*
X011105Y000605D02*
X010855Y000605D01*
X010855Y000355D01*
X010855Y000145D01*
X010420Y003330D02*
X010420Y003630D01*
X010420Y003480D02*
X009970Y003480D01*
X010120Y003330D01*
X010045Y003791D02*
X009970Y003866D01*
X009970Y004016D01*
X010045Y004091D01*
X010345Y003791D01*
X010420Y003866D01*
X010420Y004016D01*
X010345Y004091D01*
X010045Y004091D01*
X010045Y004251D02*
X009970Y004326D01*
X009970Y004476D01*
X010045Y004551D01*
X010345Y004251D01*
X010420Y004326D01*
X010420Y004476D01*
X010345Y004551D01*
X010045Y004551D01*
X009970Y004711D02*
X010420Y004711D01*
X010270Y004711D02*
X010420Y004937D01*
X010270Y004711D02*
X010120Y004937D01*
X010045Y004251D02*
X010345Y004251D01*
X010345Y003791D02*
X010045Y003791D01*
X006896Y004970D02*
X006671Y005120D01*
X006896Y005270D01*
X006671Y005420D02*
X006671Y004970D01*
X006511Y005045D02*
X006436Y004970D01*
X006286Y004970D01*
X006211Y005045D01*
X006511Y005345D01*
X006511Y005045D01*
X006211Y005045D02*
X006211Y005345D01*
X006286Y005420D01*
X006436Y005420D01*
X006511Y005345D01*
X006051Y005345D02*
X006051Y005045D01*
X005976Y004970D01*
X005825Y004970D01*
X005750Y005045D01*
X006051Y005345D01*
X005976Y005420D01*
X005825Y005420D01*
X005750Y005345D01*
X005750Y005045D01*
X005590Y004970D02*
X005290Y004970D01*
X005440Y004970D02*
X005440Y005420D01*
X005290Y005270D01*
X005380Y007505D02*
X005380Y007955D01*
X005230Y007955D02*
X005530Y007955D01*
X005690Y007955D02*
X005690Y007505D01*
X005991Y007505D01*
X006151Y007580D02*
X006451Y007880D01*
X006451Y007580D01*
X006376Y007505D01*
X006226Y007505D01*
X006151Y007580D01*
X006151Y007880D01*
X006226Y007955D01*
X006376Y007955D01*
X006451Y007880D01*
X006611Y007880D02*
X006611Y007805D01*
X006686Y007730D01*
X006836Y007730D01*
X006911Y007655D01*
X006911Y007580D01*
X006836Y007505D01*
X006686Y007505D01*
X006611Y007580D01*
X006611Y007655D01*
X006686Y007730D01*
X006836Y007730D02*
X006911Y007805D01*
X006911Y007880D01*
X006836Y007955D01*
X006686Y007955D01*
X006611Y007880D01*
X007072Y007730D02*
X007372Y007730D01*
X007532Y007655D02*
X007757Y007655D01*
X007832Y007730D01*
X007832Y007880D01*
X007757Y007955D01*
X007532Y007955D01*
X007532Y007505D01*
X007297Y007505D02*
X007297Y007955D01*
X007072Y007730D01*
X006740Y009790D02*
X006740Y010090D01*
X006740Y009940D02*
X006290Y009940D01*
X006440Y009790D01*
X006365Y010250D02*
X006290Y010325D01*
X006290Y010476D01*
X006365Y010551D01*
X006665Y010250D01*
X006740Y010325D01*
X006740Y010476D01*
X006665Y010551D01*
X006365Y010551D01*
X006365Y010711D02*
X006290Y010786D01*
X006290Y010936D01*
X006365Y011011D01*
X006665Y010711D01*
X006740Y010786D01*
X006740Y010936D01*
X006665Y011011D01*
X006365Y011011D01*
X006290Y011171D02*
X006740Y011171D01*
X006590Y011171D02*
X006440Y011396D01*
X006590Y011171D02*
X006740Y011396D01*
X006665Y010711D02*
X006365Y010711D01*
X006365Y010250D02*
X006665Y010250D01*
D12*
X007495Y017260D02*
X007705Y017260D01*
X007810Y017365D01*
X008035Y017260D02*
X008035Y017680D01*
X008245Y017891D01*
X008455Y017680D01*
X008455Y017260D01*
X008679Y017365D02*
X008784Y017260D01*
X008994Y017260D01*
X009099Y017365D01*
X009099Y017470D01*
X008994Y017575D01*
X008889Y017575D01*
X008994Y017575D02*
X009099Y017680D01*
X009099Y017785D01*
X008994Y017891D01*
X008784Y017891D01*
X008679Y017785D01*
X008455Y017575D02*
X008035Y017575D01*
X007810Y017785D02*
X007705Y017891D01*
X007495Y017891D01*
X007390Y017785D01*
X007390Y017365D01*
X007495Y017260D01*
X009324Y017365D02*
X009744Y017785D01*
X009744Y017365D01*
X009639Y017260D01*
X009429Y017260D01*
X009324Y017365D01*
X009324Y017785D01*
X009429Y017891D01*
X009639Y017891D01*
X009744Y017785D01*
X009968Y017575D02*
X010389Y017575D01*
X010613Y017575D02*
X010613Y017365D01*
X010718Y017260D01*
X010928Y017260D01*
X011033Y017365D01*
X011033Y017470D01*
X010928Y017575D01*
X010613Y017575D01*
X010823Y017785D01*
X011033Y017891D01*
X010283Y017891D02*
X010283Y017260D01*
X009968Y017575D02*
X010283Y017891D01*
D13*
X012230Y013680D03*
X012230Y011530D03*
X011855Y007680D03*
X011855Y005530D03*
X016355Y003305D03*
X016355Y001155D03*
D14*
X016467Y001360D02*
X016525Y001360D01*
X016467Y001360D02*
X016233Y001594D01*
X016175Y001594D01*
X016175Y001360D01*
X016467Y001719D02*
X016467Y001777D01*
X016525Y001777D01*
X016525Y001719D01*
X016467Y001719D01*
X016467Y001899D02*
X016525Y001957D01*
X016525Y002074D01*
X016467Y002132D01*
X016350Y002132D01*
X016291Y002074D01*
X016291Y002015D01*
X016350Y001899D01*
X016175Y001899D01*
X016175Y002132D01*
X012035Y006617D02*
X011977Y006617D01*
X011743Y006851D01*
X011685Y006851D01*
X011685Y006617D01*
X011977Y006976D02*
X011977Y007035D01*
X012035Y007035D01*
X012035Y006976D01*
X011977Y006976D01*
X011977Y007156D02*
X012035Y007214D01*
X012035Y007331D01*
X011977Y007389D01*
X011860Y007389D01*
X011801Y007331D01*
X011801Y007273D01*
X011860Y007156D01*
X011685Y007156D01*
X011685Y007389D01*
D15*
X013505Y010055D02*
X013505Y010355D01*
X013505Y010655D01*
X013705Y010655D02*
X013705Y010355D01*
X013705Y010055D01*
X018505Y005405D02*
X018505Y005105D01*
X018505Y004805D01*
X018705Y004805D02*
X018705Y005105D01*
X018705Y005405D01*
X015705Y004780D02*
X015705Y004480D01*
X015705Y004180D01*
X015505Y004180D02*
X015505Y004480D01*
X015505Y004780D01*
X008455Y011555D02*
X008455Y011855D01*
X008455Y012155D01*
X008255Y012155D02*
X008255Y011855D01*
X008255Y011555D01*
X008245Y013669D02*
X008245Y013969D01*
X008245Y014269D01*
X008445Y014269D02*
X008445Y013969D01*
X008445Y013669D01*
X017680Y018505D02*
X017980Y018505D01*
X018280Y018505D01*
X018280Y018705D02*
X017980Y018705D01*
X017680Y018705D01*
D16*
X002325Y001945D02*
X002179Y001945D01*
X002252Y001945D02*
X002252Y002165D01*
X002179Y002092D01*
X002400Y002128D02*
X002400Y001982D01*
X002546Y002128D01*
X002546Y001982D01*
X002510Y001945D01*
X002436Y001945D01*
X002400Y001982D01*
X002400Y002128D02*
X002436Y002165D01*
X002510Y002165D01*
X002546Y002128D01*
X002621Y002165D02*
X002621Y001945D01*
X002621Y002018D02*
X002731Y001945D01*
X002621Y002018D02*
X002731Y002092D01*
X003026Y002165D02*
X003026Y001945D01*
X003172Y001945D01*
X003247Y001945D02*
X003320Y001945D01*
X003283Y001945D02*
X003283Y002092D01*
X003247Y002092D01*
X003283Y002165D02*
X003283Y002202D01*
X003394Y002092D02*
X003504Y002092D01*
X003541Y002055D01*
X003541Y001945D01*
X003394Y001945D02*
X003394Y002092D01*
X003467Y004247D02*
X003504Y004247D01*
X003541Y004283D01*
X003541Y004467D01*
X003431Y004467D01*
X003394Y004430D01*
X003394Y004357D01*
X003431Y004320D01*
X003541Y004320D01*
X003320Y004357D02*
X003320Y004430D01*
X003283Y004467D01*
X003210Y004467D01*
X003173Y004430D01*
X003173Y004357D01*
X003210Y004320D01*
X003283Y004320D01*
X003320Y004357D01*
X003099Y004320D02*
X002952Y004320D01*
X002952Y004540D01*
X002657Y004467D02*
X002547Y004393D01*
X002657Y004320D01*
X002547Y004320D02*
X002547Y004540D01*
X002473Y004503D02*
X002326Y004357D01*
X002363Y004320D01*
X002436Y004320D01*
X002473Y004357D01*
X002473Y004503D01*
X002436Y004540D01*
X002363Y004540D01*
X002326Y004503D01*
X002326Y004357D01*
X002252Y004357D02*
X002215Y004320D01*
X002142Y004320D01*
X002105Y004357D01*
X002252Y004503D01*
X002252Y004357D01*
X002252Y004503D02*
X002215Y004540D01*
X002142Y004540D01*
X002105Y004503D01*
X002105Y004357D01*
X002031Y004320D02*
X001884Y004320D01*
X001957Y004320D02*
X001957Y004540D01*
X001884Y004467D01*
X003865Y010920D02*
X004012Y010920D01*
X003938Y010920D02*
X003938Y011140D01*
X003865Y011067D01*
X004086Y011103D02*
X004086Y010957D01*
X004233Y011103D01*
X004233Y010957D01*
X004196Y010920D01*
X004123Y010920D01*
X004086Y010957D01*
X004086Y011103D02*
X004123Y011140D01*
X004196Y011140D01*
X004233Y011103D01*
X004307Y011103D02*
X004344Y011140D01*
X004417Y011140D01*
X004454Y011103D01*
X004307Y010957D01*
X004344Y010920D01*
X004417Y010920D01*
X004454Y010957D01*
X004454Y011103D01*
X004528Y011140D02*
X004528Y010920D01*
X004528Y010993D02*
X004638Y011067D01*
X004528Y010993D02*
X004638Y010920D01*
X004933Y010920D02*
X004933Y011140D01*
X004933Y010920D02*
X005080Y010920D01*
X005154Y010957D02*
X005191Y010920D01*
X005264Y010920D01*
X005301Y010957D01*
X005301Y011030D01*
X005264Y011067D01*
X005191Y011067D01*
X005154Y011030D01*
X005154Y010957D01*
X005375Y010957D02*
X005412Y010920D01*
X005522Y010920D01*
X005522Y010883D02*
X005522Y011067D01*
X005412Y011067D01*
X005375Y011030D01*
X005375Y010957D01*
X005448Y010847D02*
X005485Y010847D01*
X005522Y010883D01*
X004307Y010957D02*
X004307Y011103D01*
X006381Y012125D02*
X006528Y012125D01*
X006454Y012125D02*
X006454Y012345D01*
X006381Y012272D01*
X006602Y012308D02*
X006602Y012162D01*
X006749Y012308D01*
X006749Y012162D01*
X006712Y012125D01*
X006639Y012125D01*
X006602Y012162D01*
X006602Y012308D02*
X006639Y012345D01*
X006712Y012345D01*
X006749Y012308D01*
X006823Y012308D02*
X006823Y012162D01*
X006970Y012308D01*
X006970Y012162D01*
X006933Y012125D01*
X006860Y012125D01*
X006823Y012162D01*
X006823Y012308D02*
X006860Y012345D01*
X006933Y012345D01*
X006970Y012308D01*
X007081Y012235D02*
X007081Y012162D01*
X007081Y012088D01*
X007044Y012052D01*
X007117Y012125D02*
X007154Y012125D01*
X007191Y012162D01*
X007191Y012235D01*
X007081Y012162D02*
X007117Y012125D01*
X007034Y013516D02*
X007071Y013552D01*
X007071Y013626D01*
X007108Y013589D01*
X007144Y013589D01*
X007181Y013626D01*
X007181Y013699D01*
X007071Y013699D02*
X007071Y013626D01*
X006960Y013589D02*
X006813Y013589D01*
X006887Y013589D02*
X006887Y013809D01*
X006813Y013736D01*
X006739Y013773D02*
X006592Y013626D01*
X006629Y013589D01*
X006702Y013589D01*
X006739Y013626D01*
X006739Y013773D01*
X006702Y013809D01*
X006629Y013809D01*
X006592Y013773D01*
X006592Y013626D01*
X006518Y013626D02*
X006518Y013589D01*
X006482Y013589D01*
X006482Y013626D01*
X006518Y013626D01*
X006408Y013626D02*
X006371Y013589D01*
X006297Y013589D01*
X006261Y013626D01*
X006408Y013773D01*
X006408Y013626D01*
X006408Y013773D02*
X006371Y013809D01*
X006297Y013809D01*
X006261Y013773D01*
X006261Y013626D01*
X009100Y011197D02*
X009173Y011270D01*
X009173Y011050D01*
X009100Y011050D02*
X009247Y011050D01*
X009321Y011050D02*
X009321Y011270D01*
X009431Y011197D02*
X009321Y011123D01*
X009431Y011050D01*
X009371Y010550D02*
X009371Y010330D01*
X009371Y010403D02*
X009481Y010477D01*
X009371Y010403D02*
X009481Y010330D01*
X009297Y010330D02*
X009150Y010330D01*
X009223Y010330D02*
X009223Y010550D01*
X009150Y010477D01*
X012080Y012902D02*
X012300Y012902D01*
X012300Y012829D02*
X012300Y012976D01*
X012263Y013050D02*
X012117Y013197D01*
X012263Y013197D01*
X012300Y013160D01*
X012300Y013087D01*
X012263Y013050D01*
X012117Y013050D01*
X012080Y013087D01*
X012080Y013160D01*
X012117Y013197D01*
X012080Y013271D02*
X012300Y013271D01*
X012227Y013271D02*
X012153Y013381D01*
X012227Y013271D02*
X012300Y013381D01*
X012080Y012902D02*
X012153Y012829D01*
X012700Y011235D02*
X012590Y011125D01*
X012737Y011125D01*
X012811Y011052D02*
X012811Y011015D01*
X012811Y011052D02*
X012958Y011198D01*
X012958Y011235D01*
X012811Y011235D01*
X012700Y011235D02*
X012700Y011015D01*
X013032Y011015D02*
X013179Y011015D01*
X013105Y011015D02*
X013105Y011235D01*
X013032Y011162D01*
X013253Y011162D02*
X013253Y010942D01*
X013253Y011015D02*
X013363Y011015D01*
X013400Y011052D01*
X013400Y011125D01*
X013363Y011162D01*
X013253Y011162D01*
X013474Y011125D02*
X013547Y011125D01*
X013511Y011198D02*
X013547Y011235D01*
X013511Y011198D02*
X013511Y011015D01*
X014150Y012205D02*
X014297Y012205D01*
X014223Y012205D02*
X014223Y012425D01*
X014150Y012352D01*
X014371Y012388D02*
X014408Y012425D01*
X014481Y012425D01*
X014518Y012388D01*
X014371Y012242D01*
X014408Y012205D01*
X014481Y012205D01*
X014518Y012242D01*
X014518Y012388D01*
X014592Y012388D02*
X014629Y012425D01*
X014702Y012425D01*
X014739Y012388D01*
X014592Y012242D01*
X014629Y012205D01*
X014702Y012205D01*
X014739Y012242D01*
X014739Y012388D01*
X014813Y012425D02*
X014813Y012205D01*
X014813Y012278D02*
X014923Y012352D01*
X014813Y012278D02*
X014923Y012205D01*
X014592Y012242D02*
X014592Y012388D01*
X014371Y012388D02*
X014371Y012242D01*
X015705Y012556D02*
X015925Y012556D01*
X015925Y012483D02*
X015925Y012630D01*
X015888Y012704D02*
X015925Y012741D01*
X015925Y012814D01*
X015888Y012851D01*
X015742Y012851D01*
X015888Y012704D01*
X015742Y012704D01*
X015705Y012741D01*
X015705Y012814D01*
X015742Y012851D01*
X015742Y012925D02*
X015705Y012962D01*
X015705Y013035D01*
X015742Y013072D01*
X015888Y012925D01*
X015925Y012962D01*
X015925Y013035D01*
X015888Y013072D01*
X015742Y013072D01*
X015705Y013146D02*
X015925Y013146D01*
X015852Y013146D02*
X015778Y013256D01*
X015852Y013146D02*
X015925Y013256D01*
X015888Y012925D02*
X015742Y012925D01*
X015705Y012556D02*
X015778Y012483D01*
X015631Y014035D02*
X015521Y014108D01*
X015631Y014182D01*
X015521Y014255D02*
X015521Y014035D01*
X015447Y014035D02*
X015300Y014035D01*
X015373Y014035D02*
X015373Y014255D01*
X015300Y014182D01*
X016018Y014865D02*
X015945Y014938D01*
X016165Y014938D01*
X016165Y014865D02*
X016165Y015012D01*
X016128Y015086D02*
X015982Y015233D01*
X016128Y015233D01*
X016165Y015196D01*
X016165Y015123D01*
X016128Y015086D01*
X015982Y015086D01*
X015945Y015123D01*
X015945Y015196D01*
X015982Y015233D01*
X015982Y015307D02*
X015945Y015344D01*
X015945Y015417D01*
X015982Y015454D01*
X016128Y015307D01*
X016165Y015344D01*
X016165Y015417D01*
X016128Y015454D01*
X015982Y015454D01*
X015945Y015528D02*
X016165Y015528D01*
X016092Y015528D02*
X016018Y015638D01*
X016092Y015528D02*
X016165Y015638D01*
X015945Y015933D02*
X015945Y016080D01*
X015945Y016007D02*
X016165Y016007D01*
X016165Y016154D02*
X016018Y016154D01*
X016018Y016227D02*
X016092Y016154D01*
X016018Y016227D02*
X016018Y016264D01*
X016018Y016338D02*
X016018Y016375D01*
X016165Y016375D01*
X016165Y016338D02*
X016165Y016412D01*
X016165Y016486D02*
X016018Y016486D01*
X016018Y016522D01*
X016055Y016559D01*
X016018Y016596D01*
X016055Y016632D01*
X016165Y016632D01*
X016165Y016559D02*
X016055Y016559D01*
X015945Y016375D02*
X015908Y016375D01*
X014952Y016955D02*
X014842Y017028D01*
X014952Y017102D01*
X014842Y017175D02*
X014842Y016955D01*
X014768Y016992D02*
X014731Y016955D01*
X014658Y016955D01*
X014621Y016992D01*
X014768Y017138D01*
X014768Y016992D01*
X014768Y017138D02*
X014731Y017175D01*
X014658Y017175D01*
X014621Y017138D01*
X014621Y016992D01*
X014547Y016955D02*
X014400Y016955D01*
X014473Y016955D02*
X014473Y017175D01*
X014400Y017102D01*
X014400Y017955D02*
X014547Y017955D01*
X014473Y017955D02*
X014473Y018175D01*
X014400Y018102D01*
X014621Y018138D02*
X014621Y017992D01*
X014768Y018138D01*
X014768Y017992D01*
X014731Y017955D01*
X014658Y017955D01*
X014621Y017992D01*
X014621Y018138D02*
X014658Y018175D01*
X014731Y018175D01*
X014768Y018138D01*
X014842Y018175D02*
X014842Y017955D01*
X014842Y018028D02*
X014952Y018102D01*
X014842Y018028D02*
X014952Y017955D01*
X015285Y017967D02*
X015505Y017967D01*
X015432Y017967D02*
X015358Y018077D01*
X015432Y017967D02*
X015505Y018077D01*
X015468Y017893D02*
X015505Y017856D01*
X015505Y017783D01*
X015468Y017746D01*
X015322Y017893D01*
X015468Y017893D01*
X015322Y017893D02*
X015285Y017856D01*
X015285Y017783D01*
X015322Y017746D01*
X015468Y017746D01*
X015505Y017672D02*
X015505Y017525D01*
X015505Y017598D02*
X015285Y017598D01*
X015358Y017525D01*
X015982Y015307D02*
X016128Y015307D01*
X018830Y013521D02*
X019050Y013521D01*
X018977Y013521D02*
X018903Y013631D01*
X018977Y013521D02*
X019050Y013631D01*
X019013Y013447D02*
X018867Y013447D01*
X019013Y013300D01*
X019050Y013337D01*
X019050Y013410D01*
X019013Y013447D01*
X018867Y013447D02*
X018830Y013410D01*
X018830Y013337D01*
X018867Y013300D01*
X019013Y013300D01*
X019050Y013226D02*
X019050Y013079D01*
X019050Y013152D02*
X018830Y013152D01*
X018903Y013079D01*
X018858Y012731D02*
X018932Y012621D01*
X019005Y012731D01*
X019005Y012621D02*
X018785Y012621D01*
X018785Y012473D02*
X019005Y012473D01*
X019005Y012400D02*
X019005Y012547D01*
X018858Y012400D02*
X018785Y012473D01*
X018548Y012352D02*
X018438Y012278D01*
X018548Y012205D01*
X018438Y012205D02*
X018438Y012425D01*
X018364Y012388D02*
X018327Y012425D01*
X018254Y012425D01*
X018217Y012388D01*
X018217Y012242D01*
X018364Y012388D01*
X018364Y012242D01*
X018327Y012205D01*
X018254Y012205D01*
X018217Y012242D01*
X018143Y012242D02*
X018106Y012205D01*
X018033Y012205D01*
X017996Y012242D01*
X018143Y012388D01*
X018143Y012242D01*
X018143Y012388D02*
X018106Y012425D01*
X018033Y012425D01*
X017996Y012388D01*
X017996Y012242D01*
X017922Y012205D02*
X017775Y012205D01*
X017848Y012205D02*
X017848Y012425D01*
X017775Y012352D01*
X017731Y010675D02*
X017658Y010675D01*
X017621Y010638D01*
X017621Y010492D01*
X017768Y010638D01*
X017768Y010492D01*
X017731Y010455D01*
X017658Y010455D01*
X017621Y010492D01*
X017547Y010455D02*
X017400Y010455D01*
X017473Y010455D02*
X017473Y010675D01*
X017400Y010602D01*
X017731Y010675D02*
X017768Y010638D01*
X017842Y010638D02*
X017879Y010675D01*
X017952Y010675D01*
X017989Y010638D01*
X017842Y010492D01*
X017879Y010455D01*
X017952Y010455D01*
X017989Y010492D01*
X017989Y010638D01*
X018063Y010675D02*
X018063Y010455D01*
X018063Y010528D02*
X018173Y010602D01*
X018063Y010528D02*
X018173Y010455D01*
X017842Y010492D02*
X017842Y010638D01*
X017672Y005485D02*
X017636Y005448D01*
X017636Y005265D01*
X017672Y005375D02*
X017599Y005375D01*
X017525Y005375D02*
X017525Y005302D01*
X017488Y005265D01*
X017378Y005265D01*
X017378Y005192D02*
X017378Y005412D01*
X017488Y005412D01*
X017525Y005375D01*
X017304Y005265D02*
X017157Y005265D01*
X017230Y005265D02*
X017230Y005485D01*
X017157Y005412D01*
X017083Y005448D02*
X016936Y005302D01*
X016936Y005265D01*
X016825Y005265D02*
X016825Y005485D01*
X016715Y005375D01*
X016862Y005375D01*
X016936Y005485D02*
X017083Y005485D01*
X017083Y005448D01*
X015441Y005210D02*
X015441Y005137D01*
X015404Y005100D01*
X015367Y005100D01*
X015331Y005137D01*
X015331Y005063D01*
X015294Y005027D01*
X015220Y005100D02*
X015073Y005100D01*
X015146Y005100D02*
X015146Y005320D01*
X015073Y005247D01*
X014999Y005283D02*
X014852Y005137D01*
X014889Y005100D01*
X014962Y005100D01*
X014999Y005137D01*
X014999Y005283D01*
X014962Y005320D01*
X014889Y005320D01*
X014852Y005283D01*
X014852Y005137D01*
X014778Y005137D02*
X014778Y005100D01*
X014742Y005100D01*
X014742Y005137D01*
X014778Y005137D01*
X014667Y005137D02*
X014667Y005283D01*
X014521Y005137D01*
X014557Y005100D01*
X014631Y005100D01*
X014667Y005137D01*
X014521Y005137D02*
X014521Y005283D01*
X014557Y005320D01*
X014631Y005320D01*
X014667Y005283D01*
X015331Y005210D02*
X015331Y005137D01*
X017188Y002515D02*
X017188Y002295D01*
X017115Y002295D02*
X017262Y002295D01*
X017336Y002332D02*
X017483Y002478D01*
X017483Y002332D01*
X017446Y002295D01*
X017373Y002295D01*
X017336Y002332D01*
X017336Y002478D01*
X017373Y002515D01*
X017446Y002515D01*
X017483Y002478D01*
X017557Y002515D02*
X017557Y002295D01*
X017557Y002368D02*
X017667Y002442D01*
X017557Y002368D02*
X017667Y002295D01*
X017962Y002515D02*
X018109Y002515D01*
X018036Y002515D02*
X018036Y002295D01*
X018183Y002295D02*
X018183Y002442D01*
X018257Y002442D02*
X018293Y002442D01*
X018257Y002442D02*
X018183Y002368D01*
X018367Y002295D02*
X018441Y002295D01*
X018404Y002295D02*
X018404Y002442D01*
X018367Y002442D01*
X018404Y002515D02*
X018404Y002552D01*
X018515Y002442D02*
X018515Y002295D01*
X018588Y002295D02*
X018588Y002405D01*
X018625Y002442D01*
X018661Y002405D01*
X018661Y002295D01*
X018588Y002405D02*
X018551Y002442D01*
X018515Y002442D01*
X017188Y002515D02*
X017115Y002442D01*
X010202Y015330D02*
X010092Y015403D01*
X010202Y015477D01*
X010092Y015550D02*
X010092Y015330D01*
X010018Y015367D02*
X009981Y015330D01*
X009908Y015330D01*
X009871Y015367D01*
X010018Y015513D01*
X010018Y015367D01*
X010018Y015513D02*
X009981Y015550D01*
X009908Y015550D01*
X009871Y015513D01*
X009871Y015367D01*
X009797Y015330D02*
X009650Y015330D01*
X009723Y015330D02*
X009723Y015550D01*
X009650Y015477D01*
D17*
X010805Y014980D02*
X010905Y014980D01*
X014305Y012730D02*
X014405Y012730D01*
X016230Y012930D02*
X016230Y013030D01*
X018055Y011605D02*
X018155Y011605D01*
X017655Y010980D02*
X017555Y010980D01*
X019105Y011555D02*
X019105Y011655D01*
X018355Y013680D02*
X018355Y013780D01*
X014905Y016605D02*
X014805Y016605D01*
X014805Y017605D02*
X014905Y017605D01*
X016105Y017555D02*
X016105Y017655D01*
X010405Y010855D02*
X010305Y010855D01*
X010305Y010105D02*
X010405Y010105D01*
X005855Y010555D02*
X005855Y010655D01*
X010855Y005030D02*
X010855Y004930D01*
X013105Y004930D02*
X013105Y005030D01*
X017355Y003405D02*
X017355Y003305D01*
X019355Y003430D02*
X019355Y003530D01*
X005280Y004480D02*
X005180Y004480D01*
D18*
X015030Y014230D03*
X017180Y014230D03*
D19*
X017932Y003684D02*
X018028Y003539D01*
X018125Y003684D01*
X018125Y003539D02*
X017835Y003539D01*
X017883Y003438D02*
X018077Y003244D01*
X018125Y003293D01*
X018125Y003389D01*
X018077Y003438D01*
X017883Y003438D01*
X017835Y003389D01*
X017835Y003293D01*
X017883Y003244D01*
X018077Y003244D01*
X018077Y003143D02*
X017883Y003143D01*
X018077Y002950D01*
X018125Y002998D01*
X018125Y003095D01*
X018077Y003143D01*
X018077Y002950D02*
X017883Y002950D01*
X017835Y002998D01*
X017835Y003095D01*
X017883Y003143D01*
X018125Y002848D02*
X018125Y002655D01*
X018125Y002752D02*
X017835Y002752D01*
X017932Y002655D01*
X018585Y002627D02*
X018682Y002530D01*
X018585Y002627D02*
X018875Y002627D01*
X018875Y002723D02*
X018875Y002530D01*
X018827Y002825D02*
X018633Y002825D01*
X018585Y002873D01*
X018585Y002970D01*
X018633Y003018D01*
X018827Y002825D01*
X018875Y002873D01*
X018875Y002970D01*
X018827Y003018D01*
X018633Y003018D01*
X018633Y003119D02*
X018585Y003168D01*
X018585Y003264D01*
X018633Y003313D01*
X018827Y003119D01*
X018875Y003168D01*
X018875Y003264D01*
X018827Y003313D01*
X018633Y003313D01*
X018585Y003414D02*
X018875Y003414D01*
X018778Y003414D02*
X018682Y003559D01*
X018778Y003414D02*
X018875Y003559D01*
X018827Y003119D02*
X018633Y003119D01*
D20*
X011860Y000370D03*
M02*
