G75*
%MOIN*%
%OFA0B0*%
%FSLAX24Y24*%
%IPPOS*%
%LPD*%
%AMOC8*
5,1,8,0,0,1.08239X$1,22.5*
%
%ADD10C,0.0050*%
D10*
X001305Y006680D02*
X001230Y006805D01*
X001355Y006805D01*
X001430Y006680D01*
X001555Y006680D02*
X001480Y006805D01*
X001355Y006805D01*
X001355Y007130D01*
X001705Y007130D01*
X001705Y007830D01*
X001005Y007830D01*
X001005Y007130D01*
X001355Y007130D01*
X000855Y006980D02*
X003855Y006980D01*
X003855Y007980D01*
X000855Y007980D01*
X000855Y006980D01*
X001305Y008180D02*
X001230Y008305D01*
X001355Y008305D01*
X001430Y008180D01*
X001555Y008180D02*
X001480Y008305D01*
X001355Y008305D01*
X001355Y008630D01*
X001705Y008630D01*
X001705Y009330D01*
X001005Y009330D01*
X001005Y008630D01*
X001355Y008630D01*
X000855Y008480D02*
X003855Y008480D01*
X003855Y009480D01*
X000855Y009480D01*
X000855Y008480D01*
X002615Y008980D02*
X002855Y008980D01*
X002765Y009050D01*
X002765Y009120D01*
X002905Y008980D01*
X002855Y008980D01*
X002765Y008900D01*
X002765Y009050D01*
X002765Y008900D02*
X002765Y008840D01*
X002905Y008980D01*
X002943Y008980D02*
X002945Y009020D01*
X002951Y009060D01*
X002961Y009100D01*
X002974Y009138D01*
X002992Y009174D01*
X003012Y009209D01*
X003037Y009241D01*
X003064Y009271D01*
X003094Y009298D01*
X003126Y009323D01*
X003161Y009343D01*
X003197Y009361D01*
X003235Y009374D01*
X003275Y009384D01*
X003315Y009390D01*
X003355Y009392D01*
X003395Y009390D01*
X003435Y009384D01*
X003475Y009374D01*
X003513Y009361D01*
X003549Y009343D01*
X003584Y009323D01*
X003616Y009298D01*
X003646Y009271D01*
X003673Y009241D01*
X003698Y009209D01*
X003718Y009174D01*
X003736Y009138D01*
X003749Y009100D01*
X003759Y009060D01*
X003765Y009020D01*
X003767Y008980D01*
X003765Y008940D01*
X003759Y008900D01*
X003749Y008860D01*
X003736Y008822D01*
X003718Y008786D01*
X003698Y008751D01*
X003673Y008719D01*
X003646Y008689D01*
X003616Y008662D01*
X003584Y008637D01*
X003549Y008617D01*
X003513Y008599D01*
X003475Y008586D01*
X003435Y008576D01*
X003395Y008570D01*
X003355Y008568D01*
X003315Y008570D01*
X003275Y008576D01*
X003235Y008586D01*
X003197Y008599D01*
X003161Y008617D01*
X003126Y008637D01*
X003094Y008662D01*
X003064Y008689D01*
X003037Y008719D01*
X003012Y008751D01*
X002992Y008786D01*
X002974Y008822D01*
X002961Y008860D01*
X002951Y008900D01*
X002945Y008940D01*
X002943Y008980D01*
X002765Y007620D02*
X002905Y007480D01*
X002855Y007480D01*
X002765Y007550D01*
X002765Y007620D01*
X002765Y007550D02*
X002765Y007400D01*
X002855Y007480D01*
X002615Y007480D01*
X002765Y007400D02*
X002765Y007340D01*
X002905Y007480D01*
X002943Y007480D02*
X002945Y007520D01*
X002951Y007560D01*
X002961Y007600D01*
X002974Y007638D01*
X002992Y007674D01*
X003012Y007709D01*
X003037Y007741D01*
X003064Y007771D01*
X003094Y007798D01*
X003126Y007823D01*
X003161Y007843D01*
X003197Y007861D01*
X003235Y007874D01*
X003275Y007884D01*
X003315Y007890D01*
X003355Y007892D01*
X003395Y007890D01*
X003435Y007884D01*
X003475Y007874D01*
X003513Y007861D01*
X003549Y007843D01*
X003584Y007823D01*
X003616Y007798D01*
X003646Y007771D01*
X003673Y007741D01*
X003698Y007709D01*
X003718Y007674D01*
X003736Y007638D01*
X003749Y007600D01*
X003759Y007560D01*
X003765Y007520D01*
X003767Y007480D01*
X003765Y007440D01*
X003759Y007400D01*
X003749Y007360D01*
X003736Y007322D01*
X003718Y007286D01*
X003698Y007251D01*
X003673Y007219D01*
X003646Y007189D01*
X003616Y007162D01*
X003584Y007137D01*
X003549Y007117D01*
X003513Y007099D01*
X003475Y007086D01*
X003435Y007076D01*
X003395Y007070D01*
X003355Y007068D01*
X003315Y007070D01*
X003275Y007076D01*
X003235Y007086D01*
X003197Y007099D01*
X003161Y007117D01*
X003126Y007137D01*
X003094Y007162D01*
X003064Y007189D01*
X003037Y007219D01*
X003012Y007251D01*
X002992Y007286D01*
X002974Y007322D01*
X002961Y007360D01*
X002951Y007400D01*
X002945Y007440D01*
X002943Y007480D01*
X001555Y011680D02*
X001480Y011805D01*
X001355Y011805D01*
X001430Y011680D01*
X001305Y011680D02*
X001230Y011805D01*
X001355Y011805D01*
X001355Y012130D01*
X001705Y012130D01*
X001705Y012830D01*
X001005Y012830D01*
X001005Y012130D01*
X001355Y012130D01*
X000855Y011980D02*
X003855Y011980D01*
X003855Y012980D01*
X000855Y012980D01*
X000855Y011980D01*
X002615Y012480D02*
X002855Y012480D01*
X002765Y012550D01*
X002765Y012620D01*
X002905Y012480D01*
X002855Y012480D01*
X002765Y012400D01*
X002765Y012550D01*
X002765Y012400D02*
X002765Y012340D01*
X002905Y012480D01*
X002943Y012480D02*
X002945Y012520D01*
X002951Y012560D01*
X002961Y012600D01*
X002974Y012638D01*
X002992Y012674D01*
X003012Y012709D01*
X003037Y012741D01*
X003064Y012771D01*
X003094Y012798D01*
X003126Y012823D01*
X003161Y012843D01*
X003197Y012861D01*
X003235Y012874D01*
X003275Y012884D01*
X003315Y012890D01*
X003355Y012892D01*
X003395Y012890D01*
X003435Y012884D01*
X003475Y012874D01*
X003513Y012861D01*
X003549Y012843D01*
X003584Y012823D01*
X003616Y012798D01*
X003646Y012771D01*
X003673Y012741D01*
X003698Y012709D01*
X003718Y012674D01*
X003736Y012638D01*
X003749Y012600D01*
X003759Y012560D01*
X003765Y012520D01*
X003767Y012480D01*
X003765Y012440D01*
X003759Y012400D01*
X003749Y012360D01*
X003736Y012322D01*
X003718Y012286D01*
X003698Y012251D01*
X003673Y012219D01*
X003646Y012189D01*
X003616Y012162D01*
X003584Y012137D01*
X003549Y012117D01*
X003513Y012099D01*
X003475Y012086D01*
X003435Y012076D01*
X003395Y012070D01*
X003355Y012068D01*
X003315Y012070D01*
X003275Y012076D01*
X003235Y012086D01*
X003197Y012099D01*
X003161Y012117D01*
X003126Y012137D01*
X003094Y012162D01*
X003064Y012189D01*
X003037Y012219D01*
X003012Y012251D01*
X002992Y012286D01*
X002974Y012322D01*
X002961Y012360D01*
X002951Y012400D01*
X002945Y012440D01*
X002943Y012480D01*
M02*
