G75*
%MOIN*%
%OFA0B0*%
%FSLAX24Y24*%
%IPPOS*%
%LPD*%
%AMOC8*
5,1,8,0,0,1.08239X$1,22.5*
%
%ADD10C,0.0000*%
%ADD11C,0.0520*%
%ADD12OC8,0.0520*%
%ADD13OC8,0.0630*%
%ADD14R,0.0515X0.0515*%
%ADD15C,0.0515*%
%ADD16C,0.0160*%
%ADD17C,0.0080*%
%ADD18C,0.0240*%
%ADD19C,0.0320*%
D10*
X000140Y000140D02*
X000140Y019825D01*
X019825Y019825D01*
X019825Y000140D01*
X000140Y000140D01*
D11*
X001390Y003130D02*
X001390Y003650D01*
X002390Y003650D02*
X002390Y003130D01*
X003390Y003130D02*
X003390Y003650D01*
X003390Y005505D02*
X003390Y006025D01*
X002390Y006025D02*
X002390Y005505D01*
X001390Y005505D02*
X001390Y006025D01*
X004890Y006005D02*
X004890Y006525D01*
X005890Y006525D02*
X005890Y006005D01*
X006890Y006005D02*
X006890Y006525D01*
X007890Y006525D02*
X007890Y006005D01*
X008890Y006005D02*
X008890Y006525D01*
X009890Y006525D02*
X009890Y006005D01*
X010890Y006005D02*
X010890Y006525D01*
X013140Y006525D02*
X013140Y006005D01*
X014140Y006005D02*
X014140Y006525D01*
X015140Y006525D02*
X015140Y006005D01*
X016140Y006005D02*
X016140Y006525D01*
X017140Y006525D02*
X017140Y006005D01*
X018140Y006005D02*
X018140Y006525D01*
X019140Y006525D02*
X019140Y006005D01*
X019140Y009005D02*
X019140Y009525D01*
X018140Y009525D02*
X018140Y009005D01*
X017140Y009005D02*
X017140Y009525D01*
X016140Y009525D02*
X016140Y009005D01*
X015140Y009005D02*
X015140Y009525D01*
X014140Y009525D02*
X014140Y009005D01*
X013140Y009005D02*
X013140Y009525D01*
X010890Y009525D02*
X010890Y009005D01*
X009890Y009005D02*
X009890Y009525D01*
X008890Y009525D02*
X008890Y009005D01*
X007890Y009005D02*
X007890Y009525D01*
X006890Y009525D02*
X006890Y009005D01*
X005890Y009005D02*
X005890Y009525D01*
X004890Y009525D02*
X004890Y009005D01*
X003390Y010505D02*
X003390Y011025D01*
X002390Y011025D02*
X002390Y010505D01*
X001390Y010505D02*
X001390Y011025D01*
X007390Y015880D02*
X007390Y016400D01*
X008390Y016400D02*
X008390Y015880D01*
X009390Y015880D02*
X009390Y016400D01*
X010390Y016400D02*
X010390Y015880D01*
X011390Y015880D02*
X011390Y016400D01*
X012390Y016400D02*
X012390Y015880D01*
X013390Y015880D02*
X013390Y016400D01*
X013390Y018880D02*
X013390Y019400D01*
X012390Y019400D02*
X012390Y018880D01*
X011390Y018880D02*
X011390Y019400D01*
X010390Y019400D02*
X010390Y018880D01*
X009390Y018880D02*
X009390Y019400D01*
X008390Y019400D02*
X008390Y018880D01*
X007390Y018880D02*
X007390Y019400D01*
X017130Y017140D02*
X017650Y017140D01*
X017650Y016140D02*
X017130Y016140D01*
X017130Y015140D02*
X017650Y015140D01*
X017390Y001400D02*
X017390Y000880D01*
X018390Y000880D02*
X018390Y001400D01*
X019390Y001400D02*
X019390Y000880D01*
D12*
X017390Y002890D03*
X017390Y003890D03*
X016390Y003765D03*
X016390Y000765D03*
X019390Y003015D03*
X019390Y004015D03*
X013140Y004515D03*
X013140Y005515D03*
X011890Y005140D03*
X010890Y005515D03*
X010890Y004515D03*
X011890Y008140D03*
X010890Y010140D03*
X010890Y010890D03*
X009890Y010890D03*
X009890Y010140D03*
X008890Y011890D03*
X007890Y011890D03*
X005890Y011140D03*
X005890Y010140D03*
X010390Y015015D03*
X011390Y015015D03*
X012265Y014140D03*
X013890Y012765D03*
X014890Y012765D03*
X016265Y012515D03*
X016265Y013515D03*
X017640Y014265D03*
X018390Y014265D03*
X018390Y013265D03*
X019140Y012140D03*
X018640Y011640D03*
X019140Y011140D03*
X018140Y011015D03*
X017640Y011640D03*
X017140Y011015D03*
X014640Y014265D03*
X014390Y016640D03*
X014390Y017640D03*
X015390Y017640D03*
X016140Y018140D03*
X016140Y017140D03*
X015390Y016640D03*
X018015Y018140D03*
X018015Y019140D03*
X012265Y011140D03*
X005765Y004515D03*
X004765Y004515D03*
D13*
X013140Y010390D03*
X014140Y010390D03*
X008880Y014004D03*
X007880Y014004D03*
X015140Y004515D03*
X016140Y004515D03*
X018140Y005140D03*
X019140Y005140D03*
D14*
X003390Y007515D03*
X002390Y007515D03*
X001390Y007515D03*
X001390Y009015D03*
X002390Y009015D03*
X003390Y009015D03*
X003390Y012515D03*
X002390Y012515D03*
X001390Y012515D03*
D15*
X009890Y002390D03*
X009890Y001390D03*
X010890Y001390D03*
X010890Y002390D03*
X011890Y002390D03*
X011890Y001390D03*
X012890Y001390D03*
X012890Y002390D03*
X013890Y002390D03*
X013890Y001390D03*
D16*
X017390Y003890D02*
X017390Y004390D01*
X016390Y005390D01*
X013265Y005390D01*
X013140Y005515D01*
X015640Y007390D02*
X019265Y007390D01*
X019640Y007765D01*
X019640Y017640D01*
X019140Y018140D01*
X018015Y018140D01*
X016140Y018140D01*
X015390Y017640D01*
X015390Y016640D01*
X015765Y015890D02*
X014890Y015890D01*
X014390Y016390D01*
X014390Y016640D01*
X014390Y017640D02*
X012015Y017640D01*
X011390Y017015D01*
X011390Y016140D01*
X010390Y016140D02*
X010390Y015015D01*
X010140Y014140D02*
X012265Y014140D01*
X012765Y013390D02*
X004265Y013390D01*
X003390Y012515D01*
X002390Y012515D01*
X002890Y011765D02*
X006390Y011765D01*
X006890Y011265D01*
X006890Y009265D01*
X005890Y011140D02*
X009640Y011140D01*
X009890Y010890D01*
X010890Y010140D02*
X011390Y010140D01*
X011640Y010390D01*
X012265Y011140D01*
X013140Y010640D02*
X013140Y010390D01*
X013140Y010640D02*
X014140Y011640D01*
X016140Y011640D01*
X017640Y013140D01*
X017640Y014265D01*
X017390Y015140D02*
X017390Y016140D01*
X018640Y016140D01*
X019140Y015640D01*
X019140Y013265D01*
X019140Y012140D01*
X019140Y013265D02*
X018390Y013265D01*
X018265Y013265D01*
X016265Y011265D01*
X014515Y011265D01*
X014140Y010890D01*
X014140Y010390D01*
X015890Y012515D02*
X016265Y012515D01*
X015890Y012515D02*
X015640Y012765D01*
X014890Y012765D01*
X016265Y013515D02*
X016265Y015390D01*
X015765Y015890D01*
X016140Y017140D02*
X017390Y017140D01*
X018015Y019140D02*
X014640Y019140D01*
X013640Y018140D01*
X010765Y018140D01*
X009390Y016765D01*
X009390Y016140D01*
X009015Y015265D02*
X010140Y014140D01*
X009015Y015265D02*
X008390Y015265D01*
X008390Y016140D01*
X012765Y013390D02*
X013640Y014265D01*
X014640Y014265D01*
X010890Y010140D02*
X010890Y009265D01*
X002890Y011765D02*
X002390Y011265D01*
X002390Y010765D01*
D17*
X001807Y010345D02*
X001757Y010345D01*
X001744Y010316D02*
X001775Y010388D01*
X001790Y010466D01*
X001790Y010725D01*
X001430Y010725D01*
X001430Y010805D01*
X001350Y010805D01*
X001350Y011425D01*
X001273Y011410D01*
X001201Y011379D01*
X001135Y011336D01*
X001079Y011280D01*
X001036Y011214D01*
X001005Y011142D01*
X000990Y011064D01*
X000990Y010805D01*
X001350Y010805D01*
X001350Y010725D01*
X000990Y010725D01*
X000990Y010466D01*
X001005Y010388D01*
X001036Y010316D01*
X001079Y010250D01*
X001135Y010194D01*
X001201Y010151D01*
X001273Y010120D01*
X001350Y010105D01*
X001350Y010725D01*
X001430Y010725D01*
X001430Y010105D01*
X001507Y010120D01*
X001579Y010151D01*
X001645Y010194D01*
X001701Y010250D01*
X001744Y010316D01*
X001712Y010267D02*
X001839Y010267D01*
X001872Y010188D02*
X001636Y010188D01*
X001452Y010110D02*
X001937Y010110D01*
X001881Y010165D02*
X002050Y009996D01*
X002271Y009905D01*
X002509Y009905D01*
X002730Y009996D01*
X002890Y010156D01*
X003050Y009996D01*
X003271Y009905D01*
X003509Y009905D01*
X003730Y009996D01*
X003899Y010165D01*
X003990Y010386D01*
X003990Y011144D01*
X003907Y011345D01*
X005290Y011345D01*
X005290Y010891D01*
X005541Y010640D01*
X005290Y010389D01*
X005290Y009974D01*
X005230Y010034D01*
X005009Y010125D01*
X004771Y010125D01*
X004550Y010034D01*
X004381Y009865D01*
X004290Y009644D01*
X004290Y008886D01*
X004381Y008665D01*
X004550Y008496D01*
X004771Y008405D01*
X005009Y008405D01*
X005230Y008496D01*
X005390Y008656D01*
X005550Y008496D01*
X005771Y008405D01*
X006009Y008405D01*
X006230Y008496D01*
X006390Y008656D01*
X006550Y008496D01*
X006771Y008405D01*
X007009Y008405D01*
X007230Y008496D01*
X007390Y008656D01*
X007430Y008616D01*
X007430Y008548D01*
X007500Y008379D01*
X008000Y007879D01*
X008114Y007765D01*
X008000Y007651D01*
X007500Y007151D01*
X007430Y006981D01*
X007430Y006914D01*
X007390Y006874D01*
X007230Y007034D01*
X007009Y007125D01*
X006771Y007125D01*
X006550Y007034D01*
X006390Y006874D01*
X006230Y007034D01*
X006009Y007125D01*
X005771Y007125D01*
X005550Y007034D01*
X005390Y006874D01*
X005230Y007034D01*
X005009Y007125D01*
X004771Y007125D01*
X004550Y007034D01*
X004381Y006865D01*
X004290Y006644D01*
X004290Y005886D01*
X004381Y005665D01*
X004550Y005496D01*
X004771Y005405D01*
X005009Y005405D01*
X005230Y005496D01*
X005390Y005656D01*
X005550Y005496D01*
X005771Y005405D01*
X006009Y005405D01*
X006230Y005496D01*
X006390Y005656D01*
X006550Y005496D01*
X006771Y005405D01*
X007009Y005405D01*
X007230Y005496D01*
X007390Y005656D01*
X007550Y005496D01*
X007771Y005405D01*
X008009Y005405D01*
X008230Y005496D01*
X008390Y005656D01*
X008550Y005496D01*
X008771Y005405D01*
X009009Y005405D01*
X009230Y005496D01*
X009390Y005656D01*
X009550Y005496D01*
X009771Y005405D01*
X010009Y005405D01*
X010230Y005496D01*
X010290Y005556D01*
X010290Y005266D01*
X010541Y005015D01*
X010290Y004764D01*
X010290Y004266D01*
X010641Y003915D01*
X011139Y003915D01*
X011390Y004166D01*
X011390Y003972D01*
X011308Y003890D01*
X010291Y003890D01*
X010107Y003814D01*
X009966Y003673D01*
X009466Y003173D01*
X009390Y002989D01*
X009390Y002735D01*
X009383Y002728D01*
X009293Y002509D01*
X009293Y002271D01*
X009383Y002052D01*
X009390Y002045D01*
X009390Y001735D01*
X009383Y001728D01*
X009293Y001509D01*
X009293Y001271D01*
X009383Y001052D01*
X009552Y000883D01*
X009771Y000793D01*
X010009Y000793D01*
X010228Y000883D01*
X010397Y001052D01*
X010487Y001271D01*
X010487Y001509D01*
X010397Y001728D01*
X010390Y001735D01*
X010390Y002045D01*
X010397Y002052D01*
X010487Y002271D01*
X010487Y002509D01*
X010408Y002701D01*
X010597Y002890D01*
X011614Y002890D01*
X011798Y002966D01*
X013719Y002966D01*
X013771Y002987D02*
X013552Y002897D01*
X013383Y002728D01*
X013293Y002509D01*
X013293Y002271D01*
X013383Y002052D01*
X013390Y002045D01*
X013390Y001735D01*
X013383Y001728D01*
X013293Y001509D01*
X013293Y001271D01*
X013383Y001052D01*
X013552Y000883D01*
X013771Y000793D01*
X014009Y000793D01*
X014228Y000883D01*
X014235Y000890D01*
X014683Y000890D01*
X014993Y000580D01*
X000580Y000580D01*
X000580Y019385D01*
X006790Y019385D01*
X006790Y018761D01*
X006881Y018540D01*
X007050Y018371D01*
X007271Y018280D01*
X007509Y018280D01*
X007730Y018371D01*
X007890Y018531D01*
X008050Y018371D01*
X008271Y018280D01*
X008509Y018280D01*
X008730Y018371D01*
X008890Y018531D01*
X009050Y018371D01*
X009271Y018280D01*
X009509Y018280D01*
X009730Y018371D01*
X009890Y018531D01*
X010050Y018371D01*
X010271Y018280D01*
X010509Y018280D01*
X010730Y018371D01*
X010890Y018531D01*
X011050Y018371D01*
X011271Y018280D01*
X011509Y018280D01*
X011730Y018371D01*
X011890Y018531D01*
X012050Y018371D01*
X012271Y018280D01*
X012509Y018280D01*
X012730Y018371D01*
X012890Y018531D01*
X013050Y018371D01*
X013271Y018280D01*
X013509Y018280D01*
X013730Y018371D01*
X013899Y018540D01*
X013990Y018761D01*
X013990Y019385D01*
X017694Y019385D01*
X017615Y019306D01*
X017615Y019180D01*
X017975Y019180D01*
X017975Y019100D01*
X018055Y019100D01*
X018055Y019180D01*
X018415Y019180D01*
X018415Y019306D01*
X018336Y019385D01*
X019385Y019385D01*
X019385Y018489D01*
X019378Y018496D01*
X019224Y018560D01*
X018444Y018560D01*
X018264Y018740D01*
X017766Y018740D01*
X017586Y018560D01*
X016569Y018560D01*
X016389Y018740D01*
X015891Y018740D01*
X015540Y018389D01*
X015540Y018245D01*
X015533Y018240D01*
X015141Y018240D01*
X014890Y017989D01*
X014639Y018240D01*
X014141Y018240D01*
X013961Y018060D01*
X011931Y018060D01*
X011777Y017996D01*
X011659Y017878D01*
X011034Y017253D01*
X000580Y017253D01*
X000580Y017175D02*
X011001Y017175D01*
X010970Y017099D02*
X010970Y016829D01*
X010890Y016749D01*
X010730Y016909D01*
X010509Y017000D01*
X010271Y017000D01*
X010050Y016909D01*
X009881Y016740D01*
X009790Y016519D01*
X009790Y015761D01*
X009881Y015540D01*
X009970Y015451D01*
X009970Y015444D01*
X009790Y015264D01*
X009790Y015084D01*
X009350Y015524D01*
X009350Y016100D01*
X008990Y016100D01*
X008990Y015841D01*
X009005Y015763D01*
X009036Y015691D01*
X009039Y015685D01*
X008959Y015685D01*
X008990Y015761D01*
X008990Y016519D01*
X008899Y016740D01*
X008730Y016909D01*
X008509Y017000D01*
X008271Y017000D01*
X008050Y016909D01*
X007890Y016749D01*
X007730Y016909D01*
X007509Y017000D01*
X007271Y017000D01*
X007050Y016909D01*
X006881Y016740D01*
X006790Y016519D01*
X006790Y015761D01*
X006881Y015540D01*
X007050Y015371D01*
X007271Y015280D01*
X007509Y015280D01*
X007730Y015371D01*
X007890Y015531D01*
X007970Y015451D01*
X007970Y015181D01*
X008034Y015027D01*
X008152Y014909D01*
X008306Y014845D01*
X008841Y014845D01*
X009784Y013902D01*
X009876Y013810D01*
X009329Y013810D01*
X009335Y013816D01*
X009335Y013964D01*
X008920Y013964D01*
X008920Y014044D01*
X009335Y014044D01*
X009335Y014193D01*
X009069Y014459D01*
X008920Y014459D01*
X008920Y014044D01*
X008840Y014044D01*
X008840Y014459D01*
X008692Y014459D01*
X008522Y014289D01*
X008151Y014659D01*
X007609Y014659D01*
X007225Y014275D01*
X007225Y013810D01*
X004181Y013810D01*
X004027Y013746D01*
X003394Y013112D01*
X003065Y013112D01*
X002940Y013061D01*
X002890Y013011D01*
X002840Y013061D01*
X002715Y013112D01*
X002065Y013112D01*
X001940Y013061D01*
X001844Y012965D01*
X001793Y012840D01*
X001793Y012190D01*
X001844Y012065D01*
X001940Y011969D01*
X002065Y011918D01*
X002449Y011918D01*
X002075Y011544D01*
X002050Y011534D01*
X001881Y011365D01*
X001790Y011144D01*
X001790Y010386D01*
X001881Y010165D01*
X002015Y010031D02*
X000580Y010031D01*
X000580Y009953D02*
X002156Y009953D01*
X001790Y010424D02*
X001782Y010424D01*
X001790Y010502D02*
X001790Y010502D01*
X001790Y010581D02*
X001790Y010581D01*
X001790Y010659D02*
X001790Y010659D01*
X001790Y010738D02*
X001430Y010738D01*
X001430Y010805D02*
X001790Y010805D01*
X001790Y011064D01*
X001775Y011142D01*
X001744Y011214D01*
X001701Y011280D01*
X001645Y011336D01*
X001579Y011379D01*
X001507Y011410D01*
X001430Y011425D01*
X001430Y010805D01*
X001430Y010816D02*
X001350Y010816D01*
X001350Y010738D02*
X000580Y010738D01*
X000580Y010816D02*
X000990Y010816D01*
X000990Y010895D02*
X000580Y010895D01*
X000580Y010973D02*
X000990Y010973D01*
X000990Y011052D02*
X000580Y011052D01*
X000580Y011130D02*
X001003Y011130D01*
X001033Y011209D02*
X000580Y011209D01*
X000580Y011287D02*
X001086Y011287D01*
X001180Y011366D02*
X000580Y011366D01*
X000580Y011444D02*
X001961Y011444D01*
X002039Y011523D02*
X000580Y011523D01*
X000580Y011601D02*
X002132Y011601D01*
X002211Y011680D02*
X000580Y011680D01*
X000580Y011758D02*
X002289Y011758D01*
X002368Y011837D02*
X000580Y011837D01*
X000580Y011915D02*
X002446Y011915D01*
X001916Y011994D02*
X000580Y011994D01*
X000580Y012072D02*
X001841Y012072D01*
X001809Y012151D02*
X001738Y012151D01*
X001733Y012145D02*
X001760Y012172D01*
X001778Y012203D01*
X001787Y012239D01*
X001787Y012476D01*
X001429Y012476D01*
X001429Y012554D01*
X001351Y012554D01*
X001351Y012912D01*
X001114Y012912D01*
X001078Y012903D01*
X001047Y012885D01*
X001020Y012858D01*
X001002Y012827D01*
X000993Y012791D01*
X000993Y012554D01*
X001351Y012554D01*
X001351Y012476D01*
X000993Y012476D01*
X000993Y012239D01*
X001002Y012203D01*
X001020Y012172D01*
X001047Y012145D01*
X001078Y012127D01*
X001114Y012118D01*
X001351Y012118D01*
X001351Y012476D01*
X001429Y012476D01*
X001429Y012118D01*
X001666Y012118D01*
X001702Y012127D01*
X001733Y012145D01*
X001785Y012229D02*
X001793Y012229D01*
X001787Y012308D02*
X001793Y012308D01*
X001787Y012386D02*
X001793Y012386D01*
X001787Y012465D02*
X001793Y012465D01*
X001793Y012543D02*
X001429Y012543D01*
X001429Y012554D02*
X001787Y012554D01*
X001787Y012791D01*
X001778Y012827D01*
X001760Y012858D01*
X001733Y012885D01*
X001702Y012903D01*
X001666Y012912D01*
X001429Y012912D01*
X001429Y012554D01*
X001429Y012622D02*
X001351Y012622D01*
X001351Y012700D02*
X001429Y012700D01*
X001429Y012779D02*
X001351Y012779D01*
X001351Y012857D02*
X001429Y012857D01*
X001760Y012857D02*
X001800Y012857D01*
X001793Y012779D02*
X001787Y012779D01*
X001787Y012700D02*
X001793Y012700D01*
X001787Y012622D02*
X001793Y012622D01*
X001429Y012465D02*
X001351Y012465D01*
X001351Y012543D02*
X000580Y012543D01*
X000580Y012465D02*
X000993Y012465D01*
X000993Y012386D02*
X000580Y012386D01*
X000580Y012308D02*
X000993Y012308D01*
X000995Y012229D02*
X000580Y012229D01*
X000580Y012151D02*
X001042Y012151D01*
X001351Y012151D02*
X001429Y012151D01*
X001429Y012229D02*
X001351Y012229D01*
X001351Y012308D02*
X001429Y012308D01*
X001429Y012386D02*
X001351Y012386D01*
X000993Y012622D02*
X000580Y012622D01*
X000580Y012700D02*
X000993Y012700D01*
X000993Y012779D02*
X000580Y012779D01*
X000580Y012857D02*
X001020Y012857D01*
X000580Y012936D02*
X001832Y012936D01*
X001893Y013014D02*
X000580Y013014D01*
X000580Y013093D02*
X002017Y013093D01*
X002763Y013093D02*
X003017Y013093D01*
X002893Y013014D02*
X002887Y013014D01*
X003452Y013171D02*
X000580Y013171D01*
X000580Y013250D02*
X003531Y013250D01*
X003609Y013328D02*
X000580Y013328D01*
X000580Y013407D02*
X003688Y013407D01*
X003766Y013485D02*
X000580Y013485D01*
X000580Y013564D02*
X003845Y013564D01*
X003923Y013642D02*
X000580Y013642D01*
X000580Y013721D02*
X004002Y013721D01*
X004155Y013799D02*
X000580Y013799D01*
X000580Y013878D02*
X007225Y013878D01*
X007225Y013956D02*
X000580Y013956D01*
X000580Y014035D02*
X007225Y014035D01*
X007225Y014113D02*
X000580Y014113D01*
X000580Y014192D02*
X007225Y014192D01*
X007225Y014270D02*
X000580Y014270D01*
X000580Y014349D02*
X007298Y014349D01*
X007377Y014427D02*
X000580Y014427D01*
X000580Y014506D02*
X007455Y014506D01*
X007534Y014584D02*
X000580Y014584D01*
X000580Y014663D02*
X009023Y014663D01*
X008945Y014741D02*
X000580Y014741D01*
X000580Y014820D02*
X008866Y014820D01*
X009102Y014584D02*
X008227Y014584D01*
X008305Y014506D02*
X009180Y014506D01*
X009101Y014427D02*
X009259Y014427D01*
X009337Y014349D02*
X009179Y014349D01*
X009258Y014270D02*
X009416Y014270D01*
X009494Y014192D02*
X009335Y014192D01*
X009335Y014113D02*
X009573Y014113D01*
X009651Y014035D02*
X008920Y014035D01*
X008920Y014113D02*
X008840Y014113D01*
X008840Y014192D02*
X008920Y014192D01*
X008920Y014270D02*
X008840Y014270D01*
X008840Y014349D02*
X008920Y014349D01*
X008920Y014427D02*
X008840Y014427D01*
X008660Y014427D02*
X008384Y014427D01*
X008462Y014349D02*
X008581Y014349D01*
X008178Y014898D02*
X000580Y014898D01*
X000580Y014977D02*
X008084Y014977D01*
X008022Y015055D02*
X000580Y015055D01*
X000580Y015134D02*
X007990Y015134D01*
X007970Y015212D02*
X000580Y015212D01*
X000580Y015291D02*
X007245Y015291D01*
X007056Y015369D02*
X000580Y015369D01*
X000580Y015448D02*
X006974Y015448D01*
X006895Y015526D02*
X000580Y015526D01*
X000580Y015605D02*
X006855Y015605D01*
X006822Y015683D02*
X000580Y015683D01*
X000580Y015762D02*
X006790Y015762D01*
X006790Y015840D02*
X000580Y015840D01*
X000580Y015919D02*
X006790Y015919D01*
X006790Y015997D02*
X000580Y015997D01*
X000580Y016076D02*
X006790Y016076D01*
X006790Y016154D02*
X000580Y016154D01*
X000580Y016233D02*
X006790Y016233D01*
X006790Y016311D02*
X000580Y016311D01*
X000580Y016390D02*
X006790Y016390D01*
X006790Y016468D02*
X000580Y016468D01*
X000580Y016547D02*
X006801Y016547D01*
X006834Y016625D02*
X000580Y016625D01*
X000580Y016704D02*
X006866Y016704D01*
X006924Y016782D02*
X000580Y016782D01*
X000580Y016861D02*
X007002Y016861D01*
X007124Y016939D02*
X000580Y016939D01*
X000580Y017018D02*
X010970Y017018D01*
X010970Y017096D02*
X000580Y017096D01*
X000580Y017332D02*
X011113Y017332D01*
X011191Y017410D02*
X000580Y017410D01*
X000580Y017489D02*
X011270Y017489D01*
X011348Y017567D02*
X000580Y017567D01*
X000580Y017646D02*
X011427Y017646D01*
X011505Y017724D02*
X000580Y017724D01*
X000580Y017803D02*
X011584Y017803D01*
X011662Y017881D02*
X000580Y017881D01*
X000580Y017960D02*
X011741Y017960D01*
X011878Y018038D02*
X000580Y018038D01*
X000580Y018117D02*
X014018Y018117D01*
X014097Y018195D02*
X000580Y018195D01*
X000580Y018274D02*
X015540Y018274D01*
X015540Y018352D02*
X013683Y018352D01*
X013789Y018431D02*
X015582Y018431D01*
X015661Y018509D02*
X013868Y018509D01*
X013918Y018588D02*
X015739Y018588D01*
X015818Y018666D02*
X013951Y018666D01*
X013983Y018745D02*
X017845Y018745D01*
X017849Y018740D02*
X017975Y018740D01*
X017975Y019100D01*
X017615Y019100D01*
X017615Y018974D01*
X017849Y018740D01*
X017766Y018823D02*
X013990Y018823D01*
X013990Y018902D02*
X017688Y018902D01*
X017615Y018980D02*
X013990Y018980D01*
X013990Y019059D02*
X017615Y019059D01*
X017615Y019216D02*
X013990Y019216D01*
X013990Y019294D02*
X017615Y019294D01*
X017682Y019373D02*
X013990Y019373D01*
X013990Y019137D02*
X017975Y019137D01*
X017975Y019059D02*
X018055Y019059D01*
X018055Y019100D02*
X018055Y018740D01*
X018181Y018740D01*
X018415Y018974D01*
X018415Y019100D01*
X018055Y019100D01*
X018055Y019137D02*
X019385Y019137D01*
X019385Y019059D02*
X018415Y019059D01*
X018415Y018980D02*
X019385Y018980D01*
X019385Y018902D02*
X018342Y018902D01*
X018264Y018823D02*
X019385Y018823D01*
X019385Y018745D02*
X018185Y018745D01*
X018055Y018745D02*
X017975Y018745D01*
X017975Y018823D02*
X018055Y018823D01*
X018055Y018902D02*
X017975Y018902D01*
X017975Y018980D02*
X018055Y018980D01*
X018337Y018666D02*
X019385Y018666D01*
X019385Y018588D02*
X018416Y018588D01*
X018415Y019216D02*
X019385Y019216D01*
X019385Y019294D02*
X018415Y019294D01*
X018348Y019373D02*
X019385Y019373D01*
X019347Y018509D02*
X019385Y018509D01*
X017693Y018666D02*
X016462Y018666D01*
X016541Y018588D02*
X017614Y018588D01*
X015097Y018195D02*
X014683Y018195D01*
X014762Y018117D02*
X015018Y018117D01*
X014940Y018038D02*
X014840Y018038D01*
X013097Y018352D02*
X012683Y018352D01*
X012789Y018431D02*
X012991Y018431D01*
X012912Y018509D02*
X012868Y018509D01*
X012097Y018352D02*
X011683Y018352D01*
X011789Y018431D02*
X011991Y018431D01*
X011912Y018509D02*
X011868Y018509D01*
X011097Y018352D02*
X010683Y018352D01*
X010789Y018431D02*
X010991Y018431D01*
X010912Y018509D02*
X010868Y018509D01*
X010097Y018352D02*
X009683Y018352D01*
X009789Y018431D02*
X009991Y018431D01*
X009912Y018509D02*
X009868Y018509D01*
X009097Y018352D02*
X008683Y018352D01*
X008789Y018431D02*
X008991Y018431D01*
X008912Y018509D02*
X008868Y018509D01*
X008097Y018352D02*
X007683Y018352D01*
X007789Y018431D02*
X007991Y018431D01*
X007912Y018509D02*
X007868Y018509D01*
X007097Y018352D02*
X000580Y018352D01*
X000580Y018431D02*
X006991Y018431D01*
X006912Y018509D02*
X000580Y018509D01*
X000580Y018588D02*
X006862Y018588D01*
X006829Y018666D02*
X000580Y018666D01*
X000580Y018745D02*
X006797Y018745D01*
X006790Y018823D02*
X000580Y018823D01*
X000580Y018902D02*
X006790Y018902D01*
X006790Y018980D02*
X000580Y018980D01*
X000580Y019059D02*
X006790Y019059D01*
X006790Y019137D02*
X000580Y019137D01*
X000580Y019216D02*
X006790Y019216D01*
X006790Y019294D02*
X000580Y019294D01*
X000580Y019373D02*
X006790Y019373D01*
X007656Y016939D02*
X008124Y016939D01*
X008002Y016861D02*
X007778Y016861D01*
X007856Y016782D02*
X007924Y016782D01*
X008656Y016939D02*
X010124Y016939D01*
X010002Y016861D02*
X008778Y016861D01*
X008856Y016782D02*
X009267Y016782D01*
X009273Y016785D02*
X009201Y016754D01*
X009135Y016711D01*
X009079Y016655D01*
X009036Y016589D01*
X009005Y016517D01*
X008990Y016439D01*
X008990Y016180D01*
X009350Y016180D01*
X009350Y016800D01*
X009273Y016785D01*
X009350Y016782D02*
X009430Y016782D01*
X009430Y016800D02*
X009430Y016180D01*
X009350Y016180D01*
X009350Y016100D01*
X009430Y016100D01*
X009430Y016180D01*
X009790Y016180D01*
X009790Y016439D01*
X009775Y016517D01*
X009744Y016589D01*
X009701Y016655D01*
X009645Y016711D01*
X009579Y016754D01*
X009507Y016785D01*
X009430Y016800D01*
X009513Y016782D02*
X009924Y016782D01*
X009866Y016704D02*
X009652Y016704D01*
X009721Y016625D02*
X009834Y016625D01*
X009801Y016547D02*
X009762Y016547D01*
X009784Y016468D02*
X009790Y016468D01*
X009790Y016390D02*
X009790Y016390D01*
X009790Y016311D02*
X009790Y016311D01*
X009790Y016233D02*
X009790Y016233D01*
X009790Y016154D02*
X009430Y016154D01*
X009430Y016100D02*
X009790Y016100D01*
X009790Y015841D01*
X009775Y015763D01*
X009744Y015691D01*
X009701Y015625D01*
X009645Y015569D01*
X009579Y015526D01*
X009507Y015495D01*
X009430Y015480D01*
X009430Y016100D01*
X009430Y016076D02*
X009350Y016076D01*
X009350Y016154D02*
X008990Y016154D01*
X008990Y016076D02*
X008990Y016076D01*
X008990Y015997D02*
X008990Y015997D01*
X008990Y015919D02*
X008990Y015919D01*
X008990Y015840D02*
X008990Y015840D01*
X008990Y015762D02*
X009006Y015762D01*
X009350Y015762D02*
X009430Y015762D01*
X009430Y015840D02*
X009350Y015840D01*
X009350Y015919D02*
X009430Y015919D01*
X009430Y015997D02*
X009350Y015997D01*
X009350Y016233D02*
X009430Y016233D01*
X009430Y016311D02*
X009350Y016311D01*
X009350Y016390D02*
X009430Y016390D01*
X009430Y016468D02*
X009350Y016468D01*
X009350Y016547D02*
X009430Y016547D01*
X009430Y016625D02*
X009350Y016625D01*
X009350Y016704D02*
X009430Y016704D01*
X009128Y016704D02*
X008914Y016704D01*
X008946Y016625D02*
X009059Y016625D01*
X009018Y016547D02*
X008979Y016547D01*
X008990Y016468D02*
X008996Y016468D01*
X008990Y016390D02*
X008990Y016390D01*
X008990Y016311D02*
X008990Y016311D01*
X008990Y016233D02*
X008990Y016233D01*
X009350Y015683D02*
X009430Y015683D01*
X009430Y015605D02*
X009350Y015605D01*
X009350Y015526D02*
X009430Y015526D01*
X009426Y015448D02*
X009970Y015448D01*
X009895Y015526D02*
X009580Y015526D01*
X009680Y015605D02*
X009855Y015605D01*
X009822Y015683D02*
X009739Y015683D01*
X009774Y015762D02*
X009790Y015762D01*
X009790Y015840D02*
X009790Y015840D01*
X009790Y015919D02*
X009790Y015919D01*
X009790Y015997D02*
X009790Y015997D01*
X009790Y016076D02*
X009790Y016076D01*
X009896Y015369D02*
X009505Y015369D01*
X009583Y015291D02*
X009817Y015291D01*
X009790Y015212D02*
X009662Y015212D01*
X009740Y015134D02*
X009790Y015134D01*
X009730Y013956D02*
X009335Y013956D01*
X009335Y013878D02*
X009808Y013878D01*
X009056Y012290D02*
X008930Y012290D01*
X008930Y011930D01*
X008850Y011930D01*
X008850Y012290D01*
X008724Y012290D01*
X008490Y012056D01*
X008490Y011930D01*
X008850Y011930D01*
X008850Y011850D01*
X008490Y011850D01*
X008490Y011724D01*
X008654Y011560D01*
X008409Y011560D01*
X008490Y011641D01*
X008490Y012139D01*
X008139Y012490D01*
X007641Y012490D01*
X007290Y012139D01*
X007290Y011641D01*
X007371Y011560D01*
X007189Y011560D01*
X007128Y011621D01*
X006628Y012121D01*
X006474Y012185D01*
X003985Y012185D01*
X003987Y012190D01*
X003987Y012519D01*
X004439Y012970D01*
X012849Y012970D01*
X013003Y013034D01*
X013121Y013152D01*
X013121Y013152D01*
X013814Y013845D01*
X014211Y013845D01*
X014391Y013665D01*
X014889Y013665D01*
X015240Y014016D01*
X015240Y014514D01*
X014889Y014865D01*
X014391Y014865D01*
X014211Y014685D01*
X013556Y014685D01*
X013402Y014621D01*
X013284Y014503D01*
X013284Y014503D01*
X012865Y014084D01*
X012865Y014389D01*
X012514Y014740D01*
X012016Y014740D01*
X011836Y014560D01*
X011784Y014560D01*
X011990Y014766D01*
X011990Y015264D01*
X011806Y015447D01*
X011890Y015531D01*
X012050Y015371D01*
X012271Y015280D01*
X012509Y015280D01*
X012730Y015371D01*
X012890Y015531D01*
X013050Y015371D01*
X013271Y015280D01*
X013509Y015280D01*
X013730Y015371D01*
X013899Y015540D01*
X013990Y015761D01*
X013990Y016191D01*
X014141Y016040D01*
X014146Y016040D01*
X014534Y015652D01*
X014652Y015534D01*
X014806Y015470D01*
X015591Y015470D01*
X015845Y015216D01*
X015845Y013944D01*
X015665Y013764D01*
X015665Y013266D01*
X015763Y013169D01*
X015724Y013185D01*
X015319Y013185D01*
X015139Y013365D01*
X014641Y013365D01*
X014290Y013014D01*
X014290Y012516D01*
X014641Y012165D01*
X015139Y012165D01*
X015319Y012345D01*
X015466Y012345D01*
X015534Y012277D01*
X015652Y012159D01*
X015806Y012095D01*
X015836Y012095D01*
X015871Y012060D01*
X014056Y012060D01*
X013902Y011996D01*
X012951Y011045D01*
X012869Y011045D01*
X012865Y011041D01*
X012865Y011389D01*
X012514Y011740D01*
X012016Y011740D01*
X011665Y011389D01*
X011665Y011076D01*
X011490Y010866D01*
X011490Y011139D01*
X011139Y011490D01*
X010641Y011490D01*
X010390Y011239D01*
X010139Y011490D01*
X009884Y011490D01*
X009878Y011496D01*
X009724Y011560D01*
X009126Y011560D01*
X009290Y011724D01*
X009290Y011850D01*
X008930Y011850D01*
X008930Y011930D01*
X009290Y011930D01*
X009290Y012056D01*
X009056Y012290D01*
X009117Y012229D02*
X014577Y012229D01*
X014499Y012308D02*
X008321Y012308D01*
X008242Y012386D02*
X013703Y012386D01*
X013724Y012365D02*
X013850Y012365D01*
X013850Y012725D01*
X013930Y012725D01*
X013930Y012805D01*
X014290Y012805D01*
X014290Y012931D01*
X014056Y013165D01*
X013930Y013165D01*
X013930Y012805D01*
X013850Y012805D01*
X013850Y013165D01*
X013724Y013165D01*
X013490Y012931D01*
X013490Y012805D01*
X013850Y012805D01*
X013850Y012725D01*
X013490Y012725D01*
X013490Y012599D01*
X013724Y012365D01*
X013850Y012386D02*
X013930Y012386D01*
X013930Y012365D02*
X014056Y012365D01*
X014290Y012599D01*
X014290Y012725D01*
X013930Y012725D01*
X013930Y012365D01*
X013930Y012465D02*
X013850Y012465D01*
X013850Y012543D02*
X013930Y012543D01*
X013930Y012622D02*
X013850Y012622D01*
X013850Y012700D02*
X013930Y012700D01*
X013930Y012779D02*
X014290Y012779D01*
X014290Y012857D02*
X014290Y012857D01*
X014285Y012936D02*
X014290Y012936D01*
X014291Y013014D02*
X014207Y013014D01*
X014128Y013093D02*
X014369Y013093D01*
X014448Y013171D02*
X013140Y013171D01*
X013062Y013093D02*
X013652Y013093D01*
X013573Y013014D02*
X012955Y013014D01*
X013219Y013250D02*
X014526Y013250D01*
X014605Y013328D02*
X013297Y013328D01*
X013376Y013407D02*
X015665Y013407D01*
X015665Y013485D02*
X013454Y013485D01*
X013533Y013564D02*
X015665Y013564D01*
X015665Y013642D02*
X013611Y013642D01*
X013690Y013721D02*
X014336Y013721D01*
X014257Y013799D02*
X013768Y013799D01*
X013850Y013093D02*
X013930Y013093D01*
X013930Y013014D02*
X013850Y013014D01*
X013850Y012936D02*
X013930Y012936D01*
X013930Y012857D02*
X013850Y012857D01*
X013850Y012779D02*
X004248Y012779D01*
X004326Y012857D02*
X013490Y012857D01*
X013495Y012936D02*
X004405Y012936D01*
X004169Y012700D02*
X013490Y012700D01*
X013490Y012622D02*
X004091Y012622D01*
X004012Y012543D02*
X013546Y012543D01*
X013625Y012465D02*
X008164Y012465D01*
X008399Y012229D02*
X008663Y012229D01*
X008585Y012151D02*
X008478Y012151D01*
X008490Y012072D02*
X008506Y012072D01*
X008490Y011994D02*
X008490Y011994D01*
X008490Y011915D02*
X008850Y011915D01*
X008850Y011994D02*
X008930Y011994D01*
X008930Y012072D02*
X008850Y012072D01*
X008850Y012151D02*
X008930Y012151D01*
X008930Y012229D02*
X008850Y012229D01*
X008930Y011915D02*
X013821Y011915D01*
X013743Y011837D02*
X009290Y011837D01*
X009290Y011758D02*
X013664Y011758D01*
X013586Y011680D02*
X012574Y011680D01*
X012652Y011601D02*
X013507Y011601D01*
X013429Y011523D02*
X012731Y011523D01*
X012809Y011444D02*
X013350Y011444D01*
X013272Y011366D02*
X012865Y011366D01*
X012865Y011287D02*
X013193Y011287D01*
X013115Y011209D02*
X012865Y011209D01*
X012865Y011130D02*
X013036Y011130D01*
X012958Y011052D02*
X012865Y011052D01*
X011956Y011680D02*
X009245Y011680D01*
X009167Y011601D02*
X011878Y011601D01*
X011799Y011523D02*
X009814Y011523D01*
X010184Y011444D02*
X010596Y011444D01*
X010517Y011366D02*
X010263Y011366D01*
X010341Y011287D02*
X010439Y011287D01*
X011184Y011444D02*
X011721Y011444D01*
X011665Y011366D02*
X011263Y011366D01*
X011341Y011287D02*
X011665Y011287D01*
X011665Y011209D02*
X011420Y011209D01*
X011490Y011130D02*
X011665Y011130D01*
X011645Y011052D02*
X011490Y011052D01*
X011490Y010973D02*
X011579Y010973D01*
X011514Y010895D02*
X011490Y010895D01*
X009416Y010515D02*
X009290Y010389D01*
X009290Y009891D01*
X009362Y009819D01*
X009290Y009644D01*
X009290Y008886D01*
X009381Y008665D01*
X009446Y008600D01*
X008581Y008600D01*
X008433Y008748D01*
X008490Y008886D01*
X008490Y009644D01*
X008399Y009865D01*
X008230Y010034D01*
X008009Y010125D01*
X007771Y010125D01*
X007550Y010034D01*
X007390Y009874D01*
X007310Y009954D01*
X007310Y010720D01*
X009290Y010720D01*
X009290Y010641D01*
X009416Y010515D01*
X009404Y010502D02*
X007310Y010502D01*
X007310Y010424D02*
X009325Y010424D01*
X009290Y010345D02*
X007310Y010345D01*
X007310Y010267D02*
X009290Y010267D01*
X009290Y010188D02*
X007310Y010188D01*
X007310Y010110D02*
X007733Y010110D01*
X007548Y010031D02*
X007310Y010031D01*
X007311Y009953D02*
X007469Y009953D01*
X007391Y009874D02*
X007389Y009874D01*
X008047Y010110D02*
X009290Y010110D01*
X009290Y010031D02*
X008232Y010031D01*
X008311Y009953D02*
X009290Y009953D01*
X009307Y009874D02*
X009088Y009874D01*
X009079Y009879D02*
X009007Y009910D01*
X008930Y009925D01*
X008930Y009305D01*
X009290Y009305D01*
X009290Y009564D01*
X009275Y009642D01*
X009244Y009714D01*
X009201Y009780D01*
X009145Y009836D01*
X009079Y009879D01*
X009185Y009796D02*
X009353Y009796D01*
X009320Y009717D02*
X009243Y009717D01*
X009275Y009639D02*
X009290Y009639D01*
X009290Y009560D02*
X009290Y009560D01*
X009290Y009482D02*
X009290Y009482D01*
X009290Y009403D02*
X009290Y009403D01*
X009290Y009325D02*
X009290Y009325D01*
X009290Y009246D02*
X008930Y009246D01*
X008930Y009225D02*
X008930Y009305D01*
X008850Y009305D01*
X008850Y009925D01*
X008773Y009910D01*
X008701Y009879D01*
X008635Y009836D01*
X008579Y009780D01*
X008536Y009714D01*
X008505Y009642D01*
X008490Y009564D01*
X008490Y009305D01*
X008850Y009305D01*
X008850Y009225D01*
X008930Y009225D01*
X009290Y009225D01*
X009290Y008966D01*
X009275Y008888D01*
X009244Y008816D01*
X009201Y008750D01*
X009145Y008694D01*
X009079Y008651D01*
X009007Y008620D01*
X008930Y008605D01*
X008930Y009225D01*
X008930Y009168D02*
X008850Y009168D01*
X008850Y009225D02*
X008850Y008605D01*
X008773Y008620D01*
X008701Y008651D01*
X008635Y008694D01*
X008579Y008750D01*
X008536Y008816D01*
X008505Y008888D01*
X008490Y008966D01*
X008490Y009225D01*
X008850Y009225D01*
X008850Y009246D02*
X008490Y009246D01*
X008490Y009168D02*
X008490Y009168D01*
X008490Y009089D02*
X008490Y009089D01*
X008490Y009011D02*
X008490Y009011D01*
X008490Y008932D02*
X008497Y008932D01*
X008477Y008854D02*
X008520Y008854D01*
X008563Y008775D02*
X008444Y008775D01*
X008484Y008697D02*
X008633Y008697D01*
X008563Y008618D02*
X008785Y008618D01*
X008850Y008618D02*
X008930Y008618D01*
X008995Y008618D02*
X009428Y008618D01*
X009368Y008697D02*
X009147Y008697D01*
X009217Y008775D02*
X009336Y008775D01*
X009303Y008854D02*
X009260Y008854D01*
X009283Y008932D02*
X009290Y008932D01*
X009290Y009011D02*
X009290Y009011D01*
X009290Y009089D02*
X009290Y009089D01*
X009290Y009168D02*
X009290Y009168D01*
X008930Y009089D02*
X008850Y009089D01*
X008850Y009011D02*
X008930Y009011D01*
X008930Y008932D02*
X008850Y008932D01*
X008850Y008854D02*
X008930Y008854D01*
X008930Y008775D02*
X008850Y008775D01*
X008850Y008697D02*
X008930Y008697D01*
X008930Y009325D02*
X008850Y009325D01*
X008850Y009403D02*
X008930Y009403D01*
X008930Y009482D02*
X008850Y009482D01*
X008850Y009560D02*
X008930Y009560D01*
X008930Y009639D02*
X008850Y009639D01*
X008850Y009717D02*
X008930Y009717D01*
X008930Y009796D02*
X008850Y009796D01*
X008850Y009874D02*
X008930Y009874D01*
X008692Y009874D02*
X008389Y009874D01*
X008427Y009796D02*
X008595Y009796D01*
X008537Y009717D02*
X008460Y009717D01*
X008490Y009639D02*
X008505Y009639D01*
X008490Y009560D02*
X008490Y009560D01*
X008490Y009482D02*
X008490Y009482D01*
X008490Y009403D02*
X008490Y009403D01*
X008490Y009325D02*
X008490Y009325D01*
X007428Y008618D02*
X007352Y008618D01*
X007273Y008540D02*
X007434Y008540D01*
X007466Y008461D02*
X007145Y008461D01*
X007499Y008383D02*
X000580Y008383D01*
X000580Y008461D02*
X002960Y008461D01*
X002940Y008469D02*
X003065Y008418D01*
X003715Y008418D01*
X003840Y008469D01*
X003936Y008565D01*
X003987Y008690D01*
X003987Y009340D01*
X003936Y009465D01*
X003840Y009561D01*
X003715Y009612D01*
X003065Y009612D01*
X002940Y009561D01*
X002844Y009465D01*
X002793Y009340D01*
X002793Y008690D01*
X002844Y008565D01*
X002940Y008469D01*
X002870Y008540D02*
X000580Y008540D01*
X000580Y008618D02*
X001112Y008618D01*
X001114Y008618D02*
X001351Y008618D01*
X001429Y008618D01*
X001666Y008618D01*
X001702Y008627D01*
X001733Y008645D01*
X001760Y008672D01*
X001778Y008703D01*
X001787Y008739D01*
X001787Y008976D01*
X001429Y008976D01*
X001429Y009054D01*
X001351Y009054D01*
X001351Y009412D01*
X001114Y009412D01*
X001078Y009403D01*
X001047Y009385D01*
X001020Y009358D01*
X001002Y009327D01*
X000993Y009291D01*
X000993Y009054D01*
X001351Y009054D01*
X001351Y008976D01*
X000993Y008976D01*
X000993Y008739D01*
X001002Y008703D01*
X001020Y008672D01*
X001047Y008645D01*
X001078Y008627D01*
X001114Y008618D01*
X001006Y008697D02*
X000580Y008697D01*
X000580Y008775D02*
X000993Y008775D01*
X000993Y008854D02*
X000580Y008854D01*
X000580Y008932D02*
X000993Y008932D01*
X000993Y009089D02*
X000580Y009089D01*
X000580Y009011D02*
X001351Y009011D01*
X001351Y008976D02*
X001429Y008976D01*
X001429Y008618D01*
X001351Y008618D02*
X001351Y008976D01*
X001351Y008932D02*
X001429Y008932D01*
X001429Y008854D02*
X001351Y008854D01*
X001351Y008775D02*
X001429Y008775D01*
X001429Y008697D02*
X001351Y008697D01*
X001429Y009011D02*
X002351Y009011D01*
X002351Y008976D02*
X001993Y008976D01*
X001993Y008739D01*
X002002Y008703D01*
X002020Y008672D01*
X002047Y008645D01*
X002078Y008627D01*
X002114Y008618D01*
X002351Y008618D01*
X002429Y008618D01*
X002666Y008618D01*
X002702Y008627D01*
X002733Y008645D01*
X002760Y008672D01*
X002778Y008703D01*
X002787Y008739D01*
X002787Y008976D01*
X002429Y008976D01*
X002429Y009054D01*
X002351Y009054D01*
X002351Y009412D01*
X002114Y009412D01*
X002078Y009403D01*
X002047Y009385D01*
X002020Y009358D01*
X002002Y009327D01*
X001993Y009291D01*
X001993Y009054D01*
X002351Y009054D01*
X002351Y008976D01*
X002429Y008976D01*
X002429Y008618D01*
X002351Y008618D02*
X002351Y008976D01*
X002351Y008932D02*
X002429Y008932D01*
X002429Y008854D02*
X002351Y008854D01*
X002351Y008775D02*
X002429Y008775D01*
X002429Y008697D02*
X002351Y008697D01*
X002112Y008618D02*
X001668Y008618D01*
X001774Y008697D02*
X002006Y008697D01*
X001993Y008775D02*
X001787Y008775D01*
X001787Y008854D02*
X001993Y008854D01*
X001993Y008932D02*
X001787Y008932D01*
X001787Y009054D02*
X001429Y009054D01*
X001429Y009412D01*
X001666Y009412D01*
X001702Y009403D01*
X001733Y009385D01*
X001760Y009358D01*
X001778Y009327D01*
X001787Y009291D01*
X001787Y009054D01*
X001787Y009089D02*
X001993Y009089D01*
X001993Y009168D02*
X001787Y009168D01*
X001787Y009246D02*
X001993Y009246D01*
X002002Y009325D02*
X001778Y009325D01*
X001701Y009403D02*
X002079Y009403D01*
X002351Y009403D02*
X002429Y009403D01*
X002429Y009412D02*
X002429Y009054D01*
X002787Y009054D01*
X002787Y009291D01*
X002778Y009327D01*
X002760Y009358D01*
X002733Y009385D01*
X002702Y009403D01*
X002666Y009412D01*
X002429Y009412D01*
X002429Y009325D02*
X002351Y009325D01*
X002351Y009246D02*
X002429Y009246D01*
X002429Y009168D02*
X002351Y009168D01*
X002351Y009089D02*
X002429Y009089D01*
X002429Y009011D02*
X002793Y009011D01*
X002787Y009089D02*
X002793Y009089D01*
X002787Y009168D02*
X002793Y009168D01*
X002787Y009246D02*
X002793Y009246D01*
X002793Y009325D02*
X002778Y009325D01*
X002819Y009403D02*
X002701Y009403D01*
X002861Y009482D02*
X000580Y009482D01*
X000580Y009560D02*
X002939Y009560D01*
X003156Y009953D02*
X002624Y009953D01*
X002765Y010031D02*
X003015Y010031D01*
X002937Y010110D02*
X002843Y010110D01*
X003624Y009953D02*
X004469Y009953D01*
X004548Y010031D02*
X003765Y010031D01*
X003843Y010110D02*
X004733Y010110D01*
X004391Y009874D02*
X000580Y009874D01*
X000580Y009796D02*
X004353Y009796D01*
X004320Y009717D02*
X000580Y009717D01*
X000580Y009639D02*
X004290Y009639D01*
X004290Y009560D02*
X003841Y009560D01*
X003919Y009482D02*
X004290Y009482D01*
X004290Y009403D02*
X003961Y009403D01*
X003987Y009325D02*
X004290Y009325D01*
X004290Y009246D02*
X003987Y009246D01*
X003987Y009168D02*
X004290Y009168D01*
X004290Y009089D02*
X003987Y009089D01*
X003987Y009011D02*
X004290Y009011D01*
X004290Y008932D02*
X003987Y008932D01*
X003987Y008854D02*
X004303Y008854D01*
X004336Y008775D02*
X003987Y008775D01*
X003987Y008697D02*
X004368Y008697D01*
X004428Y008618D02*
X003958Y008618D01*
X003910Y008540D02*
X004507Y008540D01*
X004635Y008461D02*
X003820Y008461D01*
X003715Y008112D02*
X003065Y008112D01*
X002940Y008061D01*
X002844Y007965D01*
X002793Y007840D01*
X002793Y007190D01*
X002844Y007065D01*
X002940Y006969D01*
X003065Y006918D01*
X003715Y006918D01*
X003840Y006969D01*
X003936Y007065D01*
X003987Y007190D01*
X003987Y007840D01*
X003936Y007965D01*
X003840Y008061D01*
X003715Y008112D01*
X003821Y008069D02*
X007811Y008069D01*
X007732Y008147D02*
X000580Y008147D01*
X000580Y008069D02*
X002959Y008069D01*
X002869Y007990D02*
X000580Y007990D01*
X000580Y007912D02*
X001111Y007912D01*
X001114Y007912D02*
X001078Y007903D01*
X001047Y007885D01*
X001020Y007858D01*
X001002Y007827D01*
X000993Y007791D01*
X000993Y007554D01*
X001351Y007554D01*
X001351Y007912D01*
X001429Y007912D01*
X001429Y007554D01*
X001351Y007554D01*
X001351Y007476D01*
X000993Y007476D01*
X000993Y007239D01*
X001002Y007203D01*
X001020Y007172D01*
X001047Y007145D01*
X001078Y007127D01*
X001114Y007118D01*
X001351Y007118D01*
X001351Y007476D01*
X001429Y007476D01*
X001429Y007554D01*
X001787Y007554D01*
X001787Y007791D01*
X001778Y007827D01*
X001760Y007858D01*
X001733Y007885D01*
X001702Y007903D01*
X001666Y007912D01*
X001429Y007912D01*
X001351Y007912D02*
X001114Y007912D01*
X001006Y007833D02*
X000580Y007833D01*
X000580Y007755D02*
X000993Y007755D01*
X000993Y007676D02*
X000580Y007676D01*
X000580Y007598D02*
X000993Y007598D01*
X000993Y007441D02*
X000580Y007441D01*
X000580Y007519D02*
X001351Y007519D01*
X001429Y007519D02*
X002351Y007519D01*
X002351Y007554D02*
X002351Y007476D01*
X001993Y007476D01*
X001993Y007239D01*
X002002Y007203D01*
X002020Y007172D01*
X002047Y007145D01*
X002078Y007127D01*
X002114Y007118D01*
X002351Y007118D01*
X002351Y007476D01*
X002429Y007476D01*
X002429Y007554D01*
X002351Y007554D01*
X002351Y007912D01*
X002429Y007912D01*
X002429Y007554D01*
X002787Y007554D01*
X002787Y007791D01*
X002778Y007827D01*
X002760Y007858D01*
X002733Y007885D01*
X002702Y007903D01*
X002666Y007912D01*
X002429Y007912D01*
X002351Y007912D02*
X002114Y007912D01*
X002078Y007903D01*
X002047Y007885D01*
X002020Y007858D01*
X002002Y007827D01*
X001993Y007791D01*
X001993Y007554D01*
X002351Y007554D01*
X002351Y007598D02*
X002429Y007598D01*
X002429Y007676D02*
X002351Y007676D01*
X002351Y007755D02*
X002429Y007755D01*
X002429Y007833D02*
X002351Y007833D01*
X002111Y007912D02*
X001669Y007912D01*
X001774Y007833D02*
X002006Y007833D01*
X001993Y007755D02*
X001787Y007755D01*
X001787Y007676D02*
X001993Y007676D01*
X001993Y007598D02*
X001787Y007598D01*
X001787Y007476D02*
X001429Y007476D01*
X001429Y007118D01*
X001666Y007118D01*
X001702Y007127D01*
X001733Y007145D01*
X001760Y007172D01*
X001778Y007203D01*
X001787Y007239D01*
X001787Y007476D01*
X001787Y007441D02*
X001993Y007441D01*
X001993Y007362D02*
X001787Y007362D01*
X001787Y007284D02*
X001993Y007284D01*
X002002Y007205D02*
X001778Y007205D01*
X001700Y007127D02*
X002080Y007127D01*
X002351Y007127D02*
X002429Y007127D01*
X002429Y007118D02*
X002666Y007118D01*
X002702Y007127D01*
X002733Y007145D01*
X002760Y007172D01*
X002778Y007203D01*
X002787Y007239D01*
X002787Y007476D01*
X002429Y007476D01*
X002429Y007118D01*
X002429Y007205D02*
X002351Y007205D01*
X002351Y007284D02*
X002429Y007284D01*
X002429Y007362D02*
X002351Y007362D01*
X002351Y007441D02*
X002429Y007441D01*
X002429Y007519D02*
X002793Y007519D01*
X002787Y007441D02*
X002793Y007441D01*
X002787Y007362D02*
X002793Y007362D01*
X002787Y007284D02*
X002793Y007284D01*
X002793Y007205D02*
X002778Y007205D01*
X002819Y007127D02*
X002700Y007127D01*
X002861Y007048D02*
X000580Y007048D01*
X000580Y006970D02*
X002940Y006970D01*
X003155Y006577D02*
X002625Y006577D01*
X002730Y006534D02*
X002509Y006625D01*
X002271Y006625D01*
X002050Y006534D01*
X001881Y006365D01*
X001790Y006144D01*
X001790Y005386D01*
X001881Y005165D01*
X002050Y004996D01*
X002271Y004905D01*
X002509Y004905D01*
X002730Y004996D01*
X002890Y005156D01*
X003050Y004996D01*
X003271Y004905D01*
X003509Y004905D01*
X003730Y004996D01*
X003899Y005165D01*
X003990Y005386D01*
X003990Y006144D01*
X003899Y006365D01*
X003730Y006534D01*
X003509Y006625D01*
X003271Y006625D01*
X003050Y006534D01*
X002890Y006374D01*
X002730Y006534D01*
X002765Y006499D02*
X003015Y006499D01*
X002936Y006420D02*
X002844Y006420D01*
X002155Y006577D02*
X000580Y006577D01*
X000580Y006499D02*
X002015Y006499D01*
X001936Y006420D02*
X001454Y006420D01*
X001430Y006420D02*
X001350Y006420D01*
X001350Y006425D02*
X001273Y006410D01*
X001201Y006379D01*
X001135Y006336D01*
X001079Y006280D01*
X001036Y006214D01*
X001005Y006142D01*
X000990Y006064D01*
X000990Y005805D01*
X001350Y005805D01*
X001350Y006425D01*
X001326Y006420D02*
X000580Y006420D01*
X000580Y006342D02*
X001144Y006342D01*
X001068Y006263D02*
X000580Y006263D01*
X000580Y006185D02*
X001023Y006185D01*
X000998Y006106D02*
X000580Y006106D01*
X000580Y006028D02*
X000990Y006028D01*
X000990Y005949D02*
X000580Y005949D01*
X000580Y005871D02*
X000990Y005871D01*
X000990Y005725D02*
X000990Y005466D01*
X001005Y005388D01*
X001036Y005316D01*
X001079Y005250D01*
X001135Y005194D01*
X001201Y005151D01*
X001273Y005120D01*
X001350Y005105D01*
X001350Y005725D01*
X000990Y005725D01*
X000990Y005714D02*
X000580Y005714D01*
X000580Y005792D02*
X001350Y005792D01*
X001350Y005805D02*
X001350Y005725D01*
X001430Y005725D01*
X001430Y005805D01*
X001350Y005805D01*
X001350Y005871D02*
X001430Y005871D01*
X001430Y005805D02*
X001430Y006425D01*
X001507Y006410D01*
X001579Y006379D01*
X001645Y006336D01*
X001701Y006280D01*
X001744Y006214D01*
X001775Y006142D01*
X001790Y006064D01*
X001790Y005805D01*
X001430Y005805D01*
X001430Y005792D02*
X001790Y005792D01*
X001790Y005725D02*
X001430Y005725D01*
X001430Y005105D01*
X001507Y005120D01*
X001579Y005151D01*
X001645Y005194D01*
X001701Y005250D01*
X001744Y005316D01*
X001775Y005388D01*
X001790Y005466D01*
X001790Y005725D01*
X001790Y005714D02*
X001790Y005714D01*
X001790Y005635D02*
X001790Y005635D01*
X001790Y005557D02*
X001790Y005557D01*
X001790Y005478D02*
X001790Y005478D01*
X001790Y005400D02*
X001777Y005400D01*
X001747Y005321D02*
X001817Y005321D01*
X001849Y005243D02*
X001693Y005243D01*
X001600Y005164D02*
X001882Y005164D01*
X001961Y005086D02*
X000580Y005086D01*
X000580Y005164D02*
X001180Y005164D01*
X001087Y005243D02*
X000580Y005243D01*
X000580Y005321D02*
X001033Y005321D01*
X001003Y005400D02*
X000580Y005400D01*
X000580Y005478D02*
X000990Y005478D01*
X000990Y005557D02*
X000580Y005557D01*
X000580Y005635D02*
X000990Y005635D01*
X001350Y005635D02*
X001430Y005635D01*
X001430Y005557D02*
X001350Y005557D01*
X001350Y005478D02*
X001430Y005478D01*
X001430Y005400D02*
X001350Y005400D01*
X001350Y005321D02*
X001430Y005321D01*
X001430Y005243D02*
X001350Y005243D01*
X001350Y005164D02*
X001430Y005164D01*
X001430Y005714D02*
X001350Y005714D01*
X001350Y005949D02*
X001430Y005949D01*
X001430Y006028D02*
X001350Y006028D01*
X001350Y006106D02*
X001430Y006106D01*
X001430Y006185D02*
X001350Y006185D01*
X001350Y006263D02*
X001430Y006263D01*
X001430Y006342D02*
X001350Y006342D01*
X001636Y006342D02*
X001872Y006342D01*
X001839Y006263D02*
X001712Y006263D01*
X001757Y006185D02*
X001807Y006185D01*
X001790Y006106D02*
X001782Y006106D01*
X001790Y006028D02*
X001790Y006028D01*
X001790Y005949D02*
X001790Y005949D01*
X001790Y005871D02*
X001790Y005871D01*
X002039Y005007D02*
X000580Y005007D01*
X000580Y004929D02*
X002214Y004929D01*
X002566Y004929D02*
X003214Y004929D01*
X003039Y005007D02*
X002741Y005007D01*
X002819Y005086D02*
X002961Y005086D01*
X003566Y004929D02*
X004330Y004929D01*
X004408Y005007D02*
X003741Y005007D01*
X003819Y005086D02*
X004487Y005086D01*
X004516Y005115D02*
X004165Y004764D01*
X004165Y004266D01*
X004516Y003915D01*
X005014Y003915D01*
X005265Y004166D01*
X005516Y003915D01*
X006014Y003915D01*
X006365Y004266D01*
X006365Y004764D01*
X006014Y005115D01*
X005516Y005115D01*
X005265Y004864D01*
X005014Y005115D01*
X004516Y005115D01*
X004251Y004850D02*
X000580Y004850D01*
X000580Y004772D02*
X004173Y004772D01*
X004165Y004693D02*
X000580Y004693D01*
X000580Y004615D02*
X004165Y004615D01*
X004165Y004536D02*
X000580Y004536D01*
X000580Y004458D02*
X004165Y004458D01*
X004165Y004379D02*
X000580Y004379D01*
X000580Y004301D02*
X004165Y004301D01*
X004209Y004222D02*
X003577Y004222D01*
X003509Y004250D02*
X003271Y004250D01*
X003050Y004159D01*
X002890Y003999D01*
X002730Y004159D01*
X002509Y004250D01*
X002271Y004250D01*
X002050Y004159D01*
X001881Y003990D01*
X001790Y003769D01*
X001790Y003011D01*
X001881Y002790D01*
X002050Y002621D01*
X002271Y002530D01*
X002509Y002530D01*
X002730Y002621D01*
X002890Y002781D01*
X003050Y002621D01*
X003271Y002530D01*
X003509Y002530D01*
X003730Y002621D01*
X003899Y002790D01*
X003990Y003011D01*
X003990Y003769D01*
X003899Y003990D01*
X003730Y004159D01*
X003509Y004250D01*
X003745Y004144D02*
X004288Y004144D01*
X004366Y004065D02*
X003824Y004065D01*
X003900Y003987D02*
X004445Y003987D01*
X003990Y003751D02*
X010044Y003751D01*
X009965Y003673D02*
X003990Y003673D01*
X003990Y003594D02*
X009887Y003594D01*
X009808Y003516D02*
X003990Y003516D01*
X003990Y003437D02*
X009730Y003437D01*
X009651Y003359D02*
X003990Y003359D01*
X003990Y003280D02*
X009573Y003280D01*
X009494Y003202D02*
X003990Y003202D01*
X003990Y003123D02*
X009445Y003123D01*
X009413Y003045D02*
X003990Y003045D01*
X003972Y002966D02*
X009390Y002966D01*
X009390Y002888D02*
X003939Y002888D01*
X003906Y002809D02*
X009390Y002809D01*
X009386Y002731D02*
X003839Y002731D01*
X003761Y002652D02*
X009352Y002652D01*
X009319Y002574D02*
X003614Y002574D01*
X003166Y002574D02*
X002614Y002574D01*
X002761Y002652D02*
X003019Y002652D01*
X002941Y002731D02*
X002839Y002731D01*
X002166Y002574D02*
X000580Y002574D01*
X000580Y002652D02*
X002019Y002652D01*
X001941Y002731D02*
X001432Y002731D01*
X001430Y002731D02*
X001350Y002731D01*
X001350Y002730D02*
X001350Y003350D01*
X000990Y003350D01*
X000990Y003091D01*
X001005Y003013D01*
X001036Y002941D01*
X001079Y002875D01*
X001135Y002819D01*
X001201Y002776D01*
X001273Y002745D01*
X001350Y002730D01*
X001348Y002731D02*
X000580Y002731D01*
X000580Y002809D02*
X001150Y002809D01*
X001071Y002888D02*
X000580Y002888D01*
X000580Y002966D02*
X001025Y002966D01*
X000999Y003045D02*
X000580Y003045D01*
X000580Y003123D02*
X000990Y003123D01*
X000990Y003202D02*
X000580Y003202D01*
X000580Y003280D02*
X000990Y003280D01*
X000990Y003430D02*
X001350Y003430D01*
X001350Y004050D01*
X001273Y004035D01*
X001201Y004004D01*
X001135Y003961D01*
X001079Y003905D01*
X001036Y003839D01*
X001005Y003767D01*
X000990Y003689D01*
X000990Y003430D01*
X000990Y003437D02*
X000580Y003437D01*
X000580Y003359D02*
X001350Y003359D01*
X001350Y003350D02*
X001350Y003430D01*
X001430Y003430D01*
X001430Y004050D01*
X001507Y004035D01*
X001579Y004004D01*
X001645Y003961D01*
X001701Y003905D01*
X001744Y003839D01*
X001775Y003767D01*
X001790Y003689D01*
X001790Y003430D01*
X001430Y003430D01*
X001430Y003350D01*
X001790Y003350D01*
X001790Y003091D01*
X001775Y003013D01*
X001744Y002941D01*
X001701Y002875D01*
X001645Y002819D01*
X001579Y002776D01*
X001507Y002745D01*
X001430Y002730D01*
X001430Y003350D01*
X001350Y003350D01*
X001350Y003280D02*
X001430Y003280D01*
X001430Y003202D02*
X001350Y003202D01*
X001350Y003123D02*
X001430Y003123D01*
X001430Y003045D02*
X001350Y003045D01*
X001350Y002966D02*
X001430Y002966D01*
X001430Y002888D02*
X001350Y002888D01*
X001350Y002809D02*
X001430Y002809D01*
X001630Y002809D02*
X001874Y002809D01*
X001841Y002888D02*
X001709Y002888D01*
X001755Y002966D02*
X001808Y002966D01*
X001790Y003045D02*
X001781Y003045D01*
X001790Y003123D02*
X001790Y003123D01*
X001790Y003202D02*
X001790Y003202D01*
X001790Y003280D02*
X001790Y003280D01*
X001790Y003359D02*
X001430Y003359D01*
X001430Y003437D02*
X001350Y003437D01*
X001350Y003516D02*
X001430Y003516D01*
X001430Y003594D02*
X001350Y003594D01*
X001350Y003673D02*
X001430Y003673D01*
X001430Y003751D02*
X001350Y003751D01*
X001350Y003830D02*
X001430Y003830D01*
X001430Y003908D02*
X001350Y003908D01*
X001350Y003987D02*
X001430Y003987D01*
X001606Y003987D02*
X001880Y003987D01*
X001847Y003908D02*
X001698Y003908D01*
X001749Y003830D02*
X001815Y003830D01*
X001790Y003751D02*
X001778Y003751D01*
X001790Y003673D02*
X001790Y003673D01*
X001790Y003594D02*
X001790Y003594D01*
X001790Y003516D02*
X001790Y003516D01*
X001790Y003437D02*
X001790Y003437D01*
X001956Y004065D02*
X000580Y004065D01*
X000580Y003987D02*
X001174Y003987D01*
X001082Y003908D02*
X000580Y003908D01*
X000580Y003830D02*
X001031Y003830D01*
X001002Y003751D02*
X000580Y003751D01*
X000580Y003673D02*
X000990Y003673D01*
X000990Y003594D02*
X000580Y003594D01*
X000580Y003516D02*
X000990Y003516D01*
X000580Y004144D02*
X002035Y004144D01*
X002203Y004222D02*
X000580Y004222D01*
X000580Y002495D02*
X009293Y002495D01*
X009293Y002417D02*
X000580Y002417D01*
X000580Y002338D02*
X009293Y002338D01*
X009297Y002260D02*
X000580Y002260D01*
X000580Y002181D02*
X009330Y002181D01*
X009362Y002103D02*
X000580Y002103D01*
X000580Y002024D02*
X009390Y002024D01*
X009390Y001946D02*
X000580Y001946D01*
X000580Y001867D02*
X009390Y001867D01*
X009390Y001789D02*
X000580Y001789D01*
X000580Y001710D02*
X009376Y001710D01*
X009343Y001632D02*
X000580Y001632D01*
X000580Y001553D02*
X009311Y001553D01*
X009293Y001475D02*
X000580Y001475D01*
X000580Y001396D02*
X009293Y001396D01*
X009293Y001318D02*
X000580Y001318D01*
X000580Y001239D02*
X009306Y001239D01*
X009338Y001161D02*
X000580Y001161D01*
X000580Y001082D02*
X009371Y001082D01*
X009432Y001004D02*
X000580Y001004D01*
X000580Y000925D02*
X009510Y000925D01*
X009641Y000847D02*
X000580Y000847D01*
X000580Y000768D02*
X014805Y000768D01*
X014883Y000690D02*
X000580Y000690D01*
X000580Y000611D02*
X014962Y000611D01*
X014726Y000847D02*
X014139Y000847D01*
X013641Y000847D02*
X010139Y000847D01*
X010270Y000925D02*
X013510Y000925D01*
X013432Y001004D02*
X012984Y001004D01*
X013006Y001008D02*
X013078Y001038D01*
X013143Y001081D01*
X013199Y001137D01*
X013242Y001202D01*
X013272Y001274D01*
X013287Y001351D01*
X013287Y001351D01*
X012929Y001351D01*
X012929Y001429D01*
X012851Y001429D01*
X012851Y001787D01*
X012774Y001772D01*
X012702Y001742D01*
X012637Y001699D01*
X012581Y001643D01*
X012538Y001578D01*
X012508Y001506D01*
X012493Y001429D01*
X012493Y001429D01*
X012851Y001429D01*
X012851Y001351D01*
X012493Y001351D01*
X012508Y001274D01*
X012538Y001202D01*
X012581Y001137D01*
X012637Y001081D01*
X012702Y001038D01*
X012774Y001008D01*
X012851Y000993D01*
X012851Y000993D01*
X012851Y001351D01*
X012929Y001351D01*
X012929Y000993D01*
X013006Y001008D01*
X012929Y001004D02*
X012851Y001004D01*
X012796Y001004D02*
X011984Y001004D01*
X012006Y001008D02*
X012078Y001038D01*
X012143Y001081D01*
X012199Y001137D01*
X012242Y001202D01*
X012272Y001274D01*
X012287Y001351D01*
X012287Y001351D01*
X011929Y001351D01*
X011929Y001429D01*
X011851Y001429D01*
X011851Y001787D01*
X011774Y001772D01*
X011702Y001742D01*
X011637Y001699D01*
X011581Y001643D01*
X011538Y001578D01*
X011508Y001506D01*
X011493Y001429D01*
X011493Y001429D01*
X011851Y001429D01*
X011851Y001351D01*
X011493Y001351D01*
X011508Y001274D01*
X011538Y001202D01*
X011581Y001137D01*
X011637Y001081D01*
X011702Y001038D01*
X011774Y001008D01*
X011851Y000993D01*
X011851Y000993D01*
X011851Y001351D01*
X011929Y001351D01*
X011929Y000993D01*
X012006Y001008D01*
X011929Y001004D02*
X011851Y001004D01*
X011796Y001004D02*
X010984Y001004D01*
X011006Y001008D02*
X011078Y001038D01*
X011143Y001081D01*
X011199Y001137D01*
X011242Y001202D01*
X011272Y001274D01*
X011287Y001351D01*
X011287Y001351D01*
X010929Y001351D01*
X010929Y001429D01*
X010851Y001429D01*
X010851Y001787D01*
X010774Y001772D01*
X010702Y001742D01*
X010637Y001699D01*
X010581Y001643D01*
X010538Y001578D01*
X010508Y001506D01*
X010493Y001429D01*
X010493Y001429D01*
X010851Y001429D01*
X010851Y001351D01*
X010493Y001351D01*
X010508Y001274D01*
X010538Y001202D01*
X010581Y001137D01*
X010637Y001081D01*
X010702Y001038D01*
X010774Y001008D01*
X010851Y000993D01*
X010851Y000993D01*
X010851Y001351D01*
X010929Y001351D01*
X010929Y000993D01*
X011006Y001008D01*
X010929Y001004D02*
X010851Y001004D01*
X010796Y001004D02*
X010348Y001004D01*
X010409Y001082D02*
X010636Y001082D01*
X010565Y001161D02*
X010442Y001161D01*
X010474Y001239D02*
X010522Y001239D01*
X010499Y001318D02*
X010487Y001318D01*
X010493Y001351D02*
X010493Y001351D01*
X010487Y001396D02*
X010851Y001396D01*
X010929Y001396D02*
X011851Y001396D01*
X011929Y001396D02*
X012851Y001396D01*
X012929Y001396D02*
X013293Y001396D01*
X013287Y001429D02*
X013287Y001429D01*
X013272Y001506D01*
X013242Y001578D01*
X013199Y001643D01*
X013143Y001699D01*
X013078Y001742D01*
X013006Y001772D01*
X012929Y001787D01*
X012929Y001787D01*
X012929Y001429D01*
X013287Y001429D01*
X013278Y001475D02*
X013293Y001475D01*
X013311Y001553D02*
X013253Y001553D01*
X013207Y001632D02*
X013343Y001632D01*
X013376Y001710D02*
X013127Y001710D01*
X012929Y001710D02*
X012851Y001710D01*
X012851Y001787D02*
X012851Y001787D01*
X012851Y001632D02*
X012929Y001632D01*
X012929Y001553D02*
X012851Y001553D01*
X012851Y001475D02*
X012929Y001475D01*
X012929Y001318D02*
X012851Y001318D01*
X012851Y001239D02*
X012929Y001239D01*
X012929Y001161D02*
X012851Y001161D01*
X012851Y001082D02*
X012929Y001082D01*
X012929Y000993D02*
X012929Y000993D01*
X013144Y001082D02*
X013371Y001082D01*
X013338Y001161D02*
X013215Y001161D01*
X013258Y001239D02*
X013306Y001239D01*
X013293Y001318D02*
X013281Y001318D01*
X013390Y001789D02*
X010390Y001789D01*
X010390Y001867D02*
X013390Y001867D01*
X013390Y001946D02*
X010390Y001946D01*
X010390Y002024D02*
X010735Y002024D01*
X010702Y002038D02*
X010774Y002008D01*
X010851Y001993D01*
X010851Y001993D01*
X010851Y002351D01*
X010493Y002351D01*
X010508Y002274D01*
X010538Y002202D01*
X010581Y002137D01*
X010637Y002081D01*
X010702Y002038D01*
X010615Y002103D02*
X010418Y002103D01*
X010450Y002181D02*
X010552Y002181D01*
X010514Y002260D02*
X010483Y002260D01*
X010487Y002338D02*
X010495Y002338D01*
X010493Y002351D02*
X010493Y002351D01*
X010487Y002417D02*
X010851Y002417D01*
X010851Y002429D02*
X010851Y002351D01*
X010929Y002351D01*
X010929Y002429D01*
X010851Y002429D01*
X010851Y002787D01*
X010774Y002772D01*
X010702Y002742D01*
X010637Y002699D01*
X010581Y002643D01*
X010538Y002578D01*
X010508Y002506D01*
X010493Y002429D01*
X010493Y002429D01*
X010851Y002429D01*
X010851Y002495D02*
X010929Y002495D01*
X010929Y002429D02*
X010929Y002787D01*
X010929Y002787D01*
X011006Y002772D01*
X011078Y002742D01*
X011143Y002699D01*
X011199Y002643D01*
X011242Y002578D01*
X011272Y002506D01*
X011287Y002429D01*
X011287Y002429D01*
X010929Y002429D01*
X010929Y002417D02*
X011851Y002417D01*
X011851Y002429D02*
X011851Y002351D01*
X011493Y002351D01*
X011508Y002274D01*
X011538Y002202D01*
X011581Y002137D01*
X011637Y002081D01*
X011702Y002038D01*
X011774Y002008D01*
X011851Y001993D01*
X011851Y001993D01*
X011851Y002351D01*
X011929Y002351D01*
X011929Y002429D01*
X011851Y002429D01*
X011851Y002787D01*
X011774Y002772D01*
X011702Y002742D01*
X011637Y002699D01*
X011581Y002643D01*
X011538Y002578D01*
X011508Y002506D01*
X011493Y002429D01*
X011493Y002429D01*
X011851Y002429D01*
X011851Y002495D02*
X011929Y002495D01*
X011929Y002429D02*
X011929Y002787D01*
X011929Y002787D01*
X012006Y002772D01*
X012078Y002742D01*
X012143Y002699D01*
X012199Y002643D01*
X012242Y002578D01*
X012272Y002506D01*
X012287Y002429D01*
X012287Y002429D01*
X011929Y002429D01*
X011929Y002417D02*
X012851Y002417D01*
X012851Y002429D02*
X012851Y002351D01*
X012493Y002351D01*
X012508Y002274D01*
X012538Y002202D01*
X012581Y002137D01*
X012637Y002081D01*
X012702Y002038D01*
X012774Y002008D01*
X012851Y001993D01*
X012851Y001993D01*
X012851Y002351D01*
X012929Y002351D01*
X012929Y002429D01*
X012851Y002429D01*
X012851Y002787D01*
X012774Y002772D01*
X012702Y002742D01*
X012637Y002699D01*
X012581Y002643D01*
X012538Y002578D01*
X012508Y002506D01*
X012493Y002429D01*
X012493Y002429D01*
X012851Y002429D01*
X012851Y002495D02*
X012929Y002495D01*
X012929Y002429D02*
X012929Y002787D01*
X012929Y002787D01*
X013006Y002772D01*
X013078Y002742D01*
X013143Y002699D01*
X013199Y002643D01*
X013242Y002578D01*
X013272Y002506D01*
X013287Y002429D01*
X013287Y002429D01*
X012929Y002429D01*
X012929Y002417D02*
X013293Y002417D01*
X013287Y002351D02*
X012929Y002351D01*
X012929Y001993D01*
X013006Y002008D01*
X013078Y002038D01*
X013143Y002081D01*
X013199Y002137D01*
X013242Y002202D01*
X013272Y002274D01*
X013287Y002351D01*
X013287Y002351D01*
X013285Y002338D02*
X013293Y002338D01*
X013297Y002260D02*
X013266Y002260D01*
X013228Y002181D02*
X013330Y002181D01*
X013362Y002103D02*
X013165Y002103D01*
X013045Y002024D02*
X013390Y002024D01*
X013293Y002495D02*
X013274Y002495D01*
X013244Y002574D02*
X013319Y002574D01*
X013352Y002652D02*
X013190Y002652D01*
X013096Y002731D02*
X013386Y002731D01*
X013464Y002809D02*
X010516Y002809D01*
X010438Y002731D02*
X010684Y002731D01*
X010590Y002652D02*
X010428Y002652D01*
X010461Y002574D02*
X010536Y002574D01*
X010506Y002495D02*
X010487Y002495D01*
X010851Y002574D02*
X010929Y002574D01*
X010929Y002652D02*
X010851Y002652D01*
X010851Y002731D02*
X010929Y002731D01*
X010851Y002787D02*
X010851Y002787D01*
X011096Y002731D02*
X011684Y002731D01*
X011590Y002652D02*
X011190Y002652D01*
X011244Y002574D02*
X011536Y002574D01*
X011506Y002495D02*
X011274Y002495D01*
X011287Y002351D02*
X010929Y002351D01*
X010929Y001993D01*
X011006Y002008D01*
X011078Y002038D01*
X011143Y002081D01*
X011199Y002137D01*
X011242Y002202D01*
X011272Y002274D01*
X011287Y002351D01*
X011287Y002351D01*
X011285Y002338D02*
X011495Y002338D01*
X011493Y002351D02*
X011493Y002351D01*
X011514Y002260D02*
X011266Y002260D01*
X011228Y002181D02*
X011552Y002181D01*
X011615Y002103D02*
X011165Y002103D01*
X011045Y002024D02*
X011735Y002024D01*
X011851Y002024D02*
X011929Y002024D01*
X011929Y001993D02*
X012006Y002008D01*
X012078Y002038D01*
X012143Y002081D01*
X012199Y002137D01*
X012242Y002202D01*
X012272Y002274D01*
X012287Y002351D01*
X012287Y002351D01*
X011929Y002351D01*
X011929Y001993D01*
X011929Y001993D01*
X011929Y002103D02*
X011851Y002103D01*
X011851Y002181D02*
X011929Y002181D01*
X011929Y002260D02*
X011851Y002260D01*
X011851Y002338D02*
X011929Y002338D01*
X011929Y002574D02*
X011851Y002574D01*
X011851Y002652D02*
X011929Y002652D01*
X011929Y002731D02*
X011851Y002731D01*
X011851Y002787D02*
X011851Y002787D01*
X011798Y002966D02*
X012173Y003341D01*
X012314Y003482D01*
X012390Y003666D01*
X012390Y004791D01*
X012490Y004891D01*
X012490Y005389D01*
X012139Y005740D01*
X011641Y005740D01*
X011490Y005589D01*
X011490Y005764D01*
X011454Y005799D01*
X011490Y005886D01*
X011490Y006644D01*
X011399Y006865D01*
X011334Y006930D01*
X012696Y006930D01*
X012631Y006865D01*
X012540Y006644D01*
X012540Y005886D01*
X012576Y005799D01*
X012540Y005764D01*
X012540Y005266D01*
X012791Y005015D01*
X012540Y004764D01*
X012540Y004266D01*
X012891Y003915D01*
X013389Y003915D01*
X013740Y004266D01*
X013740Y004764D01*
X013534Y004970D01*
X015669Y004970D01*
X015499Y004800D01*
X015328Y004970D01*
X015180Y004970D01*
X015180Y004555D01*
X015100Y004555D01*
X015100Y004970D01*
X014952Y004970D01*
X014685Y004703D01*
X014685Y004555D01*
X015100Y004555D01*
X015100Y004475D01*
X015180Y004475D01*
X015180Y004060D01*
X015328Y004060D01*
X015499Y004230D01*
X015790Y003939D01*
X015790Y003516D01*
X016141Y003165D01*
X016639Y003165D01*
X016953Y003479D01*
X017041Y003390D01*
X016790Y003139D01*
X016790Y002641D01*
X017141Y002290D01*
X017639Y002290D01*
X017990Y002641D01*
X017990Y003139D01*
X017739Y003390D01*
X017990Y003641D01*
X017990Y004139D01*
X017810Y004319D01*
X017810Y004474D01*
X017760Y004593D01*
X017869Y004485D01*
X018411Y004485D01*
X018640Y004714D01*
X018869Y004485D01*
X019011Y004485D01*
X018790Y004264D01*
X018790Y003766D01*
X019041Y003515D01*
X018790Y003264D01*
X018790Y002766D01*
X019141Y002415D01*
X019385Y002415D01*
X019385Y002000D01*
X019271Y002000D01*
X019050Y001909D01*
X018890Y001749D01*
X018730Y001909D01*
X018509Y002000D01*
X018271Y002000D01*
X018050Y001909D01*
X017890Y001749D01*
X017730Y001909D01*
X017509Y002000D01*
X017271Y002000D01*
X017050Y001909D01*
X016881Y001740D01*
X016790Y001519D01*
X016790Y001214D01*
X016639Y001365D01*
X016141Y001365D01*
X016041Y001265D01*
X015722Y001265D01*
X015173Y001814D01*
X014989Y001890D01*
X014390Y001890D01*
X014390Y002045D01*
X014397Y002052D01*
X014487Y002271D01*
X014487Y002509D01*
X014397Y002728D01*
X014228Y002897D01*
X014009Y002987D01*
X013771Y002987D01*
X014061Y002966D02*
X016790Y002966D01*
X016790Y002888D02*
X014237Y002888D01*
X014316Y002809D02*
X016790Y002809D01*
X016790Y002731D02*
X014394Y002731D01*
X014428Y002652D02*
X016790Y002652D01*
X016858Y002574D02*
X014461Y002574D01*
X014487Y002495D02*
X016936Y002495D01*
X017015Y002417D02*
X014487Y002417D01*
X014487Y002338D02*
X017093Y002338D01*
X017139Y001946D02*
X014390Y001946D01*
X014390Y002024D02*
X019385Y002024D01*
X019385Y002103D02*
X014418Y002103D01*
X014450Y002181D02*
X019385Y002181D01*
X019385Y002260D02*
X014483Y002260D01*
X015045Y001867D02*
X017008Y001867D01*
X016930Y001789D02*
X015199Y001789D01*
X015277Y001710D02*
X016869Y001710D01*
X016836Y001632D02*
X015356Y001632D01*
X015434Y001553D02*
X016804Y001553D01*
X016790Y001475D02*
X015513Y001475D01*
X015591Y001396D02*
X016790Y001396D01*
X016790Y001318D02*
X016686Y001318D01*
X016765Y001239D02*
X016790Y001239D01*
X016094Y001318D02*
X015670Y001318D01*
X016105Y003202D02*
X012034Y003202D01*
X012112Y003280D02*
X016026Y003280D01*
X015948Y003359D02*
X012191Y003359D01*
X012269Y003437D02*
X015869Y003437D01*
X015791Y003516D02*
X012328Y003516D01*
X012360Y003594D02*
X015790Y003594D01*
X015790Y003673D02*
X012390Y003673D01*
X012390Y003751D02*
X015790Y003751D01*
X015790Y003830D02*
X012390Y003830D01*
X012390Y003908D02*
X015790Y003908D01*
X015742Y003987D02*
X013460Y003987D01*
X013539Y004065D02*
X014947Y004065D01*
X014952Y004060D02*
X015100Y004060D01*
X015100Y004475D01*
X014685Y004475D01*
X014685Y004327D01*
X014952Y004060D01*
X014868Y004144D02*
X013617Y004144D01*
X013696Y004222D02*
X014790Y004222D01*
X014711Y004301D02*
X013740Y004301D01*
X013740Y004379D02*
X014685Y004379D01*
X014685Y004458D02*
X013740Y004458D01*
X013740Y004536D02*
X015100Y004536D01*
X015100Y004458D02*
X015180Y004458D01*
X015180Y004379D02*
X015100Y004379D01*
X015100Y004301D02*
X015180Y004301D01*
X015180Y004222D02*
X015100Y004222D01*
X015100Y004144D02*
X015180Y004144D01*
X015180Y004065D02*
X015100Y004065D01*
X015333Y004065D02*
X015664Y004065D01*
X015585Y004144D02*
X015412Y004144D01*
X015490Y004222D02*
X015507Y004222D01*
X015180Y004615D02*
X015100Y004615D01*
X015100Y004693D02*
X015180Y004693D01*
X015180Y004772D02*
X015100Y004772D01*
X015100Y004850D02*
X015180Y004850D01*
X015180Y004929D02*
X015100Y004929D01*
X014910Y004929D02*
X013575Y004929D01*
X013654Y004850D02*
X014832Y004850D01*
X014753Y004772D02*
X013732Y004772D01*
X013740Y004693D02*
X014685Y004693D01*
X014685Y004615D02*
X013740Y004615D01*
X012783Y005007D02*
X012490Y005007D01*
X012490Y004929D02*
X012705Y004929D01*
X012626Y004850D02*
X012449Y004850D01*
X012390Y004772D02*
X012548Y004772D01*
X012540Y004693D02*
X012390Y004693D01*
X012390Y004615D02*
X012540Y004615D01*
X012540Y004536D02*
X012390Y004536D01*
X012390Y004458D02*
X012540Y004458D01*
X012540Y004379D02*
X012390Y004379D01*
X012390Y004301D02*
X012540Y004301D01*
X012584Y004222D02*
X012390Y004222D01*
X012390Y004144D02*
X012663Y004144D01*
X012741Y004065D02*
X012390Y004065D01*
X012390Y003987D02*
X012820Y003987D01*
X011955Y003123D02*
X016790Y003123D01*
X016790Y003045D02*
X011877Y003045D01*
X012096Y002731D02*
X012684Y002731D01*
X012590Y002652D02*
X012190Y002652D01*
X012244Y002574D02*
X012536Y002574D01*
X012506Y002495D02*
X012274Y002495D01*
X012285Y002338D02*
X012495Y002338D01*
X012493Y002351D02*
X012493Y002351D01*
X012514Y002260D02*
X012266Y002260D01*
X012228Y002181D02*
X012552Y002181D01*
X012615Y002103D02*
X012165Y002103D01*
X012045Y002024D02*
X012735Y002024D01*
X012851Y002024D02*
X012929Y002024D01*
X012929Y001993D02*
X012929Y001993D01*
X012929Y002103D02*
X012851Y002103D01*
X012851Y002181D02*
X012929Y002181D01*
X012929Y002260D02*
X012851Y002260D01*
X012851Y002338D02*
X012929Y002338D01*
X012929Y002574D02*
X012851Y002574D01*
X012851Y002652D02*
X012929Y002652D01*
X012929Y002731D02*
X012851Y002731D01*
X012851Y002787D02*
X012851Y002787D01*
X013543Y002888D02*
X010595Y002888D01*
X010851Y002338D02*
X010929Y002338D01*
X010929Y002260D02*
X010851Y002260D01*
X010851Y002181D02*
X010929Y002181D01*
X010929Y002103D02*
X010851Y002103D01*
X010851Y002024D02*
X010929Y002024D01*
X010929Y001993D02*
X010929Y001993D01*
X010929Y001787D02*
X010929Y001429D01*
X011287Y001429D01*
X011272Y001506D01*
X011242Y001578D01*
X011199Y001643D01*
X011143Y001699D01*
X011078Y001742D01*
X011006Y001772D01*
X010929Y001787D01*
X010929Y001787D01*
X010929Y001710D02*
X010851Y001710D01*
X010851Y001787D02*
X010851Y001787D01*
X010851Y001632D02*
X010929Y001632D01*
X010929Y001553D02*
X010851Y001553D01*
X010851Y001475D02*
X010929Y001475D01*
X010929Y001318D02*
X010851Y001318D01*
X010851Y001239D02*
X010929Y001239D01*
X010929Y001161D02*
X010851Y001161D01*
X010851Y001082D02*
X010929Y001082D01*
X010929Y000993D02*
X010929Y000993D01*
X011144Y001082D02*
X011636Y001082D01*
X011565Y001161D02*
X011215Y001161D01*
X011258Y001239D02*
X011522Y001239D01*
X011499Y001318D02*
X011281Y001318D01*
X011287Y001429D02*
X011287Y001429D01*
X011278Y001475D02*
X011502Y001475D01*
X011527Y001553D02*
X011253Y001553D01*
X011207Y001632D02*
X011573Y001632D01*
X011653Y001710D02*
X011127Y001710D01*
X010653Y001710D02*
X010404Y001710D01*
X010437Y001632D02*
X010573Y001632D01*
X010527Y001553D02*
X010469Y001553D01*
X010487Y001475D02*
X010502Y001475D01*
X011493Y001351D02*
X011493Y001351D01*
X011851Y001318D02*
X011929Y001318D01*
X011929Y001239D02*
X011851Y001239D01*
X011851Y001161D02*
X011929Y001161D01*
X011929Y001082D02*
X011851Y001082D01*
X011929Y000993D02*
X011929Y000993D01*
X012144Y001082D02*
X012636Y001082D01*
X012565Y001161D02*
X012215Y001161D01*
X012258Y001239D02*
X012522Y001239D01*
X012499Y001318D02*
X012281Y001318D01*
X012287Y001429D02*
X012287Y001429D01*
X012272Y001506D01*
X012242Y001578D01*
X012199Y001643D01*
X012143Y001699D01*
X012078Y001742D01*
X012006Y001772D01*
X011929Y001787D01*
X011929Y001787D01*
X011929Y001429D01*
X012287Y001429D01*
X012278Y001475D02*
X012502Y001475D01*
X012527Y001553D02*
X012253Y001553D01*
X012207Y001632D02*
X012573Y001632D01*
X012653Y001710D02*
X012127Y001710D01*
X011929Y001710D02*
X011851Y001710D01*
X011851Y001787D02*
X011851Y001787D01*
X011851Y001632D02*
X011929Y001632D01*
X011929Y001553D02*
X011851Y001553D01*
X011851Y001475D02*
X011929Y001475D01*
X012493Y001351D02*
X012493Y001351D01*
X011326Y003908D02*
X003933Y003908D01*
X003965Y003830D02*
X010145Y003830D01*
X010413Y004144D02*
X006242Y004144D01*
X006321Y004222D02*
X010334Y004222D01*
X010290Y004301D02*
X006365Y004301D01*
X006365Y004379D02*
X010290Y004379D01*
X010290Y004458D02*
X006365Y004458D01*
X006365Y004536D02*
X010290Y004536D01*
X010290Y004615D02*
X006365Y004615D01*
X006365Y004693D02*
X010290Y004693D01*
X010298Y004772D02*
X006357Y004772D01*
X006279Y004850D02*
X010376Y004850D01*
X010455Y004929D02*
X006200Y004929D01*
X006122Y005007D02*
X010533Y005007D01*
X010471Y005086D02*
X006043Y005086D01*
X006186Y005478D02*
X006594Y005478D01*
X006490Y005557D02*
X006290Y005557D01*
X006369Y005635D02*
X006411Y005635D01*
X007186Y005478D02*
X007594Y005478D01*
X007490Y005557D02*
X007290Y005557D01*
X007369Y005635D02*
X007411Y005635D01*
X008186Y005478D02*
X008594Y005478D01*
X008490Y005557D02*
X008290Y005557D01*
X008369Y005635D02*
X008411Y005635D01*
X009186Y005478D02*
X009594Y005478D01*
X009490Y005557D02*
X009290Y005557D01*
X009369Y005635D02*
X009411Y005635D01*
X010186Y005478D02*
X010290Y005478D01*
X010290Y005400D02*
X003990Y005400D01*
X003990Y005478D02*
X004594Y005478D01*
X004490Y005557D02*
X003990Y005557D01*
X003990Y005635D02*
X004411Y005635D01*
X004361Y005714D02*
X003990Y005714D01*
X003990Y005792D02*
X004329Y005792D01*
X004296Y005871D02*
X003990Y005871D01*
X003990Y005949D02*
X004290Y005949D01*
X004290Y006028D02*
X003990Y006028D01*
X003990Y006106D02*
X004290Y006106D01*
X004290Y006185D02*
X003973Y006185D01*
X003941Y006263D02*
X004290Y006263D01*
X004290Y006342D02*
X003908Y006342D01*
X003844Y006420D02*
X004290Y006420D01*
X004290Y006499D02*
X003765Y006499D01*
X003625Y006577D02*
X004290Y006577D01*
X004295Y006656D02*
X000580Y006656D01*
X000580Y006734D02*
X004327Y006734D01*
X004360Y006813D02*
X000580Y006813D01*
X000580Y006891D02*
X004407Y006891D01*
X004486Y006970D02*
X003840Y006970D01*
X003919Y007048D02*
X004585Y007048D01*
X003987Y007205D02*
X007554Y007205D01*
X007490Y007127D02*
X003961Y007127D01*
X003987Y007284D02*
X007633Y007284D01*
X007711Y007362D02*
X003987Y007362D01*
X003987Y007441D02*
X007790Y007441D01*
X007868Y007519D02*
X003987Y007519D01*
X003987Y007598D02*
X007947Y007598D01*
X008025Y007676D02*
X003987Y007676D01*
X003987Y007755D02*
X008104Y007755D01*
X008046Y007833D02*
X003987Y007833D01*
X003958Y007912D02*
X007968Y007912D01*
X007889Y007990D02*
X003911Y007990D01*
X002822Y007912D02*
X002669Y007912D01*
X002774Y007833D02*
X002793Y007833D01*
X002787Y007755D02*
X002793Y007755D01*
X002787Y007676D02*
X002793Y007676D01*
X002787Y007598D02*
X002793Y007598D01*
X002822Y008618D02*
X002668Y008618D01*
X002774Y008697D02*
X002793Y008697D01*
X002787Y008775D02*
X002793Y008775D01*
X002787Y008854D02*
X002793Y008854D01*
X002787Y008932D02*
X002793Y008932D01*
X003908Y010188D02*
X005290Y010188D01*
X005290Y010110D02*
X005047Y010110D01*
X005232Y010031D02*
X005290Y010031D01*
X005290Y010267D02*
X003941Y010267D01*
X003973Y010345D02*
X005290Y010345D01*
X005325Y010424D02*
X003990Y010424D01*
X003990Y010502D02*
X005404Y010502D01*
X005482Y010581D02*
X003990Y010581D01*
X003990Y010659D02*
X005522Y010659D01*
X005444Y010738D02*
X003990Y010738D01*
X003990Y010816D02*
X005365Y010816D01*
X005290Y010895D02*
X003990Y010895D01*
X003990Y010973D02*
X005290Y010973D01*
X005290Y011052D02*
X003990Y011052D01*
X003990Y011130D02*
X005290Y011130D01*
X005290Y011209D02*
X003963Y011209D01*
X003931Y011287D02*
X005290Y011287D01*
X006557Y012151D02*
X007302Y012151D01*
X007290Y012072D02*
X006677Y012072D01*
X006755Y011994D02*
X007290Y011994D01*
X007290Y011915D02*
X006834Y011915D01*
X006912Y011837D02*
X007290Y011837D01*
X007290Y011758D02*
X006991Y011758D01*
X007069Y011680D02*
X007290Y011680D01*
X007330Y011601D02*
X007148Y011601D01*
X007381Y012229D02*
X003987Y012229D01*
X003987Y012308D02*
X007459Y012308D01*
X007538Y012386D02*
X003987Y012386D01*
X003987Y012465D02*
X007616Y012465D01*
X008490Y011837D02*
X008490Y011837D01*
X008490Y011758D02*
X008490Y011758D01*
X008490Y011680D02*
X008535Y011680D01*
X008613Y011601D02*
X008450Y011601D01*
X009195Y012151D02*
X015672Y012151D01*
X015582Y012229D02*
X015203Y012229D01*
X015281Y012308D02*
X015503Y012308D01*
X015859Y012072D02*
X009274Y012072D01*
X009290Y011994D02*
X013900Y011994D01*
X014077Y012386D02*
X014420Y012386D01*
X014342Y012465D02*
X014155Y012465D01*
X014234Y012543D02*
X014290Y012543D01*
X014290Y012622D02*
X014290Y012622D01*
X014290Y012700D02*
X014290Y012700D01*
X015175Y013328D02*
X015665Y013328D01*
X015682Y013250D02*
X015254Y013250D01*
X014944Y013721D02*
X015665Y013721D01*
X015701Y013799D02*
X015023Y013799D01*
X015101Y013878D02*
X015779Y013878D01*
X015845Y013956D02*
X015180Y013956D01*
X015240Y014035D02*
X015845Y014035D01*
X015845Y014113D02*
X015240Y014113D01*
X015240Y014192D02*
X015845Y014192D01*
X015845Y014270D02*
X015240Y014270D01*
X015240Y014349D02*
X015845Y014349D01*
X015845Y014427D02*
X015240Y014427D01*
X015240Y014506D02*
X015845Y014506D01*
X015845Y014584D02*
X015169Y014584D01*
X015091Y014663D02*
X015845Y014663D01*
X015845Y014741D02*
X015012Y014741D01*
X014934Y014820D02*
X015845Y014820D01*
X015845Y014898D02*
X011990Y014898D01*
X011990Y014820D02*
X014346Y014820D01*
X014268Y014741D02*
X011965Y014741D01*
X011939Y014663D02*
X011886Y014663D01*
X011861Y014584D02*
X011808Y014584D01*
X011990Y014977D02*
X015845Y014977D01*
X015845Y015055D02*
X011990Y015055D01*
X011990Y015134D02*
X015845Y015134D01*
X015845Y015212D02*
X011990Y015212D01*
X011963Y015291D02*
X012245Y015291D01*
X012056Y015369D02*
X011884Y015369D01*
X011806Y015448D02*
X011974Y015448D01*
X011895Y015526D02*
X011885Y015526D01*
X012535Y015291D02*
X013245Y015291D01*
X013056Y015369D02*
X012724Y015369D01*
X012806Y015448D02*
X012974Y015448D01*
X012895Y015526D02*
X012885Y015526D01*
X013535Y015291D02*
X015770Y015291D01*
X015692Y015369D02*
X013724Y015369D01*
X013806Y015448D02*
X015613Y015448D01*
X014671Y015526D02*
X013885Y015526D01*
X013925Y015605D02*
X014581Y015605D01*
X014503Y015683D02*
X013958Y015683D01*
X013990Y015762D02*
X014424Y015762D01*
X014346Y015840D02*
X013990Y015840D01*
X013990Y015919D02*
X014267Y015919D01*
X014189Y015997D02*
X013990Y015997D01*
X013990Y016076D02*
X014106Y016076D01*
X014027Y016154D02*
X013990Y016154D01*
X013502Y014663D02*
X012591Y014663D01*
X012669Y014584D02*
X013365Y014584D01*
X013287Y014506D02*
X012748Y014506D01*
X012826Y014427D02*
X013208Y014427D01*
X013130Y014349D02*
X012865Y014349D01*
X012865Y014270D02*
X013051Y014270D01*
X012973Y014192D02*
X012865Y014192D01*
X012865Y014113D02*
X012894Y014113D01*
X010924Y016782D02*
X010856Y016782D01*
X010778Y016861D02*
X010970Y016861D01*
X010970Y016939D02*
X010656Y016939D01*
X010970Y017099D02*
X011034Y017253D01*
X007970Y015448D02*
X007806Y015448D01*
X007885Y015526D02*
X007895Y015526D01*
X007970Y015369D02*
X007724Y015369D01*
X007535Y015291D02*
X007970Y015291D01*
X007310Y010659D02*
X009290Y010659D01*
X009351Y010581D02*
X007310Y010581D01*
X006428Y008618D02*
X006352Y008618D01*
X006273Y008540D02*
X006507Y008540D01*
X006635Y008461D02*
X006145Y008461D01*
X005635Y008461D02*
X005145Y008461D01*
X005273Y008540D02*
X005507Y008540D01*
X005428Y008618D02*
X005352Y008618D01*
X005195Y007048D02*
X005585Y007048D01*
X005486Y006970D02*
X005294Y006970D01*
X005373Y006891D02*
X005407Y006891D01*
X006195Y007048D02*
X006585Y007048D01*
X006486Y006970D02*
X006294Y006970D01*
X006373Y006891D02*
X006407Y006891D01*
X007195Y007048D02*
X007458Y007048D01*
X007430Y006970D02*
X007294Y006970D01*
X007373Y006891D02*
X007407Y006891D01*
X007654Y008226D02*
X000580Y008226D01*
X000580Y008304D02*
X007575Y008304D01*
X005411Y005635D02*
X005369Y005635D01*
X005290Y005557D02*
X005490Y005557D01*
X005594Y005478D02*
X005186Y005478D01*
X005043Y005086D02*
X005487Y005086D01*
X005408Y005007D02*
X005122Y005007D01*
X005200Y004929D02*
X005330Y004929D01*
X005288Y004144D02*
X005242Y004144D01*
X005164Y004065D02*
X005366Y004065D01*
X005445Y003987D02*
X005085Y003987D01*
X006085Y003987D02*
X010570Y003987D01*
X010491Y004065D02*
X006164Y004065D01*
X003898Y005164D02*
X010392Y005164D01*
X010314Y005243D02*
X003931Y005243D01*
X003963Y005321D02*
X010290Y005321D01*
X011490Y005635D02*
X011536Y005635D01*
X011490Y005714D02*
X011615Y005714D01*
X011462Y005792D02*
X012568Y005792D01*
X012546Y005871D02*
X011484Y005871D01*
X011490Y005949D02*
X012540Y005949D01*
X012540Y006028D02*
X011490Y006028D01*
X011490Y006106D02*
X012540Y006106D01*
X012540Y006185D02*
X011490Y006185D01*
X011490Y006263D02*
X012540Y006263D01*
X012540Y006342D02*
X011490Y006342D01*
X011490Y006420D02*
X012540Y006420D01*
X012540Y006499D02*
X011490Y006499D01*
X011490Y006577D02*
X012540Y006577D01*
X012545Y006656D02*
X011485Y006656D01*
X011453Y006734D02*
X012577Y006734D01*
X012610Y006813D02*
X011420Y006813D01*
X011373Y006891D02*
X012657Y006891D01*
X012540Y005714D02*
X012165Y005714D01*
X012244Y005635D02*
X012540Y005635D01*
X012540Y005557D02*
X012322Y005557D01*
X012401Y005478D02*
X012540Y005478D01*
X012540Y005400D02*
X012479Y005400D01*
X012490Y005321D02*
X012540Y005321D01*
X012564Y005243D02*
X012490Y005243D01*
X012490Y005164D02*
X012642Y005164D01*
X012721Y005086D02*
X012490Y005086D01*
X011390Y004144D02*
X011367Y004144D01*
X011390Y004065D02*
X011289Y004065D01*
X011210Y003987D02*
X011390Y003987D01*
X014709Y005810D02*
X014740Y005886D01*
X014740Y006644D01*
X014649Y006865D01*
X014584Y006930D01*
X015449Y006930D01*
X015597Y006782D01*
X015540Y006644D01*
X015540Y005886D01*
X015571Y005810D01*
X015491Y005810D01*
X015494Y005816D01*
X015525Y005888D01*
X015540Y005966D01*
X015540Y006225D01*
X015180Y006225D01*
X015180Y006305D01*
X015100Y006305D01*
X015100Y006925D01*
X015023Y006910D01*
X014951Y006879D01*
X014885Y006836D01*
X014829Y006780D01*
X014786Y006714D01*
X014755Y006642D01*
X014740Y006564D01*
X014740Y006305D01*
X015100Y006305D01*
X015100Y006225D01*
X014740Y006225D01*
X014740Y005966D01*
X014755Y005888D01*
X014786Y005816D01*
X014789Y005810D01*
X014709Y005810D01*
X014734Y005871D02*
X014763Y005871D01*
X014743Y005949D02*
X014740Y005949D01*
X014740Y006028D02*
X014740Y006028D01*
X014740Y006106D02*
X014740Y006106D01*
X014740Y006185D02*
X014740Y006185D01*
X014740Y006263D02*
X015100Y006263D01*
X015100Y006342D02*
X015180Y006342D01*
X015180Y006305D02*
X015180Y006925D01*
X015257Y006910D01*
X015329Y006879D01*
X015395Y006836D01*
X015451Y006780D01*
X015494Y006714D01*
X015525Y006642D01*
X015540Y006564D01*
X015540Y006305D01*
X015180Y006305D01*
X015180Y006263D02*
X015540Y006263D01*
X015540Y006185D02*
X015540Y006185D01*
X015540Y006106D02*
X015540Y006106D01*
X015540Y006028D02*
X015540Y006028D01*
X015537Y005949D02*
X015540Y005949D01*
X015546Y005871D02*
X015517Y005871D01*
X015540Y006342D02*
X015540Y006342D01*
X015540Y006420D02*
X015540Y006420D01*
X015540Y006499D02*
X015540Y006499D01*
X015537Y006577D02*
X015540Y006577D01*
X015545Y006656D02*
X015519Y006656D01*
X015481Y006734D02*
X015577Y006734D01*
X015567Y006813D02*
X015418Y006813D01*
X015488Y006891D02*
X015302Y006891D01*
X015180Y006891D02*
X015100Y006891D01*
X015100Y006813D02*
X015180Y006813D01*
X015180Y006734D02*
X015100Y006734D01*
X015100Y006656D02*
X015180Y006656D01*
X015180Y006577D02*
X015100Y006577D01*
X015100Y006499D02*
X015180Y006499D01*
X015180Y006420D02*
X015100Y006420D01*
X014761Y006656D02*
X014735Y006656D01*
X014740Y006577D02*
X014743Y006577D01*
X014740Y006499D02*
X014740Y006499D01*
X014740Y006420D02*
X014740Y006420D01*
X014740Y006342D02*
X014740Y006342D01*
X014703Y006734D02*
X014799Y006734D01*
X014862Y006813D02*
X014670Y006813D01*
X014623Y006891D02*
X014978Y006891D01*
X016600Y006914D02*
X016600Y006970D01*
X017736Y006970D01*
X017631Y006865D01*
X017540Y006644D01*
X017540Y005886D01*
X017631Y005665D01*
X017685Y005611D01*
X017485Y005411D01*
X017485Y004889D01*
X016746Y005628D01*
X016666Y005708D01*
X016740Y005886D01*
X016740Y006644D01*
X016649Y006865D01*
X016600Y006914D01*
X016623Y006891D02*
X016978Y006891D01*
X016951Y006879D02*
X016885Y006836D01*
X016829Y006780D01*
X016786Y006714D01*
X016755Y006642D01*
X016740Y006564D01*
X016740Y006305D01*
X017100Y006305D01*
X017100Y006925D01*
X017023Y006910D01*
X016951Y006879D01*
X016862Y006813D02*
X016670Y006813D01*
X016703Y006734D02*
X016799Y006734D01*
X016761Y006656D02*
X016735Y006656D01*
X016740Y006577D02*
X016743Y006577D01*
X016740Y006499D02*
X016740Y006499D01*
X016740Y006420D02*
X016740Y006420D01*
X016740Y006342D02*
X016740Y006342D01*
X016740Y006263D02*
X017100Y006263D01*
X017100Y006225D02*
X016740Y006225D01*
X016740Y005966D01*
X016755Y005888D01*
X016786Y005816D01*
X016829Y005750D01*
X016885Y005694D01*
X016951Y005651D01*
X017023Y005620D01*
X017100Y005605D01*
X017100Y006225D01*
X017180Y006225D01*
X017180Y006305D01*
X017540Y006305D01*
X017540Y006564D01*
X017525Y006642D01*
X017494Y006714D01*
X017451Y006780D01*
X017395Y006836D01*
X017329Y006879D01*
X017257Y006910D01*
X017180Y006925D01*
X017180Y006305D01*
X017100Y006305D01*
X017100Y006225D01*
X017100Y006185D02*
X017180Y006185D01*
X017180Y006225D02*
X017180Y005605D01*
X017257Y005620D01*
X017329Y005651D01*
X017395Y005694D01*
X017451Y005750D01*
X017494Y005816D01*
X017525Y005888D01*
X017540Y005966D01*
X017540Y006225D01*
X017180Y006225D01*
X017180Y006263D02*
X017540Y006263D01*
X017540Y006185D02*
X017540Y006185D01*
X017540Y006106D02*
X017540Y006106D01*
X017540Y006028D02*
X017540Y006028D01*
X017537Y005949D02*
X017540Y005949D01*
X017546Y005871D02*
X017517Y005871D01*
X017479Y005792D02*
X017579Y005792D01*
X017611Y005714D02*
X017414Y005714D01*
X017292Y005635D02*
X017661Y005635D01*
X017630Y005557D02*
X016817Y005557D01*
X016746Y005628D02*
X016746Y005628D01*
X016739Y005635D02*
X016988Y005635D01*
X017100Y005635D02*
X017180Y005635D01*
X017180Y005714D02*
X017100Y005714D01*
X017100Y005792D02*
X017180Y005792D01*
X017180Y005871D02*
X017100Y005871D01*
X017100Y005949D02*
X017180Y005949D01*
X017180Y006028D02*
X017100Y006028D01*
X017100Y006106D02*
X017180Y006106D01*
X017180Y006342D02*
X017100Y006342D01*
X017100Y006420D02*
X017180Y006420D01*
X017180Y006499D02*
X017100Y006499D01*
X017100Y006577D02*
X017180Y006577D01*
X017180Y006656D02*
X017100Y006656D01*
X017100Y006734D02*
X017180Y006734D01*
X017180Y006813D02*
X017100Y006813D01*
X017100Y006891D02*
X017180Y006891D01*
X017302Y006891D02*
X017657Y006891D01*
X017610Y006813D02*
X017418Y006813D01*
X017481Y006734D02*
X017577Y006734D01*
X017545Y006656D02*
X017519Y006656D01*
X017537Y006577D02*
X017540Y006577D01*
X017540Y006499D02*
X017540Y006499D01*
X017540Y006420D02*
X017540Y006420D01*
X017540Y006342D02*
X017540Y006342D01*
X017736Y006970D02*
X016600Y006970D01*
X016740Y006185D02*
X016740Y006185D01*
X016740Y006106D02*
X016740Y006106D01*
X016740Y006028D02*
X016740Y006028D01*
X016740Y005949D02*
X016743Y005949D01*
X016734Y005871D02*
X016763Y005871D01*
X016801Y005792D02*
X016701Y005792D01*
X016669Y005714D02*
X016866Y005714D01*
X016896Y005478D02*
X017552Y005478D01*
X017485Y005400D02*
X016974Y005400D01*
X017053Y005321D02*
X017485Y005321D01*
X017485Y005243D02*
X017131Y005243D01*
X017210Y005164D02*
X017485Y005164D01*
X017485Y005086D02*
X017288Y005086D01*
X017367Y005007D02*
X017485Y005007D01*
X017485Y004929D02*
X017445Y004929D01*
X017784Y004536D02*
X017818Y004536D01*
X017810Y004458D02*
X018984Y004458D01*
X018905Y004379D02*
X017810Y004379D01*
X017828Y004301D02*
X018827Y004301D01*
X018790Y004222D02*
X017907Y004222D01*
X017985Y004144D02*
X018790Y004144D01*
X018790Y004065D02*
X017990Y004065D01*
X017990Y003987D02*
X018790Y003987D01*
X018790Y003908D02*
X017990Y003908D01*
X017990Y003830D02*
X018790Y003830D01*
X018805Y003751D02*
X017990Y003751D01*
X017990Y003673D02*
X018884Y003673D01*
X018962Y003594D02*
X017943Y003594D01*
X017864Y003516D02*
X019041Y003516D01*
X018963Y003437D02*
X017786Y003437D01*
X017770Y003359D02*
X018885Y003359D01*
X018806Y003280D02*
X017849Y003280D01*
X017927Y003202D02*
X018790Y003202D01*
X018790Y003123D02*
X017990Y003123D01*
X017990Y003045D02*
X018790Y003045D01*
X018790Y002966D02*
X017990Y002966D01*
X017990Y002888D02*
X018790Y002888D01*
X018790Y002809D02*
X017990Y002809D01*
X017990Y002731D02*
X018826Y002731D01*
X018904Y002652D02*
X017990Y002652D01*
X017922Y002574D02*
X018983Y002574D01*
X019061Y002495D02*
X017844Y002495D01*
X017765Y002417D02*
X019140Y002417D01*
X019385Y002338D02*
X017687Y002338D01*
X017641Y001946D02*
X018139Y001946D01*
X018008Y001867D02*
X017772Y001867D01*
X017850Y001789D02*
X017930Y001789D01*
X018641Y001946D02*
X019139Y001946D01*
X019008Y001867D02*
X018772Y001867D01*
X018850Y001789D02*
X018930Y001789D01*
X017010Y003359D02*
X016832Y003359D01*
X016911Y003437D02*
X016994Y003437D01*
X016931Y003280D02*
X016754Y003280D01*
X016675Y003202D02*
X016853Y003202D01*
X018462Y004536D02*
X018818Y004536D01*
X018739Y004615D02*
X018541Y004615D01*
X018619Y004693D02*
X018661Y004693D01*
X015627Y004929D02*
X015370Y004929D01*
X015448Y004850D02*
X015549Y004850D01*
X015449Y008600D02*
X014584Y008600D01*
X014649Y008665D01*
X014740Y008886D01*
X014740Y009644D01*
X014649Y009865D01*
X014595Y009919D01*
X014795Y010119D01*
X014795Y010661D01*
X014650Y010806D01*
X014689Y010845D01*
X016349Y010845D01*
X016503Y010909D01*
X016540Y010946D01*
X016540Y010766D01*
X016891Y010415D01*
X017389Y010415D01*
X017640Y010666D01*
X017891Y010415D01*
X018389Y010415D01*
X018703Y010729D01*
X018891Y010540D01*
X019220Y010540D01*
X019220Y010125D01*
X019021Y010125D01*
X018800Y010034D01*
X018640Y009874D01*
X018480Y010034D01*
X018259Y010125D01*
X018021Y010125D01*
X017800Y010034D01*
X017640Y009874D01*
X017480Y010034D01*
X017259Y010125D01*
X017021Y010125D01*
X016800Y010034D01*
X016640Y009874D01*
X016480Y010034D01*
X016259Y010125D01*
X016021Y010125D01*
X015800Y010034D01*
X015631Y009865D01*
X015540Y009644D01*
X015540Y008886D01*
X015597Y008748D01*
X015449Y008600D01*
X015467Y008618D02*
X015245Y008618D01*
X015257Y008620D02*
X015329Y008651D01*
X015395Y008694D01*
X015451Y008750D01*
X015494Y008816D01*
X015525Y008888D01*
X015540Y008966D01*
X015540Y009225D01*
X015180Y009225D01*
X015180Y009305D01*
X015540Y009305D01*
X015540Y009564D01*
X015525Y009642D01*
X015494Y009714D01*
X015451Y009780D01*
X015395Y009836D01*
X015329Y009879D01*
X015257Y009910D01*
X015180Y009925D01*
X015180Y009305D01*
X015100Y009305D01*
X015100Y009925D01*
X015023Y009910D01*
X014951Y009879D01*
X014885Y009836D01*
X014829Y009780D01*
X014786Y009714D01*
X014755Y009642D01*
X014740Y009564D01*
X014740Y009305D01*
X015100Y009305D01*
X015100Y009225D01*
X015180Y009225D01*
X015180Y008605D01*
X015257Y008620D01*
X015180Y008618D02*
X015100Y008618D01*
X015100Y008605D02*
X015100Y009225D01*
X014740Y009225D01*
X014740Y008966D01*
X014755Y008888D01*
X014786Y008816D01*
X014829Y008750D01*
X014885Y008694D01*
X014951Y008651D01*
X015023Y008620D01*
X015100Y008605D01*
X015035Y008618D02*
X014602Y008618D01*
X014662Y008697D02*
X014883Y008697D01*
X014813Y008775D02*
X014694Y008775D01*
X014727Y008854D02*
X014770Y008854D01*
X014747Y008932D02*
X014740Y008932D01*
X014740Y009011D02*
X014740Y009011D01*
X014740Y009089D02*
X014740Y009089D01*
X014740Y009168D02*
X014740Y009168D01*
X014740Y009246D02*
X015100Y009246D01*
X015100Y009168D02*
X015180Y009168D01*
X015180Y009246D02*
X015540Y009246D01*
X015540Y009168D02*
X015540Y009168D01*
X015540Y009089D02*
X015540Y009089D01*
X015540Y009011D02*
X015540Y009011D01*
X015533Y008932D02*
X015540Y008932D01*
X015553Y008854D02*
X015510Y008854D01*
X015467Y008775D02*
X015586Y008775D01*
X015546Y008697D02*
X015397Y008697D01*
X015180Y008697D02*
X015100Y008697D01*
X015100Y008775D02*
X015180Y008775D01*
X015180Y008854D02*
X015100Y008854D01*
X015100Y008932D02*
X015180Y008932D01*
X015180Y009011D02*
X015100Y009011D01*
X015100Y009089D02*
X015180Y009089D01*
X015180Y009325D02*
X015100Y009325D01*
X015100Y009403D02*
X015180Y009403D01*
X015180Y009482D02*
X015100Y009482D01*
X015100Y009560D02*
X015180Y009560D01*
X015180Y009639D02*
X015100Y009639D01*
X015100Y009717D02*
X015180Y009717D01*
X015180Y009796D02*
X015100Y009796D01*
X015100Y009874D02*
X015180Y009874D01*
X015338Y009874D02*
X015641Y009874D01*
X015603Y009796D02*
X015435Y009796D01*
X015493Y009717D02*
X015570Y009717D01*
X015540Y009639D02*
X015525Y009639D01*
X015540Y009560D02*
X015540Y009560D01*
X015540Y009482D02*
X015540Y009482D01*
X015540Y009403D02*
X015540Y009403D01*
X015540Y009325D02*
X015540Y009325D01*
X015719Y009953D02*
X014629Y009953D01*
X014639Y009874D02*
X014942Y009874D01*
X014845Y009796D02*
X014677Y009796D01*
X014710Y009717D02*
X014787Y009717D01*
X014755Y009639D02*
X014740Y009639D01*
X014740Y009560D02*
X014740Y009560D01*
X014740Y009482D02*
X014740Y009482D01*
X014740Y009403D02*
X014740Y009403D01*
X014740Y009325D02*
X014740Y009325D01*
X014707Y010031D02*
X015798Y010031D01*
X015983Y010110D02*
X014786Y010110D01*
X014795Y010188D02*
X019220Y010188D01*
X019220Y010267D02*
X014795Y010267D01*
X014795Y010345D02*
X019220Y010345D01*
X019220Y010424D02*
X018397Y010424D01*
X018476Y010502D02*
X019220Y010502D01*
X018851Y010581D02*
X018554Y010581D01*
X018633Y010659D02*
X018772Y010659D01*
X018983Y010110D02*
X018297Y010110D01*
X018482Y010031D02*
X018798Y010031D01*
X018719Y009953D02*
X018561Y009953D01*
X018639Y009874D02*
X018641Y009874D01*
X017983Y010110D02*
X017297Y010110D01*
X017482Y010031D02*
X017798Y010031D01*
X017719Y009953D02*
X017561Y009953D01*
X017639Y009874D02*
X017641Y009874D01*
X017883Y010424D02*
X017397Y010424D01*
X017476Y010502D02*
X017804Y010502D01*
X017726Y010581D02*
X017554Y010581D01*
X017633Y010659D02*
X017647Y010659D01*
X016983Y010110D02*
X016297Y010110D01*
X016482Y010031D02*
X016798Y010031D01*
X016719Y009953D02*
X016561Y009953D01*
X016639Y009874D02*
X016641Y009874D01*
X016883Y010424D02*
X014795Y010424D01*
X014795Y010502D02*
X016804Y010502D01*
X016726Y010581D02*
X014795Y010581D01*
X014795Y010659D02*
X016647Y010659D01*
X016569Y010738D02*
X014719Y010738D01*
X014660Y010816D02*
X016540Y010816D01*
X016540Y010895D02*
X016468Y010895D01*
X015760Y013171D02*
X015757Y013171D01*
X003203Y004222D02*
X002577Y004222D01*
X002745Y004144D02*
X003035Y004144D01*
X002956Y004065D02*
X002824Y004065D01*
X001429Y007127D02*
X001351Y007127D01*
X001351Y007205D02*
X001429Y007205D01*
X001429Y007284D02*
X001351Y007284D01*
X001351Y007362D02*
X001429Y007362D01*
X001429Y007441D02*
X001351Y007441D01*
X001351Y007598D02*
X001429Y007598D01*
X001429Y007676D02*
X001351Y007676D01*
X001351Y007755D02*
X001429Y007755D01*
X001429Y007833D02*
X001351Y007833D01*
X000993Y007362D02*
X000580Y007362D01*
X000580Y007284D02*
X000993Y007284D01*
X001002Y007205D02*
X000580Y007205D01*
X000580Y007127D02*
X001080Y007127D01*
X001351Y009089D02*
X001429Y009089D01*
X001429Y009168D02*
X001351Y009168D01*
X001351Y009246D02*
X001429Y009246D01*
X001429Y009325D02*
X001351Y009325D01*
X001351Y009403D02*
X001429Y009403D01*
X001079Y009403D02*
X000580Y009403D01*
X000580Y009325D02*
X001002Y009325D01*
X000993Y009246D02*
X000580Y009246D01*
X000580Y009168D02*
X000993Y009168D01*
X001328Y010110D02*
X000580Y010110D01*
X000580Y010188D02*
X001144Y010188D01*
X001068Y010267D02*
X000580Y010267D01*
X000580Y010345D02*
X001023Y010345D01*
X000998Y010424D02*
X000580Y010424D01*
X000580Y010502D02*
X000990Y010502D01*
X000990Y010581D02*
X000580Y010581D01*
X000580Y010659D02*
X000990Y010659D01*
X001350Y010659D02*
X001430Y010659D01*
X001430Y010581D02*
X001350Y010581D01*
X001350Y010502D02*
X001430Y010502D01*
X001430Y010424D02*
X001350Y010424D01*
X001350Y010345D02*
X001430Y010345D01*
X001430Y010267D02*
X001350Y010267D01*
X001350Y010188D02*
X001430Y010188D01*
X001430Y010110D02*
X001350Y010110D01*
X001790Y010816D02*
X001790Y010816D01*
X001790Y010895D02*
X001790Y010895D01*
X001790Y010973D02*
X001790Y010973D01*
X001790Y011052D02*
X001790Y011052D01*
X001790Y011130D02*
X001777Y011130D01*
X001747Y011209D02*
X001817Y011209D01*
X001849Y011287D02*
X001694Y011287D01*
X001600Y011366D02*
X001882Y011366D01*
X001430Y011366D02*
X001350Y011366D01*
X001350Y011287D02*
X001430Y011287D01*
X001430Y011209D02*
X001350Y011209D01*
X001350Y011130D02*
X001430Y011130D01*
X001430Y011052D02*
X001350Y011052D01*
X001350Y010973D02*
X001430Y010973D01*
X001430Y010895D02*
X001350Y010895D01*
D18*
X007890Y009265D02*
X007890Y008640D01*
X008390Y008140D01*
X012015Y008140D01*
X011890Y008265D01*
X011890Y008140D01*
X012015Y008140D02*
X015640Y008140D01*
X016140Y008640D01*
X016140Y009265D01*
X015640Y007390D02*
X016140Y006890D01*
X016140Y006265D01*
X015640Y007390D02*
X008390Y007390D01*
X007890Y006890D01*
X007890Y006265D01*
D19*
X010390Y003390D02*
X011515Y003390D01*
X011890Y003765D01*
X011890Y005140D01*
X010390Y003390D02*
X009890Y002890D01*
X009890Y002390D01*
X009890Y001390D01*
X013890Y001390D02*
X014890Y001390D01*
X015515Y000765D01*
X016390Y000765D01*
X013890Y001390D02*
X013890Y002390D01*
M02*
