G75*
%MOIN*%
%OFA0B0*%
%FSLAX25Y25*%
%IPPOS*%
%LPD*%
%AMOC8*
5,1,8,0,0,1.08239X$1,22.5*
%
%ADD10C,0.06800*%
%ADD11R,0.04762X0.04762*%
D10*
X0062312Y0102513D02*
X0068312Y0102513D01*
X0068312Y0112513D02*
X0062312Y0112513D01*
X0062312Y0122513D02*
X0068312Y0122513D01*
X0068312Y0132513D02*
X0062312Y0132513D01*
X0062312Y0142513D02*
X0068312Y0142513D01*
X0068312Y0152513D02*
X0062312Y0152513D01*
X0062312Y0162513D02*
X0068312Y0162513D01*
X0112312Y0162513D02*
X0118312Y0162513D01*
X0118312Y0152513D02*
X0112312Y0152513D01*
X0112312Y0142513D02*
X0118312Y0142513D01*
X0118312Y0132513D02*
X0112312Y0132513D01*
X0112312Y0122513D02*
X0118312Y0122513D01*
X0118312Y0112513D02*
X0112312Y0112513D01*
X0112312Y0102513D02*
X0118312Y0102513D01*
X0115312Y0075513D02*
X0115312Y0069513D01*
X0105312Y0069513D02*
X0105312Y0075513D01*
X0125312Y0075513D02*
X0125312Y0069513D01*
X0135312Y0069513D02*
X0135312Y0075513D01*
X0135312Y0025513D02*
X0135312Y0019513D01*
X0125312Y0019513D02*
X0125312Y0025513D01*
X0115312Y0025513D02*
X0115312Y0019513D01*
X0105312Y0019513D02*
X0105312Y0025513D01*
X0192312Y0032513D02*
X0198312Y0032513D01*
X0198312Y0042513D02*
X0192312Y0042513D01*
X0192312Y0052513D02*
X0198312Y0052513D01*
X0198312Y0062513D02*
X0192312Y0062513D01*
X0192312Y0072513D02*
X0198312Y0072513D01*
X0198312Y0082513D02*
X0192312Y0082513D01*
X0192312Y0092513D02*
X0198312Y0092513D01*
X0198312Y0102513D02*
X0192312Y0102513D01*
X0242312Y0102513D02*
X0248312Y0102513D01*
X0248312Y0092513D02*
X0242312Y0092513D01*
X0242312Y0082513D02*
X0248312Y0082513D01*
X0248312Y0072513D02*
X0242312Y0072513D01*
X0242312Y0062513D02*
X0248312Y0062513D01*
X0248312Y0052513D02*
X0242312Y0052513D01*
X0242312Y0042513D02*
X0248312Y0042513D01*
X0248312Y0032513D02*
X0242312Y0032513D01*
X0238312Y0152513D02*
X0232312Y0152513D01*
X0232312Y0162513D02*
X0238312Y0162513D01*
X0238312Y0172513D02*
X0232312Y0172513D01*
X0208312Y0172513D02*
X0202312Y0172513D01*
X0202312Y0162513D02*
X0208312Y0162513D01*
X0208312Y0152513D02*
X0202312Y0152513D01*
X0202312Y0222513D02*
X0208312Y0222513D01*
X0208312Y0232513D02*
X0202312Y0232513D01*
X0202312Y0242513D02*
X0208312Y0242513D01*
X0098312Y0222513D02*
X0092312Y0222513D01*
X0092312Y0212513D02*
X0098312Y0212513D01*
D11*
X0220312Y0083513D03*
X0220312Y0075513D03*
X0220312Y0058513D03*
X0220312Y0050513D03*
M02*
