G75*
%MOIN*%
%OFA0B0*%
%FSLAX25Y25*%
%IPPOS*%
%LPD*%
%AMOC8*
5,1,8,0,0,1.08239X$1,22.5*
%
%ADD10C,0.01600*%
%ADD11C,0.00800*%
%ADD12C,0.01181*%
%ADD13R,0.01969X0.01181*%
%ADD14C,0.00600*%
%ADD15R,0.02000X0.02000*%
%ADD16R,0.01800X0.02300*%
%ADD17R,0.03400X0.01600*%
%ADD18R,0.06900X0.02900*%
%ADD19C,0.00200*%
%ADD20R,0.04500X0.02000*%
%ADD21R,0.01929X0.04331*%
D10*
X0195312Y0212513D02*
X0235312Y0212513D01*
X0235312Y0252513D01*
X0195312Y0252513D01*
X0195312Y0212513D01*
D11*
X0218146Y0166450D02*
X0222477Y0166450D01*
X0222477Y0158576D01*
X0218146Y0158576D01*
X0218146Y0166450D01*
X0129761Y0054993D02*
X0110863Y0054993D01*
X0110863Y0042001D01*
X0129761Y0042001D01*
X0129761Y0040032D01*
X0110863Y0040032D01*
X0110863Y0042001D01*
X0129761Y0042001D02*
X0129761Y0054993D01*
D12*
X0219328Y0165269D03*
D13*
X0216965Y0165072D03*
X0216965Y0162513D03*
X0216965Y0159954D03*
X0223658Y0159954D03*
X0223658Y0162513D03*
X0223658Y0165072D03*
D14*
X0062812Y0097513D02*
X0060312Y0100013D01*
X0060312Y0105013D01*
X0062812Y0107513D01*
X0060312Y0110013D01*
X0060312Y0115013D01*
X0062812Y0117513D01*
X0060312Y0120013D01*
X0060312Y0125013D01*
X0062812Y0127513D01*
X0060312Y0130013D01*
X0060312Y0135013D01*
X0062812Y0137513D01*
X0060312Y0140013D01*
X0060312Y0145013D01*
X0062812Y0147513D01*
X0060312Y0150013D01*
X0060312Y0155013D01*
X0062812Y0157513D01*
X0060312Y0160013D01*
X0060312Y0165013D01*
X0062812Y0167513D01*
X0067812Y0167513D01*
X0070312Y0165013D01*
X0070312Y0160013D01*
X0067812Y0157513D01*
X0070312Y0155013D01*
X0070312Y0150013D01*
X0067812Y0147513D01*
X0062812Y0147513D01*
X0067812Y0147513D02*
X0070312Y0145013D01*
X0070312Y0140013D01*
X0067812Y0137513D01*
X0070312Y0135013D01*
X0070312Y0130013D01*
X0067812Y0127513D01*
X0070312Y0125013D01*
X0070312Y0120013D01*
X0067812Y0117513D01*
X0062812Y0117513D01*
X0067812Y0117513D02*
X0070312Y0115013D01*
X0070312Y0110013D01*
X0067812Y0107513D01*
X0070312Y0105013D01*
X0070312Y0100013D01*
X0067812Y0097513D01*
X0062812Y0097513D01*
X0062812Y0107513D02*
X0067812Y0107513D01*
X0082612Y0116513D02*
X0082612Y0148513D01*
X0082614Y0148589D01*
X0082620Y0148665D01*
X0082629Y0148740D01*
X0082643Y0148815D01*
X0082660Y0148889D01*
X0082681Y0148962D01*
X0082705Y0149034D01*
X0082734Y0149105D01*
X0082765Y0149174D01*
X0082800Y0149241D01*
X0082839Y0149306D01*
X0082881Y0149370D01*
X0082926Y0149431D01*
X0082974Y0149490D01*
X0083025Y0149546D01*
X0083079Y0149600D01*
X0083135Y0149651D01*
X0083194Y0149699D01*
X0083255Y0149744D01*
X0083319Y0149786D01*
X0083384Y0149825D01*
X0083451Y0149860D01*
X0083520Y0149891D01*
X0083591Y0149920D01*
X0083663Y0149944D01*
X0083736Y0149965D01*
X0083810Y0149982D01*
X0083885Y0149996D01*
X0083960Y0150005D01*
X0084036Y0150011D01*
X0084112Y0150013D01*
X0088312Y0150013D01*
X0092312Y0150013D01*
X0096512Y0150013D01*
X0096588Y0150011D01*
X0096664Y0150005D01*
X0096739Y0149996D01*
X0096814Y0149982D01*
X0096888Y0149965D01*
X0096961Y0149944D01*
X0097033Y0149920D01*
X0097104Y0149891D01*
X0097173Y0149860D01*
X0097240Y0149825D01*
X0097305Y0149786D01*
X0097369Y0149744D01*
X0097430Y0149699D01*
X0097489Y0149651D01*
X0097545Y0149600D01*
X0097599Y0149546D01*
X0097650Y0149490D01*
X0097698Y0149431D01*
X0097743Y0149370D01*
X0097785Y0149306D01*
X0097824Y0149241D01*
X0097859Y0149174D01*
X0097890Y0149105D01*
X0097919Y0149034D01*
X0097943Y0148962D01*
X0097964Y0148889D01*
X0097981Y0148815D01*
X0097995Y0148740D01*
X0098004Y0148665D01*
X0098010Y0148589D01*
X0098012Y0148513D01*
X0098012Y0116513D01*
X0098010Y0116437D01*
X0098004Y0116361D01*
X0097995Y0116286D01*
X0097981Y0116211D01*
X0097964Y0116137D01*
X0097943Y0116064D01*
X0097919Y0115992D01*
X0097890Y0115921D01*
X0097859Y0115852D01*
X0097824Y0115785D01*
X0097785Y0115720D01*
X0097743Y0115656D01*
X0097698Y0115595D01*
X0097650Y0115536D01*
X0097599Y0115480D01*
X0097545Y0115426D01*
X0097489Y0115375D01*
X0097430Y0115327D01*
X0097369Y0115282D01*
X0097305Y0115240D01*
X0097240Y0115201D01*
X0097173Y0115166D01*
X0097104Y0115135D01*
X0097033Y0115106D01*
X0096961Y0115082D01*
X0096888Y0115061D01*
X0096814Y0115044D01*
X0096739Y0115030D01*
X0096664Y0115021D01*
X0096588Y0115015D01*
X0096512Y0115013D01*
X0084112Y0115013D01*
X0084036Y0115015D01*
X0083960Y0115021D01*
X0083885Y0115030D01*
X0083810Y0115044D01*
X0083736Y0115061D01*
X0083663Y0115082D01*
X0083591Y0115106D01*
X0083520Y0115135D01*
X0083451Y0115166D01*
X0083384Y0115201D01*
X0083319Y0115240D01*
X0083255Y0115282D01*
X0083194Y0115327D01*
X0083135Y0115375D01*
X0083079Y0115426D01*
X0083025Y0115480D01*
X0082974Y0115536D01*
X0082926Y0115595D01*
X0082881Y0115656D01*
X0082839Y0115720D01*
X0082800Y0115785D01*
X0082765Y0115852D01*
X0082734Y0115921D01*
X0082705Y0115992D01*
X0082681Y0116064D01*
X0082660Y0116137D01*
X0082643Y0116211D01*
X0082629Y0116286D01*
X0082620Y0116361D01*
X0082614Y0116437D01*
X0082612Y0116513D01*
X0067812Y0127513D02*
X0062812Y0127513D01*
X0062812Y0137513D02*
X0067812Y0137513D01*
X0067812Y0157513D02*
X0062812Y0157513D01*
X0088312Y0150013D02*
X0088314Y0149925D01*
X0088320Y0149836D01*
X0088330Y0149748D01*
X0088343Y0149661D01*
X0088361Y0149574D01*
X0088382Y0149488D01*
X0088407Y0149403D01*
X0088436Y0149320D01*
X0088469Y0149237D01*
X0088505Y0149157D01*
X0088544Y0149078D01*
X0088587Y0149000D01*
X0088634Y0148925D01*
X0088684Y0148852D01*
X0088737Y0148781D01*
X0088793Y0148712D01*
X0088852Y0148646D01*
X0088914Y0148583D01*
X0088978Y0148523D01*
X0089045Y0148465D01*
X0089115Y0148411D01*
X0089187Y0148359D01*
X0089261Y0148311D01*
X0089338Y0148266D01*
X0089416Y0148225D01*
X0089496Y0148187D01*
X0089577Y0148153D01*
X0089660Y0148122D01*
X0089745Y0148095D01*
X0089830Y0148072D01*
X0089916Y0148053D01*
X0090004Y0148037D01*
X0090091Y0148025D01*
X0090179Y0148017D01*
X0090268Y0148013D01*
X0090356Y0148013D01*
X0090445Y0148017D01*
X0090533Y0148025D01*
X0090620Y0148037D01*
X0090708Y0148053D01*
X0090794Y0148072D01*
X0090879Y0148095D01*
X0090964Y0148122D01*
X0091047Y0148153D01*
X0091128Y0148187D01*
X0091208Y0148225D01*
X0091286Y0148266D01*
X0091363Y0148311D01*
X0091437Y0148359D01*
X0091509Y0148411D01*
X0091579Y0148465D01*
X0091646Y0148523D01*
X0091710Y0148583D01*
X0091772Y0148646D01*
X0091831Y0148712D01*
X0091887Y0148781D01*
X0091940Y0148852D01*
X0091990Y0148925D01*
X0092037Y0149000D01*
X0092080Y0149078D01*
X0092119Y0149157D01*
X0092155Y0149237D01*
X0092188Y0149320D01*
X0092217Y0149403D01*
X0092242Y0149488D01*
X0092263Y0149574D01*
X0092281Y0149661D01*
X0092294Y0149748D01*
X0092304Y0149836D01*
X0092310Y0149925D01*
X0092312Y0150013D01*
X0110312Y0150013D02*
X0110312Y0155013D01*
X0112812Y0157513D01*
X0110312Y0160013D01*
X0110312Y0165013D01*
X0112812Y0167513D01*
X0117812Y0167513D01*
X0120312Y0165013D01*
X0120312Y0160013D01*
X0117812Y0157513D01*
X0120312Y0155013D01*
X0120312Y0150013D01*
X0117812Y0147513D01*
X0120312Y0145013D01*
X0120312Y0140013D01*
X0117812Y0137513D01*
X0120312Y0135013D01*
X0120312Y0130013D01*
X0117812Y0127513D01*
X0120312Y0125013D01*
X0120312Y0120013D01*
X0117812Y0117513D01*
X0120312Y0115013D01*
X0120312Y0110013D01*
X0117812Y0107513D01*
X0120312Y0105013D01*
X0120312Y0100013D01*
X0117812Y0097513D01*
X0112812Y0097513D01*
X0110312Y0100013D01*
X0110312Y0105013D01*
X0112812Y0107513D01*
X0110312Y0110013D01*
X0110312Y0115013D01*
X0112812Y0117513D01*
X0117812Y0117513D01*
X0112812Y0117513D02*
X0110312Y0120013D01*
X0110312Y0125013D01*
X0112812Y0127513D01*
X0110312Y0130013D01*
X0110312Y0135013D01*
X0112812Y0137513D01*
X0110312Y0140013D01*
X0110312Y0145013D01*
X0112812Y0147513D01*
X0117812Y0147513D01*
X0112812Y0147513D02*
X0110312Y0150013D01*
X0112812Y0157513D02*
X0117812Y0157513D01*
X0117812Y0137513D02*
X0112812Y0137513D01*
X0112812Y0127513D02*
X0117812Y0127513D01*
X0117812Y0107513D02*
X0112812Y0107513D01*
X0112812Y0077513D02*
X0117812Y0077513D01*
X0120312Y0075013D01*
X0122812Y0077513D01*
X0127812Y0077513D01*
X0130312Y0075013D01*
X0132812Y0077513D01*
X0137812Y0077513D01*
X0140312Y0075013D01*
X0140312Y0070013D01*
X0137812Y0067513D01*
X0132812Y0067513D01*
X0130312Y0070013D01*
X0127812Y0067513D01*
X0122812Y0067513D01*
X0120312Y0070013D01*
X0120312Y0075013D01*
X0120312Y0070013D02*
X0117812Y0067513D01*
X0112812Y0067513D01*
X0110312Y0070013D01*
X0107812Y0067513D01*
X0102812Y0067513D01*
X0100312Y0070013D01*
X0100312Y0075013D01*
X0102812Y0077513D01*
X0107812Y0077513D01*
X0110312Y0075013D01*
X0112812Y0077513D01*
X0110312Y0075013D02*
X0110312Y0070013D01*
X0130312Y0070013D02*
X0130312Y0075013D01*
X0132812Y0027513D02*
X0130312Y0025013D01*
X0130312Y0020013D01*
X0132812Y0017513D01*
X0137812Y0017513D01*
X0140312Y0020013D01*
X0140312Y0025013D01*
X0137812Y0027513D01*
X0132812Y0027513D01*
X0130312Y0025013D02*
X0127812Y0027513D01*
X0122812Y0027513D01*
X0120312Y0025013D01*
X0120312Y0020013D01*
X0117812Y0017513D01*
X0112812Y0017513D01*
X0110312Y0020013D01*
X0107812Y0017513D01*
X0102812Y0017513D01*
X0100312Y0020013D01*
X0100312Y0025013D01*
X0102812Y0027513D01*
X0107812Y0027513D01*
X0110312Y0025013D01*
X0112812Y0027513D01*
X0117812Y0027513D01*
X0120312Y0025013D01*
X0120312Y0020013D02*
X0122812Y0017513D01*
X0127812Y0017513D01*
X0130312Y0020013D01*
X0110312Y0020013D02*
X0110312Y0025013D01*
X0190312Y0030013D02*
X0190312Y0035013D01*
X0192812Y0037513D01*
X0190312Y0040013D01*
X0190312Y0045013D01*
X0192812Y0047513D01*
X0190312Y0050013D01*
X0190312Y0055013D01*
X0192812Y0057513D01*
X0190312Y0060013D01*
X0190312Y0065013D01*
X0192812Y0067513D01*
X0190312Y0070013D01*
X0190312Y0075013D01*
X0192812Y0077513D01*
X0190312Y0080013D01*
X0190312Y0085013D01*
X0192812Y0087513D01*
X0190312Y0090013D01*
X0190312Y0095013D01*
X0192812Y0097513D01*
X0190312Y0100013D01*
X0190312Y0105013D01*
X0192812Y0107513D01*
X0197812Y0107513D01*
X0200312Y0105013D01*
X0200312Y0100013D01*
X0197812Y0097513D01*
X0200312Y0095013D01*
X0200312Y0090013D01*
X0197812Y0087513D01*
X0192812Y0087513D01*
X0197812Y0087513D02*
X0200312Y0085013D01*
X0200312Y0080013D01*
X0197812Y0077513D01*
X0200312Y0075013D01*
X0200312Y0070013D01*
X0197812Y0067513D01*
X0200312Y0065013D01*
X0200312Y0060013D01*
X0197812Y0057513D01*
X0192812Y0057513D01*
X0197812Y0057513D02*
X0200312Y0055013D01*
X0200312Y0050013D01*
X0197812Y0047513D01*
X0200312Y0045013D01*
X0200312Y0040013D01*
X0197812Y0037513D01*
X0200312Y0035013D01*
X0200312Y0030013D01*
X0197812Y0027513D01*
X0192812Y0027513D01*
X0190312Y0030013D01*
X0192812Y0037513D02*
X0197812Y0037513D01*
X0197812Y0047513D02*
X0192812Y0047513D01*
X0212612Y0049013D02*
X0212612Y0086013D01*
X0212614Y0086089D01*
X0212620Y0086165D01*
X0212629Y0086240D01*
X0212643Y0086315D01*
X0212660Y0086389D01*
X0212681Y0086462D01*
X0212705Y0086534D01*
X0212734Y0086605D01*
X0212765Y0086674D01*
X0212800Y0086741D01*
X0212839Y0086806D01*
X0212881Y0086870D01*
X0212926Y0086931D01*
X0212974Y0086990D01*
X0213025Y0087046D01*
X0213079Y0087100D01*
X0213135Y0087151D01*
X0213194Y0087199D01*
X0213255Y0087244D01*
X0213319Y0087286D01*
X0213384Y0087325D01*
X0213451Y0087360D01*
X0213520Y0087391D01*
X0213591Y0087420D01*
X0213663Y0087444D01*
X0213736Y0087465D01*
X0213810Y0087482D01*
X0213885Y0087496D01*
X0213960Y0087505D01*
X0214036Y0087511D01*
X0214112Y0087513D01*
X0218312Y0087513D01*
X0222312Y0087513D01*
X0226512Y0087513D01*
X0226588Y0087511D01*
X0226664Y0087505D01*
X0226739Y0087496D01*
X0226814Y0087482D01*
X0226888Y0087465D01*
X0226961Y0087444D01*
X0227033Y0087420D01*
X0227104Y0087391D01*
X0227173Y0087360D01*
X0227240Y0087325D01*
X0227305Y0087286D01*
X0227369Y0087244D01*
X0227430Y0087199D01*
X0227489Y0087151D01*
X0227545Y0087100D01*
X0227599Y0087046D01*
X0227650Y0086990D01*
X0227698Y0086931D01*
X0227743Y0086870D01*
X0227785Y0086806D01*
X0227824Y0086741D01*
X0227859Y0086674D01*
X0227890Y0086605D01*
X0227919Y0086534D01*
X0227943Y0086462D01*
X0227964Y0086389D01*
X0227981Y0086315D01*
X0227995Y0086240D01*
X0228004Y0086165D01*
X0228010Y0086089D01*
X0228012Y0086013D01*
X0228012Y0049013D01*
X0228010Y0048937D01*
X0228004Y0048861D01*
X0227995Y0048786D01*
X0227981Y0048711D01*
X0227964Y0048637D01*
X0227943Y0048564D01*
X0227919Y0048492D01*
X0227890Y0048421D01*
X0227859Y0048352D01*
X0227824Y0048285D01*
X0227785Y0048220D01*
X0227743Y0048156D01*
X0227698Y0048095D01*
X0227650Y0048036D01*
X0227599Y0047980D01*
X0227545Y0047926D01*
X0227489Y0047875D01*
X0227430Y0047827D01*
X0227369Y0047782D01*
X0227305Y0047740D01*
X0227240Y0047701D01*
X0227173Y0047666D01*
X0227104Y0047635D01*
X0227033Y0047606D01*
X0226961Y0047582D01*
X0226888Y0047561D01*
X0226814Y0047544D01*
X0226739Y0047530D01*
X0226664Y0047521D01*
X0226588Y0047515D01*
X0226512Y0047513D01*
X0214112Y0047513D01*
X0214036Y0047515D01*
X0213960Y0047521D01*
X0213885Y0047530D01*
X0213810Y0047544D01*
X0213736Y0047561D01*
X0213663Y0047582D01*
X0213591Y0047606D01*
X0213520Y0047635D01*
X0213451Y0047666D01*
X0213384Y0047701D01*
X0213319Y0047740D01*
X0213255Y0047782D01*
X0213194Y0047827D01*
X0213135Y0047875D01*
X0213079Y0047926D01*
X0213025Y0047980D01*
X0212974Y0048036D01*
X0212926Y0048095D01*
X0212881Y0048156D01*
X0212839Y0048220D01*
X0212800Y0048285D01*
X0212765Y0048352D01*
X0212734Y0048421D01*
X0212705Y0048492D01*
X0212681Y0048564D01*
X0212660Y0048637D01*
X0212643Y0048711D01*
X0212629Y0048786D01*
X0212620Y0048861D01*
X0212614Y0048937D01*
X0212612Y0049013D01*
X0197812Y0067513D02*
X0192812Y0067513D01*
X0192812Y0077513D02*
X0197812Y0077513D01*
X0197812Y0097513D02*
X0192812Y0097513D01*
X0218312Y0087513D02*
X0218314Y0087425D01*
X0218320Y0087336D01*
X0218330Y0087248D01*
X0218343Y0087161D01*
X0218361Y0087074D01*
X0218382Y0086988D01*
X0218407Y0086903D01*
X0218436Y0086820D01*
X0218469Y0086737D01*
X0218505Y0086657D01*
X0218544Y0086578D01*
X0218587Y0086500D01*
X0218634Y0086425D01*
X0218684Y0086352D01*
X0218737Y0086281D01*
X0218793Y0086212D01*
X0218852Y0086146D01*
X0218914Y0086083D01*
X0218978Y0086023D01*
X0219045Y0085965D01*
X0219115Y0085911D01*
X0219187Y0085859D01*
X0219261Y0085811D01*
X0219338Y0085766D01*
X0219416Y0085725D01*
X0219496Y0085687D01*
X0219577Y0085653D01*
X0219660Y0085622D01*
X0219745Y0085595D01*
X0219830Y0085572D01*
X0219916Y0085553D01*
X0220004Y0085537D01*
X0220091Y0085525D01*
X0220179Y0085517D01*
X0220268Y0085513D01*
X0220356Y0085513D01*
X0220445Y0085517D01*
X0220533Y0085525D01*
X0220620Y0085537D01*
X0220708Y0085553D01*
X0220794Y0085572D01*
X0220879Y0085595D01*
X0220964Y0085622D01*
X0221047Y0085653D01*
X0221128Y0085687D01*
X0221208Y0085725D01*
X0221286Y0085766D01*
X0221363Y0085811D01*
X0221437Y0085859D01*
X0221509Y0085911D01*
X0221579Y0085965D01*
X0221646Y0086023D01*
X0221710Y0086083D01*
X0221772Y0086146D01*
X0221831Y0086212D01*
X0221887Y0086281D01*
X0221940Y0086352D01*
X0221990Y0086425D01*
X0222037Y0086500D01*
X0222080Y0086578D01*
X0222119Y0086657D01*
X0222155Y0086737D01*
X0222188Y0086820D01*
X0222217Y0086903D01*
X0222242Y0086988D01*
X0222263Y0087074D01*
X0222281Y0087161D01*
X0222294Y0087248D01*
X0222304Y0087336D01*
X0222310Y0087425D01*
X0222312Y0087513D01*
X0240312Y0090013D02*
X0242812Y0087513D01*
X0247812Y0087513D01*
X0250312Y0090013D01*
X0250312Y0095013D01*
X0247812Y0097513D01*
X0250312Y0100013D01*
X0250312Y0105013D01*
X0247812Y0107513D01*
X0242812Y0107513D01*
X0240312Y0105013D01*
X0240312Y0100013D01*
X0242812Y0097513D01*
X0247812Y0097513D01*
X0242812Y0097513D02*
X0240312Y0095013D01*
X0240312Y0090013D01*
X0242812Y0087513D02*
X0240312Y0085013D01*
X0240312Y0080013D01*
X0242812Y0077513D01*
X0247812Y0077513D01*
X0250312Y0075013D01*
X0250312Y0070013D01*
X0247812Y0067513D01*
X0250312Y0065013D01*
X0250312Y0060013D01*
X0247812Y0057513D01*
X0250312Y0055013D01*
X0250312Y0050013D01*
X0247812Y0047513D01*
X0250312Y0045013D01*
X0250312Y0040013D01*
X0247812Y0037513D01*
X0250312Y0035013D01*
X0250312Y0030013D01*
X0247812Y0027513D01*
X0242812Y0027513D01*
X0240312Y0030013D01*
X0240312Y0035013D01*
X0242812Y0037513D01*
X0240312Y0040013D01*
X0240312Y0045013D01*
X0242812Y0047513D01*
X0247812Y0047513D01*
X0242812Y0047513D02*
X0240312Y0050013D01*
X0240312Y0055013D01*
X0242812Y0057513D01*
X0240312Y0060013D01*
X0240312Y0065013D01*
X0242812Y0067513D01*
X0240312Y0070013D01*
X0240312Y0075013D01*
X0242812Y0077513D01*
X0247812Y0077513D02*
X0250312Y0080013D01*
X0250312Y0085013D01*
X0247812Y0087513D01*
X0247812Y0067513D02*
X0242812Y0067513D01*
X0242812Y0057513D02*
X0247812Y0057513D01*
X0247812Y0037513D02*
X0242812Y0037513D01*
X0237812Y0147513D02*
X0232812Y0147513D01*
X0230312Y0150013D01*
X0230312Y0155013D01*
X0232812Y0157513D01*
X0230312Y0160013D01*
X0230312Y0165013D01*
X0232812Y0167513D01*
X0230312Y0170013D01*
X0230312Y0175013D01*
X0232812Y0177513D01*
X0237812Y0177513D01*
X0240312Y0175013D01*
X0240312Y0170013D01*
X0237812Y0167513D01*
X0240312Y0165013D01*
X0240312Y0160013D01*
X0237812Y0157513D01*
X0240312Y0155013D01*
X0240312Y0150013D01*
X0237812Y0147513D01*
X0237812Y0157513D02*
X0232812Y0157513D01*
X0232812Y0167513D02*
X0237812Y0167513D01*
X0210312Y0170013D02*
X0207812Y0167513D01*
X0210312Y0165013D01*
X0210312Y0160013D01*
X0207812Y0157513D01*
X0210312Y0155013D01*
X0210312Y0150013D01*
X0207812Y0147513D01*
X0202812Y0147513D01*
X0200312Y0150013D01*
X0200312Y0155013D01*
X0202812Y0157513D01*
X0200312Y0160013D01*
X0200312Y0165013D01*
X0202812Y0167513D01*
X0200312Y0170013D01*
X0200312Y0175013D01*
X0202812Y0177513D01*
X0207812Y0177513D01*
X0210312Y0175013D01*
X0210312Y0170013D01*
X0207812Y0167513D02*
X0202812Y0167513D01*
X0202812Y0157513D02*
X0207812Y0157513D01*
X0207812Y0217513D02*
X0202812Y0217513D01*
X0200312Y0220013D01*
X0200312Y0225013D01*
X0202812Y0227513D01*
X0200312Y0230013D01*
X0200312Y0235013D01*
X0202812Y0237513D01*
X0200312Y0240013D01*
X0200312Y0245013D01*
X0202812Y0247513D01*
X0207812Y0247513D01*
X0210312Y0245013D01*
X0210312Y0240013D01*
X0207812Y0237513D01*
X0210312Y0235013D01*
X0210312Y0230013D01*
X0207812Y0227513D01*
X0210312Y0225013D01*
X0210312Y0220013D01*
X0207812Y0217513D01*
X0207812Y0227513D02*
X0202812Y0227513D01*
X0202812Y0237513D02*
X0207812Y0237513D01*
X0217712Y0238113D02*
X0217712Y0232913D01*
X0228912Y0232913D01*
X0228912Y0238113D01*
X0217712Y0238113D01*
X0116713Y0219214D02*
X0116713Y0215812D01*
X0113910Y0215812D02*
X0113910Y0219214D01*
X0110512Y0221263D02*
X0110512Y0213713D01*
X0104112Y0213713D02*
X0104112Y0221263D01*
X0100312Y0220013D02*
X0100312Y0225013D01*
X0097812Y0227513D01*
X0092812Y0227513D01*
X0090312Y0225013D01*
X0090312Y0220013D01*
X0092812Y0217513D01*
X0090312Y0215013D01*
X0090312Y0210013D01*
X0092812Y0207513D01*
X0097812Y0207513D01*
X0100312Y0210013D01*
X0100312Y0215013D01*
X0097812Y0217513D01*
X0092812Y0217513D01*
X0097812Y0217513D02*
X0100312Y0220013D01*
D15*
X0095312Y0222513D03*
X0095312Y0212513D03*
X0115312Y0162513D03*
X0115312Y0152513D03*
X0115312Y0142513D03*
X0115312Y0132513D03*
X0115312Y0122513D03*
X0115312Y0112513D03*
X0115312Y0102513D03*
X0115312Y0072513D03*
X0105312Y0072513D03*
X0125312Y0072513D03*
X0135312Y0072513D03*
X0135312Y0022513D03*
X0125312Y0022513D03*
X0115312Y0022513D03*
X0105312Y0022513D03*
X0065312Y0102513D03*
X0065312Y0112513D03*
X0065312Y0122513D03*
X0065312Y0132513D03*
X0065312Y0142513D03*
X0065312Y0152513D03*
X0065312Y0162513D03*
X0195312Y0102513D03*
X0195312Y0092513D03*
X0195312Y0082513D03*
X0195312Y0072513D03*
X0195312Y0062513D03*
X0195312Y0052513D03*
X0195312Y0042513D03*
X0195312Y0032513D03*
X0245312Y0032513D03*
X0245312Y0042513D03*
X0245312Y0052513D03*
X0245312Y0062513D03*
X0245312Y0072513D03*
X0245312Y0082513D03*
X0245312Y0092513D03*
X0245312Y0102513D03*
X0235312Y0152513D03*
X0235312Y0162513D03*
X0235312Y0172513D03*
X0205312Y0172513D03*
X0205312Y0162513D03*
X0205312Y0152513D03*
X0205312Y0222513D03*
X0205312Y0232513D03*
X0205312Y0242513D03*
D16*
X0219612Y0231563D03*
X0227012Y0231563D03*
X0223312Y0239463D03*
D17*
X0115312Y0220013D03*
X0115312Y0215013D03*
D18*
X0107312Y0212313D03*
X0107312Y0222713D03*
D19*
X0084012Y0150013D02*
X0084012Y0115013D01*
X0214012Y0087513D02*
X0214012Y0047513D01*
D20*
X0210362Y0050013D03*
X0210362Y0055013D03*
X0210362Y0060013D03*
X0210362Y0065013D03*
X0210362Y0070013D03*
X0210462Y0075013D03*
X0210362Y0080013D03*
X0210362Y0085013D03*
X0230262Y0085013D03*
X0230262Y0080013D03*
X0230262Y0075013D03*
X0230262Y0070013D03*
X0230262Y0065013D03*
X0230262Y0060013D03*
X0230262Y0055013D03*
X0230262Y0050013D03*
X0100262Y0117513D03*
X0100262Y0122513D03*
X0100262Y0127513D03*
X0100262Y0132513D03*
X0100262Y0137513D03*
X0100262Y0142513D03*
X0100262Y0147513D03*
X0080362Y0147513D03*
X0080362Y0142513D03*
X0080462Y0137513D03*
X0080362Y0132513D03*
X0080362Y0127513D03*
X0080362Y0122513D03*
X0080362Y0117513D03*
D21*
X0112812Y0057552D03*
X0117812Y0057552D03*
X0122812Y0057552D03*
X0127812Y0057552D03*
X0127812Y0037473D03*
X0122812Y0037473D03*
X0117812Y0037473D03*
X0112812Y0037473D03*
M02*
