%
M48
M72
T01C0.0236
T02C0.0400
%
T01
X22031Y5051
X22031Y5851
X22031Y7551
X22031Y8351
T02
X6531Y10251
X6531Y11251
X6531Y12251
X6531Y13251
X6531Y14251
X6531Y15251
X6531Y16251
X11531Y16251
X11531Y15251
X11531Y14251
X11531Y13251
X11531Y12251
X11531Y11251
X11531Y10251
X11531Y7251
X10531Y7251
X12531Y7251
X13531Y7251
X13531Y2251
X12531Y2251
X11531Y2251
X10531Y2251
X19531Y3251
X19531Y4251
X19531Y5251
X19531Y6251
X19531Y7251
X19531Y8251
X19531Y9251
X19531Y10251
X24531Y10251
X24531Y9251
X24531Y8251
X24531Y7251
X24531Y6251
X24531Y5251
X24531Y4251
X24531Y3251
X23531Y15251
X23531Y16251
X23531Y17251
X20531Y17251
X20531Y16251
X20531Y15251
X20531Y22251
X20531Y23251
X20531Y24251
X9531Y22251
X9531Y21251
M30
