G75*
%MOIN*%
%OFA0B0*%
%FSLAX25Y25*%
%IPPOS*%
%LPD*%
%AMOC8*
5,1,8,0,0,1.08239X$1,22.5*
%
%ADD10C,0.00400*%
%ADD11C,0.06000*%
%ADD12C,0.01600*%
%ADD13R,0.03962X0.03962*%
D10*
X0108558Y0046480D02*
X0109325Y0045713D01*
X0110860Y0045713D01*
X0111627Y0046480D01*
X0111627Y0047247D01*
X0110860Y0048015D01*
X0109325Y0048015D01*
X0108558Y0047247D01*
X0108558Y0046480D01*
X0109325Y0048015D02*
X0108558Y0048782D01*
X0108558Y0049549D01*
X0109325Y0050317D01*
X0110860Y0050317D01*
X0111627Y0049549D01*
X0111627Y0048782D01*
X0110860Y0048015D01*
X0113161Y0048015D02*
X0116231Y0048015D01*
X0117765Y0049549D02*
X0118533Y0050317D01*
X0120067Y0050317D01*
X0120835Y0049549D01*
X0120835Y0046480D01*
X0120067Y0045713D01*
X0118533Y0045713D01*
X0117765Y0046480D01*
X0122369Y0045713D02*
X0123904Y0045713D01*
X0123137Y0045713D02*
X0123137Y0050317D01*
X0123904Y0050317D02*
X0122369Y0050317D01*
X0125439Y0049549D02*
X0125439Y0046480D01*
X0126206Y0045713D01*
X0127741Y0045713D01*
X0128508Y0046480D01*
X0128508Y0049549D01*
X0127741Y0050317D01*
X0126206Y0050317D01*
X0125439Y0049549D01*
X0130043Y0049549D02*
X0130810Y0050317D01*
X0132345Y0050317D01*
X0133112Y0049549D01*
X0133112Y0048782D01*
X0132345Y0048015D01*
X0130810Y0048015D01*
X0130043Y0047247D01*
X0130043Y0046480D01*
X0130810Y0045713D01*
X0132345Y0045713D01*
X0133112Y0046480D01*
X0205954Y0066480D02*
X0205954Y0067247D01*
X0206721Y0068015D01*
X0209023Y0068015D01*
X0209023Y0066480D01*
X0208256Y0065713D01*
X0206721Y0065713D01*
X0205954Y0066480D01*
X0207488Y0069549D02*
X0209023Y0068015D01*
X0207488Y0069549D02*
X0205954Y0070317D01*
X0210558Y0065713D02*
X0213627Y0065713D01*
X0212092Y0065713D02*
X0212092Y0070317D01*
X0213627Y0068782D01*
X0215161Y0068015D02*
X0218231Y0068015D01*
X0219765Y0069549D02*
X0220533Y0070317D01*
X0222067Y0070317D01*
X0222835Y0069549D01*
X0222835Y0066480D01*
X0222067Y0065713D01*
X0220533Y0065713D01*
X0219765Y0066480D01*
X0224369Y0065713D02*
X0225904Y0065713D01*
X0225137Y0065713D02*
X0225137Y0070317D01*
X0225904Y0070317D02*
X0224369Y0070317D01*
X0227439Y0069549D02*
X0228206Y0070317D01*
X0229741Y0070317D01*
X0230508Y0069549D01*
X0230508Y0066480D01*
X0229741Y0065713D01*
X0228206Y0065713D01*
X0227439Y0066480D01*
X0227439Y0069549D01*
X0232043Y0069549D02*
X0232810Y0070317D01*
X0234345Y0070317D01*
X0235112Y0069549D01*
X0235112Y0068782D01*
X0234345Y0068015D01*
X0232810Y0068015D01*
X0232043Y0067247D01*
X0232043Y0066480D01*
X0232810Y0065713D01*
X0234345Y0065713D01*
X0235112Y0066480D01*
X0221348Y0146713D02*
X0220581Y0146713D01*
X0219814Y0147480D01*
X0219814Y0149015D01*
X0219046Y0149782D01*
X0218279Y0149782D01*
X0217512Y0149015D01*
X0217512Y0147480D01*
X0218279Y0146713D01*
X0221348Y0146713D02*
X0222116Y0147480D01*
X0222116Y0149015D01*
X0221348Y0149782D01*
X0221348Y0151317D02*
X0218279Y0151317D01*
X0217512Y0152084D01*
X0217512Y0153619D01*
X0218279Y0154386D01*
X0221348Y0154386D01*
X0222116Y0153619D01*
X0222116Y0152084D01*
X0221348Y0151317D01*
X0222116Y0155921D02*
X0222116Y0158990D01*
X0222116Y0157455D02*
X0217512Y0157455D01*
X0218279Y0165128D02*
X0217512Y0165896D01*
X0217512Y0167430D01*
X0218279Y0168198D01*
X0219046Y0168198D01*
X0219814Y0167430D01*
X0219814Y0166663D01*
X0219814Y0167430D02*
X0220581Y0168198D01*
X0221348Y0168198D01*
X0222116Y0167430D01*
X0222116Y0165896D01*
X0221348Y0165128D01*
X0221348Y0169732D02*
X0222116Y0170500D01*
X0222116Y0172034D01*
X0221348Y0172802D01*
X0220581Y0172802D01*
X0217512Y0169732D01*
X0217512Y0172802D01*
X0218279Y0174336D02*
X0217512Y0175104D01*
X0217512Y0176638D01*
X0218279Y0177406D01*
X0219046Y0177406D01*
X0219814Y0176638D01*
X0219814Y0175871D01*
X0219814Y0176638D02*
X0220581Y0177406D01*
X0221348Y0177406D01*
X0222116Y0176638D01*
X0222116Y0175104D01*
X0221348Y0174336D01*
X0226279Y0219713D02*
X0225512Y0220480D01*
X0225512Y0222015D01*
X0226279Y0222782D01*
X0227046Y0222782D01*
X0227814Y0222015D01*
X0227814Y0220480D01*
X0228581Y0219713D01*
X0229348Y0219713D01*
X0230116Y0220480D01*
X0230116Y0222015D01*
X0229348Y0222782D01*
X0229348Y0224317D02*
X0226279Y0224317D01*
X0225512Y0225084D01*
X0225512Y0226619D01*
X0226279Y0227386D01*
X0229348Y0227386D01*
X0230116Y0226619D01*
X0230116Y0225084D01*
X0229348Y0224317D01*
X0230116Y0228921D02*
X0230116Y0231990D01*
X0230116Y0230455D02*
X0225512Y0230455D01*
X0225512Y0238128D02*
X0228581Y0241198D01*
X0229348Y0241198D01*
X0230116Y0240430D01*
X0230116Y0238896D01*
X0229348Y0238128D01*
X0225512Y0238128D02*
X0225512Y0241198D01*
X0226279Y0242732D02*
X0225512Y0243500D01*
X0225512Y0245034D01*
X0226279Y0245802D01*
X0227046Y0245802D01*
X0227814Y0245034D01*
X0227814Y0244267D01*
X0227814Y0245034D02*
X0228581Y0245802D01*
X0229348Y0245802D01*
X0230116Y0245034D01*
X0230116Y0243500D01*
X0229348Y0242732D01*
X0118116Y0224826D02*
X0117348Y0225594D01*
X0116581Y0225594D01*
X0115814Y0224826D01*
X0115046Y0225594D01*
X0114279Y0225594D01*
X0113512Y0224826D01*
X0113512Y0223292D01*
X0114279Y0222525D01*
X0114279Y0220990D02*
X0113512Y0220223D01*
X0113512Y0218688D01*
X0114279Y0217921D01*
X0117348Y0220990D01*
X0114279Y0220990D01*
X0114279Y0217921D02*
X0117348Y0217921D01*
X0118116Y0218688D01*
X0118116Y0220223D01*
X0117348Y0220990D01*
X0117348Y0222525D02*
X0118116Y0223292D01*
X0118116Y0224826D01*
X0115814Y0224826D02*
X0115814Y0224059D01*
X0110116Y0225594D02*
X0109348Y0224059D01*
X0107814Y0222525D01*
X0107814Y0224826D01*
X0107046Y0225594D01*
X0106279Y0225594D01*
X0105512Y0224826D01*
X0105512Y0223292D01*
X0106279Y0222525D01*
X0107814Y0222525D01*
X0109348Y0220990D02*
X0106279Y0220990D01*
X0105512Y0220223D01*
X0105512Y0218688D01*
X0106279Y0217921D01*
X0109348Y0220990D01*
X0110116Y0220223D01*
X0110116Y0218688D01*
X0109348Y0217921D01*
X0106279Y0217921D01*
X0105512Y0216386D02*
X0105512Y0213317D01*
X0108581Y0216386D01*
X0109348Y0216386D01*
X0110116Y0215619D01*
X0110116Y0214084D01*
X0109348Y0213317D01*
X0110116Y0210247D02*
X0105512Y0210247D01*
X0105512Y0208713D02*
X0105512Y0211782D01*
X0108581Y0208713D02*
X0110116Y0210247D01*
X0113512Y0211015D02*
X0113512Y0209480D01*
X0114279Y0208713D01*
X0117348Y0211782D01*
X0114279Y0211782D01*
X0113512Y0211015D01*
X0114279Y0213317D02*
X0113512Y0214084D01*
X0113512Y0215619D01*
X0114279Y0216386D01*
X0115046Y0216386D01*
X0115814Y0215619D01*
X0115814Y0213317D01*
X0114279Y0213317D01*
X0115814Y0213317D02*
X0117348Y0214851D01*
X0118116Y0216386D01*
X0117348Y0211782D02*
X0118116Y0211015D01*
X0118116Y0209480D01*
X0117348Y0208713D01*
X0114279Y0208713D01*
X0093116Y0146104D02*
X0090814Y0143802D01*
X0090814Y0146871D01*
X0088512Y0146104D02*
X0093116Y0146104D01*
X0093116Y0140732D02*
X0088512Y0140732D01*
X0088512Y0139198D02*
X0088512Y0142267D01*
X0091581Y0139198D02*
X0093116Y0140732D01*
X0090814Y0137663D02*
X0090814Y0134594D01*
X0092348Y0133059D02*
X0093116Y0132292D01*
X0093116Y0130757D01*
X0092348Y0129990D01*
X0089279Y0129990D01*
X0088512Y0130757D01*
X0088512Y0132292D01*
X0089279Y0133059D01*
X0088512Y0128455D02*
X0088512Y0126921D01*
X0088512Y0127688D02*
X0093116Y0127688D01*
X0093116Y0126921D02*
X0093116Y0128455D01*
X0092348Y0125386D02*
X0089279Y0125386D01*
X0088512Y0124619D01*
X0088512Y0123084D01*
X0089279Y0122317D01*
X0092348Y0122317D01*
X0093116Y0123084D01*
X0093116Y0124619D01*
X0092348Y0125386D01*
X0092348Y0120782D02*
X0093116Y0120015D01*
X0093116Y0118480D01*
X0092348Y0117713D01*
X0091581Y0117713D01*
X0090814Y0118480D01*
X0090814Y0120015D01*
X0090046Y0120782D01*
X0089279Y0120782D01*
X0088512Y0120015D01*
X0088512Y0118480D01*
X0089279Y0117713D01*
D11*
X0068312Y0102513D02*
X0062312Y0102513D01*
X0062312Y0112513D02*
X0068312Y0112513D01*
X0068312Y0122513D02*
X0062312Y0122513D01*
X0062312Y0132513D02*
X0068312Y0132513D01*
X0068312Y0142513D02*
X0062312Y0142513D01*
X0062312Y0152513D02*
X0068312Y0152513D01*
X0068312Y0162513D02*
X0062312Y0162513D01*
X0112312Y0162513D02*
X0118312Y0162513D01*
X0118312Y0152513D02*
X0112312Y0152513D01*
X0112312Y0142513D02*
X0118312Y0142513D01*
X0118312Y0132513D02*
X0112312Y0132513D01*
X0112312Y0122513D02*
X0118312Y0122513D01*
X0118312Y0112513D02*
X0112312Y0112513D01*
X0112312Y0102513D02*
X0118312Y0102513D01*
X0115312Y0075513D02*
X0115312Y0069513D01*
X0105312Y0069513D02*
X0105312Y0075513D01*
X0125312Y0075513D02*
X0125312Y0069513D01*
X0135312Y0069513D02*
X0135312Y0075513D01*
X0135312Y0025513D02*
X0135312Y0019513D01*
X0125312Y0019513D02*
X0125312Y0025513D01*
X0115312Y0025513D02*
X0115312Y0019513D01*
X0105312Y0019513D02*
X0105312Y0025513D01*
X0192312Y0032513D02*
X0198312Y0032513D01*
X0198312Y0042513D02*
X0192312Y0042513D01*
X0192312Y0052513D02*
X0198312Y0052513D01*
X0198312Y0062513D02*
X0192312Y0062513D01*
X0192312Y0072513D02*
X0198312Y0072513D01*
X0198312Y0082513D02*
X0192312Y0082513D01*
X0192312Y0092513D02*
X0198312Y0092513D01*
X0198312Y0102513D02*
X0192312Y0102513D01*
X0242312Y0102513D02*
X0248312Y0102513D01*
X0248312Y0092513D02*
X0242312Y0092513D01*
X0242312Y0082513D02*
X0248312Y0082513D01*
X0248312Y0072513D02*
X0242312Y0072513D01*
X0242312Y0062513D02*
X0248312Y0062513D01*
X0248312Y0052513D02*
X0242312Y0052513D01*
X0242312Y0042513D02*
X0248312Y0042513D01*
X0248312Y0032513D02*
X0242312Y0032513D01*
X0238312Y0152513D02*
X0232312Y0152513D01*
X0232312Y0162513D02*
X0238312Y0162513D01*
X0238312Y0172513D02*
X0232312Y0172513D01*
X0208312Y0172513D02*
X0202312Y0172513D01*
X0202312Y0162513D02*
X0208312Y0162513D01*
X0208312Y0152513D02*
X0202312Y0152513D01*
X0202312Y0222513D02*
X0208312Y0222513D01*
X0208312Y0232513D02*
X0202312Y0232513D01*
X0202312Y0242513D02*
X0208312Y0242513D01*
X0098312Y0222513D02*
X0092312Y0222513D01*
X0092312Y0212513D02*
X0098312Y0212513D01*
D12*
X0195312Y0092513D02*
X0208212Y0080013D01*
X0220312Y0075513D01*
X0220312Y0083513D02*
X0232412Y0080013D01*
X0245312Y0092513D01*
X0220312Y0058513D02*
X0208212Y0055013D01*
X0195312Y0042513D01*
X0220312Y0050513D02*
X0232412Y0055013D01*
X0245312Y0042513D01*
D13*
X0220312Y0050513D03*
X0220312Y0058513D03*
X0220312Y0075513D03*
X0220312Y0083513D03*
M02*
