G75*
%MOIN*%
%OFA0B0*%
%FSLAX25Y25*%
%IPPOS*%
%LPD*%
%AMOC8*
5,1,8,0,0,1.08239X$1,22.5*
%
%ADD10R,0.03556X0.01981*%
%ADD11C,0.06800*%
%ADD12R,0.04737X0.06312*%
%ADD13R,0.05131X0.04737*%
%ADD14R,0.07898X0.07099*%
%ADD15R,0.08800X0.03400*%
%ADD16R,0.03162X0.09461*%
%ADD17R,0.04762X0.04762*%
D10*
X0217162Y0159954D03*
X0217162Y0162513D03*
X0217162Y0165072D03*
X0223461Y0165072D03*
X0223461Y0162513D03*
X0223461Y0159954D03*
D11*
X0068312Y0102513D02*
X0062312Y0102513D01*
X0062312Y0112513D02*
X0068312Y0112513D01*
X0068312Y0122513D02*
X0062312Y0122513D01*
X0062312Y0132513D02*
X0068312Y0132513D01*
X0068312Y0142513D02*
X0062312Y0142513D01*
X0062312Y0152513D02*
X0068312Y0152513D01*
X0068312Y0162513D02*
X0062312Y0162513D01*
X0112312Y0162513D02*
X0118312Y0162513D01*
X0118312Y0152513D02*
X0112312Y0152513D01*
X0112312Y0142513D02*
X0118312Y0142513D01*
X0118312Y0132513D02*
X0112312Y0132513D01*
X0112312Y0122513D02*
X0118312Y0122513D01*
X0118312Y0112513D02*
X0112312Y0112513D01*
X0112312Y0102513D02*
X0118312Y0102513D01*
X0115312Y0075513D02*
X0115312Y0069513D01*
X0105312Y0069513D02*
X0105312Y0075513D01*
X0125312Y0075513D02*
X0125312Y0069513D01*
X0135312Y0069513D02*
X0135312Y0075513D01*
X0135312Y0025513D02*
X0135312Y0019513D01*
X0125312Y0019513D02*
X0125312Y0025513D01*
X0115312Y0025513D02*
X0115312Y0019513D01*
X0105312Y0019513D02*
X0105312Y0025513D01*
X0192312Y0032513D02*
X0198312Y0032513D01*
X0198312Y0042513D02*
X0192312Y0042513D01*
X0192312Y0052513D02*
X0198312Y0052513D01*
X0198312Y0062513D02*
X0192312Y0062513D01*
X0192312Y0072513D02*
X0198312Y0072513D01*
X0198312Y0082513D02*
X0192312Y0082513D01*
X0192312Y0092513D02*
X0198312Y0092513D01*
X0198312Y0102513D02*
X0192312Y0102513D01*
X0242312Y0102513D02*
X0248312Y0102513D01*
X0248312Y0092513D02*
X0242312Y0092513D01*
X0242312Y0082513D02*
X0248312Y0082513D01*
X0248312Y0072513D02*
X0242312Y0072513D01*
X0242312Y0062513D02*
X0248312Y0062513D01*
X0248312Y0052513D02*
X0242312Y0052513D01*
X0242312Y0042513D02*
X0248312Y0042513D01*
X0248312Y0032513D02*
X0242312Y0032513D01*
X0238312Y0152513D02*
X0232312Y0152513D01*
X0232312Y0162513D02*
X0238312Y0162513D01*
X0238312Y0172513D02*
X0232312Y0172513D01*
X0208312Y0172513D02*
X0202312Y0172513D01*
X0202312Y0162513D02*
X0208312Y0162513D01*
X0208312Y0152513D02*
X0202312Y0152513D01*
X0202312Y0222513D02*
X0208312Y0222513D01*
X0208312Y0232513D02*
X0202312Y0232513D01*
X0202312Y0242513D02*
X0208312Y0242513D01*
X0098312Y0222513D02*
X0092312Y0222513D01*
X0092312Y0212513D02*
X0098312Y0212513D01*
D12*
X0219572Y0231182D03*
X0227052Y0231182D03*
X0223312Y0239843D03*
D13*
X0115312Y0220859D03*
X0115312Y0214166D03*
D14*
X0107312Y0211914D03*
X0107312Y0223111D03*
D15*
X0102412Y0147513D03*
X0102412Y0142513D03*
X0102412Y0137513D03*
X0102412Y0132513D03*
X0102412Y0127513D03*
X0102412Y0122513D03*
X0102412Y0117513D03*
X0078212Y0117513D03*
X0078212Y0122513D03*
X0078212Y0127513D03*
X0078212Y0132513D03*
X0078212Y0137513D03*
X0078212Y0142513D03*
X0078212Y0147513D03*
X0208212Y0085013D03*
X0208212Y0080013D03*
X0208212Y0075013D03*
X0208212Y0070013D03*
X0208212Y0065013D03*
X0208212Y0060013D03*
X0208212Y0055013D03*
X0208212Y0050013D03*
X0232412Y0050013D03*
X0232412Y0055013D03*
X0232412Y0060013D03*
X0232412Y0065013D03*
X0232412Y0070013D03*
X0232412Y0075013D03*
X0232412Y0080013D03*
X0232412Y0085013D03*
D16*
X0127812Y0057749D03*
X0122812Y0057749D03*
X0117812Y0057749D03*
X0112812Y0057749D03*
X0112812Y0037277D03*
X0117812Y0037277D03*
X0122812Y0037277D03*
X0127812Y0037277D03*
D17*
X0220312Y0050513D03*
X0220312Y0058513D03*
X0220312Y0075513D03*
X0220312Y0083513D03*
M02*
