G75*
%MOIN*%
%OFA0B0*%
%FSLAX24Y24*%
%IPPOS*%
%LPD*%
%AMOC8*
5,1,8,0,0,1.08239X$1,22.5*
%
%ADD10C,0.0000*%
%ADD11C,0.0520*%
%ADD12OC8,0.0600*%
%ADD13C,0.0440*%
%ADD14OC8,0.0660*%
%ADD15C,0.0625*%
%ADD16OC8,0.0520*%
%ADD17C,0.0160*%
D10*
X000100Y000317D02*
X000100Y033687D01*
X020592Y033687D01*
X020592Y000317D01*
X000100Y000317D01*
D11*
X007840Y002317D02*
X008360Y002317D01*
X008360Y003317D02*
X007840Y003317D01*
X007840Y004317D02*
X008360Y004317D01*
X008360Y005317D02*
X007840Y005317D01*
X007840Y006317D02*
X008360Y006317D01*
X008360Y007317D02*
X007840Y007317D01*
X007840Y008317D02*
X008360Y008317D01*
X008360Y009317D02*
X007840Y009317D01*
X007840Y010317D02*
X008360Y010317D01*
X008360Y011317D02*
X007840Y011317D01*
X007840Y012317D02*
X008360Y012317D01*
X008360Y013317D02*
X007840Y013317D01*
X007840Y014317D02*
X008360Y014317D01*
X008360Y015317D02*
X007840Y015317D01*
X007840Y017317D02*
X008360Y017317D01*
X008360Y018317D02*
X007840Y018317D01*
X007840Y019317D02*
X008360Y019317D01*
X008360Y020317D02*
X007840Y020317D01*
X007840Y021317D02*
X008360Y021317D01*
X008360Y022317D02*
X007840Y022317D01*
X007840Y023317D02*
X008360Y023317D01*
X008360Y026317D02*
X007840Y026317D01*
X007840Y027317D02*
X008360Y027317D01*
X008360Y028317D02*
X007840Y028317D01*
X007840Y029317D02*
X008360Y029317D01*
X008360Y030317D02*
X007840Y030317D01*
X007840Y031317D02*
X008360Y031317D01*
X008360Y032317D02*
X007840Y032317D01*
X010840Y032317D02*
X011360Y032317D01*
X011360Y031317D02*
X010840Y031317D01*
X010840Y030317D02*
X011360Y030317D01*
X011360Y029317D02*
X010840Y029317D01*
X010840Y028317D02*
X011360Y028317D01*
X011360Y027317D02*
X010840Y027317D01*
X010840Y026317D02*
X011360Y026317D01*
X011360Y023317D02*
X010840Y023317D01*
X010840Y022317D02*
X011360Y022317D01*
X011360Y021317D02*
X010840Y021317D01*
X010840Y020317D02*
X011360Y020317D01*
X011360Y019317D02*
X010840Y019317D01*
X010840Y018317D02*
X011360Y018317D01*
X011360Y017317D02*
X010840Y017317D01*
X010840Y015317D02*
X011360Y015317D01*
X011360Y014317D02*
X010840Y014317D01*
X010840Y013317D02*
X011360Y013317D01*
X011360Y012317D02*
X010840Y012317D01*
X010840Y011317D02*
X011360Y011317D01*
X011360Y010317D02*
X010840Y010317D01*
X010840Y009317D02*
X011360Y009317D01*
X011360Y008317D02*
X010840Y008317D01*
X010840Y007317D02*
X011360Y007317D01*
X011360Y006317D02*
X010840Y006317D01*
X010840Y005317D02*
X011360Y005317D01*
X011360Y004317D02*
X010840Y004317D01*
X010840Y003317D02*
X011360Y003317D01*
X011360Y002317D02*
X010840Y002317D01*
D12*
X016600Y026817D03*
X016600Y027817D03*
X016600Y028817D03*
X016600Y029817D03*
X016600Y030817D03*
X016600Y031817D03*
X017600Y031817D03*
X017600Y030817D03*
X017600Y029817D03*
X017600Y028817D03*
X017600Y027817D03*
X017600Y026817D03*
D13*
X013320Y011817D02*
X012880Y011817D01*
X012880Y009817D02*
X013320Y009817D01*
D14*
X015100Y004317D03*
X015100Y002317D03*
X017100Y002317D03*
X017100Y004317D03*
D15*
X013600Y005317D03*
X013600Y002317D03*
X015100Y018317D03*
X015100Y019317D03*
X014600Y019317D03*
X014600Y020317D03*
X015100Y020317D03*
X015100Y021317D03*
X014600Y021317D03*
X014600Y022317D03*
X015100Y022317D03*
X018100Y022317D03*
X018100Y021317D03*
X018100Y020317D03*
X018100Y019317D03*
X018100Y018317D03*
X011600Y019317D03*
X011600Y020317D03*
X011600Y021317D03*
X011600Y022317D03*
X007600Y021317D03*
X007600Y020317D03*
X007600Y019317D03*
X007600Y018317D03*
X004600Y018317D03*
X004600Y019317D03*
X004100Y019317D03*
X004100Y020317D03*
X004600Y020317D03*
X004600Y021317D03*
X004100Y021317D03*
X001100Y021317D03*
X001100Y020317D03*
X001100Y019317D03*
D16*
X014600Y011817D03*
X015600Y011817D03*
X015600Y009817D03*
X014600Y009817D03*
D17*
X011100Y008317D02*
X010100Y008317D01*
X009100Y009317D01*
X008100Y009317D01*
X008100Y010317D01*
X006600Y021317D02*
X004600Y021317D01*
X006600Y021317D02*
X007100Y021817D01*
X017600Y021817D01*
X018100Y022317D01*
X011100Y023317D02*
X010600Y023317D01*
X009600Y024317D01*
X009600Y025317D01*
X008600Y026317D01*
X008100Y026317D01*
M02*
