%
M48
M72
T01C0.0240
T02C0.0313
T03C0.0320
T04C0.0400
T05C0.0440
%
T01
X13100Y9817
X13100Y11817
T02
X13600Y5317
X13600Y2317
X15100Y18317
X15100Y19317
X14600Y19317
X14600Y20317
X15100Y20317
X15100Y21317
X14600Y21317
X14600Y22317
X15100Y22317
X18100Y22317
X18100Y21317
X18100Y20317
X18100Y19317
X18100Y18317
X11600Y19317
X11600Y20317
X11600Y21317
X11600Y22317
X7600Y21317
X7600Y20317
X7600Y19317
X7600Y18317
X4600Y18317
X4600Y19317
X4100Y19317
X4100Y20317
X4600Y20317
X4600Y21317
X4100Y21317
X1100Y21317
X1100Y20317
X1100Y19317
T03
X8100Y2317
X8100Y3317
X8100Y4317
X8100Y5317
X8100Y6317
X8100Y7317
X8100Y8317
X8100Y9317
X8100Y10317
X8100Y11317
X8100Y12317
X8100Y13317
X8100Y14317
X8100Y15317
X8100Y17317
X8100Y18317
X8100Y19317
X8100Y20317
X8100Y21317
X8100Y22317
X8100Y23317
X8100Y26317
X8100Y27317
X8100Y28317
X8100Y29317
X8100Y30317
X8100Y31317
X8100Y32317
X11100Y32317
X11100Y31317
X11100Y30317
X11100Y29317
X11100Y28317
X11100Y27317
X11100Y26317
X11100Y23317
X11100Y22317
X11100Y21317
X11100Y20317
X11100Y19317
X11100Y18317
X11100Y17317
X11100Y15317
X11100Y14317
X11100Y13317
X11100Y12317
X11100Y11317
X11100Y10317
X11100Y9317
X11100Y8317
X11100Y7317
X11100Y6317
X11100Y5317
X11100Y4317
X11100Y3317
X11100Y2317
X14600Y9817
X15600Y9817
X15600Y11817
X14600Y11817
T04
X16600Y26817
X16600Y27817
X16600Y28817
X16600Y29817
X16600Y30817
X16600Y31817
X17600Y31817
X17600Y30817
X17600Y29817
X17600Y28817
X17600Y27817
X17600Y26817
T05
X17100Y4317
X17100Y2317
X15100Y2317
X15100Y4317
M30
