%
M48
M72
T01C0.0240
T02C0.0313
T03C0.0320
T04C0.0400
T05C0.0440
%
T01
X10500Y9030
X10500Y11030
T02
X3000Y7530
X3750Y9280
X3000Y10530
X3750Y12280
X11250Y4530
X11250Y1530
T03
X8750Y1530
X8750Y2530
X8750Y3530
X8750Y4530
X8750Y5530
X8750Y6530
X8750Y7530
X8750Y8530
X8750Y9530
X8750Y10530
X8750Y11530
X8750Y12530
X8750Y13530
X8750Y14530
X9750Y15530
X9750Y16530
X8750Y16530
X8750Y17530
X8750Y18530
X8750Y19530
X8750Y20530
X8750Y21530
X8750Y22530
X5750Y22530
X5750Y21530
X5750Y20530
X5750Y19530
X5750Y18530
X5750Y17530
X5750Y16530
X5750Y14530
X5750Y13530
X5750Y12530
X5750Y11530
X5750Y10530
X5750Y9530
X5750Y8530
X5750Y7530
X5750Y6530
X5750Y5530
X5750Y4530
X5750Y3530
X5750Y2530
X5750Y1530
X4750Y7530
X4750Y8530
X3750Y8530
X3750Y7530
X11500Y6655
X12500Y6655
X12875Y9030
X11875Y9030
X11875Y11030
X12875Y11030
X12875Y15530
X12875Y16530
T04
X11750Y16530
X11750Y17530
X11750Y18530
X10750Y18530
X10750Y17530
X10750Y16530
X10750Y15530
X10750Y14530
X10750Y13530
X11750Y13530
X11750Y14530
X11750Y15530
X4500Y20030
X4500Y21030
T05
X12750Y3530
X12750Y1530
X14750Y1530
X14750Y3530
M30
