G75*
%MOIN*%
%OFA0B0*%
%FSLAX24Y24*%
%IPPOS*%
%LPD*%
%AMOC8*
5,1,8,0,0,1.08239X$1,22.5*
%
%ADD10C,0.0600*%
%ADD11OC8,0.0680*%
%ADD12C,0.0520*%
%ADD13OC8,0.0740*%
%ADD14C,0.0705*%
%ADD15OC8,0.0600*%
%ADD16C,0.0680*%
D10*
X005490Y001530D02*
X006010Y001530D01*
X006010Y002530D02*
X005490Y002530D01*
X005490Y003530D02*
X006010Y003530D01*
X006010Y004530D02*
X005490Y004530D01*
X005490Y005530D02*
X006010Y005530D01*
X006010Y006530D02*
X005490Y006530D01*
X005490Y007530D02*
X006010Y007530D01*
X006010Y008530D02*
X005490Y008530D01*
X005490Y009530D02*
X006010Y009530D01*
X006010Y010530D02*
X005490Y010530D01*
X005490Y011530D02*
X006010Y011530D01*
X006010Y012530D02*
X005490Y012530D01*
X005490Y013530D02*
X006010Y013530D01*
X006010Y014530D02*
X005490Y014530D01*
X005490Y016530D02*
X006010Y016530D01*
X006010Y017530D02*
X005490Y017530D01*
X005490Y018530D02*
X006010Y018530D01*
X006010Y019530D02*
X005490Y019530D01*
X005490Y020530D02*
X006010Y020530D01*
X006010Y021530D02*
X005490Y021530D01*
X005490Y022530D02*
X006010Y022530D01*
X008490Y022530D02*
X009010Y022530D01*
X009010Y021530D02*
X008490Y021530D01*
X008490Y020530D02*
X009010Y020530D01*
X009010Y019530D02*
X008490Y019530D01*
X008490Y018530D02*
X009010Y018530D01*
X009010Y017530D02*
X008490Y017530D01*
X008490Y016530D02*
X009010Y016530D01*
X009010Y014530D02*
X008490Y014530D01*
X008490Y013530D02*
X009010Y013530D01*
X009010Y012530D02*
X008490Y012530D01*
X008490Y011530D02*
X009010Y011530D01*
X009010Y010530D02*
X008490Y010530D01*
X008490Y009530D02*
X009010Y009530D01*
X009010Y008530D02*
X008490Y008530D01*
X008490Y007530D02*
X009010Y007530D01*
X009010Y006530D02*
X008490Y006530D01*
X008490Y005530D02*
X009010Y005530D01*
X009010Y004530D02*
X008490Y004530D01*
X008490Y003530D02*
X009010Y003530D01*
X009010Y002530D02*
X008490Y002530D01*
X008490Y001530D02*
X009010Y001530D01*
D11*
X010375Y013530D03*
X010375Y014530D03*
X010375Y015530D03*
X010375Y016530D03*
X010375Y017530D03*
X010375Y018530D03*
X010375Y020030D03*
X010375Y021030D03*
X010375Y022030D03*
X011375Y022030D03*
X011375Y021030D03*
X011375Y020030D03*
X011375Y018530D03*
X011375Y017530D03*
X011375Y016530D03*
X011375Y015530D03*
X011375Y014530D03*
X011375Y013530D03*
D12*
X010720Y011030D02*
X010280Y011030D01*
X010280Y009030D02*
X010720Y009030D01*
D13*
X010875Y003530D03*
X010875Y001530D03*
X012875Y001530D03*
X012875Y003530D03*
D14*
X003000Y007530D03*
X003750Y009280D03*
X003000Y010530D03*
X003750Y012280D03*
X010000Y004530D03*
X010000Y001530D03*
D15*
X010000Y006780D03*
X011000Y006780D03*
X011875Y009030D03*
X012875Y009030D03*
X012875Y011030D03*
X011875Y011030D03*
X012875Y015530D03*
X012875Y016530D03*
X004750Y008530D03*
X004750Y007530D03*
X003750Y007530D03*
X003750Y008530D03*
D16*
X004200Y020030D02*
X004800Y020030D01*
X004800Y021030D02*
X004200Y021030D01*
M02*
