%
M48
M72
T01C0.0240
T02C0.0320
T03C0.0400
T04C0.0440
%
T01
X16965Y3605
X18965Y3605
T02
X6215Y2105
X6215Y3105
X5215Y3105
X3715Y2605
X1715Y2605
X1715Y3605
X3715Y3605
X5215Y4105
X3215Y4355
X2215Y4355
X715Y4355
X715Y5355
X1715Y5355
X2715Y5355
X3715Y5355
X4715Y5355
X5715Y5355
X6715Y5355
X7715Y5355
X9465Y5355
X10465Y5355
X11465Y5355
X12465Y5355
X13465Y5355
X14465Y5355
X15465Y5355
X16465Y5355
X17465Y5355
X18465Y5355
X19465Y5355
X20465Y5355
X21465Y5355
X22465Y5355
X24465Y5355
X25465Y5355
X26465Y5355
X27465Y5355
X28465Y5355
X29465Y5355
X30465Y5355
X30465Y8355
X29465Y8355
X28465Y8355
X27465Y8355
X26465Y8355
X25465Y8355
X24465Y8355
X22465Y8355
X21465Y8355
X20465Y8355
X19465Y8355
X18465Y8355
X17465Y8355
X16465Y8355
X15465Y8355
X14465Y8355
X13465Y8355
X12465Y8355
X11465Y8355
X10465Y8355
X9465Y8355
X7715Y8355
X6715Y8355
X5715Y8355
X4715Y8355
X3715Y8355
X2715Y8355
X1715Y8355
X4715Y9605
X5715Y9605
X15465Y9355
X16465Y9355
X16465Y10355
X17340Y10355
X18340Y10355
X16465Y11105
X15465Y11105
X15465Y10355
X14715Y4105
X14715Y3105
X16965Y2230
X18965Y2230
X18965Y1230
X16965Y1230
X23465Y1230
X24465Y1230
X11465Y4105
X10465Y4105
T03
X21465Y3730
X22465Y3730
X23465Y3730
X24465Y3730
X25465Y3730
X26465Y3730
X27965Y3730
X28965Y3730
X29965Y3730
X29965Y2730
X28965Y2730
X27965Y2730
X26465Y2730
X25465Y2730
X24465Y2730
X23465Y2730
X22465Y2730
X21465Y2730
X27965Y9980
X28965Y9980
T04
X11465Y3230
X9465Y3230
X9465Y1230
X11465Y1230
M30
