G75*
%MOIN*%
%OFA0B0*%
%FSLAX24Y24*%
%IPPOS*%
%LPD*%
%AMOC8*
5,1,8,0,0,1.08239X$1,22.5*
%
%ADD10C,0.0540*%
%ADD11OC8,0.0660*%
%ADD12C,0.0440*%
%ADD13OC8,0.0720*%
%ADD14OC8,0.0540*%
%ADD15C,0.0660*%
D10*
X001715Y005115D02*
X001715Y005595D01*
X002715Y005595D02*
X002715Y005115D01*
X003715Y005115D02*
X003715Y005595D01*
X004715Y005595D02*
X004715Y005115D01*
X005715Y005115D02*
X005715Y005595D01*
X006715Y005595D02*
X006715Y005115D01*
X007715Y005115D02*
X007715Y005595D01*
X009465Y005595D02*
X009465Y005115D01*
X010465Y005115D02*
X010465Y005595D01*
X011465Y005595D02*
X011465Y005115D01*
X012465Y005115D02*
X012465Y005595D01*
X013465Y005595D02*
X013465Y005115D01*
X014465Y005115D02*
X014465Y005595D01*
X015465Y005595D02*
X015465Y005115D01*
X016465Y005115D02*
X016465Y005595D01*
X017465Y005595D02*
X017465Y005115D01*
X018465Y005115D02*
X018465Y005595D01*
X019465Y005595D02*
X019465Y005115D01*
X020465Y005115D02*
X020465Y005595D01*
X021465Y005595D02*
X021465Y005115D01*
X022465Y005115D02*
X022465Y005595D01*
X024465Y005595D02*
X024465Y005115D01*
X025465Y005115D02*
X025465Y005595D01*
X026465Y005595D02*
X026465Y005115D01*
X027465Y005115D02*
X027465Y005595D01*
X028465Y005595D02*
X028465Y005115D01*
X029465Y005115D02*
X029465Y005595D01*
X030465Y005595D02*
X030465Y005115D01*
X030465Y008115D02*
X030465Y008595D01*
X029465Y008595D02*
X029465Y008115D01*
X028465Y008115D02*
X028465Y008595D01*
X027465Y008595D02*
X027465Y008115D01*
X026465Y008115D02*
X026465Y008595D01*
X025465Y008595D02*
X025465Y008115D01*
X024465Y008115D02*
X024465Y008595D01*
X022465Y008595D02*
X022465Y008115D01*
X021465Y008115D02*
X021465Y008595D01*
X020465Y008595D02*
X020465Y008115D01*
X019465Y008115D02*
X019465Y008595D01*
X018465Y008595D02*
X018465Y008115D01*
X017465Y008115D02*
X017465Y008595D01*
X016465Y008595D02*
X016465Y008115D01*
X015465Y008115D02*
X015465Y008595D01*
X014465Y008595D02*
X014465Y008115D01*
X013465Y008115D02*
X013465Y008595D01*
X012465Y008595D02*
X012465Y008115D01*
X011465Y008115D02*
X011465Y008595D01*
X010465Y008595D02*
X010465Y008115D01*
X009465Y008115D02*
X009465Y008595D01*
X007715Y008595D02*
X007715Y008115D01*
X006715Y008115D02*
X006715Y008595D01*
X005715Y008595D02*
X005715Y008115D01*
X004715Y008115D02*
X004715Y008595D01*
X003715Y008595D02*
X003715Y008115D01*
X002715Y008115D02*
X002715Y008595D01*
X001715Y008595D02*
X001715Y008115D01*
D11*
X021465Y003730D03*
X022465Y003730D03*
X023465Y003730D03*
X024465Y003730D03*
X025465Y003730D03*
X026465Y003730D03*
X027965Y003730D03*
X028965Y003730D03*
X029965Y003730D03*
X029965Y002730D03*
X028965Y002730D03*
X027965Y002730D03*
X026465Y002730D03*
X025465Y002730D03*
X024465Y002730D03*
X023465Y002730D03*
X022465Y002730D03*
X021465Y002730D03*
D12*
X018965Y003415D02*
X018965Y003795D01*
X016965Y003795D02*
X016965Y003415D01*
D13*
X011465Y003230D03*
X009465Y003230D03*
X009465Y001230D03*
X011465Y001230D03*
D14*
X006215Y002105D03*
X006215Y003105D03*
X005215Y003105D03*
X003715Y002605D03*
X001715Y002605D03*
X001715Y003605D03*
X003715Y003605D03*
X005215Y004105D03*
X003215Y004355D03*
X002215Y004355D03*
X000715Y004355D03*
X000715Y005355D03*
X010465Y004105D03*
X011465Y004105D03*
X014715Y004105D03*
X014715Y003105D03*
X016965Y002230D03*
X018965Y002230D03*
X018965Y001230D03*
X016965Y001230D03*
X023465Y001230D03*
X024465Y001230D03*
X016465Y009355D03*
X015465Y009355D03*
X015465Y010355D03*
X016465Y010355D03*
X017340Y010355D03*
X018340Y010355D03*
X016465Y011105D03*
X015465Y011105D03*
X005715Y009605D03*
X004715Y009605D03*
D15*
X027965Y009680D02*
X027965Y010280D01*
X028965Y010280D02*
X028965Y009680D01*
M02*
