G75*
%MOIN*%
%OFA0B0*%
%FSLAX24Y24*%
%IPPOS*%
%LPD*%
%AMOC8*
5,1,8,0,0,1.08239X$1,22.5*
%
%ADD10C,0.0520*%
%ADD11OC8,0.0600*%
%ADD12C,0.0440*%
%ADD13OC8,0.0660*%
%ADD14OC8,0.0520*%
%ADD15C,0.0600*%
%ADD16C,0.0160*%
D10*
X001715Y005095D02*
X001715Y005615D01*
X002715Y005615D02*
X002715Y005095D01*
X003715Y005095D02*
X003715Y005615D01*
X004715Y005615D02*
X004715Y005095D01*
X005715Y005095D02*
X005715Y005615D01*
X006715Y005615D02*
X006715Y005095D01*
X007715Y005095D02*
X007715Y005615D01*
X009465Y005615D02*
X009465Y005095D01*
X010465Y005095D02*
X010465Y005615D01*
X011465Y005615D02*
X011465Y005095D01*
X012465Y005095D02*
X012465Y005615D01*
X013465Y005615D02*
X013465Y005095D01*
X014465Y005095D02*
X014465Y005615D01*
X015465Y005615D02*
X015465Y005095D01*
X016465Y005095D02*
X016465Y005615D01*
X017465Y005615D02*
X017465Y005095D01*
X018465Y005095D02*
X018465Y005615D01*
X019465Y005615D02*
X019465Y005095D01*
X020465Y005095D02*
X020465Y005615D01*
X021465Y005615D02*
X021465Y005095D01*
X022465Y005095D02*
X022465Y005615D01*
X024465Y005615D02*
X024465Y005095D01*
X025465Y005095D02*
X025465Y005615D01*
X026465Y005615D02*
X026465Y005095D01*
X027465Y005095D02*
X027465Y005615D01*
X028465Y005615D02*
X028465Y005095D01*
X029465Y005095D02*
X029465Y005615D01*
X030465Y005615D02*
X030465Y005095D01*
X030465Y008095D02*
X030465Y008615D01*
X029465Y008615D02*
X029465Y008095D01*
X028465Y008095D02*
X028465Y008615D01*
X027465Y008615D02*
X027465Y008095D01*
X026465Y008095D02*
X026465Y008615D01*
X025465Y008615D02*
X025465Y008095D01*
X024465Y008095D02*
X024465Y008615D01*
X022465Y008615D02*
X022465Y008095D01*
X021465Y008095D02*
X021465Y008615D01*
X020465Y008615D02*
X020465Y008095D01*
X019465Y008095D02*
X019465Y008615D01*
X018465Y008615D02*
X018465Y008095D01*
X017465Y008095D02*
X017465Y008615D01*
X016465Y008615D02*
X016465Y008095D01*
X015465Y008095D02*
X015465Y008615D01*
X014465Y008615D02*
X014465Y008095D01*
X013465Y008095D02*
X013465Y008615D01*
X012465Y008615D02*
X012465Y008095D01*
X011465Y008095D02*
X011465Y008615D01*
X010465Y008615D02*
X010465Y008095D01*
X009465Y008095D02*
X009465Y008615D01*
X007715Y008615D02*
X007715Y008095D01*
X006715Y008095D02*
X006715Y008615D01*
X005715Y008615D02*
X005715Y008095D01*
X004715Y008095D02*
X004715Y008615D01*
X003715Y008615D02*
X003715Y008095D01*
X002715Y008095D02*
X002715Y008615D01*
X001715Y008615D02*
X001715Y008095D01*
D11*
X021465Y003730D03*
X022465Y003730D03*
X023465Y003730D03*
X024465Y003730D03*
X025465Y003730D03*
X026465Y003730D03*
X027965Y003730D03*
X028965Y003730D03*
X029965Y003730D03*
X029965Y002730D03*
X028965Y002730D03*
X027965Y002730D03*
X026465Y002730D03*
X025465Y002730D03*
X024465Y002730D03*
X023465Y002730D03*
X022465Y002730D03*
X021465Y002730D03*
D12*
X018965Y003385D02*
X018965Y003825D01*
X016965Y003825D02*
X016965Y003385D01*
D13*
X011465Y003230D03*
X009465Y003230D03*
X009465Y001230D03*
X011465Y001230D03*
D14*
X014715Y003105D03*
X016965Y002230D03*
X018965Y002230D03*
X018965Y001230D03*
X016965Y001230D03*
X023465Y001230D03*
X024465Y001230D03*
X014715Y004105D03*
X011465Y004105D03*
X010465Y004105D03*
X006215Y003105D03*
X005215Y003105D03*
X003715Y002605D03*
X001715Y002605D03*
X001715Y003605D03*
X003715Y003605D03*
X005215Y004105D03*
X003215Y004355D03*
X002215Y004355D03*
X000715Y004355D03*
X000715Y005355D03*
X006215Y002105D03*
X015465Y009355D03*
X016465Y009355D03*
X016465Y010355D03*
X017340Y010355D03*
X018340Y010355D03*
X016465Y011105D03*
X015465Y011105D03*
X015465Y010355D03*
X005715Y009605D03*
X004715Y009605D03*
D15*
X027965Y009680D02*
X027965Y010280D01*
X028965Y010280D02*
X028965Y009680D01*
D16*
X000695Y003915D02*
X000695Y000585D01*
X009000Y000585D01*
X008680Y000905D01*
X008680Y001555D01*
X009140Y002015D01*
X009790Y002015D01*
X010250Y001555D01*
X010250Y000905D01*
X009930Y000585D01*
X024099Y000585D01*
X023771Y000913D01*
X023647Y000790D01*
X023465Y000790D01*
X023465Y001230D01*
X018965Y001230D01*
X016965Y001230D01*
X015965Y001230D01*
X014715Y001230D01*
X014715Y003105D01*
X015155Y003105D01*
X015155Y003287D01*
X015032Y003411D01*
X015430Y003809D01*
X015430Y004063D01*
X015768Y004401D01*
X015845Y004479D01*
X015870Y004489D01*
X016071Y004690D01*
X016124Y004816D01*
X016129Y004808D01*
X016178Y004759D01*
X016234Y004719D01*
X016296Y004687D01*
X016362Y004666D01*
X016430Y004655D01*
X016465Y004655D01*
X016500Y004655D01*
X016511Y004657D01*
X016430Y004461D01*
X016430Y004245D01*
X016393Y004207D01*
X016290Y003959D01*
X016290Y003251D01*
X016393Y003003D01*
X016430Y002965D01*
X016430Y002706D01*
X016250Y002526D01*
X016250Y001934D01*
X016648Y001536D01*
X016525Y001412D01*
X016525Y001230D01*
X016965Y001230D01*
X017405Y001230D01*
X017405Y001412D01*
X017282Y001536D01*
X017680Y001934D01*
X017680Y002526D01*
X017500Y002706D01*
X017500Y002965D01*
X017537Y003003D01*
X017640Y003251D01*
X017640Y003959D01*
X017548Y004181D01*
X017845Y004479D01*
X017870Y004489D01*
X017965Y004584D01*
X018060Y004489D01*
X018085Y004479D01*
X018382Y004181D01*
X018290Y003959D01*
X018290Y003251D01*
X018393Y003003D01*
X018430Y002965D01*
X018430Y002706D01*
X018250Y002526D01*
X018250Y001934D01*
X018648Y001536D01*
X018525Y001412D01*
X018525Y001230D01*
X018965Y001230D01*
X019405Y001230D01*
X019405Y001412D01*
X019282Y001536D01*
X019680Y001934D01*
X019680Y002526D01*
X019500Y002706D01*
X019500Y002965D01*
X019537Y003003D01*
X019640Y003251D01*
X019640Y003959D01*
X019537Y004207D01*
X019500Y004245D01*
X019500Y004380D01*
X019607Y004380D01*
X019870Y004489D01*
X019965Y004584D01*
X020060Y004489D01*
X020323Y004380D01*
X020607Y004380D01*
X020870Y004489D01*
X020930Y004549D01*
X020930Y004263D01*
X020710Y004043D01*
X020710Y003417D01*
X020897Y003230D01*
X020710Y003043D01*
X020710Y002417D01*
X021152Y001975D01*
X021778Y001975D01*
X021965Y002162D01*
X022152Y001975D01*
X022778Y001975D01*
X023159Y002357D01*
X023266Y002250D01*
X023445Y002250D01*
X023445Y002710D01*
X023485Y002710D01*
X023485Y002250D01*
X023664Y002250D01*
X023771Y002357D01*
X023930Y002197D01*
X023930Y001706D01*
X023771Y001547D01*
X023647Y001670D01*
X023465Y001670D01*
X023465Y001230D01*
X023465Y002730D01*
X023465Y003730D01*
X023465Y005855D01*
X024465Y006855D01*
X026965Y006855D01*
X026965Y004605D01*
X027090Y004480D01*
X027090Y003105D01*
X027465Y002730D01*
X027965Y002730D01*
X027945Y002750D02*
X027945Y002710D01*
X027485Y002710D01*
X027485Y002531D01*
X027751Y002265D01*
X027068Y002265D01*
X027220Y002417D01*
X027220Y003043D01*
X027033Y003230D01*
X027215Y003412D01*
X027592Y003036D01*
X027485Y002929D01*
X027485Y002750D01*
X027945Y002750D01*
X027485Y002800D02*
X027220Y002800D01*
X027220Y002958D02*
X027514Y002958D01*
X027511Y003117D02*
X027146Y003117D01*
X027078Y003275D02*
X027352Y003275D01*
X027840Y003730D02*
X027465Y004105D01*
X027465Y005355D01*
X026465Y005355D02*
X026465Y003730D01*
X026465Y002730D01*
X027220Y002641D02*
X027485Y002641D01*
X027534Y002483D02*
X027220Y002483D01*
X027127Y002324D02*
X027692Y002324D01*
X029465Y001730D02*
X024465Y001730D01*
X024465Y001230D01*
X023914Y001690D02*
X019436Y001690D01*
X019286Y001532D02*
X023144Y001532D01*
X023025Y001412D02*
X023025Y001230D01*
X023465Y001230D01*
X023465Y001230D01*
X023465Y001230D01*
X023465Y001230D01*
X023465Y001670D01*
X023283Y001670D01*
X023025Y001412D01*
X023025Y001373D02*
X019405Y001373D01*
X019405Y001230D02*
X018965Y001230D01*
X018965Y001230D01*
X018965Y000790D01*
X019147Y000790D01*
X019405Y001048D01*
X019405Y001230D01*
X019405Y001215D02*
X023025Y001215D01*
X023025Y001230D02*
X023025Y001048D01*
X023283Y000790D01*
X023465Y000790D01*
X023465Y001230D01*
X023025Y001230D01*
X023465Y001215D02*
X023465Y001215D01*
X023465Y001373D02*
X023465Y001373D01*
X023465Y001532D02*
X023465Y001532D01*
X023930Y001849D02*
X019595Y001849D01*
X019680Y002007D02*
X021120Y002007D01*
X020962Y002166D02*
X019680Y002166D01*
X019680Y002324D02*
X020803Y002324D01*
X020710Y002483D02*
X019680Y002483D01*
X019565Y002641D02*
X020710Y002641D01*
X020710Y002800D02*
X019500Y002800D01*
X019500Y002958D02*
X020710Y002958D01*
X020784Y003117D02*
X019584Y003117D01*
X019640Y003275D02*
X020852Y003275D01*
X020710Y003434D02*
X019640Y003434D01*
X019640Y003592D02*
X020710Y003592D01*
X020710Y003751D02*
X019640Y003751D01*
X019640Y003909D02*
X020710Y003909D01*
X020735Y004068D02*
X019595Y004068D01*
X019519Y004226D02*
X020893Y004226D01*
X020930Y004385D02*
X020618Y004385D01*
X020312Y004385D02*
X019618Y004385D01*
X019924Y004543D02*
X020006Y004543D01*
X020924Y004543D02*
X020930Y004543D01*
X023000Y004543D02*
X023930Y004543D01*
X023930Y004619D02*
X023930Y004263D01*
X023771Y004103D01*
X023664Y004210D01*
X023485Y004210D01*
X023485Y003750D01*
X023445Y003750D01*
X023445Y004210D01*
X023266Y004210D01*
X023159Y004103D01*
X023000Y004263D01*
X023000Y004619D01*
X023071Y004690D01*
X023180Y004953D01*
X023180Y005757D01*
X023071Y006020D01*
X022870Y006221D01*
X022607Y006330D01*
X022323Y006330D01*
X022060Y006221D01*
X021965Y006126D01*
X021870Y006221D01*
X021607Y006330D01*
X021323Y006330D01*
X021060Y006221D01*
X020965Y006126D01*
X020870Y006221D01*
X020607Y006330D01*
X020323Y006330D01*
X020060Y006221D01*
X019965Y006126D01*
X019870Y006221D01*
X019607Y006330D01*
X019323Y006330D01*
X019060Y006221D01*
X018965Y006126D01*
X018870Y006221D01*
X018607Y006330D01*
X018323Y006330D01*
X018060Y006221D01*
X017965Y006126D01*
X017870Y006221D01*
X017607Y006330D01*
X017323Y006330D01*
X017060Y006221D01*
X016859Y006020D01*
X016806Y005894D01*
X016801Y005902D01*
X016752Y005951D01*
X016696Y005991D01*
X016634Y006023D01*
X016568Y006044D01*
X016500Y006055D01*
X016465Y006055D01*
X016465Y005355D01*
X016465Y006355D01*
X015465Y007355D01*
X015465Y008355D01*
X015465Y009355D01*
X016465Y009355D01*
X016905Y009355D01*
X016905Y009537D01*
X016782Y009661D01*
X016902Y009781D01*
X017044Y009640D01*
X017636Y009640D01*
X017840Y009844D01*
X018044Y009640D01*
X018636Y009640D01*
X019055Y010059D01*
X019055Y010651D01*
X018636Y011070D01*
X018044Y011070D01*
X017875Y010901D01*
X017875Y011211D01*
X017794Y011408D01*
X017707Y011495D01*
X030477Y011495D01*
X030477Y009330D01*
X030323Y009330D01*
X030060Y009221D01*
X029965Y009126D01*
X029870Y009221D01*
X029633Y009319D01*
X029720Y009530D01*
X029720Y010430D01*
X029605Y010708D01*
X029393Y010920D01*
X029115Y011035D01*
X028815Y011035D01*
X028537Y010920D01*
X028325Y010708D01*
X028293Y010631D01*
X028278Y010646D01*
X028217Y010691D01*
X028149Y010725D01*
X028077Y010748D01*
X028003Y010760D01*
X027985Y010760D01*
X027985Y010000D01*
X027945Y010000D01*
X027945Y010760D01*
X027927Y010760D01*
X027853Y010748D01*
X027781Y010725D01*
X027713Y010691D01*
X027652Y010646D01*
X027599Y010593D01*
X027554Y010532D01*
X027520Y010464D01*
X027497Y010392D01*
X027485Y010318D01*
X027485Y010000D01*
X027945Y010000D01*
X027945Y009960D01*
X027485Y009960D01*
X027485Y009642D01*
X027497Y009568D01*
X027520Y009496D01*
X027554Y009428D01*
X027599Y009367D01*
X027652Y009314D01*
X027660Y009308D01*
X027607Y009330D01*
X027323Y009330D01*
X027060Y009221D01*
X026965Y009126D01*
X026870Y009221D01*
X026607Y009330D01*
X026323Y009330D01*
X026060Y009221D01*
X025965Y009126D01*
X025870Y009221D01*
X025607Y009330D01*
X025323Y009330D01*
X025060Y009221D01*
X024859Y009020D01*
X024806Y008894D01*
X024801Y008902D01*
X024752Y008951D01*
X024696Y008991D01*
X024634Y009023D01*
X024568Y009044D01*
X024500Y009055D01*
X024465Y009055D01*
X024465Y008355D01*
X024465Y006855D01*
X024323Y006330D02*
X024060Y006221D01*
X023859Y006020D01*
X023750Y005757D01*
X023750Y004953D01*
X023859Y004690D01*
X023930Y004619D01*
X023854Y004702D02*
X023076Y004702D01*
X023142Y004860D02*
X023788Y004860D01*
X023750Y005019D02*
X023180Y005019D01*
X023180Y005177D02*
X023750Y005177D01*
X023750Y005336D02*
X023180Y005336D01*
X023180Y005494D02*
X023750Y005494D01*
X023750Y005653D02*
X023180Y005653D01*
X023158Y005811D02*
X023772Y005811D01*
X023838Y005970D02*
X023092Y005970D01*
X022963Y006128D02*
X023967Y006128D01*
X024218Y006287D02*
X022712Y006287D01*
X022218Y006287D02*
X021712Y006287D01*
X021218Y006287D02*
X020712Y006287D01*
X020218Y006287D02*
X019712Y006287D01*
X019963Y006128D02*
X019967Y006128D01*
X019218Y006287D02*
X018712Y006287D01*
X018963Y006128D02*
X018967Y006128D01*
X018218Y006287D02*
X017712Y006287D01*
X017218Y006287D02*
X016000Y006287D01*
X016000Y006445D02*
X028430Y006445D01*
X028430Y006330D02*
X028323Y006330D01*
X028060Y006221D01*
X027965Y006126D01*
X027870Y006221D01*
X027607Y006330D01*
X027323Y006330D01*
X027060Y006221D01*
X026965Y006126D01*
X026870Y006221D01*
X026607Y006330D01*
X026323Y006330D01*
X026060Y006221D01*
X025965Y006126D01*
X025870Y006221D01*
X025607Y006330D01*
X025323Y006330D01*
X025060Y006221D01*
X024965Y006126D01*
X024870Y006221D01*
X024607Y006330D01*
X024323Y006330D01*
X024712Y006287D02*
X025218Y006287D01*
X025712Y006287D02*
X026218Y006287D01*
X026712Y006287D02*
X027218Y006287D01*
X026967Y006128D02*
X026963Y006128D01*
X027712Y006287D02*
X028218Y006287D01*
X028430Y006330D02*
X028430Y007086D01*
X028511Y007283D01*
X028609Y007381D01*
X028607Y007380D01*
X028323Y007380D01*
X028060Y007489D01*
X027965Y007584D01*
X027870Y007489D01*
X027607Y007380D01*
X027323Y007380D01*
X027060Y007489D01*
X026965Y007584D01*
X026870Y007489D01*
X026607Y007380D01*
X026323Y007380D01*
X026060Y007489D01*
X025965Y007584D01*
X025870Y007489D01*
X025607Y007380D01*
X025323Y007380D01*
X025060Y007489D01*
X024859Y007690D01*
X024806Y007816D01*
X024801Y007808D01*
X024752Y007759D01*
X024696Y007719D01*
X024634Y007687D01*
X024568Y007666D01*
X024500Y007655D01*
X024465Y007655D01*
X024465Y008355D01*
X024465Y008355D01*
X024465Y008355D01*
X024465Y008355D01*
X024025Y008355D01*
X024025Y008650D01*
X024036Y008718D01*
X024057Y008784D01*
X024089Y008846D01*
X024129Y008902D01*
X024178Y008951D01*
X024234Y008991D01*
X024296Y009023D01*
X024362Y009044D01*
X024430Y009055D01*
X024465Y009055D01*
X024465Y008355D01*
X024465Y007655D01*
X024430Y007655D01*
X024362Y007666D01*
X024296Y007687D01*
X024234Y007719D01*
X024178Y007759D01*
X024129Y007808D01*
X024089Y007864D01*
X024057Y007926D01*
X024036Y007992D01*
X024025Y008060D01*
X024025Y008355D01*
X024465Y008355D01*
X024465Y008347D02*
X024465Y008347D01*
X024465Y008506D02*
X024465Y008506D01*
X024465Y008664D02*
X024465Y008664D01*
X024027Y008664D02*
X023180Y008664D01*
X023180Y008757D02*
X023071Y009020D01*
X022870Y009221D01*
X022607Y009330D01*
X022323Y009330D01*
X022060Y009221D01*
X021965Y009126D01*
X021870Y009221D01*
X021607Y009330D01*
X021323Y009330D01*
X021060Y009221D01*
X020965Y009126D01*
X020870Y009221D01*
X020607Y009330D01*
X020323Y009330D01*
X020060Y009221D01*
X019965Y009126D01*
X019870Y009221D01*
X019607Y009330D01*
X019323Y009330D01*
X019060Y009221D01*
X018965Y009126D01*
X018870Y009221D01*
X018607Y009330D01*
X018323Y009330D01*
X018060Y009221D01*
X017965Y009126D01*
X017870Y009221D01*
X017607Y009330D01*
X017323Y009330D01*
X017060Y009221D01*
X016965Y009126D01*
X016905Y009186D01*
X016905Y009355D01*
X016465Y009355D01*
X016465Y009355D01*
X016465Y009355D01*
X016025Y009355D01*
X016025Y009537D01*
X016148Y009661D01*
X015965Y009844D01*
X015782Y009661D01*
X015905Y009537D01*
X015905Y009355D01*
X015465Y009355D01*
X015465Y009355D01*
X015465Y009355D01*
X015025Y009355D01*
X015025Y009537D01*
X015148Y009661D01*
X014750Y010059D01*
X014750Y010651D01*
X014829Y010730D01*
X014750Y010809D01*
X014750Y011401D01*
X014844Y011495D01*
X000695Y011495D01*
X000695Y006070D01*
X001011Y006070D01*
X001095Y005986D01*
X001109Y006020D01*
X001310Y006221D01*
X001573Y006330D01*
X001857Y006330D01*
X002120Y006221D01*
X002215Y006126D01*
X002310Y006221D01*
X002573Y006330D01*
X002857Y006330D01*
X003120Y006221D01*
X003215Y006126D01*
X003310Y006221D01*
X003573Y006330D01*
X003857Y006330D01*
X004120Y006221D01*
X004215Y006126D01*
X004310Y006221D01*
X004573Y006330D01*
X004857Y006330D01*
X005120Y006221D01*
X005180Y006161D01*
X005180Y007619D01*
X005109Y007690D01*
X005056Y007816D01*
X005051Y007808D01*
X005002Y007759D01*
X004946Y007719D01*
X004884Y007687D01*
X004818Y007666D01*
X004750Y007655D01*
X004715Y007655D01*
X004715Y008355D01*
X004715Y009605D01*
X004715Y009605D01*
X004715Y010045D01*
X004897Y010045D01*
X005021Y009922D01*
X005419Y010320D01*
X006011Y010320D01*
X006430Y009901D01*
X006430Y009890D01*
X014321Y009890D01*
X014518Y009809D01*
X014768Y009559D01*
X014919Y009408D01*
X015000Y009211D01*
X015000Y009091D01*
X015071Y009020D01*
X015124Y008894D01*
X015129Y008902D01*
X015178Y008951D01*
X015218Y008980D01*
X015025Y009173D01*
X015025Y009355D01*
X015465Y009355D01*
X015465Y009055D01*
X015465Y008355D01*
X015465Y008355D01*
X015465Y007655D01*
X015500Y007655D01*
X015568Y007666D01*
X015634Y007687D01*
X015696Y007719D01*
X015752Y007759D01*
X015801Y007808D01*
X015806Y007816D01*
X015859Y007690D01*
X016060Y007489D01*
X016323Y007380D01*
X016607Y007380D01*
X016870Y007489D01*
X016965Y007584D01*
X017060Y007489D01*
X017323Y007380D01*
X017607Y007380D01*
X017870Y007489D01*
X017965Y007584D01*
X018060Y007489D01*
X018323Y007380D01*
X018607Y007380D01*
X018870Y007489D01*
X018965Y007584D01*
X019060Y007489D01*
X019323Y007380D01*
X019607Y007380D01*
X019870Y007489D01*
X019965Y007584D01*
X020060Y007489D01*
X020323Y007380D01*
X020607Y007380D01*
X020870Y007489D01*
X020965Y007584D01*
X021060Y007489D01*
X021323Y007380D01*
X021607Y007380D01*
X021870Y007489D01*
X021965Y007584D01*
X022060Y007489D01*
X022323Y007380D01*
X022607Y007380D01*
X022870Y007489D01*
X023071Y007690D01*
X023180Y007953D01*
X023180Y008757D01*
X023153Y008823D02*
X024077Y008823D01*
X024220Y008981D02*
X023087Y008981D01*
X022952Y009140D02*
X024978Y009140D01*
X024843Y008981D02*
X024710Y008981D01*
X024465Y008981D02*
X024465Y008981D01*
X024465Y008823D02*
X024465Y008823D01*
X024025Y008506D02*
X023180Y008506D01*
X023180Y008347D02*
X024025Y008347D01*
X024025Y008189D02*
X023180Y008189D01*
X023180Y008030D02*
X024030Y008030D01*
X024085Y007872D02*
X023146Y007872D01*
X023081Y007713D02*
X024246Y007713D01*
X024465Y007713D02*
X024465Y007713D01*
X024684Y007713D02*
X024849Y007713D01*
X024994Y007555D02*
X022936Y007555D01*
X022646Y007396D02*
X025284Y007396D01*
X025646Y007396D02*
X026284Y007396D01*
X025994Y007555D02*
X025936Y007555D01*
X026646Y007396D02*
X027284Y007396D01*
X026994Y007555D02*
X026936Y007555D01*
X027646Y007396D02*
X028284Y007396D01*
X027965Y007355D02*
X027465Y006855D01*
X026965Y006855D01*
X027965Y007355D02*
X027965Y009980D01*
X027945Y010091D02*
X027985Y010091D01*
X027985Y010249D02*
X027945Y010249D01*
X027485Y010249D02*
X019055Y010249D01*
X019055Y010091D02*
X027485Y010091D01*
X027485Y009932D02*
X018928Y009932D01*
X018770Y009774D02*
X027485Y009774D01*
X027489Y009615D02*
X016827Y009615D01*
X016895Y009774D02*
X016910Y009774D01*
X016905Y009457D02*
X027540Y009457D01*
X027246Y009298D02*
X026684Y009298D01*
X026246Y009298D02*
X025684Y009298D01*
X025246Y009298D02*
X022684Y009298D01*
X022246Y009298D02*
X021684Y009298D01*
X021246Y009298D02*
X020684Y009298D01*
X020246Y009298D02*
X019684Y009298D01*
X019952Y009140D02*
X019978Y009140D01*
X019246Y009298D02*
X018684Y009298D01*
X018952Y009140D02*
X018978Y009140D01*
X018246Y009298D02*
X017684Y009298D01*
X017246Y009298D02*
X016905Y009298D01*
X016952Y009140D02*
X016978Y009140D01*
X016465Y009355D02*
X016025Y009355D01*
X016025Y009186D01*
X015859Y009020D01*
X015806Y008894D01*
X015801Y008902D01*
X015752Y008951D01*
X015712Y008980D01*
X015905Y009173D01*
X015905Y009355D01*
X015465Y009355D01*
X015465Y009355D01*
X015465Y008355D01*
X015465Y008355D01*
X015465Y007655D01*
X015430Y007655D01*
X015362Y007666D01*
X015296Y007687D01*
X015234Y007719D01*
X015178Y007759D01*
X015129Y007808D01*
X015124Y007816D01*
X015071Y007690D01*
X014963Y007581D01*
X015018Y007559D01*
X015768Y006809D01*
X015919Y006658D01*
X016000Y006461D01*
X016000Y006091D01*
X016071Y006020D01*
X016124Y005894D01*
X016129Y005902D01*
X016178Y005951D01*
X016234Y005991D01*
X016296Y006023D01*
X016362Y006044D01*
X016430Y006055D01*
X016465Y006055D01*
X016465Y005355D01*
X016465Y004855D01*
X015965Y004355D01*
X015965Y001230D01*
X016525Y001230D02*
X016525Y001048D01*
X016783Y000790D01*
X016965Y000790D01*
X017147Y000790D01*
X017405Y001048D01*
X017405Y001230D01*
X016965Y001230D01*
X016965Y001230D01*
X016965Y000790D01*
X016965Y001230D01*
X016965Y001230D01*
X016965Y001230D01*
X016525Y001230D01*
X016525Y001215D02*
X011495Y001215D01*
X011495Y001200D02*
X011495Y001260D01*
X011435Y001260D01*
X011435Y001740D01*
X011254Y001740D01*
X010955Y001441D01*
X010955Y001260D01*
X011435Y001260D01*
X011435Y001200D01*
X010955Y001200D01*
X010955Y001019D01*
X011254Y000720D01*
X011435Y000720D01*
X011435Y001200D01*
X011495Y001200D01*
X011975Y001200D01*
X011975Y001019D01*
X011676Y000720D01*
X011495Y000720D01*
X011495Y001200D01*
X011465Y001230D02*
X011465Y001730D01*
X011090Y002105D01*
X008215Y002105D01*
X007215Y003105D01*
X006215Y003105D01*
X005215Y003105D01*
X004715Y002605D01*
X003715Y002605D01*
X002215Y004105D01*
X002215Y004355D01*
X002215Y006605D01*
X002715Y007105D01*
X003340Y007105D01*
X003715Y007480D01*
X003715Y008355D01*
X004715Y008355D01*
X004715Y008355D01*
X004715Y009055D01*
X004750Y009055D01*
X004818Y009044D01*
X004884Y009023D01*
X004946Y008991D01*
X005002Y008951D01*
X005051Y008902D01*
X005056Y008894D01*
X005109Y009020D01*
X005180Y009091D01*
X005180Y009129D01*
X005021Y009288D01*
X004897Y009165D01*
X004715Y009165D01*
X004715Y009605D01*
X004715Y009605D01*
X004715Y009605D01*
X004275Y009605D01*
X004275Y009787D01*
X004533Y010045D01*
X004715Y010045D01*
X004715Y009605D01*
X004715Y009165D01*
X004533Y009165D01*
X004275Y009423D01*
X004275Y009605D01*
X004715Y009605D01*
X004715Y009615D02*
X004715Y009615D01*
X004715Y009457D02*
X004715Y009457D01*
X004715Y009298D02*
X004715Y009298D01*
X004400Y009298D02*
X002934Y009298D01*
X002857Y009330D02*
X002573Y009330D01*
X002310Y009221D01*
X002215Y009126D01*
X002120Y009221D01*
X001857Y009330D01*
X001573Y009330D01*
X001310Y009221D01*
X001109Y009020D01*
X001000Y008757D01*
X001000Y007953D01*
X001109Y007690D01*
X001310Y007489D01*
X001573Y007380D01*
X001857Y007380D01*
X002120Y007489D01*
X002215Y007584D01*
X002310Y007489D01*
X002573Y007380D01*
X002857Y007380D01*
X003120Y007489D01*
X003321Y007690D01*
X003374Y007816D01*
X003379Y007808D01*
X003428Y007759D01*
X003484Y007719D01*
X003546Y007687D01*
X003612Y007666D01*
X003680Y007655D01*
X003715Y007655D01*
X003750Y007655D01*
X003818Y007666D01*
X003884Y007687D01*
X003946Y007719D01*
X004002Y007759D01*
X004051Y007808D01*
X004091Y007864D01*
X004123Y007926D01*
X004144Y007992D01*
X004155Y008060D01*
X004155Y008355D01*
X004155Y008650D01*
X004144Y008718D01*
X004123Y008784D01*
X004091Y008846D01*
X004051Y008902D01*
X004002Y008951D01*
X003946Y008991D01*
X003884Y009023D01*
X003818Y009044D01*
X003750Y009055D01*
X003715Y009055D01*
X003715Y008355D01*
X004155Y008355D01*
X003715Y008355D01*
X003715Y008355D01*
X003715Y008355D01*
X003715Y007655D01*
X003715Y008355D01*
X003715Y008355D01*
X003715Y009055D01*
X003680Y009055D01*
X003612Y009044D01*
X003546Y009023D01*
X003484Y008991D01*
X003428Y008951D01*
X003379Y008902D01*
X003374Y008894D01*
X003321Y009020D01*
X003120Y009221D01*
X002857Y009330D01*
X002496Y009298D02*
X001934Y009298D01*
X002202Y009140D02*
X002228Y009140D01*
X001496Y009298D02*
X000695Y009298D01*
X000695Y009457D02*
X004275Y009457D01*
X004275Y009615D02*
X000695Y009615D01*
X000695Y009774D02*
X004275Y009774D01*
X004420Y009932D02*
X000695Y009932D01*
X000695Y010091D02*
X005189Y010091D01*
X005348Y010249D02*
X000695Y010249D01*
X000695Y010408D02*
X014750Y010408D01*
X014750Y010566D02*
X000695Y010566D01*
X000695Y010725D02*
X014823Y010725D01*
X014750Y010883D02*
X000695Y010883D01*
X000695Y011042D02*
X014750Y011042D01*
X014750Y011200D02*
X000695Y011200D01*
X000695Y011359D02*
X014750Y011359D01*
X016465Y011105D02*
X017340Y011105D01*
X017340Y010355D01*
X016465Y010355D01*
X016035Y009774D02*
X015895Y009774D01*
X015827Y009615D02*
X016103Y009615D01*
X016025Y009457D02*
X015905Y009457D01*
X015905Y009298D02*
X016025Y009298D01*
X015978Y009140D02*
X015872Y009140D01*
X015843Y008981D02*
X015713Y008981D01*
X015465Y008981D02*
X015465Y008981D01*
X015465Y008823D02*
X015465Y008823D01*
X015217Y008981D02*
X015087Y008981D01*
X015058Y009140D02*
X015000Y009140D01*
X015465Y009140D02*
X015465Y009140D01*
X015465Y009298D02*
X015465Y009298D01*
X015025Y009298D02*
X014964Y009298D01*
X015025Y009457D02*
X014870Y009457D01*
X014712Y009615D02*
X015103Y009615D01*
X015035Y009774D02*
X014553Y009774D01*
X014877Y009932D02*
X006399Y009932D01*
X006241Y010091D02*
X014750Y010091D01*
X014750Y010249D02*
X006082Y010249D01*
X005031Y009932D02*
X005010Y009932D01*
X004715Y009932D02*
X004715Y009932D01*
X004715Y009774D02*
X004715Y009774D01*
X005715Y009605D02*
X005965Y009355D01*
X014215Y009355D01*
X014465Y009105D01*
X014465Y008355D01*
X015465Y008347D02*
X015465Y008347D01*
X015465Y008506D02*
X015465Y008506D01*
X015465Y008664D02*
X015465Y008664D01*
X015465Y008189D02*
X015465Y008189D01*
X015465Y008030D02*
X015465Y008030D01*
X015465Y007872D02*
X015465Y007872D01*
X015465Y007713D02*
X015465Y007713D01*
X015684Y007713D02*
X015849Y007713D01*
X015994Y007555D02*
X015022Y007555D01*
X015081Y007713D02*
X015246Y007713D01*
X015181Y007396D02*
X016284Y007396D01*
X016646Y007396D02*
X017284Y007396D01*
X016994Y007555D02*
X016936Y007555D01*
X017646Y007396D02*
X018284Y007396D01*
X017994Y007555D02*
X017936Y007555D01*
X018646Y007396D02*
X019284Y007396D01*
X018994Y007555D02*
X018936Y007555D01*
X019646Y007396D02*
X020284Y007396D01*
X019994Y007555D02*
X019936Y007555D01*
X020646Y007396D02*
X021284Y007396D01*
X020994Y007555D02*
X020936Y007555D01*
X021646Y007396D02*
X022284Y007396D01*
X021994Y007555D02*
X021936Y007555D01*
X024465Y007872D02*
X024465Y007872D01*
X024465Y008030D02*
X024465Y008030D01*
X024465Y008189D02*
X024465Y008189D01*
X025952Y009140D02*
X025978Y009140D01*
X026952Y009140D02*
X026978Y009140D01*
X028465Y008855D02*
X028965Y009355D01*
X028965Y009980D01*
X029720Y009932D02*
X030477Y009932D01*
X030477Y010091D02*
X029720Y010091D01*
X029720Y010249D02*
X030477Y010249D01*
X030477Y010408D02*
X029720Y010408D01*
X029664Y010566D02*
X030477Y010566D01*
X030477Y010725D02*
X029588Y010725D01*
X029430Y010883D02*
X030477Y010883D01*
X030477Y011042D02*
X018665Y011042D01*
X018823Y010883D02*
X028500Y010883D01*
X028342Y010725D02*
X028150Y010725D01*
X027985Y010725D02*
X027945Y010725D01*
X027945Y010566D02*
X027985Y010566D01*
X027985Y010408D02*
X027945Y010408D01*
X027579Y010566D02*
X019055Y010566D01*
X019055Y010408D02*
X027502Y010408D01*
X027780Y010725D02*
X018982Y010725D01*
X018015Y011042D02*
X017875Y011042D01*
X017875Y011200D02*
X030477Y011200D01*
X030477Y011359D02*
X017814Y011359D01*
X017770Y009774D02*
X017910Y009774D01*
X017952Y009140D02*
X017978Y009140D01*
X020952Y009140D02*
X020978Y009140D01*
X021952Y009140D02*
X021978Y009140D01*
X027936Y007555D02*
X027994Y007555D01*
X028493Y007238D02*
X015339Y007238D01*
X015498Y007079D02*
X028430Y007079D01*
X028430Y006921D02*
X015656Y006921D01*
X015815Y006762D02*
X028430Y006762D01*
X028430Y006604D02*
X015941Y006604D01*
X015465Y006355D02*
X015465Y005355D01*
X015465Y004855D01*
X014715Y004105D01*
X011465Y004105D01*
X010465Y004105D02*
X009465Y003230D01*
X010250Y003206D02*
X010250Y002905D01*
X009790Y002445D01*
X009140Y002445D01*
X008680Y002905D01*
X008680Y003555D01*
X009140Y004015D01*
X009550Y004015D01*
X009727Y004171D01*
X009560Y004380D01*
X009323Y004380D01*
X009060Y004489D01*
X008859Y004690D01*
X008750Y004953D01*
X008750Y005757D01*
X008859Y006020D01*
X009060Y006221D01*
X009323Y006330D01*
X009607Y006330D01*
X009870Y006221D01*
X009965Y006126D01*
X010060Y006221D01*
X010323Y006330D01*
X010607Y006330D01*
X010870Y006221D01*
X010965Y006126D01*
X011060Y006221D01*
X011323Y006330D01*
X011607Y006330D01*
X011870Y006221D01*
X011965Y006126D01*
X012060Y006221D01*
X012323Y006330D01*
X012607Y006330D01*
X012870Y006221D01*
X012965Y006126D01*
X013060Y006221D01*
X013323Y006330D01*
X013607Y006330D01*
X013870Y006221D01*
X013965Y006126D01*
X014060Y006221D01*
X014323Y006330D01*
X014607Y006330D01*
X014823Y006241D01*
X014493Y006570D01*
X008109Y006570D01*
X007912Y006651D01*
X007761Y006802D01*
X007761Y006802D01*
X007261Y007302D01*
X007180Y007499D01*
X007180Y007549D01*
X007120Y007489D01*
X006857Y007380D01*
X006573Y007380D01*
X006310Y007489D01*
X006250Y007549D01*
X006250Y006161D01*
X006310Y006221D01*
X006573Y006330D01*
X006857Y006330D01*
X007120Y006221D01*
X007215Y006126D01*
X007310Y006221D01*
X007573Y006330D01*
X007857Y006330D01*
X008120Y006221D01*
X008321Y006020D01*
X008430Y005757D01*
X008430Y004953D01*
X008321Y004690D01*
X008120Y004489D01*
X007857Y004380D01*
X007573Y004380D01*
X007310Y004489D01*
X007215Y004584D01*
X007120Y004489D01*
X006857Y004380D01*
X006573Y004380D01*
X006310Y004489D01*
X006215Y004584D01*
X006120Y004489D01*
X005924Y004408D01*
X005930Y004401D01*
X005930Y003809D01*
X005532Y003411D01*
X005655Y003287D01*
X005655Y003105D01*
X005215Y003105D01*
X005215Y003105D01*
X005655Y003105D01*
X005655Y002923D01*
X005397Y002665D01*
X005215Y002665D01*
X005215Y003105D01*
X005215Y003105D01*
X005215Y002665D01*
X005033Y002665D01*
X004775Y002923D01*
X004775Y003070D01*
X004191Y003070D01*
X004032Y002911D01*
X004155Y002787D01*
X004155Y002605D01*
X003715Y002605D01*
X003715Y002605D01*
X004155Y002605D01*
X004155Y002423D01*
X003897Y002165D01*
X003715Y002165D01*
X003715Y002605D01*
X003715Y002605D01*
X003715Y002605D01*
X003275Y002605D01*
X003275Y002787D01*
X003398Y002911D01*
X003000Y003309D01*
X003000Y003640D01*
X002919Y003640D01*
X002521Y004038D01*
X002407Y003924D01*
X002430Y003901D01*
X002430Y003309D01*
X002226Y003105D01*
X002430Y002901D01*
X002430Y002309D01*
X002011Y001890D01*
X001419Y001890D01*
X001000Y002309D01*
X001000Y002901D01*
X001204Y003105D01*
X001000Y003309D01*
X001000Y003901D01*
X001419Y004320D01*
X001775Y004320D01*
X001775Y004355D01*
X002215Y004355D01*
X000715Y004355D01*
X001155Y004355D01*
X001155Y004537D01*
X001032Y004661D01*
X001095Y004724D01*
X001109Y004690D01*
X001310Y004489D01*
X001573Y004380D01*
X001775Y004380D01*
X001775Y004355D01*
X002215Y004355D01*
X002215Y004355D01*
X002715Y004730D02*
X003090Y004355D01*
X003215Y004355D01*
X002715Y004730D02*
X002715Y005355D01*
X001715Y005355D02*
X000715Y005355D01*
X001073Y004702D02*
X001104Y004702D01*
X001149Y004543D02*
X001256Y004543D01*
X001155Y004385D02*
X001562Y004385D01*
X001325Y004226D02*
X001155Y004226D01*
X001155Y004173D02*
X001155Y004355D01*
X000715Y004355D01*
X000715Y004355D01*
X000715Y003915D01*
X000897Y003915D01*
X001155Y004173D01*
X001166Y004068D02*
X001050Y004068D01*
X001008Y003909D02*
X000695Y003909D01*
X000695Y003915D02*
X000715Y003915D01*
X000715Y004355D01*
X000715Y004355D01*
X000715Y004226D02*
X000715Y004226D01*
X000715Y004068D02*
X000715Y004068D01*
X000695Y003751D02*
X001000Y003751D01*
X001000Y003592D02*
X000695Y003592D01*
X000695Y003434D02*
X001000Y003434D01*
X001034Y003275D02*
X000695Y003275D01*
X000695Y003117D02*
X001192Y003117D01*
X001057Y002958D02*
X000695Y002958D01*
X000695Y002800D02*
X001000Y002800D01*
X001000Y002641D02*
X000695Y002641D01*
X000695Y002483D02*
X001000Y002483D01*
X001000Y002324D02*
X000695Y002324D01*
X000695Y002166D02*
X001143Y002166D01*
X001302Y002007D02*
X000695Y002007D01*
X000695Y001849D02*
X005500Y001849D01*
X005500Y001809D02*
X005919Y001390D01*
X006511Y001390D01*
X006930Y001809D01*
X006930Y002401D01*
X006532Y002799D01*
X006655Y002923D01*
X006655Y003105D01*
X006655Y003287D01*
X006397Y003545D01*
X006215Y003545D01*
X006215Y003105D01*
X006215Y003105D01*
X006655Y003105D01*
X006215Y003105D01*
X006215Y003105D01*
X006215Y003105D01*
X005775Y003105D01*
X005775Y003287D01*
X006033Y003545D01*
X006215Y003545D01*
X006215Y003105D01*
X005775Y003105D01*
X005775Y002923D01*
X005898Y002799D01*
X005500Y002401D01*
X005500Y001809D01*
X005619Y001690D02*
X000695Y001690D01*
X000695Y001532D02*
X005777Y001532D01*
X006653Y001532D02*
X008680Y001532D01*
X008680Y001373D02*
X000695Y001373D01*
X000695Y001215D02*
X008680Y001215D01*
X008680Y001056D02*
X000695Y001056D01*
X000695Y000898D02*
X008687Y000898D01*
X008846Y000739D02*
X000695Y000739D01*
X002128Y002007D02*
X005500Y002007D01*
X005500Y002166D02*
X003898Y002166D01*
X003715Y002166D02*
X003715Y002166D01*
X003715Y002165D02*
X003715Y002605D01*
X003275Y002605D01*
X003275Y002423D01*
X003533Y002165D01*
X003715Y002165D01*
X003532Y002166D02*
X002287Y002166D01*
X002430Y002324D02*
X003374Y002324D01*
X003275Y002483D02*
X002430Y002483D01*
X002430Y002641D02*
X003275Y002641D01*
X003715Y002483D02*
X003715Y002483D01*
X003715Y002324D02*
X003715Y002324D01*
X004056Y002324D02*
X005500Y002324D01*
X005581Y002483D02*
X004155Y002483D01*
X004155Y002641D02*
X005740Y002641D01*
X005898Y002800D02*
X005532Y002800D01*
X005655Y002958D02*
X005775Y002958D01*
X005775Y003117D02*
X005655Y003117D01*
X006215Y003117D02*
X006215Y003117D01*
X006215Y003275D02*
X006215Y003275D01*
X006215Y003434D02*
X006215Y003434D01*
X006509Y003434D02*
X008680Y003434D01*
X008680Y003275D02*
X006655Y003275D01*
X006655Y003117D02*
X008680Y003117D01*
X008680Y002958D02*
X006655Y002958D01*
X006532Y002800D02*
X008785Y002800D01*
X008944Y002641D02*
X006690Y002641D01*
X006849Y002483D02*
X009102Y002483D01*
X009828Y002483D02*
X011102Y002483D01*
X011140Y002445D02*
X011790Y002445D01*
X012250Y002905D01*
X012250Y003555D01*
X012235Y003570D01*
X014239Y003570D01*
X014398Y003411D01*
X014275Y003287D01*
X014275Y003105D01*
X014715Y003105D01*
X014715Y003105D01*
X015155Y003105D01*
X015155Y002923D01*
X014897Y002665D01*
X014715Y002665D01*
X014715Y003105D01*
X014715Y003105D01*
X014715Y003105D01*
X014715Y002665D01*
X014533Y002665D01*
X014275Y002923D01*
X014275Y003105D01*
X014715Y003105D01*
X014715Y002958D02*
X014715Y002958D01*
X014715Y002800D02*
X014715Y002800D01*
X015032Y002800D02*
X016430Y002800D01*
X016430Y002958D02*
X015155Y002958D01*
X015155Y003117D02*
X016346Y003117D01*
X016290Y003275D02*
X015155Y003275D01*
X015055Y003434D02*
X016290Y003434D01*
X016290Y003592D02*
X015213Y003592D01*
X015372Y003751D02*
X016290Y003751D01*
X016290Y003909D02*
X015430Y003909D01*
X015434Y004068D02*
X016335Y004068D01*
X016411Y004226D02*
X015593Y004226D01*
X015751Y004385D02*
X016430Y004385D01*
X016464Y004543D02*
X015924Y004543D01*
X016076Y004702D02*
X016268Y004702D01*
X016465Y004702D02*
X016465Y004702D01*
X016465Y004655D02*
X016465Y005355D01*
X016465Y005355D01*
X016465Y005355D01*
X016465Y004655D01*
X016465Y004860D02*
X016465Y004860D01*
X016465Y005019D02*
X016465Y005019D01*
X016465Y005177D02*
X016465Y005177D01*
X016465Y005336D02*
X016465Y005336D01*
X016465Y005494D02*
X016465Y005494D01*
X016465Y005653D02*
X016465Y005653D01*
X016465Y005811D02*
X016465Y005811D01*
X016465Y005970D02*
X016465Y005970D01*
X016204Y005970D02*
X016092Y005970D01*
X016000Y006128D02*
X016967Y006128D01*
X016838Y005970D02*
X016726Y005970D01*
X017963Y006128D02*
X017967Y006128D01*
X018465Y005355D02*
X018465Y004855D01*
X018965Y004355D01*
X018965Y003605D01*
X018965Y002230D01*
X018250Y002166D02*
X017680Y002166D01*
X017680Y002007D02*
X018250Y002007D01*
X018335Y001849D02*
X017595Y001849D01*
X017436Y001690D02*
X018494Y001690D01*
X018644Y001532D02*
X017286Y001532D01*
X017405Y001373D02*
X018525Y001373D01*
X018525Y001230D02*
X018525Y001048D01*
X018783Y000790D01*
X018965Y000790D01*
X018965Y001230D01*
X018965Y001230D01*
X018965Y001230D01*
X018525Y001230D01*
X018525Y001215D02*
X017405Y001215D01*
X016965Y001215D02*
X016965Y001215D01*
X016525Y001373D02*
X011975Y001373D01*
X011975Y001441D02*
X011676Y001740D01*
X011495Y001740D01*
X011495Y001260D01*
X011975Y001260D01*
X011975Y001441D01*
X011885Y001532D02*
X016644Y001532D01*
X016494Y001690D02*
X011726Y001690D01*
X011495Y001690D02*
X011435Y001690D01*
X011435Y001532D02*
X011495Y001532D01*
X011495Y001373D02*
X011435Y001373D01*
X011465Y001230D02*
X014715Y001230D01*
X016335Y001849D02*
X009957Y001849D01*
X009798Y002007D02*
X016250Y002007D01*
X016250Y002166D02*
X006930Y002166D01*
X006930Y002007D02*
X009132Y002007D01*
X008973Y001849D02*
X006930Y001849D01*
X006811Y001690D02*
X008815Y001690D01*
X010115Y001690D02*
X011204Y001690D01*
X011045Y001532D02*
X010250Y001532D01*
X010250Y001373D02*
X010955Y001373D01*
X011435Y001215D02*
X010250Y001215D01*
X010250Y001056D02*
X010955Y001056D01*
X011076Y000898D02*
X010243Y000898D01*
X010084Y000739D02*
X011235Y000739D01*
X011435Y000739D02*
X011495Y000739D01*
X011495Y000898D02*
X011435Y000898D01*
X011435Y001056D02*
X011495Y001056D01*
X011695Y000739D02*
X023945Y000739D01*
X023786Y000898D02*
X023755Y000898D01*
X023465Y000898D02*
X023465Y000898D01*
X023465Y001056D02*
X023465Y001056D01*
X023175Y000898D02*
X019255Y000898D01*
X019405Y001056D02*
X023025Y001056D01*
X024465Y001730D02*
X024465Y002730D01*
X024465Y003730D01*
X024465Y005355D01*
X025465Y005355D02*
X025465Y003730D01*
X025465Y002730D01*
X023930Y002166D02*
X022968Y002166D01*
X022810Y002007D02*
X023930Y002007D01*
X023803Y002324D02*
X023738Y002324D01*
X023485Y002324D02*
X023445Y002324D01*
X023445Y002483D02*
X023485Y002483D01*
X023485Y002641D02*
X023445Y002641D01*
X023445Y002750D02*
X023445Y003210D01*
X023266Y003210D01*
X023159Y003103D01*
X023033Y003230D01*
X023159Y003357D01*
X023266Y003250D01*
X023445Y003250D01*
X023445Y003710D01*
X023485Y003710D01*
X023485Y003250D01*
X023664Y003250D01*
X023771Y003357D01*
X023897Y003230D01*
X023771Y003103D01*
X023664Y003210D01*
X023485Y003210D01*
X023485Y002750D01*
X023445Y002750D01*
X023445Y002800D02*
X023485Y002800D01*
X023485Y002958D02*
X023445Y002958D01*
X023445Y003117D02*
X023485Y003117D01*
X023757Y003117D02*
X023784Y003117D01*
X023852Y003275D02*
X023689Y003275D01*
X023485Y003275D02*
X023445Y003275D01*
X023445Y003434D02*
X023485Y003434D01*
X023485Y003592D02*
X023445Y003592D01*
X023445Y003751D02*
X023485Y003751D01*
X023485Y003909D02*
X023445Y003909D01*
X023445Y004068D02*
X023485Y004068D01*
X023893Y004226D02*
X023037Y004226D01*
X023000Y004385D02*
X023930Y004385D01*
X022465Y003730D02*
X022465Y005355D01*
X021465Y005355D02*
X021465Y003730D01*
X023078Y003275D02*
X023241Y003275D01*
X023173Y003117D02*
X023146Y003117D01*
X023127Y002324D02*
X023192Y002324D01*
X022120Y002007D02*
X021810Y002007D01*
X018965Y001215D02*
X018965Y001215D01*
X018965Y001056D02*
X018965Y001056D01*
X018965Y000898D02*
X018965Y000898D01*
X018675Y000898D02*
X017255Y000898D01*
X017405Y001056D02*
X018525Y001056D01*
X016965Y001056D02*
X016965Y001056D01*
X016965Y000898D02*
X016965Y000898D01*
X016675Y000898D02*
X011854Y000898D01*
X011975Y001056D02*
X016525Y001056D01*
X016965Y002230D02*
X016965Y003605D01*
X016965Y004355D01*
X017465Y004855D01*
X017465Y005355D01*
X017924Y004543D02*
X018006Y004543D01*
X018179Y004385D02*
X017751Y004385D01*
X017593Y004226D02*
X018337Y004226D01*
X018335Y004068D02*
X017595Y004068D01*
X017640Y003909D02*
X018290Y003909D01*
X018290Y003751D02*
X017640Y003751D01*
X017640Y003592D02*
X018290Y003592D01*
X018290Y003434D02*
X017640Y003434D01*
X017640Y003275D02*
X018290Y003275D01*
X018346Y003117D02*
X017584Y003117D01*
X017500Y002958D02*
X018430Y002958D01*
X018430Y002800D02*
X017500Y002800D01*
X017565Y002641D02*
X018365Y002641D01*
X018250Y002483D02*
X017680Y002483D01*
X017680Y002324D02*
X018250Y002324D01*
X016365Y002641D02*
X011986Y002641D01*
X011828Y002483D02*
X016250Y002483D01*
X016250Y002324D02*
X006930Y002324D01*
X005215Y002800D02*
X005215Y002800D01*
X005215Y002958D02*
X005215Y002958D01*
X004898Y002800D02*
X004143Y002800D01*
X004079Y002958D02*
X004775Y002958D01*
X005655Y003275D02*
X005775Y003275D01*
X005921Y003434D02*
X005555Y003434D01*
X005713Y003592D02*
X008717Y003592D01*
X008875Y003751D02*
X005872Y003751D01*
X005930Y003909D02*
X009034Y003909D01*
X009610Y004068D02*
X005930Y004068D01*
X005930Y004226D02*
X009683Y004226D01*
X009312Y004385D02*
X007868Y004385D01*
X007562Y004385D02*
X006868Y004385D01*
X006562Y004385D02*
X005930Y004385D01*
X006174Y004543D02*
X006256Y004543D01*
X007174Y004543D02*
X007256Y004543D01*
X008174Y004543D02*
X009006Y004543D01*
X008854Y004702D02*
X008326Y004702D01*
X008392Y004860D02*
X008788Y004860D01*
X008750Y005019D02*
X008430Y005019D01*
X008430Y005177D02*
X008750Y005177D01*
X008750Y005336D02*
X008430Y005336D01*
X008430Y005494D02*
X008750Y005494D01*
X008750Y005653D02*
X008430Y005653D01*
X008408Y005811D02*
X008772Y005811D01*
X008838Y005970D02*
X008342Y005970D01*
X008213Y006128D02*
X008967Y006128D01*
X009218Y006287D02*
X007962Y006287D01*
X007468Y006287D02*
X006962Y006287D01*
X007213Y006128D02*
X007217Y006128D01*
X006468Y006287D02*
X006250Y006287D01*
X006250Y006445D02*
X014618Y006445D01*
X014712Y006287D02*
X014777Y006287D01*
X014218Y006287D02*
X013712Y006287D01*
X013963Y006128D02*
X013967Y006128D01*
X013218Y006287D02*
X012712Y006287D01*
X012218Y006287D02*
X011712Y006287D01*
X011218Y006287D02*
X010712Y006287D01*
X010963Y006128D02*
X010967Y006128D01*
X010218Y006287D02*
X009712Y006287D01*
X009963Y006128D02*
X009967Y006128D01*
X009465Y005355D02*
X010465Y004105D01*
X010460Y003390D02*
X010680Y003390D01*
X010680Y002905D01*
X011140Y002445D01*
X010944Y002641D02*
X009986Y002641D01*
X010145Y002800D02*
X010785Y002800D01*
X010680Y002958D02*
X010250Y002958D01*
X010250Y003117D02*
X010680Y003117D01*
X010680Y003275D02*
X010329Y003275D01*
X010250Y003206D02*
X010460Y003390D01*
X012145Y002800D02*
X014398Y002800D01*
X014275Y002958D02*
X012250Y002958D01*
X012250Y003117D02*
X014275Y003117D01*
X014275Y003275D02*
X012250Y003275D01*
X012250Y003434D02*
X014375Y003434D01*
X012967Y006128D02*
X012963Y006128D01*
X011967Y006128D02*
X011963Y006128D01*
X014715Y007105D02*
X015465Y006355D01*
X014715Y007105D02*
X008215Y007105D01*
X007715Y007605D01*
X007715Y008355D01*
X006715Y008355D01*
X005715Y008355D02*
X005715Y005355D01*
X004715Y005355D02*
X003715Y005355D01*
X004715Y005355D02*
X004715Y004605D01*
X005215Y004105D01*
X004715Y003605D01*
X003715Y003605D01*
X003000Y003592D02*
X002430Y003592D01*
X002430Y003434D02*
X003000Y003434D01*
X003034Y003275D02*
X002396Y003275D01*
X002238Y003117D02*
X003192Y003117D01*
X003351Y002958D02*
X002373Y002958D01*
X002430Y002800D02*
X003287Y002800D01*
X002808Y003751D02*
X002430Y003751D01*
X002422Y003909D02*
X002650Y003909D01*
X002217Y006128D02*
X002213Y006128D01*
X001962Y006287D02*
X002468Y006287D01*
X002962Y006287D02*
X003468Y006287D01*
X003962Y006287D02*
X004468Y006287D01*
X004962Y006287D02*
X005180Y006287D01*
X005180Y006445D02*
X000695Y006445D01*
X000695Y006287D02*
X001468Y006287D01*
X001217Y006128D02*
X000695Y006128D01*
X000695Y006604D02*
X005180Y006604D01*
X005180Y006762D02*
X000695Y006762D01*
X000695Y006921D02*
X005180Y006921D01*
X005180Y007079D02*
X000695Y007079D01*
X000695Y007238D02*
X005180Y007238D01*
X005180Y007396D02*
X002896Y007396D01*
X003186Y007555D02*
X005180Y007555D01*
X005099Y007713D02*
X004934Y007713D01*
X004715Y007713D02*
X004715Y007713D01*
X004715Y007655D02*
X004715Y008355D01*
X004715Y008355D01*
X004715Y008355D01*
X004275Y008355D01*
X004275Y008650D01*
X004286Y008718D01*
X004307Y008784D01*
X004339Y008846D01*
X004379Y008902D01*
X004428Y008951D01*
X004484Y008991D01*
X004546Y009023D01*
X004612Y009044D01*
X004680Y009055D01*
X004715Y009055D01*
X004715Y008355D01*
X004275Y008355D01*
X004275Y008060D01*
X004286Y007992D01*
X004307Y007926D01*
X004339Y007864D01*
X004379Y007808D01*
X004428Y007759D01*
X004484Y007719D01*
X004546Y007687D01*
X004612Y007666D01*
X004680Y007655D01*
X004715Y007655D01*
X004496Y007713D02*
X003934Y007713D01*
X003715Y007713D02*
X003715Y007713D01*
X003496Y007713D02*
X003331Y007713D01*
X003715Y007872D02*
X003715Y007872D01*
X003715Y008030D02*
X003715Y008030D01*
X003715Y008189D02*
X003715Y008189D01*
X003715Y008347D02*
X003715Y008347D01*
X003715Y008506D02*
X003715Y008506D01*
X003715Y008664D02*
X003715Y008664D01*
X003715Y008823D02*
X003715Y008823D01*
X003715Y008981D02*
X003715Y008981D01*
X003470Y008981D02*
X003337Y008981D01*
X003202Y009140D02*
X005169Y009140D01*
X005093Y008981D02*
X004960Y008981D01*
X004715Y008981D02*
X004715Y008981D01*
X004715Y008823D02*
X004715Y008823D01*
X004470Y008981D02*
X003960Y008981D01*
X004103Y008823D02*
X004327Y008823D01*
X004277Y008664D02*
X004153Y008664D01*
X004155Y008506D02*
X004275Y008506D01*
X004275Y008347D02*
X004155Y008347D01*
X004155Y008189D02*
X004275Y008189D01*
X004280Y008030D02*
X004150Y008030D01*
X004095Y007872D02*
X004335Y007872D01*
X004715Y007872D02*
X004715Y007872D01*
X004715Y008030D02*
X004715Y008030D01*
X004715Y008189D02*
X004715Y008189D01*
X004715Y008347D02*
X004715Y008347D01*
X004715Y008506D02*
X004715Y008506D01*
X004715Y008664D02*
X004715Y008664D01*
X005715Y008355D02*
X005715Y009105D01*
X005965Y009355D01*
X002244Y007555D02*
X002186Y007555D01*
X001896Y007396D02*
X002534Y007396D01*
X001534Y007396D02*
X000695Y007396D01*
X000695Y007555D02*
X001244Y007555D01*
X001099Y007713D02*
X000695Y007713D01*
X000695Y007872D02*
X001034Y007872D01*
X001000Y008030D02*
X000695Y008030D01*
X000695Y008189D02*
X001000Y008189D01*
X001000Y008347D02*
X000695Y008347D01*
X000695Y008506D02*
X001000Y008506D01*
X001000Y008664D02*
X000695Y008664D01*
X000695Y008823D02*
X001027Y008823D01*
X001093Y008981D02*
X000695Y008981D01*
X000695Y009140D02*
X001228Y009140D01*
X006250Y007396D02*
X006534Y007396D01*
X006896Y007396D02*
X007222Y007396D01*
X007326Y007238D02*
X006250Y007238D01*
X006250Y007079D02*
X007484Y007079D01*
X007643Y006921D02*
X006250Y006921D01*
X006250Y006762D02*
X007801Y006762D01*
X008028Y006604D02*
X006250Y006604D01*
X004217Y006128D02*
X004213Y006128D01*
X003217Y006128D02*
X003213Y006128D01*
X020963Y006128D02*
X020967Y006128D01*
X021963Y006128D02*
X021967Y006128D01*
X024963Y006128D02*
X024967Y006128D01*
X025963Y006128D02*
X025967Y006128D01*
X027963Y006128D02*
X027967Y006128D01*
X028965Y006980D02*
X029465Y007480D01*
X029465Y008355D01*
X028465Y008355D02*
X028465Y008855D01*
X029684Y009298D02*
X030246Y009298D01*
X030477Y009457D02*
X029690Y009457D01*
X029720Y009615D02*
X030477Y009615D01*
X030477Y009774D02*
X029720Y009774D01*
X029952Y009140D02*
X029978Y009140D01*
X030465Y008355D02*
X030465Y007355D01*
X029965Y006855D01*
X029965Y003730D01*
X028965Y003730D02*
X028965Y006980D01*
X027965Y003730D02*
X027840Y003730D01*
X029965Y002730D02*
X029965Y002230D01*
X029465Y001730D01*
M02*
