G75*
%MOIN*%
%OFA0B0*%
%FSLAX24Y24*%
%IPPOS*%
%LPD*%
%AMOC8*
5,1,8,0,0,1.08239X$1,22.5*
%
%ADD10C,0.0060*%
%ADD11C,0.0020*%
%ADD12R,0.0200X0.0150*%
%ADD13R,0.0150X0.0200*%
%ADD14C,0.0120*%
D10*
X008500Y001517D02*
X008500Y016117D01*
X010700Y016117D01*
X010700Y001517D01*
X009850Y001517D01*
X009848Y001547D01*
X009843Y001577D01*
X009834Y001606D01*
X009821Y001633D01*
X009806Y001659D01*
X009787Y001683D01*
X009766Y001704D01*
X009742Y001723D01*
X009716Y001738D01*
X009689Y001751D01*
X009660Y001760D01*
X009630Y001765D01*
X009600Y001767D01*
X009570Y001765D01*
X009540Y001760D01*
X009511Y001751D01*
X009484Y001738D01*
X009458Y001723D01*
X009434Y001704D01*
X009413Y001683D01*
X009394Y001659D01*
X009379Y001633D01*
X009366Y001606D01*
X009357Y001577D01*
X009352Y001547D01*
X009350Y001517D01*
X008500Y001517D01*
X013200Y002917D02*
X013200Y003067D01*
X013250Y003117D01*
X013250Y004517D01*
X013200Y004567D01*
X013200Y004717D01*
X013202Y004734D01*
X013206Y004751D01*
X013213Y004767D01*
X013223Y004781D01*
X013236Y004794D01*
X013250Y004804D01*
X013266Y004811D01*
X013283Y004815D01*
X013300Y004817D01*
X013900Y004817D01*
X013917Y004815D01*
X013934Y004811D01*
X013950Y004804D01*
X013964Y004794D01*
X013977Y004781D01*
X013987Y004767D01*
X013994Y004751D01*
X013998Y004734D01*
X014000Y004717D01*
X014000Y004567D01*
X013950Y004517D01*
X013950Y003117D01*
X014000Y003067D01*
X014000Y002917D01*
X013998Y002900D01*
X013994Y002883D01*
X013987Y002867D01*
X013977Y002853D01*
X013964Y002840D01*
X013950Y002830D01*
X013934Y002823D01*
X013917Y002819D01*
X013900Y002817D01*
X013300Y002817D01*
X013283Y002819D01*
X013266Y002823D01*
X013250Y002830D01*
X013236Y002840D01*
X013223Y002853D01*
X013213Y002867D01*
X013206Y002883D01*
X013202Y002900D01*
X013200Y002917D01*
X014600Y001967D02*
X014600Y004667D01*
X014750Y004817D01*
X017450Y004817D01*
X017600Y004667D01*
X017600Y001967D01*
X017450Y001817D01*
X014750Y001817D01*
X014600Y001967D01*
X015100Y002817D02*
X015100Y003067D01*
X014950Y003067D02*
X015100Y003567D01*
X015100Y003817D01*
X015200Y003317D02*
X015600Y003317D01*
X015750Y003317D02*
X016150Y003317D01*
X018200Y004479D02*
X018151Y004563D01*
X018099Y004645D01*
X018043Y004725D01*
X017985Y004803D01*
X017923Y004878D01*
X017858Y004951D01*
X017790Y005021D01*
X017720Y005088D01*
X017647Y005152D01*
X017571Y005213D01*
X017493Y005271D01*
X017413Y005326D01*
X017330Y005378D01*
X017246Y005426D01*
X017159Y005471D01*
X017071Y005512D01*
X016981Y005549D01*
X016890Y005583D01*
X016797Y005613D01*
X016704Y005640D01*
X016609Y005662D01*
X016514Y005681D01*
X016417Y005696D01*
X016321Y005707D01*
X016224Y005714D01*
X016126Y005717D01*
X016029Y005716D01*
X015932Y005711D01*
X015835Y005702D01*
X015738Y005690D01*
X015642Y005673D01*
X015547Y005652D01*
X015453Y005628D01*
X015360Y005600D01*
X015268Y005568D01*
X015177Y005533D01*
X015088Y005493D01*
X015001Y005450D01*
X014915Y005404D01*
X014832Y005354D01*
X014750Y005301D01*
X014671Y005245D01*
X014594Y005185D01*
X014519Y005123D01*
X014447Y005057D01*
X014378Y004989D01*
X014312Y004918D01*
X014248Y004844D01*
X014188Y004767D01*
X014131Y004689D01*
X014077Y004608D01*
X014026Y004525D01*
X013979Y004439D01*
X013935Y004353D01*
X013895Y004264D01*
X013858Y004174D01*
X013825Y004082D01*
X013796Y003989D01*
X013771Y003895D01*
X013749Y003800D01*
X013732Y003705D01*
X013718Y003608D01*
X013708Y003511D01*
X013702Y003414D01*
X013700Y003317D01*
X013702Y003220D01*
X013708Y003123D01*
X013718Y003026D01*
X013732Y002929D01*
X013749Y002834D01*
X013771Y002739D01*
X013796Y002645D01*
X013825Y002552D01*
X013858Y002460D01*
X013895Y002370D01*
X013935Y002281D01*
X013979Y002195D01*
X014026Y002109D01*
X014077Y002026D01*
X014131Y001945D01*
X014188Y001867D01*
X014248Y001790D01*
X014312Y001716D01*
X014378Y001645D01*
X014447Y001577D01*
X014519Y001511D01*
X014594Y001449D01*
X014671Y001389D01*
X014750Y001333D01*
X014832Y001280D01*
X014915Y001230D01*
X015001Y001184D01*
X015088Y001141D01*
X015177Y001101D01*
X015268Y001066D01*
X015360Y001034D01*
X015453Y001006D01*
X015547Y000982D01*
X015642Y000961D01*
X015738Y000944D01*
X015835Y000932D01*
X015932Y000923D01*
X016029Y000918D01*
X016126Y000917D01*
X016224Y000920D01*
X016321Y000927D01*
X016417Y000938D01*
X016514Y000953D01*
X016609Y000972D01*
X016704Y000994D01*
X016797Y001021D01*
X016890Y001051D01*
X016981Y001085D01*
X017071Y001122D01*
X017159Y001163D01*
X017246Y001208D01*
X017330Y001256D01*
X017413Y001308D01*
X017493Y001363D01*
X017571Y001421D01*
X017647Y001482D01*
X017720Y001546D01*
X017790Y001613D01*
X017858Y001683D01*
X017923Y001756D01*
X017985Y001831D01*
X018043Y001909D01*
X018099Y001989D01*
X018151Y002071D01*
X018200Y002155D01*
X018200Y004479D01*
X017100Y003817D02*
X017100Y003567D01*
X016950Y003067D01*
X017100Y003067D02*
X017100Y002817D01*
X017000Y003317D02*
X016850Y003317D01*
X016700Y003317D02*
X016300Y003317D01*
X016600Y004317D02*
X015600Y004317D01*
X015700Y005217D02*
X015700Y005517D01*
X016500Y005517D01*
X016500Y005217D01*
X015700Y005217D01*
X015700Y005517D02*
X015700Y005667D01*
X016500Y005667D02*
X016500Y005517D01*
X016600Y002317D02*
X015600Y002317D01*
X015700Y001417D02*
X016500Y001417D01*
X016500Y001117D01*
X016500Y000967D01*
X016500Y001117D02*
X015700Y001117D01*
X015700Y000967D01*
X015700Y001117D02*
X015700Y001417D01*
X015750Y009367D02*
X014450Y009367D01*
X014424Y009369D01*
X014398Y009374D01*
X014373Y009382D01*
X014350Y009394D01*
X014328Y009408D01*
X014309Y009426D01*
X014291Y009445D01*
X014277Y009467D01*
X014265Y009490D01*
X014257Y009515D01*
X014252Y009541D01*
X014250Y009567D01*
X014250Y010067D01*
X014252Y010093D01*
X014257Y010119D01*
X014265Y010144D01*
X014277Y010167D01*
X014291Y010189D01*
X014309Y010208D01*
X014328Y010226D01*
X014350Y010240D01*
X014373Y010252D01*
X014398Y010260D01*
X014424Y010265D01*
X014450Y010267D01*
X015750Y010267D01*
X015776Y010265D01*
X015802Y010260D01*
X015827Y010252D01*
X015850Y010240D01*
X015872Y010226D01*
X015891Y010208D01*
X015909Y010189D01*
X015923Y010167D01*
X015935Y010144D01*
X015943Y010119D01*
X015948Y010093D01*
X015950Y010067D01*
X015950Y009567D01*
X015948Y009541D01*
X015943Y009515D01*
X015935Y009490D01*
X015923Y009467D01*
X015909Y009445D01*
X015891Y009426D01*
X015872Y009408D01*
X015850Y009394D01*
X015827Y009382D01*
X015802Y009374D01*
X015776Y009369D01*
X015750Y009367D01*
X015750Y011367D02*
X014450Y011367D01*
X014424Y011369D01*
X014398Y011374D01*
X014373Y011382D01*
X014350Y011394D01*
X014328Y011408D01*
X014309Y011426D01*
X014291Y011445D01*
X014277Y011467D01*
X014265Y011490D01*
X014257Y011515D01*
X014252Y011541D01*
X014250Y011567D01*
X014250Y012067D01*
X014252Y012093D01*
X014257Y012119D01*
X014265Y012144D01*
X014277Y012167D01*
X014291Y012189D01*
X014309Y012208D01*
X014328Y012226D01*
X014350Y012240D01*
X014373Y012252D01*
X014398Y012260D01*
X014424Y012265D01*
X014450Y012267D01*
X015750Y012267D01*
X015776Y012265D01*
X015802Y012260D01*
X015827Y012252D01*
X015850Y012240D01*
X015872Y012226D01*
X015891Y012208D01*
X015909Y012189D01*
X015923Y012167D01*
X015935Y012144D01*
X015943Y012119D01*
X015948Y012093D01*
X015950Y012067D01*
X015950Y011567D01*
X015948Y011541D01*
X015943Y011515D01*
X015935Y011490D01*
X015923Y011467D01*
X015909Y011445D01*
X015891Y011426D01*
X015872Y011408D01*
X015850Y011394D01*
X015827Y011382D01*
X015802Y011374D01*
X015776Y011369D01*
X015750Y011367D01*
X014000Y012167D02*
X014000Y009467D01*
X013998Y009408D01*
X013992Y009350D01*
X013983Y009291D01*
X013969Y009234D01*
X013952Y009178D01*
X013931Y009123D01*
X013907Y009069D01*
X013879Y009017D01*
X013848Y008967D01*
X013814Y008919D01*
X013777Y008874D01*
X013736Y008831D01*
X013693Y008790D01*
X013648Y008753D01*
X013600Y008719D01*
X013550Y008688D01*
X013498Y008660D01*
X013444Y008636D01*
X013389Y008615D01*
X013333Y008598D01*
X013276Y008584D01*
X013217Y008575D01*
X013159Y008569D01*
X013100Y008567D01*
X013041Y008569D01*
X012983Y008575D01*
X012924Y008584D01*
X012867Y008598D01*
X012811Y008615D01*
X012756Y008636D01*
X012702Y008660D01*
X012650Y008688D01*
X012600Y008719D01*
X012552Y008753D01*
X012507Y008790D01*
X012464Y008831D01*
X012423Y008874D01*
X012386Y008919D01*
X012352Y008967D01*
X012321Y009017D01*
X012293Y009069D01*
X012269Y009123D01*
X012248Y009178D01*
X012231Y009234D01*
X012217Y009291D01*
X012208Y009350D01*
X012202Y009408D01*
X012200Y009467D01*
X012200Y012167D01*
X012202Y012226D01*
X012208Y012284D01*
X012217Y012343D01*
X012231Y012400D01*
X012248Y012456D01*
X012269Y012511D01*
X012293Y012565D01*
X012321Y012617D01*
X012352Y012667D01*
X012386Y012715D01*
X012423Y012760D01*
X012464Y012803D01*
X012507Y012844D01*
X012552Y012881D01*
X012600Y012915D01*
X012650Y012946D01*
X012702Y012974D01*
X012756Y012998D01*
X012811Y013019D01*
X012867Y013036D01*
X012924Y013050D01*
X012983Y013059D01*
X013041Y013065D01*
X013100Y013067D01*
X013159Y013065D01*
X013217Y013059D01*
X013276Y013050D01*
X013333Y013036D01*
X013389Y013019D01*
X013444Y012998D01*
X013498Y012974D01*
X013550Y012946D01*
X013600Y012915D01*
X013648Y012881D01*
X013693Y012844D01*
X013736Y012803D01*
X013777Y012760D01*
X013814Y012715D01*
X013848Y012667D01*
X013879Y012617D01*
X013907Y012565D01*
X013931Y012511D01*
X013952Y012456D01*
X013969Y012400D01*
X013983Y012343D01*
X013992Y012284D01*
X013998Y012226D01*
X014000Y012167D01*
X010750Y016817D02*
X010000Y016817D01*
X009998Y016856D01*
X009992Y016895D01*
X009983Y016933D01*
X009970Y016970D01*
X009953Y017006D01*
X009933Y017039D01*
X009909Y017071D01*
X009883Y017100D01*
X009854Y017126D01*
X009822Y017150D01*
X009789Y017170D01*
X009753Y017187D01*
X009716Y017200D01*
X009678Y017209D01*
X009639Y017215D01*
X009600Y017217D01*
X009561Y017215D01*
X009522Y017209D01*
X009484Y017200D01*
X009447Y017187D01*
X009411Y017170D01*
X009378Y017150D01*
X009346Y017126D01*
X009317Y017100D01*
X009291Y017071D01*
X009267Y017039D01*
X009247Y017006D01*
X009230Y016970D01*
X009217Y016933D01*
X009208Y016895D01*
X009202Y016856D01*
X009200Y016817D01*
X008450Y016817D01*
X008450Y023817D01*
X010750Y023817D01*
X010750Y016817D01*
X012200Y018917D02*
X012350Y018917D01*
X012400Y018967D01*
X013800Y018967D01*
X013850Y018917D01*
X014000Y018917D01*
X014017Y018919D01*
X014034Y018923D01*
X014050Y018930D01*
X014064Y018940D01*
X014077Y018953D01*
X014087Y018967D01*
X014094Y018983D01*
X014098Y019000D01*
X014100Y019017D01*
X014100Y019617D01*
X014098Y019634D01*
X014094Y019651D01*
X014087Y019667D01*
X014077Y019681D01*
X014064Y019694D01*
X014050Y019704D01*
X014034Y019711D01*
X014017Y019715D01*
X014000Y019717D01*
X013850Y019717D01*
X013800Y019667D01*
X012400Y019667D01*
X012350Y019717D01*
X012200Y019717D01*
X012183Y019715D01*
X012166Y019711D01*
X012150Y019704D01*
X012136Y019694D01*
X012123Y019681D01*
X012113Y019667D01*
X012106Y019651D01*
X012102Y019634D01*
X012100Y019617D01*
X012100Y019017D01*
X012102Y019000D01*
X012106Y018983D01*
X012113Y018967D01*
X012123Y018953D01*
X012136Y018940D01*
X012150Y018930D01*
X012166Y018923D01*
X012183Y018919D01*
X012200Y018917D01*
X012200Y019917D02*
X012350Y019917D01*
X012400Y019967D01*
X013800Y019967D01*
X013850Y019917D01*
X014000Y019917D01*
X014017Y019919D01*
X014034Y019923D01*
X014050Y019930D01*
X014064Y019940D01*
X014077Y019953D01*
X014087Y019967D01*
X014094Y019983D01*
X014098Y020000D01*
X014100Y020017D01*
X014100Y020617D01*
X014098Y020634D01*
X014094Y020651D01*
X014087Y020667D01*
X014077Y020681D01*
X014064Y020694D01*
X014050Y020704D01*
X014034Y020711D01*
X014017Y020715D01*
X014000Y020717D01*
X013850Y020717D01*
X013800Y020667D01*
X012400Y020667D01*
X012350Y020717D01*
X012200Y020717D01*
X012183Y020715D01*
X012166Y020711D01*
X012150Y020704D01*
X012136Y020694D01*
X012123Y020681D01*
X012113Y020667D01*
X012106Y020651D01*
X012102Y020634D01*
X012100Y020617D01*
X012100Y020017D01*
X012102Y020000D01*
X012106Y019983D01*
X012113Y019967D01*
X012123Y019953D01*
X012136Y019940D01*
X012150Y019930D01*
X012166Y019923D01*
X012183Y019919D01*
X012200Y019917D01*
X012200Y020917D02*
X012350Y020917D01*
X012400Y020967D01*
X013800Y020967D01*
X013850Y020917D01*
X014000Y020917D01*
X014017Y020919D01*
X014034Y020923D01*
X014050Y020930D01*
X014064Y020940D01*
X014077Y020953D01*
X014087Y020967D01*
X014094Y020983D01*
X014098Y021000D01*
X014100Y021017D01*
X014100Y021617D01*
X014098Y021634D01*
X014094Y021651D01*
X014087Y021667D01*
X014077Y021681D01*
X014064Y021694D01*
X014050Y021704D01*
X014034Y021711D01*
X014017Y021715D01*
X014000Y021717D01*
X013850Y021717D01*
X013800Y021667D01*
X012400Y021667D01*
X012350Y021717D01*
X012200Y021717D01*
X012183Y021715D01*
X012166Y021711D01*
X012150Y021704D01*
X012136Y021694D01*
X012123Y021681D01*
X012113Y021667D01*
X012106Y021651D01*
X012102Y021634D01*
X012100Y021617D01*
X012100Y021017D01*
X012102Y021000D01*
X012106Y020983D01*
X012113Y020967D01*
X012123Y020953D01*
X012136Y020940D01*
X012150Y020930D01*
X012166Y020923D01*
X012183Y020919D01*
X012200Y020917D01*
X012200Y021917D02*
X012350Y021917D01*
X012400Y021967D01*
X013800Y021967D01*
X013850Y021917D01*
X014000Y021917D01*
X014017Y021919D01*
X014034Y021923D01*
X014050Y021930D01*
X014064Y021940D01*
X014077Y021953D01*
X014087Y021967D01*
X014094Y021983D01*
X014098Y022000D01*
X014100Y022017D01*
X014100Y022617D01*
X014098Y022634D01*
X014094Y022651D01*
X014087Y022667D01*
X014077Y022681D01*
X014064Y022694D01*
X014050Y022704D01*
X014034Y022711D01*
X014017Y022715D01*
X014000Y022717D01*
X013850Y022717D01*
X013800Y022667D01*
X012400Y022667D01*
X012350Y022717D01*
X012200Y022717D01*
X012183Y022715D01*
X012166Y022711D01*
X012150Y022704D01*
X012136Y022694D01*
X012123Y022681D01*
X012113Y022667D01*
X012106Y022651D01*
X012102Y022634D01*
X012100Y022617D01*
X012100Y022017D01*
X012102Y022000D01*
X012106Y021983D01*
X012113Y021967D01*
X012123Y021953D01*
X012136Y021940D01*
X012150Y021930D01*
X012166Y021923D01*
X012183Y021919D01*
X012200Y021917D01*
X010750Y025817D02*
X010000Y025817D01*
X009998Y025856D01*
X009992Y025895D01*
X009983Y025933D01*
X009970Y025970D01*
X009953Y026006D01*
X009933Y026039D01*
X009909Y026071D01*
X009883Y026100D01*
X009854Y026126D01*
X009822Y026150D01*
X009789Y026170D01*
X009753Y026187D01*
X009716Y026200D01*
X009678Y026209D01*
X009639Y026215D01*
X009600Y026217D01*
X009561Y026215D01*
X009522Y026209D01*
X009484Y026200D01*
X009447Y026187D01*
X009411Y026170D01*
X009378Y026150D01*
X009346Y026126D01*
X009317Y026100D01*
X009291Y026071D01*
X009267Y026039D01*
X009247Y026006D01*
X009230Y025970D01*
X009217Y025933D01*
X009208Y025895D01*
X009202Y025856D01*
X009200Y025817D01*
X008450Y025817D01*
X008450Y032817D01*
X010750Y032817D01*
X010750Y025817D01*
X007100Y021617D02*
X007100Y021017D01*
X007098Y021000D01*
X007094Y020983D01*
X007087Y020967D01*
X007077Y020953D01*
X007064Y020940D01*
X007050Y020930D01*
X007034Y020923D01*
X007017Y020919D01*
X007000Y020917D01*
X006850Y020917D01*
X006800Y020967D01*
X005400Y020967D01*
X005350Y020917D01*
X005200Y020917D01*
X005183Y020919D01*
X005166Y020923D01*
X005150Y020930D01*
X005136Y020940D01*
X005123Y020953D01*
X005113Y020967D01*
X005106Y020983D01*
X005102Y021000D01*
X005100Y021017D01*
X005100Y021617D01*
X005102Y021634D01*
X005106Y021651D01*
X005113Y021667D01*
X005123Y021681D01*
X005136Y021694D01*
X005150Y021704D01*
X005166Y021711D01*
X005183Y021715D01*
X005200Y021717D01*
X005350Y021717D01*
X005400Y021667D01*
X006800Y021667D01*
X006850Y021717D01*
X007000Y021717D01*
X007017Y021715D01*
X007034Y021711D01*
X007050Y021704D01*
X007064Y021694D01*
X007077Y021681D01*
X007087Y021667D01*
X007094Y021651D01*
X007098Y021634D01*
X007100Y021617D01*
X007000Y020717D02*
X006850Y020717D01*
X006800Y020667D01*
X005400Y020667D01*
X005350Y020717D01*
X005200Y020717D01*
X005183Y020715D01*
X005166Y020711D01*
X005150Y020704D01*
X005136Y020694D01*
X005123Y020681D01*
X005113Y020667D01*
X005106Y020651D01*
X005102Y020634D01*
X005100Y020617D01*
X005100Y020017D01*
X005102Y020000D01*
X005106Y019983D01*
X005113Y019967D01*
X005123Y019953D01*
X005136Y019940D01*
X005150Y019930D01*
X005166Y019923D01*
X005183Y019919D01*
X005200Y019917D01*
X005350Y019917D01*
X005400Y019967D01*
X006800Y019967D01*
X006850Y019917D01*
X007000Y019917D01*
X007017Y019919D01*
X007034Y019923D01*
X007050Y019930D01*
X007064Y019940D01*
X007077Y019953D01*
X007087Y019967D01*
X007094Y019983D01*
X007098Y020000D01*
X007100Y020017D01*
X007100Y020617D01*
X007098Y020634D01*
X007094Y020651D01*
X007087Y020667D01*
X007077Y020681D01*
X007064Y020694D01*
X007050Y020704D01*
X007034Y020711D01*
X007017Y020715D01*
X007000Y020717D01*
X007000Y019717D02*
X006850Y019717D01*
X006800Y019667D01*
X005400Y019667D01*
X005350Y019717D01*
X005200Y019717D01*
X005183Y019715D01*
X005166Y019711D01*
X005150Y019704D01*
X005136Y019694D01*
X005123Y019681D01*
X005113Y019667D01*
X005106Y019651D01*
X005102Y019634D01*
X005100Y019617D01*
X005100Y019017D01*
X005102Y019000D01*
X005106Y018983D01*
X005113Y018967D01*
X005123Y018953D01*
X005136Y018940D01*
X005150Y018930D01*
X005166Y018923D01*
X005183Y018919D01*
X005200Y018917D01*
X005350Y018917D01*
X005400Y018967D01*
X006800Y018967D01*
X006850Y018917D01*
X007000Y018917D01*
X007017Y018919D01*
X007034Y018923D01*
X007050Y018930D01*
X007064Y018940D01*
X007077Y018953D01*
X007087Y018967D01*
X007094Y018983D01*
X007098Y019000D01*
X007100Y019017D01*
X007100Y019617D01*
X007098Y019634D01*
X007094Y019651D01*
X007087Y019667D01*
X007077Y019681D01*
X007064Y019694D01*
X007050Y019704D01*
X007034Y019711D01*
X007017Y019715D01*
X007000Y019717D01*
X007000Y018717D02*
X006850Y018717D01*
X006800Y018667D01*
X005400Y018667D01*
X005350Y018717D01*
X005200Y018717D01*
X005183Y018715D01*
X005166Y018711D01*
X005150Y018704D01*
X005136Y018694D01*
X005123Y018681D01*
X005113Y018667D01*
X005106Y018651D01*
X005102Y018634D01*
X005100Y018617D01*
X005100Y018017D01*
X005102Y018000D01*
X005106Y017983D01*
X005113Y017967D01*
X005123Y017953D01*
X005136Y017940D01*
X005150Y017930D01*
X005166Y017923D01*
X005183Y017919D01*
X005200Y017917D01*
X005350Y017917D01*
X005400Y017967D01*
X006800Y017967D01*
X006850Y017917D01*
X007000Y017917D01*
X007017Y017919D01*
X007034Y017923D01*
X007050Y017930D01*
X007064Y017940D01*
X007077Y017953D01*
X007087Y017967D01*
X007094Y017983D01*
X007098Y018000D01*
X007100Y018017D01*
X007100Y018617D01*
X007098Y018634D01*
X007094Y018651D01*
X007087Y018667D01*
X007077Y018681D01*
X007064Y018694D01*
X007050Y018704D01*
X007034Y018711D01*
X007017Y018715D01*
X007000Y018717D01*
X003600Y019017D02*
X003600Y019617D01*
X003598Y019634D01*
X003594Y019651D01*
X003587Y019667D01*
X003577Y019681D01*
X003564Y019694D01*
X003550Y019704D01*
X003534Y019711D01*
X003517Y019715D01*
X003500Y019717D01*
X003350Y019717D01*
X003300Y019667D01*
X001900Y019667D01*
X001850Y019717D01*
X001700Y019717D01*
X001683Y019715D01*
X001666Y019711D01*
X001650Y019704D01*
X001636Y019694D01*
X001623Y019681D01*
X001613Y019667D01*
X001606Y019651D01*
X001602Y019634D01*
X001600Y019617D01*
X001600Y019017D01*
X001602Y019000D01*
X001606Y018983D01*
X001613Y018967D01*
X001623Y018953D01*
X001636Y018940D01*
X001650Y018930D01*
X001666Y018923D01*
X001683Y018919D01*
X001700Y018917D01*
X001850Y018917D01*
X001900Y018967D01*
X003300Y018967D01*
X003350Y018917D01*
X003500Y018917D01*
X003517Y018919D01*
X003534Y018923D01*
X003550Y018930D01*
X003564Y018940D01*
X003577Y018953D01*
X003587Y018967D01*
X003594Y018983D01*
X003598Y019000D01*
X003600Y019017D01*
X003500Y019917D02*
X003350Y019917D01*
X003300Y019967D01*
X001900Y019967D01*
X001850Y019917D01*
X001700Y019917D01*
X001683Y019919D01*
X001666Y019923D01*
X001650Y019930D01*
X001636Y019940D01*
X001623Y019953D01*
X001613Y019967D01*
X001606Y019983D01*
X001602Y020000D01*
X001600Y020017D01*
X001600Y020617D01*
X001602Y020634D01*
X001606Y020651D01*
X001613Y020667D01*
X001623Y020681D01*
X001636Y020694D01*
X001650Y020704D01*
X001666Y020711D01*
X001683Y020715D01*
X001700Y020717D01*
X001850Y020717D01*
X001900Y020667D01*
X003300Y020667D01*
X003350Y020717D01*
X003500Y020717D01*
X003517Y020715D01*
X003534Y020711D01*
X003550Y020704D01*
X003564Y020694D01*
X003577Y020681D01*
X003587Y020667D01*
X003594Y020651D01*
X003598Y020634D01*
X003600Y020617D01*
X003600Y020017D01*
X003598Y020000D01*
X003594Y019983D01*
X003587Y019967D01*
X003577Y019953D01*
X003564Y019940D01*
X003550Y019930D01*
X003534Y019923D01*
X003517Y019919D01*
X003500Y019917D01*
X003500Y020917D02*
X003350Y020917D01*
X003300Y020967D01*
X001900Y020967D01*
X001850Y020917D01*
X001700Y020917D01*
X001683Y020919D01*
X001666Y020923D01*
X001650Y020930D01*
X001636Y020940D01*
X001623Y020953D01*
X001613Y020967D01*
X001606Y020983D01*
X001602Y021000D01*
X001600Y021017D01*
X001600Y021617D01*
X001602Y021634D01*
X001606Y021651D01*
X001613Y021667D01*
X001623Y021681D01*
X001636Y021694D01*
X001650Y021704D01*
X001666Y021711D01*
X001683Y021715D01*
X001700Y021717D01*
X001850Y021717D01*
X001900Y021667D01*
X003300Y021667D01*
X003350Y021717D01*
X003500Y021717D01*
X003517Y021715D01*
X003534Y021711D01*
X003550Y021704D01*
X003564Y021694D01*
X003577Y021681D01*
X003587Y021667D01*
X003594Y021651D01*
X003598Y021634D01*
X003600Y021617D01*
X003600Y021017D01*
X003598Y021000D01*
X003594Y020983D01*
X003587Y020967D01*
X003577Y020953D01*
X003564Y020940D01*
X003550Y020930D01*
X003534Y020923D01*
X003517Y020919D01*
X003500Y020917D01*
X015600Y021017D02*
X015600Y021617D01*
X015602Y021634D01*
X015606Y021651D01*
X015613Y021667D01*
X015623Y021681D01*
X015636Y021694D01*
X015650Y021704D01*
X015666Y021711D01*
X015683Y021715D01*
X015700Y021717D01*
X015850Y021717D01*
X015900Y021667D01*
X017300Y021667D01*
X017350Y021717D01*
X017500Y021717D01*
X017517Y021715D01*
X017534Y021711D01*
X017550Y021704D01*
X017564Y021694D01*
X017577Y021681D01*
X017587Y021667D01*
X017594Y021651D01*
X017598Y021634D01*
X017600Y021617D01*
X017600Y021017D01*
X017598Y021000D01*
X017594Y020983D01*
X017587Y020967D01*
X017577Y020953D01*
X017564Y020940D01*
X017550Y020930D01*
X017534Y020923D01*
X017517Y020919D01*
X017500Y020917D01*
X017350Y020917D01*
X017300Y020967D01*
X015900Y020967D01*
X015850Y020917D01*
X015700Y020917D01*
X015683Y020919D01*
X015666Y020923D01*
X015650Y020930D01*
X015636Y020940D01*
X015623Y020953D01*
X015613Y020967D01*
X015606Y020983D01*
X015602Y021000D01*
X015600Y021017D01*
X015700Y020717D02*
X015850Y020717D01*
X015900Y020667D01*
X017300Y020667D01*
X017350Y020717D01*
X017500Y020717D01*
X017517Y020715D01*
X017534Y020711D01*
X017550Y020704D01*
X017564Y020694D01*
X017577Y020681D01*
X017587Y020667D01*
X017594Y020651D01*
X017598Y020634D01*
X017600Y020617D01*
X017600Y020017D01*
X017598Y020000D01*
X017594Y019983D01*
X017587Y019967D01*
X017577Y019953D01*
X017564Y019940D01*
X017550Y019930D01*
X017534Y019923D01*
X017517Y019919D01*
X017500Y019917D01*
X017350Y019917D01*
X017300Y019967D01*
X015900Y019967D01*
X015850Y019917D01*
X015700Y019917D01*
X015683Y019919D01*
X015666Y019923D01*
X015650Y019930D01*
X015636Y019940D01*
X015623Y019953D01*
X015613Y019967D01*
X015606Y019983D01*
X015602Y020000D01*
X015600Y020017D01*
X015600Y020617D01*
X015602Y020634D01*
X015606Y020651D01*
X015613Y020667D01*
X015623Y020681D01*
X015636Y020694D01*
X015650Y020704D01*
X015666Y020711D01*
X015683Y020715D01*
X015700Y020717D01*
X015700Y019717D02*
X015850Y019717D01*
X015900Y019667D01*
X017300Y019667D01*
X017350Y019717D01*
X017500Y019717D01*
X017517Y019715D01*
X017534Y019711D01*
X017550Y019704D01*
X017564Y019694D01*
X017577Y019681D01*
X017587Y019667D01*
X017594Y019651D01*
X017598Y019634D01*
X017600Y019617D01*
X017600Y019017D01*
X017598Y019000D01*
X017594Y018983D01*
X017587Y018967D01*
X017577Y018953D01*
X017564Y018940D01*
X017550Y018930D01*
X017534Y018923D01*
X017517Y018919D01*
X017500Y018917D01*
X017350Y018917D01*
X017300Y018967D01*
X015900Y018967D01*
X015850Y018917D01*
X015700Y018917D01*
X015683Y018919D01*
X015666Y018923D01*
X015650Y018930D01*
X015636Y018940D01*
X015623Y018953D01*
X015613Y018967D01*
X015606Y018983D01*
X015602Y019000D01*
X015600Y019017D01*
X015600Y019617D01*
X015602Y019634D01*
X015606Y019651D01*
X015613Y019667D01*
X015623Y019681D01*
X015636Y019694D01*
X015650Y019704D01*
X015666Y019711D01*
X015683Y019715D01*
X015700Y019717D01*
X015700Y018717D02*
X015850Y018717D01*
X015900Y018667D01*
X017300Y018667D01*
X017350Y018717D01*
X017500Y018717D01*
X017517Y018715D01*
X017534Y018711D01*
X017550Y018704D01*
X017564Y018694D01*
X017577Y018681D01*
X017587Y018667D01*
X017594Y018651D01*
X017598Y018634D01*
X017600Y018617D01*
X017600Y018017D01*
X017598Y018000D01*
X017594Y017983D01*
X017587Y017967D01*
X017577Y017953D01*
X017564Y017940D01*
X017550Y017930D01*
X017534Y017923D01*
X017517Y017919D01*
X017500Y017917D01*
X017350Y017917D01*
X017300Y017967D01*
X015900Y017967D01*
X015850Y017917D01*
X015700Y017917D01*
X015683Y017919D01*
X015666Y017923D01*
X015650Y017930D01*
X015636Y017940D01*
X015623Y017953D01*
X015613Y017967D01*
X015606Y017983D01*
X015602Y018000D01*
X015600Y018017D01*
X015600Y018617D01*
X015602Y018634D01*
X015606Y018651D01*
X015613Y018667D01*
X015623Y018681D01*
X015636Y018694D01*
X015650Y018704D01*
X015666Y018711D01*
X015683Y018715D01*
X015700Y018717D01*
X015700Y021917D02*
X015850Y021917D01*
X015900Y021967D01*
X017300Y021967D01*
X017350Y021917D01*
X017500Y021917D01*
X017517Y021919D01*
X017534Y021923D01*
X017550Y021930D01*
X017564Y021940D01*
X017577Y021953D01*
X017587Y021967D01*
X017594Y021983D01*
X017598Y022000D01*
X017600Y022017D01*
X017600Y022617D01*
X017598Y022634D01*
X017594Y022651D01*
X017587Y022667D01*
X017577Y022681D01*
X017564Y022694D01*
X017550Y022704D01*
X017534Y022711D01*
X017517Y022715D01*
X017500Y022717D01*
X017350Y022717D01*
X017300Y022667D01*
X015900Y022667D01*
X015850Y022717D01*
X015700Y022717D01*
X015683Y022715D01*
X015666Y022711D01*
X015650Y022704D01*
X015636Y022694D01*
X015623Y022681D01*
X015613Y022667D01*
X015606Y022651D01*
X015602Y022634D01*
X015600Y022617D01*
X015600Y022017D01*
X015602Y022000D01*
X015606Y021983D01*
X015613Y021967D01*
X015623Y021953D01*
X015636Y021940D01*
X015650Y021930D01*
X015666Y021923D01*
X015683Y021919D01*
X015700Y021917D01*
X016350Y026317D02*
X016100Y026567D01*
X016100Y027067D01*
X016350Y027317D01*
X017850Y027317D01*
X018100Y027567D01*
X018100Y028067D01*
X017850Y028317D01*
X016350Y028317D01*
X016100Y028567D01*
X016100Y029067D01*
X016350Y029317D01*
X017850Y029317D01*
X018100Y029567D01*
X018100Y030067D01*
X017850Y030317D01*
X016350Y030317D01*
X016100Y030567D01*
X016100Y031067D01*
X016350Y031317D01*
X016100Y031567D01*
X016100Y032067D01*
X016350Y032317D01*
X017850Y032317D01*
X018100Y032067D01*
X018100Y031567D01*
X017850Y031317D01*
X016350Y031317D01*
X016350Y030317D02*
X016100Y030067D01*
X016100Y029567D01*
X016350Y029317D01*
X016350Y028317D02*
X016100Y028067D01*
X016100Y027567D01*
X016350Y027317D01*
X016350Y026317D02*
X017850Y026317D01*
X018100Y026567D01*
X018100Y027067D01*
X017850Y027317D01*
X017850Y028317D02*
X018100Y028567D01*
X018100Y029067D01*
X017850Y029317D01*
X017850Y030317D02*
X018100Y030567D01*
X018100Y031067D01*
X017850Y031317D01*
D11*
X013800Y012167D02*
X013800Y009467D01*
X013798Y009416D01*
X013793Y009365D01*
X013783Y009315D01*
X013770Y009265D01*
X013754Y009217D01*
X013734Y009170D01*
X013710Y009124D01*
X013684Y009081D01*
X013654Y009039D01*
X013621Y009000D01*
X013586Y008963D01*
X013548Y008929D01*
X013507Y008898D01*
X013465Y008869D01*
X013420Y008844D01*
X013374Y008823D01*
X013326Y008804D01*
X013277Y008790D01*
X013227Y008779D01*
X013177Y008771D01*
X013126Y008767D01*
X013074Y008767D01*
X013023Y008771D01*
X012973Y008779D01*
X012923Y008790D01*
X012874Y008804D01*
X012826Y008823D01*
X012780Y008844D01*
X012735Y008869D01*
X012693Y008898D01*
X012652Y008929D01*
X012614Y008963D01*
X012579Y009000D01*
X012546Y009039D01*
X012516Y009081D01*
X012490Y009124D01*
X012466Y009170D01*
X012446Y009217D01*
X012430Y009265D01*
X012417Y009315D01*
X012407Y009365D01*
X012402Y009416D01*
X012400Y009467D01*
X012400Y012167D01*
X012402Y012218D01*
X012407Y012269D01*
X012417Y012319D01*
X012430Y012369D01*
X012446Y012417D01*
X012466Y012464D01*
X012490Y012510D01*
X012516Y012553D01*
X012546Y012595D01*
X012579Y012634D01*
X012614Y012671D01*
X012652Y012705D01*
X012693Y012736D01*
X012735Y012765D01*
X012780Y012790D01*
X012826Y012811D01*
X012874Y012830D01*
X012923Y012844D01*
X012973Y012855D01*
X013023Y012863D01*
X013074Y012867D01*
X013126Y012867D01*
X013177Y012863D01*
X013227Y012855D01*
X013277Y012844D01*
X013326Y012830D01*
X013374Y012811D01*
X013420Y012790D01*
X013465Y012765D01*
X013507Y012736D01*
X013548Y012705D01*
X013586Y012671D01*
X013621Y012634D01*
X013654Y012595D01*
X013684Y012553D01*
X013710Y012510D01*
X013734Y012464D01*
X013754Y012417D01*
X013770Y012369D01*
X013783Y012319D01*
X013793Y012269D01*
X013798Y012218D01*
X013800Y012167D01*
D12*
X013600Y004892D03*
X013600Y002742D03*
D13*
X015525Y018317D03*
X015525Y019317D03*
X015525Y020317D03*
X015525Y021317D03*
X015525Y022317D03*
X014175Y022317D03*
X014175Y021317D03*
X014175Y020317D03*
X014175Y019317D03*
X012025Y019317D03*
X012025Y020317D03*
X012025Y021317D03*
X012025Y022317D03*
X007175Y021317D03*
X007175Y020317D03*
X007175Y019317D03*
X007175Y018317D03*
X005025Y018317D03*
X005025Y019317D03*
X005025Y020317D03*
X005025Y021317D03*
X003675Y021317D03*
X003675Y020317D03*
X003675Y019317D03*
X001525Y019317D03*
X001525Y020317D03*
X001525Y021317D03*
X017675Y021317D03*
X017675Y022317D03*
X017675Y020317D03*
X017675Y019317D03*
X017675Y018317D03*
D14*
X015220Y012117D02*
X015220Y011517D01*
X014970Y011517D02*
X014970Y012117D01*
X014970Y010117D02*
X014970Y009517D01*
X015220Y009517D02*
X015220Y010117D01*
M02*
