G75*
%MOIN*%
%OFA0B0*%
%FSLAX24Y24*%
%IPPOS*%
%LPD*%
%AMOC8*
5,1,8,0,0,1.08239X$1,22.5*
%
%ADD10C,0.0600*%
%ADD11OC8,0.0680*%
%ADD12C,0.0520*%
%ADD13OC8,0.0740*%
%ADD14OC8,0.0600*%
%ADD15C,0.0680*%
D10*
X001715Y005095D02*
X001715Y005615D01*
X002715Y005615D02*
X002715Y005095D01*
X003715Y005095D02*
X003715Y005615D01*
X004715Y005615D02*
X004715Y005095D01*
X005715Y005095D02*
X005715Y005615D01*
X006715Y005615D02*
X006715Y005095D01*
X007715Y005095D02*
X007715Y005615D01*
X009465Y005615D02*
X009465Y005095D01*
X010465Y005095D02*
X010465Y005615D01*
X011465Y005615D02*
X011465Y005095D01*
X012465Y005095D02*
X012465Y005615D01*
X013465Y005615D02*
X013465Y005095D01*
X014465Y005095D02*
X014465Y005615D01*
X015465Y005615D02*
X015465Y005095D01*
X016465Y005095D02*
X016465Y005615D01*
X017465Y005615D02*
X017465Y005095D01*
X018465Y005095D02*
X018465Y005615D01*
X019465Y005615D02*
X019465Y005095D01*
X020465Y005095D02*
X020465Y005615D01*
X021465Y005615D02*
X021465Y005095D01*
X022465Y005095D02*
X022465Y005615D01*
X024465Y005615D02*
X024465Y005095D01*
X025465Y005095D02*
X025465Y005615D01*
X026465Y005615D02*
X026465Y005095D01*
X027465Y005095D02*
X027465Y005615D01*
X028465Y005615D02*
X028465Y005095D01*
X029465Y005095D02*
X029465Y005615D01*
X030465Y005615D02*
X030465Y005095D01*
X030465Y008095D02*
X030465Y008615D01*
X029465Y008615D02*
X029465Y008095D01*
X028465Y008095D02*
X028465Y008615D01*
X027465Y008615D02*
X027465Y008095D01*
X026465Y008095D02*
X026465Y008615D01*
X025465Y008615D02*
X025465Y008095D01*
X024465Y008095D02*
X024465Y008615D01*
X022465Y008615D02*
X022465Y008095D01*
X021465Y008095D02*
X021465Y008615D01*
X020465Y008615D02*
X020465Y008095D01*
X019465Y008095D02*
X019465Y008615D01*
X018465Y008615D02*
X018465Y008095D01*
X017465Y008095D02*
X017465Y008615D01*
X016465Y008615D02*
X016465Y008095D01*
X015465Y008095D02*
X015465Y008615D01*
X014465Y008615D02*
X014465Y008095D01*
X013465Y008095D02*
X013465Y008615D01*
X012465Y008615D02*
X012465Y008095D01*
X011465Y008095D02*
X011465Y008615D01*
X010465Y008615D02*
X010465Y008095D01*
X009465Y008095D02*
X009465Y008615D01*
X007715Y008615D02*
X007715Y008095D01*
X006715Y008095D02*
X006715Y008615D01*
X005715Y008615D02*
X005715Y008095D01*
X004715Y008095D02*
X004715Y008615D01*
X003715Y008615D02*
X003715Y008095D01*
X002715Y008095D02*
X002715Y008615D01*
X001715Y008615D02*
X001715Y008095D01*
D11*
X021465Y003730D03*
X022465Y003730D03*
X023465Y003730D03*
X024465Y003730D03*
X025465Y003730D03*
X026465Y003730D03*
X027965Y003730D03*
X028965Y003730D03*
X029965Y003730D03*
X029965Y002730D03*
X028965Y002730D03*
X027965Y002730D03*
X026465Y002730D03*
X025465Y002730D03*
X024465Y002730D03*
X023465Y002730D03*
X022465Y002730D03*
X021465Y002730D03*
D12*
X018965Y003385D02*
X018965Y003825D01*
X016965Y003825D02*
X016965Y003385D01*
D13*
X011465Y003230D03*
X009465Y003230D03*
X009465Y001230D03*
X011465Y001230D03*
D14*
X006215Y002105D03*
X006215Y003105D03*
X005215Y003105D03*
X003715Y002605D03*
X001715Y002605D03*
X001715Y003605D03*
X003715Y003605D03*
X005215Y004105D03*
X003215Y004355D03*
X002215Y004355D03*
X000715Y004355D03*
X000715Y005355D03*
X010465Y004105D03*
X011465Y004105D03*
X014715Y004105D03*
X014715Y003105D03*
X016965Y002230D03*
X018965Y002230D03*
X018965Y001230D03*
X016965Y001230D03*
X023465Y001230D03*
X024465Y001230D03*
X016465Y009355D03*
X015465Y009355D03*
X015465Y010355D03*
X016465Y010355D03*
X017340Y010355D03*
X018340Y010355D03*
X016465Y011105D03*
X015465Y011105D03*
X005715Y009605D03*
X004715Y009605D03*
D15*
X027965Y009680D02*
X027965Y010280D01*
X028965Y010280D02*
X028965Y009680D01*
M02*
